<svg id="Capa_1" data-name="Capa 1" xmlns="http://www.w3.org/2000/svg" xmlns:xlink="http://www.w3.org/1999/xlink" viewBox="0 0 2000 800"><defs><style>.cls-1{fill:none;}.cls-2{clip-path:url(#clip-path);}.cls-3{fill:#bfa779;}.cls-3,.cls-4{fill-rule:evenodd;}.cls-4,.cls-5{fill:#5b2135;}</style><clipPath id="clip-path"><rect class="cls-1" width="2000" height="800"/></clipPath></defs><title>500 NOCHES</title><g class="cls-2"><g class="cls-2"><path class="cls-3" d="M261.6,324.79h71c4.33,0,7-.23,7.87-.7,1.29-.74,2.07-2.38,2.3-4.87h8.35v24.09h-79l-1.95,40.2a84.25,84.25,0,0,1,12.48-2.3,154.75,154.75,0,0,1,17.34-1.14q19.07,0,33.26,6.87t21.52,18.79a49.73,49.73,0,0,1,7.37,26.66q0,22.82-17.15,38.68t-43.63,15.79a68.17,68.17,0,0,1-27.68-5.46q-12.4-5.5-19.38-14.47c-4.64-6-7-11.22-7-15.71a11.07,11.07,0,0,1,3-7.71,9.88,9.88,0,0,1,7.64-3.24,11.18,11.18,0,0,1,8.46,4c1.36,1.37,3,4.72,4.91,10,2.57,7.49,6.43,12.95,11.54,16.46s11.35,5.38,18.95,5.38a41,41,0,0,0,20.31-5,35.47,35.47,0,0,0,14.07-14.27,42,42,0,0,0,5.15-20.7,41,41,0,0,0-5.58-21.37A36.68,36.68,0,0,0,320,400.31q-10.35-5.15-25.19-5.15a102.8,102.8,0,0,0-19.34,1.95A95.42,95.42,0,0,0,257.71,402Zm186.51-2.73q17.61,0,30.72,9c8.78,6,15.87,15.36,21.37,28.15s8.23,28.3,8.23,46.47q0,40.47-20.24,63-16.43,18.24-41.56,18.25a51.43,51.43,0,0,1-30.13-9.09q-13.15-9.06-21.25-27.21t-8.11-46.16q0-28.18,7.91-46c5.31-11.85,12.52-20.9,21.64-27.06a54.94,54.94,0,0,1,31.42-9.24m-.54,11.31A29.41,29.41,0,0,0,426.63,342c-5.22,5-9.39,13-12.43,23.79a149,149,0,0,0-5.27,40.89,138.81,138.81,0,0,0,3.28,31.46c2.14,9.4,5,16.73,8.61,21.91A36.66,36.66,0,0,0,433,471.69a29.22,29.22,0,0,0,14.34,3.75q11.3,0,21.14-8.78c5.22-4.79,9.39-12,12.43-21.48q5.5-17.37,5.5-40.78,0-24.21-5.62-41.13C477,352,472.48,344.21,467,339.88a30.11,30.11,0,0,0-19.45-6.51m145.61-11.31q17.61,0,30.72,9t21.37,28.15q8.24,19.19,8.22,46.47,0,40.47-20.23,63-16.44,18.24-41.56,18.25a51.46,51.46,0,0,1-30.14-9.09q-13.15-9.06-21.24-27.21t-8.11-46.16q0-28.18,7.91-46c5.3-11.85,12.52-20.9,21.64-27.06a54.94,54.94,0,0,1,31.42-9.24m-.54,11.31A29.38,29.38,0,0,0,571.7,342c-5.22,5-9.4,13-12.44,23.79A149,149,0,0,0,554,406.7a139.41,139.41,0,0,0,3.27,31.46c2.15,9.4,5,16.73,8.62,21.91a36.73,36.73,0,0,0,12.16,11.62,29.29,29.29,0,0,0,14.35,3.75q11.29,0,21.13-8.78c5.23-4.79,9.4-12,12.44-21.48q5.49-17.37,5.5-40.78,0-24.21-5.62-41.13c-3.74-11.26-8.3-19.06-13.76-23.39a30.11,30.11,0,0,0-19.45-6.51m157.62-8.58h48.88l72.52,119.49V353.33c0-5.38-.55-9.28-1.6-11.62a11.17,11.17,0,0,0-4.8-5.38c-2.14-1.21-5.3-1.83-9.47-1.83h-4.13v-9.71H905v9.71h-2.88c-4.72,0-7.92.39-9.6,1.13a10.63,10.63,0,0,0-5.3,5.85c-1.17,2.81-1.75,6.78-1.75,11.85v130.8H871.66L784.29,340.54V454.3c0,6.32.19,10.18.59,11.55a11.35,11.35,0,0,0,2.88,4.79,10.7,10.7,0,0,0,5,3c1.87.55,5.73.86,11.54.94v9.59h-54v-9.59h2.84c5.5,0,9.2-.55,11.15-1.6a10.24,10.24,0,0,0,4.48-5.5c1.1-2.57,1.6-6.94,1.6-13.14v-101c0-6.32-.11-10.14-.43-11.5a8.82,8.82,0,0,0-3.93-5.61c-2-1.14-5.81-1.72-11.62-1.72h-4.09ZM1009,322.06a75.65,75.65,0,0,1,39.42,10.49,79.69,79.69,0,0,1,29.27,29.36Q1088,380,1088,403.7q0,36.78-22.85,60t-58.24,23.16q-39.48,0-62.57-27.88-18.84-22.68-18.87-54.34,0-23.52,10.64-42.23A77.08,77.08,0,0,1,966.2,332.9,87.06,87.06,0,0,1,1009,322.06m0,12.32c-11.89,0-22.06,2.73-30.6,8.19s-15.36,13.45-20.51,24-7.72,23.66-7.72,39.18q0,22.28,7.6,37.74t20.39,23.7a52,52,0,0,0,28.78,8.23,50.13,50.13,0,0,0,28.11-8q12.21-8.07,20.23-25.38a90.74,90.74,0,0,0,8-38.4,95.26,95.26,0,0,0-8-39.3q-6.9-15.31-18.17-22.61T1009,334.38m229.24-9.59h8.23l14.5,53.1-10.61,3q-8.6-18.42-13-24.68a53.59,53.59,0,0,0-18.24-16.1,49.25,49.25,0,0,0-24-6,51.54,51.54,0,0,0-28.38,8.3c-8.65,5.5-15.67,13.61-21,24.25s-8.07,22.65-8.07,36c0,13.72,2.73,25.92,8.14,36.68s12.83,19,22.11,24.76a55.68,55.68,0,0,0,30.06,8.69c10.14,0,20.47-2.88,31.07-8.69a84.9,84.9,0,0,0,27.53-24.33l9.12,6.28a94.24,94.24,0,0,1-15.29,17.82,90.07,90.07,0,0,1-27.09,17.38,83,83,0,0,1-30.84,5.58q-37.12,0-60.31-27.53Q1113,436.53,1113,405q0-23.22,10.64-42a79.75,79.75,0,0,1,29.28-29.86,77.36,77.36,0,0,1,40.27-11.08,71.43,71.43,0,0,1,21.41,3.12,76.74,76.74,0,0,1,20,10.14Zm46.12,0h61.44v9.71h-4.21c-4.87,0-8.34.47-10.44,1.37a8.1,8.1,0,0,0-4.41,4.79c-.66,1.68-1,5.22-1,10.64v44.41h82.57V352.43c0-5.84-.2-9.39-.59-10.6a8.36,8.36,0,0,0-3.94-5.5c-2-1.21-5.06-1.83-9.2-1.83h-6.27v-9.71h61v9.71h-5.5c-4.25,0-7.29.47-9.08,1.44a8.07,8.07,0,0,0-3.78,3.86c-.7,1.64-1.06,5.19-1.06,10.57V458.91c0,6,.36,9.82,1.14,11.46a6.75,6.75,0,0,0,4.55,3.47c1.37.46,5.93.7,13.73.7v9.59h-61v-9.59h4.44c5.65,0,9.4-.39,11.27-1.13a5.78,5.78,0,0,0,3.59-3.67c.46-1.29.7-5.38.7-12.24V408.07h-82.57v50.84c0,6,.38,9.82,1.16,11.5a6.73,6.73,0,0,0,4.64,3.43q2.52.69,14.27.7v9.59H1284.4v-9.59h3.9c5.92,0,9.63-.31,11.11-1a7,7,0,0,0,3.55-3.7q1.33-2.75,1.33-9.71V350.37c0-4.95-.4-8.38-1.22-10.26a8.3,8.3,0,0,0-3.74-4.24c-1.71-.9-4.56-1.37-8.54-1.37h-6.39Zm187.21,0h129.51l15,41.91-10,3.79q-3.75-10.31-8.23-16.18a42.67,42.67,0,0,0-10.68-10,37.29,37.29,0,0,0-12.56-5.5q-6.32-1.35-22.88-1.37h-38.6v58.36h19.18c7.06,0,12.44-1.16,16-3.58a18.56,18.56,0,0,0,7.48-9c1.09-2.65,1.6-7.29,1.6-13.92V366.7h11.19v69.91h-11.19v-6.05c0-5.34-.39-9.16-1.17-11.54a17.68,17.68,0,0,0-4.4-6.67,16.91,16.91,0,0,0-6.91-4.28c-2.49-.78-6.7-1.13-12.63-1.13h-19.18v51.85c0,5.38.24,8.69.74,9.86a4.66,4.66,0,0,0,2.46,2.57c1.13.55,4.25.78,9.36.78h23.85q20,0,31.23-4.79a54,54,0,0,0,19.85-14.74c4.48-5.14,8.77-12.47,12.9-21.91l10.37,3.67L1606,484.13H1471.61v-9.59h4.56c5.34,0,8.66-.35,9.94-1a10,10,0,0,0,4.56-4.83c.79-1.52,1.18-4.84,1.18-9.9V349.12c0-4.95-.51-8.26-1.49-9.94a9.63,9.63,0,0,0-5.14-3.86c-1.29-.55-5.85-.82-13.61-.82Zm275.59,0h8.23l12.24,49.12-10.53,3.2q-10-20.7-26.7-32.55a50.69,50.69,0,0,0-30.41-9.94,44,44,0,0,0-18,3.58c-5.3,2.42-9.32,5.5-12,9.32a19,19,0,0,0-.94,22.07,28.3,28.3,0,0,0,9.36,8.85q6.32,3.8,20.58,8l29.79,8.81a143.59,143.59,0,0,1,16,6.16,65,65,0,0,1,16.29,9.63,36.18,36.18,0,0,1,9.12,12.48,38,38,0,0,1,3.32,15.9c0,12.67-5.54,23.7-16.61,33.22s-25.42,14.19-43,14.19a69.61,69.61,0,0,1-24.33-3.94q-10.76-3.92-23.19-14l-5.27,15.21h-8l-10.6-57.23,10.6-2.15a85.36,85.36,0,0,0,15.48,26.94,67.58,67.58,0,0,0,21.36,16.73,54.09,54.09,0,0,0,23.82,5.65,44.46,44.46,0,0,0,28.77-9.94q10.29-8.31,10.3-19.65a21.79,21.79,0,0,0-7.45-17q-7.55-6.6-26.94-12.36l-28.58-8.18q-24-7-33.8-17.86a35.93,35.93,0,0,1-9.82-24.87,35.13,35.13,0,0,1,6.39-20.28c4.29-6.19,10.84-11.42,19.65-15.59a66.64,66.64,0,0,1,29-6.28,71.4,71.4,0,0,1,25.38,4.56,55.75,55.75,0,0,1,15.75,9.13Z"/><path class="cls-3" d="M792,233.52H795l5.44,19.94-4,1.13a69.76,69.76,0,0,0-4.89-9.27,20.16,20.16,0,0,0-6.85-6,18.39,18.39,0,0,0-9-2.24,19.3,19.3,0,0,0-10.65,3.12,22.21,22.21,0,0,0-7.89,9.1,29.57,29.57,0,0,0-3,13.51,30.1,30.1,0,0,0,3.06,13.77,22.81,22.81,0,0,0,8.3,9.3,20.9,20.9,0,0,0,11.28,3.26,24.16,24.16,0,0,0,11.67-3.26,31.75,31.75,0,0,0,10.33-9.14l3.43,2.36a35.1,35.1,0,0,1-5.74,6.69,33.8,33.8,0,0,1-10.17,6.53,31.26,31.26,0,0,1-11.58,2.09c-9.3,0-16.83-3.44-22.65-10.33a30.71,30.71,0,0,1-7.2-20.41,31.43,31.43,0,0,1,4-15.76,29.86,29.86,0,0,1,11-11.21A29.06,29.06,0,0,1,775,232.5a26.93,26.93,0,0,1,8,1.17,28.52,28.52,0,0,1,7.52,3.81Zm39.58,0h7.07l18.57,50q1.37,3.78,2.77,5a5.44,5.44,0,0,0,3.74,1.23h.94v3.6H843.31v-3.6c.69-.06,1.36-.09,2-.09a5.66,5.66,0,0,0,2.71-.43,2.4,2.4,0,0,0,1.24-2.06,21,21,0,0,0-1.2-4.42l-4-11.58H822.44l-4.64,13a10,10,0,0,0-.74,2.79,2.64,2.64,0,0,0,.46,1.5,2.82,2.82,0,0,0,1.23,1,6.8,6.8,0,0,0,2.49.32c.76,0,1.39,0,1.87.05v3.6H805.24v-3.6a9.28,9.28,0,0,0,3.57-.5,4.79,4.79,0,0,0,1.92-1.58,21.68,21.68,0,0,0,2.13-4.61ZM824,267h18.49l-9.27-25.73Zm45.49-33.45h45.76l5.53,15.7-3.73,1.42a27.59,27.59,0,0,0-4.63-7.89,12.92,12.92,0,0,0-5.27-3.43q-3-1-9.44-1H884.82v23h5.89a17.62,17.62,0,0,0,6.64-.91,6.43,6.43,0,0,0,3.09-2.85,11.9,11.9,0,0,0,1.07-5.55v-1.6h4.2v26.25h-4.2V274.3a11.22,11.22,0,0,0-1-5.27,6.15,6.15,0,0,0-2.81-2.72q-1.77-.82-6.32-.83h-6.53v18.6a8.39,8.39,0,0,0,.54,3.59,3.49,3.49,0,0,0,1.58,1.53,8.94,8.94,0,0,0,3.77.55h1.57v3.6H869.51v-3.6H871a9.61,9.61,0,0,0,3.79-.52,3.22,3.22,0,0,0,1.56-1.61,11.07,11.07,0,0,0,.48-4V243a10.2,10.2,0,0,0-.47-3.74,3,3,0,0,0-1.43-1.56,7.92,7.92,0,0,0-3.37-.5h-2Zm55.75,0h48.63l5.62,15.74-3.78,1.42a22.59,22.59,0,0,0-3.09-6.07,15.75,15.75,0,0,0-4-3.75,14,14,0,0,0-4.71-2.07,48.89,48.89,0,0,0-8.59-.51H940.84v21.91H948a10.9,10.9,0,0,0,6-1.34,7,7,0,0,0,2.82-3.37,15.72,15.72,0,0,0,.6-5.23v-1h4.2V275.5h-4.2v-2.26a15.38,15.38,0,0,0-.44-4.34,6.75,6.75,0,0,0-1.66-2.5,6.33,6.33,0,0,0-2.59-1.61,18.14,18.14,0,0,0-4.74-.42h-7.2v19.46a14.19,14.19,0,0,0,.27,3.71,1.78,1.78,0,0,0,.93,1,11.27,11.27,0,0,0,3.51.29h9q7.51,0,11.72-1.8a20.18,20.18,0,0,0,7.45-5.53,32.18,32.18,0,0,0,4.85-8.22l3.89,1.37-6.69,18.74H925.26v-3.6H927a10.64,10.64,0,0,0,3.73-.39,3.73,3.73,0,0,0,1.71-1.81,9.89,9.89,0,0,0,.44-3.72V242.66a8.3,8.3,0,0,0-.56-3.73,3.57,3.57,0,0,0-1.93-1.45,21.45,21.45,0,0,0-5.11-.31Zm146.87,0h28.44c6.94,0,11.7.33,14.28,1a17.44,17.44,0,0,1,9,5,13,13,0,0,1,1.56,15.21,14.88,14.88,0,0,1-5.11,4.94,20.65,20.65,0,0,1-5.82,2.29,28.66,28.66,0,0,1,7.11,2.05,14,14,0,0,1,5.83,5.15,13.64,13.64,0,0,1,2.15,7.54,14.23,14.23,0,0,1-2.11,7.55,16.52,16.52,0,0,1-5.93,5.71,23.4,23.4,0,0,1-8.94,2.85,87.94,87.94,0,0,1-10.51.62h-30v-3.6h2c1.94,0,3.26-.31,4-.91,1-.82,1.56-2.2,1.56-4.11V243.17a11.35,11.35,0,0,0-.47-4,3,3,0,0,0-1.42-1.55,9.4,9.4,0,0,0-3.64-.47h-2Zm15.58,4.76v21.91h10.93c5.11,0,8.62-.23,10.5-.71a12.82,12.82,0,0,0,6.76-4,10.78,10.78,0,0,0,2.34-7.15,9.24,9.24,0,0,0-2.12-6.17,10.86,10.86,0,0,0-5.7-3.36,51.21,51.21,0,0,0-9.6-.56Zm0,26V284a13.65,13.65,0,0,0,.25,3.53,2,2,0,0,0,1.37,1.06,20.5,20.5,0,0,0,4.12.23h5.84q8.64,0,12.37-1a12.17,12.17,0,0,0,6.32-4.08,11.26,11.26,0,0,0,2.62-7.48,10.8,10.8,0,0,0-2.12-6.55,11.85,11.85,0,0,0-5.89-4.11c-2.5-.85-6.94-1.26-13.3-1.26Zm72.25-30.8H1167l18.57,50q1.37,3.78,2.77,5a5.45,5.45,0,0,0,3.75,1.23h.93v3.6h-21.31v-3.6c.69-.06,1.36-.09,2-.09a5.66,5.66,0,0,0,2.71-.43,2.4,2.4,0,0,0,1.24-2.06,21,21,0,0,0-1.2-4.42l-4-11.58h-21.69l-4.64,13a10.24,10.24,0,0,0-.73,2.79,2.63,2.63,0,0,0,.45,1.5,2.82,2.82,0,0,0,1.23,1,6.8,6.8,0,0,0,2.49.32c.76,0,1.39,0,1.87.05v3.6h-17.87v-3.6a9.28,9.28,0,0,0,3.57-.5,4.79,4.79,0,0,0,1.92-1.58,22.08,22.08,0,0,0,2.14-4.61ZM1152.45,267h18.48l-9.26-25.73Zm45.07-33.45h30.86c5.88,0,10.31.62,13.31,1.83a15.24,15.24,0,0,1,6.92,5.27,13.54,13.54,0,0,1,2.42,8,14.79,14.79,0,0,1-2.36,8.29,15.83,15.83,0,0,1-6.79,5.71q-4.44,2.08-11.77,2.17l15.78,19.29a33.26,33.26,0,0,0,2.54,3,11.25,11.25,0,0,0,3.14,2,9.72,9.72,0,0,0,3.7.69h1.09v3.6h-13.64l-22-28.56h-7.67v18.44a19.38,19.38,0,0,0,.21,3.85,3.49,3.49,0,0,0,1.52,2.07,9.47,9.47,0,0,0,4.1.6h1.53v3.6h-22.93v-3.6h2.06a10.21,10.21,0,0,0,3.1-.31,3.33,3.33,0,0,0,1.42-1,4.67,4.67,0,0,0,.88-1.92c.06-.31.1-1.75.13-4.33V243a9.28,9.28,0,0,0-.52-3.69,3.23,3.23,0,0,0-1.44-1.61,7.1,7.1,0,0,0-3.19-.5h-2.44Zm15.57,4.67v22.52h12.3a33.88,33.88,0,0,0,8.79-.77,10.46,10.46,0,0,0,5.68-3.77,11.24,11.24,0,0,0,2.08-7,11.53,11.53,0,0,0-1.49-6.06,9.5,9.5,0,0,0-4.1-3.69,18.84,18.84,0,0,0-7.74-1.23Z"/><path class="cls-4" d="M1822.37,388.4a15.86,15.86,0,1,1-15.87,15.86,15.87,15.87,0,0,1,15.87-15.86"/><path class="cls-4" d="M197.86,388.4A15.86,15.86,0,1,1,182,404.26a15.86,15.86,0,0,1,15.86-15.86"/><path class="cls-4" d="M1025.38,248.9a15.86,15.86,0,1,1-15.86,15.86,15.87,15.87,0,0,1,15.86-15.86"/><path class="cls-5" d="M339.24,467.1A3.83,3.83,0,0,0,343.3,463a4.13,4.13,0,0,0-1.12-3,4,4,0,0,0-2.93-1.13c-20.07.11-36,2.66-47.61,8-13,6-24.29,16.73-33.57,31.9-.34.51-2,3.36-12.23,20.94-3,5.11-5.76,9.66-8.37,13.61.12-3.17.18-6.25.19-9.21,0-15.78-1.36-28.77-4.15-38.6-4.12-14.52-11.28-21.89-21.28-21.92a24.24,24.24,0,0,0-5.74.78h0a3.89,3.89,0,0,0-3,3.89,3.88,3.88,0,0,0,5.27,4.07,12.17,12.17,0,0,1,3.47-.52c14.27,0,17.2,28.7,17.15,52.74,0,7.84-.34,15.36-1,22.4a4.58,4.58,0,0,0,1,3.54,3.84,3.84,0,0,0,2.88,1.17,4.31,4.31,0,0,0,3.5-1.89,216.46,216.46,0,0,0,15.38-23q7-11.78,13.84-23.6c8.57-13.94,18.76-23.66,30.32-28.88,10.36-4.78,25-7.2,43.48-7.2.14,0,.27,0,.43,0"/><path class="cls-5" d="M353.16,497.91h0a6.87,6.87,0,0,0,4.8-1.85,6.19,6.19,0,0,0,2.07-4.64,6.28,6.28,0,0,0-2-4.69,6.87,6.87,0,0,0-4.83-1.89h0a6.91,6.91,0,0,0-4.83,1.85,6.3,6.3,0,0,0-2.06,4.7,6.18,6.18,0,0,0,2,4.63,6.9,6.9,0,0,0,4.86,1.89"/><path class="cls-5" d="M1866,516.61a4.6,4.6,0,0,0-2,.48c-5.53,2.88-10.87,5.36-15.83,7.37a341.13,341.13,0,0,1-50.07,15.27c-20.39,4.66-37.63,7-51.25,7l-1.68,0c3.2-3.42,4.81-8.12,4.83-14,0-1.29-.32-4.15-2.94-14,3.51-2.79,5.22-5.51,5.23-8.29,0-7.41-5.07-8.22-7.25-8.23h0a7.24,7.24,0,0,0-5.73,2.63,9,9,0,0,0-2,5.8,27.7,27.7,0,0,0,.34,4.21l-3,1.49a3.53,3.53,0,0,0-1.74.44c-34.65,16.16-64,24.36-87.29,24.36h-.22c-10.07,0-14.69-1.68-16.77-3.41,6.21-7.57,9.24-14.15,9.25-20.09a6.52,6.52,0,0,0-1.76-4.41,5.91,5.91,0,0,0-4.39-2h0c-2.62,0-5,1.74-7.21,5.29a26.52,26.52,0,0,0-11.77-3h0a21,21,0,0,0-11.63,3.4c-13.49,6-31.45,11.9-53.4,17.64-20.49,5.32-37.88,8.69-51.79,10.05a29.7,29.7,0,0,0,2.94-4.81,24.6,24.6,0,0,0,2.75-10.64c0-4.6-1.25-8.17-3.73-10.6s-6.1-3.65-10.78-3.66a30.28,30.28,0,0,0-7.29.84c.24-.43.46-.86.7-1.29a4.68,4.68,0,0,0,.35-1.72,3.9,3.9,0,0,0-4.13-4.18h0a4,4,0,0,0-3.64,2.2l-3.23,5.91c-34.27,15.9-63.34,24-86.42,24h-.2c-10.08,0-14.7-1.67-16.77-3.4,6.2-7.57,9.23-14.16,9.24-20.1a6.52,6.52,0,0,0-1.76-4.4,5.87,5.87,0,0,0-4.39-2h0c-2.63,0-5,1.73-7.22,5.28a26.47,26.47,0,0,0-11.77-3h0a21.51,21.51,0,0,0-15.41,6.42c-11.42,6.34-31.28,12.39-59.2,18-28.12,5.66-48.59,8.32-60.73,8a27.61,27.61,0,0,1-14.46-4.6c-4.38-2.78-6.6-5.8-6.59-9,0-7.15,2.06-16.61,6.09-28.12q4.79-13.34,9.47-26.67a65.92,65.92,0,0,0,13.83,1.75h.17c12.46,0,22.68-2.72,30.35-8.07a4,4,0,0,0,1.77-3.35,3.89,3.89,0,0,0-4.06-4.24,3.71,3.71,0,0,0-2.41.81c-6.28,4.4-14.9,6.63-25.64,6.63h-.17c-4.91,0-12.27-1.36-21.88-4-10.11-2.81-17.67-4.18-23.09-4.2h-.08c-10.43,0-21,4-31.41,11.92a4,4,0,0,0-1.74,3.26,3.91,3.91,0,0,0,4.13,4.22,3.52,3.52,0,0,0,2.49-.91c9-6.76,17.93-10.19,26.52-10.19h.08c4.28,0,12.07,1.47,23.17,4.35q-4.76,13.29-9.45,26.57c-4.2,12.07-6.34,22.24-6.36,30.24,0,6.22,3.46,11.58,10.31,15.92a36.48,36.48,0,0,0,18.73,5.87c12.76.37,33.84-2.35,62.53-8.12,20.84-4.18,37.48-8.68,49.77-13.46a28.52,28.52,0,0,0-1.33,8.67,16.42,16.42,0,0,0,2.62,9.45,11.19,11.19,0,0,0,9.79,5.2h0c6.8,0,14.17-3.94,22.46-12,4.29,3.71,11.67,5.53,22.42,5.55h.22c22,0,48.74-6.79,79.81-20.23a.5.5,0,0,0,0,.12c-10.78,19.57-18.49,34.77-23,45.26a4.26,4.26,0,0,0-.32,1.6,4,4,0,0,0,1.16,3,4.22,4.22,0,0,0,3,1.09,3.9,3.9,0,0,0,3.74-2.55c3.09-7.24,8.11-17.41,15-30.35a24.39,24.39,0,0,0,17,6.88,27.78,27.78,0,0,0,3.37-.22h1c14.67,0,35.26-3.32,61.21-9.86a454.8,454.8,0,0,0,45.06-13.5,28.45,28.45,0,0,0-2.23,11.14,16.39,16.39,0,0,0,2.62,9.45,11.16,11.16,0,0,0,9.78,5.2h.05c6.8,0,14.16-3.94,22.45-12,4.29,3.71,11.67,5.53,22.42,5.56h.22c23.74,0,53.14-8,87.5-23.65a4.16,4.16,0,0,0,1.22-.27,49.76,49.76,0,0,0,5.51-2.35,39.17,39.17,0,0,1,1.83,9.12c0,3.63-.83,6.53-2.45,8.62s-4.14,3.31-7.46,3.31h0a16.4,16.4,0,0,1-3.81-.4,13.8,13.8,0,0,1-3.8-2,13,13,0,0,1-1.89-1.77l-.34-.36a4.8,4.8,0,0,0-3.2-1.57,4,4,0,0,0-3,1.12,4.09,4.09,0,0,0-1.12,3,4.17,4.17,0,0,0,.54,2.06,3,3,0,0,0,.25.47,16.81,16.81,0,0,0,10.47,7,61.74,61.74,0,0,0,20.75,3.31h.24c16,0,36.91-3.19,62-9.48,25.61-6.35,45.51-13.48,59.26-21.27a4.09,4.09,0,0,0,2-3.45,3.89,3.89,0,0,0-4-4.24m-122.84-6.81h0Zm-124.44,26.57c-7.19,7.51-13.34,11.32-18.29,11.32h0a3.42,3.42,0,0,1-3-1.26,8.92,8.92,0,0,1-1.15-5.14,20.52,20.52,0,0,1,4.93-13.43c3.27-4.14,7-6.15,11.47-6.15h0a18.32,18.32,0,0,1,8.25,2.2c-1.62,4.26-2.4,7.49-2.41,9.84a13.66,13.66,0,0,0,.23,2.62m-146.84-6.59c3.69-4.5,8.61-6.69,15-6.69,2.15.1,3.87.48,4.85,1.44s1.44,2.48,1.43,4.59a17.51,17.51,0,0,1-4.29,10.9c-2.91,3.62-6,5.46-9.24,5.46h0c-4.51,0-8.42-1.77-12.1-5.5a4.27,4.27,0,0,0-.89-.61q2.48-4.61,5.23-9.59m-115.42,6c-7.19,7.52-13.34,11.32-18.29,11.32h0a3.36,3.36,0,0,1-3-1.26c-.77-1-1.17-2.8-1.16-5.14a20.53,20.53,0,0,1,4.94-13.43c.36-.46.73-.9,1.11-1.31a50.85,50.85,0,0,0,4.33-2.77,4.6,4.6,0,0,0,1-1.1,13.16,13.16,0,0,1,5-1,17.21,17.21,0,0,1,8.28,2.21c-1.61,4.26-2.4,7.49-2.41,9.84a14.4,14.4,0,0,0,.23,2.61"/><path class="cls-5" d="M1078.14,515.12a3.37,3.37,0,0,0-2.74,1c-6.14,5.23-19.16,9.87-38.61,13.78L993.48,537c-9.43,1.66-16.84,3.15-22.49,4.51,1.29-4.13,2.32-7.31,3-9.24,10.94-6.84,16-12.33,16-17.24a6.39,6.39,0,0,0-1.64-4.64,6.15,6.15,0,0,0-4.6-1.7h0c-5.69,0-10.62,4.62-14.64,13.68-.62,1.31-1.22,2.75-1.84,4.33a177.5,177.5,0,0,1-21,10.39c-9.41,3.92-13.36,4.75-15,4.75h0a.44.44,0,0,1-.59-.49,29.48,29.48,0,0,1-.11-3.63c0-3.59,1.35-8.39,4-14.3a50.73,50.73,0,0,0,5.49-2.35c4.79-2.59,7.22-5.65,7.23-9.1a4.44,4.44,0,0,0-2.25-4,9,9,0,0,0-4.54-1h0c-4.65,0-8.78,3.51-12.27,10.42a3.71,3.71,0,0,0-.9,1.93c-3.32,7-4.93,13-4.94,18.32,0,3.49.32,6,1,7.67.9,2.17,3,4.76,7.87,4.76h0c3,0,8.14-1.41,15.59-4.33a180.48,180.48,0,0,0,16.6-7.56c-.74,2.33-1.36,4.3-1.86,5.93-21.86,7.14-33,18-33,32.43a13,13,0,0,0,3.18,8.65,11.13,11.13,0,0,0,8.83,4.27h0c6.88,0,12.89-4.53,17.84-13.47,2.91-5.25,6.18-13.75,9.7-25.25,4.13-1.18,8.85-2.33,14-3.41,2.39-.45,6.63-1.23,12.66-2.29l27.82-4.32a295.47,295.47,0,0,0,32.7-6.8c11.67-3.32,20.21-7.21,25.27-11.47a3.93,3.93,0,0,0,1.64-3.21,4.14,4.14,0,0,0-1.13-3,4.09,4.09,0,0,0-3-1.14M940.62,581.2a3,3,0,0,1-2.5-1.27,4.86,4.86,0,0,1-1.25-3.34c0-9.27,7.28-16.85,21.58-22.57-2.71,8.35-5.25,14.59-7.55,18.59-3.24,5.7-6.7,8.59-10.28,8.59"/><path class="cls-5" d="M857.58,514.48a4.44,4.44,0,0,0-2,.49c-5.55,2.88-10.88,5.36-15.83,7.37a342.93,342.93,0,0,1-50.08,15.26c-20.39,4.66-37.63,7-51.28,7-.53,0-1.08,0-1.65,0,3.2-3.43,4.81-8.12,4.83-14,0-1.29-.31-4.15-2.94-14,3.51-2.78,5.23-5.51,5.23-8.29a8.94,8.94,0,0,0-1.77-5.92,6.79,6.79,0,0,0-5.48-2.3h0a7.24,7.24,0,0,0-5.73,2.62,9,9,0,0,0-2,5.8,26.54,26.54,0,0,0,.35,4.21c-1.14.56-2.16,1.06-3.07,1.49a5,5,0,0,0-1.85.53c-6.89,4-16.77,7.89-29.37,11.59-14.92,4.36-28.38,6.65-40,6.78a88.94,88.94,0,0,1-27.1-4.2,15.63,15.63,0,0,0,1-5.36,11.42,11.42,0,0,0-6.34-10.42,20.48,20.48,0,0,0-10.36-2.69,14.65,14.65,0,0,0-8.13,1.7,7.42,7.42,0,0,0-1.7,1.36,3.52,3.52,0,0,0-.66-.92,4,4,0,0,0-2.93-1.12,4.75,4.75,0,0,0-2.2.56,32.53,32.53,0,0,0-3.7,2.62c-10.4,4.83-27.55,10.91-51,18.11-25.77,7.94-42.93,12-51,12-2.54-.12-2.46-.75-2.46-1.48,0-.91.43-3.16,3.23-8,2.57-4.42,3.82-8.07,3.83-11.17a11.55,11.55,0,0,0-4.88-9.56,15.56,15.56,0,0,0-9.39-3h0a24.34,24.34,0,0,0-10.51,2.73,4.27,4.27,0,0,0,.31-1.58,4,4,0,0,0-1.11-2.92,4.24,4.24,0,0,0-3.1-1.15h0a4,4,0,0,0-3.59,2.29l-2,4.07c-14,7-31.74,13.63-52.67,19.62-23.51,6.76-42.72,10.18-57.08,10.18-.49,0-1.57,0-4,.14q-3,.15-5.07.15c-8.32,0-11.75-1.54-12.18-2.91a11.35,11.35,0,0,1-.38-3.19,28,28,0,0,1,3-11.92c2.07-4.36,4.46-7.3,7.09-8.73a4,4,0,0,0,2.22-3.55,4.27,4.27,0,0,0-1.15-3.12,4,4,0,0,0-2.89-1.12,3.12,3.12,0,0,0-2,.57c-4.18,2.2-7.73,6.27-10.54,12.09a35.94,35.94,0,0,0-4,15.82,17.15,17.15,0,0,0,.8,5.53c1.79,5.86,8.22,8.72,19.65,8.75q2.07,0,5.25-.12c2.3-.06,3.56-.1,4.24-.1,15,0,35-3.53,59.35-10.5a358.79,358.79,0,0,0,44.61-15.76l-1,2a113.78,113.78,0,0,1-9.74,16.9h0a4.27,4.27,0,0,0,.35,5.48,4.36,4.36,0,0,0,6.28-.61c3.6-5,7.73-12.29,12.28-21.81l8.44-6a18.41,18.41,0,0,1,9.21-3h0a7.17,7.17,0,0,1,4.48,1.43,3.39,3.39,0,0,1,1.59,2.87c0,.9-.43,3.13-3.25,7.94-2.61,4.43-3.89,8.09-3.89,11.19,0,3.61,1.37,9.68,10.68,9.71h.06c9,0,26.53-4,53.44-12.26,14.84-4.58,27.26-8.74,37.11-12.44-2.43,4.24-3.66,8.19-3.67,11.77,0,8.82,4.69,13.68,13.26,13.7h0c5.49,0,11.64-1.89,18.27-5.61a48.26,48.26,0,0,0,14.36-11.85,100.29,100.29,0,0,0,31.42,5.08c12.43-.15,26.62-2.54,42.18-7.11,11.57-3.37,21.06-7,28.25-10.71a2.91,2.91,0,0,0,.39-.12,50,50,0,0,0,5.51-2.35,39.36,39.36,0,0,1,1.83,9.12c0,3.64-.83,6.53-2.45,8.62s-4.13,3.31-7.46,3.31a26,26,0,0,1-3.84-.41,13.05,13.05,0,0,1-3.8-2,12.69,12.69,0,0,1-1.87-1.75s-.32-.34-.37-.39a4.77,4.77,0,0,0-3.19-1.55h0a4,4,0,0,0-2.93,1.11,4.39,4.39,0,0,0-.59,5,2.3,2.3,0,0,0,.26.49,16.82,16.82,0,0,0,10.46,7,61.5,61.5,0,0,0,20.75,3.3c16.07,0,37-3.15,62.27-9.47,25.61-6.35,45.5-13.47,59.25-21.26a4.11,4.11,0,0,0,2-3.46,3.89,3.89,0,0,0-4.06-4.24M737,507.67h0ZM612,518.74a13.39,13.39,0,0,1,6.28,1.49c2,1.17,2.23,2.37,2.23,3.3a7.68,7.68,0,0,1-.54,2.65c-8.28-3.36-10.45-5.9-11-7.2a14.78,14.78,0,0,1,3-.24m3.22,14.43a45,45,0,0,1-10.47,7.94c-5.19,3-9.7,4.45-13.4,4.45h0a5.76,5.76,0,0,1-4.17-1.29A6,6,0,0,1,585.9,540c0-3,1.73-6.9,5.11-11.49a45.7,45.7,0,0,1,6.34-6.91,4.26,4.26,0,0,0,1.21-1,24.24,24.24,0,0,1,2-1.42c.5,5.31,5.31,9.91,14.65,14"/></g></g></svg>