<?xml version="1.0" standalone="no"?>
<!DOCTYPE svg PUBLIC "-//W3C//DTD SVG 20010904//EN"
 "http://www.w3.org/TR/2001/REC-SVG-20010904/DTD/svg10.dtd">
<svg version="1.0" xmlns="http://www.w3.org/2000/svg"
 width="2500.000000pt" height="1042.000000pt" viewBox="0 0 2500.000000 1042.000000"
 preserveAspectRatio="xMidYMid meet">

<g transform="translate(0.000000,1042.000000) scale(0.100000,-0.100000)"
fill="#000000" stroke="none">
<path d="M14545 8979 c-57 -30 -68 -42 -160 -164 -46 -60 -118 -148 -162 -195
-166 -180 -263 -318 -263 -374 0 -17 6 -49 14 -70 35 -100 99 -113 212 -43
291 180 714 569 714 658 0 21 -102 116 -184 170 -68 46 -110 50 -171 18z"/>
<path d="M4166 8850 c-739 -52 -1354 -291 -1745 -679 -199 -198 -359 -469
-417 -704 -9 -40 -30 -93 -46 -118 -158 -257 -272 -698 -254 -985 22 -374 198
-655 534 -854 52 -30 71 -47 68 -59 -12 -44 -16 -239 -6 -340 27 -287 93 -471
276 -778 212 -353 423 -626 658 -850 113 -107 113 -108 130 -178 34 -138 66
-308 66 -351 0 -61 -38 -101 -142 -148 -217 -98 -199 -87 -196 -120 5 -51 26
-53 123 -12 48 20 89 35 91 34 1 -2 -38 -47 -88 -101 -84 -91 -90 -100 -80
-122 9 -18 19 -25 40 -25 24 0 45 16 105 80 42 43 97 108 123 142 40 53 46 58
40 33 -3 -16 -14 -80 -23 -141 -16 -105 -16 -113 0 -138 10 -14 26 -26 37 -26
34 0 48 26 49 92 0 34 8 99 18 143 20 96 24 278 6 296 -7 7 -13 27 -13 45 0
17 -11 86 -25 154 -14 68 -25 127 -25 131 0 5 54 -28 121 -73 101 -67 347
-203 398 -220 12 -3 12 -12 1 -57 -18 -74 -62 -116 -191 -177 -121 -59 -137
-73 -121 -110 7 -13 18 -27 26 -30 8 -3 50 13 95 35 44 23 83 41 85 41 2 0
-11 -36 -30 -81 -34 -77 -35 -81 -19 -105 31 -47 55 -29 111 81 27 55 66 126
86 158 l35 58 7 -32 c3 -17 6 -67 6 -110 0 -57 4 -82 16 -93 18 -19 45 -21 62
-4 21 21 11 287 -14 351 -6 16 -3 16 37 1 24 -8 95 -29 157 -45 l112 -30 108
-107 c146 -146 257 -208 426 -239 158 -29 367 4 509 79 144 77 547 513 794
861 269 377 445 725 597 1179 154 460 204 744 193 1088 -10 290 -73 520 -195
715 -18 30 -18 30 11 94 52 115 70 203 70 341 0 104 -4 141 -25 220 -61 223
-199 442 -411 654 -79 79 -91 95 -104 145 -69 264 -325 547 -663 734 -179 98
-631 212 -985 246 -152 15 -464 21 -609 11z m609 -326 c248 -25 545 -91 733
-164 155 -60 314 -170 442 -307 63 -67 130 -163 130 -186 0 -4 -30 8 -67 27
-227 113 -541 166 -814 136 -325 -35 -643 -166 -967 -398 l-83 -59 -42 39
c-147 137 -331 226 -577 279 -92 20 -134 23 -330 23 -218 0 -228 0 -315 -27
-136 -43 -267 -103 -371 -173 -52 -34 -94 -60 -94 -57 0 18 119 180 183 249
437 469 1278 708 2172 618z m522 -721 c-4 -58 -9 -108 -11 -111 -3 -2 -38 -8
-78 -12 -40 -5 -93 -12 -117 -16 l-44 -7 7 109 c4 59 9 110 12 113 7 8 144 29
193 30 l44 1 -6 -107z m306 88 c21 -5 40 -11 42 -13 5 -5 -13 -200 -19 -206
-5 -4 -237 16 -243 21 -1 2 1 52 4 111 l6 109 86 -7 c47 -4 103 -11 124 -15z
m-637 -68 c-3 -21 -6 -72 -6 -114 l0 -75 -86 -34 c-121 -47 -272 -150 -370
-252 -97 -101 -168 -203 -234 -339 -27 -56 -52 -95 -54 -88 -3 8 -7 120 -9
249 -2 129 -7 243 -11 252 -6 14 13 33 95 93 92 68 119 84 119 71 0 -5 27
-138 35 -172 7 -29 40 -36 67 -14 l22 17 -18 99 c-10 55 -19 108 -20 118 -1
15 21 32 92 69 51 27 96 46 100 43 3 -4 8 -39 10 -79 4 -76 13 -97 43 -97 41
0 51 27 47 126 -1 51 0 96 4 100 8 7 157 62 172 63 5 1 6 -16 2 -36z m894 -4
c41 -16 80 -32 87 -37 8 -5 4 -27 -17 -81 -16 -41 -33 -78 -37 -82 -5 -5 -33
-2 -63 5 -30 8 -68 17 -83 20 -31 7 -31 -3 -11 169 7 55 -2 54 124 6z m-2623
-25 l59 -6 12 -82 c12 -79 18 -213 11 -220 -2 -2 -41 1 -85 7 l-81 11 -38 130
c-20 72 -39 136 -42 143 -4 11 18 16 83 21 12 1 48 -1 81 -4z m-219 -157 c27
-93 36 -139 29 -141 -7 -2 -50 -9 -97 -15 -47 -6 -94 -14 -106 -17 -17 -5 -26
7 -63 88 -23 51 -47 101 -53 111 -5 11 -8 20 -6 22 12 12 249 97 255 92 0 -1
19 -64 41 -140z m550 111 c68 -17 82 -24 77 -37 -4 -9 -9 -87 -12 -173 -3 -87
-9 -158 -12 -158 -3 0 -51 18 -106 39 l-99 40 2 38 c3 38 -12 190 -24 253 l-7
33 49 -7 c27 -4 86 -17 132 -28z m2526 -45 c25 -15 51 -40 57 -55 6 -15 29
-43 50 -63 34 -31 38 -37 29 -61 -6 -14 -8 -30 -4 -35 3 -5 -21 2 -53 17 -32
14 -88 37 -125 51 l-67 25 21 51 c11 29 24 62 29 75 5 12 11 22 13 22 3 0 25
-12 50 -27z m-2266 -53 c124 -65 114 -37 92 -261 l-19 -194 21 -17 c24 -22 29
-22 52 -5 16 11 21 42 34 176 l15 162 28 -27 c59 -56 63 -78 66 -329 3 -222 3
-229 -14 -205 -94 131 -236 272 -340 338 l-43 27 0 111 c0 143 10 264 22 264
6 0 44 -18 86 -40z m-1178 -26 c0 -9 18 -54 40 -101 22 -47 40 -87 40 -88 0
-1 -28 -13 -62 -25 -35 -12 -84 -33 -110 -46 l-46 -23 -32 50 c-18 27 -41 56
-52 63 -18 13 -16 16 29 56 50 44 172 130 185 130 5 0 8 -7 8 -16z m2975 -89
c386 -69 681 -211 907 -436 109 -109 118 -128 118 -254 0 -118 -15 -164 -114
-350 -9 -16 -16 -35 -16 -41 0 -17 -130 -136 -200 -184 -80 -54 -241 -131
-350 -166 -47 -15 -107 -37 -135 -50 -68 -32 -357 -117 -480 -143 -318 -65
-1509 -233 -1975 -277 -313 -30 -645 -20 -686 21 -7 7 -29 16 -49 19 -54 10
-259 110 -330 161 -161 114 -276 304 -291 478 -10 115 72 374 174 545 55 92
175 228 259 291 228 173 586 259 844 202 201 -45 370 -136 521 -280 118 -112
183 -197 241 -309 l42 -84 -58 -53 c-31 -29 -85 -72 -120 -96 -34 -24 -79 -60
-99 -80 -67 -65 -47 -123 70 -200 111 -74 193 -141 259 -213 67 -73 93 -89
129 -80 28 7 49 45 59 106 4 25 33 76 87 150 45 62 97 134 116 161 82 114 38
203 -144 289 -45 21 -87 38 -93 38 -48 0 87 310 201 461 156 207 370 338 618
379 41 6 82 13 90 15 36 9 323 -5 405 -20z m766 -137 c6 -12 -11 -5 -51 19
-55 32 -59 37 -43 49 16 11 22 8 51 -19 19 -18 38 -40 43 -49z m-3961 -100 c0
-3 -19 -21 -42 -39 -24 -18 -67 -55 -95 -83 -47 -44 -55 -49 -68 -35 -13 13
-11 21 20 71 18 31 38 73 44 93 5 20 22 52 37 72 l26 35 39 -54 c21 -29 39
-56 39 -60z m-250 -242 c0 -2 -7 -9 -15 -16 -13 -11 -14 -10 -9 4 5 14 24 23
24 12z m2070 -434 c0 -4 -15 -16 -32 -26 l-33 -18 28 26 c30 27 37 31 37 18z
m145 -210 c-30 -28 -242 -188 -225 -169 17 18 232 186 240 187 2 0 -4 -8 -15
-18z m-405 -66 c0 -2 -8 -10 -17 -17 -16 -13 -17 -12 -4 4 13 16 21 21 21 13z
m2625 -111 c68 -105 126 -284 141 -430 l7 -70 -77 92 c-122 146 -159 168 -203
121 -46 -51 -118 -229 -158 -393 -15 -60 -29 -113 -32 -118 -2 -4 -56 64 -119
152 -63 88 -124 167 -136 175 -12 9 -39 16 -59 16 -62 0 -89 -38 -225 -317
-68 -139 -127 -253 -131 -253 -5 0 -40 57 -77 128 -147 270 -237 368 -310 334
-14 -6 -73 -94 -157 -232 l-133 -222 -41 47 c-22 27 -102 125 -178 219 l-138
171 38 8 c21 4 169 27 328 52 420 66 411 64 520 91 237 59 601 187 790 279
101 48 250 148 284 188 21 26 28 21 66 -38z m-2465 -9 c0 -2 -8 -10 -17 -17
-16 -13 -17 -12 -4 4 13 16 21 21 21 13z m2504 -507 c43 -52 87 -101 99 -110
20 -16 20 -20 8 -154 -7 -76 -15 -143 -17 -150 -3 -7 -18 -15 -33 -18 -23 -5
-31 -16 -49 -65 -12 -32 -37 -76 -56 -98 l-34 -39 -17 40 c-32 74 -52 95 -94
95 -50 0 -94 -30 -211 -145 -105 -103 -161 -138 -225 -139 -40 -1 -48 4 -108
62 -66 63 -76 67 -152 62 -37 -2 -139 -48 -200 -90 -25 -17 -81 -65 -124 -105
-129 -120 -190 -121 -314 -5 -183 170 -207 172 -428 48 -121 -69 -213 -108
-255 -108 -58 0 -119 56 -204 186 -46 70 -48 76 -38 112 42 151 162 380 262
497 l26 30 22 -26 c13 -14 97 -117 188 -230 90 -112 177 -216 193 -231 32 -31
62 -35 94 -13 11 8 78 110 149 227 70 117 129 215 132 218 11 13 104 -109 157
-208 33 -62 84 -150 113 -197 47 -75 57 -85 83 -85 42 0 73 48 211 330 66 135
126 253 135 262 14 16 17 15 38 -10 12 -15 68 -92 125 -172 151 -212 153 -214
203 -162 34 36 50 75 82 207 28 111 45 162 93 269 l26 59 20 -25 c12 -14 56
-67 100 -119z m-2344 -104 c0 -2 -20 -35 -44 -72 -393 -610 -342 -1476 138
-2321 l36 -64 -33 8 c-76 16 -271 90 -382 144 -368 180 -711 490 -998 902 -89
128 -252 396 -299 493 -102 210 -143 496 -107 741 l12 76 41 -6 c23 -3 73 -11
111 -17 98 -16 389 -13 590 5 258 24 722 82 928 115 4 0 7 -1 7 -4z m2176
-567 c36 -72 48 -88 70 -88 17 0 81 54 115 96 16 20 29 32 29 27 0 -35 -183
-603 -212 -656 -9 -18 -17 -13 -82 51 -39 38 -81 75 -93 81 -32 16 -95 13
-119 -7 -12 -9 -64 -77 -117 -149 -109 -150 -229 -303 -238 -303 -3 0 -44 48
-90 107 -46 59 -92 116 -101 125 -21 21 -77 24 -100 6 -9 -7 -70 -80 -136
-163 -138 -172 -267 -321 -286 -328 -7 -3 -74 60 -156 149 -79 84 -150 156
-158 159 -34 13 -51 -8 -92 -111 -39 -96 -105 -214 -120 -214 -7 0 -140 142
-285 305 -95 108 -118 127 -142 118 -33 -13 -56 365 -33 547 19 144 13 140 81
50 134 -177 235 -182 520 -26 75 41 143 75 150 76 36 5 54 -6 144 -85 122
-106 169 -130 255 -130 86 1 125 22 244 134 100 94 196 151 254 151 23 0 39
-10 64 -39 53 -62 101 -85 177 -85 96 0 143 27 283 161 65 62 122 113 128 113
5 0 26 -33 46 -72z m-128 -652 l81 -85 -36 -78 c-83 -177 -213 -400 -330 -569
l-63 -91 -70 -7 c-86 -9 -157 -29 -232 -67 -70 -35 -91 -36 -143 -4 -79 49
-159 29 -274 -69 -115 -98 -160 -100 -253 -6 -32 32 -74 65 -94 75 -51 24
-153 17 -217 -14 -53 -26 -133 -101 -174 -163 -25 -37 -28 -39 -41 -21 -47 62
-196 393 -251 558 -33 100 -82 277 -78 282 2 1 48 -48 103 -109 145 -165 295
-318 310 -318 39 0 138 127 184 237 15 35 29 65 32 68 3 3 62 -56 132 -130 71
-75 139 -138 152 -141 13 -4 38 -1 54 6 41 17 152 137 311 335 73 91 133 165
134 165 1 0 48 -59 105 -130 96 -123 124 -150 149 -150 13 0 175 202 285 355
93 129 115 155 131 155 7 0 49 -38 93 -84z m-439 -943 c-94 -124 -236 -282
-388 -434 -185 -185 -186 -186 -256 -207 -38 -11 -91 -24 -117 -27 -55 -7
-151 8 -211 34 -65 28 -158 104 -207 168 -25 32 -66 78 -91 103 -25 25 -53 57
-62 72 -17 27 -17 28 29 89 90 117 160 168 232 169 44 0 65 -12 141 -81 66
-61 107 -79 176 -79 56 1 108 27 193 99 93 77 112 82 174 48 67 -37 124 -36
208 4 76 37 136 57 169 58 21 1 22 -1 10 -16z"/>
<path d="M5247 7039 c-57 -13 -84 -36 -113 -95 -21 -43 -26 -69 -27 -126 0
-93 25 -149 83 -178 76 -39 149 -21 219 55 32 35 40 52 46 99 14 110 -19 203
-85 237 -37 20 -64 22 -123 8z m73 -213 c0 -15 -14 -35 -21 -30 -15 9 -10 34
6 34 8 0 15 -2 15 -4z"/>
<path d="M3076 6808 c-64 -57 -95 -193 -62 -271 18 -44 76 -93 120 -101 72
-14 156 47 185 133 26 80 2 169 -66 237 -30 30 -40 34 -87 34 -45 0 -58 -5
-90 -32z m108 -104 c3 -9 6 -29 6 -45 0 -32 -24 -31 -33 2 -11 40 13 79 27 43z"/>
<path d="M9100 7634 c-144 -37 -326 -159 -345 -229 -13 -52 -17 -1751 -6
-2270 19 -837 37 -1196 66 -1292 20 -67 79 -139 149 -182 l59 -36 181 -4 c211
-4 381 10 556 45 398 80 728 272 887 516 51 78 69 130 100 293 20 106 29 448
14 543 -27 171 -114 378 -213 504 -29 37 -95 119 -145 183 -51 65 -93 122 -93
129 0 6 34 62 74 123 134 203 200 430 213 733 10 233 -37 459 -129 615 -111
188 -278 275 -623 325 -178 25 -653 28 -745 4z m804 -494 c110 -18 193 -121
216 -273 12 -75 -6 -269 -36 -387 -28 -110 -86 -224 -147 -284 -91 -91 -176
-126 -429 -176 -183 -37 -205 -36 -240 11 -11 14 -24 43 -29 65 -14 54 -23
772 -11 912 5 62 14 118 19 123 27 27 509 34 657 9z m-443 -1660 c30 -6 95
-15 144 -20 99 -10 222 -47 385 -116 150 -63 170 -82 220 -211 79 -202 110
-363 90 -473 -31 -176 -129 -286 -345 -390 -131 -63 -477 -180 -533 -180 -49
0 -104 31 -124 70 -10 20 -14 166 -16 678 l-3 652 64 0 c35 0 89 -5 118 -10z"/>
<path d="M13235 7644 c-82 -20 -106 -29 -120 -44 -42 -46 -70 -473 -95 -1465
-12 -465 -12 -1455 -1 -1585 11 -117 51 -244 126 -395 130 -263 264 -369 558
-440 191 -47 307 -59 537 -60 296 0 330 10 505 155 109 90 258 278 305 382 34
78 41 225 47 984 8 1109 -25 2238 -71 2397 -16 58 -60 81 -136 72 -30 -3 -93
-10 -138 -15 -97 -10 -115 -22 -131 -85 -14 -57 -14 -380 0 -1550 16 -1238 6
-1473 -66 -1616 -33 -63 -122 -159 -179 -193 -98 -56 -249 -76 -361 -48 -215
54 -272 81 -364 175 -94 97 -107 239 -95 1052 11 694 7 1752 -6 2015 -11 208
-16 223 -85 247 -41 14 -195 26 -230 17z"/>
<path d="M17510 7617 c-14 -7 -30 -28 -37 -48 -17 -52 -40 -247 -60 -493 -16
-207 -16 -248 1 -735 9 -284 21 -752 26 -1041 21 -1203 39 -1413 124 -1457 38
-20 199 -23 233 -4 65 34 72 97 83 706 16 868 29 1297 40 1349 14 70 40 117
76 142 26 17 59 22 190 32 240 18 248 18 278 -18 42 -51 59 -135 75 -377 20
-286 31 -643 31 -1008 0 -198 5 -454 10 -570 14 -328 33 -415 93 -443 55 -26
252 33 344 104 l33 25 0 887 c0 523 -6 1121 -15 1457 -37 1411 -36 1401 -71
1436 -11 10 -46 24 -79 30 -74 14 -258 7 -279 -10 -21 -17 -44 -92 -56 -184
-6 -43 -14 -214 -18 -380 -7 -294 -8 -304 -32 -352 -29 -59 -64 -79 -160 -94
-96 -16 -427 -14 -437 2 -4 6 -8 215 -8 462 0 414 -2 453 -18 487 -23 46 -55
61 -188 87 -124 24 -145 25 -179 8z"/>
<path d="M22115 7593 c-112 -6 -179 -24 -248 -64 -144 -86 -270 -235 -361
-430 -50 -106 -139 -379 -158 -484 -20 -106 -19 -1921 1 -2020 19 -96 110
-373 154 -469 103 -222 297 -421 457 -467 59 -17 361 -17 494 0 164 21 237 44
329 104 237 155 377 397 461 797 43 205 47 277 53 940 5 661 -3 932 -32 1090
-40 208 -147 472 -248 610 -72 99 -208 218 -305 268 -169 87 -398 135 -597
125z m327 -491 c219 -108 355 -359 404 -742 21 -172 30 -820 15 -1102 -14
-255 -45 -579 -67 -703 -32 -180 -140 -333 -287 -405 -267 -131 -493 -51 -622
222 -105 223 -124 421 -127 1353 -2 625 10 799 72 1025 49 177 163 349 250
378 22 7 86 10 167 8 124 -2 135 -4 195 -34z"/>
<path d="M19519 2755 c-40 -22 -149 -202 -149 -245 0 -71 36 -79 111 -24 61
45 102 97 135 170 25 57 25 58 6 83 -22 31 -65 37 -103 16z"/>
<path d="M17551 2705 c-131 -37 -244 -133 -307 -261 -49 -98 -55 -183 -25
-340 11 -61 21 -129 21 -152 0 -37 -4 -43 -40 -63 -47 -26 -54 -42 -37 -77 11
-24 19 -28 79 -32 80 -6 98 -20 154 -121 63 -116 112 -146 193 -118 66 23 62
54 -28 172 -26 35 -51 76 -55 91 -13 52 1 62 174 127 97 37 140 73 140 117 0
75 -84 76 -254 3 -66 -28 -125 -50 -132 -47 -21 8 -56 129 -61 217 -9 142 34
231 139 283 60 30 116 33 198 11 73 -20 103 -19 123 3 23 26 21 58 -7 106 -47
80 -160 113 -275 81z"/>
<path d="M13671 2485 c-55 -25 -155 -101 -235 -178 -120 -117 -173 -249 -164
-412 5 -94 35 -169 93 -233 51 -58 110 -89 212 -113 226 -54 386 14 424 180
19 84 -45 96 -138 27 -105 -77 -122 -80 -227 -42 -93 33 -115 50 -143 113 -37
81 -37 169 0 244 38 78 120 152 215 196 102 47 128 67 152 113 25 50 25 72 -1
96 -28 25 -140 31 -188 9z"/>
<path d="M15580 2400 c-64 -10 -150 -40 -199 -71 -32 -20 -33 -22 -28 -69 7
-58 24 -89 53 -96 13 -3 63 10 117 30 123 46 207 50 233 11 12 -19 14 -33 7
-62 l-9 -38 -96 -1 c-53 -1 -119 -9 -150 -18 -71 -20 -168 -85 -202 -135 -52
-75 -71 -187 -42 -255 19 -46 72 -104 116 -126 38 -19 144 -43 243 -55 50 -6
59 -10 72 -36 9 -16 26 -36 40 -45 68 -44 104 36 124 276 6 63 21 168 35 232
53 241 22 375 -98 432 -59 29 -138 38 -216 26z m153 -490 c9 -36 3 -78 -29
-187 l-15 -53 -59 0 c-71 0 -174 30 -206 61 -45 42 -20 130 47 164 33 18 200
54 233 52 14 -1 23 -13 29 -37z"/>
<path d="M19259 2332 c-63 -33 -121 -103 -141 -171 -17 -61 -14 -228 6 -316
34 -144 108 -250 210 -300 70 -34 130 -40 239 -25 80 12 96 17 120 43 32 34
37 98 11 135 l-15 22 -48 -25 c-114 -57 -194 -55 -246 7 l-27 32 33 29 c19 15
84 58 144 94 61 37 130 86 154 110 43 42 44 44 38 93 -13 110 -91 216 -200
270 -52 26 -71 30 -142 30 -71 0 -90 -4 -136 -28z m231 -160 c50 -25 65 -61
45 -109 -19 -45 -41 -70 -77 -89 -34 -18 -123 -35 -142 -28 -21 8 -36 51 -36
105 0 56 19 100 52 123 30 21 114 20 158 -2z"/>
</g>
</svg>
