<svg id="Capa_1" data-name="Capa 1" xmlns="http://www.w3.org/2000/svg" viewBox="0 0 946.72 792"><defs><style>.cls-1{fill:#434652;}.cls-2{fill:#666a78;}</style></defs><path class="cls-1" d="M77.22,689.32V701a14.81,14.81,0,0,0-2.93-3.83,5.39,5.39,0,0,0-3.1-1.42,5,5,0,0,0-4.93,2.67,14.66,14.66,0,0,0-1.88,8,15.52,15.52,0,0,0,1.91,7.93q1.92,3.29,4.9,3.6a4.54,4.54,0,0,0,3.1-.8,11.17,11.17,0,0,0,2.93-3.29v11.69a12.32,12.32,0,0,1-3.38,1.46,9.41,9.41,0,0,1-3.38.23,10.8,10.8,0,0,1-3.92-1.2,11.69,11.69,0,0,1-3.28-2.67,21.7,21.7,0,0,1-4.37-7.79,32.1,32.1,0,0,1-1.5-10.07,30.86,30.86,0,0,1,1-8,20.31,20.31,0,0,1,2.87-6.33,11.67,11.67,0,0,1,4.12-3.88,9.09,9.09,0,0,1,5.13-1,10.28,10.28,0,0,1,3.38.89A15.86,15.86,0,0,1,77.22,689.32Z"/><path class="cls-1" d="M156,735.87l10.22-40.6,10.27.86L187,739.39l-8.28-.94-1.53-7.7-11.65-1.26L164,736.78Zm11.33-14.33,8.15.84-3.07-14.15q-.15-.65-.39-2.07c-.17-.95-.38-2.18-.64-3.67-.18,1-.35,2-.52,2.9s-.35,1.8-.53,2.64Z"/><path class="cls-1" d="M281.71,750.13V705l21.68,1.82v10L291,715.73v7.88l11.64,1.11v9.81L291,733.35v17.84Z"/><path class="cls-1" d="M416.75,765.44V716.33l25.67,2.16v10.93l-14.64-1.32v8.57l13.8,1.32v10.69l-13.8-1.41v8.34l14.64,1.57v11.17Z"/><polygon class="cls-1" points="439.66 702.97 432.92 713.52 429.58 713.21 433.53 702.45 439.66 702.97"/><path class="cls-2" d="M514.24,747.15V735.28l21.91-2.2V744.8Z"/><path class="cls-2" d="M615.05,755.23V706.58l10.82-.9a54.52,54.52,0,0,1,9.23-.25,11.37,11.37,0,0,1,4.48,1.42,8.31,8.31,0,0,1,3.24,3.66,13,13,0,0,1,1.12,5.6,11.93,11.93,0,0,1-1.67,6.63,11.64,11.64,0,0,1-5.33,4.16,7.69,7.69,0,0,1,6.42,3c1.54,2,2.3,4.72,2.3,8.26a17.36,17.36,0,0,1-1.29,6.85,12,12,0,0,1-3.71,4.92,15.16,15.16,0,0,1-4.88,2.42,59.22,59.22,0,0,1-9.59,1.66Zm10-30.17,2.14-.2q4-.39,5.41-1.59a4.66,4.66,0,0,0,1.46-3.83c0-1.82-.45-3.05-1.36-3.7s-2.69-.86-5.35-.63l-2.3.21Zm0,19.15,3.75-.4c2.52-.27,4.3-.86,5.34-1.75a5,5,0,0,0,1.57-4c0-2-.48-3.36-1.43-4.07s-2.73-.92-5.32-.65l-3.91.39Z"/><path class="cls-2" d="M747.27,740.12l11.42-45.51,11.13-.93,11.09,42.59-8.69,1-1.63-7.66L758,731l-1.71,8.11Zm12.63-18,8.84-.9-3.31-14.18q-.15-.65-.42-2.1c-.18-1-.4-2.2-.69-3.73-.19,1.1-.38,2.16-.57,3.15s-.37,2-.56,2.89Z"/><path class="cls-2" d="M867.34,726.4V685.55l7.94-.66a22.24,22.24,0,0,1,6.43.08,6.56,6.56,0,0,1,3.11,1.82,10,10,0,0,1,2.27,4,18.44,18.44,0,0,1,.78,5.56,17,17,0,0,1-1.55,7.74,8.87,8.87,0,0,1-4.54,4.36l7.43,15.43-8.41,1-6.33-15.18v15.9Zm7.13-22.24,1.4-.14a5.09,5.09,0,0,0,3.55-1.56,5.91,5.91,0,0,0,1.12-3.92c0-2-.35-3.44-1-4.23s-1.87-1.12-3.52-1l-1.51.14Z"/><path class="cls-1" d="M152.82,140.54v76.39c-5.92-9.26-11.76-15.62-17.55-19.16A23.15,23.15,0,0,0,117,194.92c-11.77,2.9-21.15,11.81-28.25,26.66s-10.52,32.5-10.52,53.47c0,19.53,3.56,35.11,10.72,46.85s16.55,17,28.05,15.28c6.44-1,12.53-4.3,18.27-10.08s11.63-14.56,17.55-26.27v76.56a96.43,96.43,0,0,1-20.24,14.33,56.94,56.94,0,0,1-19.81,6.11,49.62,49.62,0,0,1-22.43-2.37A47.91,47.91,0,0,1,72,383.17Q56.17,367,48.11,340.94q-8.05-25.87-8-59.68a239.32,239.32,0,0,1,5.07-50.68,190.65,190.65,0,0,1,15.56-44.65q10-20.3,22.79-32.71A69.11,69.11,0,0,1,112.77,136a50.24,50.24,0,0,1,19.81-1.72A60.35,60.35,0,0,1,152.82,140.54Z"/><path class="cls-1" d="M175,384.31V117.14l40.36-12.89V379.07Z"/><path class="cls-1" d="M239.47,375.9V97l41.84-13.37,64.53,134q1.95,4.29,6.42,17.67t9.94,32.28Q360.72,249,360,234.42t-.68-26V58.67L408.3,43l0,310.92-48.94,6.12L293.71,220.15a177.15,177.15,0,0,1-6.06-16.92q-4.11-12.72-8.91-30,1.33,17.75,1.95,31.57t.62,24.65v141Z"/><polygon class="cls-1" points="467.67 23.65 467.67 345.93 432.43 350.55 432.43 34.83 467.67 23.65"/><path class="cls-1" d="M57.33,575.09q8.83,16.08,17.59,24.28c5.89,5.51,11.81,8.39,17.77,8.59a16.24,16.24,0,0,0,13.88-6.57q5.5-6.89,5.52-17.75,0-12-4.77-18.49c-3.16-4.31-10.26-8.71-21.17-13.17-14.66-6-24.82-13.84-30.7-23.48s-8.71-22.72-8.71-39.6c0-21.88,4.57-40.14,13.81-54.93,9.38-15,21.75-23.49,37.28-25.32a55.37,55.37,0,0,1,24.61,2.47,65.4,65.4,0,0,1,22.83,14l-14,49.28Q123.79,465.27,116,461a26.55,26.55,0,0,0-15.14-3.64,16.69,16.69,0,0,0-12.26,6.56Q84,469.81,84,478.49q0,8.83,4.08,13.93c2.74,3.41,8,6.54,16,9.42l1.92.72c17.56,6.49,29.37,14.1,35.11,22.75A68.32,68.32,0,0,1,150,546.94a121.05,121.05,0,0,1,3.07,28.35c0,26.31-5.8,47.2-17.26,62.49-11.28,15-26,21.79-44,20.49A54.25,54.25,0,0,1,63.44,648Q51,639,39.78,621.08Z"/><path class="cls-1" d="M197.31,666V462.4l-33.87,2.35V403.09l115.19-13.15v66.81l-37.82,2.63V670Z"/><path class="cls-1" d="M294.72,674.91l-.05-286.83,116.84-13.36V443.1l-68.14,4.33V498.3l64.1-2.13v65.3l-64.1-.26v49.48L411.51,613l-.07,72.61Z"/><polygon class="cls-1" points="467.67 368.3 467.67 690.73 440.48 688.32 440.48 371.39 467.67 368.3"/><polygon class="cls-2" points="482.56 98.56 482.56 153.92 546.69 169.57 546.69 235.52 482.56 222.51 482.56 276.34 550.45 287.92 550.45 356.63 467.67 346.07 467.67 23.7 550.45 50.13 550.45 117.39 482.56 98.56"/><path class="cls-2" d="M760.88,383.76l-36.45-4.65-8.67-120.28q-.91-12.81-1.68-28.44t-1.37-34.09q-1.44,17.19-5.63,42.52c-.62,3.53-1.07,6.14-1.34,7.85L685,374.07l-28.72-3.67L634,231.07c-.31-1.92-.76-4.87-1.37-8.85q-4.77-28.82-6.27-47.6-.68,16.42-1.6,32.53t-2.18,32.06l-10,125.63-44.49-5.68L595.54,64l45.7,14.59,24.41,154.89c.15,1.08.44,2.82.87,5.25a346.7,346.7,0,0,1,4.22,34.51q.43-7.49,1.62-16.46t3.23-21.5l23.53-138.2,40,12.77Z"/><path class="cls-2" d="M776.82,385.28l46.41-249.12,43,13.72,40.75,252-31.75-4.05L869.1,353l-48.72-7.89L813.57,390ZM828,296.86l34.1,6.8-12.59-85q-.6-3.91-1.63-12.56t-2.65-22.31q-1.12,8.94-2.2,17t-2.2,15.56Z"/><path class="cls-2" d="M554.26,560.66c13.64-4.78,23.92-14.51,30.79-29s10.31-33,10.31-56a160.06,160.06,0,0,0-5.23-42.25c-3.44-12.82-8.55-23.86-15.1-32.67a56.9,56.9,0,0,0-21.22-17.86c-8.32-4.14-23.38-7.46-45.36-10l-40.78-4.62V690.7l34.86-3.19v-123L547.18,683.4l56.25-5.19ZM537.9,513c-5.25,6.05-13.61,9-25.17,8.69l-10.2-.23V438.55l11,.8c11.84.87,20.09,4.71,25,11.53s7.22,18,7.22,33.4C545.67,497.45,543.12,507,537.9,513Z"/><path class="cls-2" d="M629.2,675.83V387.17l103.66,11.45v58.77l-57-4.09v48.24l53.87,2.22v57.6l-53.87-.17v46.92l57-1.52v59.68Z"/><path class="cls-2" d="M904.34,535.14a202.69,202.69,0,0,1-4.79,45.08,148.41,148.41,0,0,1-14.15,38.33q-9.54,17.16-22,27.11c-8.45,6.69-17.34,10.41-26.69,11.08q-14.38,1-27.91-7.53-13.69-8.73-24.35-26.06a140.7,140.7,0,0,1-17-40.9,202,202,0,0,1-5.9-49.65,199.19,199.19,0,0,1,5.9-49.53,135.51,135.51,0,0,1,17-40.2q10.64-17,24.35-25.19,13.51-8.13,27.91-6.56,14.12,1.51,26.82,12.06,12.57,10.38,21.92,27.88a154.06,154.06,0,0,1,14.11,38.83A204.49,204.49,0,0,1,904.34,535.14ZM836.66,602.7c10-.32,18.16-7,24.55-20s9.46-28.87,9.46-48.2q0-28.68-9.6-48.38c-6.47-13.3-14.58-20.31-24.41-21-10.15-.69-18.65,5.35-25.45,18.22s-10.32,29.67-10.32,49.9q0,30.86,10.18,50.51C817.78,596.77,826.33,603,836.66,602.7Z"/></svg>