<svg id="Capa_1" data-name="Capa 1" xmlns="http://www.w3.org/2000/svg" viewBox="0 0 264.2 58.45"><defs><style>.cls-1{fill:#004665}</style></defs><path class="cls-1" d="M160.7 256.71c-.6-2.5 1.2-2.4 2.6-2.4 4.2-.1 8.3 0 12.5 0h225.9c1.6 0 3.9-.8 4.3 2.4ZM160.2 311.11c.4-.3.7-.8 1.1-.8 81.5 0 163 0 245.1.6a6.7 6.7 0 0 1-1.8 1.6 8.07 8.07 0 0 1-2.7.1H165a35.73 35.73 0 0 1-4.7-.4c0-.4-.1-.7-.1-1.1ZM166.3 276.31a8.81 8.81 0 0 1 .2 1.5 11 11 0 0 1 .1 1.6 1.09 1.09 0 0 1-.1.5 2.22 2.22 0 0 1-.9-.1 10.13 10.13 0 0 0-1.4-1.9 5.16 5.16 0 0 0-1.9-1.2 5.92 5.92 0 0 0-2-.4 4.55 4.55 0 0 0-3.7 1.9c-1.1 1.3-1.6 3.2-1.6 5.7a9.74 9.74 0 0 0 .6 3.4 5 5 0 0 0 4.9 3.5 14.05 14.05 0 0 0 1.8-.2 2 2 0 0 0 .8-.4 1.63 1.63 0 0 0 .3-.6 12.17 12.17 0 0 0 .1-2.1v-1.8c-.1-.1-.1-.2-.2-.2s-.2-.1-.5-.2l-1.1-.3c-.2-.1-.4-.1-.5-.2v-.2a1.09 1.09 0 0 1 .1-.5.77.77 0 0 1 .3-.1 17.72 17.72 0 0 1 2.4.1h4.6v.6a.37.37 0 0 1-.1.3 2.39 2.39 0 0 1-.7.3 1.63 1.63 0 0 0-.6.3.37.37 0 0 0-.1.3v3.3a8 8 0 0 1-.1 1.1c0 .3 0 .5-.1.6a6.71 6.71 0 0 1-2.2.8 18.14 18.14 0 0 1-4.3.5 13.86 13.86 0 0 1-3-.3 11.26 11.26 0 0 1-2.2-.8 6.68 6.68 0 0 1-2-1.7 7.1 7.1 0 0 1-1.3-2.2 9.6 9.6 0 0 1-.6-3.3 9.15 9.15 0 0 1 .9-3.8 7.25 7.25 0 0 1 1.8-2.5 10.24 10.24 0 0 1 2.9-1.8 11.66 11.66 0 0 1 3.8-.7 2.81 2.81 0 0 1 .8.1 9.25 9.25 0 0 1 2.9.4 4 4 0 0 1 1.9.7ZM170.5 290.91a4.05 4.05 0 0 1 1-.3 5.27 5.27 0 0 0 1.2-.3c0-.2.1-.3.1-.4v-4l.1-1.5v-4.5a25.66 25.66 0 0 0-.1-3.4l-.7-.2c-.7 0-1.1-.1-1.4-.1v-.8l.1-.1a4.87 4.87 0 0 1 1.2-.1h1.2a5.81 5.81 0 0 0 1 .1h.7l1.6-.1a30.28 30.28 0 0 1 3.1-.2 5.94 5.94 0 0 1 4.1 1.3 4 4 0 0 1 1.5 3 3.78 3.78 0 0 1-.8 2.3 5.52 5.52 0 0 1-2.6 1.6 2.09 2.09 0 0 0 .4.6c.4.5.6.9.9 1.3l2 3.3a5 5 0 0 0 1 1.5 8.92 8.92 0 0 0 1 .5 3.92 3.92 0 0 1 .9.4.6.6 0 0 1 .1.4v.3h-.6l-.7-.1h-.5c-.3 0-.6-.1-1-.1H184a4.4 4.4 0 0 0-.9.1.75.75 0 0 0-.5.1l-.4-.8a5.89 5.89 0 0 1-.7-1.4c-.4-.8-1-2.1-1.9-3.9a4 4 0 0 0-.9-1.4 2.27 2.27 0 0 0-1.3-.3h-.9v.9l.1 2.8-.1 2.4a1.9 1.9 0 0 0 .9.3 6.87 6.87 0 0 1 1.7.5 2.22 2.22 0 0 1-.1.9h-.8a28.31 28.31 0 0 0-3.2-.2h-.5l-1.8.1a7.57 7.57 0 0 1-1.5.1h-.5v-.4c-.2.1-.2 0-.2-.2Zm5.7-8.2h.9a5 5 0 0 0 3.1-.8 2.58 2.58 0 0 0 .9-2.1 7.72 7.72 0 0 0-.2-1.5 1.44 1.44 0 0 0-.6-1 2.4 2.4 0 0 0-1.2-.7 7.45 7.45 0 0 0-1.8-.2 3.08 3.08 0 0 0-1 .1v6.2ZM188.2 276.31v-1h1.8c1.1.1 1.8.1 2 .1h2a9.15 9.15 0 0 0 1.7-.1h1v1a7.57 7.57 0 0 1-1.5.1q-.75 0-.9.3a3.22 3.22 0 0 0-.2 1.5v2.4l.1 1-.1 2.2.2 3.2a4.14 4.14 0 0 0 .6 2.3 5.73 5.73 0 0 0 1.1 1.1 4.06 4.06 0 0 0 2.1.5 8.52 8.52 0 0 0 2.3-.3 3.38 3.38 0 0 0 1.2-.6 6.53 6.53 0 0 0 .8-.7 4.88 4.88 0 0 0 .6-1.3 9 9 0 0 0 .2-2.6c0-2-.1-4.4-.3-6.9l-.1-.7a1.33 1.33 0 0 0-.3-1 1.22 1.22 0 0 0-.9-.4h-1.4v-1h1l2.4.1a17 17 0 0 0 2.3-.1h.2a1.76 1.76 0 0 1 .1.6.37.37 0 0 1-.1.3c-.3.1-.6.1-1 .2-.6.1-.9.1-.9.2a.76.76 0 0 0-.2.5v3a12.75 12.75 0 0 0 .1 1.9l.1 2.6a23.85 23.85 0 0 1-.2 3.5 4.57 4.57 0 0 1-.5 1.4 5.71 5.71 0 0 1-1.3 1.4 6.39 6.39 0 0 1-2.2 1 13.61 13.61 0 0 1-3 .4 11.59 11.59 0 0 1-3.4-.5 5.52 5.52 0 0 1-2.1-1.4 5 5 0 0 1-1-2.2 16.54 16.54 0 0 1-.2-2.7v-6.1a8.42 8.42 0 0 0-.2-2.4c-.2-.3-.8-.4-1.7-.4.1-.4 0-.4-.2-.4ZM208.8 276.11v-1l3 .2h1.9c.5 0 1.3 0 2.4-.1.6 0 1-.1 1.2-.1a12.53 12.53 0 0 1 2.4.2 5.24 5.24 0 0 1 2 .8 5.34 5.34 0 0 1 1.3 1.6 3.61 3.61 0 0 1 .5 1.9 4.9 4.9 0 0 1-1.4 3.6 4.83 4.83 0 0 1-3.5 1.4 5.9 5.9 0 0 1-1.4-.2 6.94 6.94 0 0 1-1.3-.5c0-.2-.1-.6-.1-1h1a2.79 2.79 0 0 0 1.8-.6 2.92 2.92 0 0 0 1-2.5 4 4 0 0 0-.4-2 2.71 2.71 0 0 0-1-1.1 3.66 3.66 0 0 0-1.8-.4 2.65 2.65 0 0 0-1.4.3c-.1.1-.1.2-.2.3l.1 6v6.2a4.48 4.48 0 0 0 .1 1.1l2.5.3a4.33 4.33 0 0 0 .1.5 1.09 1.09 0 0 1-.1.5 4.33 4.33 0 0 0-.5.1 9.89 9.89 0 0 1-1.5-.1 19.29 19.29 0 0 0-2.5-.1c-1 0-2 .1-3 .2a2.81 2.81 0 0 0-.8.1 4.33 4.33 0 0 0-.1-.5v-.4l.8-.3c.5-.2 1-.4 1.4-.6a1.7 1.7 0 0 0 .1-.7v-5l-.1-4c-.1-1.9-.1-2.9-.1-3.1l-.3-.6a2.39 2.39 0 0 0-.7-.3c-.7 0-1.2-.1-1.4-.1ZM225.9 283.21a9.06 9.06 0 0 1 .6-3.2 7.19 7.19 0 0 1 1.2-2.1 8.52 8.52 0 0 1 2-1.7 8 8 0 0 1 2.5-1.1 12 12 0 0 1 2.8-.3 9.47 9.47 0 0 1 4.6 1 9.06 9.06 0 0 1 3.1 2.7 8 8 0 0 1 1.4 4.6 8.58 8.58 0 0 1-9.2 8.8 12.75 12.75 0 0 1-2-.1 10.38 10.38 0 0 1-1.2-.3 5.34 5.34 0 0 1-1.1-.4 10.45 10.45 0 0 1-2.2-1.6 6.69 6.69 0 0 1-1.4-1.9 8.33 8.33 0 0 1-.7-2.1 5.27 5.27 0 0 1-.4-2.3Zm8.7-7.1a4.55 4.55 0 0 0-2 .5 3.61 3.61 0 0 0-1.3 1.1 6.71 6.71 0 0 0-1 2.3 12.62 12.62 0 0 0-.3 3 7.12 7.12 0 0 0 .1 1.6 1.09 1.09 0 0 0 .1.5 10.63 10.63 0 0 0 .3 1.4 12.78 12.78 0 0 0 .8 2 6.34 6.34 0 0 0 1.1 1.3 5.42 5.42 0 0 0 1.1.6 3.93 3.93 0 0 0 1.4.3 5.14 5.14 0 0 0 2.5-.6 4.65 4.65 0 0 0 1.9-2.2 9.26 9.26 0 0 0 .7-4c0-.7 0-1.6-.1-2.8l-.1-.2a2 2 0 0 1-.1-.5 5.64 5.64 0 0 0-1.8-3.2 5.24 5.24 0 0 0-3.3-1.1ZM262.6 275.11h1a17 17 0 0 1-.8 3q-.15.3-.3.3a10.76 10.76 0 0 0-1.6.1h-3.6a4.33 4.33 0 0 1-.1.5l-.1 1.7-.1 1.2a4.87 4.87 0 0 1 1.1-.4 5.28 5.28 0 0 1 1.3-.1 4.33 4.33 0 0 1 1.9.4 5.37 5.37 0 0 1 1.6 1 5.63 5.63 0 0 1 1 1.4 3.08 3.08 0 0 1 .4.9c.1.7.2 1.1.2 1.2a9.91 9.91 0 0 1-.2 1.8 5 5 0 0 1-.9 1.8 6 6 0 0 1-1.3 1.4 4.55 4.55 0 0 1-1.9.8 9.37 9.37 0 0 1-2.5.2 5.47 5.47 0 0 1-2.9-.8 1.31 1.31 0 0 1-.7-1.2 1 1 0 0 1 .4-.9 1.28 1.28 0 0 1 1-.4 2.42 2.42 0 0 1 1.8 1.2 9.23 9.23 0 0 0 .8.9 1.64 1.64 0 0 0 1 .2 2.3 2.3 0 0 0 1.4-.4 2.85 2.85 0 0 0 1.1-1.3 3.81 3.81 0 0 0 .4-1.7 3.17 3.17 0 0 0-.9-2.3 3 3 0 0 0-2.2-1 3.59 3.59 0 0 0-1.1.2 4.38 4.38 0 0 0-.9.5l-.5.4c-.1 0-.2.1-.3.1a.37.37 0 0 1-.3-.1c-.1-.1-.1-.1-.1-.2l.2-4v-2.8a2.22 2.22 0 0 1 .1-.9v-1.2c0-.2.1-.3.4-.4.1 0 .8-.1 2-.1h2.9c.5 0 .8 0 .9-.1a4.13 4.13 0 0 1 .4-.9ZM266.8 283.51a11.8 11.8 0 0 1 .2-2.2 23.81 23.81 0 0 1 .7-2.7 6.88 6.88 0 0 1 1.3-2.1 4.82 4.82 0 0 1 1.7-1.2 3.34 3.34 0 0 1 1.5-.3 4 4 0 0 1 2.3.8 8.61 8.61 0 0 1 2 2.7 11.42 11.42 0 0 1 .9 4.8 17.52 17.52 0 0 1-.5 4 6.67 6.67 0 0 1-.9 2.1 12.61 12.61 0 0 1-.9 1.3 7.1 7.1 0 0 1-1.4 1 4.15 4.15 0 0 1-1.2.4 5.84 5.84 0 0 1-2.1-.3 4.06 4.06 0 0 1-1.4-1 14 14 0 0 1-1.2-1.8 9 9 0 0 1-.8-2.1 32.81 32.81 0 0 1-.2-3.4Zm3.2 1.7a28 28 0 0 0 .2 3.8 2.36 2.36 0 0 0 .7 1.5 1.61 1.61 0 0 0 1.1.5 1.69 1.69 0 0 0 1-.3 2 2 0 0 0 .7-1 7.76 7.76 0 0 0 .4-2.1c.1-1.5.2-2.6.2-3.3v-3.5a19.42 19.42 0 0 0-.2-2.4 4.3 4.3 0 0 0-.5-1.6 1.7 1.7 0 0 0-1.5-.9 1.59 1.59 0 0 0-1 .5 3.83 3.83 0 0 0-.8 1.7 22 22 0 0 0-.2 4.2v.9a18.15 18.15 0 0 0-.1 2ZM279.6 283.51a11.8 11.8 0 0 1 .2-2.2 23.81 23.81 0 0 1 .7-2.7 6.88 6.88 0 0 1 1.3-2.1 4.82 4.82 0 0 1 1.7-1.2 3.34 3.34 0 0 1 1.5-.3 4 4 0 0 1 2.3.8 8.61 8.61 0 0 1 2 2.7 11.42 11.42 0 0 1 .9 4.8 17.52 17.52 0 0 1-.5 4 6.67 6.67 0 0 1-.9 2.1 12.61 12.61 0 0 1-.9 1.3 7.1 7.1 0 0 1-1.4 1 4.15 4.15 0 0 1-1.2.4 5.84 5.84 0 0 1-2.1-.3 4.06 4.06 0 0 1-1.4-1 14 14 0 0 1-1.2-1.8 9 9 0 0 1-.8-2.1 32.81 32.81 0 0 1-.2-3.4Zm3.3 1.7a28 28 0 0 0 .2 3.8 2.36 2.36 0 0 0 .7 1.5 1.61 1.61 0 0 0 1.1.5 1.69 1.69 0 0 0 1-.3 2 2 0 0 0 .7-1 7 7 0 0 0 .4-2.1c.1-1.5.2-2.6.2-3.3v-3.5a19.42 19.42 0 0 0-.2-2.4 4.3 4.3 0 0 0-.5-1.6 1.7 1.7 0 0 0-1.5-.9 1.59 1.59 0 0 0-1 .5 3.83 3.83 0 0 0-.8 1.7 22 22 0 0 0-.2 4.2v.9a18.15 18.15 0 0 0-.1 2ZM299 276.21l-.1-.9h5.8c1.3 1.2 2.4 2.2 3.2 3.1s3.8 3.8 9 9v-.3l-.1-1.5c0-.9-.1-1.5-.1-2.1s-.1-1.1-.1-1.8a11.48 11.48 0 0 0-.1-1.9c-.1-1.1-.2-1.7-.2-1.9a1.85 1.85 0 0 0-.2-1 2.35 2.35 0 0 0-1.2-.4 4.05 4.05 0 0 1-1-.3v-.7h.3l2.5-.1 2.8-.1h.5v.8a1.42 1.42 0 0 1-.6.2c-.5.1-.9.2-.9.3a7.23 7.23 0 0 0-.7.4.75.75 0 0 0-.1.5v1.6a23.58 23.58 0 0 0 .1 2.9v.8l.1 4.5V291a2.18 2.18 0 0 0 .1.6v.7l-1.5.1-1.5-1.6-3.1-3.1-2.2-2.2-1.6-1.6c-1-1-2-1.9-2.8-2.7l-2.1-1.9.1 4.7v1.8l.1 1.7c0 .7.1 1.4.1 2.3a.75.75 0 0 0 .1.5c0 .1.1.2.2.4a12.32 12.32 0 0 0 2.2.3.37.37 0 0 1 .3.1l.1 1h-.5c-.3 0-1.1-.1-2.6-.2a17.89 17.89 0 0 0-2.7.1 2.44 2.44 0 0 0-.7.1.76.76 0 0 1-.4-.1v-1c.2 0 .4-.1.6-.1h.5a3.09 3.09 0 0 0 1.3-.2 1.44 1.44 0 0 0 .2-.9c.1-1.3.1-2.2.1-2.5v-7.4a7.47 7.47 0 0 0-.2-2c-.1-.2-.1-.4-.3-.5a3.59 3.59 0 0 0-1-.7 4.91 4.91 0 0 0-1.7-.49ZM322.6 283.21a9.06 9.06 0 0 1 .6-3.2 7.19 7.19 0 0 1 1.2-2.1 8.52 8.52 0 0 1 2-1.7 8 8 0 0 1 2.5-1.1 12 12 0 0 1 2.8-.3 9.47 9.47 0 0 1 4.6 1 9.06 9.06 0 0 1 3.1 2.7 8 8 0 0 1 1.4 4.6 8.58 8.58 0 0 1-9.2 8.8 12.75 12.75 0 0 1-2-.1 10.38 10.38 0 0 1-1.2-.3 5.34 5.34 0 0 1-1.1-.4 10.45 10.45 0 0 1-2.2-1.6 6.69 6.69 0 0 1-1.4-1.9 8.33 8.33 0 0 1-.7-2.1 5.27 5.27 0 0 1-.4-2.3Zm8.7-7.1a4.55 4.55 0 0 0-2 .5 3.61 3.61 0 0 0-1.3 1.1 6.71 6.71 0 0 0-1 2.3 12.62 12.62 0 0 0-.3 3 7.12 7.12 0 0 0 .1 1.6 1.09 1.09 0 0 0 .1.5 10.63 10.63 0 0 0 .3 1.4 12.78 12.78 0 0 0 .8 2 6.34 6.34 0 0 0 1.1 1.3 5.42 5.42 0 0 0 1.1.6 3.93 3.93 0 0 0 1.4.3 5.14 5.14 0 0 0 2.5-.6 4.65 4.65 0 0 0 1.9-2.2 9.26 9.26 0 0 0 .7-4c0-.7 0-1.6-.1-2.8l-.1-.2a2 2 0 0 1-.1-.5 5.64 5.64 0 0 0-1.8-3.2 5.24 5.24 0 0 0-3.3-1.1ZM358.3 275.51c.1.3.3 1 .7 2.2a4.68 4.68 0 0 1 .2 1.7H358a8.42 8.42 0 0 0-2.5-2.5 5.74 5.74 0 0 0-2.9-.8 3.93 3.93 0 0 0-3.2 1.5 9.1 9.1 0 0 0-1.6 5.8 11.36 11.36 0 0 0 .3 3.1 6.74 6.74 0 0 0 1.2 2.4 3 3 0 0 0 1.4 1.1 4.75 4.75 0 0 0 2.4.6 4.84 4.84 0 0 0 2.7-.9 8.93 8.93 0 0 0 2.5-2.6 4.12 4.12 0 0 1 1.2-.1 3.55 3.55 0 0 1-.2 1 15.4 15.4 0 0 1-.3 1.6l-.1.4-.2.6a5 5 0 0 1-2.2.9 16.5 16.5 0 0 1-3.4.3 15.26 15.26 0 0 1-3-.3 8.54 8.54 0 0 1-2.4-.9 9.2 9.2 0 0 1-2.3-2 5.67 5.67 0 0 1-1.2-2.3 8.25 8.25 0 0 1-.4-2.8 8.14 8.14 0 0 1 2.5-6.2 9 9 0 0 1 6.4-2.5c1 0 2 .1 3 .2a20 20 0 0 1 2.6.5ZM361.8 291.61a2.77 2.77 0 0 1 .1-.9l1.6-.3a2.54 2.54 0 0 0 .7-.2l.2-3.2c0-1.1-.1-2-.1-2.6v-6a10.28 10.28 0 0 0-.1-1.7.37.37 0 0 0-.1-.3c-.1 0-.1 0-.2-.1h-.3a3.75 3.75 0 0 0-1.1-.1l-.2-.1a4.33 4.33 0 0 1-.5-.1v-.5a.76.76 0 0 1 .1-.4c.2 0 .4-.1.7-.1h.6c1 .1 1.8.2 2.3.2h1.3a19.17 19.17 0 0 0 2-.1c.2 0 .4-.1.6-.1a2 2 0 0 1 .8.1v.4a1.09 1.09 0 0 1-.1.5l-2.2.4c-.2.1-.3.2-.3.4v5.6c.2 0 .4.1.6.1h5.1l2.2-.1a2.77 2.77 0 0 0 .9-.1v-2.7l-.1-2.2-.1-.9c0-.1-.1-.1-.2-.2a6 6 0 0 0-1.8-.6c-.2 0-.3-.1-.5-.1 0-.3.1-.5.1-.7h1.5a19.42 19.42 0 0 0 2.4.2h.4l1.6-.1h.4a2.77 2.77 0 0 1 .9-.1h.9a2.77 2.77 0 0 1-.1.9 9 9 0 0 1-1.5.3c-.2.1-.5.2-.7.3l-.1.3v13a.9.9 0 0 0 .5.1 10.63 10.63 0 0 1 1.8.5v.9h-.6a7.08 7.08 0 0 1-1.4-.1 28.32 28.32 0 0 0-3.3-.1c-.7 0-1.6.1-2.7.2a.6.6 0 0 1-.4-.1c0-.4 0-.7.1-.8l1-.2 1-.2c.1 0 .2-.1.4-.1.1-.7.1-1.8.2-3.4v-1.1a7.59 7.59 0 0 1-.1-1.6 3.4 3.4 0 0 1-1-.1l-5.9-.1h-1.4a.9.9 0 0 0-.5.1l-.1 1v5.2l.1.1 1.9.3a.35.35 0 0 1 .2.1c.1 0 .2.1.3.1v.4a1.09 1.09 0 0 1-.1.5H368l-1.8-.1c-.4 0-1-.1-1.8-.1h-.9c.2.5-.6.5-1.7.5ZM384.6 275.21c.5 0 .9.1 1.3.1a16.22 16.22 0 0 0 2.3.1c.3 0 1.1 0 2.3-.1 1.9-.1 3.6-.1 5.1-.1h2.3c.5 0 1.3.1 2.3.2a.84.84 0 0 1 .2.7v3.3h-.9a4.88 4.88 0 0 1-.3-.7l-.5-.9a8.34 8.34 0 0 0-.8-1.2 2 2 0 0 0-.8-.1 3.75 3.75 0 0 1-.8-.1 20.08 20.08 0 0 0-2.5-.1 24.39 24.39 0 0 0-2.8.1v6.2h.5a25.53 25.53 0 0 0 3.2-.1 7.07 7.07 0 0 0 1.2-.2.92.92 0 0 0 .4-.6 12.63 12.63 0 0 0 .4-1.9h.9c0 .8.1 1.3.1 1.7v4.8h-.9c0-.1-.1-.4-.2-.8a4.11 4.11 0 0 0-.5-1.5.55.55 0 0 0-.5-.3 7.22 7.22 0 0 0-1.9-.1 22.74 22.74 0 0 0-2.9.1v.4a18.52 18.52 0 0 0 .1 2.5v2.7a.91.91 0 0 0 .3.7 9 9 0 0 0 3.2.3 12.62 12.62 0 0 0 3-.3 2.37 2.37 0 0 0 1.5-.9 5.66 5.66 0 0 0 1.4-2.4h1a.75.75 0 0 1-.1.5l-.1.4-.5 2.4-.2 1.4h-1.3c-.5 0-1.7 0-3.8-.1-1.4-.1-3.2-.1-5.2-.1-1 0-2.3 0-3.7.1h-.5l-1.5.1v-.9c.2 0 .5-.1 1-.1a4.76 4.76 0 0 0 1.8-.4 2.48 2.48 0 0 0 .1-.9v-7.3l-.1-2v-1.4l-.1-1.6v-.3a.52.52 0 0 0-.4-.2.76.76 0 0 1-.4-.1 6.75 6.75 0 0 0-1.4-.2 1.49 1.49 0 0 1-.6-.1ZM413.9 275.61a3.92 3.92 0 0 1 .2 1.3c.1.9.2 1.5.2 2a.9.9 0 0 1-.1.5h-.1l-.9-.1h-.2a7 7 0 0 0-1.1-2.3 2.9 2.9 0 0 0-2.3-1 2.72 2.72 0 0 0-2 .7 2 2 0 0 0-.7 1.6 2.29 2.29 0 0 0 .7 1.6 7 7 0 0 0 3 1.4c.5.2 1.1.4 1.9.7a5.55 5.55 0 0 1 1.7 1.1 3.29 3.29 0 0 1 1 1.5 4.84 4.84 0 0 1 .3 1.8 6.72 6.72 0 0 1-.4 2.4 4.18 4.18 0 0 1-.8 1.2 4.14 4.14 0 0 1-1.2.9 5.09 5.09 0 0 1-1.7.7 7.16 7.16 0 0 1-2.2.2 8.81 8.81 0 0 1-2.1-.3l-1.5-.4a2.19 2.19 0 0 1-.8-.3.35.35 0 0 1-.1-.2v-.1c0-.1 0-.7-.1-1.7v-1.7h1.2c.4.9.7 1.5.8 1.7a10.63 10.63 0 0 0 .9 1.1 2.38 2.38 0 0 0 1.1.6 3.18 3.18 0 0 0 1.4.2 4 4 0 0 0 1.5-.3 2.56 2.56 0 0 0 1.3-1 2.39 2.39 0 0 0 .5-1.4 2.23 2.23 0 0 0-.9-1.7 10.14 10.14 0 0 0-2.9-1.3 12 12 0 0 1-3.2-1.5 4.57 4.57 0 0 1-1.4-1.7 5.37 5.37 0 0 1-.5-2.1 4.76 4.76 0 0 1 1.4-3.4 6.17 6.17 0 0 1 4.3-1.4c.4 0 1 .1 1.8.2a5.83 5.83 0 0 1 2 .5Z" transform="translate(-151.3 -254.22)"/></svg>