<?xml version="1.0" encoding="UTF-8"?>
<svg version="1.1" xmlns="http://www.w3.org/2000/svg" width="4000" height="1099">
<path d="M0 0 C153.89915966 0 153.89915966 0 184 24 C185.26457031 24.96292969 185.26457031 24.96292969 186.5546875 25.9453125 C200.18710781 37.40002988 207.50891667 55.17864985 209.71875 72.49609375 C211.54815019 95.28737107 207.87346554 115.82742935 193 134 C192.33355469 134.84175781 191.66710938 135.68351563 190.98046875 136.55078125 C179.86863865 149.80663793 163.2080494 160.28293957 146 163 C149.44232947 169.52855589 153.32850352 175.68805606 157.35668945 181.86303711 C161.28222727 187.88090273 165.15044066 193.93327941 169 200 C173.13929898 206.51803925 177.29514887 213.02404621 181.5 219.5 C185.59697726 225.81162066 189.6516278 232.14913798 193.6875 238.5 C198.94817148 246.77734694 204.21742169 255.04911244 209.5 263.3125 C210.15830811 264.34375 210.81661621 265.375 211.49487305 266.4375 C212.12562744 267.42363281 212.75638184 268.40976562 213.40625 269.42578125 C214.00824219 270.37018066 214.61023437 271.31458008 215.23046875 272.28759766 C216.38902091 274.06346886 217.5783649 275.81971619 218.80078125 277.55224609 C219.35121094 278.33293457 219.90164062 279.11362305 220.46875 279.91796875 C220.95794922 280.58981201 221.44714844 281.26165527 221.95117188 281.95385742 C223.227892 284.44459097 223.19460228 286.23862967 223 289 C218.99911307 289.24888281 215.00126335 289.42936435 210.99438477 289.54931641 C209.63486228 289.59934038 208.27587087 289.66739674 206.91821289 289.75439453 C195.74312663 290.45206793 195.74312663 290.45206793 191.75708008 287.1315918 C189.90065485 284.51364964 188.45254585 281.86053067 187 279 C185.83399068 277.13767193 184.6526399 275.28487133 183.45703125 273.44140625 C182.23959725 271.48337899 181.02483792 269.52368665 179.8125 267.5625 C178.48733117 265.43077072 177.16180628 263.29926275 175.8359375 261.16796875 C175.18592773 260.1217334 174.53591797 259.07549805 173.86621094 257.99755859 C171.24008083 253.77939723 168.5928009 249.57484362 165.9375 245.375 C165.22074097 244.24106812 165.22074097 244.24106812 164.48950195 243.08422852 C160.07855363 236.11317727 155.64663287 229.15547787 151.21508789 222.19750977 C144.35312799 211.42038002 137.5373306 200.61421726 130.7265625 189.8046875 C130.18660645 188.94834717 129.64665039 188.09200684 129.09033203 187.2097168 C128.06198756 185.57879468 127.0342749 183.94747394 126.00732422 182.31567383 C125.54084473 181.57599365 125.07436523 180.83631348 124.59375 180.07421875 C124.18833984 179.43057373 123.78292969 178.78692871 123.36523438 178.1237793 C122.91470703 177.42293213 122.46417969 176.72208496 122 176 C121.49160583 174.98213913 120.98321167 173.96427826 120.45941162 172.91557312 C118.19724617 169.61569196 118.19724617 169.61569196 114.10223389 169.24050903 C112.49659415 169.20536391 110.89002945 169.2033721 109.28417969 169.22705078 C108.39160084 169.21641539 107.49902199 169.20577999 106.57939529 169.19482231 C103.69296147 169.16719264 100.80837031 169.18046746 97.921875 169.1953125 C96.13881586 169.18425839 94.35577126 169.17052172 92.57275391 169.15405273 C85.96529697 169.11184614 79.35759084 169.12157448 72.75 169.125 C57.9825 169.08375 43.215 169.0425 28 169 C28 208.6 28 248.2 28 289 C18.76 289 9.52 289 0 289 C0 193.63 0 98.26 0 0 Z M28 22 C28 63.25 28 104.5 28 147 C50.8009375 147.0928125 50.8009375 147.0928125 74.0625 147.1875 C78.83340088 147.21481201 83.60430176 147.24212402 88.51977539 147.27026367 C92.85716689 147.28030695 92.85716689 147.28030695 97.19456482 147.28633118 C99.10226043 147.29088915 101.0099483 147.301337 102.91758728 147.31672668 C126.12928438 147.49435902 147.38455193 144.02821192 165.31640625 127.7734375 C172.2156149 120.50605763 176.76258144 112.43700958 180 103 C180.24621094 102.29875 180.49242188 101.5975 180.74609375 100.875 C185.00994053 85.81920999 182.22760213 67.72159316 175.1875 54 C165.70544137 38.27480375 150.28812612 29.17837181 132.75 24.75 C124.7732191 22.77935731 117.13652534 21.85043518 108.94360352 21.88647461 C107.60419283 21.88629381 107.60419283 21.88629381 106.23772335 21.88610935 C103.36809167 21.88685141 100.49852621 21.89444726 97.62890625 21.90234375 C95.84891796 21.90381536 94.06892924 21.90483472 92.28894043 21.90539551 C85.71345366 21.91062301 79.13797617 21.92458427 72.5625 21.9375 C50.5040625 21.9684375 50.5040625 21.9684375 28 22 Z " fill="#F4E7D9" transform="translate(2253,415)"/>
<path d="M0 0 C1.0209375 0.35707031 2.041875 0.71414063 3.09375 1.08203125 C17.81554054 6.68185211 30.03270093 15.87438553 41 27 C41.73605469 27.72574219 42.47210937 28.45148438 43.23046875 29.19921875 C70.6033117 57.88333561 75.57889318 98.92456053 75.39111328 136.65869141 C75.37501897 140.49547868 75.39106304 144.33121296 75.41015625 148.16796875 C75.43417666 175.837923 72.22665148 201.9449379 60 227 C59.51660156 227.99515625 59.03320312 228.9903125 58.53515625 230.015625 C44.91943557 256.41729945 21.2103587 274.6081718 -6.6875 283.75 C-40.95156808 294.15637224 -79.30077204 290.79064633 -110.96142578 274.14746094 C-138.77799716 258.49022915 -156.72848544 231.92020529 -165.65673828 201.78320312 C-170.93322902 182.85168933 -171.32664037 163.7579085 -171.26074219 144.22290039 C-171.25000924 140.4407553 -171.26070058 136.65908399 -171.2734375 132.87695312 C-171.28398135 116.39745643 -170.73984752 100.44760017 -166.75 84.375 C-166.4257605 83.05218018 -166.4257605 83.05218018 -166.0949707 81.70263672 C-161.42513178 63.37955395 -152.97687993 46.62005343 -141 32 C-140.31421875 31.14921875 -139.6284375 30.2984375 -138.921875 29.421875 C-119.8035885 6.90478201 -91.35965935 -4.78108962 -62.45507812 -7.80371094 C-41.01593012 -9.51781943 -20.21211748 -7.31590774 0 0 Z M-111 37 C-111.77730469 37.68578125 -112.55460937 38.3715625 -113.35546875 39.078125 C-132.84499471 57.19231436 -141.81607446 85.74998847 -143.19529724 111.67030334 C-143.27773489 115.50543707 -143.30344005 119.33586132 -143.30078125 123.171875 C-143.30468711 124.58848186 -143.3090255 126.00508758 -143.31376648 127.42169189 C-143.32115866 130.36970845 -143.32098967 133.31760511 -143.31567383 136.265625 C-143.31104477 139.24820036 -143.31796065 142.2303678 -143.33618164 145.21289062 C-143.56072024 182.29511769 -138.41131482 215.33030172 -112.25 243.25 C-93.89255137 260.89147949 -69.14997203 267.53603787 -44.17578125 267.1484375 C-22.0333423 266.52470683 -1.66667075 259.85204161 15 245 C15.75925781 244.33484375 16.51851562 243.6696875 17.30078125 242.984375 C36.80767131 224.79142054 45.82334882 196.30580931 47.19529724 170.29774475 C47.27782552 166.41266372 47.30528702 162.53023795 47.30078125 158.64453125 C47.30468716 157.20789979 47.30902556 155.77126945 47.31376648 154.3346405 C47.32116071 151.34374223 47.32098849 148.35296212 47.31567383 145.36206055 C47.31104812 142.3378205 47.31794788 139.31398307 47.33618164 136.28979492 C47.53498349 106.36487174 47.53498349 106.36487174 40.875 77.3125 C40.57424561 76.44294678 40.27349121 75.57339355 39.96362305 74.67749023 C31.58038062 51.4257751 16.40389241 33.56959985 -5.94311523 22.6796875 C-39.33066494 7.174511 -83.68758454 11.73492669 -111 37 Z " fill="#F4E7D9" transform="translate(3362,419)"/>
<path d="M0 0 C0.7321875 0.57621094 1.464375 1.15242188 2.21875 1.74609375 C19.48072187 16.02832048 30.7602825 37.73723276 36.8125 59 C36.99522461 59.63776367 37.17794922 60.27552734 37.36621094 60.93261719 C37.98366395 63.27574293 38.4940315 65.63017005 39 68 C39.26039063 69.09707275 39.52078125 70.19414551 39.7890625 71.32446289 C42.99005866 86.21419388 42.45668642 101.50092876 42.39111328 116.64868164 C42.37403667 120.63342872 42.38416691 124.61757421 42.40143013 128.60230064 C42.51877647 160.45189343 42.51877647 160.45189343 39 176 C38.78102051 176.9892749 38.56204102 177.9785498 38.33642578 178.99780273 C37.75908119 181.36509584 37.10534764 183.6759304 36.375 186 C36.12339111 186.81412354 35.87178223 187.62824707 35.61254883 188.46704102 C26.31638957 217.24165848 7.95850265 241.65537006 -18.69921875 256.37890625 C-50.99738584 272.24131967 -89.56511125 274.93418601 -123.8125 263.8125 C-151.79824201 254.15456489 -175.04931102 234.52317313 -188.375 207.875 C-189.6292288 205.26936622 -190.83005952 202.64445224 -192 200 C-192.48210937 198.91074219 -192.96421875 197.82148437 -193.4609375 196.69921875 C-195.89673445 190.77211285 -197.69027742 184.78102998 -199.1875 178.5625 C-199.42001465 177.59775757 -199.42001465 177.59775757 -199.65722656 176.61352539 C-202.38563632 164.53332772 -203.3146601 152.56816086 -203.30078125 140.20703125 C-203.30468644 138.72555933 -203.3090247 137.2440885 -203.31376648 135.76261902 C-203.3211633 132.67756502 -203.3209865 129.59262557 -203.31567383 126.50756836 C-203.31104748 123.38632784 -203.31794963 120.26547736 -203.33618164 117.14428711 C-203.52965291 83.71452733 -203.52965291 83.71452733 -200 68 C-199.78625732 67.02039307 -199.57251465 66.04078613 -199.35229492 65.03149414 C-198.79124087 62.6957649 -198.15320804 60.41749422 -197.4375 58.125 C-197.18919434 57.31748291 -196.94088867 56.50996582 -196.68505859 55.67797852 C-190.44952162 36.39523807 -180.83544084 20.6954134 -167 6 C-166.44957031 5.38511719 -165.89914062 4.77023437 -165.33203125 4.13671875 C-123.99422986 -40.263142 -44.49668899 -35.43486328 0 0 Z M-148 22 C-169.55185699 45.07869154 -176.07966729 76.45437192 -176.203125 107.11328125 C-176.20882507 108.24412643 -176.21452515 109.37497162 -176.22039795 110.54008484 C-176.22979071 112.92425621 -176.23635896 115.30844023 -176.24023438 117.69262695 C-176.24987112 121.26472889 -176.28092243 124.83623736 -176.3125 128.40820312 C-176.45905138 159.88768481 -172.52940108 192.38798013 -151 217 C-150.14921875 218.08087891 -150.14921875 218.08087891 -149.28125 219.18359375 C-135.16945399 236.43466642 -113.96875 244.71511905 -92.4375 247.75 C-90.96030189 247.86297882 -89.48037806 247.94204066 -88 248 C-86.86949219 248.0515625 -85.73898437 248.103125 -84.57421875 248.15625 C-57.80794103 248.79165125 -33.08885968 241.22127142 -13.4609375 222.58984375 C8.70002184 199.17233517 15.13559966 166.86582381 15.16796875 135.7109375 C15.17129715 134.56823395 15.17462555 133.4255304 15.17805481 132.24819946 C15.18308789 129.84304198 15.18546426 127.43787759 15.18530273 125.03271484 C15.1874815 121.40580367 15.20565539 117.779201 15.22460938 114.15234375 C15.30692234 80.71750488 10.78329931 49.0633852 -12 23 C-12.87011719 21.98679687 -12.87011719 21.98679687 -13.7578125 20.953125 C-29.95735079 3.42115715 -53.42359315 -3.84620815 -76.6862793 -4.92553711 C-103.7686742 -5.70657814 -128.80280135 2.51556147 -148 22 Z " fill="#F4E7D9" transform="translate(2057,438)"/>
<path d="M0 0 C9.24 0 18.48 0 28 0 C28 42.57 28 85.14 28 129 C86.74 129 145.48 129 206 129 C206 86.43 206 43.86 206 0 C215.24 0 224.48 0 234 0 C234 95.37 234 190.74 234 289 C224.76 289 215.52 289 206 289 C206 243.46 206 197.92 206 151 C147.26 151 88.52 151 28 151 C28 196.54 28 242.08 28 289 C18.76 289 9.52 289 0 289 C0 193.63 0 98.26 0 0 Z " fill="#F4E7D9" transform="translate(563,415)"/>
<path d="M0 0 C18.06660325 15.78391995 28.26074989 33.73140313 30.34765625 57.83984375 C30.34765625 59.48984375 30.34765625 61.13984375 30.34765625 62.83984375 C21.10765625 62.83984375 11.86765625 62.83984375 2.34765625 62.83984375 C1.75984375 58.75609375 1.75984375 58.75609375 1.16015625 54.58984375 C-1.2661192 39.41707894 -7.59423593 25.8019133 -19.65234375 15.83984375 C-43.04270661 -1.08162188 -72.62646611 -4.39913935 -100.71484375 -0.44140625 C-109.78551014 1.13268265 -118.43970274 3.6161998 -126.65234375 7.83984375 C-127.6784375 8.36578125 -128.70453125 8.89171875 -129.76171875 9.43359375 C-141.76229015 16.00107063 -150.38416759 24.89418004 -154.52734375 38.15234375 C-157.39420058 50.23409753 -155.96114832 61.27053564 -149.90234375 72.02734375 C-133.79976931 97.05846431 -97.20451051 103.95661343 -70.43896484 111.12695312 C5.04054982 131.36394898 5.04054982 131.36394898 23.81640625 162.9375 C32.78274407 179.9323699 34.44802025 198.57537877 29.72265625 217.08984375 C23.49200349 236.74208184 9.14571591 249.67448612 -8.52685547 259.12963867 C-44.412422 277.4753353 -90.70030344 277.28116526 -128.65234375 265.83984375 C-152.43780407 257.9592238 -174.51163073 244.79469848 -186.52734375 221.96484375 C-192.10634614 209.97788343 -194.15967034 198.89568907 -194.65234375 185.83984375 C-185.41234375 185.83984375 -176.17234375 185.83984375 -166.65234375 185.83984375 C-166.42546875 188.04671875 -166.19859375 190.25359375 -165.96484375 192.52734375 C-164.03779469 207.92858914 -157.24078876 220.93556418 -145.234375 230.9375 C-134.59330629 238.77744018 -123.31694987 243.36897037 -110.65234375 246.83984375 C-109.42128906 247.18144531 -108.19023438 247.52304687 -106.921875 247.875 C-78.40504738 254.22849009 -44.08021338 251.64607083 -18.77734375 236.52734375 C-7.96114607 229.16654354 -0.60672485 220.11268192 2.72265625 207.27734375 C4.80836084 195.32217104 3.19434333 182.08973706 -3.65234375 171.83984375 C-20.61420885 148.83625236 -52.60089233 142.10636655 -78.65234375 134.83984375 C-142.54785431 116.93486707 -142.54785431 116.93486707 -161.65234375 99.83984375 C-162.60109375 99.01097656 -163.54984375 98.18210937 -164.52734375 97.328125 C-174.06894057 88.44769861 -180.93304815 77.70961347 -183.65234375 64.83984375 C-183.87921875 63.76734375 -184.10609375 62.69484375 -184.33984375 61.58984375 C-185.94841503 42.28698844 -182.51619625 24.00916978 -169.82348633 8.90966797 C-130.33316812 -34.90223223 -44.26816472 -36.05345374 0 0 Z " fill="#F4E7D9" transform="translate(1343.65234375,435.16015625)"/>
<path d="M0 0 C18.69983481 16.67925254 27.9595602 39.75036866 31.4453125 64.15063477 C31.4453125 65.47063477 31.4453125 66.79063477 31.4453125 68.15063477 C22.2053125 68.15063477 12.9653125 68.15063477 3.4453125 68.15063477 C2.7646875 65.01563477 2.0840625 61.88063477 1.3828125 58.65063477 C-1.95501198 44.24422591 -6.89487495 31.58890117 -16.5546875 20.15063477 C-17.15796875 19.43520508 -17.76125 18.71977539 -18.3828125 17.98266602 C-31.56007339 3.67038896 -51.94454363 -2.83804504 -70.9387207 -4.06860352 C-96.43457567 -4.91899907 -120.74435542 -2.50374742 -140.5546875 15.15063477 C-141.21339844 15.66883789 -141.87210938 16.18704102 -142.55078125 16.72094727 C-162.66745919 32.95545929 -171.31799135 60.86714097 -174.33905029 85.58558655 C-174.822541 91.33680632 -174.74209683 97.11702117 -174.7578125 102.88500977 C-174.76063988 103.59189186 -174.76346725 104.29877396 -174.76638031 105.02707672 C-174.78131639 108.77839012 -174.79057738 112.52966571 -174.79492188 116.28100586 C-174.79928212 119.33939708 -174.81308547 122.39750233 -174.8359375 125.45581055 C-175.11220564 163.18436599 -171.04336485 197.46465379 -144.1171875 226.02563477 C-139.40962877 230.55085848 -134.21600308 233.93287847 -128.5546875 237.15063477 C-127.75289062 237.6134082 -126.95109375 238.07618164 -126.125 238.55297852 C-103.20252488 250.91608395 -72.90767519 249.7344669 -48.328125 243.30688477 C-30.3074616 237.90534225 -17.40704178 227.53445043 -7.96875 211.44750977 C-1.83314318 200.04836206 0.92149819 187.7697063 3.4453125 175.15063477 C12.6853125 175.15063477 21.9253125 175.15063477 31.4453125 175.15063477 C29.39541484 197.699509 22.10583212 217.75981594 7.4453125 235.15063477 C6.80722656 235.98208008 6.16914063 236.81352539 5.51171875 237.67016602 C-11.62715964 258.24329981 -40.99853767 267.43258314 -66.78125 269.83422852 C-103.50526579 272.59679378 -136.79926612 265.39939379 -165.3046875 241.27563477 C-189.29373262 219.08796482 -201.21833836 186.13805397 -203.5546875 154.15063477 C-203.71366014 149.41629056 -203.74207672 144.68427724 -203.7578125 139.94750977 C-203.76063988 139.2780558 -203.76346725 138.60860184 -203.76638031 137.91886139 C-203.78128411 134.36623254 -203.79056546 130.81364327 -203.79492188 127.26098633 C-203.79927924 124.3754391 -203.81307619 121.49019548 -203.8359375 118.60473633 C-204.15899524 76.98833455 -198.21529012 35.94959785 -167.8671875 4.90063477 C-125.1358766 -37.21424732 -45.18004363 -39.13015341 0 0 Z " fill="#F4E7D9" transform="translate(3020.5546875,437.849365234375)"/>
<path d="M0 0 C79.86 0 159.72 0 242 0 C242 7.26 242 14.52 242 22 C206.69 22 171.38 22 135 22 C135 110.11 135 198.22 135 289 C125.76 289 116.52 289 107 289 C107 200.89 107 112.78 107 22 C71.69 22 36.38 22 0 22 C0 14.74 0 7.48 0 0 Z " fill="#F4E7D9" transform="translate(1492,415)"/>
<path d="M0 0 C9.24 0 18.48 0 28 0 C28 95.37 28 190.74 28 289 C18.76 289 9.52 289 0 289 C0 193.63 0 98.26 0 0 Z " fill="#F4E7D9" transform="translate(2628,415)"/>
<path d="M0 0 C8.91 0 17.82 0 27 0 C27 95.37 27 190.74 27 289 C18.09 289 9.18 289 0 289 C0 193.63 0 98.26 0 0 Z " fill="#F4E7D9" transform="translate(970,415)"/>
<path d="M0 0 C1.5440252 0.06533412 3.08831838 0.12462809 4.6328125 0.17773438 C8.38692164 0.31983221 12.12795473 0.54321498 15.875 0.8125 C12.77859893 5.05693249 9.76427802 9.18798298 5.9375 12.8125 C2.73430502 15.93108228 -0.2303818 19.15925962 -3.14453125 22.546875 C-5.59105768 25.34566263 -8.10576721 28.07939817 -10.625 30.8125 C-13.66406692 34.11261301 -16.68656514 37.42199824 -19.625 40.8125 C-20.18316406 41.4209375 -20.74132813 42.029375 -21.31640625 42.65625 C-23.27328879 44.89686482 -23.27328879 44.89686482 -25.15234375 47.96875 C-28.37321732 52.62330923 -31.16586209 56.25804245 -36.97070312 57.34570312 C-44.04090329 57.85903675 -51.07594571 57.47422371 -58.125 56.8125 C-55.24722023 51.49755747 -51.97598919 46.81236055 -48.25 42.0625 C-42.83027431 35.06960539 -37.53627196 27.99652845 -32.32275391 20.84863281 C-31.22647553 19.35048509 -30.11366856 17.86432003 -28.98632812 16.3894043 C-27.55368508 14.40599043 -26.31423591 12.46950464 -25.07617188 10.37036133 C-18.36857056 -0.4015169 -12.11708365 -0.89732058 0 0 Z " fill="#F4E7D9" transform="translate(2018.125,334.1875)"/>
<path d="M0 0 C4.35720116 2.23898823 6.39203006 4.72052025 7.89453125 9.31640625 C8.82949521 15.65338423 7.49508844 19.04183329 3.76171875 24.1953125 C0.87085244 27.47928824 -2.44537089 29.94756119 -6.10546875 32.31640625 C-1.08885683 39.24993492 4.38083914 45.77843141 9.89453125 52.31640625 C12.41549202 49.79544548 12.41657899 48.23732543 12.95703125 44.75390625 C13.79730903 39.41362847 13.79730903 39.41362847 14.89453125 38.31640625 C16.89411489 38.27559842 18.89498379 38.27386269 20.89453125 38.31640625 C20.60043618 46.05110658 19.16776599 52.297982 15.89453125 59.31640625 C16.47203125 60.02667969 17.04953125 60.73695313 17.64453125 61.46875 C18.38703125 62.38785156 19.12953125 63.30695312 19.89453125 64.25390625 C20.63703125 65.17042969 21.37953125 66.08695313 22.14453125 67.03125 C23.89453125 69.31640625 23.89453125 69.31640625 23.89453125 70.31640625 C16.54759247 70.80620217 16.54759247 70.80620217 13.39453125 68.44140625 C11.89453125 66.31640625 11.89453125 66.31640625 11.89453125 64.31640625 C10.88132812 64.94869141 10.88132812 64.94869141 9.84765625 65.59375 C8.955625 66.14160156 8.06359375 66.68945312 7.14453125 67.25390625 C6.2628125 67.79917969 5.38109375 68.34445312 4.47265625 68.90625 C-1.84270526 72.36056137 -9.48648398 72.15273406 -16.45703125 70.890625 C-21.77986931 69.21567789 -25.07104977 65.9362829 -28.10546875 61.31640625 C-29.98772657 55.6696328 -29.91824659 49.51090641 -27.85546875 43.94140625 C-24.70867282 39.22121235 -21.17186262 35.26984473 -17.10546875 31.31640625 C-17.45480469 30.77371094 -17.80414062 30.23101563 -18.1640625 29.671875 C-18.61910156 28.95644531 -19.07414062 28.24101563 -19.54296875 27.50390625 C-19.99542969 26.79621094 -20.44789062 26.08851563 -20.9140625 25.359375 C-23.71227189 20.56113398 -23.56851183 15.7129629 -23.10546875 10.31640625 C-21.43828993 5.57810856 -19.2518483 3.11521245 -15.10546875 0.31640625 C-10.22928707 -1.30898764 -4.93996481 -1.60388468 0 0 Z M-14.10546875 7.31640625 C-16.48427305 11.28108008 -17.53282885 13.81503798 -16.54296875 18.37890625 C-15.35670607 22.20628206 -13.49955157 25.12429582 -11.10546875 28.31640625 C-3.15848026 22.85538205 -3.15848026 22.85538205 1.83203125 14.81640625 C1.91557829 11.47452465 0.88985334 9.95308187 -1.10546875 7.31640625 C-5.28043644 4.53309445 -9.99976883 4.06016148 -14.10546875 7.31640625 Z M-15.48046875 39.50390625 C-21.30614855 45.45583936 -21.30614855 45.45583936 -23.10546875 53.31640625 C-21.59136354 57.93841164 -19.90116314 61.23240455 -16.10546875 64.31640625 C-10.22979664 66.27496362 -4.22776798 66.19685396 1.39453125 63.50390625 C4.27130715 61.96530274 4.98684553 61.17793483 6.89453125 58.31640625 C6.26546875 57.63835938 5.63640625 56.9603125 4.98828125 56.26171875 C-0.1093963 50.71876214 -4.9533556 45.1233914 -9.51171875 39.1171875 C-10.300625 38.22580078 -10.300625 38.22580078 -11.10546875 37.31640625 C-13.39843669 37.090581 -13.39843669 37.090581 -15.48046875 39.50390625 Z " fill="#F4E7D9" transform="translate(1786.10546875,833.68359375)"/>
<path d="M0 0 C34.35135135 0 34.35135135 0 40.8125 5.3125 C46.44612432 12.23380988 46.79122851 18.27419826 46 27 C44.2534789 32.65050944 40.46305686 35.42955452 36 39 C35.34 39.66 34.68 40.32 34 41 C34.45439453 41.77190674 34.90878906 42.54381348 35.37695312 43.33911133 C37.05942624 46.20427676 38.73600275 49.0727236 40.40869141 51.94360352 C41.1338929 53.18553135 41.86141945 54.42610453 42.59130859 55.6652832 C43.63993444 57.44652045 44.68010712 59.23245915 45.71875 61.01953125 C46.34716797 62.09307861 46.97558594 63.16662598 47.62304688 64.27270508 C49 67 49 67 49 70 C45.81640625 70.48828125 45.81640625 70.48828125 42 70 C39.72707997 67.73020964 38.40155744 65.02442791 36.9375 62.1875 C36.50107178 61.41664063 36.06464355 60.64578125 35.61499023 59.8515625 C33.69965038 56.43128727 32.0524044 53.14230776 30.6953125 49.45703125 C29.43503563 46.16727404 28.69402008 44.30045888 26 42 C19.73219123 40.37888964 13.44267017 40.86761637 7 41 C7 50.57 7 60.14 7 70 C4.69 70 2.38 70 0 70 C0 46.9 0 23.8 0 0 Z M7 6 C7 15.57 7 25.14 7 35 C10.67125 35.0825 14.3425 35.165 18.125 35.25 C19.2711377 35.28641602 20.41727539 35.32283203 21.59814453 35.36035156 C27.73632164 35.42708258 31.3660121 35.16066459 36 31 C38.97579122 27.20330086 39.83716445 23.80364862 40 19 C39.08839316 14.2738053 37.7715934 11.62691963 34 8.5625 C30.13185387 6.54784056 27.41287079 5.87628563 23.11328125 5.90234375 C21.845448 5.90609009 21.845448 5.90609009 20.55200195 5.90991211 C19.48296631 5.91901611 18.41393066 5.92812012 17.3125 5.9375 C13.909375 5.958125 10.50625 5.97875 7 6 Z " fill="#F4E7D9" transform="translate(2682,834)"/>
<path d="M0 0 C3.39572362 2.6190861 4.96412343 4.82824458 6.23046875 8.86328125 C7.51019611 20.75284124 7.51019611 20.75284124 4.48046875 25.48828125 C2.50214765 27.57650907 0.64729559 29.30960685 -1.76953125 30.86328125 C-1.29902344 31.22679687 -0.82851562 31.5903125 -0.34375 31.96484375 C4.57927566 35.93995764 7.8084914 39.08130925 8.54296875 45.6640625 C8.80820455 52.31982333 8.32125881 56.55631036 4.23046875 61.86328125 C-2.38128809 68.13597364 -9.20443052 68.39521703 -17.87109375 68.171875 C-23.66715944 67.7130682 -27.37193856 66.47278238 -31.31640625 62.1796875 C-35.44089552 56.79236303 -36.46923386 51.65675745 -35.76953125 44.86328125 C-34.07901895 39.6137957 -31.85333039 36.52822919 -27.76953125 32.86328125 C-27.10953125 32.20328125 -26.44953125 31.54328125 -25.76953125 30.86328125 C-26.53265625 30.32703125 -27.29578125 29.79078125 -28.08203125 29.23828125 C-31.78506103 25.96583633 -33.46648865 23.27653509 -34.08984375 18.3125 C-34.35382516 11.95054807 -33.52939648 7.07778286 -29.76953125 1.86328125 C-21.99716373 -6.34088446 -9.05879463 -5.81922569 0 0 Z M-25.08203125 7.17578125 C-27.79619518 11.49833862 -28.0058604 14.49257219 -27.14453125 19.48828125 C-25.54118854 23.4237588 -24.41636783 24.72274674 -20.76953125 26.86328125 C-16.6463899 28.53505915 -13.51601304 28.96449912 -9.08203125 28.36328125 C-4.4746877 26.276937 -2.05516433 23.43454742 0.23046875 18.86328125 C0.36022938 14.22897306 -0.10370676 10.13933131 -3.01953125 6.42578125 C-6.58772114 3.10087703 -8.90468248 2.06166942 -13.70703125 1.55078125 C-18.5751763 2.04753074 -21.63817364 3.73192364 -25.08203125 7.17578125 Z M-23.76953125 36.86328125 C-28.12037253 41.4372426 -29.07885337 44.47408126 -28.98046875 50.61328125 C-28.55126558 55.1914484 -26.50469843 57.24779245 -23.08203125 60.11328125 C-17.87864678 62.86223908 -13.85437508 63.21664461 -8.08203125 62.23828125 C-4.15919956 60.60993602 -2.3119557 59.27739408 0.23046875 55.86328125 C2.13719005 51.2227221 2.5227726 47.91213623 1.16796875 43.05078125 C-2.10022484 37.67407566 -5.71738616 35.40850978 -11.76953125 33.86328125 C-16.38424976 33.86328125 -19.69349167 34.7373797 -23.76953125 36.86328125 Z " fill="#F4E7D9" transform="translate(2255.76953125,197.13671875)"/>
<path d="M0 0 C4.59396152 3.69514296 7.52737962 7.61375291 8.35546875 13.546875 C8.70406622 20.36807947 7.38411462 24.76376169 3 30 C2.01510494 31.01488015 1.01923957 32.01961707 0 33 C0.83144531 33.67095703 0.83144531 33.67095703 1.6796875 34.35546875 C9.59452551 40.96055598 9.59452551 40.96055598 10.20703125 47.0625 C10.51047663 53.71582092 9.04696608 58.56577006 4.6875 63.75 C-0.5331559 68.12078168 -5.12931393 69.53805086 -11.875 69.4375 C-12.58245361 69.42992676 -13.28990723 69.42235352 -14.01879883 69.41455078 C-20.5040329 69.20971457 -24.89037032 68.00754588 -29.546875 63.50390625 C-34.14294444 58.32687297 -34.40402298 53.74135737 -34.34765625 47.08203125 C-33.66655281 41.04393443 -30.61223841 37.43310081 -26.1875 33.5 C-25.465625 33.005 -24.74375 32.51 -24 32 C-24.94875 31.2575 -25.8975 30.515 -26.875 29.75 C-29.43514892 27.74640519 -30.86341299 26.07040094 -32 23 C-32.65752383 16.39060459 -33.1373598 9.51647973 -29 4 C-20.71087855 -4.28912145 -10.29812941 -4.83934653 0 0 Z M-21 6 C-24.07612189 9.40867561 -25.87041393 11.65230491 -26.3125 16.25 C-25.88052397 21.43371238 -23.80333044 24.19666956 -20.1875 27.8125 C-16.49807485 29.81533079 -13.05624801 30.43046687 -8.91015625 29.5625 C-4.30665079 28.05371609 -1.50361073 26.30621046 1 22 C2.52978025 17.41065925 1.85153876 14.15504361 0 9.83203125 C-1.59453716 6.91078935 -3.07113791 5.59177287 -6 4 C-11.73292125 2.47404684 -15.98942663 2.50425114 -21 6 Z M-23.578125 39.29296875 C-26.95472699 42.91214272 -28 46.12407671 -28 51 C-26.51927602 55.59803761 -24.89988642 59.07508518 -21 62 C-15.79626379 64.10150885 -11.36176312 64.50390917 -6 63 C-1.66884483 60.71184255 1.16251098 58.59372255 3 54 C3.71062194 49.26252043 3.47089401 45.94178801 1.3125 41.625 C-2.54821486 37.24256692 -5.97370924 35.46542107 -11.8828125 34.94140625 C-16.35101706 35.06506505 -20.11916578 36.45901948 -23.578125 39.29296875 Z " fill="#F4E7D9" transform="translate(2326,196)"/>
<path d="M0 0 C5.34403744 4.5026358 7.68170443 9.49874878 8.3125 16.4375 C7.69865213 23.43536569 4.5512801 27.95668962 0 33 C0.47050781 33.32871094 0.94101563 33.65742188 1.42578125 33.99609375 C6.562004 37.92004032 8.99223889 41.57154494 10 48 C10.23038159 54.07005395 8.96205024 58.2675511 5 63 C-1.72298645 69.05068781 -7.33540276 69.52911076 -16.06640625 69.3125 C-22.67824928 68.78722945 -26.61386758 66.83017423 -30.9375 61.875 C-35.14961353 56.00356902 -34.57982842 50.06263224 -34 43 C-31.85052749 38.4622247 -28.63767598 35.43558287 -25 32 C-25.49371094 31.46890625 -25.98742188 30.9378125 -26.49609375 30.390625 C-27.45708984 29.33101562 -27.45708984 29.33101562 -28.4375 28.25 C-29.39462891 27.20585937 -29.39462891 27.20585937 -30.37109375 26.140625 C-33.55566765 21.95562141 -33.50838151 17.11259145 -33 12 C-31.22299586 5.93727998 -28.21542406 2.37278457 -23 -1 C-15.19778597 -4.06515551 -7.45890721 -3.85150845 0 0 Z M-24.9375 9.1875 C-26.95826435 14.5365821 -26.79662836 19.12965515 -24.5625 24.375 C-21.09962884 27.92233143 -17.88744981 29.29260595 -13 30 C-8.32375984 29.79958971 -5.6269088 28.5335394 -2.0625 25.5 C1.56221686 21.1064038 1.49997977 17.53823749 1 12 C-0.38229338 8.11229987 -2.30641206 6.6181947 -5.8125 4.6875 C-13.406739 1.29226541 -19.50475845 3.05375954 -24.9375 9.1875 Z M-23.8125 39.375 C-27.69035071 44.02842085 -28.53158693 46.83359161 -28 53 C-26.17856224 58.16074033 -23.86385446 60.52218735 -19 63 C-12.72521232 64.54298058 -7.78683936 63.98455101 -2 61 C1.54546255 57.45453745 2.84062325 54.68939356 3.3125 49.6875 C2.85192821 44.25275282 0.46761421 41.50838127 -3.25 37.6875 C-10.06616092 33.5048558 -17.74409183 34.25056643 -23.8125 39.375 Z " fill="#F4E7D9" transform="translate(2398,196)"/>
<path d="M0 0 C32.66875 0 32.66875 0 40.62109375 7.25 C49.35032735 18.32846078 49.83535019 30.56633141 49 44 C47.79289357 52.08147528 44.15307304 59.87699405 37.52734375 64.859375 C24.77568488 72.74699904 17.99784847 70 0 70 C0 46.9 0 23.8 0 0 Z M7 6 C7 25.14 7 44.28 7 64 C22.78245514 65.10776716 22.78245514 65.10776716 34.98828125 58.359375 C35.42527344 57.82828125 35.86226562 57.2971875 36.3125 56.75 C36.98732422 55.96882812 36.98732422 55.96882812 37.67578125 55.171875 C41.66964562 48.62146618 42.52899082 42.64082827 42.4375 35.125 C42.42847656 34.24239502 42.41945313 33.35979004 42.41015625 32.45043945 C42.20786149 24.84963518 41.36963582 18.73544179 36.12890625 12.92578125 C26.92185732 4.34529898 21.00891762 6 7 6 Z " fill="#F4E7D9" transform="translate(2461,834)"/>
<path d="M0 0 C7.47905933 6.3156501 10.57924097 13.48709173 12 23 C13.05794378 35.94636289 12.65515873 49.22227566 4.74609375 60.08984375 C0.22173429 65.03931081 -5.08357787 67.70906578 -11.734375 68.203125 C-20.06536877 68.33262231 -27.10039097 67.56399905 -33.55078125 61.78515625 C-40.81063469 52.84242573 -42.19078104 43.36423843 -42.25 32.3125 C-42.270625 31.36955078 -42.29125 30.42660156 -42.3125 29.45507812 C-42.36938055 19.109928 -39.9512904 9.88434951 -33 2 C-23.42488207 -5.73020118 -10.51375732 -6.64140637 0 0 Z M-29.8125 8.75 C-34.905378 16.31656161 -35.49866008 22.96786794 -35.4375 31.875 C-35.45748047 32.89980469 -35.47746094 33.92460938 -35.49804688 34.98046875 C-35.49322612 42.56833124 -34.50513625 50.08770146 -29.25976562 55.94238281 C-24.40151655 60.40090254 -19.84895332 62.51572312 -13.1171875 62.3125 C-7.82804813 61.53181522 -4.03419699 58.96525053 -0.1875 55.375 C7.13866928 45.27676667 6.22515787 30.54547612 4.53125 18.73046875 C3.08630781 13.13131775 0.43144694 8.74488474 -4 5 C-13.57262857 -0.49539789 -22.1928968 1.29972132 -29.8125 8.75 Z " fill="#F4E7D9" transform="translate(2610,837)"/>
<path d="M0 0 C6.04075884 5.41185792 9.461325 14.49814324 10.05200195 22.44335938 C10.71975732 49.28127241 10.71975732 49.28127241 2.75 59.625 C-2.90106069 65.30005671 -9.36574012 67.251442 -17.25 67.5 C-26.01995713 67.1299123 -31.31784813 64.82816005 -37.36328125 58.37890625 C-45.53094296 47.63960826 -45.11513638 32.8510635 -43.81640625 20.01171875 C-42.22873668 10.97745742 -38.44390729 3.74329457 -31.125 -1.9375 C-21.31294655 -7.9137399 -9.25570268 -5.73853566 0 0 Z M-31.9375 7.6875 C-39.26366928 17.78573333 -38.35015787 32.51702388 -36.65625 44.33203125 C-35.21130781 49.93118225 -32.55644694 54.31761526 -28.125 58.0625 C-23.13159808 60.92908258 -18.76430168 61.85378541 -13.125 61.0625 C-7.15520757 59.31273325 -3.35223028 56.30211238 -0.125 51.0625 C3.02249896 44.37126113 3.36287055 38.52328343 3.3125 31.1875 C3.33248047 30.16269531 3.35246094 29.13789062 3.37304688 28.08203125 C3.36822612 20.49416876 2.38013625 12.97479854 -2.86523438 7.12011719 C-7.72348345 2.66159746 -12.27604668 0.54677688 -19.0078125 0.75 C-24.29695187 1.53068478 -28.09080301 4.09724947 -31.9375 7.6875 Z " fill="#F4E7D9" transform="translate(2079.125,837.9375)"/>
<path d="M0 0 C4.16382936 4.16382936 6.48958983 7.80575509 6.5 13.6875 C6.4175 14.863125 6.335 16.03875 6.25 17.25 C4.27 17.25 2.29 17.25 0.25 17.25 C0.10304688 16.65832031 -0.04390625 16.06664062 -0.1953125 15.45703125 C-1.88364498 9.50905534 -3.58669503 6.69220331 -8.75 3.25 C-14.21106328 1.42964557 -20.31034104 1.37265488 -25.6875 3.5625 C-29.23582002 5.38042409 -29.23582002 5.38042409 -31.75 8.25 C-32.95030005 13.14353097 -33.07068926 16.71410736 -30.75 21.25 C-28.43789479 22.37118202 -28.43789479 22.37118202 -25.75 23.25 C-24.93402344 23.54519531 -24.11804687 23.84039063 -23.27734375 24.14453125 C-21.99537109 24.59892578 -21.99537109 24.59892578 -20.6875 25.0625 C1.78079774 33.23002986 1.78079774 33.23002986 5.625 39.9375 C8.12094966 45.54555427 8.11327828 50.66016516 6.1875 56.4375 C2.96589308 61.11402617 -0.61865761 64.29307077 -5.8125 66.625 C-17.34768133 68.45598116 -26.77893791 67.6996141 -36.6875 61.375 C-41.35832335 56.56263655 -42.19635111 51.67232718 -42.75 45.25 C-40.44 45.25 -38.13 45.25 -35.75 45.25 C-35.59144531 45.85328125 -35.43289062 46.4565625 -35.26953125 47.078125 C-33.75566539 52.26374288 -32.59002619 55.36903203 -27.75 58.25 C-21.62604592 61.10923153 -14.75010573 61.46824256 -8.26171875 59.4921875 C-4.36800415 57.68413721 -2.34130296 56.35957851 -0.75 52.25 C-0.44424865 47.96948104 -0.34703198 44.85803855 -2.75 41.25 C-8.78410329 37.23069099 -15.54913547 34.93464965 -22.4375 32.875 C-29.31502073 30.70501144 -34.01723312 27.6914807 -38.75 22.25 C-40.96197891 17.82604218 -40.15521352 12.06558098 -39.75 7.25 C-37.37091862 1.69881012 -33.051958 -1.15079793 -27.75 -3.75 C-18.38077304 -6.87963674 -8.15548308 -5.18985287 0 0 Z " fill="#F4E7D9" transform="translate(2187.75,837.75)"/>
<path d="M0 0 C8.33175582 0.55545039 15.15294009 2.87557066 20.75 9.25 C23.67921808 13.69107257 24.06646072 16.97565464 23.75 22.25 C21.77 22.25 19.79 22.25 17.75 22.25 C17.53085938 21.57453125 17.31171875 20.8990625 17.0859375 20.203125 C15.02970173 14.41891707 13.54875145 11.0285684 7.75 8.25 C2.10451005 6.06464905 -3.98073763 6.93580322 -9.4453125 9.2109375 C-12.56721364 11.00839573 -13.81314859 13.00146637 -15.25 16.25 C-15.32374754 20.45360985 -14.77121249 22.52702784 -12.3125 25.9375 C-7.28731344 29.73202863 -1.68114336 31.4558265 4.265625 33.3984375 C12.89388859 36.2806447 19.11624744 38.5772132 23.6875 46.6875 C25.69183137 53.40790519 25.0654827 58.07634255 21.75 64.25 C18.01185557 68.81884319 13.61390521 71.66404514 7.75048828 72.55322266 C5.63650767 72.68757943 3.55547073 72.71791066 1.4375 72.6875 C0.69201904 72.67920166 -0.05346191 72.67090332 -0.8215332 72.66235352 C-7.78002987 72.45007064 -13.71793695 71.30815941 -19.11328125 66.63671875 C-23.41919418 62.00195328 -25.25 57.63368782 -25.25 51.25 C-22.94 51.25 -20.63 51.25 -18.25 51.25 C-17.8375 52.4875 -17.425 53.725 -17 55 C-15.30842528 59.47397801 -13.43903709 62.17876908 -9.046875 64.328125 C-3.14217209 66.27436786 4.20542759 66.36994633 10.1484375 64.4921875 C13.56174859 62.66311363 15.37809876 60.81304207 16.75 57.25 C16.96325801 55.01928568 16.96325801 55.01928568 16.6875 52.75 C16.63464844 51.9971875 16.58179687 51.244375 16.52734375 50.46875 C15.37767442 47.18728176 13.64271598 46.13453079 10.75 44.25 C8.22678579 43.19428496 5.76816376 42.25342536 3.1875 41.375 C-18.1727416 33.69758902 -18.1727416 33.69758902 -22.5625 24.5 C-23.75286767 18.87280737 -23.15728175 14.21577713 -20.75 9 C-14.96866241 2.64052865 -8.349564 0.64227415 0 0 Z " fill="#F4E7D9" transform="translate(2055.25,192.75)"/>
<path d="M0 0 C1.98 0 3.96 0 6 0 C6 10.23 6 20.46 6 31 C18.54 31 31.08 31 44 31 C44 20.77 44 10.54 44 0 C46.31 0 48.62 0 51 0 C51 23.1 51 46.2 51 70 C48.69 70 46.38 70 44 70 C44 59.11 44 48.22 44 37 C31.46 37 18.92 37 6 37 C6 47.89 6 58.78 6 70 C4.02 70 2.04 70 0 70 C0 46.9 0 23.8 0 0 Z " fill="#F4E7D9" transform="translate(1676,194)"/>
<path d="M0 0 C14.19 0 28.38 0 43 0 C43 1.98 43 3.96 43 6 C31.12 6 19.24 6 7 6 C7 14.25 7 22.5 7 31 C17.56 31 28.12 31 39 31 C39 32.98 39 34.96 39 37 C28.44 37 17.88 37 7 37 C7 45.91 7 54.82 7 64 C18.88 64 30.76 64 43 64 C43 65.98 43 67.96 43 70 C28.81 70 14.62 70 0 70 C0 46.9 0 23.8 0 0 Z " fill="#F4E7D9" transform="translate(1588,834)"/>
<path d="M0 0 C2.31 0 4.62 0 7 0 C10.60284161 8.45184793 13.91784578 16.98066628 17.08203125 25.60546875 C17.54553393 26.86394129 18.00921649 28.1223476 18.47306824 29.38069153 C19.43343653 31.98766449 20.39208375 34.59526117 21.34936523 37.20336914 C22.57829121 40.55131755 23.81100172 43.89785763 25.04488087 47.24398327 C26.22564104 50.44718342 27.40377462 53.65134682 28.58203125 56.85546875 C29.02569534 58.05946823 29.46935944 59.26346771 29.9264679 60.50395203 C30.33076523 61.60632706 30.73506256 62.70870209 31.15161133 63.84448242 C31.50959305 64.81866623 31.86757477 65.79285004 32.23640442 66.79655457 C33 69 33 69 33 70 C30.36 70 27.72 70 25 70 C23.99619084 67.20964954 22.9968055 64.41785145 22 61.625 C21.57074219 60.43390625 21.57074219 60.43390625 21.1328125 59.21875 C20.86210937 58.45820312 20.59140625 57.69765625 20.3125 56.9140625 C20.06113281 56.2123291 19.80976563 55.5105957 19.55078125 54.78759766 C19 53 19 53 19 51 C9.1 51.33 -0.8 51.66 -11 52 C-12.93272435 57.54858587 -12.93272435 57.54858587 -14.85913086 63.09936523 C-15.10026611 63.78716064 -15.34140137 64.47495605 -15.58984375 65.18359375 C-15.95903931 66.24404907 -15.95903931 66.24404907 -16.33569336 67.32592773 C-17 69 -17 69 -18 70 C-20.33297433 70.04092937 -22.66705225 70.04241723 -25 70 C-22.93228753 62.77793624 -20.52261216 55.73300462 -17.91015625 48.69140625 C-17.52435898 47.64403793 -17.13856171 46.59666962 -16.74107361 45.51756287 C-15.51769725 42.19816212 -14.29021358 38.8802987 -13.0625 35.5625 C-12.24255698 33.34059867 -11.42289312 31.11859431 -10.60351562 28.89648438 C-9.44355697 25.75081121 -8.28324076 22.60527711 -7.12062073 19.46058655 C-4.7256473 12.98144086 -2.3543774 6.49400727 0 0 Z M3 10 C1.28902667 14.82310944 -0.41991753 19.64693102 -2.12695312 24.47143555 C-2.70842117 26.11388765 -3.2904514 27.75614083 -3.87304688 29.39819336 C-4.70849777 31.75322714 -5.54194967 34.10895991 -6.375 36.46484375 C-6.76872803 37.57266457 -6.76872803 37.57266457 -7.17041016 38.7028656 C-8.4463507 41.77967247 -8.4463507 41.77967247 -9 45 C-0.75 45 7.5 45 16 45 C14.28952019 37.30284084 12.17068402 30.36357926 9.5 23 C8.89478516 21.28490234 8.89478516 21.28490234 8.27734375 19.53515625 C7.88675781 18.45105469 7.49617188 17.36695313 7.09375 16.25 C6.73990234 15.26515625 6.38605469 14.2803125 6.02148438 13.265625 C5.21730237 10.8454965 5.21730237 10.8454965 3 10 Z " fill="#F4E7D9" transform="translate(2372,834)"/>
<path d="M0 0 C1.4540625 0.0309375 1.4540625 0.0309375 2.9375 0.0625 C6.06759181 6.84643632 8.77762054 13.74443023 11.37890625 20.74609375 C11.78785629 21.84164078 12.19680634 22.93718781 12.6181488 24.06593323 C13.47755289 26.37066097 14.3355265 28.67592257 15.19213867 30.98168945 C16.49536294 34.48752574 17.80499702 37.99092022 19.11523438 41.49414062 C19.95351273 43.74464728 20.79141586 45.99529375 21.62890625 48.24609375 C22.01647598 49.28181015 22.40404572 50.31752655 22.80335999 51.3846283 C25.08757115 57.54988446 27.13622664 63.73890394 28.9375 70.0625 C26.6275 70.0625 24.3175 70.0625 21.9375 70.0625 C21.14308928 68.18866097 20.35210026 66.31337114 19.5625 64.4375 C19.12164063 63.39335938 18.68078125 62.34921875 18.2265625 61.2734375 C17.0119533 58.24795641 15.96846127 55.1553838 14.9375 52.0625 C0.0875 51.5675 0.0875 51.5675 -15.0625 51.0625 C-16.0525 54.3625 -17.0425 57.6625 -18.0625 61.0625 C-18.7472005 62.78913604 -19.46302994 64.50501228 -20.25 66.1875 C-20.59417969 66.93257812 -20.93835937 67.67765625 -21.29296875 68.4453125 C-21.54691406 68.97898437 -21.80085938 69.51265625 -22.0625 70.0625 C-24.3725 70.0625 -26.6825 70.0625 -29.0625 70.0625 C-24.60417625 56.22178411 -19.64036315 42.58846197 -14.54711914 28.9699707 C-13.23072102 25.4484261 -11.92075382 21.92453298 -10.61132812 18.40039062 C-9.77641724 16.16131825 -8.94114478 13.92238066 -8.10546875 11.68359375 C-7.71385056 10.62965927 -7.32223236 9.57572479 -6.91874695 8.48985291 C-6.55779434 7.52696854 -6.19684174 6.56408417 -5.82495117 5.57202148 C-5.34912849 4.29777565 -5.34912849 4.29777565 -4.86369324 2.99778748 C-3.58581979 -0.08892414 -3.56194549 0.07269277 0 0 Z M-1.0625 11.0625 C-5.0225 22.2825 -8.9825 33.5025 -13.0625 45.0625 C-4.4825 45.0625 4.0975 45.0625 12.9375 45.0625 C11.55112727 41.02360231 10.16398851 36.98498442 8.77490234 32.94702148 C8.3030984 31.57478021 7.83173818 30.20238629 7.36083984 28.82983398 C6.68184626 26.85099118 6.00123103 24.87271239 5.3203125 22.89453125 C4.91184082 21.70577393 4.50336914 20.5170166 4.08251953 19.29223633 C3.09871064 16.51722399 2.05550056 13.78566201 0.9375 11.0625 C0.2775 11.0625 -0.3825 11.0625 -1.0625 11.0625 Z " fill="#F4E7D9" transform="translate(1402.0625,833.9375)"/>
<path d="M0 0 C1.4540625 0.0309375 1.4540625 0.0309375 2.9375 0.0625 C6.42684203 8.2701405 9.6773071 16.54009533 12.765625 24.90625 C13.20009949 26.07837036 13.63457397 27.25049072 14.08221436 28.45812988 C14.99089518 30.91142488 15.89837301 33.36516577 16.8046875 35.81933594 C17.96432465 38.95838198 19.12697122 42.09627469 20.29140091 45.2335434 C21.40991337 48.24866716 22.52514484 51.26500335 23.640625 54.28125 C24.05725403 55.40414429 24.47388306 56.52703857 24.90313721 57.68395996 C25.28733826 58.72604614 25.67153931 59.76813232 26.06738281 60.84179688 C26.40537903 61.75602417 26.74337524 62.67025146 27.09161377 63.61218262 C27.83011779 65.75144104 28.43290837 67.85811706 28.9375 70.0625 C26.6275 70.0625 24.3175 70.0625 21.9375 70.0625 C21.32478535 68.77486616 20.72299481 67.48203557 20.125 66.1875 C19.78855469 65.46820313 19.45210937 64.74890625 19.10546875 64.0078125 C17.43439675 59.79380485 16.24011938 55.40456459 14.9375 51.0625 C5.0375 51.0625 -4.8625 51.0625 -15.0625 51.0625 C-16.0525 54.3625 -17.0425 57.6625 -18.0625 61.0625 C-18.61419778 62.77435238 -19.17301011 64.48400603 -19.75 66.1875 C-20.00136719 66.93257813 -20.25273438 67.67765625 -20.51171875 68.4453125 C-20.69347656 68.97898437 -20.87523437 69.51265625 -21.0625 70.0625 C-23.7025 70.0625 -26.3425 70.0625 -29.0625 70.0625 C-24.15343437 55.87887093 -19.07605665 41.76149551 -13.89892578 27.67358398 C-12.66514644 24.31413362 -11.4360345 20.95299703 -10.20703125 17.59179688 C-9.42215456 15.45302239 -8.63700898 13.31434655 -7.8515625 11.17578125 C-7.48495514 10.17186844 -7.11834778 9.16795563 -6.7406311 8.13362122 C-6.40292694 7.21723373 -6.06522278 6.30084625 -5.71728516 5.35668945 C-5.42085114 4.54875443 -5.12441711 3.7408194 -4.81900024 2.90840149 C-3.57912047 -0.11697219 -3.49912082 0.07141063 0 0 Z M-1.0625 11.0625 C-2.63512273 15.42029234 -4.20152779 19.78024997 -5.76220703 24.14233398 C-6.29402998 25.62601941 -6.82754836 27.10909825 -7.36279297 28.59155273 C-8.13174592 30.72222292 -8.89457986 32.8549985 -9.65625 34.98828125 C-9.89686157 35.65088455 -10.13747314 36.31348785 -10.38537598 36.99617004 C-11.39240715 39.83313085 -12.0625 42.02576217 -12.0625 45.0625 C-3.8125 45.0625 4.4375 45.0625 12.9375 45.0625 C8.9775 33.8425 5.0175 22.6225 0.9375 11.0625 C0.2775 11.0625 -0.3825 11.0625 -1.0625 11.0625 Z " fill="#F4E7D9" transform="translate(1978.0625,193.9375)"/>
<path d="M0 0 C2.31 0 4.62 0 7 0 C12.98941216 15.65861814 18.90976294 31.34310568 24.73675537 47.06292725 C25.370517 48.77079216 26.00597462 50.47802868 26.64312744 52.18463135 C27.54160316 54.59270104 28.43372666 57.00303105 29.32421875 59.4140625 C29.59557144 60.13783081 29.86692413 60.86159912 30.14649963 61.6072998 C31.22576647 64.54776825 32 66.84058386 32 70 C29.69 70 27.38 70 25 70 C23.99394407 67.39802798 22.99497475 64.79370638 22 62.1875 C21.71382812 61.44951172 21.42765625 60.71152344 21.1328125 59.95117188 C20.86210938 59.23896484 20.59140625 58.52675781 20.3125 57.79296875 C20.06113281 57.1383667 19.80976562 56.48376465 19.55078125 55.80932617 C19 54 19 54 19 51 C9.1 51.33 -0.8 51.66 -11 52 C-12.93272435 57.54858587 -12.93272435 57.54858587 -14.85913086 63.09936523 C-15.10026611 63.78716064 -15.34140137 64.47495605 -15.58984375 65.18359375 C-15.95903931 66.24404907 -15.95903931 66.24404907 -16.33569336 67.32592773 C-17 69 -17 69 -18 70 C-20.33297433 70.04092937 -22.66705225 70.04241723 -25 70 C-23.04155901 63.22505078 -20.8461613 56.58105546 -18.41796875 49.9609375 C-18.08130692 49.03640778 -17.74464508 48.11187805 -17.39778137 47.15933228 C-16.33032871 44.2302502 -15.25890088 41.30263985 -14.1875 38.375 C-13.48087672 36.4362865 -12.77449475 34.49748502 -12.06835938 32.55859375 C-8.10335371 21.68380202 -4.08925567 10.82868419 0 0 Z M3 10 C1.28692579 14.66159688 -0.42196281 19.32469814 -2.12695312 23.98925781 C-2.70782894 25.57659518 -3.28985589 27.16351177 -3.87304688 28.75 C-4.71004806 31.02755426 -5.54292756 33.30657874 -6.375 35.5859375 C-6.76872803 36.65320572 -6.76872803 36.65320572 -7.17041016 37.74203491 C-8.53239051 41.27901015 -8.53239051 41.27901015 -9 45 C-0.75 45 7.5 45 16 45 C13.5208358 36.70955772 13.5208358 36.70955772 10.73828125 28.5546875 C10.34189453 27.45898438 9.94550781 26.36328125 9.53710938 25.234375 C9.13298828 24.12578125 8.72886719 23.0171875 8.3125 21.875 C7.89677734 20.72773438 7.48105469 19.58046875 7.05273438 18.3984375 C6.03759802 15.59806135 5.01997571 12.79861634 4 10 C3.67 10 3.34 10 3 10 Z " fill="#F4E7D9" transform="translate(1825,194)"/>
<path d="M0 0 C32.88888889 0 32.88888889 0 40.875 4.6875 C46.52879925 10.84016389 47.66585566 16.56436447 47.38671875 24.87109375 C46.6761956 30.61987196 44.68465246 34.31534754 40.625 38.375 C35.86072011 41.32431612 31.50654123 42.25264475 25.9453125 42.1953125 C24.94516113 42.19031738 23.94500977 42.18532227 22.91455078 42.18017578 C21.66399902 42.16196777 20.41344727 42.14375977 19.125 42.125 C15.12375 42.08375 11.1225 42.0425 7 42 C7 51.24 7 60.48 7 70 C4.69 70 2.38 70 0 70 C0 46.9 0 23.8 0 0 Z M7 6 C7 15.9 7 25.8 7 36 C10.650625 36.0825 14.30125 36.165 18.0625 36.25 C19.19953369 36.28641602 20.33656738 36.32283203 21.50805664 36.36035156 C27.93449079 36.43040676 31.78512935 35.83321335 37 32 C40.65008467 28.11442599 40.5024248 23.75518741 40.3515625 18.66015625 C39.85249173 14.88385411 38.56974129 12.77809869 36 10 C31.5245219 6.75527838 27.68596954 5.86739763 22.234375 5.90234375 C21.43225586 5.90484131 20.63013672 5.90733887 19.80371094 5.90991211 C18.79598633 5.91901611 17.78826172 5.92812012 16.75 5.9375 C13.5325 5.958125 10.315 5.97875 7 6 Z " fill="#F4E7D9" transform="translate(1885,194)"/>
<path d="M0 0 C5.85542504 4.01007896 9.25682586 9.47383368 10.93359375 16.32421875 C11.12109375 19.32421875 11.12109375 19.32421875 10.93359375 21.32421875 C8.62359375 21.32421875 6.31359375 21.32421875 3.93359375 21.32421875 C3.77503906 20.66035156 3.61648438 19.99648438 3.453125 19.3125 C1.69810144 12.67056 -0.16070777 8.60254286 -6.31640625 5.01171875 C-12.72488993 3.40959783 -18.4430451 3.65946601 -24.2734375 6.91796875 C-28.55794155 10.27836408 -30.98701588 15.061903 -32.06640625 20.32421875 C-32.34388168 24.52883258 -32.34383869 28.73643616 -32.37890625 32.94921875 C-32.40791016 34.08746094 -32.43691406 35.22570312 -32.46679688 36.3984375 C-32.5246203 44.14677623 -31.93745626 51.93392816 -26.58300781 58.0065918 C-21.87883979 62.11801137 -17.70941216 62.69020133 -11.703125 62.59375 C-7.53198181 62.16736647 -4.30573204 61.01742264 -1.06640625 58.32421875 C1.55506441 54.6161675 2.92268329 50.7211885 3.93359375 46.32421875 C6.24359375 46.32421875 8.55359375 46.32421875 10.93359375 46.32421875 C10.54435032 53.59009604 8.50395757 58.53310663 3.48046875 63.8671875 C-2.61662958 69.338531 -9.03572868 69.72683488 -16.87890625 69.56640625 C-24.05176228 69.02140984 -28.63017666 66.62550673 -33.52734375 61.359375 C-39.92470943 52.89991429 -40.29360429 43.96951965 -40.37890625 33.76171875 C-40.40791016 32.63185547 -40.43691406 31.50199219 -40.46679688 30.33789062 C-40.54506589 19.87994674 -38.5010835 10.67530293 -31.03125 2.984375 C-22.41871431 -4.29261837 -9.97709109 -5.21737791 0 0 Z " fill="#F4E7D9" transform="translate(1309.06640625,835.67578125)"/>
<path d="M0 0 C5.30619016 5.76100645 7.76369239 11.60519374 8.1875 19.375 C5.8775 19.375 3.5675 19.375 1.1875 19.375 C0.84138672 18.25351563 0.84138672 18.25351563 0.48828125 17.109375 C-1.90092909 9.45187803 -1.90092909 9.45187803 -7.8125 4.375 C-13.14957018 1.76852387 -18.13792418 2.14381145 -23.8125 3.375 C-29.38030874 5.79121889 -31.29124714 9.49616724 -33.83203125 14.7421875 C-37.40075704 24.32514041 -37.6014927 39.69638135 -33.8125 49.375 C-31.87552482 53.50477728 -29.86264109 56.55537768 -26.25 59.375 C-19.94225575 61.20998015 -13.57500998 61.26294964 -7.3125 59.25 C-2.07356301 55.32079726 -0.28227091 50.49904547 1.1875 44.375 C3.4975 44.375 5.8075 44.375 8.1875 44.375 C7.01631891 52.17260038 5.31994752 57.74162752 -0.75 63.125 C-8.13414434 68.55008564 -16.04262967 68.06990447 -24.8125 67.375 C-31.06814006 65.81342767 -35.38134161 61.72027643 -38.8125 56.375 C-41.75848235 50.60539239 -43.55254498 44.87387545 -43.8125 38.375 C-43.85246094 37.39660156 -43.89242188 36.41820312 -43.93359375 35.41015625 C-44.15942786 24.23801 -43.86078728 12.17760882 -36.08984375 3.4375 C-25.76604921 -6.41423236 -12.19585718 -7.04649526 0 0 Z " fill="#F4E7D9" transform="translate(1635.8125,197.625)"/>
<path d="M0 0 C14.19 0 28.38 0 43 0 C43 1.98 43 3.96 43 6 C31.12 6 19.24 6 7 6 C7 14.58 7 23.16 7 32 C17.23 32 27.46 32 38 32 C38 33.98 38 35.96 38 38 C27.77 38 17.54 38 7 38 C7 48.56 7 59.12 7 70 C4.69 70 2.38 70 0 70 C0 46.9 0 23.8 0 0 Z " fill="#F4E7D9" transform="translate(1487,834)"/>
<path d="M0 0 C17.49 0 34.98 0 53 0 C53 1.98 53 3.96 53 6 C45.41 6 37.82 6 30 6 C30 27.12 30 48.24 30 70 C27.69 70 25.38 70 23 70 C23 48.88 23 27.76 23 6 C15.41 6 7.82 6 0 6 C0 4.02 0 2.04 0 0 Z " fill="#F4E7D9" transform="translate(1929,834)"/>
<path d="M0 0 C17.16 0 34.32 0 52 0 C52 1.98 52 3.96 52 6 C44.41 6 36.82 6 29 6 C29 27.12 29 48.24 29 70 C27.02 70 25.04 70 23 70 C23 48.88 23 27.76 23 6 C15.41 6 7.82 6 0 6 C0 4.02 0 2.04 0 0 Z " fill="#F4E7D9" transform="translate(2248,834)"/>
<path d="M0 0 C0 23.1 0 46.2 0 70 C-2.31 70 -4.62 70 -7 70 C-7 49.87 -7 29.74 -7 9 C-12.28 10.98 -17.56 12.96 -23 15 C-23.66 15 -24.32 15 -25 15 C-25 13.02 -25 11.04 -25 9 C-5.54189944 0 -5.54189944 0 0 0 Z " fill="#F4E7D9" transform="translate(2177,194)"/>
<path d="M0 0 C2.31 0 4.62 0 7 0 C7 23.1 7 46.2 7 70 C4.69 70 2.38 70 0 70 C0 46.9 0 23.8 0 0 Z " fill="#F4E7D9" transform="translate(1763,194)"/>
<path d="M0 0 C1.85625 0.1546875 1.85625 0.1546875 3.75 0.3125 C2.84937895 1.69807084 1.94266158 3.07992968 1.01171875 4.4453125 C0.11226994 5.77638535 -0.75711731 7.12797971 -1.60546875 8.4921875 C-3.03969203 10.65313518 -4.3641395 12.52869783 -6.25 14.3125 C-10.125 14.8125 -10.125 14.8125 -13.25 14.3125 C-5.66277407 0.03980861 -5.66277407 0.03980861 0 0 Z " fill="#F4E7D9" transform="translate(1618.25,814.6875)"/>
</svg>
