<svg version="1.1" id="Capa_1" xmlns="http://www.w3.org/2000/svg" x="0" y="0" viewBox="0 0 800 600" style="enable-background:new 0 0 800 600" xml:space="preserve"><style>.st0{fill:none}.st1{fill:#f98b28}.st2{fill:#ff6c0e}.st3{fill:#fff}.st4{fill:#1a1a1a}</style><path class="st0" d="m602 362.6 3.3-6.6 1.3-1.4c1.8-3.7 3.4-7.5 4.7-11.4l-6.1 10.5c-1.4 3.7-2.6 7-3.2 8.9zM563 427.8c.8-1.6 1.6-3.4 2.3-5.1l-3.3 5.8c.4-.5.9-1 1-.7zM527 483.6c.6-.5 1.1-1 1.5-1.3l-6.5 6.3 2.3-1.7 2.2-1.8c-.8.8-1.6 1.5-2.5 2.2l-2.7 2c-.9.7-2 1.3-3.1 2.1l-1.8 1.2-2 1.3c1.2-.2-2.7 2.9 2.1.7 1.2-.7 2.5-1.5 3.6-2.3l1.4-1 1.1-1c1.2-1 2.4-2.2 3.4-3.5 1-1.2 2.1-2.4 3.4-4.1.7-.9 1.5-1.8 2.5-2.9s2-2.4 3.2-4c.7-1.3-1.3 3.2 3.3-3.9l1.9-3.3c.5-1.1 1-2.1 1.5-3.1.9-2 1.7-3.7 2.3-5.2.4-.9.7-1.7.9-2.4l-5.7 9.9c-3.4 5.9-7.5 11.1-12.3 15.8zm13.3-16.7s-.7 1.3-1.5 2.6l-1.5 2.6c-.7.7.5-1.3 1.1-2.6 1-1.8 1.9-3.2 1.9-2.6z"/><path class="st1" d="M564.3 173.7c.1-.1 0-.6-.5-1.8-.3-.4-.6-.9-1-1.4l-.7-.8 2.2 4z"/><path class="st0" d="m581.8 395.9-.9-.3-4 7c.3-.1.5-.4.7-.6 1.7-2.1 8.1-11.5 8.6-12.2.3-.8 0-1.6-.7-2.1l-4 6.9.3 1.3zM212.7 206.4l-.9 1.2c-.3.9-.7 1.7.9-1.2zM516.6 495.4c1.2-.6 2-1.2 2.2-1.3-.6.4-1.3.8-2 1.2l-.2.1z"/><path class="st1" d="M444 504.7h-8.7c2.9.3 5.8.3 8.7 0zM415.8 507.7c-.5 0-.3 0 0 0 .1.1.2.1.2 0h-.2zM416.5 507.5c-.2 0-.3.1-.5.2.9-.1 3.3-.1.5-.2zM475.6 96.2c1.1 0 2.3-.1 3.1-.1-1.4-.1-2.4-.3-3.3-.3-.9 0-1.8.1-2.7.4.9 0 1.9.1 2.9 0zM561.2 168.8l1.2 3.1c.9 1.1 1.7 2 1.9 1.8l-2.3-3.9-.8-1z"/><path class="st2" d="m561.5 168.8-1-1.7c.1.2.2.5.3.7s.5.7.7 1zM566.1 179.3c-.8-1.6-1.6-3.1-2.5-4.6.7 1.6 1.5 3.1 2.5 4.6z"/><path class="st3" d="M257.5 470.8c-1.1-1.8-1.1-.9-1.4-1.1 2 2.9 1.5.9 1.4 1.1zM282.3 494.6l-.6-.1 2.3 1.1c.6.3 1.1.6 1.6.8l.7.3c-.7-.3-1.4-.6-2-1l-2-1.1zM304.7 503.9c-3.2-.6-6.3-1.6-9.2-2.8l-.8-.5c-.4 0-.9-.1-1.3-.2l-1.3-.2c3.5 1.5 7 2.7 10.7 3.6 1.8.5 3.6.8 5.2 1.2s3.1.5 4.3.8c-1-.4-2-.7-3.1-.9-1.4-.3-2.9-.7-4.5-1z"/><path class="st1" d="m325.3 508.2.7.1h3.2c-1.1-.3 3.5-.2-3.9-.1zM341.2 508.1l-4.4.3c.9.2 4.8.2 3.4.4 4.4-.2 3.5-.4 1-.7zM345.3 507.5l-2.3.1c.8.1 1.6.1 2.3-.1z"/><path class="st1" d="M340.9 507.7c.4-.3-.5 0-2.6.2l4.8-.3c-.8-.3-1.6-.3-2.2.1zM334.3 507.2c-8.3.1-7.1.7 1.2.6-2.4-.2-5.5-.3-1.2-.6zM310.7 504.3l-1.4-.1-1-.1h-.1c1.7.3 5.9 1.3 5.7.9-.5-.1-1.1-.2-1.6-.4l-1.6-.3zM368.3 508.6c.3-.2-1.5-.5-1.8-.7l-3.2.2c1.7.1 4.8.2 5 .5zM366.5 507.9l4.8-.3c-4.3-.1-5 .1-4.8.3zM338.2 507.2l9.4-.6h-1.5zM384 509l4.8-.6-2.1.2zM398.9 508.5c-2 .3 2.8.6.6.8 3.3-.1 6.1-.3 8.7-.6-3.1.1-6.2.1-9.3-.2zM412.5 508.3c-1.4.1-2.8.2-4.3.4 1.4-.1 2.9-.2 4.3-.4zM379.5 507.6c1.2.4 2.5.5 3.8.5l-1.9-.5h-1.9zM379.1 507.6h.5-.5zM358.7 507c2.8-.3 8.7-.6 3-1-2 .4 1.3.6-3 1zM371.3 507.4l5.5-.4-5.1-.1c0 .1.9.3-.4.5z"/><path class="st1" d="M376.7 507h1.9l.6-.2zM403.7 507.8c2.2-.2 4.6-.2 7.4-.3-2.9-.1-5.9-.1-8.8-.1-.4.2-1.7.4 1.4.4zM392.9 507.7h.5c-.4-.1-.6-.1-.5 0zM437.9 507.6l-.4-.1-.1.1h.5z"/><path class="st1" d="M401.8 507.3c-1.6-.1-3.2 0-4.8.2 1.6 0 3.4-.1 5.3-.1.1-.1.2-.1-.5-.1zM420 508.1c-1.1-.1-2.4-.2-3.8-.3 1.2.2 2.5.3 3.8.3zM394.1 507.8h-.3c.7.1.6.1.3 0zM394.1 507.8c1.1-.1 2-.2 2.9-.3-1.3 0-2.6.1-3.7.2.3 0 .6 0 .8.1zM445.7 504.8H444c-2.9.2-5.8.2-8.7 0h-.8c-4.3.4-1.2 1.9 3 2.7.1-.2.1-.4 5.2-.7-1.8-.3-11.2-.6-7-1 6.7-.2 5.5.2 8.7.4-2.5-.5 6.1-.8 7.1-1.4h-5.8zM451.6 504.5l-5.2.3h5.3c0-.1 0-.2-.1-.3zM446.1 504.3c-.7.3-1.4.4-2.1.4h1.7c.2-.1 1.9-.3.4-.4zM427.9 507.4l-2.1.1c2.4.1 4.1.3 7.2.6 3.5-.2 4.2-.4 4.4-.6l-10.2-.1h.7z"/><path class="st1" d="M416.5 507.5c1.6-.5 6.6-.7 3.6-1.3-6.1 0-4.3.4-7.9.6 9.8-.1-2.9.3 4.3.7-2 0-3.8 0-5.4.1 1.8.1 3.5.1 5.1.2h-.2c-.4-.1-.6-.1-.1-.1h.2c.1-.1.3-.1.4-.2 2.9.2.5.2-.4.2 0 0-.1 0-.1.1l9.9-.3c-2.2-.1-4.8-.1-9.4 0zM367 504.9c.3 0 .3.1.3.1.6 0 .9-.1-.3-.1zM375.6 506.3l.3.1c.1 0 0 0-.3-.1zM366.8 505.7l.7-.1c3.1.1 6.9.6 8.1.8-1.5-.5-3-.9-4.5-1.1-1.2.2-2.4.3-3.6.2-2-.1 0-.2-.1-.4-1.5.1-5 .3-.6.6zM394 506.2l8.2-.3-4.2-.4.2.3c-4.6-.1-3.6.2-4.2.4zM437.8 508.3l4.7-.7-3.6.2zM449.2 508.2l2.8-.3-2.4-.2z"/><path class="st3" d="m562.1 169.8.7.8c-.4-.6-.8-1.2-1.3-1.8l.6 1zM561.5 168.8c-.2-.3-.5-.6-.7-1l.4 1 .9 1-.6-1zM555.7 162.6c.4 1 1.1 2.3 2 4.2l-2-4.2zM339.9 96.7l-2.8.5c4.4 0 2.5-.3 2.8-.5zM548.8 457.4c-2.1 3-3.9 5.4-4 6.4 1.7-2.5 3-4.5 4-6.4zM553.3 449.8l-.9 1.3c-1 2-2.1 3.9-3.5 6.3 1.7-2.3 3.1-4.9 4.4-7.6zM196.6 353.7l.3.7c.1.1 0-.2-.3-.7zM240.4 440.1c.4.7 1 1.7 2.1 3.6-.5-.9-1.3-2.3-2.1-3.6zM482.5 505.3c-.3.2-.6.3-.9.3.5-.1.8-.2.9-.3zM561.7 428.7l.1-.2c-.4.6-.3.5-.1.2zM492.5 505.9c-.4 0-1.1.2-2.4.4.8-.1 1.6-.2 2.4-.4zM490.1 506.5l-2 .3c-.3.2-.1.2 2-.3zM493.1 505.9c.7-.2 1.6-.4 3.2-.8-1.2.4-2.5.7-3.7.9.4-.2.6-.2.5-.1zM227.3 188.6l-.3.4c-1 2-.5 1.1.3-.4zM509.3 499.6c1.2-.8 2.5-1.5 3.8-2.2-1.3.4-2.5 1-3.5 1.8-.7.4-.6.4-.3.4zM576.8 398.7c-.2 1-.6 2-1.1 3-1.4 2-.1-1.2-2.7 3.4.3 1.2-5.4 9.3-.7 2.5-2.4 4.6-2.9 4.7-5.9 10 .9-.9.1 1.8-1.3 5.1l11.6-20.1c-.8.3 2-6.1.1-3.9zM620.1 277.1c-.7-1.1-1.3-2.2-1.8-3.4.3 1.1.8 2.3 1.2 3.9.2.8.5 1.6.8 2.6s.6 2 .9 3.2c-.2-1.5.3-4.2.9-2.1.2 3 .3 4.1.4 5.3.2 2.1.3 4.2.2 6.3 0-1.2.4-1.2.8-.4.3.6.5 1.1.6 1.7.2.8.3 1.7.3 2.6-.2-.6-1.3.4-1.5-1l.3 1.5c.2 1.1.4 2.1.5 3.2.1 1.2.3 2.4.4 3.3v1.4-.4c-.1-1.7-1.1.1-1.6 2 .2-.5 0 1.5-.5 3.9-.1.6-.2 1.2-.3 1.9s-.3 1.2-.4 1.8c-.3 1.1-.5 2.1-.6 2.8l1.2-3.8c-.6 2.6-1 4.5-1.3 6.1s-.5 3-.7 4.3c-.1.7-.2 1.3-.4 2-.1.8-.3 1.5-.6 2.2-.6 2-1.5 4-2.5 5.8.4-1.3 0-3.5-2.7 1.1-.3 1.3-1.1 4.5-2.4 8.4l4.2-7.4c10.4-18 12.7-39.5 6.3-59.3-.2.3-.4.5-.6.8-.3.2-.7.2-1.1-.3zM548.3 451.2c-.6.7-3.2 4.7-2.5 2.8-.7 1.8-1.6 3.5-2.5 5.2-3.6 4.8 3.3-6 .3-2.5.2.6-3.4 7.2-5.3 11.1 1.3-.8 5.2-8.6 7.1-12.5.3.2.2 1.1-.4 2.7l17-29.5-.2.3c-5.4 9.1-8.6 13.8-13.5 22.4zM606.7 345.5c-1.4 1.7 1.2-3.1 2-4.7l-7.3 12.2c1-.1-4.7 9.8-3.9 9.6l7-13.8c1-.1-2.5 8.8-7.6 17.5-1.5 2.1-.3-2.4-.6-2.3-1.4 3.2-3.1 6.3-4.9 9.2l1.8-3.9c-3.1 4.7-3.7 8.4-7.7 13.9-1.2 2-4.3 5.5-4.1 6.1 1.6-1.7 3.2-2.1 4.2-1.6l19.6-34c1.8-4.9 4-10.5 5.6-14.3-2.4 3.5-1.1.9-4.1 6.1zM305.4 99.1c-.5.1-1 .3-1.5.5l1.5-.5zM524 486.3l-3.7 2.9c-1.4 1-2.8 2-4.4 3.1-3.2 2.1-6.6 3.9-10.1 5.5-.9.4-1.7.8-2.6 1.1l-2.5.9c-1.5.5-3.1 1-4.6 1.4l-1.6.7-1.6.5c-.3.1-.6.2-.9.4 13.2-3.1 25.4-9.7 35.1-19.3-.8.8-1.9 1.7-3.1 2.8zM558.1 166.9c-.1-.2-.2-.5-.1-.8-.4-.5-.5-.4.1.8zM340.4 96.6h-.3c-.1 0-.2.1-.3.1l.6-.1zM575 401.1c.5-.9 1.1-1.7 1.8-2.5-.1-.1-.5.5-1.8 2.5z"/><path class="st1" d="M469.6 507.9c.1.1.8.3 0 .3l4.4-.1c-1.5 0-3-.1-4.4-.2zM424.3 504.8l.2.3c2.6 0 4.6-.2 3-.3H425c-.2-.1-.5-.1-.7 0zM425 504.7h2.5l-1-.1c-.5.1-1 .1-1.5.1zM458.3 506.1c-1 .7 2.6.5 6.3.2-.4-.5-3.5-.3-6.9-.2h.6zM453.6 506.1c-.4.3 1.3.1 3.2 0h-3.2z"/><path class="st3" d="M500.4 503.4c-1.6.4-.8.9-1.8 1-.8.6 1.9-.4 3.6-1.3s2.5-1.5-1.8.3z"/><path class="st1" d="m464.9 504.9-3.2-.2 1.3.6z"/><path class="st3" d="m488.9 503.9-2.7.4c-.7.1-1.4.2-1.9.2l-.9.1c.1.1-.6.2-1.5.4 2.4-.2 4.7-.5 7-1.1zM481.9 504.9c-1.8.2-3.5.2-4.4.4 1.5-.1 3-.2 4.4-.4z"/><path class="st1" d="M470.9 504.7h3.8l-5.5-.1z"/><path class="st3" d="m537.3 472.1 1.5-2.6c.8-1.3 1.5-2.6 1.5-2.6.1-.6-.8.7-1.9 2.7-.7 1.3-1.8 3.2-1.1 2.5zM526.1 482.7l-1.8 2.1c.7-.6 1.4-1.1 2.2-1.5l-.4-.6zM535.4 471.7c.2-.6 4-7.5.1-1.2-.1.6-3.5 5.5-.1 1.2zM581.5 394.6l-.5 1 .8.3zM581.4 394.1l-.7 1.4.3.1.5-1zM250.3 458.5l2.1 4-1.1-2.7zM255.5 465.6l-.1 1.3 2 2c-.8-1-1.4-2.1-1.9-3.3z"/><path class="st1" d="m488.9 98.6 1.6.6.4-.1c-1.1-.5-2.3-.9-3.6-1l1.6.5z"/><path class="st0" d="M606.7 345.5c-1.4 1.7 1.2-3.1 2-4.7l-7.3 12.2c1-.1-4.7 9.8-3.9 9.6l7-13.8c1-.1-2.5 8.8-7.6 17.5-1.5 2.1-.3-2.4-.6-2.3-1.4 3.2-3.1 6.3-4.9 9.2l1.8-3.9c-3.1 4.7-3.7 8.4-7.7 13.9-1.2 2-4.3 5.5-4.1 6.1 1.6-1.7 3.2-2.1 4.2-1.6l19.6-34c1.8-4.9 4-10.5 5.6-14.3-2.4 3.5-1.1.9-4.1 6.1z"/><path class="st0" d="m581.4 394.1-.8 1.3.3.1-4 7c.3-.1.5-.4.7-.6 1.7-2.1 8.1-11.5 8.6-12.2.3-.8 0-1.6-.7-2.1l-4 6.9-.1-.4zM340.4 96.6h-.3c-.1 0-.2.1-.3.1l.6-.1zM576.8 398.7c-.2 1-.6 2-1.1 3-1.4 2-.1-1.2-2.7 3.4.3 1.2-5.4 9.3-.7 2.5-2.4 4.6-2.9 4.7-5.9 10 .9-.9.1 1.8-1.3 5.1l11.6-20.1c-.8.3 2-6.1.1-3.9zM339.9 96.7l-2.8.5c4.4 0 2.5-.3 2.8-.5zM558.1 166.9c-.1-.2-.2-.5-.1-.8-.4-.5-.5-.4.1.8zM555.7 162.6c.4 1 1.1 2.3 2 4.2l-2-4.2zM602 362.6l3.3-6.6 1.3-1.4c1.8-3.7 3.4-7.5 4.7-11.4l-6.1 10.5c-1.4 3.7-2.6 7-3.2 8.9zM527 483.6c.6-.5 1.1-1 1.5-1.3l-6.5 6.3 2.3-1.7 2.2-1.8c-.8.8-1.6 1.5-2.5 2.2l-2.7 2c-.9.7-2 1.3-3.1 2.1l-1.8 1.2-2 1.3c1.2-.2-2.7 2.9 2.1.7 1.2-.7 2.5-1.5 3.6-2.3l1.4-1 1.1-1c1.2-1 2.4-2.2 3.4-3.5 1-1.2 2.1-2.4 3.4-4.1.7-.9 1.5-1.8 2.5-2.9s2-2.4 3.2-4c.7-1.3-1.3 3.2 3.3-3.9l1.9-3.3c.5-1.1 1-2.1 1.5-3.1.9-2 1.7-3.7 2.3-5.2.4-.9.7-1.7.9-2.4l-5.7 9.9c-3.4 5.9-7.5 11.1-12.3 15.8z"/><path class="st0" d="M548.3 451.2c-.6.7-3.2 4.7-2.5 2.8-.7 1.8-1.6 3.5-2.5 5.2-3.6 4.8 3.3-6 .3-2.5.2.6-3.4 7.2-5.3 11.1 1.3-.8 5.2-8.6 7.1-12.5.3.2.2 1.1-.4 2.7l17-29.5-.2.3c-5.4 9.1-8.6 13.8-13.5 22.4zM561.7 428.7l.1-.2c-.4.6-.3.5-.1.2zM575 401.1c.5-.9 1.1-1.7 1.8-2.5-.1-.1-.5.5-1.8 2.5zM563 427.8c.8-1.6 1.6-3.4 2.3-5.1l-3.3 5.8c.4-.5.9-1 1-.7zM620.1 277.1c-.7-1.1-1.3-2.2-1.8-3.4.3 1.1.8 2.3 1.2 3.9.2.8.5 1.6.8 2.6s.6 2 .9 3.2c-.2-1.5.3-4.2.9-2.1.2 3 .3 4.1.4 5.3.2 2.1.3 4.2.2 6.3 0-1.2.4-1.2.8-.4.3.6.5 1.1.6 1.7.2.8.3 1.7.3 2.6-.2-.6-1.3.4-1.5-1l.3 1.5c.2 1.1.4 2.1.5 3.2.1 1.2.3 2.4.4 3.3v1c-.1-1.7-1.1.1-1.6 2 .2-.5 0 1.5-.5 3.9-.1.6-.2 1.2-.3 1.9s-.3 1.2-.4 1.8c-.3 1.1-.5 2.1-.6 2.8l1.2-3.8c-.6 2.6-1 4.5-1.3 6.1s-.5 3-.7 4.3c-.1.7-.2 1.3-.4 2-.1.8-.3 1.5-.6 2.2-.6 2-1.5 4-2.5 5.8.4-1.3 0-3.5-2.7 1.1-.3 1.3-1.1 4.5-2.4 8.4l4.2-7.4c10.4-18 12.7-39.5 6.3-59.3-.2.3-.4.5-.6.8-.3.2-.7.2-1.1-.3z"/><path class="st1" d="M470.9 504.7h3.8l-5.5-.1z"/><path class="st0" d="M305.4 99.1c-.5.1-1 .3-1.5.5l1.5-.5zM377.6 97.8c1.6 0 3.5-.1 5.3-.1-3.7-.1-5.8-.7-5.3.1zM526.1 482.7l-1.8 2.1c.7-.6 1.4-1.1 2.2-1.5l-.4-.6zM535.4 471.7c.2-.6 4-7.5.1-1.2-.1.6-3.5 5.5-.1 1.2zM524 486.3l-3.7 2.9c-1.4 1-2.8 2-4.4 3.1-3.2 2.1-6.6 3.9-10.1 5.5-.9.4-1.7.8-2.6 1.1l-2.5.9c-1.5.5-3.1 1-4.6 1.4l-1.6.7-1.6.5c-.3.1-.6.2-.9.4 13.2-3.1 25.4-9.7 35.1-19.3-.8.8-1.9 1.7-3.1 2.8zM516.6 495.4c1.2-.6 2-1.2 2.2-1.3-.6.4-1.3.8-2 1.2l-.2.1zM509.3 499.6c1.2-.8 2.5-1.5 3.8-2.2-1.3.4-2.5 1-3.5 1.8-.7.4-.6.4-.3.4zM212.7 206.4l-.9 1.2c-.3.9-.7 1.7.9-1.2z"/><path class="st1" d="m488.9 98.6 1.6.6.4-.1c-1.1-.5-2.3-.9-3.6-1l1.6.5zM475.6 96.2c1.1 0 2.3-.1 3.1-.1-1.4-.1-2.4-.3-3.3-.3-.9 0-1.8.1-2.7.4.9 0 1.9.1 2.9 0z"/><path class="st0" d="m227.3 188.6-.3.4c-1 2-.5 1.1.3-.4zM196.6 353.7l.3.7c.1.1 0-.2-.3-.7z"/><path class="st1" d="m494.3 502.2 1.6-.7c1.6-.4 3.1-.8 4.6-1.4l2.5-.9c.9-.3 1.7-.7 2.6-1.1 3.5-1.6 6.9-3.4 10.1-5.5 1.5-1.1 3-2.1 4.4-3.1l3.7-2.9c1.2-1.1 2.3-2 3.1-2.7 4.7-4.7 8.8-9.9 12.2-15.7l5.7-9.9c.5-1.6.7-2.5.4-2.7-1.9 3.9-5.8 11.8-7.1 12.5 1.9-3.9 5.5-10.5 5.3-11.1 3-3.5-3.9 7.2-.3 2.5 1-1.7 1.8-3.4 2.5-5.2-.7 1.9 1.9-2.1 2.5-2.8 5-8.6 8.1-13.3 13.5-22.5-.3.3-.3.4.1-.2l-.1.2.2-.3 3.3-5.8c1.4-3.3 2.2-6.1 1.3-5.1 3-5.3 3.5-5.4 5.9-10-4.8 6.8.9-1.3.7-2.5 2.6-4.6 1.3-1.4 2.6-3.4.5-.9.8-2 1.1-3-.6.8-1.2 1.6-1.8 2.5 1.2-2.1 1.7-2.6 1.8-2.5 1.9-2.2-.9 4.3.1 3.9l4-7-.3-.1.8-1.3.1.5 4-6.9c-.9-.5-2.6-.1-4.2 1.6-.2-.6 2.9-4.1 4.1-6.1 4-5.5 4.6-9.2 7.7-13.9l-1.8 3.9c1.8-3 3.5-6 4.9-9.2.3 0-1 4.4.6 2.3 5.1-8.6 8.6-17.6 7.6-17.5l-7 13.8c-.8.1 4.9-9.8 3.9-9.7l7.3-12.2c-.9 1.6-3.5 6.4-2 4.7 3-5.3 1.7-2.7 4-6-1.6 3.7-3.8 9.3-5.6 14.3l6.1-10.5c1.3-3.9 2-7.1 2.4-8.4 2.7-4.6 3-2.4 2.7-1.1 1-1.8 1.9-3.8 2.5-5.8.2-.7.4-1.5.6-2.2l.4-2c.3-1.3.4-2.6.7-4.3s.7-3.5 1.3-6.1l-1.2 3.8c.1-.6.3-1.6.6-2.8.1-.6.3-1.2.4-1.8s.2-1.3.3-1.9c.5-2.4.6-4.4.5-4 .5-1.9 1.5-3.6 1.6-2v-1c-.1-.9-.2-2.1-.3-3.3s-.3-2.4-.5-3.2l-.3-1.5c.2 1.4 1.3.4 1.5 1 0-.9-.1-1.7-.3-2.6-.2-.6-.4-1.2-.7-1.7-.4-.8-.8-.8-.8.4.1-2.1 0-4.2-.2-6.3-.1-1.2-.2-2.3-.4-5.3-.6-2.1-1.1.5-.9 2.1-.4-1.2-.6-2.2-.9-3.2s-.6-1.8-.8-2.6c-.4-1.6-.9-2.8-1.2-3.9l-.1-.2c-.2-.6-.4-1.2-.6-1.7s-.5-1.1-.7-1.6c-.6-1.3-1.4-2.5-2.3-3.6l.7.6c.4.3.9.8 1.4 1.3l2 2v.5c0 .3 0 .6-.1 1l-.2 1.5.1.3c.5 1.2 1.1 2.3 1.8 3.4.4.5.8.5 1.1.2.2-.2.5-.5.6-.8-.6-1.8-1.2-3.5-1.9-5.3l-.1-.1c-.6-.9-1.3-1.8-1.9-2.8l-1-1.4c-.3-.4-.7-.9-1-1.3l-1.8-2.2-2-2.1c.6.5 1.4.8 2.2 1-1.6-.8-12-18.5-16.9-27.3l.8 1.3c1.3 1.6-2.8-6-4.8-8.9.6.7 1.2 1.6 1.6 2.5-2.7-6.2-5.7-6.8-8.3-13.1 3 5.4 4 6.3 4.2 5.8-2.8-4.2-8.4-14.6-8.2-11.9-1.4-2.9-3-5.4-2.4-5.5l-6.8-10.5c.6.8 1.3 1.3-.5-1.9 3.4 6.1 7.7 11.5 8.9 15 .7-.2-.3-2.7 2-.1-7.1-11.6-11.9-17.3-16.9-24.3l-5.5-10.6-.5-.3-.3-2.2c-.6-.7-1.1-1.4-1.6-2.2-.1-.3.2 0 .6.4-.7-1.1-1.3-2-1.7-2.5-.1.3 0 .5.1.8-.6-1.2-.5-1.3-.1-.8.2-.6 1.6.9 3.2 2.6-.1-.3-.3-.6-.4-1-3.3-4.7-7.2-10-5.1-5.3l2 4.2c-1-1.9-1.6-3.2-2-4.2l-3-6.3c-4.8-6.6-3.9-5.5-9.4-13.8 0-.6 1.5 1.5.8-.1-2.3-3.2-4.2-6.6-5.8-10.2-1.6-3.3-2.9-5.9-3.8-6.3-3.5-4.5-1.9-1.5-4.4-4.2.2.1.5.2-.1-.6l-.5-.4c-.3-.3-.7-.7-1.1-1l-1.7-1.2c-1-1.4 3 2.6-.1-1.1-.7-.7-1.5-1.3-2.2-1.9l-2.1-1.7-3.9-2.9c-1.3-.9-2.5-1.7-3.8-2.6s-2.6-1.7-4-2.6c-4.3-2.2-3.5-1.5-2.6-.7s2.1 1.7-1.5-.3c-.5-.6-1-1.1-1.7-1.6-1.4-1-3-1.8-4.6-2.4-2.6-.7-2.5-.1-6.9-1.2l.5-.7c-2.1-.5-3.9-.9-5.3-1.2s-2.2-.5-2.2-.8c-1.7-.2-3.2-.2-4.5-.3s-2.3-.3-3.2-.3c-3.3.1-2 .5.1 1 1.1.2 2.4.5 3.5.8s2.1.5 2.4.6c-1.5-.3-2.9-.5-4.3-.7s-2.6-.2-3.7-.3l-3.3-.3c-1-.1-2-.2-3-.5l2.9-.1 2-.1h.9c-12.4-1-11.8 1-17.5-.6 4.3.1 9.4-.3 6.9-.8l-6.2.4c-.7-.2 3.5-.1.7-.4-1.8.2-5.4.6-7 .8l-.4.2c-.7 0-.4-.1.4-.2l.1-.1-10.3.1c1.3 0 1.4-.3-.4-.3l-7.3.4c-.5 0-1.3.1-2.4.1l2.4-.1c2.3-.2 0-.4-3.3-.6-9.4-.2-7.5 1.7-14.9.9 1.1 0 1.2-.1 2.3-.1l-3.8-.3c-.8 1.6-22.2.2-23 1.8-5.4-.7-.4-.4 6.5-1.2l-5.7-.5c2.3-.1 4.3.1 6.8-.1-6.2-.4-12.4-.2-18.6.6-2.9-.2 2.3-1.2-5.9-.9-11.5.3 2.2 1.2-4.7 1.4l-5-.8c-8.8.6-15.4.1-22.9 0-1 0-2 .1-2.9.3h.3l-.5.1c-.4.3 1.6.5-2.8.5l2.8-.5c.1 0 .2-.1.3-.1-4-.2-8.1 0-12 .2l-5.6.3c-1.7.1-3.3.2-4.7.2 1.3-.3-3.3-.2-4-.3-.1 0-.3 0-.4.1l-1.1.3c-.9.2-2.2.5-3.5.8l-3.4 1h-.1c-.4.2-.9.3-1.5.5.5-.2 1-.3 1.5-.5 2.8-1 2.7-1.3 3.3-1.9-1.6.4-2.7.7-3.8 1.1s-1.9.7-2.9 1c1.2-.6 2.5-1.1.8-.8l-1.6.6c-1 .3-2.2.9-3.5 1.5l-1.8.8c-.6.3-1.1.6-1.5.8l-1.5.8c.6-.2 1.8-.7 2.7-1.1-2.5 1.1-7.6 3.9-11 5.8.2-.3 1.2-1.2 1.4-1.5 1.2-.5 2.4-1.1 3.6-1.8.9-.6 1.6-1.2 2.3-1.7-6.7 3.6-1.7.7-5.1 2.2-4.6 2.8-5.9 4.7-4.6 4.2-4.9 3.4-6.5 4.6-10.5 9.3l.3-1.3-1.9 2.1-1.2 1.5-.5.7.4-.6c.2-.4.5-.9.8-1.4l1.3-1.9-2.3 2.3c-.4.5-.8 1-1.1 1.5-.3.4-.6.9-.7 1.4-.2.6-.4 1.1-.8 1.6-.3.4-.6 1-1.2 1.8l-.9 1.3c-.3.5-.7 1.1-1.1 1.7l-.5-.3c-.6 1-1 1.9-1.4 2.7l-.9 2.2c-.6 1.5-1.4 2.8-2.4 4-2 4.2 4.7-6.5-.7 3-1.2 1.5-3.5 5-5.2 7.7-1.4 2.9 1.3-1.1 2.6-3.3l.3-.6-.3.6c-7.6 13.6-6.6 7.5-13.2 20.4 2.9-4.2-1.1 4.2 4.8-6.1-2.6 5.1-6.3 9.3-8.8 14.8l1.3-3.7c-1.1 1.8-2.1 4.1-2.6 5.1l-.3-.7c-2.8 6.9-7.2 11.6-8.3 16 .6-3.1-2.7 4.8-4.5 7.1 2.4-5.6 8.7-15 8.3-16.1-1.6 2.3-2.5 4.7-4.1 6.9-.8 1.6-1.3 2.5-.3.4l.3-.4c.8-1.7 2-4.2 2.2-5-5.1 7.8-6.8 12.9-9.4 17.9l4.8-8.7c.4 1.2-2.1 4-2.9 6.7-2.9 4.1-4.2 7.8-6.5 11.1.5-.9.5-1 1-2-5.4 9.4-8.2 11.3-10.4 15s-5.8 10.8-4 8.5c-1.5 3.1 7-12.6 4.9-6.6-4.3 4.6-5.9 11.3-13.5 22.5 2.5-5.4-2.4 2.6-.1-2.1-1.6 2.7-3 5.6-4.1 8.6l-1.4 1.5c-1.7 3.9-1.7 4.4-2.1 5.4-.2.5-.5 1.1-1 2.3l-1 2.2c-.6 1.1-1.1 2.3-1.5 3.5 1.4-3.9-2.6 4.3-1.6 1.3-1.3 2.8-2.2 5.8-2.8 8.9l.1-.5c-1.6 6.1-1.9 8.6-2.4 11-.2 1.2-.3 2.4-.5 4-.1.8-.1 1.7-.1 2.8 0 1.2 0 2.5.1 3.7l.2-1.1c.4 8.1 1.9 16.1 4.6 23.8l1.1 3c.4 1 .9 1.9 1.3 2.9l.6 1.4c.2.5.5.9.7 1.4l1.5 2.8c2.1 3.7 4.3 7.3 6.3 10.7l-2.4-4.5c-.1-.2-.2-.3-.2-.4 0 .1.1.3.2.4 1.2 2.2 5.6 9 7.6 13.1.3.4.4.7.3.7l-.3-.7c-.5-.9-1.5-2.3-1.9-3.1-.2.3.4 2.2 2.2 5.5l1.1 1 .5 1.5c2.9 5-.3-1.8 2.6 3.2.6 3.6 12.4 21.8 13.9 26.7 2.8 3-5.4-9.6-2.5-6.3.8 1.6 1 2.4 2.8 5.7l-.2-1.4c8.5 15.4 11.5 21.5 19.4 35l-.4-.5c2.6 5 4.2 7.5 5.9 9.4.4 1.1-1.8-2.3-.9-.3 6.2 7.8 8.9 17.5 12.8 22.2-.6 0 .2 2.3.9 4.5l6.3 10.9c13.1 22.8 37.4 36.8 63.7 36.9h121.2c.7 0 1.4-.1 2.1-.4 1.5.1-.2.3-.4.4h.6l5.2-.3c.2.1.2.2 0 .3h23.9c5.6 0 11.1-.6 16.6-1.9.3-.2.6-.3.9-.4l2-.7zm120.3-170.9c1.5-2.7 1.4-3 1.4-3.4 0-.3 0-.6.2-.9.2-.5.5-1.4 1.2-3 .7-.8.8-.6.6.2-.4 1.4-.9 2.9-1.4 4.2-.1.3-.3.9-.7 2 .2-.7.5-1.4.7-2 .2-.8-.3.3-.9 1.4s-1.4 2.3-1.1 1.5zm-79.3 139.4c3.9-6.3 0 .6-.2 1.2-3.2 4.3.2-.5.2-1.2zm-9.4 12.2.4.6c-.8.4-1.5.9-2.2 1.5l1.8-2.1zm-143.2-385c-1.7 0-3.6.1-5.3.1-.5-.7 1.6-.1 5.3-.1h1.5-1.5zm46.7-.7-.9-.7 2 .7h-1.1zm41.3 407.7-1.6-.1 5.5.2-3.9-.1zm19.6-405.5-1.6-.6-1.6-.5c1.2.1 2.5.5 3.6 1l-.4.1z"/><path class="st3" d="m435.3 96.1-2.4.1c1.2 0 1.9 0 2.4-.1zM452.8 96.2l.4-.2c-.8.1-1.1.2-.4.2zM442.2 90.7c-1.5.1-2.1.2-2.1.3 1.6-.1 2.4-.2 2.1-.3zM443 96h-.9.9zM429.6 96.9h1l-2-.7zM377.6 97.8c1.6 0 3.5-.1 5.3-.1-3.7-.1-5.8-.7-5.3.1z"/><path class="st4" d="M327.1 484.6c-21.7 0-41.7-11.6-52.6-30.4l-72.1-124.9a60.91 60.91 0 0 1 0-60.7l72.1-124.9c10.9-18.8 30.9-30.3 52.6-30.3h144.2c21.7 0 41.7 11.6 52.6 30.3L596 268.6a60.91 60.91 0 0 1 0 60.7l-72.1 124.9C513 473 493 484.5 471.3 484.6H327.1z"/><path class="st1" d="M327.1 483c-.6.2-.3.7 1.5.6l1.3-.8-2.8.2zM339.3 484.5c2.1-.4 4.6-1 3.2-1.8-2.1.8-2.6.4-4.9 1.3-1.8.1-3.2-.3-2.9-.5-.6.2-2.8-.2-3.8.3 2.8.6 5.7.6 8.5.1.6.2 0 .4-.1.6z"/><path class="st2" d="m512.8 469.6-.9.7c.3-.2.6-.4.9-.7zM570.5 376.5c-.4.7-.5 1.1-.5 1.1.4-.7.6-1.3.5-1.1zM580.6 360.7l-.6.9.6-.9z"/><path class="st1" d="m512.8 469.6 2.4-1.9c-.1-.2-1.3 1-2.4 1.9zM363.6 482.6c-.5 0-1.1.1-1.6.2l1.5-.1.1-.1zM467.7 486.3h-.9c-.3.1-.5.2-.7.3l1.6-.3zM430.7 486.5c.8 0 1.1-.6 1.5-.9-.6.3-1.2.4-1.8.5-.1 0 0 .2.3.4zM371.9 485.3l-1 .1 1-.1z"/><path class="st2" d="M494.4 482c.1.1.3.1.4.1-.1-.1-.2-.1-.4-.1zM289.7 467.6s0 .1 0 0c.1.2.2.2 0 0z"/><path class="st1" d="M327.1 484.8h-.6c-.1.1-.1.2-.1.4l.7-.4z"/><path class="st2" d="m598.4 331.5-.1.1c-.3.8 0 .4.1-.1z"/><path class="st1" d="M429 110.7c3.5.6-5.8.8-.4 1.4-.6-.2 4.8-1 .4-1.4z"/><path class="st2" d="m428.5 112.1.5.1-.5-.1zM591 254.5c0 .3.1.6.2.8 0 0 0-.2-.2-.8zM604.6 311.6c.1-.2.1-.5.2-.7.1-.4.2-.7.2-.7-.1.5-.3 1-.4 1.4zM575 228.6c-.3-.7-.6-1.3-1-1.9 0 .1.1.2.1.3.3.5.6 1 .9 1.6zM559.1 201.1c0 .2.1.4.2.6s.4.6.5.9l-.7-1.5zM239 387.1c.2.5.2 1 .3 1.5.1-.5 2.6 3.4-.3-1.5z"/><path class="st1" d="M363.6 483c.3-.2.6-.3.9-.3h-1c-.1.1-.1.2.1.3z"/><path class="st2" d="m569.8 230.1-2.4-4.4c.6 1.2 1.5 2.8 2.4 4.4zM252.7 187l-.5 1c.2-.3.4-.6.5-1z"/><path class="st1" d="M559.8 212.7c-.3-.9-.6-1.8-1-2.7-.1-.2-.3-.3-.4-.4l1.4 3.1z"/><path class="st1" d="M257.2 416.7c-2.4-4.2-1.9-1.5-2.8-2.2-3.1-4.8-.8-2.6-1.4-4.5-2-3-4.1-5-5.4-7.3 0-.2-.2-.7.3-.3-2.5-2.9-5.6-9.7-8.6-13.1-.1-.2-.1-.4-.1-.6 0 .8-.4 1.2-.7 1.2-1.1-1.9-2.5-3.2-2.4-4.2.3.6.8 1.2 1.4 1.6l-1.4-1.8c-.3-2.2 1.8 2.5 2.3 2.2-2.4-3.7-5.6-7.8-7.1-10.8.3-1 4.2 6.7 2.5 2.4l2.4 4.7c-.9-4.1 1.5 2.8.9-1.1-3.2-6.1-4.2-6.5-7.4-12.5-1.2-1.1-.3.8-1.5-.3-5.6-8-2.1-7.6-6.6-13.3-1.4-1.3-2.6-1.5-4.7-6.1l1.7 1c-3.3-5.8-3-2.6-6-9 .9.9 2.9 4.4 2.5 3.5-1.6-4.3-2-2.5-3.8-5.5l.3-1c-1.8-3-3.8-6.2-5.9-9.4-.5-.8-1.1-1.6-1.5-2.4l-1.4-2.4c-.5-.8-.9-1.7-1.3-2.5s-.8-1.7-1.2-2.6c.4.3 1.1 1.4.7-.3-2-4.5-3.2-9.4-3.6-14.3-.4-4.8-.2-9.7.7-14.4l-.1-3.5c.2-.8.6-1.4.6-.5 1-3.4-.4-.3-.3-2 .1-.7.3-1.3.7-1.8.2-.2.3 0 .2.6.7-4 1.9-7.9 3.6-11.6l1.5-3c.5-1 1.1-2 1.7-3 1.1-1.9 2.2-3.6 3.3-5l-.5 1.3c2.9-4.5 1.8-6 4.9-10l-.4.9c6.1-10 12-21.5 17.4-28.7 0-2 6.2-9.8 5.3-11.1 3.9-5.4 3.2-3.6 8.3-11.6 1.3-2.1 1.1-3.7 2.5-6.4l.7.3 1.4-4 1.9-1.5 1.3-2.6c-.6 1-1.5 2-1.6 1.7 2-4.1 6-9.3 6.4-9.3l4.8-9.6c.1.4-.7 2-1.2 3.3 2.2-5.3 1.2-.5 3.2-5.4-.5.5-.2-.6-.3-.7 2.5-3.5 4.8-7.3 6.8-11.1v1c2-3.4 4.1-7.1 6.2-10.9.5-1 1-1.9 1.6-2.8s1-1.8 1.6-2.7l1.8-2.6 2-2.4c-2.1 2.2-2.4 1.1-.8-.9l.6-.1.6-.1c.8-1.5-2 1.7-.2-1.1 2.3-2.3 2.1-1 1 .5l1.2-1.5c.6-.7 1.3-1.4 1.3-1.4.3 0-.3.7-.2 1.1.8-1.5 5.4-3.9 6.8-5.7l.3.1c2.8-2 5.7-3.7 8.7-5.2l1.9-.9c.6-.3 1.3-.5 2-.8 1.5-.6 2.9-1.1 4.5-1.6-.1-.7 2.6-1.2 4.5-2.2 1.3-.2 2.6-.3 4-.4s2.7-.2 4.2-.1c2.8 0 5.9.2 9.1.1 4.5-.3 1.3-.6 3.4-1 .3.6 6.8.6 3.4 1 7.8-.1 9.9-.1 19.7-.6-1.1-.3-2.3-.4-1.6-.6 1.8-.1 4 .3 3.8.6l-.5.1c11-.9 25.4 1.8 34.1.5l-.5.1 9.1-.7c4.2.1-2.5.5.6.8 9.8-1 15.5.2 23.5-.5 6.2 1.8 22.1-.1 30.6 1l-.5-.4c2.2-.4 2.6.2 4.2.3-.2-.3-2.4-.4-1-.6 2.3-.1 4.6-.1 7-.1 2.4 0 4.6 0 6.9.2 4.5.4 9 1.3 13.3 2.8 8.5 3 16.2 8 22.6 14.5 1.2 1.4 2.6 2.5 4.3 3.3.7.4 1.3.8 1.8 1.4.9 1.2 1.8 2.4 2.4 3.8l-.3-.3-.7-.5-1-.7c1.1 1.3 2.1 2.6 3 4 .9 1.4 1.9 3 2.8 4.5 1.8 3.1 3.6 6.1 5.3 9.2 3.5 6.2 7 12.3 10.8 18-.6-.5-1.1-1-1.5-1.7 1 2.8 5.3 9.3 5.7 9.1 1 1.9-.1.6.3 1.9 1.2 2.7 4.3 5.9 4.5 7.5 0 .3-.6-.6-.9-1.1 1.2 1.5 4.3 7.6 4 5.8 2.3 4.6 5.2 8.4 6.9 12.1 2 1.9 4.1 7.8 5.4 8-1.1.2 3.8 8.2 5.8 10.8-.8-.8 1.1 2.6.1 1.7 1.9 3.2 3.7 6 3.9 5.2 2.3 6.5 7.8 11.4 8.2 15.5 3 4.6 5.9 9.1 8.6 13.4l2 3.3c.7 1.1 1.3 2.2 1.9 3.2s1.2 2.1 1.7 3.2 1.1 2.1 1.5 3.3c-.5 0-1.6-2.4-2.7-4.6-.6-1.1-1.2-2.2-1.7-2.9s-1-1.2-1.2-1c.7 1 1.2 1.9 1.7 2.8s1.1 1.7 1.5 2.5l1.3 2.4c.4.8.8 1.6 1.1 2.4 1.6 3.5 2.7 7.3 3.1 11.2.2 2.3-.7-1.2-1-2 1 4.2 1.4 8.6 1.1 13-.2 4.1-.7 8.2-1.5 12.2 0-.6 0-1.2.1-1.7-.2.8-.4 1.6-.5 2.3s-.3 1.1 0 1.1l.3-1.5c.6-1.1.7.5.4 2.4s-.8 4.3-.7 4.5c-.2-1.5-.9.4-1.8 2s-1.7 3-1.6.6c-.2.5-.3 1-.4 1.5-.1.4-.1.7.1.7-.8 1.3-1.2 1.7-.8.1-.6 1.3-1 2.1-1.2 2.8s-.4 1.1-.6 1.5c-.5 1.4-1.1 2.7-1.9 3.9-.2-.1.3-1.1.3-1.7-1.1 3.2-2.5 6.2-4.3 9 0-.3-.4.1.3-1.1-3.8 6.7-5.5 12-10.2 19.2.4-2.7-1.7 2.3-2.7 2.3l-2 4.1 1.3-1.4c-2 3.5-3.2 6.8-5.2 9.7l1.2-2.8-3.6 6.6 2.4-3.5c-1.6 3.7 1.2.2-1.7 4.7.5-1-2 3.5-3.5 5-.8 2.2-1.9 4.3-3.2 6.2-.6.5-.5-1-1-.7-.3 2.1-4.5 8.2-5.1 10.8.3-.8-.1-1.1-.3-.9l-.3 1.7c-1.1 1.5-1.3 1.7-1.5 1.3-2.9 4.8 1.8-1-1.9 4.5.1-.4.3-.9.5-1.3-3.5 5.6-6.1 11.3-9.4 16.5-1.7 1.1 2.5-4.7.8-3.3-4.3 7.7-8.2 16.3-12.6 23.6l.9-1.3c.5 1.6-3.7 5.2-5.3 9.2.5-1 .1-1.5.1-1.2-.8 1.2-1.5 2.5-2.3 3.9s-1.5 2.6-2.3 4.1c-1.9 3.2-4.2 6.3-6.6 9.1l.5-1c-2.5 2.3-6.5 6-9.6 7.8-.7.9-2.5 1.9-1.2 1.7-5.2 2.3-9.9 4.6-14.8 6.4s-9.9 3-14.9 2.4c1.2 0 2.8-.5 1.9-.4 0 0-.5.1-1.3.1l-2.9.2-4.3.2c.7.5 1.1.3 3 .8-1.9.4-3.8.6-5.7.6 3.9-.4 0-.9-1.7-1.2.3.2-.3.4-.1.5-4.5-1-.8 1.1-6.9.4l.3-.3c-2.3.1-4.4.5-6.9.4-1-.6 2.5-.3 2.6-.8-3.5 0-6.9 1.2-10.1.6 1.5-.2 3.6-.2 5.1-.4-2.1-.5-4.3-.7-6.4-.7h.3l-5.9-.3 1.5.2c-4.4 1.6-8.9.3-14.8 1.4 5.7-1 1-.6 1.4-1.3-1.5-.2-3.8-.4-3.1-.6-2.8.6-4.7-.5-8.6.4-.2-.2-3 0-2.4-.6-3.6.2.9.4.6.7-5.6.8-13.1-1-21.2.1-6.9.5-8.2 1.2-14.6 1.6-2.2-.4 1.8-.8 1.8-.8-3.1-.3-6.3-.3-9.4 0 .7-.2 0-.4-1-.6-2.6.1-1.8.8-5.3.5.8-.4 1.7-.7 2.6-.9-3.1.2-6.2.6-9.4.9-.9-.4 2-.6 3.1-.9-3.6.2-9.4.4-10.5 1l2.3.2c-1.3 0-.7-.5.3-.7 3.1-.5 4.5.2 4.7.5l-2.3.1c2.4 1.4 9.2-.2 13.9-.1l-1.9 1 4.8-.8c1 .3 1.7.8-.6 1 3.3.5 2.9-.4 5.8.2.3.1.2.1-.1.2l3.3-.3c-.6.2.5.7-1.5.5 5.8.6 9.4-.7 11.6 0l-.5.1c8.1-.3.8-.7 6.8-1.6l4.1 1.8.8-.7c.8 0 2.5.1 2.2.4 3.1-.5-.5-.3 1.3-.8 4 .7 11.1-.3 12 .8 1.4-.5-3.8-.4.4-.8 1.2 1.2 5-.2 8.6.4-1.1.6-4.6.3-.9.9 2.2-1.1 7.1.2 10.2 0 .1-.9 6.7-.4 11.9-.6-.3.3 9.8.5 14.6.8l-.1.1c.9-.9 5.9-.7 9.5-.9-.1.5-.8.7-2.8 1h3.4c1.3-.4 2.7-.5 4.1-.5l-.9.6c4.6-.1 9.3-1 15.2-2 .1-.7-4.9-.6 1-2.4.3.3.7.8-.9 1.3.9-.4 1.9-.7 2.8-.9 0 0-.5.3-1.1.6l-1.1.5c1.3-.2 1.6-.4 1.9-.6.4-.4.9-.6 1.4-.7.1.5 1.6-.1 1.4.3-.9.2-1.8.5-2.6.8 1.2-.3 2.5-.6 3.6-.9.9-.3 1.7-.4 2.6-.5-.3-.2-.2-.5 1.4-1.3 2.1-1 2.5-1 2.7-.9s.2.3 1.5-.2c.7-.5 1.4-1 2.1-1.4.8-.5 1.4-1 1.2-1.3.6-.4 1.4-.7 2.1-.7l2.2-1.7c.9-.7 1.8-1.4 2.7-2.2.6-.5 1.2-1.1 1.8-1.7.3-.4.3-.5-.4-.2l-.5.4.3-.3c2.7-2.8 5.6-5.6 8.2-8.7 2.6-3 4.8-6.3 6.7-9.9l.2.1c2-4.1 4.9-8.9 6.1-11.9.7-1.2 2-2.5 1.9-1.9 1.2-2.7 2.7-5.3 4.4-7.7-1.4 3.2.9-.9-1.5 3.3 2.4-3.8 3.3-4.5 5.2-9-.3 1.7 2.3-2.6 3.3-4.5l-2 2.5c1.1-2.1 2.2-3.9 3.3-5.8l.1 1.4c5.5-7.5 6.9-15.3 11.9-20.6.7-2.4-2.8 4.2-2.3 1.9 2.2-3.6 5.4-6.9 6.1-8.1 3.3-4.8 1.7-5.3 5-10.4-.6.5-1.7.8.4-3.3 2.2-3.6 3.6-4 2.5-1.5-.5.9-.8 1.3-.9 1.2-.6 1.3-1.4 2.9-.3 1.6v-.6c1.3-1.7 4.2-6.8 3.9-5.4 1.4-2.9.3-1.4-1 .6 3.1-4.5 4.3-7.4 7.3-12.1-.6.7-1.3 1.2-.8.5 4.4-7 1.3-3.4 4-8.3 2-2.5.3 1.5 2.8-3.6 2-2.8 1-.3.5 1 2.1-4.7 5.1-8.1 6.7-10.6l-1.2 2.5c.7-1.5 1.3-2.6 2-3.8l-1.3 1.1c.9-1.3 1.5-2.5 1.7-2.4.5-1.6-1.4.6-.3-2.4 1.3-1.7 3-5.7 4-6-3.5 5.7 1-.2-1.7 4.7.6-1.2 1.3-2.4 2-3.5.2-.2 0 .3-.2.7 3.7-5.5.9-3 3.6-9.3.1 1 1.3-1.2 1.6-2.3-1 2.6-1.1 1-.6-1.5 1.6-4.1 1-4.7 1.6-6.9l-.7 2.5c-.2-1 .4-3 .7-6 .4-.2-.2 2.7.1 1.7 0-.9 0-1.8.2-2.7.1-.9.3-1.9.5-2.9.2-1.1.4-2.1.5-3.2.1-1.1.1-2.3 0-3.4.2-2.2.8-.2.9-2.2-.2-1.3-.4-2.3-.4-3.2v-2.5c0-2-.4-3.9-1-5.7-.2 1.7 0 1.9-1.5-1.7.2.4.3.9.4 1.4.2.8.5 1.9.8 3s.5 2.2.7 3.1c.1.4.2.8.2 1 0 .1 0 .3.1.4 0 0-.1-.4-.3-.9l-.6-2c-.3-.9-.6-1.9-1-2.8.3 1.3.6 2.8.9 4 .3 1.1.4 2.2.5 3.3-.1-.7-.3-1.4-.6-2.1-.1-.1-.1.3-.3 1 .1-.9.1-1.9-.1-2.8-.1-.9-.4-1.9-.7-2.8-.3-.9-.6-1.9-.8-2.8-.3-1-.6-2-.8-3l1.4-.3c-.3-1.6-.8-3.1-1.4-4.5-.6-1.4-1.4-2.8-2.1-4.2l-2.6-4.3c-.9-1.5-1.9-3-2.8-4.9l1.1 2.4c-1-.7-2.6-4.4-4.1-6.6.5 0-.2-1.5-.5-2.7-.2.3-3-5.2-4.2-5.4l-1.3-3.5c-3.1-5.9-5-5.9-8-11.5 1.4 1.4.2-1.3 2.7 2.3-1.1-1.9-2-3.6-2.3-3.4-.4-1.2-3.5-4.8-4.1-6.7-1-.7-1.8-1.7-2.4-2.8 0-.3.2-.1.2-.1-.2.1-2.2-3.1-1.5-1-2.1-6.3-9.3-15.8-11.1-21.3-2.5-4-5.4-8.8-7.5-12.4.3.2.2-.1.6.6-2.5-5.3-3-2.4-5.9-8.4-1-3.3 2.1 2.9 1.3.9.9-1.6-4.2-6.8-5.7-11.2l.6.9c-1.3-3.2-4.7-6.9-7.4-11.8 0 0 .3.2.2-.1-2.6-2.9-6.4-9-9.3-13.6 1.3 1.1 1.5 2 1.5.8-1.3-2-.5 1.1-3-3-.5-1.5-2.1-4.7-1.9-5.4 0 0 .2.2.4.6l.9 1.4c.6 1 1.3 2 1.3 2-.4-1.4-1.1-2.6-2-3.8-1-1.2-2-2.3-2.7-3.4h.5c-1.2-1.4-2.1-2.4-2.9-3.2s-1.6-1.4-2.3-2c-.7-.6-1.5-1.2-2.4-1.9-.5-.4-1-.8-1.5-1.3s-1.2-1-2-1.6l.4.7c-.7-.3-1.4-.8-2-1.2-.4-.3-.8-.6-1.1-1-.3-.4-.7-.7-1.1-1-.6-.5-1.3-.9-2.1-1.1l-.6-1.5c-.8-.4-1.6-.8-2.5-1.2-1-.4-2.2-1-3.5-1.4-2.5-1-5.3-1.8-7.7-2.5 2.9.2 8.4 2 11.7 3.5l-2.3-1.2c-.9-.5-2-.9-3-1.3-.9-.4-1.9-.7-2.8-1-.6-.2-1.2-.3-1.9-.4 1.2.3 2.3.6 3.4 1.1-3.4-.6-7.6-1.7-12.9-2.7.6-.8-2.8-1.6-7-2s-8.8-.2-10.8-.9c-9.4.7-18.6-.3-29.6-.2 3.9 1.4-3.2 0-2.5 1.5-1.3.1-2.5.1-3.8 0l-7.7-.9c-1.8-.4 2.4-.3 2.2-.7-5.6-.1-2.3-.6-6-1 .8.5-1.9.8-5.1.6l4.5.7c-7.8.8-6.8-1.2-14.6-.5l2.5-.4c-4 .3-14.9 0-18.9 1.2-.7-.2-1.6-.6.1-.7-9.6-.2-21.5 1.2-29 .5l.7-.4c-1.8.1-3.1.7-5.4.3.1-.2.7-.3-.1-.4-2.4.3-4.8.5-7.2.4l2-.4c-3.9-.2-7.8-.1-11.7.3l-5.1.5-2.7.2c-.9.1-1.9.2-2.9.2 0-.3-.5-.5-1.3-.6-1-.1-2.1-.2-3.1-.1-1.3 0-2.6.1-3.8.3-1.3.1-2.5.4-3.4.5l.1-.2c-5.1 1.1-9.9 3.1-14.4 5.7-4.2 2.5-8.2 5.4-11.7 8.8-2.9 1.7-7.1 5.4-10.7 10.4-.9 1.2-1.8 2.5-2.6 3.8l-1.3 2-1.1 1.9c-1.5 2.5-3 4.9-4.4 7 .9-1.3.6.6-.2 2.2-1.4 1.9-2.7 6-3.3 5.3l.4-.7c-1.7 1.1-3.9 5.4-5.9 8.7l.8 1.2c-6.6 7.7-12.5 23-16.6 26.9-.9 2.2-2.4 4.8-3.4 7l-.5-.4c-3.5 5.7-5.2 8.5-9.2 15.8l.4-1.7c-2.4 4-1.3 6-3.4 9.8l-1.5.6c-4 7-8.9 13.7-12.1 21.1-.1-.2-.2-.5.4-1.7-1.9 3.3-8 12.4-6.1 11.9-.8-.4-4.3 7.2-6.1 11.2l-.2-1c-.5 1.9-.8 2.9-1.1 4-.1.6-.3 1.2-.6 2s-.7 1.7-1 3-.9.9-.1-.7c-1.8 3.8-.6 3.3-2.3 8v-1l.1-1c-.3.8-.5 1.6-.6 2.4-.1.5-.2.9-.2 1.4-.1.8-.1 1.7 0 2.5-.3 2.7-1.1 8-1.7 8.7.3.6.4 1.3.5 2 .2 1.1.3 2.3.2 3.5-.2.4-.4-.6-.5-1-.1 2.9.3 5.8 1 8.6.2 1.2.6 2.3.9 3.4.1.5.3 1.1.4 1.7.1.6.3 1.1.4 1.8-.2.2-.2.5-.1.9-.4-1.4-.8-2.7-1.1-3.9s-.6-2.3-.7-3.2c-.3-1.8-.4-2.8-.4-2.6-.6.1.1 4.8-1.4 1.2.5 1.9 1.4 4.3 2.3 6.8.5 1.2 1 2.5 1.5 3.7.5 1.1.9 2.3 1.3 3.5v.6l-.3-.4c.3.9.8 1.8 1.3 2.6.4 1.2.9 2.3 1.6 3.5-.2.8 2.3 4.7 3.4 6.6.5-.5 1.9 2.1 1-.6.1.3-.3-.3-1-1.6-.2-.3-.4-.6-.5-.8l.1.1c-.8-1.3-1.7-2.9-2.8-4.9.6.7 1.1 1.5 1.7 2.3.6.9 1.1 1.9 1.5 2.9.9.8 2 1.7 2.5 2.2.7 3.1 3.3 8.5 3.2 9.5 3.8 5.8 8.3 13.9 11.5 17 .6.8 1 1.8 1 2.9-.7-.9-1.3-2.1-1.8-2.5 2.2 3.2 5.9 9.9 7.1 10.3 2.1 4.5-2.1-2 1.4 3.8l-.7-.7c5.4 12.2 12.7 17.6 18.5 31.2-.3-.5-.5-1.1-.6-1.6 7.7 14.9 17.9 29.6 25.1 44.5 2.1 4.2 2.8 4.4 4.8 6.6l-.1 1.3.5.6 1.2 1.3 1.8 1.8c2.5 2.5 4.1 5.1 6.3 7.7 2.4 3 5.5 5.4 8.9 7.1l-.7-1c1.7 1.1 3.5 2.2 5.4 3.1 1.8 1 3.3 1.6 2.9 1.8.8 0 1.6.3 2.2.7v.4l3.8 1.1 3.9.9c2.9.8 2.6 1.1 2.7 1.5s.4.9 4.9 1.6c.9.1 1.9.1 2.9.1s2-.1 3-.2c1.8-.2 3-.5 2.4-.6-1.4-.1-3.4-.4-3.5-.7l3-.1c.3-.5 1-1.1.7-1.6-.3-.4-.8-.7-1.3-.8-1.2-.3-2.4-.6-3.7-.8l-2.5.1h-2.5l-1.5-.8 2 .3 1.4.2c.2 0 .4.1.6.1-.9-.3-1.9-.6-2.9-.6h-2.5c-.5-.5-1.2-.8-1.9-1h-.8l-1.7-.1-1.7-.1c-.3 0-.5-.1-.8-.1-.4-.6 2.3 0-.6-1.4-2.3-.3 1.7 1.7-1.9.6-2-1.4-1.2-1.5-3.9-2.3-.2-.4.4-.3 1.4 0-1.4-.5-2.7-1-4-1.7-1-.6-2.1-1.1-3.2-1.4-.5-.5-1.1-1-1.8-1.5l-2.2-1.6c-1.3-1.1-2.4-2-1.9-2.4-.8-.4-1.6-.9-2.4-1.5-.5-.4-1.1-.8-1.6-1.2s-1-.9-1.4-1.3c1.9 1 .4-.4-1.2-2.3-.7-.9-1.4-1.9-2-2.9-.5-.8-.7-1.4-.2-1.4-.8-.6-1.6-1.3-2.2-2.2-.9-1.1-1.7-2.3-2.4-3.5-1.6-2.7-3.4-5.7-5-8 .4.3.7.7.9 1.1-.9-1.8-1.8-3.7-2.5-5.6-1 .1-3.6-4-5.5-6.1-1.2-3.8 2.1 1.5 2.3 0-.6.5-4-5.5-3.9-4-1-2.9-1-2.4-1.1-4.1-1.3.1-1.5-2.3-3.4-4.1-1.6-4 .4-1.5-2.3-5.4 0-2.9 2.5.5 2.5.5zm-57.1-96.3.9 2.1-.9-2.1zm-2.6-8.7c.3 1.3.6 2.6 1 3.9-.1.4-.4.1-.7-.8.2.4-.2-1.8-.3-3.1zm3.1 20.3c-.8-1.2-1-1.8-.9-2 .4.7.8 1.4 1.4 2.3l.1.1c-.3-.2-.5-.3-.6-.4z"/><path class="st2" d="M202.7 333.8c.1.2.2.3.4.5l-.3-.9-.4-.4.3.8zM511.7 470.5l.2-.1c-.1.1-.3.1-.4.2 0-.1.1-.1.2-.1zM247.7 196.3l-.1-.1-.3.8z"/><path class="st1" d="M462.7 483.3c-.2-.1-.4-.2-.7-.2.2.1.5.2.7.2zM440.3 483.2l-3.2-.2c1.4.1 2.4.1 3.2.2zM423 482.8c-.1.1-.3.2-.3.3l.3-.3z"/><path class="st2" d="M600 311.8c0-.2.1-.4.1-.6.3-1.5.1-.5-.1.6zM563.4 383.7c.3-.8.7-1.6 1-2.4-.7 1.2-1.3 2.2-1 2.4zM570 230.6l-.3-.5.3.5zM566.4 378c-.7 1-1.4 2.1-1.9 3.3.6-1.1 1.3-2.2 1.9-3.3z"/><path class="st1" d="M348.3 482.5h-.8s0 .1-.1.1l.9-.1zM347.3 482.6l-.9.1c.2 0 .6 0 .9-.1zM344.4 482.9l1.9-.2c-.6-.1-1.2 0-1.9.2zM371.1 482.8l.3-.2c-.2 0-.3.1-.3.2z"/><path class="st1" d="M378 482.8c-2.1-.2-4.3-.4-6.5-.4l-.2.2c1.1-.4 5.1.6 6.7.2zM407 485.8l-5.8-.2c1 .3 2.4.6-.3.7 7.3.7-1.5-.6 6.1-.5zM425 486.1c-3.1.1 0 .4-.1.5 2-.2 2.4-.3.1-.5zM535.4 437.2l.4.6c1.1-2.1-.2-.1-.4-.6zM545.2 414.1l-1.5 1.8-.1 1.3z"/><path class="st2" d="m556.3 403.5-.5 1 1.8-3.6z"/><path class="st1" d="m562.4 205.7-.3 1c1 1.3 1.9 1.2.3-1zM511 126.1c-.5-.7-1.1-1.3-1.7-1.9-.8-.6-1.6-1.2-2.5-1.6.9.7 1.7 1.4 2.5 2 .5.5 1.1 1 1.7 1.5z"/><path class="st2" d="m255.1 171.6.7-1.8-1.6 3.2z"/><path class="st1" d="M328.3 460.2c-.1-.1-.3-.2-.4-.3-.3-.2-.5-.3-.8-.4-.3-.1-.7-.3-1-.4-.4-.1-.7-.2-1.1-.2-.5 0-1.1.1-1.5.4-.3.2-.5.6-.5 1 0 .2.1.5.2.6.1.2.3.3.5.5.3.2.6.3.9.4.4.1.8.2 1.3.4s1.2.4 1.7.6c.5.2.9.4 1.3.7.3.3.6.6.8 1 .2.5.3 1 .3 1.5 0 .6-.1 1.3-.4 1.8-.2.5-.6.9-1 1.1-.5.3-1 .5-1.5.6-.6.1-1.2.2-1.8.2-1 0-1.9-.2-2.8-.5-.9-.3-1.7-.7-2.5-1.3l1.1-2.1c.2.2.4.3.6.4.3.2.7.4 1 .5.4.2.8.3 1.3.5.5.1.9.2 1.4.2 1.4 0 2-.4 2-1.3 0-.2-.1-.5-.2-.7-.2-.2-.4-.4-.6-.5-.3-.2-.7-.3-1-.4l-1.3-.4c-.5-.2-1.1-.3-1.6-.6-.4-.2-.8-.4-1.1-.7-.3-.3-.5-.6-.6-.9-.2-.4-.2-.8-.2-1.3 0-.6.1-1.2.4-1.7.2-.5.6-.9 1-1.2.4-.3.9-.6 1.5-.7.6-.2 1.2-.2 1.8-.2.8 0 1.7.2 2.4.5s1.3.6 1.9 1l-1.5 1.9zM336.8 457.1h2.2l4.6 12.7h-2.5l-1.1-3.2-4.4-.1-1.2 3.2h-2.5l4.9-12.6zm2.7 7.8-1.6-5-1.9 4.9 3.5.1zM349.3 461.8l-.1 8.1h-2.5l.2-12.6h1.9l6.4 8.4.1-8.3h2.5l-.2 12.6h-2l-6.3-8.2zM367.4 463.8c0-.8.2-1.6.5-2.3.3-.7.7-1.4 1.3-2 .6-.6 1.2-1.1 2-1.4.8-.4 1.7-.5 2.6-.5 1.1 0 2.1.3 3 .8.8.5 1.4 1.2 1.9 2l-1.9 1.3c-.1-.3-.3-.6-.6-.9-.2-.2-.5-.4-.8-.6-.3-.1-.5-.3-.8-.3-.3-.1-.6-.1-.9-.1-.6 0-1.1.1-1.6.4-.4.2-.8.6-1.1 1-.3.4-.6.8-.7 1.3-.2.5-.2 1-.3 1.5 0 .5.1 1.1.2 1.6.2.5.4 1 .7 1.4.3.4.7.8 1.2 1 .5.2 1 .4 1.5.4.3 0 .6 0 .9-.1l.9-.3c.3-.2.6-.3.8-.6.2-.3.4-.5.6-.9l2 1.2c-.2.5-.5.9-.9 1.2-.4.4-.8.7-1.3.9-.5.2-1 .4-1.5.5-.5.1-1 .2-1.6.2-.9 0-1.7-.2-2.5-.6-.7-.4-1.4-.9-1.9-1.5s-.9-1.3-1.2-2.1c-.3-.9-.5-1.7-.5-2.5zM382.1 470.5l.2-12.6 5.6.1c.6 0 1.1.1 1.6.4.5.2.9.6 1.3 1s.6.9.8 1.4c.2.5.3 1 .3 1.5 0 .8-.2 1.6-.6 2.2-.4.6-1 1.1-1.7 1.4l2.8 4.8h-2.8l-2.5-4.3h-2.4l-.1 4.2-2.5-.1zm2.5-6.4h3.1c.2 0 .4-.1.6-.1.2-.1.4-.3.5-.4.2-.2.3-.4.4-.6.1-.3.1-.5.1-.8 0-.3 0-.6-.1-.8-.1-.2-.2-.5-.4-.6-.2-.2-.3-.3-.5-.4-.2-.1-.4-.2-.6-.2h-3l-.1 3.9zM395.6 470.7l.2-12.6h2.5l-.2 12.6h-2.5zM410.2 461.6c-.1-.1-.3-.2-.5-.3-.3-.2-.5-.3-.8-.4-.3-.1-.7-.3-1-.4-.4-.1-.7-.2-1.1-.2-.5 0-1.1.1-1.5.4-.3.2-.5.6-.5 1 0 .2 0 .5.2.6.1.2.3.4.5.5.3.2.6.3.9.4.4.1.8.2 1.3.4s1.2.4 1.7.6c.5.2.9.4 1.3.7.3.3.6.6.8 1 .2.5.3 1 .3 1.5 0 .6-.1 1.2-.4 1.7-.3.5-.6.9-1 1.1-.5.3-1 .5-1.5.6-.6.1-1.2.2-1.8.2-1 0-1.9-.2-2.8-.5-.9-.3-1.7-.7-2.5-1.3l1.1-2.1c.2.2.4.3.6.4.3.2.7.4 1 .5.4.2.8.3 1.3.5.5.1.9.2 1.4.2 1.4 0 2-.4 2-1.3 0-.3-.1-.5-.2-.7-.2-.2-.4-.4-.6-.5-.3-.2-.7-.3-1-.4l-1.4-.4c-.5-.2-1.1-.3-1.6-.6-.4-.2-.8-.4-1.1-.7-.3-.3-.5-.6-.6-.9-.1-.4-.2-.8-.2-1.3 0-.6.1-1.2.4-1.7.2-.5.6-.9 1-1.2.4-.3.9-.6 1.5-.7.6-.2 1.2-.2 1.8-.2.8 0 1.7.2 2.4.5s1.3.6 1.9 1l-1.3 2zM424.7 460.7l-4-.1-.2 10.5h-2.4l.2-10.5-4-.1v-2.1l10.5.2-.1 2.1zM432.6 471.4c-.9 0-1.7-.2-2.5-.6-.7-.4-1.4-.9-1.9-1.5-1.1-1.2-1.6-2.8-1.6-4.5 0-.8.2-1.6.5-2.4.3-.7.8-1.4 1.3-2 .6-.6 1.2-1.1 2-1.4.8-.3 1.6-.5 2.5-.5.9 0 1.7.2 2.5.6.7.4 1.3.9 1.9 1.5.5.6.9 1.3 1.2 2.1.3.8.4 1.5.4 2.4 0 .8-.2 1.6-.5 2.4-.3.7-.8 1.4-1.3 2-.6.6-1.3 1-2 1.4-.8.3-1.6.5-2.5.5zm-3.5-6.5c0 .5.1 1.1.2 1.6s.4 1 .7 1.4c.3.4.7.7 1.1 1 .5.2 1 .4 1.5.4s1.1-.1 1.6-.3c.5-.2.9-.6 1.2-1 .3-.4.6-.9.7-1.4.3-1 .3-2.1 0-3.1-.1-.5-.4-1-.7-1.4-.3-.4-.7-.8-1.1-1-.5-.2-1-.4-1.5-.4s-1.1.1-1.6.3c-.5.2-.9.5-1.2.9-.3.4-.6.9-.7 1.3-.2.7-.2 1.2-.2 1.7zm4.5-7.3-1.5-.5 1-2.1h2.2l-1.7 2.6zM452.6 468.4c0 .5-.1 1-.3 1.4-.2.4-.5.7-.9 1-.4.3-.8.5-1.3.6-.5.1-1 .2-1.6.2l-6.1-.1.2-12.6 6.7.1c.4 0 .8.1 1.2.3.3.2.6.4.9.8.2.3.4.6.6 1 .1.4.2.8.2 1.2 0 .6-.2 1.2-.5 1.7s-.8.9-1.4 1.2c.7.2 1.3.6 1.7 1.2.5.5.7 1.2.6 2zm-2.4-.5c0-.2 0-.4-.1-.6-.1-.2-.2-.4-.3-.5-.1-.2-.3-.3-.5-.4-.2-.1-.4-.1-.6-.1l-3.8-.1v3.3l3.6.1c.2 0 .4 0 .6-.1.2-.1.4-.2.5-.3.2-.1.3-.3.4-.5.1-.4.2-.6.2-.8zm-5.1-6.9v3.2h3.3c.4 0 .8-.1 1.1-.4.6-.7.6-1.6.1-2.3-.2-.3-.6-.5-1-.4l-3.5-.1zM459.8 459.2h2.2l4.6 12.7h-2.5l-1.1-3.1-4.4-.1-1.2 3.1h-2.5l4.9-12.6zm2.7 7.7-1.7-5-1.9 4.9 3.6.1zM469.7 471.9l.2-12.6h2.5l-.1 10.5 6.4.1v2.1l-9-.1zM297.3 184.3c-.1-.2-.3-.4-.4-.5l-.3-.6c-.1-.2-.2-.4-.1-.7.1-.4.2-.8.4-1.1.2-.5.5-.9.9-1.2v-.2l.1-.2.2-.5c.2-.2.3-.5.4-.8.1-.3.2-.5.5-.6.1-.6.3-1.1.6-1.6s.5-1 .6-1.6c.2-.6.4-1.5.6-2.6.2-.9.5-1.8 1.1-2.6v-.4c0 .1.1.1.1.1v-.1l-.1-.1v-.2c0-.3.1-.6.2-.8l.1-.3c0-.2.1-.5.2-.7.1-.2.2-.5.3-.7l.3-1 .7-3.4.5-2.2.5-1.2v-.2l.3-1.3.1-.1v-.6c-.1-.3-.1-.7 0-1 0-.6.1-1.1.2-1.7.1-.7.3-1.5.5-2.4s.5-1.7.8-2.6c.3-.8.6-1.5.9-2.2.1-.4.1-.7.1-1.1l.8-2.1.6-1.5.1.1.4-.5c.2 0 .4-.1.5-.3.2-.2.3-.4.5-.6l.5-.5c.2-.1.4-.1.5 0 .1-.4.2-.6.4-.6.1 0 .3-.1.5-.4s.5-.4.7-.3.2.5.1 1c.1.1.1.2.1.3 0 .3 0 .6.1.9l-.3 1.2c-.1.6-.3 1.1-.5 1.7s-.3 1.1-.5 1.6c-.3 1.1-.6 2.2-.8 3.3-.2 1.1-.4 2.2-.6 3.2l.1 1.5c0 .3.1.4.1.5l-.1.6c0 .3 0 .7-.1 1-.1.3-.1.6-.2.9-.1.2-.2.3-.2.5-.1.1-.1.2-.3.2 0 .4-.1.6-.3.7 0 .2 0 .5-.2.6v1.1c0 .3 0 .7-.1 1.1-.1.3-.1.6-.1.9 0 .4-.2.5-.5.2-.1.5-.3 1-.5 1.4-.2.4-.3.9-.4 1.3 0 .7-.2 1.5-.5 2.1-.3.6-.5 1.3-.7 1.9-.3.9-.6 2-1 3.4-.3 1.1-.7 2.2-1.1 3.3l3.1-1.2c.2-.1.5-.2.7-.3.3-.1.5-.2.7-.4h.1l-.1.2h.1v-.1l.5-.1c.1 0 .3-.1.4-.2.2-.2.4-.3.5-.3.2 0 .4 0 .6-.1.1-.1.1-.1.2 0 0 .1.1.1.1.2h.3l.6-.6.5.1c0-.1 0-.2.3-.1.2-.1.4-.3.6-.3l.7-.2 1.4-.4c-.1.2-.2.3-.3.4h.1c.2-.1.3-.2.3-.4l1.2-.1c.4 0 .8-.2 1.2-.3.2-.2.5-.2.8 0 .2.2.4.1.6-.2.1-.2.4-.3.7-.3.3 0 .5 0 .7-.2h1c.2-.1.4-.1.7-.1s.4-.1.7-.1c.2 0 .5 0 .7-.1.2 0 .4-.1.6-.2h.3c.2 0 .4.1.6.1.2 0 .4 0 .6-.1.3-.1.6-.1.9 0h.8c0-.1.1-.1.3-.1s.2 0 .3-.1h.4l.4.1c.1 0 .2 0 .4.1v.1c-.1 0-.1.1-.2.1s-.1.1 0 .1c-.2.3-.1.4.3.4l.5-.1c.2 0 .3 0 .4-.2s.2-.1.4 0c.4-.1.9-.1 1.3 0l.7.1h.7c.2 0 .3.1.5.2.2-.1.5-.1.8-.1l.7.1 1.4.6c.2-.2.5-.2.8-.1.2.1.5.2.8.3l1 .4c.2 0 .3.1.5.2.1 0 .2 0 .2.1l.2.2.4.3c.4.1.8.3 1.2.6.2 0 .4.2.5.4.1.1.2.1.3.2l.2.2c.1-.1.2-.1.4.1s.3.2.4.1c.1.2.3.4.4.5.2.1.4.3.6.5-.2 0-.3 0-.5-.1-.1 0-.3-.1-.4-.2l-.3-.3-.3-.3-.8-.3-.6-.5-1-.4c-.4-.1-.7-.2-1-.4-.2 0-.4-.1-.5-.1-.2 0-.3-.1-.5-.2l-.2-.1h-.6l-.5-.1c-.4-.1-.7-.1-1.1 0l.3.3c.2.1.3.2.4.3-.4 0-.7 0-1-.1-.3 0-.7-.1-1-.1-.1-.1-.3-.1-.4 0-.1.1-.3.1-.4 0-.3.1-.5.1-.8.1-.3 0-.6-.1-.9-.1-.2.1-.5.2-.8.1l-.9-.1c-.3.1-.7.1-1 .1-.1-.1-.3-.1-.4 0-.2.1-.3.1-.5 0l-.3-.1h-.3c-.1.1-.2.1-.4.1s-.3 0-.4.1c-.2-.1-.4-.1-.5 0-.2.1-.4.1-.6.1.1.2.2.2.4.2.1 0 .3 0 .4.1v-.1c.1.1.2.1.3 0 .1-.1.2-.1.2-.1h.2l.2.1-.2-.2c.2-.1.4-.1.6 0 .2.1.4.1.5 0 .1 0 .2 0 .3-.1.1-.1.2-.1.3-.1.1 0 .2 0 .3.1.1.1.2.1.3.2-.2.2-.6.3-.9.3l-1-.1c-.3.2-.6.3-1 .3s-.7 0-1.1.1l-.2-.1c0 .1 0 .2-.3.1.1.2 0 .4-.2.6-.2.1-.3.3-.3.5h-.2c-.3.1-.6.1-.8-.1h-.7c-.2 0-.3.1-.2.2.1.2 0 .2-.2.2-.1-.1-.2-.2-.4-.3-.1 0-.3-.1-.4-.2h-.2c-.3 0-.6 0-.9.1v-.1.1h.1v.2c-.2 0-.4.2-.5.4l-.1.3-.4-.1-.2.1h-1.1v-.2.2h-.1.1l.2.3c-.3 0-.6.1-.8.1h-.4c-.1-.1-.3-.1-.4-.1-.1 0-.3-.1-.3-.2v.1s-.1 0 0 .1c-.1.1-.1.2 0 .3 0 .1 0 .2-.2.3l-.4-.2h-.4c0 .1-.1.2-.2.2s-.2-.1-.2-.2l-.5.2v-.2c-.1 0-.1-.1 0-.2s0-.1-.3.1l-.2.2c-.1.1-.2.1-.3.2-.1 0-.2 0-.2.1s-.1.1-.2.1c0-.1 0-.2-.1-.1h-.3c-.1 0-.2 0-.3-.1v-.1c-.1 0-.2.1-.2.2s-.1.2-.2.2-.2.1-.3.1c-.1.1-.2.1-.3 0l-.3.1c-.3 0-.6.1-.8.4-.1.3-.4.4-.6.4-.2 0-.3.1-.2.2 0 .1 0 .2-.2.2s-.2 0-.2-.1c-.3-.1-.7-.1-1 0-.3.1-.7.1-1 0-.1-.1-.4-.1-.5 0-.1.1-.3.2-.5.2 0 .2-.1.3-.3.3-.1 0-.2 0-.3.1 0 .1-.1.2-.2.2l-.2.2c-.1.1-.2.1-.3.1-.1.2-.3.3-.6.4l-.6.3v.1l-.3.4-.4.3h-.1c-.1 0-.2.1-.3.1-.1 0-.2.1-.3.1-.1-.2-.3-.2-.6-.1l.1.4-.6.3-.5.2c0-.2-.2-.3-.4-.3h-.2c.1.1.1.1 0 .2s-.1.1 0 .2h-.1l.1.1h-.1c-.3.2-.7.3-1 .4h-.4c-.1.3-.3.5-.5.4-.2-.1-.4 0-.6.1-.1.2-.1.3-.2.5s-.2.4-.4.5c-.1-.1-.3-.1-.4-.1-.5.8-.7.9-.9.9zm0 0c.2-.3.3-.4.3-.5 0-.1 0-.2-.1-.3 0 .2-.1.5-.2.8zm1.6-2.1c-.1.3-.1.4 0 .4s.2-.1.3-.1l-.2.5.2-.4h.2c-.1-.3-.1-.6.1-.8v-.1c-.3.1-.5.3-.6.5zm10.8-23.3c-.1 0-.2.2-.3.4l.3-.4zm3.1 18.6.1-.3c0 .1-.1.2-.1.3zm8-1.9c.1.1.1.1.2-.1l-.2.1zm5.5-1.7.2.1-.2-.1zm14-1.3s0 .2-.1.3l.1-.3z"/><path class="st1" d="M331.3 146.6c.4-.2.7-.1.9.1.2.2.2.5.2.8.1.1.2.2.1.3v-.1c0 .2 0 .4.1.6l-.1 1.1-.7 2c-.1.3-.3.7-.3 1 0 .2-.1.4-.1.6l-.1.5-.1.5-.3 1.6v.5l-.1.3c-.1.2-.2.4-.2.6l-.3.5c0 .2.1.3.1.5 0 .1 0 .3-.1.4v-.1V158.6c-.1.1-.2.3-.3.5v.5c0 .2 0 .4.1.6v.7c.1.2.2.4.1.5-.1.1-.2.2-.2.4 0 .1 0 .2.1.2v.4c.1.2.1.4 0 .5v-.1c0 .1 0 .3.1.4l.1.3.3.7.1-.1h.5l.2.1h.1s0-.1.2-.2c.1-.1.2-.3.3-.4l.3-.6.5-.9.2-.3.3-.4v-.4l.3-.4c0-.3.1-.5.1-.6 0-.1.1-.3.1-.4l.2-.4.1-.3.1-.4.6-.6h.1c.4.1.5.3.4.6 0 .3 0 .4.2.5v.1l-.3.6-.2.5c.1.2 0 .5-.2.6h.1l-.2.9v-.1.5l-.2.3v-.1c0 .2.1.4.1.6v.4c0 .2-.1.4-.2.5 0 .2-.1.5-.2.7l-.1.3v.1c.1 0 .3 0 .4.1.1.4-.1.9-.4 1.1-.1 0-.2.1-.2.2-.1.1-.2.2-.4.3-.2.1-.4.3-.6.4l-.5.4c-.2.1-.3.3-.5.3l-.5.2c-.4.2-.9.3-1.4.2-.1 0-.2 0-.3-.1-.4 0-.8-.1-1.1-.4l-.7-.6-.7-.8-.3-.4-.3-.4v.1l-.4-.3c-.1-.1-.2-.2-.2-.3v-1.7s0-.1-.1-.1l-.1-.1-.3.4-.2.2-.4.5h.1c-.1.1-.2.3-.3.5-.2.3-.5.6-.8.8v-.1c-.1.2-.2.5-.4.6l-.6.7-.1.3-.5.6v-.1c-.1.4-.3.8-.5 1.1-.1.3-.3.6-.6.8-.4.4-.7.8-.8 1.3H320.1c-.1 0-.3 0-.4-.1h.1l-.4-.1-.4-.1c-.3-.1-.5-.2-.7-.5-.4-.3-.7-.6-1-.9-.4-.4-.7-.9-1-1.3-.3-.5-.6-1-.8-1.6l-.2-.7s0-.1-.1-.1l-.1-.1-.1-.4v-.4c0-.6 0-1.1.1-1.7l.1-2c0-.3-.1-.7-.1-1.1 0-.4 0-.7.2-1.1l.1-.4.6-1.1v.1c0-.4.2-.8.4-1.1.2-.3.4-.5.6-.8l.6-.6c.2-.2.3-.4.4-.6l.5-1.4.6-.5h-.1c.1-.1.2-.3.3-.4.1-.2.3-.3.4-.4l.5-.4h-.1c.2-.1.3-.3.4-.5.1-.2.3-.4.4-.5l.9-.6.5-.3c.2-.2.4-.3.6-.4l.9-.3s.1 0 .1-.1l.1-.1.6-.3c.2-.1.4-.1.6-.1l.9.1v.1c0 .1.2.1.5.1l.7.4h.2l.6-.8.6-.3c.1.1.3.1.4 0 .1-.1.2-.2.3-.2.1-.1.3-.2.5-.3h.7c.1-.1.3-.2.4-.3.2.3.3.3.3.2zm-4.8 6-1.4.8-.2.2c-.3.2-.5.4-.7.6-.2.2-.5.5-.7.8l-.5.6-1.1 1.8-.4.6-.3.7-.5.8v-.1V159.7c0 .1-.1.1-.2.1l-.3.4c.1.4 0 .7-.1 1.1h-.1l-.2.2h.1c-.1.2-.1.4-.1.7v1l.1.4v.4h.2l.6-.6 1.1-1.2 1.1-1.3.4-.3c.2-.1.2-.1.1 0l.5-.5.7-.8h-.1l1.2-1.6c-.1-.3-.1-.7 0-1V156.4l.2-.9c0-.2 0-.5.1-.7 0-.2.1-.3.3-.4.3-.2.4-.4.4-.6 0-.2 0-.5-.1-.7l-.1-.5z"/><path class="st4" d="m306.8 307.4 5.1.3.9 3.2-4.7 1.3 4.4 3.9c-.9 5.9-8.6 10.8-23.1 14.7l-10.6 4.5-.3 5.1 1.6-.4c-1.1 8.3 1.6 43.7 8.1 106l10.2 19.2-1.6.4c-2.3.6-5.9-4.1-10.5-14.1l-2.6-16.2-.4-1.6-1.6.4.9 3.2c-3.2.8-4.5 2.3-3.9 4.4l.4 1.6 9.9 24.3.4 1.6-3.1.9-7.6-3-1.1 2-1.6.4c-6.7-8-10.9-15.3-12.6-22l2 1.2 1.6-.4-6.1-10.2 4.3-2.9-2.1-7.9-3.1.8-.4-1.6c3.2-.9 4.5-2.3 3.9-4.4l-.4-1.6-3.1.8c-2.3-8.4-1.8-13 1.4-13.9l-5.5-20.5c1.3-1.9.4-13.5-2.6-34.8l-10.6 4.5-22.5 4.3-.4-1.6 7.5-3.7.4 1.6 1.2-2 23.6-6.3-1.3-4.7-24.4 9.9-2-1.2-1.6.4-9 4.1-5.6-1.9-.5-8.3-2-1.1c-1.4-5.3 4.2-9.6 16.8-13l83.9-25.7zM264 418.6l6.1 35.5 3.1-.9-3.7-7.5-.8-3.1 1.9-5.6-1.6.4 1.1-2-.4-1.6-2-1.2-.4-1.6 1.5-7.1-3.3-5.9-1.5.6zm34.6-104 .4 1.6 6.3-1.7-.4-1.6-6.3 1.7z"/><path class="st4" d="M286.3 475.9c-.7 0-1.5-.1-2.2-.4l-3.6-1.5c-.5.3-1 .5-1.5.6l-1.6.4c-2.2.6-4.5-.2-5.9-1.9-7.1-8.6-11.8-16.7-13.8-24.2-.4-1.4-.2-2.8.4-4.1l-2.3-3.9c-1.5-2.6-.9-5.9 1.5-7.6-.1-.1-.3-.1-.4-.2-1.3-.8-2.3-2-2.7-3.5l-.4-1.6c-.4-1.5-.2-3.1.6-4.4-.1-.3-.2-.5-.3-.8-1.3-4.9-1.8-8.8-1.5-11.8.1-2 .8-3.9 1.9-5.6l-4.5-16.9c-.3-1.3-.2-2.6.3-3.8.2-1.3.3-6.2-2-24.2l-3.6 1.5c-.4.2-.8.3-1.2.4l-22.5 4.3c-2.7.5-5.3-.9-6.4-3.4-.9.1-1.7 0-2.5-.3l-5.6-1.9c-2.2-.8-3.8-2.8-3.9-5.1l-.3-5.3c-1-.8-1.7-1.8-2-3-.8-2.9-1.1-8.4 5.2-13.3 3.4-2.6 8.5-4.9 15.6-6.8l84.2-25.9c.6-.2 1.3-.3 2-.3l5.2.3c2.5.1 4.6 1.9 5.2 4.3l.9 3.1c.4 1.5.2 3.1-.6 4.4.4 1 .6 2.1.4 3.1-1.7 11.1-16.1 16.3-26.9 19.3l-5.6 2.4c.2.7.2 1.4.1 2.2-.7 5.4.1 27.7 8 103.5l9.7 18.2c1.5 2.8.4 6.3-2.4 7.8-.4.2-.8.4-1.2.5l-1.6.4c-1.2.3-2.4.4-3.5.1-.1.3-.2.6-.4.9-.8 1.3-2 2.3-3.5 2.7l-3.1.8c-.8.4-1.3.5-1.7.5zm-11.2-17.1c.6.9 1.3 1.8 1.9 2.7 1-.3 2.1-.3 3.2 0l-2.1-5.1c-.7 1.2-1.8 2-3 2.4zm-1.5-29.2c.9.8 1.5 1.7 1.8 2.9l.4 1.6v.2c0-2.6 1.7-5 4.3-5.6l.4-.1c-5.6-54.7-6.7-75.5-6.5-84.4-.9-1.1-1.4-2.5-1.3-4l.3-5.1c.1-2.2 1.5-4.1 3.5-5l10.6-4.5c.3-.1.5-.2.8-.3 3.3-.9 6.6-1.9 9.8-3.2-.5-.1-1-.3-1.5-.6-1.3-.8-2.3-2-2.7-3.5v-.2l-69.2 21.3-.2.1c-7.3 1.9-10.4 3.8-11.8 4.9.7.9 1.2 2.1 1.3 3.2l.3 4.2 6.7-3 .9-.3 1.6-.4c1.3-.3 2.7-.2 3.9.3l21.8-8.9c3-1.2 6.3.2 7.5 3.2.1.2.2.5.2.7l1.3 4.7c.1.5.2 1.1.2 1.6.4.7.7 1.4.8 2.2 3.3 23.9 3.6 32.2 2.9 35.8l5 18.8c.4 1.5.2 3.1-.6 4.4-.5.8-1.2 1.5-2 2v.1c2.6-.7 5.3.5 6.5 2.8l3.3 5.9c.7 1.2.9 2.6.6 4l-.9 4.2zM347.9 291.7c1.5 3 6.1 3.4 13.9 1.4l27.4 51.8 11-3 .4 1.6-9 4.1.4 1.6c3.2-.9 5-.2 5.6 1.9l12.6-3.3.4 1.6c.6 2.4-4.1 5.9-14.1 10.5l5.7 8.6-.3 5.2 4.1 9-1.1 2 1.6-.4-1.2 2 6.7 18.5 2.5 9.5-2-1.2-1.6.4 11.1 22.4-3.1.8c-.9-3.1-2.3-4.5-4.4-3.9l.4 1.6 2.8 4.3-1.6.4-2-1.1-1.6.4c.8 3.2.2 5-1.9 5.6l-15.1-24.7-1.6.4 1.7 6.3-1.6.4-8.2-18.1 5.6 1.9-.4-1.6c-3.4-9.2-6.2-13.5-8.5-12.9l1.1-2-1.3-4.7-3.2.8 1.3 4.7-1.4.5-1.7-6.3 1.2-2-1.6.4-1.1 2-1.7-6.3 1.6-.4 2 1.1 1.6-.4-2-1.1-2.5-9.5-32.5 17.2.9 3.1 10.2-6.1 6.7-.1 7.5-3.7.9 3.2c-21 9.9-30.7 18.1-28.9 24.6.3 12.3-.9 20.5-3.5 24.6l.8 3.1-4.7 1.2-2-1.1-1.6.4.4 1.6-5.6-1.9.6-10.3-1.6.4c-3.1.9-3.6 5.5-1.4 13.9l-4-2.3-1-9.9-6-3.5 9.5-71.8 1.6-.4c.8 3.2 2.3 4.5 4.4 3.9l-.5-8.3-1.1 2-1.6.4-1.7-6.3-.5-8.3 2 1.1 1.6-.4-2-1.2-.4-1.6 1.5-7.2 1.6-.4 2 1.1 1.6-.4-.4-1.6c-.6-2.1-2.4-2.7-5.6-1.9l2-24.2 6.3-1.7-1.2 2 .4 1.6c5.8-5.9 12.1-9.9 18.4-11.6zm-27.5 80.1.1 6.7 1.6-.4 1.5-7.1-3.2.8zm2.6-9.2-1.1 2 .8 3.1 1.6-.4.3-5.1-1.6.4zm13.5-18.8-.2 11.9-2-1.1-1.6.4 3.3 5.9 1.6-.4.9-15.5-.4-1.6-1.6.4zm-2.4 22.6.1 6.7 1.6-.4 1.2-2-1.3-4.7-1.6.4zm14.1-35.9-3.7 36.5 3.2-.9c10.5-2.8 15.4-7.5 14.8-14.1l-12.6-22-1.7.5zm.3 38.8.4 1.6 3.2-.9c9.2-3.6 13.5-6.4 12.9-8.5l-1.6.4-14.9 7.4zm31.3 28.8 3.1-.9 2.5 9.5-1.6.4-4-9zm10.6 14.1.9 3.1 4.3-2.8-.9-3.2-4.3 2.9zm14.5-9 .8 3.2 3.3 5.9 1.6-.4-.9-3.1-3.3-5.9-1.5.3z"/><path class="st4" d="M410.7 449.7c-2 0-3.9-1-4.9-2.8l-9.3-15.2-.8.2c-2.7.7-5.6-.6-6.8-3.2l-7.5-16.4c-1.2-.6-2.2-1.6-2.8-2.8l-4.1-9c-.4-.8-.5-1.7-.5-2.5-.3-.5-.5-1-.6-1.5l-.6-2.4c-1-.6-1.9-1.6-2.4-2.7-25.4 11.9-25.6 17.8-25.6 17.8.1.4.2.9.2 1.4.3 11.9-.7 20.1-3.1 25.5l.3.9c.8 3.1-1 6.3-4.1 7.1l-4.7 1.3c-.5.1-1.1.2-1.6.2-1.5.9-3.2 1.1-4.9.5l-1.1-.4c-.4.6-.9 1.1-1.4 1.6-1.9 1.4-4.4 1.6-6.4.4l-4-2.3c-1.6-.9-2.7-2.6-2.9-4.5l-.7-6.9-3.4-2c-2-1.2-3.1-3.4-2.8-5.8l9.5-71.8c.2-1.4.9-2.7 2-3.6l-.8-2.9c-.1-.4-.2-.7-.2-1.1l-.5-8.3c-.1-1.5.4-3 1.4-4.1l1.1-5.6c-.6-1-.9-2.2-.8-3.4l2-24.2c.2-2.4 1.9-4.5 4.3-5.1l6.3-1.7c.8-.2 1.7-.3 2.5-.1 4.6-3.7 9.9-6.5 15.6-8.1 2.4-.6 4.9.3 6.3 2.3.7.1 2.8.3 7.6-1 2.6-.7 5.4.5 6.6 2.9l25.3 47.7 6.6-1.8c3.1-.8 6.3 1 7.1 4.1l.4 1.6c.1.2.1.5.1.7l2.3-.6c3.1-.8 6.3 1 7.1 4.1l.4 1.6c1.6 6-4 10.4-11.2 14.3l2.1 3.1c.7 1 1 2.3 1 3.5l-.2 3.7 3.5 7.7c.8 2.1.9 4.4.4 6.5l5.7 16c.1.1.1.3.1.5l2.5 9.5c.4 1.6.2 3.3-.8 4.7l7.8 15.9c1.4 2.9.2 6.3-2.6 7.8-.3.2-.7.3-1.1.4l-.8.2c-.8 1.3-2 2.2-3.5 2.6l-1.3.3c-1.1 2.5-3.2 4.3-5.8 4.9-.5.2-1 .3-1.5.3zm-80.9-16.9h.7c.1-.2.2-.5.4-.7.9-1.4 2.9-6.1 2.6-20.7-1-4.7.9-9.3 5.7-14.2-.9-.8-1.6-1.8-1.9-3l-.9-3.2c-.7-2.6.5-5.4 2.9-6.6l32.6-17.2c2.8-1.5 6.3-.4 7.8 2.4.2.4.4.8.5 1.2l1.9 7.1c2 1.2 3 3.4 2.8 5.6 1.5.7 2.7 2.1 3.1 3.7l1.3 4.7c.1.3.1.5.2.8 2.6 2.8 4.5 7 5.9 10.6.5.1.9.2 1.3.3 1.3.5 2.4 1.5 3.1 2.7l-.5-1.9c-.8-3.1 1-6.2 4.1-7.1l-3.4-9.5c-.1-.4-.2-.8-.3-1.3-.6-1.5-.6-3.1 0-4.5l-2.9-6.4c-.4-.9-.6-1.8-.5-2.7l.2-3.2-4.6-7c-.9-1.4-1.2-3.1-.7-4.8.4-1.3 1.2-2.5 2.4-3.2l-.1-.1c-3 .6-6-1.2-6.8-4.2l-.2-.9c-.9-.5-1.7-1.3-2.1-2.3l-25.3-47.9c-3.8.7-8.7.9-12.4-1.4-5 2.2-9.4 5.4-13.2 9.3a5.8 5.8 0 0 1-4.5 1.7l-.9 11.1c2.5 1.1 4.3 3.2 4.9 5.8l.4 1.6c.8 3.1-1 6.3-4.1 7.1l-1.2.3c2 2.5 1.7 6.1-.8 8.1-.3.3-.7.5-1.1.7v.6c2.4.6 4.1 2.5 4.4 4.9l.1-.1.1-5.9c0-2.6 1.8-4.8 4.3-5.5l1.6-.4c1.7-.5 3.5-.1 4.9.9l.9-8.8c.2-2.4 1.9-4.4 4.3-5l1.6-.4c2.5-.7 5.2.4 6.5 2.7l12.6 22c.4.7.7 1.5.8 2.3.2 1.7.1 3.4-.3 5 1.3.8 2.2 2 2.6 3.5 2.2 8.1-9.5 12.7-16.4 15.4-.2.1-.4.1-.6.2l-3.1.8c-3 .8-6-.9-7-3.8-.3-.1-.6-.1-.9-.2-.1.4-.3.8-.5 1.1l-1.1 2c-.8 1.3-2 2.3-3.5 2.7l-1.6.4c-3.1.8-6.3-1-7.1-4.1l-.9 4.6c-.4 2.1-2.1 3.9-4.2 4.4l-1.6.4c-.2.1-.5.1-.7.1l-5.2 39.7 1.4.8c.9-.7 2-1.2 3.2-1.5l1.6-.4c3.1-.8 6.3 1 7.1 4.1.2.6.2 1.2.2 1.8l-.3 4.1c0 .8.2.8.4.8zm70.5-17c.1.1.2.3.3.4l8.7 14.2c.5-1.1 1.3-2 2.4-2.6l-5.1-10.2c-1.1-.5-2-1.4-2.6-2.4l-3.3-5.9-.1-.1.5 1.9c.5 1.6.1 3.3-.8 4.7zm-47.9-69.6-1.3 12.6c4.4-1.9 5.4-3.9 5.6-5.2l-4.3-7.4z"/><path class="st4" d="m446.2 275.4 1.6-.4c15.3-4.1 28.5-.9 39.8 9.6l.4 1.6-3.1.9 2 1.1.4 1.6c-6.5.9-9.9.7-10.3-.6-24.6 6.6-39.6 24.1-45.1 52.6l-.2 11.9 12.8 28.7 4.7-1.3c13.1-3.5 25.3-16.9 36.5-40.2l1.6-.4.4 1.6c-6.9 19.1-17 32-30.2 38.5l.4 1.6 1.6-.4c11-3 22.1-16.1 33.4-39.4l6.4 5 1.3 4.7c.9 3.4-4.9 13.4-17.3 30l-1.2 2-1.6.4.8 3.1c15.5-13.5 22.8-22.2 21.7-26.1l3.1-.8.4 1.6c-9 19.3-22.1 31.3-39.4 35.9l.4 1.6 7.9-2.1 5.9-3.3 1.6-.4.4 1.6-18.1 8.1c-8 2.1-18-1.4-29.9-10.5l.4 1.6 11.3 10.5.4 1.5-4.7 1.3c-11.6-4.1-19.6-10.9-24.1-20.5l-7.1-20.1c-7.1-26.3-6.3-44.6 2.3-54.7l.4 1.6-5.2 18.3.4 1.6 1.6-.4c-2.7-10 6.7-27.7 28-53.1l-4.3 2.9-1.6.4-.4-1.6 13.5-7.1zm-26.9 25.8.4 1.6-5.8 10-.4-1.6 5.8-10zm1.3 80.8 1.3 4.7 3.3 5.9 1.6-.4-.4-1.6-4.1-9-1.7.4zm9.9-95.6 1.6-.4.4 1.6-9.8 7.7c-.5-2.2 2.1-5.1 7.8-8.9z"/><path class="st4" d="M442.8 413.9c-.7 0-1.3-.1-1.9-.3-13-4.6-22.3-12.5-27.4-23.5-.1-.2-.1-.4-.2-.5l-7-20.1c0-.1-.1-.3-.1-.4-7.2-26.7-6.6-45.6 1.6-57.6 0-1.1.2-2.1.8-3.1l5.8-10c.6-1.1 1.6-1.9 2.7-2.4-1.1-6.6 6.5-11.8 10.1-14.2.2-1.9 1.4-3.6 3.1-4.5l13.4-7c.4-.2.8-.4 1.2-.5l1.6-.4c17.3-4.6 32.5-.9 45.2 11 .8.7 1.4 1.7 1.6 2.7l.4 1.6c.4 1.5.2 3.1-.6 4.4.4 3.1-1.8 6-4.9 6.4-3.5.5-8.5 1.2-12.1 0-20.8 6.5-33.3 21.8-38.3 46.9l-.2 10.1 10.2 23c11.3-3.1 22.4-15.5 32.8-37.1.7-1.5 2.1-2.6 3.7-3.1l1.6-.4c2.1-.6 4.4.1 5.9 1.8 1.7-.4 3.4.1 4.8 1.1l6.4 5c1 .8 1.7 1.8 2 3l1.3 4.7c.4 1.4.4 2.9.1 4.3 2.6 0 4.9 1.8 5.6 4.3l.4 1.6c.4 1.3.3 2.8-.3 4-5.9 12.6-13.5 22.4-22.9 29.3.7 2.7-.6 5.6-3.2 6.8l-18.1 8.1-.9.3c-4.6 1.2-9.4 1.1-14-.2-.7 1.6-2.1 2.8-3.8 3.3l-4.7 1.2c-.7.3-1.2.4-1.7.4zm-7.3-26.4c1.3 0 2.5.4 3.5 1.2 9 6.9 16.6 10.2 22.5 9.9-.1-2.7 1.7-5.2 4.3-5.9 3.4-.9 6.7-2.2 9.9-3.8l-.8-2.8c-.4-1.5-.2-3.1.6-4.4.6-1.1 1.6-1.9 2.7-2.4.1-.2.2-.4.4-.6 13.9-18.5 15.9-24.2 16.2-25.6l-.3-1.2c-11 20.7-22 32.3-33.5 35.4l-1.6.4c-2.2.6-4.5-.1-6-1.9-.9.3-1.8.6-2.8.9l-4.7 1.3c-2.8.7-5.6-.6-6.8-3.2l-12.8-28.7c-.3-.8-.5-1.6-.5-2.4l.2-11.9c0-.3 0-.7.1-1 5.9-30.8 22.5-50 49.2-57.1.3-.1.6-.1.9-.2-8-4.6-16.9-5.5-27.1-2.8l-1 .3-3.8 2c-.2.6-.6 1.1-1 1.6-17.6 20.9-24.1 33.3-26.2 40.4l-.2.6c-1 3.5-.8 5.7-.5 6.9.8 3.1-1 6.2-4 7.1.5 8.9 2.1 17.8 4.5 26.4l3.6 10.2c2.7-.7 5.5.7 6.7 3.2l4.1 9c.1.2.2.4.2.5.1-.1.3-.2.5-.3 1.1-.8 2.3-1.2 3.5-1.1z"/><path class="st4" d="M545 246.2c12.4-3.3 25.6-2.7 37.7 1.7l-1.2 2 .4 1.6 8.8 7.8-3.2.8-2-1.1-1.6.4 14 33.4 1.6-.4c-1.4-5.3-1.1-8.2 1-8.7l1.7 6.3c1.6 5.9 0 21-4.8 45.2l1.6-.4c-4.7 12.2-13.2 24.6-25.5 37.3l-7.4 3.7-1.6.4c-25 6.7-43.4.9-55.3-17.3l-8.8-7.8 1.1-2-4.5-10.6-.9-3.1c-2.3-8.7 2-26.2 13-52.5l.4 1.6c-5 12.8-8.3 26.1-9.6 39.8l.4 1.6 1.6-.4c-.3-16.4 8.7-39.7 26.9-69.8l-9.3 9.3-1.6.4c-1.2-5 7.8-11.3 27.1-19.2zm-44.1 87.9 3.4 12.6 1.6-.4-3.4-12.6-1.6.4zm14.6-27.6-2.2 10.7 1.6-.4 2.2-10.7-1.6.4zm28.8-31.4-2-1.1.4 1.6 2 1.2-8.5 12.4c-8.7 2.3-13.2 19.3-13.4 50.9 2.3 8.4 9 14.5 20.1 18.3l1.6-.4c11.5-3.1 21.4-18.7 29.7-46.8 2.2-12.9 2.6-22 1.1-27.3l-3.4-12.6c-.8-2.9-6.6-3.6-17.5-2.1l-1.6.4-1.2 2-1.6.4-.4-1.6-5.3 4.7zm-9.2 92 .4 1.6 9.2 2.6-.4-1.6-9.2-2.6zm41.2-48.2-4.2 9.6 1.6-.4 4.2-9.6-1.6.4zm3.2-19.4-2.1 17.5 4.7-1.3 1.8-12.3-2.8-4.3-1.6.4zm11.8-31.9 3.2-.9 2.1 7.9-3.2.8-2.1-7.8zm1 35.2-.3 5.2.8 3.2 1.6-.4-.1-6.7-.4-1.6-1.6.3z"/><path class="st4" d="M545.7 384.7c-17.3 0-31-7.4-40.8-22l-8.3-7.3c-1.9-1.7-2.5-4.4-1.5-6.7l-3.4-8c-.1-.2-.2-.5-.3-.8l-.8-3.1c-2.7-10.2 1.5-28.1 13.2-56.2.9-2.3 3.3-3.7 5.7-3.5.3 0 .5.1.8.1 1.2-2.5 2.5-5 3.9-7.5-.9-.8-1.5-1.8-1.8-2.9-2.3-8.6 6.5-16.1 30.4-25.9.2-.1.5-.2.7-.2 13.6-3.6 27.9-3 41.1 1.9 1.6.6 2.9 1.8 3.5 3.4.4 1.1.5 2.3.2 3.4l6.3 5.6c1.6 1.4 2.3 3.6 1.8 5.7 0 .2-.1.4-.2.6.4.1.8.3 1.1.5 1.3.8 2.3 2 2.7 3.5l2.1 7.9c.4 1.6.1 3.4-.8 4.8 2.4.3 4.3 2 4.9 4.3l1.7 6.3c1.1 4.2 1.9 13.2-3.8 43.4.9 1.5 1.1 3.4.4 5-5 12.9-14 26.1-26.8 39.2-.5.5-1 .9-1.6 1.1l-7.5 3.7c-.3.2-.7.3-1.1.4l-1.6.4c-6.5 1.8-13.3 2.8-20.2 2.9zm-1.1-20.8 1.3.4c2 .6 3.5 2.1 4 4.1l.4 1.6c.3 1 .3 2 0 3 4.3-.4 8.6-1.2 12.8-2.3l1-.3 6.1-3c10-10.3 17.3-20.6 21.8-30.5-.3-.9-.3-1.8-.1-2.7 1.3-6.9 2.4-12.7 3.2-17.6l-.8.2c-2.3.6-4.7-.2-6.1-2.1l-.3 1.9c-.3 2.3-2 4.2-4.2 4.8l-.8.2-3.9 9c-.7 1.6-2.1 2.8-3.8 3.3l-1.6.4c-.5.1-1 .2-1.6.2-7.4 16.9-16 26.5-26 29.2l-1.4.2zm-35.5-12.8 4 3.5c.4.3.7.7 1 1.2 4.3 6.6 9.5 11.3 15.8 14.1l-.3-1.2c-.8-3.1 1-6.3 4.1-7.1.5-.1.9-.2 1.4-.2-9.5-4.5-15.5-11.2-17.8-19.8-.1-.5-.2-1-.2-1.5.1-6.7.3-12.7.7-18.1-.4.2-.9.4-1.3.5l-1.6.4c-2.7.7-5.6-.6-6.8-3.2-.2 1.9-.3 3.8-.3 5.7 0 1.5-.5 2.9-1.5 4 .9.8 1.5 1.8 1.9 2.9l3.4 12.6c.5 2.3-.5 4.8-2.5 6.2zm19.5-11.8c1.8 5.7 6.6 10 14.6 13 6.4-1.8 16-10.7 25.4-42.5 2.5-14.8 2-21.5 1.2-24.5l-3-11c-1.3-.2-4.2-.4-10.2.4-.8 1.2-2 2.1-3.4 2.5l-1.6.4c-.4.1-.8.2-1.3.2-.1.8-.5 1.6-.9 2.3l-8.5 12.4c-.8 1.1-1.9 2-3.3 2.3-.8.1-8.6 3.4-9 44.5zm-11.5-39c1.4 0 2.7.5 3.8 1.4 2.5-9.3 6.4-15 11.6-17.3l4.8-6.9c0-.1-.1-.2-.1-.4l-.4-1.6c-.8-3.1 1-6.3 4.1-7.1.8-.2 1.7-.3 2.5-.1l2.6-2.3c1.1-1 2.5-1.5 4-1.5.5-.3 1-.5 1.5-.6l1.6-.4c.2-.1.5-.1.7-.1 6.9-1 21.4-3 23.8 6.3l3.4 12.6c.8 3.6 1.2 7.4 1 11.1 1.6.2 3.1 1.2 4 2.5l2 3.1c.7-.8 1.7-1.4 2.8-1.7l1.6-.4c.4-.1.9-.2 1.3-.2-.4-.5-.8-1-1-1.5l-14-33.4c-.6-1.5-.6-3.3.1-4.8 0-.1.1-.2.1-.2l-.9-.8c-.9-.8-1.5-1.7-1.8-2.9l-.2-1.1c-9.5-2.7-19.6-2.7-29.2-.3-5.2 2.1-9.3 4-12.4 5.6-.1.4-.3.9-.6 1.3-10 16.5-17.2 30.9-21.5 43 .5-.3 1-.5 1.6-.7l1.6-.4c.5-.2 1-.2 1.6-.2z"/><path class="st3" d="m306.8 307.4 5.1.3.9 3.2-4.7 1.3 4.4 3.9c-.9 5.9-8.6 10.8-23.1 14.7l-10.6 4.5-.3 5.1 1.6-.4c-1.1 8.3 1.6 43.7 8.1 106l10.2 19.2-1.6.4c-2.3.6-5.9-4.1-10.5-14.1l-2.6-16.2-.4-1.6-1.6.4.9 3.2c-3.2.8-4.5 2.3-3.9 4.4l.4 1.6 9.9 24.3.4 1.6-3.1.9-7.6-3-1.1 2-1.6.4c-6.7-8-10.9-15.3-12.6-22l2 1.2 1.6-.4-6.1-10.2 4.3-2.9-2.1-7.9-3.1.8-.4-1.6c3.2-.9 4.5-2.3 3.9-4.4l-.4-1.6-3.1.8c-2.3-8.4-1.8-13 1.4-13.9l-5.5-20.5c1.3-1.9.4-13.5-2.6-34.8l-10.6 4.5-22.5 4.3-.4-1.6 7.5-3.7.4 1.6 1.2-2 23.6-6.3-1.3-4.7-24.4 9.9-2-1.2-1.6.4-9 4.1-5.6-1.9-.5-8.3-2-1.1c-1.4-5.3 4.2-9.6 16.8-13l83.9-25.7zM264 418.6l6.1 35.5 3.1-.9-3.7-7.5-.8-3.1 1.9-5.6-1.6.4 1.1-2-.4-1.6-2-1.2-.4-1.6 1.5-7.1-3.3-5.9-1.5.6zm34.6-104 .4 1.6 6.3-1.7-.4-1.6-6.3 1.7zM347.9 291.7c1.5 3 6.1 3.4 13.9 1.4l27.4 51.8 11-3 .4 1.6-9 4.1.4 1.6c3.2-.9 5-.2 5.6 1.9l12.6-3.3.4 1.6c.6 2.4-4.1 5.9-14.1 10.5l5.7 8.6-.3 5.2 4.1 9-1.1 2 1.6-.4-1.2 2 6.7 18.5 2.5 9.5-2-1.1-1.6.4L422 436l-3.2.8c-.8-3.1-2.3-4.5-4.4-3.9l.4 1.6 2.9 4.3-1.6.4-2-1.1-1.6.4c.8 3.2.2 5-1.9 5.6l-15.1-24.7-1.6.4 1.7 6.3-1.6.4-8.2-18.1 5.6 1.9-.4-1.6c-3.4-9.2-6.2-13.5-8.5-12.9l1.1-2-1.3-4.7-3.2.8 1.3 4.7-1.4.4-1.7-6.3 1.2-2-1.6.4-1.1 2-1.7-6.3 1.6-.4 2 1.1 1.6-.4-2-1.1-2.5-9.5-32.5 17.2.9 3.1 10.2-6.1 6.7-.1 7.5-3.7.9 3.2c-21 9.9-30.7 18.1-28.9 24.6.3 12.3-.9 20.5-3.5 24.6l.8 3.1-4.7 1.2-2-1.1-1.6.4.4 1.6-5.6-1.9.6-10.3-1.6.4c-3.1.9-3.6 5.5-1.4 13.9l-4-2.3-1-9.9-6-3.5 9.5-71.8 1.6-.4c.8 3.2 2.3 4.5 4.4 3.9l-.5-8.3-1.1 2-1.6.4-1.7-6.3-.5-8.3 2 1.1 1.6-.4-2-1.2-.4-1.6 1.5-7.2 1.6-.4 2 1.1 1.6-.4-.4-1.6c-.6-2.1-2.4-2.7-5.6-1.9l2-24.2 6.3-1.7-1.2 2 .4 1.6c5.8-5.9 12.1-9.9 18.4-11.6zm-27.5 80.1.1 6.7 1.6-.4 1.5-7.1-3.2.8zm2.6-9.2-1.1 2 .8 3.1 1.6-.4.3-5.1-1.6.4zm13.5-18.8-.2 11.9-2-1.1-1.6.4 3.3 5.9 1.6-.4.9-15.5-.4-1.6-1.6.4zm-2.4 22.6.1 6.7 1.6-.4 1.2-2-1.3-4.7-1.6.4zm14.1-35.9-3.7 36.5 3.2-.9c10.5-2.8 15.4-7.5 14.8-14.1l-12.6-22-1.7.5zm.3 38.8.4 1.6 3.2-.9c9.2-3.6 13.5-6.4 12.9-8.5l-1.6.4-14.9 7.4zm31.3 28.8 3.1-.9 2.5 9.5-1.6.4-4-9zm10.6 14.1.9 3.1 4.3-2.8-.9-3.2-4.3 2.9zm14.5-9 .8 3.2 3.3 5.9 1.6-.4-.9-3.1-3.3-5.9-1.5.3z"/><path class="st3" d="m446.2 275.4 1.6-.4c15.3-4.1 28.5-.9 39.8 9.6l.4 1.6-3.1.9 2 1.1.4 1.6c-6.5.9-9.9.7-10.3-.6-24.6 6.6-39.6 24.1-45.1 52.6l-.2 11.9 12.8 28.7 4.7-1.3c13.1-3.5 25.3-16.9 36.5-40.2l1.6-.4.4 1.6c-6.9 19.1-17 32-30.2 38.5l.4 1.6 1.6-.4c11-3 22.1-16.1 33.4-39.4l6.4 5 1.3 4.7c.9 3.4-4.9 13.4-17.3 30l-1.2 2-1.6.4.8 3.1c15.5-13.5 22.8-22.2 21.7-26.1l3.1-.8.4 1.6c-9 19.3-22.1 31.3-39.4 35.9l.4 1.6 7.9-2.1 5.9-3.3 1.6-.4.4 1.6-18.1 8.1c-8 2.1-18-1.4-29.9-10.5l.4 1.6 11.3 10.5.4 1.5-4.7 1.3c-11.6-4.1-19.6-10.9-24.1-20.5l-7.1-20.1c-7.1-26.3-6.3-44.6 2.3-54.7l.4 1.6-5.2 18.3.4 1.6 1.6-.4c-2.7-10 6.7-27.7 28-53.1l-4.3 2.9-1.6.4-.4-1.6 13.5-7.1zm-26.9 25.8.4 1.6-5.8 10-.4-1.6 5.8-10zm1.3 80.8 1.3 4.7 3.3 5.9 1.6-.4-.4-1.6-4.1-9-1.7.4zm9.9-95.6 1.6-.4.4 1.6-9.8 7.7c-.5-2.2 2.1-5.1 7.8-8.9z"/><path class="st3" d="M545 246.2c12.4-3.3 25.6-2.7 37.7 1.7l-1.2 2 .4 1.6 8.8 7.8-3.2.8-2-1.1-1.6.4 14 33.4 1.6-.4c-1.4-5.3-1.1-8.2 1-8.7l1.7 6.3c1.6 5.9 0 21-4.8 45.2l1.6-.4c-4.7 12.2-13.2 24.6-25.5 37.3l-7.4 3.7-1.6.4c-25 6.7-43.4.9-55.3-17.3l-8.8-7.8 1.1-2-4.5-10.6-.9-3.1c-2.3-8.7 2-26.2 13-52.5l.4 1.6c-5 12.8-8.3 26.1-9.6 39.8l.4 1.6 1.6-.4c-.3-16.4 8.7-39.7 26.9-69.8l-9.3 9.3-1.6.4c-1.2-5 7.8-11.3 27.1-19.2zm-44.1 87.9 3.4 12.6 1.6-.4-3.4-12.6-1.6.4zm14.6-27.6-2.2 10.7 1.6-.4 2.2-10.7-1.6.4zm28.8-31.4-2-1.1.4 1.6 2 1.2-8.5 12.4c-8.7 2.3-13.2 19.3-13.4 50.9 2.3 8.4 9 14.5 20.1 18.3l1.6-.4c11.5-3.1 21.4-18.7 29.7-46.8 2.2-12.9 2.6-22 1.1-27.3l-3.4-12.6c-.8-2.9-6.6-3.6-17.5-2.1l-1.6.4-1.2 2-1.6.4-.4-1.6-5.3 4.7zm-9.2 92 .4 1.6 9.2 2.6-.4-1.6-9.2-2.6zm41.2-48.2-4.2 9.6 1.6-.4 4.2-9.6-1.6.4zm3.2-19.4-2.1 17.5 4.7-1.3 1.8-12.3-2.8-4.3-1.6.4zm11.8-31.9 3.2-.9 2.1 7.9-3.2.8-2.1-7.8zm1 35.2-.3 5.1.8 3.2 1.6-.4-.1-6.7-.4-1.6-1.6.4zM259.1 206.1l5.7 2.7c-.4-1.3-.1-2.1.8-2.4l.7-.2 15.7 21.4.4 1.3-.7.2-2.4-3.6-.7.2.4 1.3 7.7 10 .7-.2c-1.3-12.7-2-25.4-2-38.1l2.4.8 1.8-1.2 4.5.9.2.7c-1.3.4-1.8 1.4-1.3 3.2l.7-.2.8.5.7-.2-.2-3.5 1.3-.4.2.7-.5.9.8.5.2.7c-.6 11.1.3 26.6 2.8 46.5l-1.3.4-1.5-11c-.9.2-1.1 4.8-.6 13.7-1 1.5-2.4 2.7-4.1 3.2l.4 1.3-.7.2c-.2-.9-1.2-1.1-3-.6l-1.3-4.6c-.5-2-7.9-11.9-22.2-29.7l-.7.2c.7 11.1 2 22.2 3.9 33.1l-.8-.5c-2.5 1.5-3.5 3-3.1 4.4l-1.3.4c-1.3-1.4-2.5-4.2-3.6-8.3l-.7.2 1.6 6-1.3.4-1.6-3.1c-3.2-12-4.5-27.4-3.8-46l5-2.2zm-4.8 19.1.2.7.8.5-.5.8.4 1.3.7-.2-.1-2.8-.8-.5-.7.2zm28.1 3.8c1.1-.3 2.5 1.2 4.1 4.6l.2.7-.7.2-3.6-5.5zM319.3 186.3c.7 1.3 2.6 1.4 5.9.6l11.5 21.8 4.6-1.2.2.7-3.8 1.7.2.7c1.3-.4 2.1-.1 2.3.8l5.3-1.4.2.7c.3 1-1.7 2.5-5.9 4.4l2.4 3.7-.1 2.2 1.7 3.8-.5.8.7-.2-.5.8 2.8 7.8 1.1 4-.9-.5-.7.2 4.7 9.4-1.3.4c-.4-1.3-1-1.9-1.9-1.6l.2.7 1.2 1.8-.7.2-.8-.5-.7.2c.4 1.3.1 2.1-.8 2.4l-6.4-10.4-.7.2.7 2.6-.7.2-3.5-7.7 2.4.8-.2-.7c-1.4-3.9-2.6-5.7-3.6-5.4l.5-.8-.5-2-1.3.4.5 2-.7.2-.7-2.7.5-.8-.7.2-.5.8-.7-2.7.7-.2.9.5.7-.2-.8-.5-1.1-4-13.7 7.2.4 1.3 4.3-2.6h2.8l3.1-1.6.4 1.3c-8.9 4.2-12.9 7.6-12.2 10.4.1 5.2-.4 8.6-1.5 10.4l.4 1.3-2 .5-.9-.5-.7.2.2.7-2.4-.8.3-4.4-.7.2c-1.3.4-1.5 2.3-.6 5.9l-1.7-1-.4-4.2-2.5-1.5 4-30.3.7-.2c.4 1.3 1 1.9 1.9 1.6l-.2-3.5-.5.9-.7.2-.7-2.7-.2-3.5.8.5.7-.2-.8-.5-.2-.7.6-3 .7-.2.9.5.7-.2-.2-.7c-.2-.9-1-1.1-2.4-.8l.8-10.2 2.7-.7-.5.8.2.7c2.1-2.1 4.8-3.8 7.9-4.8zm-11.7 33.8v2.8l.7-.2.6-3-1.3.4zm1.1-3.9-.5.8.4 1.3.7-.2.1-2.2-.7.3zm5.7-7.9-.1 5-.8-.5-.7.2 1.4 2.5.7-.2.4-6.5-.2-.7-.7.2zm-1 9.5v2.8l.7-.2.5-.9-.5-2-.7.3zm6-15.1-1.6 15.4 1.3-.4c4.4-1.2 6.5-3.2 6.2-5.9l-5.3-9.3-.6.2zm.1 16.3.2.7 1.3-.4c3.9-1.5 5.7-2.7 5.5-3.6l-.7.2-6.3 3.1zm13.2 12.2 1.3-.4 1.1 4-.7.2-1.7-3.8zm4.4 5.9.4 1.3 1.8-1.2-.4-1.3-1.8 1.2zm6.1-3.8.4 1.3 1.4 2.5.7-.2-.4-1.3-1.4-2.5-.7.2zM362.6 179l.7-.2c6.4-1.7 12-.4 16.8 4.1l.2.7-1.3.4.8.5.2.7c-2.7.4-4.2.3-4.3-.3-10.3 2.8-16.7 10.2-19 22.2l-.1 5 5.4 12.1 2-.5c5.5-1.5 10.7-7.1 15.4-16.9l.7-.2.2.7c-2.9 8.1-7.1 13.5-12.7 16.2l.2.7.7-.2c4.7-1.2 9.4-6.8 14.1-16.6l2.7 2.1.5 2c.4 1.4-2 5.6-7.3 12.6l-.5.8-.7.2.4 1.3c6.5-5.7 9.6-9.4 9.2-11l1.3-.4.2.7c-3.8 8.1-9.3 13.2-16.6 15.1l.2.7 3.3-.9 2.5-1.4.7-.2.2.7-7.6 3.4c-3.4.9-7.6-.6-12.6-4.4l.2.7 4.7 4.4.2.6-2 .5c-4.9-1.7-8.3-4.6-10.1-8.6l-3-8.5c-3-11.1-2.7-18.8.9-23l.2.7-2.2 7.7.2.7.7-.2c-1.1-4.2 2.8-11.7 11.8-22.4l-1.8 1.2-.7.2-.2-.7 5.2-3zm-11.3 10.8.2.7-2.4 4.2-.2-.7 2.4-4.2zm.6 34 .5 2 1.4 2.5.7-.2-.2-.7-1.7-3.8-.7.2zm4.1-40.3.7-.2.2.7-4.1 3.2c-.3-.8.8-2 3.2-3.7zM391.6 170.5c.3 1.4 1.3 1.8 3 1.3l1.9 2.3-.5.9.7-.2c-.7 10.2.3 21.6 2.9 34.1l.8 4.1.9.5.1.7-.5.9.7-.2-.5.9 1.6 4.6.3 1.4c-1.6 3.5-2.2 6-1.9 7.6l-2.7.7-3.6-.5-.3-4.9-3.3-2-1.5-10.3-2.5-12.1.9-2.4-.5-2.7-.8-.5-.1-.7 1.3-.4-.1-.7-.8-.5-.7-13.4-.7.2.5-.9-.9-4-.8-.5-.1-.7 7.2-2.6zm-4.1 13.9 1 4.7.7-.2-1-4.7-.7.2zm.8 6.9.8 4 .7-.2-.8-4.1-.7.3zm.6 6.3.9 4 .7-.2-.9-4-.7.2zm7 26.6.7 3.4 1-1.7-.4-2-1.3.3zM423.1 161.6c5.2-1.4 10.8-1.1 15.9.7l-.5.8.2.7 3.7 3.3-1.3.4-.8-.5-.7.2 5.9 14.1.7-.2c-.6-2.2-.5-3.4.4-3.7l.7 2.7c.7 2.5 0 8.9-2 19.1l.7-.2c-2 5.1-5.6 10.4-10.8 15.7l-3.1 1.6-.7.2c-10.5 2.8-18.3.4-23.3-7.3l-3.8-3.3.5-.9-1.9-4.5-.4-1.3c-1-3.7.8-11 5.5-22.1l.2.7c-2.1 5.4-3.5 11-4.1 16.8l.2.7.7-.2c-.1-6.9 3.7-16.7 11.4-29.4l-3.9 3.9-.7.2c-.7-2.2 3.1-4.9 11.3-8.2zm-18.6 37 1.4 5.3.7-.2-1.4-5.3-.7.2zm6.1-11.6-.9 4.5.7-.2.9-4.5-.7.2zm12.2-13.3-.9-.5.2.7.8.5-3.6 5.3c-3.7 1-5.6 8.1-5.6 21.4 1 3.5 3.8 6.1 8.5 7.7l.7-.2c4.8-1.3 9-7.9 12.5-19.7.9-5.4 1.1-9.3.5-11.5l-1.4-5.3c-.3-1.2-2.8-1.5-7.4-.9l-.7.2-.5.8-.7.2-.2-.7-2.2 2zm-3.9 38.8.2.7 3.9 1.1-.2-.7-3.9-1.1zm10.8-74.5c.2.1.3.3.3.6.3-.1.5.1.7.4s-.9 2.3-3 5.6c-.2.7-.5 1.4-1 1.9-.3.4-.4.9-.4 1.4 2.4-4.3 3.9-6.8 4.8-7.5h.1v.4l.2.1c.1.4-.1 1-.7 1.9h.5l.6-.7.1.1v.1c-.1.3-.2.6-.1.9-1.3 2-2.5 4.2-3.6 6.4-1.4 2.6-2 4.5-1.8 5.8l-.1.3c-1 .1-1.5-.1-1.7-.7l-.3-.2v-.5h-.3c-.7.2-1.3-.4-2-1.8.3-2 1-3.8 2-5.6 1.3-2.6 2.8-5.1 4.5-7.5l1.2-1.4zm-4 11.1.5-.8h-.2c-.3.3-.4.6-.3.8zm2.6-2.1v.3h.2l-.2-.3zm.2-.3v.1l.2-.4v-.1l-.2.4zm.5-.9.1-.1v-.1l-.1.2zm.3-.5v.1h.1l.4-.9h-.1l-.4.8zm7 46.9-1.8 4 .7-.2 1.8-4-.7.2zm1.3-8.2-.9 7.4 2-.5.8-5.2-1.2-1.8-.7.1zm5-13.4 1.3-.4.9 3.3-1.3.4-.9-3.3zm.4 14.8-.1 2.2.4 1.3.7-.2v-2.8l-.2-.7-.8.2zM453.8 153.9l5.7 2.7c-.4-1.3-.1-2.1.8-2.4l.7-.2 15.7 21.4.4 1.3-.7.2-2.4-3.6-.7.2.4 1.3 7.7 10.1.7-.2c-1.3-12.7-2-25.4-2-38.1l2.4.8 1.8-1.2 4.5.9.2.7c-1.3.4-1.8 1.4-1.3 3.2l.7-.2.9.5.7-.2-.2-3.5 1.3-.4.2.7-.5.8.8.5.2.7c-.6 11.1.3 26.6 2.8 46.5l-1.3.4-1.5-11c-.9.2-1.1 4.8-.6 13.7-1 1.5-2.4 2.7-4.1 3.2l.4 1.3-.7.2c-.2-.9-1.2-1.1-3-.6l-1.3-4.6c-.5-2-7.9-11.9-22.2-29.7l-.7.2c.6 11.1 1.9 22.2 3.9 33.2l-.8-.5c-2.5 1.5-3.5 3-3.1 4.4l-1.3.4c-1.3-1.4-2.5-4.2-3.6-8.3l-.7.2 1.6 6-1.3.4-1.6-3.1c-3.2-12-4.5-27.4-3.8-46l4.9-2.3zm-4.9 19.1.2.7.8.5-.5.8.4 1.3.7-.2v-2.8l-.8-.5-.8.2zm28.1 3.9c1.1-.3 2.5 1.2 4.1 4.6l.2.7-.7.2-3.6-5.5z"/><path class="st1" d="m536.4 219.1.6-.1c-.6.1-.9.2-.6.1zM544.8 217c-2.2.6-5.5 1.5-7.7 1.9 1.8-.5 6.8-2.3 7.7-1.9zM535.7 218.2l2.7-.6c-1.5.6-1.3.3-2.7.6zM536.9 218.5l-.1.2-1.5.2zM401 258.5c.3 0 .5.1.4.3l-.4-.3zM394.5 259.2l-1.3.3c.4-.2.9-.3 1.3-.3zM406.6 256.8l-1.1.3c.3-.1.7-.2 1.1-.3zM475 237l2.8-.3c-.9.4-1.9.5-2.8.3zM365.2 263.7l-.2.3c-.4 0-.5-.1.2-.3zM392.2 256.5c0 .1 0 .2-.1.3h-.3l.4-.3zM410.8 255.2l1-.1c-.3.1-.6.2-1 .1zM356.4 265.9c-.4 0-.8 0-1.2-.1.9-.2 1.3-.1 1.2.1zM401.2 254.3l-1.5.3c.5-.2 1-.3 1.5-.3zM475 237l-.9.1c.3-.1.6-.1.9-.1zM529.3 221.5c-.9.2-1.1.2-1.3.1.4-.1.9-.2 1.3-.1zM217.3 308.6l-.3.1c0-.1.1-.1.3-.1zM250.5 299.9h.5c-.3.2-.5.1-.5 0z"/><path class="st1" d="M279.7 287.1c-2.1.9-4.5.9-6.4 1.4h.7l-1.9.3.1.3c-3.2.7-7 2.1-8.3 1.9l.5.4-3.4.5 2-.2c-3.7 1.1-9.5 2.3-10.3 2.5l.4.1c-.6.2-1.2.3-1.8.4l.6.1c-5.6 1.5-7 2.6-13.4 4-1.7.5 1-.2 1.1 0-1.2.5-2.4.8-3.6.9.6.3 3.2-.6 1.3.4-1.5.2 1.1.1-1.4.8l-1.1-.3c-1.4.5-.1.5-2.4 1.1-2.6.5 2.9-1.5-1.2-.5-2 .6-3.9 2.5-7.9 3.3-3.3 1.2 2 .4-2.7 1.6l3.1-.5c-.7.4-.2.5-2.2 1-1.1 0-2.1.1-3.2.3 4.5-.8-3.7 1.7.6 1.2l-1.5.4c.2 0 .3 0 .2.1l-2 .6c1.3-.2 4.3-1 3-.2l-2.9.9c.9.1-.2.5.1.7l8.8-1.8c-.4-.1-1.7.1-1.3-.2 2.3-.8 2-.2 4.1-1h-1c.2 0 .5 0 .1.2-.7.4-1.1.3-1.2.1 1.1-.6 2.4-.9 3.6-.9 2.8-.8.4-.8 1-1 1.6.1 4.7-1.3 6.5-1.5h-1.2c1.7-.7 3.5-1.2 5.3-1.4l-.6-.1c3-.8 4.2-2.1 6.8-1.8l-.4-.1c1.4-.6 2.8-1 4.3-1.2 0-.1.2-.3.6-.5.8.2 2-.4 3.8-1-1.2.2-1-.4-2.3-.2 2.6-1.3 2.7-.1 5-.8 1.3-.6-1.3.1-1.7 0 3.7-.7 7.1-3.2 9.7-2.8l-1.5.8c1.5-.2 2.3-.4 2.1-.4-.3.1-.5.1-.8.1 4.2-1.7 7-1.1 11.3-2.5-.4-.1-1 0-1.1-.1 2-.8 2.2.5 5.4-.8h-.7c1-.4 1.9-.3 1.8-.2-.1-.9 6.9-1.9 8.9-3.6 2.6-.1 5.2-.6 7.7-1.5 1.9-1.1-1.9-.1-1.3-.8 1.6-.4 2.5-.2 4.8-1 .2.5-4.3 2.3.1 1.3l.5-.4c-.5.2-1.1.4-1.7.5-1.4.1.7-.5.9-.8l4.8-1.2c.5.4-2.4 1.1-2.6 1.3 3.7-1.1 8-3.1 11.5-3.8l-.4-.1c4.5-.8 2.3-1.7 6.1-1.8 1.8-.6-.8-.4 2-1.2.8-.2.4.1.3.2 3.5-.8 1.4-.9 4.7-1.3l-.8-.4c3.9-.7 8.1-.8 11.4-2-.3-.4-2.3.2-3.2.1 4.6-.5 10.7-2.9 14.9-3.6-1.1.7 2.2.3-.4 1.3-.8-.4-2 .4-3.4.7 2.6.6 9.4-3.2 10.3-2.4l.5-.6c.6-.1 2.3-.2 1.3.2l4.5-1.5c-1.7.1-5.2.3-6.2 1.1-1.4-.1 1.8-.8.5-1 3.2-.1 1.8-.8 5-1.5-1.3 1 3.4 0 3.3.3 1.4-.4 2.8-.7 4.3-.8 1.8-.5 5.9-2.1 8.8-2.7-1.1.1-3 .3-2.9-.1 1.5-.2 3-.6 3.2-1.1-5.3.6-1.4 1.5-6.1 2.2-1.7-.1-3.4 0-5 .5 1-.6.5-.6.8-1.1 3.2.3 7.5-2 11.5-2.5 1.7-.1.7.9 4.3 0l-3 1.2c3.3-1.2.9.1 3.8-.6h-1.2c1.1-.4 2.2-.6 3.4-.7l-1.6-.1c.9-.3 2.6-.9 2.7-.5.2-.2.3-.3.2-.4.6 0 1.2-.1 1.8-.3-.7.1-1.1.3-1.2.1 4.2-1 .8-.9 3.4-1.5-.4 0 .2-.4 1.1-.7.2.9 5.3-.4 6.8-.3l3.6-.6c-.7.1 0-.3 1-.7h-.2c1.1-.4-1.6-.6 1.8-1.2l1.8-.2c-.3 0 0-.2.1-.3l1.9-.3c2.5-1.6 5.3-1 8.4-2.3-.9.3-2.3.6-1.8.2.7-.3 1.4-.4 2.1-.4h-.2l6.3-1.2c-.6-.1-4 .8-2.6 0 .8-.6 2.7-.7 3.8-1-.1.3-2 1 0 .6.2-.2 2.1-1 1.1-.9 2.2-.4 5.3-1 7.3-1.2.6-.3-.4-.1-.7 0l-.1.1c-1.3.2-.4-.5-2.8.4-.4-.7 3.5-1.2 5.7-1.9l-3.6.4c5.6-2.6 13.8-3.7 19.6-5.3-1.6.7-3.1.9-2.8 1.4 3.7-.7 3.2-.7 6.8-1.6l-.3.1c1.8-.8 4.5-.9 5.6-1.8-.9-.1-2.6 1-2.8.4l4.6-1.2c-1.5 0-4.6 1.2-6.3 1.6-1.2.4 2.5-.6 2.1 0-2.4.8-5 1.1-7.6 1-1.4-.1 1.7-1 2.5-1.2 3.8-.2 7.5-1 11-2.3l2.2-1.1c2.2-.1 1.6 1 5.3-.2h-1.2c.6-.3 1.1-.5 1.7-.7-1.7.2-3.5.4-5 .5 1.9-1.3 6.3-1.3 9.4-2-.6.1-1.1.1-1.7.1 4.6-1.5 9.8-1.9 13.5-2.8 1.4-.8-3.1.6-2.5-.1 2-.3 4-1.4 4.6-1.1-1-.4 4.4-1.3.5-.9 6.8-2.2 14.5-3.7 21.5-5.2-.4-.1-.4-.3-.2-.5-2.4.7-4.8 1.2-7.3 1.3 1.5-.8 3.8-.6 4.2-.9-.8.1-2.4.5-2.5.2 1.9-.9 3.2-.7 4.6-1.1l-.7.4c4.5-.8 2.7.4 7.4-1 1.6-.9-.1-.3-.3-.8 1.2-.1 4.6-1.6 5.8-1.4l-2.8.8c2-.4 3.9-.9 5.3-1.1-.2-.1-.5-.1-.8-.1 1.5-.4 3-.6 4.5-.8l.3-.6c-1.3.6-2.8 1-4.2 1.1.2-.5 3.1-1 4.3-1.4-5.5 1.4-5.8.6-10.4 2.2l.8-.1c-2.8 1.2-5.9 1.4-8.5 2.1.7-.3.8-.5.4-.5-5.5 2-11.1 3.2-17.4 5.2h-2.1v.4c-3.1 1-.8-.4-2.8.2.8-.2.6-.1.8 0-3.8.6-1.9.9-4 1.4 1.1.1 4-.9 3.2-.1-3.7.6-9.3 2.4-10.1 1.6-6.6 2.2-15.1 4-20.8 5.4-.7.4.5 0 .3.2-2.4.1-7.4 2.4-7.6 2-.6.3-1.2.6-1.7 1.1-1.7.2-3.4.6-5.1 1l1.4-.2-.1.1-1.9.3h.1c-4.6 1.1-9.8 2.7-14 3.3 2.5-.3-.4.8.7.6-2.3-.2-7.3 1.2-11.4 2.4.1.1-.2.4.3.4l-2.5.3.4.1c-4.2 1.3-9 1.7-11.7 2.8 1.8-.4 1.8-.2 2 0-3 .8-5.9 1.6-9.5 2.3.2 0 .3 0 .4.1-1 .3-2 .5-3 .6v.4c-1.9.3-4.1 1.2-6.4 1.5-.7.7-5.3 1-7.7 1.9-1 .2 2.2-.1-.5.6-.6-.7-3.5.9-3.9.1l-2.2 1-.6-.3c-1.7 1.4-3.1.5-6 1.5.2 0 .5 0 .4.1-1 .2-3.2.7-1.5 0-1.6.4-7 1.7-4.4 1.5-.2-.2 2-.6 3-.8 0 .4-2.4.9-2.9 1.5h-.7l-.3.3c-3.1.4-6 1.5-8.3 1.6-.5.3-1 .6-1.6.6l-.2-.5-3.1.9 1.7.3c-3.4 1.1-6 1-8.9 1.6-.5 1-5.6 1.2-7.8 2.6l2.3-.4c-4.8 1.2-5.4 1.9-9.8 2.8 3.6-1.3 3.7-1.1 9-3.3-5.4 1.9-9.5 2.1-14.4 4 .4.1 1.7-.1.5.4-1.1-.1-4.7 1.3-4.1.6-1.5.6-1.6 1.1-2.6 1.5l-5.4.8h.2c-8.5 3.6-16.7 3.8-25.5 6.7l.2.2-2.3.2c1.8-.2-.7.5-.7.8l-5.8 1c-.5.5 0 .9 1.3.4zm75-20.5 1.4-.3c.3-.1.6-.2.9-.2l-.9.2c-.8.2-1.2.6-1.4.3zM479 233.3c.7 0-.9.3-1.4.5l2.2-.6c.3-.2-.5 0-.8.1zm-123.4 36.4-.7.5h-1l1.7-.5zm-19.1 5.3 2-.3-.1.1-1.9.3v-.1zm-21.9 3.3h.4-.4c-1.5.2-2 .9-3.3.7 1-.7 2.1-.9 3.3-.7zm33.5-9.3c.5-.1 1-.2 1.4-.3-.4-.1-1.7 0-.8-.4.7 0 2.9-.5 3-.2-1.9.2-3 1.5-3.6.9zm45-12.2-.5.2 1.8-.2h-1.3zm8.3-2c1.1.1 3.6-.6 5.3-1 .4-.5-1.5-.4-3.5.2-2.5.4-.8.9-1.8.8zm-67.8 18.9.6.1-.5.2 1.9-.3c-2.4 1.1-4.3.8-5.6 1.1 1.2-.4 4.4-.5 3.6-1.1zm85.2-23.4c1.8-.2 5-.8 4.8-.4 0-.6-2.6-.1-3.4.1-.4.1-.9.2-1.4.3zm.2 1c-1.6.3-3.3.4-4.9.3 2.4-.9 3.3-.4 3.1 0 1.8-.2 1.4-.5 2.3-.8l-.5.5zm-3-.8-1 .4c-1.1.6-1.2 1.3-3.1 1.1l3.1-1.1c.3-.2.7-.3 1-.4zm21.3-5.8-1.1.1c1-.3 1.1-.2 1.1-.1l.9-.1c-2.3.8-1.2.3-.9.1zm-16.2 4.6-3 .8c.2.2 2-.5 3-.8zm15.6-4c-1.3.4-4.5 1.4-4.1 1.2.3-.3 3.3-1.1 4.1-1.2zm66-17.4-1.9.5.8-.6 1.1.1zm-22 6.4.4-.3 1.1-.3-1.5.6zm-20.3 5.6c.1-.1 0-.2-.2-.2h-.8c.2-.1.5-.1.8 0 .9-.2 1.7-.4 2.6-.8-.7 0-1.4.1-2.1.3 1.7-1 6.3-.8 4.7-1.7.8-.1 3.6-.4 2.8 0-2.7.6-5.3 1.4-7.8 2.4l-.6.3.6-.3zm-27.3 7.9c-.4.1-.8.2-1.3.2-.7.1-1.2.1-1.1-.1 1.6-.3.7.1 1.1.1.4 0 .9-.1 1.3-.2zm-4.8 1.4 2.6-.4-1.3.1 3.9-.5c-2.1.8-4.8 1.1-5.2.8zm-.9.5-.6-.2.9.1-.3.1h.1l-4.3 1 4.2-1zM384 261.1c-1.3 1.5 4-.3 4.9 0 .1-.4 1.5-1.4-2.6-.3 3.5-1.4 2.4.1 4.3-1.4-1.4.4-2.7.7-4.1.9l2-.6c-1.3-.4-3 1.2-4.5 1.4zm-21.7 6.1-2.7.7 2.5-.6.2-.1zm-65.5 18.5c.3.2-3 1.6-4 1.4 1.4-.4 2.7-.9 4-1.4zm-28.2 7.7 3-.6c-.4.7-2.7.7-4 1.2-.6-.2.6-.3 1-.6zm-19.4 5.4-1 .2 1.2.3-.2-.5zm1.5.4c-.5.4 1.6 0 2-.2l-2 .2zm-17.4 5.3 1.2-.4-1.3-.2.1.6zm1.8-1.1c.4.3.4.8 3.2-.2 0-.4-.8-.2.2-1-.7.2-1.5.4-2.2.7.7-.1 1.4-.5 1.6-.3-.8.4-1.8.7-2.8.8-.2-.1-.5-.2-.7-.1.1 0 .3.1.7.1zm10.3-3.3c.3-.1.6-.2.8-.4h.2c-.3.2-.6.3-1 .4l-1.3.5c-.2.4 1.8.1 2.4.1-1 0-2 .3-3 .6.2 0 .1.2.8-.1l-1.7.5c-2.1.1-.3-.6 1.5-1.2 0-.1.1-.2.5-.4h.8zm-13.9 3.1 1-.2c.5 0 .2.2.4.3-1.1.2-2.6.4-1.4-.1zm56.1-15.7c-.6.3 1 .3 2.3-.2l-.6.7c-.1-.3-2.9.5-3.2.6-.6-.4.5-.5 1.5-1.1zm65.3-18c.7.5 4.2-.9 5-1-1.8.6-6 1.9-5 1zm6.2-2c1-.3 1.2-.4 1.2-.1.5 0 1.2-.4 1.8-.4-1.9.8-1.9.3-3 .5-.3.1-.6.1-1 .2.3-.1.6-.2 1-.2zM320.9 278l-1.4-.1-2 .6 3.4-.5zm-22.1 5.2c.2.2-2.1.9-2.6.9.2.3 1.8-.2 3-.5.3 0 .6-.1.8-.2-.3 0-.5.1-.8.2-.5 0-.2-.2-.2-.3l.6-.3-1.8.4 1-.2zm-38.4 10.3c-.8.4-1.6.7-2.5.8.8-.5 1.6-.7 2.5-.8zm50-13.8c-2.3.8 1.3.2-.2.8l1.2-.4c-1.9.9-1.5 0-2.9.5l.9-.3c.6-.5-1.5.2-1.8 0 1-.5 3.7-.9 2.8-.6zm-52.3 14.1c-2.2 1-2 .2-3.4.5 1.7-.8 1.6-.1 3.4-.5zm37.2-11 .1-.1-1.9.3-.1.1 1.9-.3z"/><path class="st1" d="M256.1 298c-.4.2-.8.3-1.3.4.5-.1.9-.2 1.3-.4zM365.4 268.2c0-.1.2-.2.5-.3 0 .1-.2.1-.5.3zM528.1 222.3c1.1.1-.9.3-1.7.6.7-.3 1-.7 1.7-.6zM521.7 223.3c.7 0 1.3-.1 2-.3-.6.2-1.3.3-2 .3zM526.8 222.1c-1 .4-2 .7-3.1.9 1-.4 2-.7 3.1-.9zM505.2 228c1-.1 1.9-.3 2.9-.7-4 1.4 1 .3 1.3.4-1.4.3-2.8.4-4.2.3zM499.7 229.3c.4-.1.7-.2 1.1-.4-.3.2-.7.4-1.1.4z"/><path class="st1" d="M498.3 230c-.9.2-1.8.3-2.7.1 1.6-.7 2.9-.5 4.1-.8-1 .3-1.9.6-1.4.7zM455.4 243.4c.3 0 1.1-.3 1.2-.1l-2.4.7c-.9.1.8-.5 1.2-.6zM446.5 245c-1.9.5-.8.6-1.8.8v-.6l1.8-.2zM446.8 241.9l.6-.1-.6.1zM437.6 248l1.5.3c-1.6.3-1.8-.2-1.5-.3zM430.6 250.4l1.2-.1-3.5.8zM421.9 252.5l-.3.2-2.4.5zM327.8 278c-.5-.4 3.3-1.2 4.4-1.7-.6.8-3.1.6-4.4 1.7zM259.4 296.9l3.6-.9c-2.7 1-.7.2-3.6.9z"/><ellipse transform="rotate(-15.861 396.163 259.804)" class="st4" cx="396.2" cy="259.8" rx="41.3" ry="24.1"/><path class="st4" d="M437.1 247.9c.1.3.3.1.3.2-.1-.5-.3-.1-.3-.2zM434.2 243.3h.1l-.6-.5zM430.7 239.7c.1.6 1.4 1.1 1.9 1.9v.2l.5.1c-.7-.9-1.8-1.6-2.4-2.2zM429 237.5c0 .2-.6-.2.5.4l-.1-.1-.4-.3zM427.3 236.6s.2 0 .3.1l.3.1c-.1-.2-.6-.5-.4-.4-.6-.3-.5-.1-.2.2zM426.5 236.6l.4.1c-.1-.1-.1-.1-.4-.1zM427.6 236.9l-.4-.1-.4-.1c.1.1 0 .2.3.1 0 .1.2 0 .5.1zM428 237.2c.3.3.7.6 0 .3 1.2.7 1.2.3 0-.3zM430.3 239.9l.2.2.2.2.4.2c-.3-.1-.8-.7-.8-.6zM423.4 234.7c-.1.1.1.3.1.4l.5.1c-.2-.2-.7-.4-.6-.5z"/><path class="st4" d="m423.5 235.1-.4-.1-.4-.1c.7.3.8.3.8.2zM426.3 236.9l.6.1.6.1s-.4-.1-.7-.2l-.7-.2.2.2zM420.6 233.8l.4-.1-.8.1zM418.7 233.4c.4-.1-.4-.4 0-.4-.5-.1-.9-.1-1.4 0 .5 0 .9.1 1.4.4zM416.5 233c.2 0 .5 0 .7-.1-.2.1-.4.1-.7.1zM421.5 234.5c-.1-.2-.3-.3-.5-.4l.2.3.3.1zM421.3 234.5l-.6-.2.6.2zM421.6 234.6c-.1 0 0 0 0 0zM424.5 235.9c-.5 0-1.4-.2-.6.3.4 0-.1-.3.6-.3zM421.9 235l.7.3c0-.1-.1-.2.1-.2l-.8-.1zM421.5 234.9l.4.1-.3-.1zM417.9 233.5c-.4 0-.8 0-1.2-.1.4.1.9.3 1.3.3.1 0 .3-.1-.1-.2zM419.5 234c-.1 0 0 0 0 0zM412.5 232.9h.1zM418.1 233.8c.2.1.5.1.8.1-.3 0-.6-.1-.8-.1-.1 0-.1 0 0 0zM415.4 233c.2.1.4.1.6.2-.2-.1-.6-.3-.6-.2zM419.3 233.9c0-.1 0-.1 0 0zM419.3 233.9h-.5l.6.1c0-.1 0-.1-.1-.1zM411.2 234.4c.1-.2 1-.4 1.7-.1.8-.1.4-.9-.3-1.4 0 .1 0 .2-.8.3.3.1 1.7.4 1 .6-1 0-.8-.1-1.3-.3.4.3-1.3.3-1.1.8l.9-.1s-.4.1-.1.2z"/><path class="st4" d="M414.1 233.1h.3c-.4-.1-.7-.2-1.1-.4-.5 0-.7.1-.7.2s.4 0 .8.1l.8.1h-.1zM415.9 233.3c-.3.2-1.1.2-.6.5.9.1.7-.1 1.3-.1-1.6-.1.3 0-.7-.4.3 0 .6.1.8.1-.3-.1-.5-.1-.8-.2.1 0 .1.1 0 0v.1c-.5-.2-.1-.1.1-.1l-.8-.1h-.8c.5.1 1 .2 1.5.2zM422.9 236.4c-.1-.1-.1-.1 0 0zM422.4 236.1c.2 0 .4 0 .6.1.3.2 0 .1 0 .2.2 0 .8.1.2-.3h-.2c-.5-.3-1.2-.8-1.1-.8.1.3.3.5.5.8zM419.2 234.6l-.6-.1-.6-.1.6.4v-.1c.6.2.4 0 .6-.1zM412.4 232.8l.2-.3-.8.3zM410.7 232.7l.1-.3-.4.2zM369.3 281.7l.4.1c-.1-.1-.3-.1-.4-.1zM367 280.7l-.1.1c.1 0 .2-.1.1-.1zM372 242.8c-.6.1-1.3.2-1.1.3l.3.1c.2-.2.5-.3.8-.4zM356.2 264.6l.1-.1-.2-.4.1.5zM357.1 265.1l-.2.6c.1-.1.2-.4.2-.6zM383.1 284l.4-.2c-.7 0-.4.1-.4.2zM393.9 234.1c-.4 0-.8 0-1.2.1.6.1 1.1.2 1.2-.1zM367.4 283.8h.4c-.3-.1-.5-.1-.4 0zM391.4 234.6h.3c.3-.1.7-.2 1.1-.3-.5-.1-1 0-1.4.3zM429.3 265.8l.1-.1s-.1 0-.1.1zM437.5 253v.7-.7zM405.8 233.5c-.1 0-.1.1-.1.1 0-.1 0-.1.1-.1zM388.5 237c.1 0 0 0 0 0zM404.6 232.7c-.1 0-.3-.1-.5-.1.2.1.3.1.5.1zM404.5 232.5h.3-.3zM403.6 232.6h.6-.6zM406.7 281c.3-.2.2-.1 0 0zM366.3 250.2l.1-.1-.1.1zM365.6 251.1c.1-.4.3-.8.7-1l-.8-.3.1 1.3z"/><path class="st4" d="m375.3 283.3-.8-.4c1.1-.1 1.7.1 1-.4-.3.8-3.1-.6-3.4.1l-.5-.3c.1 0 .2 0 .3.1-.9-.7-.9.3-2.2-.3-.4-.2-.7-.5-.4-.4l-.5-.1-.5-.1c-.3-.1-.1-.2.1-.1l-.8-.3c-.4-.1-.7-.3-.7-.3-.4 0-.7 0-1.1-.1-.3-.3.2 0 .2-.1l-.9-.3c-.2-.4.5-.1 1 .2-.3-1.1-.8-.2-2-1.5l.8.4c-.2-.6-.8-.9-1.4-1.6.1.2 1.1 1.6.2 1.3-.3-.3-.6-.5-1-.6.2-.2-.3-.5-.7-.9l.3-.3c-.5-.4-.6-.2-1-.4-.3-.3-.5-.7-.3-1.2-.7-.9.2.9-.8-.1-.2-.4-.5-.8-.8-1.1-.3-.3-.6-.7-1-1.2-.2-.7.3 0 .2-.3l-.5-.4s0-.1.1-.1c-.3-.4-.4.1-.8-.6-.5-.1 0-1.8-.5-2.7.1-.3.2.1.4 0-.2-.4-.3-.8-.4-1.2-.1-.3-.2-.5-.4-1.1l.1-.5.2-.5c-.3.7-.6-.3-.7-1.1-.2.2-.3.4-.4.6V264c.1-.2.2 0 .3.3v-.3c.2-.5.4-.2.5.2l-.3.4c.2.4.4.7.6.7v-.4c0 .1.1.2.1.1s0-.2-.1-.4l.5-.2-.1-.1s.1-.4.3-.8l.4-.8c-.2-1.5 0-3 .6-4.4 0 .6.4.3.7.5-.6.3-.6 1.4-1 2.3.2-.5.3-.3.4-.2s.1-.5.2-.9.2-.9.2-.9c.2.2.4-.2.7-.6-.7 0 .3-1.4.6-2.1.2.1.2.3-.3 1.1.9-.6.2-1.5 1-2.1-.1.2-.2.3-.2.4.1-.5 1.1-1.5 1-1.1l-.1.2c.9-1.1 3-3.4 2.8-3.9.1.2.2.4.3.7 0 0 .2-.8.4-1.5s.5-1.5.5-1.5c.1.5 1.4.6.7 1.6.4-.3.8-.6 1.1-1-.2.1-.9-.1-.6-.3l1.8-.6c-.3.1-.4-.6 0-1 0 .1.4.5.3.7 0 0 .2-.4.4-.7l.4-.7c-.2.3.3.5.6.4-.2 0 1-.7 1.3-1l-.6.2c1.4-.8.8-1.6 2.2-2.5-.1.2 0 .9.8.6.3-1.2.9-2.3 1.8-3.1h.3l.9-.7c-.7 1.2-1.5 2.4-2.3 3.5.6-.2.3.1 1-.4.4 0-.3.5-.5.6l1.9-.9c-.3-.3 1.3-1.1 1-1.3l-.9.7c-.5.3-.9.7-.9.7-.3-.3.6-1.6 2-2.2.4 0 0 .7.1.8.4-.4.8-.6 1.3-.8l-.5.5c.8-.2 1-1 2.1-1.1.3-.1 1.1.1 1.1-.2-.7-.2-1.3-1.4-1.1-1.9.8-.1 1.6-.2 2.4-.2.7.1-.5 1.1 0 1.2 0-.1.2-.3.3-.4.4 0 0 .4.7 0 0-.4 1.5-.5.2-.4.7-.4.8-.2 1.7-.5-.4-.1.5-1.1 1.2-1.4 0 .1.2.2.3.2 1.5-.4 2.4-.5 3.9-.8.2.1.9 0 .6.2.2-.2.5-.3.8-.4.9.1-1 .3-.2.5 0-.2 1.1-.6 1.7-.8-.3-.3-1.5.2-2.1.5-.1-.5.9-1.2 2.4-1.8 1.2-.3.6.2.8.1 2.3-.3 1.9-1.2 3.9-1.1.8.2.1.6.3.8-.7.1-1.5.1-2.3.1h.9c-.4.2-.9.3-1.3.3.7.2 3.9-.5 5.8-.3.3-.1.9-.3.6-.4l-.6.1c-.5-.2 1-.4.3-.5.9-.3 1.8-.5 2.7-.4l.2.4c-.3-.1-.7-.2-1-.1.5-.2 1.7.4 2.2 0l-.8-.3c.9-.3 1.8-.4 2.7-.4-.4-.4-.2 0-.9-.4.6.5-2.5 0-1.5.5-.7-.5-1.2-.2-2.2-.6 0 .1.3.2-.5.2-.1 0-.1.1-.2.1.2 0 .3.1.4.2-.7.2-1.4.4-2.1.5-.5 0 .2-.1-.1-.3l-.6.3c-.1-.3-1.3-.3-.2-.6h-.5l-.5.1c-.7-.1-1.4 0-2 .1-.5 0-1.2.5-.8.2l-.8.2-.8.2v-.1c-1.6.2-3.1 1-5 1-.6.3-1.3.5-1.9.6l-.2-.2c-.6.3-2.1.4-2.3.7-.9-.4-3.2.9-4.4 1.3l.1.3c-.8.3-1.6.7-2.4 1.2l.2.2c-.7.5-2.2.8-3.4 1.4 0-.1.4-.3.6-.3-1.8.2-3 2-4.5 2.4-.2.2-.5.4-.8.5l.1-.1-.1.1-.5.2.5-.1c-.3.2-.6.5-1 .7l-.3-.1-.1.1c-.4.1-.2.3.1.4-.1.1-.3.3-.4.5-.5-.2-.9.8-1.5.6-.1.4-1.7 1.4-1.5 2 0 0-.2 0 0-.1-.4.2-.8.5-1.1.9l-.4-.1-.5 1.1c-.6.3-.9.4-.6-.3-.5.7-1 1.4-1.5 2.2l-.1-.2c-.3.3-.6 1.1-1 1.2-1.1.4-3.5 3.9-5.1 6.1.9-.1-.9 1-.4 1.4-.2.1-.5.4-.4-.1-.5 1.4-1.1 1.9-1 3-.2.1-.1-.4-.3-.3s0 .5-.1.6-.1-.2 0-.5c-.4 1.5.1 1.7.5 1.9-.3.5-.4 1.1-.2 1.6-.2.2-.4.6-.3-.3-.1.6-.2 1.2-.2 1.8 0 .7 0 1.4.2 1.4 0 .3 0 .6.1.8 0 .8.2 1.6.4 2.3v-.3c.5.3.3.9.7 1.7h.1c.5 2 .4.8 1.1 2.7l.2-.2c.3-.1.5.3.7.9.2.6.5 1.1 1 1.6l-.2-.4c.3.2.4.6.6 1.1.1.4.3.9.5 1.3.1.1-.2-.1-.4-.2 1 1.4.4-.1 1.4.7.1.3-.5.2.1.8.3.4 2.4 1 3.2 1.8-.1-.3-.3-.5.3-.3.8.4 1.9 1.6 2.9 1.5.1.1.1.1.1.2.8.3 1.7.4 2.6.5.1.6 1.2.7 2.2.9s1.9.2 1.8.6l1 .2c.5.1 1 .1 1 .1l-.1.1c.7.2 1.5.2 2.3 0 .3.1.1.1 0 .2 1.2.4 2.5.4 3.7 0l.2.3c.4-.1 2.8.5 4.7.1 0 0-.1.1-.2.1 2.1-.4 5.1.4 5.8-.7l1.4-.5c-1.8.2.2-.5-.6-.5.7-.1 1.9 0 1 .2h-.1c-.2.6 2.2-.2 2.3.2 3.4-.6 6.8-1.3 10.1-2.3l-.5-.3 1.1-.4c.3 0 .5.2-.3.4.5.1 1.2-.7 1.2-.8 1.6-.4-.4.7 0 .5l.6-.3h-.2c.4-.4.8-.7 1.4-.9.6-.2.4.1.6 0 0 0 .1 0 .4-.1l1.4-.5-.7-.1c.5-.4 1.3-.5.5-.6 1.1-.1 2.1-.5 3-1 1.2-.6 2.3-1.3 2.6-1.3.7-.7 1.5-1.2 2.4-1.7-.3.1-.6-.1.2-.6.1.8 1.6-.7 2.6-.7-.8.1 2.1-1.7 1-1.5.7-.4.2.2.8 0 1.3-1.4 3.4-2.5 5-4.3 0-.1-.4.1-.2-.4l1.2-.6c.3-.4-.2-.7.7-1.1-.1 0-.4.1-.2-.2 1.7-1.7 3-3.7 4-5.9s1.8-4.6 2.4-6.9c-.3.6-.2.2-.2-.3-.1.3-.3 0-.4 0s.1-.5.2-1c.1-.3.1-.7.2-1-.4-.4-.3-2.2-.7-2.3l.1.3.1.3c-.5-.7-.8 1.3-1.3 1.2.2.5.2 1.1 0 1.6-.2.7-.3 1.4-.1 2.1-.2.3-.1-.3-.3-.1.2.5.1 1.1-.1 1.6v-.1c-.5 1.9-1.3 3.6-2.5 5.2h.3c-.2.3-.4.5-.6.7 0 .4.2 0 .4-.3s.4-.7.5-.3c-.6.5-1.1 1.1-1.5 1.8-.5.8-1.1 1.5-1.5 1.5-.5.7.4 0-.1.7l-.3.1v.3c-.4.4-.7.5-.9.4.1-.1.2-.3.3-.4-.5.5-1.1 1.1-1.5 1.7l.6-.5c-1.5 1.8-3.8 3.6-5.4 5.2h.3c-1.3 1.2-1.2.7-2.7 1.9v-.1c-.3.4-.7.7-1.1.9.3-.4-.9.2-.5-.2-1.5 1.2-.7.6-1.5 1.7h-.4c-.3.4-.6.8-1.1 1 .6-.5-.7 0 0-.6-2 .5-2.5 1.8-3.6 1.6-.6.9 1.7-.5 1.3-.1.5 0-.5.7-1.1.9s-1.3-.2-2.8.4c.1 0 .1-.1.3-.2-.6.1-1 .6-1.8.7-.3.5-.9.3-.9.8l1.4-.6c-.7.4-1.3 1.2-2.7 1.4.2-.2.4-.4.7-.5-.4 0-.7.3-1.2.3 0-.5 1.7-.7 2.4-1.3-.5 0-1.5.9-1.2.3-.4.8-1.5.4-2.4 1.2v-.3c-.2.2-.5.3-.8.4l.5-.5c-.8.5-1.7.3-2.5.6 1.7-.5.5.2 1.3.2-2 .9-1.4-.3-3.8.4.3-.1 1.3-.1.8.1-.5.1-.9.1-1.4 0-1.6.4.3.2-.3.5-.6-.2-.8.3-1.4.5v-.3c-1.9.1-.4.6-2.1.7l.6-.5-.8.2.1-.3c-.7.3-1.4.4-2.1.4.2.2-.1.5-.9.6-.6-.1.3-.3-.9-.1.2-.3.6-.4 1-.3 0-.1.2-.2.3-.3-.6 0-1.3 0-1.9.1h.5l-1.6.5c-.3-.1-.1-.2.1-.3-.3.1-.7.2-1.1.2.1-.2.1-.5.8-.6l-1.6.3c-.1-.1-.8-.3-.6-.3-.9-.1-2.2.5-3.3.3-.1.1-.3.1-.4.1-1.1-.2-2.2-.3-3.4-.3l-.7-.5c-1 0 .9.6-.8.6-1.2-.1-.4-.4-.8-.6-.9.3-1.9.2-2.7-.2-.3-.3 0-.3.4-.2zm-11.5-4.4c.2.1.7.2.8.4-.5.1-.6-.1-.8-.4zm-6.7-16c0 .3-.1.5-.3.7.1-.2.2-.5.3-.7zm43.2-29.8c-.7 0-.5 0 0 0zm1.1 0c.1 0 .1-.1 0-.1-.2.1-.4.1-.6.1.1.1.3.1.6 0zm9.4 48.4h-.2c.4-.3.3-.2.2 0z"/><path class="st4" d="M357 265s-.1.1-.2.1c.1.1.1.1.2-.1zM383 284.1c0-.1 0-.1 0 0zM384.5 239.5h-.5c0 .1.1.1.5 0zM407.7 232.3l-.8.1c.2 0 .5 0 .7.1 0-.1-.1-.2.1-.2zM414.1 234.5h.3v-.1c-.4-.1-.7-.1-.3.1zM408.4 233.3c0 .2.5.2 1.1.1h-.1c.1-.3-.4-.2-1-.1zM409.6 233.4h.5c0-.1-.2 0-.5 0zM402.9 232.8c.3 0 .1-.3.3-.2.3-.3-1.6.5-.3.2zM408.8 234l-.2-.2-.3.2zM404.7 233.9h.8s.1-.1.2-.1c-.4 0-1 0-1 .1zM405.7 233.8c.2 0 .5 0 .7-.1-.2.1-.4.1-.7.1zM407.7 234.1l-.3-.1h-.6zM395.8 234.9l-.9.3c-.1.1.2.1.5 0s.5-.2.4-.3zM398.6 235.2c-.2 0-.3-.1-.4-.2v.4l.4-.2zM396 235.7c-.1.1-1.2.5-.1.3.1-.1.9-.3.1-.3zM382.8 239.1l.2-.1-.2-.5zM372.9 245.7c1-.4 0-.4.9-.8.1-.3-.7.3-.6.1-.5.4-.8.6-.3.7z"/><path class="st4" d="m373.2 245 .2-.3c-.1.1-.1.2-.2.3zM437.6 250.2v-.7l-.1.5zM436.9 248.9l.3-.2-.4-.4c.1.2.2.4.1.6zM362.8 277.2c-.1.1 0 .2.2.4l-.2-.4zM370.2 281.7l-.1-.1.1.4zM377.6 283c-.3-.1-.7 0-1-.1.7 0 1 .5 1 .1z"/><path class="st3" d="M386.9 245.3c.4-.3.6-.4.8-.2.2.3.4.6.4 1 0 .1.1.2.1.4v.3l.2.8-.1 1.1-.3 1.8c-.1.4-.2.9-.3 1.3v-.1c-.3 1.4-.4 2.8-.5 4l-.3 2.4-.1.6-.1.9v.7c-.1.2-.2.3-.4.3v1.1c0 .2 0 .5-.1.7l-.1.3c0 .1-.1.3-.1.4 0 .1-.1.2 0 .4v.7l-.1.3-.2 1-.1.7v.7c.2.3.2.8 0 1.1-.1.2-.2.4-.2.6v.5l-.1.3c.1.3 0 .5-.2.7-.1.3-.2.7-.1 1 .1.3.2.5.1.8 0 .2-.1.4-.1.5s-.2.4-.2.4v.2c0 .3.1.6.2.9.1.3.1.6.1.9V275.4c0 .1 0 .1.1.2 0 .1.1.1.1.2l.5-.1.2-.1 1-.7.8-.4c0-.2.1-.4.5-.5v-.1l.1-.2.5-.4.2-.2h-.1c.1-.4.3-.8.6-1.1l.5-.6.6-1.1.9-.8h.1c.1.1.1.2.1.4s-.1.3-.1.4V270.6c-.1.2-.1.5.1.6v.1l-.5.7c-.1.3-.2.5-.4.7l-.2.3c0 .1 0 .2-.1.2l-.3.5c-.1.2-.3.4-.5.5h.1c0 .2-.2.4-.6.6l-.3.4c-.2.3-.3.5-.2.5-.1.4-.4.8-.7 1.1l-.4.3-.4.3c-.1.1-.1.2-.1.3h.3c.1 0 .1.1-.1.3v-.1l-.1.3c0 .1-.1.2-.1.3-.2.1-.4.2-.6.2-.1.2-.2.3-.4.3l-.3.1h-.4c-.2.1-.5.1-1 .2-.3.1-.6.1-.8 0h.1c-.3-.1-.6-.2-.9-.4-.3-.2-.6-.5-.9-.9v.1c-.1 0-.1-.2-.2-.5 0 0 0-.1-.1-.1 0 0 0-.1-.1-.2 0 0 0-.1-.1-.1 0-.1-.1-.1-.1-.2 0 0 0-.1-.1-.1l-.1-.1c-.1-.2-.1-.3-.1-.5l-.1-.4c-.1-.2-.2-.5-.3-.8-.1-.2-.1-.5 0-.7v-.1c-.2.2-.4.5-.5.6-.2.2-.3.4-.5.6-.1.2-.2.4-.4.6-.2.3-.4.5-.7.7h.1c-.1.2-.2.4-.4.6-.2.3-.4.5-.6.7-.1 0-.1.1-.1.1-.2.1-.3.3-.4.5 0 .2-.1.3-.1.4l-.2.6-.3.4-.5.5h.1l-.1.3c-.3.2-.5.6-.4.9-.1.2-.5.2-1.2 0l-.4-.1-.5-.3c-.2-.1-.3-.2-.5-.4l-2.1-2.2c-.2-.2-.3-.5-.5-.8l-.4-.8-.2-.4-.3-1-.1-1.9v-1.7c-.2-.3-.2-.7-.2-1 0-.4.1-.8.3-1.2.1-.1.1-.2.1-.3l.5-1.2c0-.4.2-.7.4-1 .1-.3.3-.5.5-.7.3-.1.5-.3.6-.6.2-.3.3-.5.5-.8v.1V265.2l.2-.4v.1l.2-.8.5-.5 1.1-1.4.7-.8c.5-.4 1-.7 1.5-1 .5-.3.8-.5 1.1-.6.3-.2.6-.3 1-.4.3-.1.6-.2 1-.1H379.8l.4.1v.1s.1.1.3.1l.9.2v-.7l.1-.3v-1.6c.3-.2.5-.6.5-1 0-.3 0-.7-.1-1l-.1-.4v-.2l.2-.6c.1-.1.1-.2.1-.2v-.2l.1-.8c.1-.5.1-.9 0-1.4l.6-2 .5-1.3.5-.6h.1s.1 0 .3-.2.3-.3.4-.5c.1-.2.3-.3.5-.4.2-.1.4-.2.7-.3.2-.2.4-.4.6-.5h-.1l.1-.3h.5zm-6 19.7.4-1.4-1.2.6c-.4.2-.7.4-1.1.6-.7.6-1.3 1.3-1.7 2l-1.5 2.5c0 .1 0 .1-.1.2l-.1.1s-.1 0-.1.1v.2l-.4.5h.1l-.2.6h-.1l-.1.1V271.4c.1.3.1.7-.1 1h-.1l-.1.2c0 .2-.1.4-.1.6v.6l.3 1.1v.2c.1 0 .2 0 .2.1h.2l.2-.2.4-.5v-.1c.1-.1.1-.2.2-.3.1-.1.1-.2.3-.3s.2-.2.3-.3l.6-.6c.2-.2.4-.5.5-.7l.6-.6c.2-.3.5-.5.8-.9.3-.3.6-.7.8-1.1.3-.4.5-.8.7-1.2h.1l.1-.1v-1.6c0-.5.1-1 .1-1.5l.1-.2z"/><path class="st3" d="M409.2 261c.1.2.2.4.1.6-.1.2-.2.3-.3.5-.1.1-.1.2-.2.4-.1.1-.1.2 0 .3v.1l-.1.1c-.1.1-.2.3-.3.4h-.1l-.2.2h.1c-.1.2-.3.4-.5.5-.1.1-.2.2-.3.2-.2.4-.5.8-.9 1h.1l-.6.6h.1l-.2.3c-.2.1-.3.3-.3.3v.3c0 .2-.1.3-.2.5s-.2.4-.3.5l-.2.2-.3.3-.5.4h.1l-.2.2h.1c.1-.1.3 0 .3.1v.1c0 .2-.1.4-.3.6-.2.1-.4.3-.6.4-.1.1-.2.2-.3.2-.1.1-.2.1-.3.2l-1.1.8-1.1.7c-.2.2-.3.3-.5.4-.3.2-.5.3-.8.5-.1.2-.3.3-.5.4l-.8.5s-.1 0-.1.1c-.1 0-.1.1-.2.1.1 0 .2 0 .1.1 0 0 0 .1-.1.1l-.1.1-.1.2c-.1.1-.1.2-.2.3 0 .1-.1.2-.2.3 0 0 0 .1-.1.1l-.1.1c0 .1-.1.1-.1.1h-.1l-.2.2-.2.2-.1.2-.3.7c-.1.2-.3.3-.4.3l-.6-.1h.1c-.1 0-.2-.1-.3-.1-.1-.1-.2-.1-.3-.1-.2 0-.4-.1-.6-.3-.2-.1-.3-.2-.5-.4-.4-.3-.7-.6-1-.9-.4-.4-.8-.9-1.1-1.4l-.4-.6v.1c-.1 0-.1-.2-.2-.4-.1 0-.1-.1-.1-.2s0-.2-.1-.3c-.2-.4-.3-.7-.5-1.1l-.1-.9v-2.5c-.1-.4-.1-.8-.1-1.2 0-.5 0-.9.1-1.2l.1-.8c0-.2 0-.4.1-.6 0-.3.1-.6.2-.9.1-.3.3-.5.3-.6.3-.2.5-.4.7-.7.2-.3.3-.5.5-.7v.1l.2-.8.1-.5c0-.2.1-.3.2-.5l.2-.2.2-.2h-.1c.1-.3.3-.5.5-.8l.5-.7.4-.4c.1-.1.2-.3.3-.4l.7-.6 1.8-1.1c.5-.3 1.1-.5 1.7-.6l.9.2s.3.1.7.2l.4.2c-.1-.5 0-.8.3-1h-.1c0-.1.1-.1.4-.2h.1l.1-.1s.1 0 .1-.1c0 0 .1-.1.2-.1H402.2l1.4.3.4.2.6.6.5.6.2.3c.1.1.2.2.2.4.1.1.1.3.1.4.1.1.1.2.2.4 0 .2.1.3.1.4v.7c.1.8 0 1.7-.3 2.4l-.3.7h-.1l-.2.2-.4.3c-.1 0-.1.1-.2.1-.1.1-.1.2-.2.4l-.3.3h.1c-.1.1-.1.3-.3.4-.1.1-.2.3-.3.4-.1.4-.4.8-.8 1h.1c-.1.1-.1.2-.2.3s-.3.1-.6.1c0 0 0 .2-.3.6-.2.1-.4.1-.6 0-.2.1-.3.2-.4.3-.1.1-.2.2-.4.3-.1.1-.3.1-.4.1l-.3.1c-.4.3-.9.5-1.4.6l-.2.1c-.1.1-.2.1-.4.1 0 0-.1 0-.1.1-.1 0-.1.1-.2.1l-.5.1c-.3.2-.6.3-.9.2l-1.4.4h-.3V267.8c-.1.2-.1.4-.1.6v.6l.4 1.4c.1 0 .2.1.4.5.1 0 .2-.1.3-.3l2.7-1.4 1.4-.8c.3-.2.7-.4 1-.5l1-.5h.1c.1 0 .1-.1.2-.1l.7-.5 1.7-1.2c0-.1.1-.1.1-.2.1-.1.1-.2.2-.2l.3-.1.1-.2h.1c.3-.1.5-.3.7-.5.3-.5.7-.9 1.1-1.3l.3-.4h-.1l.9-1 .5-.5c.1-.2.3-.3.5-.3h.1l.5.1zm-13.1 2.2.3-.1.6-.3c.1-.1.2-.2.3-.2.1-.1.1-.1.2-.1l.5-.4.2-.4c0-.3.2-.4.6-.3h.1l.2-.3c0-.1 0-.3.1-.4l.5-.6.3-.1c.1-.1.2-.1.3-.2 0 0 0-.1.1-.3-.1-.2-.1-.5 0-.7l.1-.2c-.1 0-.1.1-.2.1-.7.3-1.4.8-2.1 1.3-.3.2-.5.5-.7.8-.3.4-.5.8-.8 1.2l-.6 1.2zM416.3 237.9c.3-.4.6-.5.9-.3.3.3.4.7.4 1.1.1.1.2.3.1.5 0 .2 0 .3.1.5 0 .2.1.3.1.4l-.2 1.3V241.7c-.1.5-.1 1-.1 1.4 0 .5-.1.9-.2 1.4-.1.4-.2.8-.2 1.3 0 .4 0 .8-.1 1.2l-.1.5v.7c0 .6-.1 1.1-.1 1.6s-.1 1-.2 1.6l-.1 1.2-.3 1.2c0 .1-.1.2-.3.3V254.4c.1.2.1.5.1.8 0 .2 0 .4-.1.6v-.1l-.2.5c-.1.3-.2.7-.2 1 0 .3 0 .7-.1 1l-.3 2.6c0 .2.1.4 0 .6 0 .2-.1.4-.2.6-.3.2-.3.6-.1 1.1v.1l-.2.4v-.1c0 .2-.1.4-.2.5l-.1.5c0 .2 0 .3-.1.5 0 .2 0 .3-.1.5 0 .1.1.3.1.6s0 .4-.1.5v-.1l-.1.9s0 .1.1.1l.1.1c.1-.1.2-.1.3-.2l.5-.3c.2-.2.5-.3.8-.4h.1c.1 0 .1-.1.2-.1l.2-.2c.3-.3.6-.6 1-.8.3-.3.7-.5 1.1-.7.2-.1.3-.2.4-.3h-.1l.2-.2.3-.3c.1 0 .1-.1.1-.3v-.1l.7-.6c0-.2.1-.4.2-.6.1-.1.1-.3.3-.4l.2-.4.4-.6.6-1.1.8-.7h.1c.1.2.2.4.1.6 0 .1-.1.3-.2.4-.1.2-.1.4.1.7v.1l-.7 1.4v-.1c0 .3-.2.6-.4.8v-.1l-.3.6c-.1.2-.2.4-.3.5l-.3.3-.3.3s-.1.2-.2.5v-.1V265.5c-.1.1-.2.3-.1.6-.1.4-.3.7-.5 1-.1.1-.2.3-.3.4l-.4.4-.4.5c.1 0 .2 0 .2.1 0 .5-.4.8-1 1.1-.1.1-.3.2-.4.3-.1 0-.1.1-.2.1s-.1.1-.2.1l-.4.3c-.1 0-.1.1-.1.1h-.1s0 .1-.3.2c-.1 0-.1.1-.2.1-.3.2-.6.3-.9.5l-1.1.5c-.1.1-.3.2-.5.2h-.3c-.1 0-.3.1-.4 0-.2.1-.5 0-.7-.1l-.3-.2c-.5-.2-.8-.8-1-1.7-.1-.4-.3-.7-.3-1.1-.1-.4-.2-.9-.2-1.4V266.9c0-.1-.1-.2-.1-.3v-.3l-.2-.6c-.1-.2-.1-.4-.1-.5 0-.1.1-.2.1-.3l.2-.4v.1l.2-1v-2.8c0-.6.1-1.2.2-1.9.2-.4.3-.9.4-1.4.1-.5.2-1 .2-1.5-.1-.3-.1-.6-.1-.8v-.8l.1-.5.1-.6.1-.6v-1.1c0-.3.1-.5.2-.7.3-.3.6-.7.6-1.2 0-.3-.1-.7-.2-1l-.1-.4v-.2l.2-.6v-.5c-.1-.1-.1-.3 0-.4V246.3c.1-.4.1-.7.1-1.1v-.4l.7-2.5.5-1.2.4-.6v.1l.8-.8h-.1l.5-.5c.2-.2.4-.3.7-.4l.3-.4c0 .1 0 .1 0 0l.1-.1.1-.2.3-.3z"/></svg>