<?xml version="1.0"?>
<svg width="991" height="1066" xmlns="http://www.w3.org/2000/svg" xmlns:svg="http://www.w3.org/2000/svg" preserveAspectRatio="xMidYMid meet" version="1.0">
 <g class="layer">
  <title>Layer 1</title>
  <g fill="#000000" id="svg_1" transform="matrix(1 0 0 1 0 0) matrix(0.1 0 0 -0.1 0 0)">
   <path d="m3998,-240c-67,-11 -84,-19 -157,-73c-39,-29 -97,-55 -205,-93c-239,-83 -267,-99 -309,-178c-21,-39 -22,-50 -19,-253c2,-117 1,-217 -3,-222c-11,-18 -37,1 -194,142c-180,160 -247,199 -374,218c-167,25 -287,-19 -434,-156c-236,-221 -353,-466 -313,-660c23,-114 53,-160 192,-296l129,-126l-104,-189c-58,-104 -138,-252 -179,-329c-93,-175 -95,-177 -290,-199c-178,-20 -234,-49 -282,-143c-24,-48 -83,-262 -91,-330c-7,-57 -39,-143 -54,-143c-5,0 -20,-11 -35,-25l-26,-24l0,-180c0,-101 4,-182 9,-186c5,-3 23,-40 39,-83c27,-68 33,-108 56,-347c27,-279 36,-353 57,-492c12,-74 11,-91 -5,-155c-18,-72 -18,-75 4,-198c26,-144 38,-171 116,-266c39,-47 81,-119 132,-223c116,-239 142,-259 319,-242c54,5 100,7 101,6c2,-2 -14,-26 -36,-54c-112,-141 -109,-321 7,-507l40,-64l-62,0c-72,0 -109,-18 -153,-75c-16,-20 -76,-76 -133,-126c-136,-116 -161,-151 -172,-237c-11,-90 -11,-246 1,-361c13,-116 43,-177 115,-232c70,-52 144,-84 394,-170c118,-40 223,-81 233,-91c16,-16 18,-32 16,-106l-3,-87l-245,-3c-192,-2 -298,2 -490,20c-452,41 -812,26 -993,-42c-185,-69 -308,-239 -294,-407c15,-187 53,-333 127,-490c141,-299 374,-644 691,-1023c134,-160 635,-733 720,-822l36,-38l216,0c175,0 217,3 217,13c0,26 -186,283 -255,352c-81,81 -270,247 -686,601c-405,346 -472,420 -600,669c-131,253 -208,463 -209,572c0,27 5,33 32,42c18,5 79,13 135,16c88,6 150,23 133,37c-3,3 -63,17 -135,32c-174,36 -187,49 -139,144c38,77 106,146 176,181c64,33 120,43 86,17c-18,-13 -25,-86 -12,-120c12,-32 96,-17 113,20c18,40 13,51 -36,86l-48,33l65,12c79,15 286,16 452,3c135,-10 580,-37 723,-43c163,-7 223,-60 285,-252c12,-38 51,-150 86,-247c35,-97 64,-186 64,-198c0,-24 -6,-27 -310,-151c-124,-50 -234,-96 -245,-102c-19,-10 -19,-11 6,-19c19,-6 82,4 230,36c407,88 413,89 463,39c46,-46 31,-71 -79,-137c-77,-45 -122,-82 -112,-92c4,-4 62,4 130,19c193,43 236,36 337,-58c155,-145 442,-319 680,-413c434,-172 997,-251 1496,-212c758,60 1248,232 1669,585c118,99 181,130 260,129c33,-1 77,-8 98,-17c44,-19 167,-34 167,-21c0,5 -50,43 -111,84c-61,41 -113,78 -115,82c-9,14 17,49 49,68c44,27 70,26 273,-20c229,-52 415,-83 427,-71c13,13 -44,41 -313,148c-129,52 -242,100 -249,108c-17,17 -14,28 62,230c25,66 62,172 81,235c41,133 69,179 130,215c58,34 135,42 511,55c165,5 416,15 558,22c182,8 261,8 268,1c8,-8 3,-22 -15,-49c-32,-48 -32,-55 0,-93c44,-53 124,-34 124,29c0,15 -17,42 -42,68l-43,45l30,-7c130,-29 295,-181 295,-271c0,-48 -29,-66 -162,-99c-67,-17 -123,-36 -125,-42c-3,-8 36,-15 114,-23c181,-19 177,-17 181,-79c3,-47 -7,-73 -99,-284c-178,-408 -246,-525 -384,-663c-97,-96 -306,-272 -700,-586c-258,-207 -303,-254 -479,-504l-105,-150l197,-3c120,-2 211,1 234,8c30,8 72,49 223,218c103,114 301,347 441,517c548,671 716,912 827,1190c143,358 134,590 -28,744c-87,83 -219,134 -410,161c-90,12 -398,13 -540,0c-119,-10 -533,-35 -761,-46c-183,-9 -184,-8 -184,94c0,97 6,117 35,130c13,6 92,32 176,57c316,96 487,196 536,314c21,49 20,484 0,534c-8,18 -48,62 -88,98c-41,35 -114,105 -164,155c-49,51 -100,97 -111,103c-12,6 -47,14 -78,17c-31,4 -56,8 -56,10c0,2 18,31 39,64c106,164 109,350 7,483c-55,73 -61,68 76,65c109,-3 127,-1 158,18c51,30 100,107 166,261c50,120 65,144 121,203c59,63 64,72 88,161c23,88 25,109 23,304c-2,179 2,241 26,420c15,116 31,271 36,347c10,159 19,196 60,262c29,46 32,56 37,170c7,157 -6,224 -52,264c-18,16 -38,38 -43,48c-5,11 -30,103 -56,205c-55,225 -68,260 -113,300c-48,42 -69,48 -223,69c-160,22 -212,40 -239,84c-51,82 -332,593 -337,612c-5,18 20,47 129,155c163,162 188,206 195,339c3,74 0,97 -27,180c-17,52 -52,133 -78,179c-82,145 -248,303 -392,374c-63,31 -71,32 -181,31c-179,-1 -260,-39 -437,-206c-155,-146 -200,-181 -207,-162c-3,9 -6,106 -6,217c0,112 -5,219 -11,240c-13,46 -69,112 -118,137c-20,10 -106,40 -192,68c-181,58 -204,68 -245,115c-26,30 -40,36 -104,47c-94,16 -290,8 -348,-13c-37,-14 -81,-16 -320,-11c-152,3 -396,1 -542,-4c-256,-9 -267,-9 -310,11c-52,23 -223,32 -322,17zm244,-87c38,-43 30,-118 -15,-147c-28,-19 -131,-31 -181,-22c-51,10 -106,66 -106,110c0,47 20,59 109,67c144,12 177,10 193,-8zm1600,-4c45,-24 39,-95 -12,-141c-25,-24 -39,-28 -86,-28c-128,0 -189,38 -189,117c0,69 16,76 154,68c63,-3 123,-11 133,-16zm-572,-29c112,-12 190,-28 190,-41c0,-5 -233,-9 -556,-9c-341,0 -553,4 -549,9c7,13 95,30 197,40c120,12 607,12 718,1zm-1424,-91c9,-15 -5,-23 -109,-60c-64,-23 -95,-41 -117,-66c-39,-44 -38,-68 8,-113c30,-30 59,-44 155,-75c92,-29 117,-41 117,-55c0,-25 -32,-80 -47,-80c-21,0 -295,110 -365,147c-104,55 -119,102 -52,164c65,61 244,127 396,148c4,1 10,-4 14,-10zm2312,-21c136,-41 272,-130 272,-178c0,-70 -253,-202 -431,-226c-41,-5 -47,-3 -78,30l-34,35l24,10c14,5 58,19 99,31c115,34 197,76 215,110c32,62 0,99 -120,143c-123,45 -135,51 -135,65c0,19 95,9 188,-20zm-616,-89c137,-17 174,-19 272,-10c109,11 117,10 202,-15c49,-14 93,-29 97,-33c5,-5 -42,-25 -105,-46c-124,-41 -142,-41 -252,-4c-49,17 -79,20 -148,17c-82,-4 -92,-7 -204,-64l-117,-59l-396,0l-396,0l-64,43c-89,59 -153,76 -265,69c-50,-3 -120,-15 -156,-27c-55,-18 -72,-19 -115,-10c-84,18 -205,61 -205,74c0,6 19,16 43,22c23,6 71,19 107,29c63,18 67,18 124,0c63,-20 70,-20 421,20c70,8 272,13 554,14c394,1 462,-1 603,-20zm147,-184c86,-22 159,-109 181,-212c14,-67 -47,-388 -79,-414c-25,-20 -258,-37 -300,-23c-29,10 -60,87 -107,259c-29,110 -30,158 -4,228c32,84 73,125 155,153c83,28 84,28 154,9zm-1395,-22c60,-20 104,-59 132,-115c34,-67 40,-137 19,-218c-34,-135 -86,-288 -101,-301c-12,-10 -41,-10 -151,0c-75,7 -146,17 -158,23c-19,8 -26,30 -51,146c-33,158 -37,284 -11,343c57,128 176,173 321,122zm-836,-76c26,-13 112,-46 192,-73c100,-33 155,-57 179,-78l34,-31l-34,-7c-19,-5 -65,-5 -103,-2c-74,7 -87,-8 -19,-21c47,-8 121,-40 146,-63c25,-22 43,-59 50,-102c13,-68 7,-68 -199,-1c-104,35 -204,69 -222,77c-60,26 -104,166 -88,278c4,25 9,46 12,46c3,0 26,-11 52,-23zm2956,14c11,-18 9,-197 -3,-233c-22,-67 -62,-90 -276,-162c-109,-36 -202,-63 -206,-60c-12,7 -11,51 1,96c20,72 64,105 185,142l50,15l-102,-5c-97,-5 -103,-4 -103,14c0,10 8,26 18,35c14,13 401,165 424,167c4,0 9,-4 12,-9zm-1124,-76c0,-22 -8,-43 -20,-55c-19,-19 -33,-20 -362,-20c-385,0 -378,-1 -378,72l0,38l380,0l380,0l0,-35zm1710,25c17,-12 -25,-55 -194,-197c-103,-86 -132,-98 -171,-69c-18,13 -14,19 64,102c102,108 149,144 210,160c57,16 72,16 91,4zm-4057,-12c43,-22 210,-184 223,-215c18,-43 19,-41 -21,-49c-31,-5 -41,-1 -102,47c-113,88 -243,200 -243,209c0,20 109,26 143,8zm4263,-77c88,-40 189,-193 188,-285c0,-63 -22,-106 -109,-217c-75,-96 -94,-109 -127,-86c-16,11 -342,292 -396,342c-7,6 275,216 322,240c59,30 69,30 122,6zm-4412,-49c91,-61 262,-192 259,-198c-4,-9 -345,-309 -378,-332c-21,-15 -41,-21 -53,-18c-22,7 -139,160 -172,225c-43,86 -5,226 86,317c78,79 150,80 258,6zm2454,-63c32,-11 47,-40 29,-58c-8,-8 -127,-11 -374,-11c-329,0 -364,2 -370,17c-4,10 3,24 21,40l27,23l318,0c199,0 329,-4 349,-11zm2336,-173c33,-66 48,-143 35,-188c-15,-55 -53,-105 -219,-284c-165,-178 -185,-202 -177,-211c14,-13 393,326 440,395c60,85 71,166 38,271c-22,72 -9,81 21,14c41,-93 34,-231 -17,-333c-29,-57 -143,-167 -350,-337c-88,-72 -172,-144 -187,-159c-41,-44 -95,-139 -118,-210c-41,-122 -74,-137 -183,-83c-86,43 -124,74 -147,119c-26,51 -25,74 5,138c55,118 130,193 283,281c95,55 187,143 312,297c134,164 155,206 155,304c0,41 -4,89 -8,105c-8,29 -7,28 41,-19c27,-26 61,-71 76,-100zm-5229,117c-15,-34 -17,-144 -5,-189c17,-60 69,-132 217,-300c128,-146 166,-178 269,-233c86,-45 165,-119 224,-209c73,-111 77,-160 20,-226c-36,-41 -178,-117 -221,-118c-41,-1 -53,13 -88,110c-52,143 -137,243 -326,382c-145,106 -303,269 -346,355c-29,60 -34,79 -33,145c0,61 5,87 28,138c16,34 31,61 33,58c2,-2 -3,-30 -13,-61c-23,-79 -16,-159 18,-209c98,-144 447,-472 473,-444c2,2 -77,91 -174,199c-199,221 -225,263 -225,364c1,76 28,139 90,205c47,51 72,65 59,33zm2330,-114c60,-8 154,-9 285,-4c107,4 233,8 280,8l85,2l9,-47c15,-76 18,-75 -240,-83c-290,-9 -538,-10 -591,0c-41,6 -43,9 -43,40c0,74 33,109 95,100c17,-2 70,-9 120,-16zm1919,-58c88,-31 161,-78 235,-151c76,-75 117,-132 137,-190c21,-61 -5,-114 -82,-171c-107,-78 -152,-119 -187,-172c-70,-106 -97,-247 -61,-323c32,-68 167,-151 286,-176c98,-21 140,12 198,157c67,163 131,205 237,154c121,-59 214,-262 215,-474c1,-119 -14,-177 -81,-320c-37,-79 -58,-110 -98,-145c-46,-41 -53,-53 -77,-133c-44,-144 -48,-184 -31,-266c21,-102 19,-183 -15,-519c-35,-343 -51,-460 -79,-570c-51,-197 -47,-285 17,-387l37,-60l-1,-180c0,-195 -9,-254 -51,-343c-34,-73 -138,-177 -218,-219c-147,-77 -407,-160 -559,-178l-60,-7l55,62c323,369 503,718 618,1200c64,267 81,565 47,790c-36,237 -126,540 -216,726c-53,110 -165,282 -231,354l-41,45l25,-45c13,-25 43,-76 65,-115c148,-260 262,-563 307,-815c58,-333 3,-792 -142,-1179c-109,-291 -258,-526 -499,-786c-159,-171 -228,-233 -292,-263c-52,-23 -58,-24 -180,-16c-157,10 -237,7 -327,-13c-129,-29 -192,-70 -238,-157c-31,-58 -31,-191 0,-258c49,-106 178,-196 313,-217c82,-14 481,-14 750,-1c113,6 316,22 453,36c248,25 335,28 340,9c1,-5 -39,-17 -90,-26l-92,-15l-58,-62c-67,-70 -135,-106 -233,-121c-36,-6 -210,-24 -387,-41c-364,-35 -368,-34 -429,37c-28,33 -36,37 -92,41c-92,7 -126,-3 -169,-49c-83,-88 -88,-89 -792,-89l-504,-1l-54,27c-32,15 -63,40 -76,60c-28,42 -55,54 -123,54c-68,0 -109,-17 -154,-64c-46,-48 -92,-60 -183,-47c-40,6 -182,22 -317,36c-384,39 -407,46 -519,148c-72,67 -78,69 -193,83c-49,5 -58,9 -58,26c0,19 6,20 103,16c56,-3 163,-14 237,-26c227,-35 340,-43 730,-49c413,-6 485,0 594,52c68,32 148,103 183,162c36,61 44,181 18,250c-24,62 -84,126 -143,151c-60,25 -121,32 -378,40c-193,7 -213,9 -259,32c-58,28 -274,239 -379,370c-427,533 -621,1197 -530,1814c45,308 174,644 355,927c27,42 49,80 49,85c0,22 -90,-82 -152,-176c-209,-313 -341,-750 -355,-1166c-13,-402 74,-776 280,-1194c77,-156 139,-249 316,-470c77,-96 138,-176 136,-178c-6,-6 -176,28 -290,58c-248,66 -441,174 -520,293c-72,108 -80,147 -79,378l1,205l38,69c34,60 39,78 43,150c5,88 -15,256 -53,455c-13,69 -40,262 -61,429c-35,292 -36,306 -21,350c37,104 32,184 -23,355c-27,85 -33,95 -87,142c-69,60 -102,118 -139,239c-37,123 -40,286 -7,390c28,89 84,184 146,246c115,117 214,81 285,-104c38,-97 60,-130 105,-153c113,-59 373,82 393,213c25,165 -55,312 -232,426c-90,57 -114,87 -114,142c0,62 52,157 125,229c66,66 139,113 237,154c57,24 74,27 183,26c104,-1 146,-7 319,-47c138,-32 205,-52 220,-66c39,-37 124,-72 203,-83c66,-10 95,-9 193,7c162,27 967,34 1094,10c100,-18 212,-19 326,-2c71,11 93,19 131,48c69,53 136,77 317,114c198,41 316,42 416,6zm-4501,-1461c51,-57 109,-162 142,-260c23,-66 23,-69 5,-75c-33,-11 -87,21 -125,74c-20,28 -38,51 -40,51c-1,0 2,-23 7,-51c5,-28 8,-52 6,-54c-2,-1 -26,-5 -55,-9c-70,-9 -83,5 -181,196c-93,181 -99,159 53,182c110,16 131,10 188,-54zm5865,49c34,-6 62,-16 62,-23c0,-6 -37,-84 -82,-173c-92,-180 -102,-191 -171,-172c-57,15 -55,12 -47,64c4,25 6,45 4,45c-1,0 -15,-20 -30,-44c-15,-24 -40,-51 -55,-60c-35,-20 -78,-21 -86,0c-9,24 62,192 116,274c74,113 100,121 289,89zm-6315,-40c26,-12 87,-108 166,-260l45,-86l-28,-48l-28,-48l-42,81c-54,103 -87,146 -125,162c-60,25 -106,-34 -134,-172c-22,-103 -38,-140 -56,-129c-20,13 0,191 33,297c29,89 82,180 117,200c29,16 24,16 52,3zm6591,-18c22,-20 62,-97 87,-168c24,-70 53,-264 45,-298c-13,-52 -31,-17 -62,118c-17,75 -37,144 -45,153c-21,26 -59,36 -89,24c-24,-10 -82,-87 -132,-177c-12,-24 -28,-43 -33,-43c-23,0 -55,32 -55,56c0,30 121,271 158,315c42,51 83,57 126,20zm-5958,-411c42,0 77,-5 88,-13c12,-9 28,-54 47,-133c29,-121 35,-170 21,-190c-9,-15 -77,-48 -227,-114c-113,-49 -123,-52 -182,-47c-158,15 -252,108 -260,261c-5,86 10,115 90,175c84,63 114,72 242,66c61,-3 142,-5 181,-5zm5601,-10c58,-26 139,-104 153,-146c22,-65 -22,-227 -73,-270c-43,-36 -108,-63 -171,-70c-46,-6 -64,-1 -163,39c-225,93 -263,119 -263,187c0,43 47,241 61,255c11,11 141,20 309,23c85,1 113,-2 147,-18zm-6217,-67c6,-21 17,-85 25,-143c20,-140 47,-225 90,-285c19,-28 38,-63 41,-80c12,-68 72,-720 67,-734c-3,-9 -20,-45 -36,-81c-43,-91 -49,-215 -17,-322c12,-40 28,-85 35,-99c8,-14 17,-59 20,-100c5,-65 3,-77 -14,-99l-20,-25l-22,21c-27,27 -67,190 -154,619c-85,425 -88,459 -80,875c8,413 16,487 52,490c1,0 7,-17 13,-37zm6530,-10c16,-70 32,-504 25,-673c-8,-189 -27,-329 -76,-580c-134,-683 -172,-793 -223,-643c-24,69 -20,91 27,184l42,84l0,126l0,125l-37,72c-26,48 -38,85 -38,112c0,49 55,558 71,650c7,42 25,93 54,145c43,79 65,161 80,295c8,74 33,150 50,150c8,0 18,-20 25,-47zm-6745,-106c33,-33 65,-115 65,-167c0,-77 -43,-120 -119,-120c-62,0 -76,34 -72,174c2,130 9,146 57,146c27,0 44,-8 69,-33zm7025,-105c0,-170 -8,-187 -79,-179c-80,9 -115,79 -93,184c19,90 63,132 140,133l32,0l0,-138zm-1012,-178c31,-21 29,-39 -23,-399c-43,-291 -65,-395 -85,-395c-42,0 -25,448 27,700c23,113 35,127 81,94zm-5056,-25c15,-19 25,-90 55,-364c36,-341 38,-415 8,-415c-35,0 -47,51 -90,353c-62,442 -59,400 -34,431c24,31 35,30 61,-5zm-149,-86c18,-150 59,-635 53,-640c-3,-3 -26,-7 -51,-7c-71,-2 -74,3 -101,245c-36,319 -40,392 -22,407c16,12 85,40 104,41c6,1 14,-20 17,-46zm5380,25c45,-18 49,-43 32,-227c-34,-359 -42,-414 -67,-434c-16,-14 -32,-17 -57,-13c-44,7 -53,21 -47,76c3,25 15,155 26,290c20,238 28,307 37,323c5,8 27,4 76,-15zm758,-214c-21,-245 -79,-664 -96,-691c-18,-27 -41,-26 -38,3c1,10 21,215 44,454c25,256 47,438 53,442c7,5 18,-8 29,-33c17,-38 18,-52 8,-175zm-6406,200c8,-4 22,-18 29,-33c18,-34 81,-568 72,-604c-5,-21 -18,-34 -52,-49c-25,-11 -47,-18 -49,-16c-4,3 -75,662 -75,691c0,18 42,23 75,11zm5891,-27c15,-31 14,-47 -10,-233c-14,-109 -31,-254 -37,-321c-7,-68 -16,-123 -21,-123c-6,0 -25,7 -43,16c-58,27 -59,40 -25,334c16,146 30,271 30,279c0,15 66,81 81,81c5,0 16,-15 25,-33zm-6418,-19c6,-18 30,-219 53,-446c34,-329 40,-415 30,-425c-18,-17 -46,21 -55,74c-48,300 -87,762 -68,803c16,35 28,33 40,-6zm892,-728c147,-24 174,-33 189,-66c16,-35 15,-285 -1,-306c-17,-21 -282,-96 -368,-104c-169,-16 -274,75 -273,236c1,110 50,196 137,236c65,30 146,31 316,4zm5406,-1c114,-43 161,-124 152,-260c-7,-88 -39,-138 -116,-182c-86,-48 -158,-48 -318,-3c-197,57 -193,55 -209,86c-21,40 -21,247 0,295c18,43 38,51 173,69c166,21 252,20 318,-5zm-6160,-242c1,-1 16,-35 34,-76c57,-131 52,-169 -28,-225c-68,-47 -86,-30 -116,111c-24,107 -21,132 17,171c26,27 37,32 61,28c16,-4 30,-7 32,-9zm6709,-22c14,-13 25,-36 25,-50c0,-33 -41,-238 -49,-248c-12,-12 -110,43 -132,74c-45,63 -34,151 26,214c41,44 93,48 130,10zm-929,-256c22,-25 118,-459 104,-473c-11,-11 -64,71 -91,143c-29,79 -71,334 -56,343c18,11 22,10 43,-13zm-4935,-219c-20,-95 -101,-264 -117,-247c-8,8 42,262 67,344c12,38 29,82 38,98c16,30 16,30 19,-59c2,-50 -2,-111 -7,-136zm-407,189c50,-23 50,-50 6,-228c-47,-186 -77,-262 -113,-286c-24,-15 -28,-15 -61,0c-67,32 -162,181 -211,331c-29,90 -29,90 -10,98c11,4 23,-12 45,-60c37,-83 61,-115 116,-160l45,-37l30,34c44,49 66,104 89,214c11,53 20,99 20,101c0,7 19,4 44,-7zm5791,-76c26,-128 40,-161 89,-213l44,-47l52,51c32,32 66,79 88,126c22,44 43,75 52,75c28,0 11,-55 -66,-212c-74,-151 -132,-233 -167,-233c-28,0 -77,51 -107,111c-42,82 -70,189 -77,295c-5,84 -4,93 16,113c42,42 56,30 76,-66zm-5575,60c0,-4 -21,-77 -46,-162c-57,-191 -107,-316 -125,-316c-17,0 -18,-1 37,225c51,215 60,239 88,250c26,11 46,12 46,3zm5353,-13c22,-17 33,-50 78,-235c40,-165 50,-218 41,-227c-6,-6 -13,-10 -15,-7c-2,2 -39,106 -81,231c-87,253 -90,291 -23,238zm-54,-570c58,-29 131,-173 131,-258c-1,-174 -309,-353 -836,-486c-77,-19 -152,-40 -165,-45c-95,-36 213,-16 435,29c95,20 153,27 159,21c11,-11 13,-10 -228,-70c-374,-93 -493,-106 -965,-106c-323,0 -384,2 -443,17c-128,33 -204,84 -244,161c-51,102 -27,218 59,274l42,28l525,0c568,1 583,2 804,60c116,30 197,58 398,137c206,80 255,120 274,221c4,20 9,37 12,37c2,0 21,-9 42,-20zm-5231,-58c22,-37 49,-75 60,-85c23,-21 369,-163 503,-205c224,-72 237,-73 851,-82l557,-7l48,-24c65,-32 95,-87 96,-172c1,-127 -79,-211 -248,-264c-54,-16 -95,-18 -385,-16c-358,1 -624,15 -770,39c-120,20 -439,99 -451,111c-5,5 98,-6 228,-24c262,-37 344,-43 350,-28c4,14 -24,24 -262,89c-337,92 -424,129 -626,261c-149,98 -172,153 -124,301c31,95 73,160 107,167c13,2 24,5 24,6c1,0 20,-29 42,-67zm-10,-711c7,-9 12,-46 12,-96c0,-97 25,-157 80,-192c80,-50 75,-41 60,-126c-17,-99 -9,-151 26,-188c43,-45 83,-53 254,-53c210,0 235,14 255,147l7,48l37,-5c50,-8 709,-86 725,-86c9,0 15,-25 19,-86c9,-146 41,-167 257,-167c100,-1 150,4 192,16c69,21 83,42 91,135c3,35 7,65 9,67c2,3 252,7 556,11c425,6 554,4 566,-5c8,-7 17,-35 21,-64c4,-29 14,-64 21,-79c27,-53 133,-89 262,-89c111,0 176,17 217,55c34,32 35,35 35,109c0,68 2,78 23,91c29,20 724,97 749,84c10,-5 20,-20 23,-33c3,-14 7,-36 10,-50c3,-14 18,-39 33,-56c26,-29 35,-32 122,-41c52,-5 136,-7 186,-3c112,8 147,26 176,92c21,47 21,72 2,194c-6,35 -4,39 50,78c83,61 91,78 91,189c1,90 2,95 28,118c16,13 32,24 36,24c4,0 2,-33 -5,-72c-7,-40 -13,-101 -13,-135c-1,-55 3,-67 27,-94c25,-28 35,-32 111,-40c46,-4 138,-4 203,0c132,10 159,21 189,78l16,31l31,-20c35,-22 48,-54 38,-92c-8,-33 -147,-136 -260,-193c-120,-60 -317,-124 -497,-162c-320,-66 -1040,-163 -1340,-180c-564,-32 -1795,-39 -2169,-12c-699,51 -1484,174 -1773,278c-138,49 -361,175 -415,234c-32,33 -28,73 11,116l33,36l21,-36c30,-49 64,-69 147,-84c155,-27 301,-9 354,44l25,25l-7,141c-7,135 -7,140 11,127c10,-8 24,-21 31,-29zm-186,-151c13,-16 17,-32 13,-49c-12,-49 -34,-61 -121,-63c-96,-3 -114,7 -114,62c0,30 6,43 28,60c23,19 37,21 101,18c63,-3 76,-7 93,-28zm5748,20c33,-17 43,-47 30,-85l-12,-35l-101,6c-75,5 -105,11 -114,22c-19,24 -16,43 14,74c24,25 33,28 96,28c37,0 77,-5 87,-10zm-5078,-340c71,-20 77,-81 13,-117c-69,-39 -194,-26 -203,21c-6,31 18,74 51,90c37,18 87,20 139,6zm4360,1c19,-1 48,-49 48,-80c0,-38 -26,-51 -107,-51c-83,0 -130,19 -139,56c-7,27 11,63 36,72c17,6 109,8 162,3zm858,-110c0,-49 -456,-214 -771,-280c-220,-45 -748,-129 -1464,-231c-121,-18 -227,-36 -235,-41c-10,-7 48,-8 170,-4c687,21 1436,112 1985,242c114,26 177,48 264,89c62,30 117,54 122,54c26,0 -1,-24 -83,-74c-242,-145 -502,-213 -1233,-320c-437,-64 -558,-72 -1655,-106c-184,-6 -347,-13 -361,-16c-49,-10 -1180,53 -1464,81c-580,58 -1119,176 -1386,303c-81,39 -185,109 -176,119c3,2 55,-19 117,-47c160,-73 378,-126 845,-204c411,-68 707,-100 1095,-115c140,-6 305,-13 367,-17c68,-3 113,-2 117,5c8,12 -17,17 -194,36c-919,100 -1744,258 -2056,393c-91,39 -210,109 -201,118c2,3 103,-24 224,-60c357,-105 750,-183 1213,-240c546,-67 726,-76 1596,-76c885,0 1154,14 1774,91c521,64 782,119 1145,238c211,70 245,79 245,62zm-3854,-64c31,-36 30,-58 -2,-88c-24,-22 -33,-24 -121,-22c-53,1 -98,4 -100,7c-12,12 12,92 34,114c22,22 31,24 95,20c62,-3 73,-7 94,-31zm1683,16c32,-27 38,-76 12,-102c-17,-17 -33,-21 -87,-21c-56,0 -72,4 -105,28c-21,15 -39,30 -39,34c0,4 15,23 34,42c32,34 37,36 99,36c47,0 71,-5 86,-17zm1306,-668c101,-42 141,-167 111,-341c-33,-192 -103,-362 -223,-544c-279,-422 -638,-702 -1093,-854c-173,-58 -327,-88 -625,-125c-234,-28 -246,-29 -515,-20c-427,13 -676,53 -981,158c-298,103 -529,248 -752,474c-337,342 -525,707 -530,1027c-2,124 29,177 128,221c45,20 60,21 180,15c71,-3 195,-13 275,-21c192,-20 600,-32 1610,-46c1023,-14 1382,-4 2040,56c257,23 320,23 375,0z" fill="#1b4266" id="svg_2"/>
   <path d="m6955,-2280c-17,-19 -17,-22 -3,-37c15,-14 19,-14 48,7c29,21 30,23 13,36c-25,19 -37,17 -58,-6z" fill="#1b4266" id="svg_3"/>
   <path d="m2992,-2210c11,-44 32,-50 52,-17c9,15 7,22 -13,38c-39,32 -50,25 -39,-21z" fill="#1b4266" id="svg_4"/>
   <path d="m4340,-1779c0,-18 268,-36 520,-35c176,0 305,6 415,18c88,10 162,20 164,22c2,2 -244,4 -547,4c-309,0 -552,-4 -552,-9z" fill="#1b4266" id="svg_5"/>
   <path d="m4000,-2136c-66,-22 -100,-37 -100,-46c0,-5 8,-7 18,-4c9,2 62,12 117,22c70,12 94,19 80,25c-22,8 -92,10 -115,3z" fill="#1b4266" id="svg_6"/>
   <path d="m5700,-2138c0,-11 10,-14 130,-32c82,-12 80,-13 80,4c0,9 -18,16 -57,20c-32,4 -79,10 -105,13c-31,4 -48,2 -48,-5z" fill="#1b4266" id="svg_7"/>
   <path d="m4690,-2356c-186,-10 -338,-46 -553,-130c-77,-30 -152,-54 -167,-54c-15,0 -47,9 -71,20c-56,25 -92,25 -145,-1c-61,-29 -511,-474 -520,-513c-4,-17 -1,-47 6,-70c7,-23 14,-70 14,-106c1,-60 -4,-75 -66,-205c-68,-144 -104,-250 -135,-403c-14,-69 -18,-136 -18,-332c0,-214 3,-259 22,-356c27,-130 70,-265 124,-385c44,-99 49,-145 19,-210c-22,-50 -25,-91 -7,-132c17,-40 444,-483 482,-502c41,-19 88,-19 159,-1c64,17 76,14 196,-42c121,-57 305,-119 445,-148c99,-21 158,-27 330,-31c393,-10 688,45 986,183c130,61 169,66 243,33l46,-20l52,28c61,33 112,80 322,301c102,107 159,175 166,199c12,33 11,58 -6,204c-6,51 -2,68 34,160c91,234 130,420 139,654c11,325 -39,566 -177,854c-66,136 -72,173 -40,234c42,78 41,80 -182,305c-112,112 -233,231 -271,263c-61,53 -72,59 -113,59c-25,0 -62,-9 -84,-20c-56,-29 -86,-25 -207,24c-284,116 -388,137 -708,141c-137,1 -279,1 -315,-1zm455,-84c190,-22 387,-76 565,-154c172,-76 224,-125 148,-140c-25,-5 -56,5 -157,53c-261,121 -424,160 -713,168c-347,10 -604,-42 -886,-178c-112,-54 -155,-60 -160,-22c-5,31 45,65 174,119c317,132 705,191 1029,154zm-9,-150c216,-18 367,-58 559,-150c150,-71 144,-63 101,-148c-20,-40 -41,-72 -46,-72c-5,0 -58,19 -117,41c-292,112 -382,134 -603,150c-345,24 -621,-32 -889,-180c-29,-16 -60,-27 -68,-24c-17,7 -73,118 -73,145c0,22 39,49 135,93c284,129 610,176 1001,145zm-1303,-32c-16,-47 -2,-90 91,-276c53,-106 96,-204 96,-219c0,-20 -19,-45 -73,-100c-94,-93 -103,-94 -240,-14c-56,32 -134,77 -173,100c-50,29 -89,43 -132,49c-34,5 -65,11 -68,14c-25,26 175,248 332,368c50,40 151,99 167,100c5,0 5,-10 0,-22zm2268,-30c132,-92 389,-366 389,-413c0,-6 -16,-9 -38,-7c-61,6 -113,-14 -214,-80c-113,-74 -212,-122 -253,-122c-33,0 -102,43 -154,95c-47,46 -42,73 47,249c49,98 86,187 101,243c13,51 28,87 35,87c7,0 46,-23 87,-52zm-881,-222c102,-19 173,-39 260,-73c72,-28 170,-83 170,-95c0,-5 -46,-8 -103,-8c-189,0 -287,-42 -444,-192c-108,-104 -109,-104 -164,-67c-25,18 -26,17 -61,-7c-48,-34 -65,-28 -152,59c-159,157 -239,194 -441,205l-120,7l60,36c114,69 301,127 480,148c113,14 413,6 515,-13zm-826,-276c104,-26 174,-69 273,-164c62,-59 83,-85 83,-105c0,-38 -600,-638 -649,-647c-32,-7 -37,-3 -110,74c-121,126 -180,261 -181,413c0,111 37,183 117,223c17,8 62,50 100,92c117,130 201,157 367,114zm1300,-14c25,-15 65,-50 87,-79c22,-29 73,-77 112,-107c103,-81 112,-100 111,-240c-1,-175 -34,-249 -187,-411l-88,-93l-325,325c-181,181 -327,335 -331,348c-5,21 7,37 88,115c142,138 239,179 405,173c67,-3 89,-8 128,-31zm-2219,-46c3,-5 -8,-31 -24,-57c-60,-97 -142,-280 -162,-361c-11,-46 -19,-86 -16,-88c4,-5 65,115 199,394c40,82 60,88 148,39c78,-42 83,-59 41,-125c-87,-136 -158,-318 -193,-494c-17,-89 -22,-147 -21,-273c0,-240 37,-391 150,-615c72,-143 75,-128 -41,-186c-37,-20 -75,-33 -83,-30c-8,3 -37,54 -64,113c-117,251 -163,345 -167,335c-7,-22 31,-137 92,-279c71,-166 83,-207 65,-219c-27,-17 -109,117 -174,284c-153,396 -152,848 2,1237c50,126 121,260 166,311c32,36 42,42 57,34c10,-6 21,-14 25,-20zm2949,5c29,-32 145,-257 179,-350c134,-361 141,-767 21,-1140c-36,-111 -130,-300 -161,-325c-57,-45 -54,-26 28,187c55,141 94,274 87,294c-2,4 -43,-83 -93,-193c-119,-265 -117,-262 -148,-266c-21,-3 -137,53 -175,83c-2,2 22,53 53,115c63,125 115,272 142,400c21,102 24,370 4,469c-34,171 -102,352 -190,506c-28,48 -51,91 -51,94c0,6 34,27 112,68c38,20 51,22 68,13c12,-7 63,-95 130,-228c104,-208 126,-236 96,-127c-21,80 -61,170 -127,287c-59,104 -61,110 -43,123c27,21 42,18 68,-10zm-2695,-395c-1,-189 53,-302 234,-487l70,-71l-81,-81c-162,-162 -226,-296 -226,-468c0,-51 -3,-93 -7,-93c-4,0 -21,17 -37,38c-94,119 -144,320 -144,582c-1,270 52,489 152,634c17,25 33,46 35,46c2,0 4,-45 4,-100zm1144,80c14,-11 30,-20 37,-20c7,0 23,9 37,20c14,11 35,20 46,20c23,0 632,-599 647,-635c4,-11 3,-29 -2,-40c-15,-29 -588,-604 -620,-621c-38,-20 -52,-18 -81,11l-25,26l-28,-24c-60,-49 -45,-60 -346,240c-154,153 -306,308 -338,344l-59,66l127,114c70,63 220,205 333,316c130,128 214,203 226,203c11,0 32,-9 46,-20zm1250,-18c185,-280 219,-730 82,-1072c-29,-70 -95,-190 -106,-190c-3,0 -9,53 -12,118c-3,64 -12,140 -21,168c-23,75 -88,168 -182,262c-46,46 -84,90 -84,96c0,7 39,53 88,103c153,158 197,256 196,441c0,61 3,112 6,112c4,0 19,-17 33,-38zm-1690,-1014c175,-178 321,-330 326,-338c6,-11 -16,-37 -89,-105c-159,-146 -278,-196 -431,-181c-110,10 -137,26 -219,126c-40,48 -93,105 -117,125c-79,67 -105,157 -84,295c18,113 60,188 170,302c51,54 101,98 110,98c9,1 159,-145 334,-322zm1406,232c134,-136 208,-376 152,-495c-11,-22 -41,-65 -68,-96c-26,-31 -81,-96 -121,-143c-40,-47 -82,-91 -94,-97c-11,-6 -53,-15 -92,-20c-166,-22 -319,36 -463,174c-52,50 -83,88 -83,101c0,15 99,119 327,342l328,322l28,-15c16,-8 54,-41 86,-73zm297,-684c49,-23 130,-66 179,-93c110,-62 141,-69 190,-48c21,8 40,13 42,11c3,-2 -1,-23 -8,-47c-14,-44 -62,-100 -298,-343c-91,-93 -147,-136 -178,-136c-5,0 -8,30 -8,68l0,67l-102,175c-60,101 -103,186 -103,201c0,55 127,188 181,189c8,0 56,-20 105,-44zm-2307,19c32,-16 128,-118 143,-151c9,-18 6,-31 -12,-61c-90,-148 -201,-352 -206,-377c-3,-17 -1,-44 5,-59c15,-40 -4,-35 -85,22c-130,91 -316,294 -373,408c-27,55 -27,67 0,52c45,-23 108,-5 234,66c207,118 239,129 294,100zm1260,-69c153,-144 216,-177 382,-196c52,-6 109,-13 128,-16l34,-5l-37,-26c-152,-103 -410,-163 -697,-163c-227,0 -412,32 -569,99c-73,31 -155,80 -147,87c2,3 58,9 123,14c66,6 140,17 166,26c65,21 150,78 257,173c51,45 99,81 108,81c8,0 28,-9 44,-21l29,-20l37,25c21,15 41,26 46,26c4,0 48,-38 96,-84zm766,-303c25,-43 45,-85 45,-94c0,-55 -279,-190 -514,-249c-155,-39 -324,-54 -537,-47c-359,12 -622,77 -835,205c-106,63 -111,78 -54,171c23,39 46,71 50,71c4,0 77,-34 161,-74c175,-85 300,-130 409,-147c51,-8 173,-10 380,-6c268,4 315,8 390,26c95,24 241,91 370,169c47,29 86,52 87,52c1,0 23,-35 48,-77zm-1870,-238c278,-177 680,-265 1078,-235c301,23 460,72 797,249c51,27 78,37 85,30c29,-30 -215,-166 -415,-232c-385,-128 -876,-129 -1247,-3c-124,42 -194,74 -303,136c-91,52 -126,82 -116,99c9,14 59,-5 121,-44z" fill="#1b4266" id="svg_8"/>
   <path d="m7132,-2839c-16,-10 74,-221 94,-221c8,0 14,4 14,9c0,7 -87,211 -93,217c-1,2 -8,-1 -15,-5z" fill="#1b4266" id="svg_9"/>
   <path d="m2640,-2902c-29,-52 -58,-154 -46,-165c8,-8 6,-12 55,97c57,126 55,120 37,120c-8,0 -29,-24 -46,-52z" fill="#1b4266" id="svg_10"/>
   <path d="m4537,-6007c-22,-26 -30,-67 -22,-119c5,-38 17,-56 66,-107c35,-37 59,-71 59,-84c0,-11 -27,-57 -60,-101c-72,-95 -79,-135 -31,-183c48,-47 102,-35 185,42c65,59 93,71 127,53c36,-18 49,-18 88,2c40,20 62,12 124,-46c24,-22 65,-49 91,-61c46,-20 48,-20 78,-2c17,10 40,30 51,44c27,37 17,73 -39,140c-25,29 -52,69 -60,87c-18,40 -11,55 58,131c56,61 68,86 68,137c0,47 -37,84 -84,84c-49,0 -80,-14 -149,-65c-62,-47 -106,-57 -148,-34c-16,8 -30,7 -59,-5c-50,-20 -80,-11 -176,53c-83,56 -137,67 -167,34zm176,-141c31,-19 59,-38 62,-42c2,-4 -8,-19 -23,-33l-28,-27l-68,69c-50,50 -67,74 -62,86c6,16 8,16 34,-1c15,-10 53,-33 85,-52zm492,14c-11,-18 -42,-52 -68,-76l-49,-44l-19,24c-10,14 -19,30 -19,37c0,6 35,34 78,61c85,55 111,55 77,-2zm-426,-271c0,-15 -138,-125 -156,-125c-22,0 -11,20 53,99c56,69 57,69 80,53c13,-9 23,-21 23,-27zm316,27c6,-4 36,-37 68,-73c50,-58 55,-68 42,-79c-14,-11 -25,-4 -81,51c-41,41 -64,71 -64,86c0,23 16,30 35,15z" fill="#1b4266" id="svg_11"/>
   <path d="m3685,-7956c-22,-2 -110,-11 -195,-19c-159,-16 -300,-42 -300,-57c0,-11 9,-10 250,7c276,20 465,19 780,-5c146,-11 359,-20 473,-20c289,0 885,19 982,31c204,26 622,21 880,-11c66,-8 85,-7 73,6c-3,3 -91,20 -194,37l-189,32l-440,-4c-683,-7 -1141,-7 -1630,0c-247,4 -468,5 -490,3z" fill="#1b4266" id="svg_12"/>
   <path d="m3935,-8166c-156,-24 -238,-128 -238,-304c0,-92 24,-141 113,-223c206,-194 396,-292 660,-338c310,-55 856,-24 1114,62c218,72 438,236 507,376c33,67 35,215 3,283c-27,57 -67,97 -124,124c-43,20 -57,21 -280,16c-341,-7 -1346,-6 -1550,1c-96,4 -188,5 -205,3zm1997,-102c53,-24 73,-46 93,-101c32,-93 12,-177 -62,-257c-89,-97 -219,-180 -390,-248c-163,-65 -232,-75 -579,-88c-348,-12 -477,-2 -650,47c-241,70 -476,229 -537,363c-46,101 -16,233 63,273c43,22 44,22 835,15c468,-5 646,-3 810,8c252,17 359,14 417,-12z" fill="#1b4266" id="svg_13"/>
   <path d="m4156,-8305c-3,-10 1,-15 12,-16c9,0 72,-6 139,-13c98,-10 123,-9 127,1c6,14 -9,17 -156,33c-121,13 -115,13 -122,-5z" fill="#1b4266" id="svg_14"/>
   <path d="m5493,-8304c-87,-11 -113,-19 -101,-31c5,-6 270,14 277,21c1,1 0,7 -4,13c-8,13 -50,12 -172,-3z" fill="#1b4266" id="svg_15"/>
   <path d="m3866,-8394c-14,-19 -26,-39 -26,-43c0,-5 13,-22 29,-37c33,-32 51,-30 77,9c16,24 15,27 -10,65c-14,22 -30,40 -35,40c-5,0 -20,-15 -35,-34z" fill="#1b4266" id="svg_16"/>
   <path d="m5892,-8396c-27,-19 -29,-64 -4,-87c24,-22 31,-22 76,9l38,26l-33,34c-37,38 -45,40 -77,18z" fill="#1b4266" id="svg_17"/>
   <path d="m3105,-8899c-3,-6 41,-57 98,-114c386,-386 999,-562 1836,-527c644,28 1024,125 1361,351c110,74 326,277 311,292c-7,7 -38,-16 -93,-69c-149,-143 -387,-284 -608,-362c-103,-36 -268,-75 -410,-98c-213,-33 -1250,-26 -1465,10c-347,59 -649,200 -891,415c-116,102 -131,113 -139,102z" fill="#1b4266" id="svg_18"/>
   <path d="m1932,-7981c-38,-15 -180,-149 -198,-187c-20,-43 -15,-120 14,-184c32,-72 66,-83 247,-81c232,2 263,21 272,161c4,54 2,91 -7,111c-13,33 -140,152 -187,176c-31,17 -105,19 -141,4zm142,-273c14,-8 27,-30 31,-48c6,-27 3,-35 -19,-55c-22,-18 -39,-23 -86,-23c-106,0 -145,32 -114,92c9,18 24,39 33,46c21,17 124,9 155,-12z" fill="#1b4266" id="svg_19"/>
   <path d="m7680,-8036c-45,-36 -90,-80 -100,-96c-41,-68 -36,-199 9,-250c23,-26 37,-31 116,-42c55,-8 129,-11 192,-7c114,7 144,21 176,82c25,46 19,157 -11,215c-31,60 -114,131 -175,149c-94,28 -116,23 -207,-51zm219,-209c32,-16 41,-33 41,-76c0,-25 -6,-33 -35,-45c-48,-20 -159,-19 -179,2c-32,31 -16,113 24,127c31,11 122,6 149,-8z" fill="#1b4266" id="svg_20"/>
   <path d="m1546,-8173c-44,-44 -42,-146 4,-238c28,-53 122,-134 183,-157c53,-20 147,-39 147,-29c0,2 -37,33 -82,68c-227,172 -259,225 -208,337c19,42 19,42 -1,42c-11,0 -30,-10 -43,-23z" fill="#1b4266" id="svg_21"/>
   <path d="m8229,-8181c58,-96 9,-176 -222,-361c-63,-51 -60,-55 25,-37c136,29 239,126 273,256c24,90 -1,152 -68,168l-28,7l20,-33z" fill="#1b4266" id="svg_22"/>
   <path d="m805,-8620c-25,-28 -22,-90 6,-112c33,-27 76,-23 110,11c38,38 37,53 -8,90c-43,36 -82,40 -108,11z" fill="#1b4266" id="svg_23"/>
   <path d="m8902,-8612c-13,-13 -16,-75 -6,-103c11,-27 51,-37 82,-21c63,32 74,73 34,119c-18,20 -91,24 -110,5z" fill="#1b4266" id="svg_24"/>
   <path d="m1235,-9229c-16,-11 -41,-28 -54,-39l-23,-19l43,-36c52,-45 72,-46 110,-8c37,37 38,73 3,100c-33,26 -41,26 -79,2z" fill="#1b4266" id="svg_25"/>
   <path d="m8515,-9234c-52,-52 -39,-107 27,-120c65,-13 118,84 70,127c-27,24 -69,21 -97,-7z" fill="#1b4266" id="svg_26"/>
   <path d="m2332,-9320c-83,-38 -72,-57 13,-24c36,13 67,24 70,24c2,0 2,7 -1,15c-8,19 -8,19 -82,-15z" fill="#1b4266" id="svg_27"/>
   <path d="m7400,-9300c0,-10 121,-70 141,-70c5,0 9,6 9,13c0,7 -29,25 -65,40c-72,30 -85,32 -85,17z" fill="#1b4266" id="svg_28"/>
   <path d="m3666,-9597c-3,-4 -6,-10 -6,-15c0,-7 322,-168 335,-168c2,0 6,7 9,16c4,12 -23,29 -122,76c-176,84 -209,97 -216,91z" fill="#1b4266" id="svg_29"/>
   <path d="m5985,-9661c-163,-77 -174,-84 -159,-99c12,-12 336,139 331,154c-7,20 -26,14 -172,-55z" fill="#1b4266" id="svg_30"/>
   <path d="m3007,-9776c-69,-87 -83,-114 -58,-114c9,0 153,182 159,200c2,6 -3,10 -10,10c-8,0 -49,-43 -91,-96z" fill="#1b4266" id="svg_31"/>
   <path d="m6722,-9707c8,-10 45,-55 82,-100c37,-46 70,-83 72,-83c6,0 -16,53 -37,86c-23,38 -104,114 -120,114c-8,0 -7,-6 3,-17z" fill="#1b4266" id="svg_32"/>
   <path d="m7919,-9722c-31,-12 -39,-26 -39,-70c0,-49 21,-68 75,-68c34,0 47,5 59,22c47,67 -17,145 -95,116z" fill="#1b4266" id="svg_33"/>
   <path d="m1825,-9732c-28,-16 -35,-28 -35,-64c0,-53 73,-95 116,-66c34,22 45,99 18,126c-18,19 -70,20 -99,4z" fill="#1b4266" id="svg_34"/>
   <path d="m6087,-9778c-86,-46 -102,-58 -82,-60c25,-3 116,35 145,60c20,18 54,58 49,58c-2,0 -52,-26 -112,-58z" fill="#1b4266" id="svg_35"/>
   <path d="m3615,-9740c-5,-9 182,-110 205,-110c31,0 -2,26 -90,70c-110,55 -106,54 -115,40z" fill="#1b4266" id="svg_36"/>
   <path d="m4965,-9787c-80,-10 -194,-37 -226,-53c-66,-34 -140,-101 -160,-143c-24,-54 -25,-141 -1,-187c11,-23 33,-43 62,-58c42,-21 56,-22 268,-22c251,0 271,4 320,68c25,32 27,43 27,123c0,94 -8,112 -67,149c-15,9 -38,32 -50,50c-41,60 -95,83 -173,73zm109,-274c28,-13 41,-53 31,-99l-7,-30l-186,2l-186,3l-9,38c-11,47 10,84 50,90c64,9 283,6 307,-4z" fill="#1b4266" id="svg_37"/>
   <path d="m2437,-10302c-34,-27 -42,-91 -14,-125c5,-7 28,-13 52,-13c48,0 71,19 81,67c5,26 1,34 -28,57c-38,29 -65,33 -91,14z" fill="#1b4266" id="svg_38"/>
   <path d="m7287,-10308c-10,-11 -17,-35 -17,-59c0,-72 55,-95 117,-47c45,34 44,66 -4,99c-44,30 -74,32 -96,7z" fill="#1b4266" id="svg_39"/>
   <path d="m7070,-10539c9,-52 11,-53 50,-49l31,3l-44,43l-45,44l8,-41z" fill="#1b4266" id="svg_40"/>
   <path d="m4930,-10535l-23,-25l23,-25c29,-31 37,-31 75,0l30,24l-30,25c-38,32 -46,32 -75,1z" fill="#1b4266" id="svg_41"/>
  </g>
 </g>

</svg>