<?xml version="1.0" standalone="no"?>
<!DOCTYPE svg PUBLIC "-//W3C//DTD SVG 20010904//EN"
 "http://www.w3.org/TR/2001/REC-SVG-20010904/DTD/svg10.dtd">
<svg version="1.0" xmlns="http://www.w3.org/2000/svg"
 width="991.000000pt" height="1066.000000pt" viewBox="0 0 991.000000 1066.000000"
 preserveAspectRatio="xMidYMid meet">

<g transform="translate(0.000000,1066.000000) scale(0.100000,-0.100000)"
fill="#000000" stroke="none">
<path d="M3998 10420 c-67 -11 -84 -19 -157 -73 -39 -29 -97 -55 -205 -93
-239 -83 -267 -99 -309 -178 -21 -39 -22 -50 -19 -253 2 -117 1 -217 -3 -222
-11 -18 -37 1 -194 142 -180 160 -247 199 -374 218 -167 25 -287 -19 -434
-156 -236 -221 -353 -466 -313 -660 23 -114 53 -160 192 -296 l129 -126 -104
-189 c-58 -104 -138 -252 -179 -329 -93 -175 -95 -177 -290 -199 -178 -20
-234 -49 -282 -143 -24 -48 -83 -262 -91 -330 -7 -57 -39 -143 -54 -143 -5 0
-20 -11 -35 -25 l-26 -24 0 -180 c0 -101 4 -182 9 -186 5 -3 23 -40 39 -83 27
-68 33 -108 56 -347 27 -279 36 -353 57 -492 12 -74 11 -91 -5 -155 -18 -72
-18 -75 4 -198 26 -144 38 -171 116 -266 39 -47 81 -119 132 -223 116 -239
142 -259 319 -242 54 5 100 7 101 6 2 -2 -14 -26 -36 -54 -112 -141 -109 -321
7 -507 l40 -64 -62 0 c-72 0 -109 -18 -153 -75 -16 -20 -76 -76 -133 -126
-136 -116 -161 -151 -172 -237 -11 -90 -11 -246 1 -361 13 -116 43 -177 115
-232 70 -52 144 -84 394 -170 118 -40 223 -81 233 -91 16 -16 18 -32 16 -106
l-3 -87 -245 -3 c-192 -2 -298 2 -490 20 -452 41 -812 26 -993 -42 -185 -69
-308 -239 -294 -407 15 -187 53 -333 127 -490 141 -299 374 -644 691 -1023
134 -160 635 -733 720 -822 l36 -38 216 0 c175 0 217 3 217 13 0 26 -186 283
-255 352 -81 81 -270 247 -686 601 -405 346 -472 420 -600 669 -131 253 -208
463 -209 572 0 27 5 33 32 42 18 5 79 13 135 16 88 6 150 23 133 37 -3 3 -63
17 -135 32 -174 36 -187 49 -139 144 38 77 106 146 176 181 64 33 120 43 86
17 -18 -13 -25 -86 -12 -120 12 -32 96 -17 113 20 18 40 13 51 -36 86 l-48 33
65 12 c79 15 286 16 452 3 135 -10 580 -37 723 -43 163 -7 223 -60 285 -252
12 -38 51 -150 86 -247 35 -97 64 -186 64 -198 0 -24 -6 -27 -310 -151 -124
-50 -234 -96 -245 -102 -19 -10 -19 -11 6 -19 19 -6 82 4 230 36 407 88 413
89 463 39 46 -46 31 -71 -79 -137 -77 -45 -122 -82 -112 -92 4 -4 62 4 130 19
193 43 236 36 337 -58 155 -145 442 -319 680 -413 434 -172 997 -251 1496
-212 758 60 1248 232 1669 585 118 99 181 130 260 129 33 -1 77 -8 98 -17 44
-19 167 -34 167 -21 0 5 -50 43 -111 84 -61 41 -113 78 -115 82 -9 14 17 49
49 68 44 27 70 26 273 -20 229 -52 415 -83 427 -71 13 13 -44 41 -313 148
-129 52 -242 100 -249 108 -17 17 -14 28 62 230 25 66 62 172 81 235 41 133
69 179 130 215 58 34 135 42 511 55 165 5 416 15 558 22 182 8 261 8 268 1 8
-8 3 -22 -15 -49 -32 -48 -32 -55 0 -93 44 -53 124 -34 124 29 0 15 -17 42
-42 68 l-43 45 30 -7 c130 -29 295 -181 295 -271 0 -48 -29 -66 -162 -99 -67
-17 -123 -36 -125 -42 -3 -8 36 -15 114 -23 181 -19 177 -17 181 -79 3 -47 -7
-73 -99 -284 -178 -408 -246 -525 -384 -663 -97 -96 -306 -272 -700 -586 -258
-207 -303 -254 -479 -504 l-105 -150 197 -3 c120 -2 211 1 234 8 30 8 72 49
223 218 103 114 301 347 441 517 548 671 716 912 827 1190 143 358 134 590
-28 744 -87 83 -219 134 -410 161 -90 12 -398 13 -540 0 -119 -10 -533 -35
-761 -46 -183 -9 -184 -8 -184 94 0 97 6 117 35 130 13 6 92 32 176 57 316 96
487 196 536 314 21 49 20 484 0 534 -8 18 -48 62 -88 98 -41 35 -114 105 -164
155 -49 51 -100 97 -111 103 -12 6 -47 14 -78 17 -31 4 -56 8 -56 10 0 2 18
31 39 64 106 164 109 350 7 483 -55 73 -61 68 76 65 109 -3 127 -1 158 18 51
30 100 107 166 261 50 120 65 144 121 203 59 63 64 72 88 161 23 88 25 109 23
304 -2 179 2 241 26 420 15 116 31 271 36 347 10 159 19 196 60 262 29 46 32
56 37 170 7 157 -6 224 -52 264 -18 16 -38 38 -43 48 -5 11 -30 103 -56 205
-55 225 -68 260 -113 300 -48 42 -69 48 -223 69 -160 22 -212 40 -239 84 -51
82 -332 593 -337 612 -5 18 20 47 129 155 163 162 188 206 195 339 3 74 0 97
-27 180 -17 52 -52 133 -78 179 -82 145 -248 303 -392 374 -63 31 -71 32 -181
31 -179 -1 -260 -39 -437 -206 -155 -146 -200 -181 -207 -162 -3 9 -6 106 -6
217 0 112 -5 219 -11 240 -13 46 -69 112 -118 137 -20 10 -106 40 -192 68
-181 58 -204 68 -245 115 -26 30 -40 36 -104 47 -94 16 -290 8 -348 -13 -37
-14 -81 -16 -320 -11 -152 3 -396 1 -542 -4 -256 -9 -267 -9 -310 11 -52 23
-223 32 -322 17z m244 -87 c38 -43 30 -118 -15 -147 -28 -19 -131 -31 -181
-22 -51 10 -106 66 -106 110 0 47 20 59 109 67 144 12 177 10 193 -8z m1600
-4 c45 -24 39 -95 -12 -141 -25 -24 -39 -28 -86 -28 -128 0 -189 38 -189 117
0 69 16 76 154 68 63 -3 123 -11 133 -16z m-572 -29 c112 -12 190 -28 190 -41
0 -5 -233 -9 -556 -9 -341 0 -553 4 -549 9 7 13 95 30 197 40 120 12 607 12
718 1z m-1424 -91 c9 -15 -5 -23 -109 -60 -64 -23 -95 -41 -117 -66 -39 -44
-38 -68 8 -113 30 -30 59 -44 155 -75 92 -29 117 -41 117 -55 0 -25 -32 -80
-47 -80 -21 0 -295 110 -365 147 -104 55 -119 102 -52 164 65 61 244 127 396
148 4 1 10 -4 14 -10z m2312 -21 c136 -41 272 -130 272 -178 0 -70 -253 -202
-431 -226 -41 -5 -47 -3 -78 30 l-34 35 24 10 c14 5 58 19 99 31 115 34 197
76 215 110 32 62 0 99 -120 143 -123 45 -135 51 -135 65 0 19 95 9 188 -20z
m-616 -89 c137 -17 174 -19 272 -10 109 11 117 10 202 -15 49 -14 93 -29 97
-33 5 -5 -42 -25 -105 -46 -124 -41 -142 -41 -252 -4 -49 17 -79 20 -148 17
-82 -4 -92 -7 -204 -64 l-117 -59 -396 0 -396 0 -64 43 c-89 59 -153 76 -265
69 -50 -3 -120 -15 -156 -27 -55 -18 -72 -19 -115 -10 -84 18 -205 61 -205 74
0 6 19 16 43 22 23 6 71 19 107 29 63 18 67 18 124 0 63 -20 70 -20 421 20 70
8 272 13 554 14 394 1 462 -1 603 -20z m147 -184 c86 -22 159 -109 181 -212
14 -67 -47 -388 -79 -414 -25 -20 -258 -37 -300 -23 -29 10 -60 87 -107 259
-29 110 -30 158 -4 228 32 84 73 125 155 153 83 28 84 28 154 9z m-1395 -22
c60 -20 104 -59 132 -115 34 -67 40 -137 19 -218 -34 -135 -86 -288 -101 -301
-12 -10 -41 -10 -151 0 -75 7 -146 17 -158 23 -19 8 -26 30 -51 146 -33 158
-37 284 -11 343 57 128 176 173 321 122z m-836 -76 c26 -13 112 -46 192 -73
100 -33 155 -57 179 -78 l34 -31 -34 -7 c-19 -5 -65 -5 -103 -2 -74 7 -87 -8
-19 -21 47 -8 121 -40 146 -63 25 -22 43 -59 50 -102 13 -68 7 -68 -199 -1
-104 35 -204 69 -222 77 -60 26 -104 166 -88 278 4 25 9 46 12 46 3 0 26 -11
52 -23z m2956 14 c11 -18 9 -197 -3 -233 -22 -67 -62 -90 -276 -162 -109 -36
-202 -63 -206 -60 -12 7 -11 51 1 96 20 72 64 105 185 142 l50 15 -102 -5
c-97 -5 -103 -4 -103 14 0 10 8 26 18 35 14 13 401 165 424 167 4 0 9 -4 12
-9z m-1124 -76 c0 -22 -8 -43 -20 -55 -19 -19 -33 -20 -362 -20 -385 0 -378
-1 -378 72 l0 38 380 0 380 0 0 -35z m1710 25 c17 -12 -25 -55 -194 -197 -103
-86 -132 -98 -171 -69 -18 13 -14 19 64 102 102 108 149 144 210 160 57 16 72
16 91 4z m-4057 -12 c43 -22 210 -184 223 -215 18 -43 19 -41 -21 -49 -31 -5
-41 -1 -102 47 -113 88 -243 200 -243 209 0 20 109 26 143 8z m4263 -77 c88
-40 189 -193 188 -285 0 -63 -22 -106 -109 -217 -75 -96 -94 -109 -127 -86
-16 11 -342 292 -396 342 -7 6 275 216 322 240 59 30 69 30 122 6z m-4412 -49
c91 -61 262 -192 259 -198 -4 -9 -345 -309 -378 -332 -21 -15 -41 -21 -53 -18
-22 7 -139 160 -172 225 -43 86 -5 226 86 317 78 79 150 80 258 6z m2454 -63
c32 -11 47 -40 29 -58 -8 -8 -127 -11 -374 -11 -329 0 -364 2 -370 17 -4 10 3
24 21 40 l27 23 318 0 c199 0 329 -4 349 -11z m2336 -173 c33 -66 48 -143 35
-188 -15 -55 -53 -105 -219 -284 -165 -178 -185 -202 -177 -211 14 -13 393
326 440 395 60 85 71 166 38 271 -22 72 -9 81 21 14 41 -93 34 -231 -17 -333
-29 -57 -143 -167 -350 -337 -88 -72 -172 -144 -187 -159 -41 -44 -95 -139
-118 -210 -41 -122 -74 -137 -183 -83 -86 43 -124 74 -147 119 -26 51 -25 74
5 138 55 118 130 193 283 281 95 55 187 143 312 297 134 164 155 206 155 304
0 41 -4 89 -8 105 -8 29 -7 28 41 -19 27 -26 61 -71 76 -100z m-5229 117 c-15
-34 -17 -144 -5 -189 17 -60 69 -132 217 -300 128 -146 166 -178 269 -233 86
-45 165 -119 224 -209 73 -111 77 -160 20 -226 -36 -41 -178 -117 -221 -118
-41 -1 -53 13 -88 110 -52 143 -137 243 -326 382 -145 106 -303 269 -346 355
-29 60 -34 79 -33 145 0 61 5 87 28 138 16 34 31 61 33 58 2 -2 -3 -30 -13
-61 -23 -79 -16 -159 18 -209 98 -144 447 -472 473 -444 2 2 -77 91 -174 199
-199 221 -225 263 -225 364 1 76 28 139 90 205 47 51 72 65 59 33z m2330 -114
c60 -8 154 -9 285 -4 107 4 233 8 280 8 l85 2 9 -47 c15 -76 18 -75 -240 -83
-290 -9 -538 -10 -591 0 -41 6 -43 9 -43 40 0 74 33 109 95 100 17 -2 70 -9
120 -16z m1919 -58 c88 -31 161 -78 235 -151 76 -75 117 -132 137 -190 21 -61
-5 -114 -82 -171 -107 -78 -152 -119 -187 -172 -70 -106 -97 -247 -61 -323 32
-68 167 -151 286 -176 98 -21 140 12 198 157 67 163 131 205 237 154 121 -59
214 -262 215 -474 1 -119 -14 -177 -81 -320 -37 -79 -58 -110 -98 -145 -46
-41 -53 -53 -77 -133 -44 -144 -48 -184 -31 -266 21 -102 19 -183 -15 -519
-35 -343 -51 -460 -79 -570 -51 -197 -47 -285 17 -387 l37 -60 -1 -180 c0
-195 -9 -254 -51 -343 -34 -73 -138 -177 -218 -219 -147 -77 -407 -160 -559
-178 l-60 -7 55 62 c323 369 503 718 618 1200 64 267 81 565 47 790 -36 237
-126 540 -216 726 -53 110 -165 282 -231 354 l-41 45 25 -45 c13 -25 43 -76
65 -115 148 -260 262 -563 307 -815 58 -333 3 -792 -142 -1179 -109 -291 -258
-526 -499 -786 -159 -171 -228 -233 -292 -263 -52 -23 -58 -24 -180 -16 -157
10 -237 7 -327 -13 -129 -29 -192 -70 -238 -157 -31 -58 -31 -191 0 -258 49
-106 178 -196 313 -217 82 -14 481 -14 750 -1 113 6 316 22 453 36 248 25 335
28 340 9 1 -5 -39 -17 -90 -26 l-92 -15 -58 -62 c-67 -70 -135 -106 -233 -121
-36 -6 -210 -24 -387 -41 -364 -35 -368 -34 -429 37 -28 33 -36 37 -92 41 -92
7 -126 -3 -169 -49 -83 -88 -88 -89 -792 -89 l-504 -1 -54 27 c-32 15 -63 40
-76 60 -28 42 -55 54 -123 54 -68 0 -109 -17 -154 -64 -46 -48 -92 -60 -183
-47 -40 6 -182 22 -317 36 -384 39 -407 46 -519 148 -72 67 -78 69 -193 83
-49 5 -58 9 -58 26 0 19 6 20 103 16 56 -3 163 -14 237 -26 227 -35 340 -43
730 -49 413 -6 485 0 594 52 68 32 148 103 183 162 36 61 44 181 18 250 -24
62 -84 126 -143 151 -60 25 -121 32 -378 40 -193 7 -213 9 -259 32 -58 28
-274 239 -379 370 -427 533 -621 1197 -530 1814 45 308 174 644 355 927 27 42
49 80 49 85 0 22 -90 -82 -152 -176 -209 -313 -341 -750 -355 -1166 -13 -402
74 -776 280 -1194 77 -156 139 -249 316 -470 77 -96 138 -176 136 -178 -6 -6
-176 28 -290 58 -248 66 -441 174 -520 293 -72 108 -80 147 -79 378 l1 205 38
69 c34 60 39 78 43 150 5 88 -15 256 -53 455 -13 69 -40 262 -61 429 -35 292
-36 306 -21 350 37 104 32 184 -23 355 -27 85 -33 95 -87 142 -69 60 -102 118
-139 239 -37 123 -40 286 -7 390 28 89 84 184 146 246 115 117 214 81 285
-104 38 -97 60 -130 105 -153 113 -59 373 82 393 213 25 165 -55 312 -232 426
-90 57 -114 87 -114 142 0 62 52 157 125 229 66 66 139 113 237 154 57 24 74
27 183 26 104 -1 146 -7 319 -47 138 -32 205 -52 220 -66 39 -37 124 -72 203
-83 66 -10 95 -9 193 7 162 27 967 34 1094 10 100 -18 212 -19 326 -2 71 11
93 19 131 48 69 53 136 77 317 114 198 41 316 42 416 6z m-4501 -1461 c51 -57
109 -162 142 -260 23 -66 23 -69 5 -75 -33 -11 -87 21 -125 74 -20 28 -38 51
-40 51 -1 0 2 -23 7 -51 5 -28 8 -52 6 -54 -2 -1 -26 -5 -55 -9 -70 -9 -83 5
-181 196 -93 181 -99 159 53 182 110 16 131 10 188 -54z m5865 49 c34 -6 62
-16 62 -23 0 -6 -37 -84 -82 -173 -92 -180 -102 -191 -171 -172 -57 15 -55 12
-47 64 4 25 6 45 4 45 -1 0 -15 -20 -30 -44 -15 -24 -40 -51 -55 -60 -35 -20
-78 -21 -86 0 -9 24 62 192 116 274 74 113 100 121 289 89z m-6315 -40 c26
-12 87 -108 166 -260 l45 -86 -28 -48 -28 -48 -42 81 c-54 103 -87 146 -125
162 -60 25 -106 -34 -134 -172 -22 -103 -38 -140 -56 -129 -20 13 0 191 33
297 29 89 82 180 117 200 29 16 24 16 52 3z m6591 -18 c22 -20 62 -97 87 -168
24 -70 53 -264 45 -298 -13 -52 -31 -17 -62 118 -17 75 -37 144 -45 153 -21
26 -59 36 -89 24 -24 -10 -82 -87 -132 -177 -12 -24 -28 -43 -33 -43 -23 0
-55 32 -55 56 0 30 121 271 158 315 42 51 83 57 126 20z m-5958 -411 c42 0 77
-5 88 -13 12 -9 28 -54 47 -133 29 -121 35 -170 21 -190 -9 -15 -77 -48 -227
-114 -113 -49 -123 -52 -182 -47 -158 15 -252 108 -260 261 -5 86 10 115 90
175 84 63 114 72 242 66 61 -3 142 -5 181 -5z m5601 -10 c58 -26 139 -104 153
-146 22 -65 -22 -227 -73 -270 -43 -36 -108 -63 -171 -70 -46 -6 -64 -1 -163
39 -225 93 -263 119 -263 187 0 43 47 241 61 255 11 11 141 20 309 23 85 1
113 -2 147 -18z m-6217 -67 c6 -21 17 -85 25 -143 20 -140 47 -225 90 -285 19
-28 38 -63 41 -80 12 -68 72 -720 67 -734 -3 -9 -20 -45 -36 -81 -43 -91 -49
-215 -17 -322 12 -40 28 -85 35 -99 8 -14 17 -59 20 -100 5 -65 3 -77 -14 -99
l-20 -25 -22 21 c-27 27 -67 190 -154 619 -85 425 -88 459 -80 875 8 413 16
487 52 490 1 0 7 -17 13 -37z m6530 -10 c16 -70 32 -504 25 -673 -8 -189 -27
-329 -76 -580 -134 -683 -172 -793 -223 -643 -24 69 -20 91 27 184 l42 84 0
126 0 125 -37 72 c-26 48 -38 85 -38 112 0 49 55 558 71 650 7 42 25 93 54
145 43 79 65 161 80 295 8 74 33 150 50 150 8 0 18 -20 25 -47z m-6745 -106
c33 -33 65 -115 65 -167 0 -77 -43 -120 -119 -120 -62 0 -76 34 -72 174 2 130
9 146 57 146 27 0 44 -8 69 -33z m7025 -105 c0 -170 -8 -187 -79 -179 -80 9
-115 79 -93 184 19 90 63 132 140 133 l32 0 0 -138z m-1012 -178 c31 -21 29
-39 -23 -399 -43 -291 -65 -395 -85 -395 -42 0 -25 448 27 700 23 113 35 127
81 94z m-5056 -25 c15 -19 25 -90 55 -364 36 -341 38 -415 8 -415 -35 0 -47
51 -90 353 -62 442 -59 400 -34 431 24 31 35 30 61 -5z m-149 -86 c18 -150 59
-635 53 -640 -3 -3 -26 -7 -51 -7 -71 -2 -74 3 -101 245 -36 319 -40 392 -22
407 16 12 85 40 104 41 6 1 14 -20 17 -46z m5380 25 c45 -18 49 -43 32 -227
-34 -359 -42 -414 -67 -434 -16 -14 -32 -17 -57 -13 -44 7 -53 21 -47 76 3 25
15 155 26 290 20 238 28 307 37 323 5 8 27 4 76 -15z m758 -214 c-21 -245 -79
-664 -96 -691 -18 -27 -41 -26 -38 3 1 10 21 215 44 454 25 256 47 438 53 442
7 5 18 -8 29 -33 17 -38 18 -52 8 -175z m-6406 200 c8 -4 22 -18 29 -33 18
-34 81 -568 72 -604 -5 -21 -18 -34 -52 -49 -25 -11 -47 -18 -49 -16 -4 3 -75
662 -75 691 0 18 42 23 75 11z m5891 -27 c15 -31 14 -47 -10 -233 -14 -109
-31 -254 -37 -321 -7 -68 -16 -123 -21 -123 -6 0 -25 7 -43 16 -58 27 -59 40
-25 334 16 146 30 271 30 279 0 15 66 81 81 81 5 0 16 -15 25 -33z m-6418 -19
c6 -18 30 -219 53 -446 34 -329 40 -415 30 -425 -18 -17 -46 21 -55 74 -48
300 -87 762 -68 803 16 35 28 33 40 -6z m892 -728 c147 -24 174 -33 189 -66
16 -35 15 -285 -1 -306 -17 -21 -282 -96 -368 -104 -169 -16 -274 75 -273 236
1 110 50 196 137 236 65 30 146 31 316 4z m5406 -1 c114 -43 161 -124 152
-260 -7 -88 -39 -138 -116 -182 -86 -48 -158 -48 -318 -3 -197 57 -193 55
-209 86 -21 40 -21 247 0 295 18 43 38 51 173 69 166 21 252 20 318 -5z
m-6160 -242 c1 -1 16 -35 34 -76 57 -131 52 -169 -28 -225 -68 -47 -86 -30
-116 111 -24 107 -21 132 17 171 26 27 37 32 61 28 16 -4 30 -7 32 -9z m6709
-22 c14 -13 25 -36 25 -50 0 -33 -41 -238 -49 -248 -12 -12 -110 43 -132 74
-45 63 -34 151 26 214 41 44 93 48 130 10z m-929 -256 c22 -25 118 -459 104
-473 -11 -11 -64 71 -91 143 -29 79 -71 334 -56 343 18 11 22 10 43 -13z
m-4935 -219 c-20 -95 -101 -264 -117 -247 -8 8 42 262 67 344 12 38 29 82 38
98 16 30 16 30 19 -59 2 -50 -2 -111 -7 -136z m-407 189 c50 -23 50 -50 6
-228 -47 -186 -77 -262 -113 -286 -24 -15 -28 -15 -61 0 -67 32 -162 181 -211
331 -29 90 -29 90 -10 98 11 4 23 -12 45 -60 37 -83 61 -115 116 -160 l45 -37
30 34 c44 49 66 104 89 214 11 53 20 99 20 101 0 7 19 4 44 -7z m5791 -76 c26
-128 40 -161 89 -213 l44 -47 52 51 c32 32 66 79 88 126 22 44 43 75 52 75 28
0 11 -55 -66 -212 -74 -151 -132 -233 -167 -233 -28 0 -77 51 -107 111 -42 82
-70 189 -77 295 -5 84 -4 93 16 113 42 42 56 30 76 -66z m-5575 60 c0 -4 -21
-77 -46 -162 -57 -191 -107 -316 -125 -316 -17 0 -18 -1 37 225 51 215 60 239
88 250 26 11 46 12 46 3z m5353 -13 c22 -17 33 -50 78 -235 40 -165 50 -218
41 -227 -6 -6 -13 -10 -15 -7 -2 2 -39 106 -81 231 -87 253 -90 291 -23 238z
m-54 -570 c58 -29 131 -173 131 -258 -1 -174 -309 -353 -836 -486 -77 -19
-152 -40 -165 -45 -95 -36 213 -16 435 29 95 20 153 27 159 21 11 -11 13 -10
-228 -70 -374 -93 -493 -106 -965 -106 -323 0 -384 2 -443 17 -128 33 -204 84
-244 161 -51 102 -27 218 59 274 l42 28 525 0 c568 1 583 2 804 60 116 30 197
58 398 137 206 80 255 120 274 221 4 20 9 37 12 37 2 0 21 -9 42 -20z m-5231
-58 c22 -37 49 -75 60 -85 23 -21 369 -163 503 -205 224 -72 237 -73 851 -82
l557 -7 48 -24 c65 -32 95 -87 96 -172 1 -127 -79 -211 -248 -264 -54 -16 -95
-18 -385 -16 -358 1 -624 15 -770 39 -120 20 -439 99 -451 111 -5 5 98 -6 228
-24 262 -37 344 -43 350 -28 4 14 -24 24 -262 89 -337 92 -424 129 -626 261
-149 98 -172 153 -124 301 31 95 73 160 107 167 13 2 24 5 24 6 1 0 20 -29 42
-67z m-10 -711 c7 -9 12 -46 12 -96 0 -97 25 -157 80 -192 80 -50 75 -41 60
-126 -17 -99 -9 -151 26 -188 43 -45 83 -53 254 -53 210 0 235 14 255 147 l7
48 37 -5 c50 -8 709 -86 725 -86 9 0 15 -25 19 -86 9 -146 41 -167 257 -167
100 -1 150 4 192 16 69 21 83 42 91 135 3 35 7 65 9 67 2 3 252 7 556 11 425
6 554 4 566 -5 8 -7 17 -35 21 -64 4 -29 14 -64 21 -79 27 -53 133 -89 262
-89 111 0 176 17 217 55 34 32 35 35 35 109 0 68 2 78 23 91 29 20 724 97 749
84 10 -5 20 -20 23 -33 3 -14 7 -36 10 -50 3 -14 18 -39 33 -56 26 -29 35 -32
122 -41 52 -5 136 -7 186 -3 112 8 147 26 176 92 21 47 21 72 2 194 -6 35 -4
39 50 78 83 61 91 78 91 189 1 90 2 95 28 118 16 13 32 24 36 24 4 0 2 -33 -5
-72 -7 -40 -13 -101 -13 -135 -1 -55 3 -67 27 -94 25 -28 35 -32 111 -40 46
-4 138 -4 203 0 132 10 159 21 189 78 l16 31 31 -20 c35 -22 48 -54 38 -92 -8
-33 -147 -136 -260 -193 -120 -60 -317 -124 -497 -162 -320 -66 -1040 -163
-1340 -180 -564 -32 -1795 -39 -2169 -12 -699 51 -1484 174 -1773 278 -138 49
-361 175 -415 234 -32 33 -28 73 11 116 l33 36 21 -36 c30 -49 64 -69 147 -84
155 -27 301 -9 354 44 l25 25 -7 141 c-7 135 -7 140 11 127 10 -8 24 -21 31
-29z m-186 -151 c13 -16 17 -32 13 -49 -12 -49 -34 -61 -121 -63 -96 -3 -114
7 -114 62 0 30 6 43 28 60 23 19 37 21 101 18 63 -3 76 -7 93 -28z m5748 20
c33 -17 43 -47 30 -85 l-12 -35 -101 6 c-75 5 -105 11 -114 22 -19 24 -16 43
14 74 24 25 33 28 96 28 37 0 77 -5 87 -10z m-5078 -340 c71 -20 77 -81 13
-117 -69 -39 -194 -26 -203 21 -6 31 18 74 51 90 37 18 87 20 139 6z m4360 1
c19 -1 48 -49 48 -80 0 -38 -26 -51 -107 -51 -83 0 -130 19 -139 56 -7 27 11
63 36 72 17 6 109 8 162 3z m858 -110 c0 -49 -456 -214 -771 -280 -220 -45
-748 -129 -1464 -231 -121 -18 -227 -36 -235 -41 -10 -7 48 -8 170 -4 687 21
1436 112 1985 242 114 26 177 48 264 89 62 30 117 54 122 54 26 0 -1 -24 -83
-74 -242 -145 -502 -213 -1233 -320 -437 -64 -558 -72 -1655 -106 -184 -6
-347 -13 -361 -16 -49 -10 -1180 53 -1464 81 -580 58 -1119 176 -1386 303 -81
39 -185 109 -176 119 3 2 55 -19 117 -47 160 -73 378 -126 845 -204 411 -68
707 -100 1095 -115 140 -6 305 -13 367 -17 68 -3 113 -2 117 5 8 12 -17 17
-194 36 -919 100 -1744 258 -2056 393 -91 39 -210 109 -201 118 2 3 103 -24
224 -60 357 -105 750 -183 1213 -240 546 -67 726 -76 1596 -76 885 0 1154 14
1774 91 521 64 782 119 1145 238 211 70 245 79 245 62z m-3854 -64 c31 -36 30
-58 -2 -88 -24 -22 -33 -24 -121 -22 -53 1 -98 4 -100 7 -12 12 12 92 34 114
22 22 31 24 95 20 62 -3 73 -7 94 -31z m1683 16 c32 -27 38 -76 12 -102 -17
-17 -33 -21 -87 -21 -56 0 -72 4 -105 28 -21 15 -39 30 -39 34 0 4 15 23 34
42 32 34 37 36 99 36 47 0 71 -5 86 -17z m1306 -668 c101 -42 141 -167 111
-341 -33 -192 -103 -362 -223 -544 -279 -422 -638 -702 -1093 -854 -173 -58
-327 -88 -625 -125 -234 -28 -246 -29 -515 -20 -427 13 -676 53 -981 158 -298
103 -529 248 -752 474 -337 342 -525 707 -530 1027 -2 124 29 177 128 221 45
20 60 21 180 15 71 -3 195 -13 275 -21 192 -20 600 -32 1610 -46 1023 -14
1382 -4 2040 56 257 23 320 23 375 0z"/>
<path d="M6955 8380 c-17 -19 -17 -22 -3 -37 15 -14 19 -14 48 7 29 21 30 23
13 36 -25 19 -37 17 -58 -6z"/>
<path d="M2992 8450 c11 -44 32 -50 52 -17 9 15 7 22 -13 38 -39 32 -50 25
-39 -21z"/>
<path d="M4340 8881 c0 -18 268 -36 520 -35 176 0 305 6 415 18 88 10 162 20
164 22 2 2 -244 4 -547 4 -309 0 -552 -4 -552 -9z"/>
<path d="M4000 8524 c-66 -22 -100 -37 -100 -46 0 -5 8 -7 18 -4 9 2 62 12
117 22 70 12 94 19 80 25 -22 8 -92 10 -115 3z"/>
<path d="M5700 8522 c0 -11 10 -14 130 -32 82 -12 80 -13 80 4 0 9 -18 16 -57
20 -32 4 -79 10 -105 13 -31 4 -48 2 -48 -5z"/>
<path d="M4690 8304 c-186 -10 -338 -46 -553 -130 -77 -30 -152 -54 -167 -54
-15 0 -47 9 -71 20 -56 25 -92 25 -145 -1 -61 -29 -511 -474 -520 -513 -4 -17
-1 -47 6 -70 7 -23 14 -70 14 -106 1 -60 -4 -75 -66 -205 -68 -144 -104 -250
-135 -403 -14 -69 -18 -136 -18 -332 0 -214 3 -259 22 -356 27 -130 70 -265
124 -385 44 -99 49 -145 19 -210 -22 -50 -25 -91 -7 -132 17 -40 444 -483 482
-502 41 -19 88 -19 159 -1 64 17 76 14 196 -42 121 -57 305 -119 445 -148 99
-21 158 -27 330 -31 393 -10 688 45 986 183 130 61 169 66 243 33 l46 -20 52
28 c61 33 112 80 322 301 102 107 159 175 166 199 12 33 11 58 -6 204 -6 51
-2 68 34 160 91 234 130 420 139 654 11 325 -39 566 -177 854 -66 136 -72 173
-40 234 42 78 41 80 -182 305 -112 112 -233 231 -271 263 -61 53 -72 59 -113
59 -25 0 -62 -9 -84 -20 -56 -29 -86 -25 -207 24 -284 116 -388 137 -708 141
-137 1 -279 1 -315 -1z m455 -84 c190 -22 387 -76 565 -154 172 -76 224 -125
148 -140 -25 -5 -56 5 -157 53 -261 121 -424 160 -713 168 -347 10 -604 -42
-886 -178 -112 -54 -155 -60 -160 -22 -5 31 45 65 174 119 317 132 705 191
1029 154z m-9 -150 c216 -18 367 -58 559 -150 150 -71 144 -63 101 -148 -20
-40 -41 -72 -46 -72 -5 0 -58 19 -117 41 -292 112 -382 134 -603 150 -345 24
-621 -32 -889 -180 -29 -16 -60 -27 -68 -24 -17 7 -73 118 -73 145 0 22 39 49
135 93 284 129 610 176 1001 145z m-1303 -32 c-16 -47 -2 -90 91 -276 53 -106
96 -204 96 -219 0 -20 -19 -45 -73 -100 -94 -93 -103 -94 -240 -14 -56 32
-134 77 -173 100 -50 29 -89 43 -132 49 -34 5 -65 11 -68 14 -25 26 175 248
332 368 50 40 151 99 167 100 5 0 5 -10 0 -22z m2268 -30 c132 -92 389 -366
389 -413 0 -6 -16 -9 -38 -7 -61 6 -113 -14 -214 -80 -113 -74 -212 -122 -253
-122 -33 0 -102 43 -154 95 -47 46 -42 73 47 249 49 98 86 187 101 243 13 51
28 87 35 87 7 0 46 -23 87 -52z m-881 -222 c102 -19 173 -39 260 -73 72 -28
170 -83 170 -95 0 -5 -46 -8 -103 -8 -189 0 -287 -42 -444 -192 -108 -104
-109 -104 -164 -67 -25 18 -26 17 -61 -7 -48 -34 -65 -28 -152 59 -159 157
-239 194 -441 205 l-120 7 60 36 c114 69 301 127 480 148 113 14 413 6 515
-13z m-826 -276 c104 -26 174 -69 273 -164 62 -59 83 -85 83 -105 0 -38 -600
-638 -649 -647 -32 -7 -37 -3 -110 74 -121 126 -180 261 -181 413 0 111 37
183 117 223 17 8 62 50 100 92 117 130 201 157 367 114z m1300 -14 c25 -15 65
-50 87 -79 22 -29 73 -77 112 -107 103 -81 112 -100 111 -240 -1 -175 -34
-249 -187 -411 l-88 -93 -325 325 c-181 181 -327 335 -331 348 -5 21 7 37 88
115 142 138 239 179 405 173 67 -3 89 -8 128 -31z m-2219 -46 c3 -5 -8 -31
-24 -57 -60 -97 -142 -280 -162 -361 -11 -46 -19 -86 -16 -88 4 -5 65 115 199
394 40 82 60 88 148 39 78 -42 83 -59 41 -125 -87 -136 -158 -318 -193 -494
-17 -89 -22 -147 -21 -273 0 -240 37 -391 150 -615 72 -143 75 -128 -41 -186
-37 -20 -75 -33 -83 -30 -8 3 -37 54 -64 113 -117 251 -163 345 -167 335 -7
-22 31 -137 92 -279 71 -166 83 -207 65 -219 -27 -17 -109 117 -174 284 -153
396 -152 848 2 1237 50 126 121 260 166 311 32 36 42 42 57 34 10 -6 21 -14
25 -20z m2949 5 c29 -32 145 -257 179 -350 134 -361 141 -767 21 -1140 -36
-111 -130 -300 -161 -325 -57 -45 -54 -26 28 187 55 141 94 274 87 294 -2 4
-43 -83 -93 -193 -119 -265 -117 -262 -148 -266 -21 -3 -137 53 -175 83 -2 2
22 53 53 115 63 125 115 272 142 400 21 102 24 370 4 469 -34 171 -102 352
-190 506 -28 48 -51 91 -51 94 0 6 34 27 112 68 38 20 51 22 68 13 12 -7 63
-95 130 -228 104 -208 126 -236 96 -127 -21 80 -61 170 -127 287 -59 104 -61
110 -43 123 27 21 42 18 68 -10z m-2695 -395 c-1 -189 53 -302 234 -487 l70
-71 -81 -81 c-162 -162 -226 -296 -226 -468 0 -51 -3 -93 -7 -93 -4 0 -21 17
-37 38 -94 119 -144 320 -144 582 -1 270 52 489 152 634 17 25 33 46 35 46 2
0 4 -45 4 -100z m1144 80 c14 -11 30 -20 37 -20 7 0 23 9 37 20 14 11 35 20
46 20 23 0 632 -599 647 -635 4 -11 3 -29 -2 -40 -15 -29 -588 -604 -620 -621
-38 -20 -52 -18 -81 11 l-25 26 -28 -24 c-60 -49 -45 -60 -346 240 -154 153
-306 308 -338 344 l-59 66 127 114 c70 63 220 205 333 316 130 128 214 203
226 203 11 0 32 -9 46 -20z m1250 -18 c185 -280 219 -730 82 -1072 -29 -70
-95 -190 -106 -190 -3 0 -9 53 -12 118 -3 64 -12 140 -21 168 -23 75 -88 168
-182 262 -46 46 -84 90 -84 96 0 7 39 53 88 103 153 158 197 256 196 441 0 61
3 112 6 112 4 0 19 -17 33 -38z m-1690 -1014 c175 -178 321 -330 326 -338 6
-11 -16 -37 -89 -105 -159 -146 -278 -196 -431 -181 -110 10 -137 26 -219 126
-40 48 -93 105 -117 125 -79 67 -105 157 -84 295 18 113 60 188 170 302 51 54
101 98 110 98 9 1 159 -145 334 -322z m1406 232 c134 -136 208 -376 152 -495
-11 -22 -41 -65 -68 -96 -26 -31 -81 -96 -121 -143 -40 -47 -82 -91 -94 -97
-11 -6 -53 -15 -92 -20 -166 -22 -319 36 -463 174 -52 50 -83 88 -83 101 0 15
99 119 327 342 l328 322 28 -15 c16 -8 54 -41 86 -73z m297 -684 c49 -23 130
-66 179 -93 110 -62 141 -69 190 -48 21 8 40 13 42 11 3 -2 -1 -23 -8 -47 -14
-44 -62 -100 -298 -343 -91 -93 -147 -136 -178 -136 -5 0 -8 30 -8 68 l0 67
-102 175 c-60 101 -103 186 -103 201 0 55 127 188 181 189 8 0 56 -20 105 -44z
m-2307 19 c32 -16 128 -118 143 -151 9 -18 6 -31 -12 -61 -90 -148 -201 -352
-206 -377 -3 -17 -1 -44 5 -59 15 -40 -4 -35 -85 22 -130 91 -316 294 -373
408 -27 55 -27 67 0 52 45 -23 108 -5 234 66 207 118 239 129 294 100z m1260
-69 c153 -144 216 -177 382 -196 52 -6 109 -13 128 -16 l34 -5 -37 -26 c-152
-103 -410 -163 -697 -163 -227 0 -412 32 -569 99 -73 31 -155 80 -147 87 2 3
58 9 123 14 66 6 140 17 166 26 65 21 150 78 257 173 51 45 99 81 108 81 8 0
28 -9 44 -21 l29 -20 37 25 c21 15 41 26 46 26 4 0 48 -38 96 -84z m766 -303
c25 -43 45 -85 45 -94 0 -55 -279 -190 -514 -249 -155 -39 -324 -54 -537 -47
-359 12 -622 77 -835 205 -106 63 -111 78 -54 171 23 39 46 71 50 71 4 0 77
-34 161 -74 175 -85 300 -130 409 -147 51 -8 173 -10 380 -6 268 4 315 8 390
26 95 24 241 91 370 169 47 29 86 52 87 52 1 0 23 -35 48 -77z m-1870 -238
c278 -177 680 -265 1078 -235 301 23 460 72 797 249 51 27 78 37 85 30 29 -30
-215 -166 -415 -232 -385 -128 -876 -129 -1247 -3 -124 42 -194 74 -303 136
-91 52 -126 82 -116 99 9 14 59 -5 121 -44z"/>
<path d="M7132 7821 c-16 -10 74 -221 94 -221 8 0 14 4 14 9 0 7 -87 211 -93
217 -1 2 -8 -1 -15 -5z"/>
<path d="M2640 7758 c-29 -52 -58 -154 -46 -165 8 -8 6 -12 55 97 57 126 55
120 37 120 -8 0 -29 -24 -46 -52z"/>
<path d="M4537 4653 c-22 -26 -30 -67 -22 -119 5 -38 17 -56 66 -107 35 -37
59 -71 59 -84 0 -11 -27 -57 -60 -101 -72 -95 -79 -135 -31 -183 48 -47 102
-35 185 42 65 59 93 71 127 53 36 -18 49 -18 88 2 40 20 62 12 124 -46 24 -22
65 -49 91 -61 46 -20 48 -20 78 -2 17 10 40 30 51 44 27 37 17 73 -39 140 -25
29 -52 69 -60 87 -18 40 -11 55 58 131 56 61 68 86 68 137 0 47 -37 84 -84 84
-49 0 -80 -14 -149 -65 -62 -47 -106 -57 -148 -34 -16 8 -30 7 -59 -5 -50 -20
-80 -11 -176 53 -83 56 -137 67 -167 34z m176 -141 c31 -19 59 -38 62 -42 2
-4 -8 -19 -23 -33 l-28 -27 -68 69 c-50 50 -67 74 -62 86 6 16 8 16 34 -1 15
-10 53 -33 85 -52z m492 14 c-11 -18 -42 -52 -68 -76 l-49 -44 -19 24 c-10 14
-19 30 -19 37 0 6 35 34 78 61 85 55 111 55 77 -2z m-426 -271 c0 -15 -138
-125 -156 -125 -22 0 -11 20 53 99 56 69 57 69 80 53 13 -9 23 -21 23 -27z
m316 27 c6 -4 36 -37 68 -73 50 -58 55 -68 42 -79 -14 -11 -25 -4 -81 51 -41
41 -64 71 -64 86 0 23 16 30 35 15z"/>
<path d="M3685 2704 c-22 -2 -110 -11 -195 -19 -159 -16 -300 -42 -300 -57 0
-11 9 -10 250 7 276 20 465 19 780 -5 146 -11 359 -20 473 -20 289 0 885 19
982 31 204 26 622 21 880 -11 66 -8 85 -7 73 6 -3 3 -91 20 -194 37 l-189 32
-440 -4 c-683 -7 -1141 -7 -1630 0 -247 4 -468 5 -490 3z"/>
<path d="M3935 2494 c-156 -24 -238 -128 -238 -304 0 -92 24 -141 113 -223
206 -194 396 -292 660 -338 310 -55 856 -24 1114 62 218 72 438 236 507 376
33 67 35 215 3 283 -27 57 -67 97 -124 124 -43 20 -57 21 -280 16 -341 -7
-1346 -6 -1550 1 -96 4 -188 5 -205 3z m1997 -102 c53 -24 73 -46 93 -101 32
-93 12 -177 -62 -257 -89 -97 -219 -180 -390 -248 -163 -65 -232 -75 -579 -88
-348 -12 -477 -2 -650 47 -241 70 -476 229 -537 363 -46 101 -16 233 63 273
43 22 44 22 835 15 468 -5 646 -3 810 8 252 17 359 14 417 -12z"/>
<path d="M4156 2355 c-3 -10 1 -15 12 -16 9 0 72 -6 139 -13 98 -10 123 -9
127 1 6 14 -9 17 -156 33 -121 13 -115 13 -122 -5z"/>
<path d="M5493 2356 c-87 -11 -113 -19 -101 -31 5 -6 270 14 277 21 1 1 0 7
-4 13 -8 13 -50 12 -172 -3z"/>
<path d="M3866 2266 c-14 -19 -26 -39 -26 -43 0 -5 13 -22 29 -37 33 -32 51
-30 77 9 16 24 15 27 -10 65 -14 22 -30 40 -35 40 -5 0 -20 -15 -35 -34z"/>
<path d="M5892 2264 c-27 -19 -29 -64 -4 -87 24 -22 31 -22 76 9 l38 26 -33
34 c-37 38 -45 40 -77 18z"/>
<path d="M3105 1761 c-3 -6 41 -57 98 -114 386 -386 999 -562 1836 -527 644
28 1024 125 1361 351 110 74 326 277 311 292 -7 7 -38 -16 -93 -69 -149 -143
-387 -284 -608 -362 -103 -36 -268 -75 -410 -98 -213 -33 -1250 -26 -1465 10
-347 59 -649 200 -891 415 -116 102 -131 113 -139 102z"/>
<path d="M1932 2679 c-38 -15 -180 -149 -198 -187 -20 -43 -15 -120 14 -184
32 -72 66 -83 247 -81 232 2 263 21 272 161 4 54 2 91 -7 111 -13 33 -140 152
-187 176 -31 17 -105 19 -141 4z m142 -273 c14 -8 27 -30 31 -48 6 -27 3 -35
-19 -55 -22 -18 -39 -23 -86 -23 -106 0 -145 32 -114 92 9 18 24 39 33 46 21
17 124 9 155 -12z"/>
<path d="M7680 2624 c-45 -36 -90 -80 -100 -96 -41 -68 -36 -199 9 -250 23
-26 37 -31 116 -42 55 -8 129 -11 192 -7 114 7 144 21 176 82 25 46 19 157
-11 215 -31 60 -114 131 -175 149 -94 28 -116 23 -207 -51z m219 -209 c32 -16
41 -33 41 -76 0 -25 -6 -33 -35 -45 -48 -20 -159 -19 -179 2 -32 31 -16 113
24 127 31 11 122 6 149 -8z"/>
<path d="M1546 2487 c-44 -44 -42 -146 4 -238 28 -53 122 -134 183 -157 53
-20 147 -39 147 -29 0 2 -37 33 -82 68 -227 172 -259 225 -208 337 19 42 19
42 -1 42 -11 0 -30 -10 -43 -23z"/>
<path d="M8229 2479 c58 -96 9 -176 -222 -361 -63 -51 -60 -55 25 -37 136 29
239 126 273 256 24 90 -1 152 -68 168 l-28 7 20 -33z"/>
<path d="M805 2040 c-25 -28 -22 -90 6 -112 33 -27 76 -23 110 11 38 38 37 53
-8 90 -43 36 -82 40 -108 11z"/>
<path d="M8902 2048 c-13 -13 -16 -75 -6 -103 11 -27 51 -37 82 -21 63 32 74
73 34 119 -18 20 -91 24 -110 5z"/>
<path d="M1235 1431 c-16 -11 -41 -28 -54 -39 l-23 -19 43 -36 c52 -45 72 -46
110 -8 37 37 38 73 3 100 -33 26 -41 26 -79 2z"/>
<path d="M8515 1426 c-52 -52 -39 -107 27 -120 65 -13 118 84 70 127 -27 24
-69 21 -97 -7z"/>
<path d="M2332 1340 c-83 -38 -72 -57 13 -24 36 13 67 24 70 24 2 0 2 7 -1 15
-8 19 -8 19 -82 -15z"/>
<path d="M7400 1360 c0 -10 121 -70 141 -70 5 0 9 6 9 13 0 7 -29 25 -65 40
-72 30 -85 32 -85 17z"/>
<path d="M3666 1063 c-3 -4 -6 -10 -6 -15 0 -7 322 -168 335 -168 2 0 6 7 9
16 4 12 -23 29 -122 76 -176 84 -209 97 -216 91z"/>
<path d="M5985 999 c-163 -77 -174 -84 -159 -99 12 -12 336 139 331 154 -7 20
-26 14 -172 -55z"/>
<path d="M3007 884 c-69 -87 -83 -114 -58 -114 9 0 153 182 159 200 2 6 -3 10
-10 10 -8 0 -49 -43 -91 -96z"/>
<path d="M6722 953 c8 -10 45 -55 82 -100 37 -46 70 -83 72 -83 6 0 -16 53
-37 86 -23 38 -104 114 -120 114 -8 0 -7 -6 3 -17z"/>
<path d="M7919 938 c-31 -12 -39 -26 -39 -70 0 -49 21 -68 75 -68 34 0 47 5
59 22 47 67 -17 145 -95 116z"/>
<path d="M1825 928 c-28 -16 -35 -28 -35 -64 0 -53 73 -95 116 -66 34 22 45
99 18 126 -18 19 -70 20 -99 4z"/>
<path d="M6087 882 c-86 -46 -102 -58 -82 -60 25 -3 116 35 145 60 20 18 54
58 49 58 -2 0 -52 -26 -112 -58z"/>
<path d="M3615 920 c-5 -9 182 -110 205 -110 31 0 -2 26 -90 70 -110 55 -106
54 -115 40z"/>
<path d="M4965 873 c-80 -10 -194 -37 -226 -53 -66 -34 -140 -101 -160 -143
-24 -54 -25 -141 -1 -187 11 -23 33 -43 62 -58 42 -21 56 -22 268 -22 251 0
271 4 320 68 25 32 27 43 27 123 0 94 -8 112 -67 149 -15 9 -38 32 -50 50 -41
60 -95 83 -173 73z m109 -274 c28 -13 41 -53 31 -99 l-7 -30 -186 2 -186 3 -9
38 c-11 47 10 84 50 90 64 9 283 6 307 -4z"/>
<path d="M2437 358 c-34 -27 -42 -91 -14 -125 5 -7 28 -13 52 -13 48 0 71 19
81 67 5 26 1 34 -28 57 -38 29 -65 33 -91 14z"/>
<path d="M7287 352 c-10 -11 -17 -35 -17 -59 0 -72 55 -95 117 -47 45 34 44
66 -4 99 -44 30 -74 32 -96 7z"/>
<path d="M7070 121 c9 -52 11 -53 50 -49 l31 3 -44 43 -45 44 8 -41z"/>
<path d="M4930 125 l-23 -25 23 -25 c29 -31 37 -31 75 0 l30 24 -30 25 c-38
32 -46 32 -75 1z"/>
</g>
</svg>
