<svg xmlns="http://www.w3.org/2000/svg" viewBox="0 0 379.13 427.61"><defs><style>.cls-1{fill:#faf9f8;}</style></defs><g id="Capa_2" data-name="Capa 2"><g id="Capa_1-2" data-name="Capa 1"><path class="cls-1" d="M0,326.6c2.4-11.5,11.2-14.7,21.1-16,12.8-1.7,25.7-.2,38.5.9,7.8.7,15.6.1,23.8.1,0-2,.1-4.5-.1-6.9a3.38,3.38,0,0,0-1.9-2c-6.3-2.2-12.7-4.1-18.9-6.6-4.8-2-9.5-5-10.2-10.7a74.93,74.93,0,0,1-.2-17.7c.6-4.8,5.5-7.3,8.7-10.5.9-.9,2.2-1.5,2.8-2.6,2.1-3.6,5-5.2,9.9-4.1-6.2-8.9-8.6-17.3-.1-25.8-2.6.2-4.7.4-6.7.6a7.38,7.38,0,0,1-7.9-4.1c-2-3.8-3.6-7.9-5.7-11.6-1.1-2.1-3-3.7-4.4-5.7a13.1,13.1,0,0,1-2.2-4c-.8-3-1.2-6.2-1.7-9.3-.1-.7-.4-1.5-.1-2,2.6-5.1.3-10-.2-15-.7-7.9-1.4-15.7-2.3-23.6-.3-2.2-1.4-4.3-2.2-6.5-.3-.8-1.2-1.6-1.2-2.3-.1-4.3,0-8.5.1-12.8a2.66,2.66,0,0,1,1-2.1c4.3-1.9,3.2-6,4.2-9.4s1.7-7.1,3.1-10.4c1.7-4.1,5-6.1,9.5-6.3,2.2-.1,4.3-.5,6.5-.7,3.6-.2,5.3-2.3,6.8-5.5,3.8-7.9,8.3-15.4,12.7-23.5-1.5-1.4-3.2-3.2-5.1-4.7-8.9-7.3-10.8-16.7-5.4-26.9,3.4-6.4,8.2-11.5,13.9-16.1,7-5.6,18.6-4.1,24.4,1.1l11.1,9.9a16.68,16.68,0,0,0,1.9,1.2,17.58,17.58,0,0,0,.5-2.7c-.1-3.8-.3-7.5-.5-11.3-.3-4.8,1.5-8.6,6-10.6s9.1-3.2,13.5-4.9c1.4-.5,2.4-1.7,3.7-2.5s2.6-1.9,4.1-2.1c5.1-.5,10.3-2,15.3.9,1.3.7,3.3.2,4.9.2,9-.2,18-.5,27-.6,3.9,0,7.7.4,11.6.5a11.33,11.33,0,0,0,4.1-.6C218.8-.7,224,0,229.2.8c1.1.2,2.6.7,3.1,1.5,1.2,2.3,3.4,2.8,5.5,3.5,3.2,1,6.4,2,9.5,3.1,6.6,2.2,8.6,5.2,8.5,12.1-.1,3.5-.1,6.9-.2,10.4,0,.9.2,1.9.4,3.9,3.3-2.9,6-5,8.4-7.5,3.3-3.4,6.8-6.3,11.4-7.7,5.6-1.7,11-1.5,16,1.6,9,5.6,15.2,13.4,18,23.6,1.7,6.1.1,11.5-4.1,16.2a85,85,0,0,1-7.5,7.2c-1.4,1.2-1.8,2.2-.8,4,4.6,8,8.9,16.2,13.5,24.2.6,1.1,2.5,1.8,3.8,2.1a90.5,90.5,0,0,0,9.1,1.2,9.13,9.13,0,0,1,8.4,6.5c1.5,4.7,2.4,9.7,3.7,14.5.3,1.3.7,3,1.6,3.5,2.3,1.4,2.9,3.5,3,5.7a87.75,87.75,0,0,1-.1,8.9,5.4,5.4,0,0,1-.6,2.9c-4,4.5-2.8,10-3.4,15.2-.9,7.5-1.9,15.1-2.6,22.6a31.69,31.69,0,0,0,.2,6.9c.9,5.6-.6,10.7-2.4,15.8-6.1,3.9-6.8,11-10.1,16.6-2.9,5-4.7,5.9-10.6,5.3a41.47,41.47,0,0,0-5,0c7.9,8.5,6.1,16.8.2,24.9.2.3.3.6.4.6,3.7-.4,6.4.8,8.7,4,2,2.8,5.1,5,7.8,7.2,2.4,1.9,4,4.2,4.1,7.2.1,5.3.2,10.5.1,15.8-.1,4.3-3,7-6.3,9.2-6.6,4.4-14.2,6.2-21.6,8.5-1.2.4-3.1.9-3.2,1.5a38.64,38.64,0,0,0-.2,7.6c0,.4,1.4,1,2.2,1,9.5-.5,19-.9,28.5-1.6,12.5-.8,25-2.5,37.4.9s17.1,12.3,14.4,24.9c-2.7,12.3-8.9,23-16.2,32.9-9,12.2-18.8,24-28.4,35.7-5.7,7-11.9,13.6-17.9,20.3a5.78,5.78,0,0,1-3.6,1.7c-5.2.2-10.5.1-16.8.1,2.9-4.1,5.5-7.7,7.9-11.2,6.6-9.6,16.4-15.6,25.1-23,6.3-5.3,12.9-10.3,18.8-15.9a46.19,46.19,0,0,0,9.3-11.8c4.4-8.3,7.9-17.1,11.7-25.7a10.9,10.9,0,0,0,.3-2.6c.2-1.9-.5-2.6-2.5-2.7-3.3-.1-6.6-.7-9.9-1.1,0-.3-.1-.6-.1-.9,1.8-.5,3.6-1,5.4-1.4a22.31,22.31,0,0,1,2.3-.4c5-1.2,5.6-3,2.6-7.4a16.94,16.94,0,0,0-14.3-7.6c-8.5,0-17,.6-25.4,1-6.7.3-13.5.6-20.2.7-8,.1-11,2.7-13,10.4a134,134,0,0,1-5.7,16.1c-.9,2.2-1,3.2,1.5,4.1,6.3,2.3,12.4,4.9,18.6,7.4,1,.4,2,1,3,1.5a3.55,3.55,0,0,0-.2,1c-3.3-.5-6.5-.9-9.8-1.6-5.1-1-10.1-2.4-15.2-3.3-2.5-.5-4.7.4-6,3.5,3.2,2.2,6.5,4.4,9.7,6.6-.1.2-.1.5-.2.7-1.3-.1-2.6-.2-3.8-.4a6.47,6.47,0,0,1-2-.4c-5.7-2.7-10-1-14.6,3-15.1,13.4-33.4,20.3-53.1,23.2a182.49,182.49,0,0,1-31.3,2.3c-25.4-.8-49.5-6.6-70.4-22.2-1.4-1.1-3.1-2-4.2-3.3-3.6-4.7-8.1-4.6-13.1-3.3-2.1.6-4.3,1-6.5,1.5-.1-.2-.3-.5-.4-.7.8-.7,1.6-1.5,2.4-2.1,1.6-1.1,3.4-2,5-3.1.8-.6,2.1-1.9,1.9-2.2a6.12,6.12,0,0,0-2.7-2.8,12,12,0,0,0-5,0c-6.7,1.4-13.4,2.9-20.2,4.3a4.3,4.3,0,0,1-3-.6,21.16,21.16,0,0,1,2.1-1.1c6.5-2.7,13.1-5.4,19.7-8,1.9-.7,2.3-1.5,1.6-3.5q-3.3-9-6.3-18c-2.3-7.1-5.6-9.1-12.9-9s-14.6-.8-21.9-1.2c-9-.4-18.1-2.1-27.1.2h.1c-6,.9-9.9,4.5-12.3,9.9-1.1,2.5-.5,3.5,2.3,4.1,3.1.6,6.2,1.3,9.4,2a2.77,2.77,0,0,0,.1.9,17.23,17.23,0,0,1-2.1.7c-2.7.3-5.3.4-8,.6-1.6.1-2.7.7-2.3,2.6.8,3.2,1.1,6.6,2.5,9.6,4,9.2,8,18.6,14.7,26.2,3.6,4,7.9,7.4,12,11,10.6,9.2,21.5,18.1,31.8,27.6,4.1,3.8,7,9,10.4,13.6a7.09,7.09,0,0,1,.8,2.1H65.3a2.34,2.34,0,0,1-1.6-1c-8.3-9.4-16.7-18.8-24.9-28.3C26.3,383.1,14.5,368,5.9,350.8c-2.8-5.7-5-11.5-5.4-17.9a5.49,5.49,0,0,0-.5-1.7Zm96.6-63.4v1.2c2.1.2,4.2.4,6.3.8a5.64,5.64,0,0,1,2.4,1.3c1.4,1.2,2.5,2.7,4,3.8,4.3,2.9,9.3,2.8,14.2,3.4,6.4.7,12.8,1.3,19.1,2.2,2.9.4,5-.2,6.7-2.6s8.9-3.2,10.4-.7c2.5,4.2,6.4,4.6,10.5,4.6,13.8-.1,27.6-.3,41.3-.4,3,0,5.5-.7,7.4-3.5,1.7-2.6,9-2.9,10.6-.5s3.7,3.1,6.3,2.9c9-.8,18.1-1.6,27.1-2.7a14.63,14.63,0,0,0,11.3-6.7c.5-.8,2.2-1.1,3.3-1.3a46.33,46.33,0,0,1,5.2-.7,2.77,2.77,0,0,0-.1-.9,12.29,12.29,0,0,0-2.7-.2c-9,.8-18,2-27,2.5-10.4.5-20.8.6-31.1.4a17.69,17.69,0,0,1-13.6-6.3c-5.4-6.4-3.5-16.3,4-19a35.88,35.88,0,0,1,17.8-1.6c3.9.6,7.3,0,10.2-2.7s5.6-5.6,8.4-8.4c17.9-18.2,26.2-40.4,27.7-65.5.8-14-2.9-27.2-8.6-39.8-2.5-5.7-5.8-11-8.8-16.5,11.6,11.9,16.5,27.1,19.7,42.8,3.4,16.1.7,32-4.4,47.5a104.07,104.07,0,0,1-24.7,40.7,72.81,72.81,0,0,0,24.2-7c5.9-2.9,10.4-7.4,11.7-14.1a57.06,57.06,0,0,0,.7-10.9c0-2.6.4-6-1-7.7-3.2-3.8-3.1-7.8-2.4-12,.7-3.8,2-7.6,2.5-11.4,1.2-9.5,2.1-19,3-28.6a34.21,34.21,0,0,0,0-6.4c-.2-2.3-1.2-4.6-1-6.8.3-3,1.4-5.9,2.2-8.8.3-1,.5-2.5,1.2-2.9,4.3-2.3,5.3-6.7,7.1-10.5,3.7-7.7,1.7-20.8-4.2-27-3.6-3.8-8.9-4.5-11.5,1.8-.7,1.7-1.4,3.5-2.2,5.2-1.5,3.2-3.7,4.6-7.1,3.9a27.23,27.23,0,0,1-7.1-2.9c-5.7-3.3-6.6-7-4.5-13.3,1.7-5.2,5.3-8.5,9.7-11.4s5.2-6.1,2.1-10.4c-6.4-8.7-15-14.1-27.2-11.2-6.1,1.5-12.8,1.3-17.7,6.3a4,4,0,0,1-1.9.7,84.92,84.92,0,0,1-10,1.1c-3,0-5.9-1.2-8.9-1.3-9.7-.2-19.4-.2-29.1-.2a52.56,52.56,0,0,0-8.9.5c-7.4,1.4-14.6,2.4-20.9-3.2-.4-.4-1.1-.4-1.7-.6-5.9-1.3-11.7-2.7-17.6-3.7-8.8-1.4-20.7,5.7-24,14-1.4,3.4-.7,5.5,2.3,7.6,1.5,1.1,3.2,1.9,4.7,3.1,4.6,3.7,7.4,8.7,7,14.6-.4,5.1-4.7,7.4-8.9,9.4a11.69,11.69,0,0,1-2,.6c-4.7,1.2-7.4-.1-9.2-4.5-.7-1.6-1.2-3.3-1.9-4.9-2.1-4.5-6.1-5.5-9.8-2A25.24,25.24,0,0,0,80.1,106c1.2,5.4,2.8,11.2,8.3,14.4a1.83,1.83,0,0,1,.7,1c1.7,6,4.9,11.9,1.9,18.4a5.71,5.71,0,0,0-.2,3.2c.9,7.7,1.8,15.5,2.8,23.2.6,4.2,1.8,8.2,2.2,12.4.6,6.4,3,13.1-1.6,19.1a3.16,3.16,0,0,0-.6,1.7c-.2,4.3-.7,8.5-.5,12.8.2,5.9,2.3,11.4,7.1,15.1,8.6,6.5,18.9,8.8,29.9,10.6-1.5-1.8-2.7-3.1-3.7-4.5-4.4-5.8-9.5-11.3-12.9-17.6-11.7-21.6-17.4-44.6-12.1-69.2,2.7-13,7.3-25.3,15.3-36.1A43,43,0,0,1,121,106c-.1,1-.1,1.2-.2,1.2-.5.8-1.1,1.6-1.7,2.4-13,20.4-18.8,42.5-14.7,66.5s16.1,44,34.2,60.3a11.43,11.43,0,0,0,8.6,3.2c5.8,0,11.7-.2,17.5.7,9,1.3,12.6,12.2,6.9,19.3-4.8,5.9-11.5,7.2-18.3,7.3-16.6.2-33.2-.1-49.6-3.3C101.3,262.6,98.9,263.1,96.6,263.2ZM197.2,387.8c5.5-.7,11.6-1.4,17.8-2.2,24.6-3.4,44.5-14.7,59.3-34.7,6.5-8.7,11.4-18.2,12.5-29.2.7-7.2-1.7-13-10.5-12.4-9.6.7-19.1,1.8-28.7,2.3-11.1.6-22.2,1.2-33.3,1.1-27.5-.2-54.9-.7-82.4-1.2-5.4-.1-10.9-.7-16.3-1.1-4.4-.3-8.8-1.1-13.3-1.1-6.9-.1-10.6,3.8-10.1,10.6a47.08,47.08,0,0,0,2.7,12.9c4.2,11.8,11.8,21.4,20.7,30.2,15.5,15.2,34.5,21.2,55,23.7C179.1,387.7,187.8,387.4,197.2,387.8Zm-85.7-112c-.5,5.5-1.6,7.4-5.3,7.8a70.86,70.86,0,0,1-10.3.2c-6.8-.2-8.4-4.7-6.5-11.1.6-1.9.2-2.6-1.4-3.3-3.4-1.5-4.8-4.2-4.6-7.9a11.19,11.19,0,0,0-.1-4.1c-.3-.9-1.4-1.6-2.3-2.6.3,3.8.5,6.9.7,9.9.2,2-.8,3.1-2.5,3.9-4.3,2.2-8.8,1.5-13.3.9-3.1-.4-5.7-1.5-6.6-4.9-3.6,2.4-4.1,4.9-.7,7.2a66.68,66.68,0,0,0,13.5,7.6c10.8,4.2,22.2,5.6,33.6,7.5a406.13,406.13,0,0,0,49.2,5.1c9.7.4,19.4.7,29.2.6,16.3-.2,32.5-.7,48.8-1.2,5.3-.2,10.7-.6,16-1.2,10.1-1.2,20.2-2.5,30.2-4.1,11-1.8,22-3.6,32.1-8.3a43.4,43.4,0,0,0,10.3-6.7c2.7-2.3,1.9-4.7-1.5-6.3a5.21,5.21,0,0,1-5,4.3,70.59,70.59,0,0,1-13,.2c-3.5-.4-4.8-2.5-4.6-6.1a75.42,75.42,0,0,1,1.2-8.3c-.8.6-2,1-2.3,1.8a7,7,0,0,0-.6,4c.9,4.1-.9,6.7-4.3,8.4-1.9,1-1.9,1.9-1.3,4,1.4,4.8-.1,10.2-5.1,10.6a80.76,80.76,0,0,1-11,0c-3.8-.2-5.5-2-5.9-5.9-.2-1.7-1.1-1.9-2.4-1.8l-10.9,1.2c-5.6.6-11.2,1.2-16.8,1.9-1.9.2-3.1,1-2.6,3.4a5.61,5.61,0,0,1-4.1,7.1,21.59,21.59,0,0,1-15.6-1.2,5.41,5.41,0,0,1-2.4-3.9c-.4-4.1-.2-4.2-4.5-4.1l-28.9.3H166.2c-.1,1.1-.2,1.6-.2,2.2,0,4.4-.7,5.9-5,6.7a39.63,39.63,0,0,1-11.4.3c-4.7-.5-6.1-2.4-6.1-7.1v-3.2C132.8,278.3,122.3,277.1,111.5,275.8Zm104.1,28.1v-.7c.4-.1.8-.3,1.2-.4,9.6-1.4,19.1-2.7,28.7-4.2,13.8-2.1,27.7-4,41.3-6.8,8.4-1.7,16.5-4.8,24.7-7.5,2.1-.7,4-2.3,6.4-3.8-.8-.3-1-.4-1.2-.3-9,2.7-17.8,6.2-27,8.1-11.7,2.5-23.7,4.1-35.6,5.5-12.4,1.4-24.8,2.4-37.3,2.9-14.5.5-28.9.2-43.4.1-9-.1-18.1,0-27-.7-10.9-.8-21.8-2-32.7-3.5-9.5-1.3-19-3.1-28.4-5.2-8.1-1.8-15.9-4.5-23.5-6.6l.1.1c6.6,5.3,14.4,7.4,22.3,9.4,25.4,6.5,51.4,9.7,77.5,12.5a12.09,12.09,0,0,1,1.8.5c-.1.3-.1.5-.2.8-8.1-.3-16.2-.6-24.3-1-5.2-.3-10.5-.5-15.7-1.1-8.4-1-16.8-2-25.2-3.5-9-1.5-18-3.2-26.9-5.4-4.6-1.1-8.8-3.6-13.1-5.5a26.18,26.18,0,0,0,6,4.5c8.2,4.2,17.1,6.4,26,8.3a297.92,297.92,0,0,0,45.1,6c14.1.9,28.2,1.7,42.4,2.3,5.6.2,11.3-.3,16.9-.5,16.8-.6,33.7-.7,50.5-2,13.1-1,26.2-3.2,39.2-5.3,10-1.6,19.9-3.8,29.1-8.2a73.1,73.1,0,0,0,7.6-4.6c-.1-.2-.3-.4-.4-.6-3.9,1.8-7.7,4.1-11.8,5.1-9.1,2.3-18.4,4.1-27.7,5.6-10.9,1.7-21.9,3-32.9,4-10,.9-20,1.2-30,1.8C217.4,304,216.5,303.9,215.6,303.9ZM296.7,224c-.3,6-3.9,8-8.1,9.6-3.4,1.3-6.7,2.7-10.1,4-11,4-22.2,6.4-34.1,5.6-9-.6-18-.5-27-.5-4.2,0-7.5,2.6-8.3,5.9a9.66,9.66,0,0,0,4,10.4c4.9,3.4,10.6,3.6,16.2,3.8,14,.4,28.1.2,41.9-2.9,5.4-1.2,10.8-2.6,16.1-3.9-.1-.3-.1-.6-.2-.9-8.6,2-17.2,3.8-26.1,3.2a54.37,54.37,0,0,1,8.1-2.5c10-2.4,19.7-5.4,28.4-11.1,7.5-4.9,8.4-9.4,3.2-18C299.9,225.6,298.4,225.1,296.7,224ZM93.2,256.1a7.1,7.1,0,0,0,1.8.8c7.3,1.6,14.5,4,21.9,4.6,11.6,1,23.3,1.1,35,1.2,5.1,0,10.2-.6,14.6-3.8,3.5-2.5,4.4-6.1,3.7-10a6.85,6.85,0,0,0-6.7-5.7c-6.5-.3-13-.2-19.6-.3-9.7-.2-19.6.6-29-1.2-9.6-1.9-18.8-6.2-28-9.8-1.8-.7-2.8-3.3-4.1-5-.5-.6-.9-2-1.2-1.9a4.26,4.26,0,0,0-2.8,1.2,26.07,26.07,0,0,0-2.6,5.6c-1.9,5.4-1.1,8.5,3.8,11.7,4.3,2.8,8.9,5.7,13.7,7.5,6.9,2.6,14.1,4.1,21.1,6.2,1.1.3,2.1.8,3.2,1.2-.1.4-.3.9-.4,1.3C109.5,258.4,101.4,257.3,93.2,256.1ZM75.5,40.6c-4,5.9-4.1,12.5.5,18A58.66,58.66,0,0,0,87.2,69.1c6.9,4.9,13.1,10.1,15.2,18.8.5,2.1,2.3,2.8,4.2,2a27.5,27.5,0,0,0,5.9-3.1c3.8-2.8,4.2-5.2,1.8-9.4a25.69,25.69,0,0,0-11-10.4,19.61,19.61,0,0,1-5.5-3.9c-3.1-3.2-5.9-6.7-8.9-10-3.9-4.5-6.8-9.2-4.5-15.5.1-.1-.1-.3-.2-.5-6.8,4.8-8,12.5-2.8,18.6a20.89,20.89,0,0,0,2,2.2L95,70.7a3,3,0,0,1-2.3-.6c-3.4-3-7-5.9-10.2-9.1A63.35,63.35,0,0,1,75,52.2C72.5,48.5,74.3,44.5,75.5,40.6Zm228.4-.1c0,.1-.2.2-.1.3.2.7.3,1.3.5,2,2,5.3.8,9.9-3,13.8-3.6,3.6-7.4,6.9-11.1,10.3-1.6,1.5-3.5,2.8-5.2,4.1l-.5-.5a16.29,16.29,0,0,1,1.7-2.2c3.2-3.4,6.5-6.7,9.5-10.2,2.5-2.9,5.9-5.5,5.6-9.7-.3-4.9-3.1-8.7-6.8-11.9,2.3,5.8.7,10.6-3.1,15.1-5,5.9-9.3,12.5-16.5,15.9-4.4,2.1-7.4,5.5-9.9,9.5-2.6,4.3-1.9,7.5,2.3,10.4.9.6,1.9,1.1,2.8,1.6,4.6,2.2,5.9,1.7,7.4-3.3a23.48,23.48,0,0,1,7.9-11.5c5.7-4.6,11.4-9.1,16.7-14.2C307.1,55,307.7,45.1,303.9,40.5ZM139.5,16.4v.9c2.8.9,5.5,1.8,8.4,2.5a7.72,7.72,0,0,0,4-.2c6.7-2.5,13-2.4,18.9,2.1a6.15,6.15,0,0,0,3.5,1.2c9,.1,18.1-.1,27.1.1,3.5.1,6.1-1,9-2.9a16.32,16.32,0,0,1,15.1-1.3c5.8,2.5,9.6-1.4,14.3-2a51.79,51.79,0,0,0-9-2.8c-.5-.1-1.1.3-1.7.3a55,55,0,0,1-8.1.4c-4.1-.3-8.2-1.3-12.3-1.4q-17.25-.3-34.5,0c-5.5.1-10.9,1.1-16.4,1.6-2.1.2-4.6.7-6.4-.1C146.9,12.9,143.4,15.9,139.5,16.4Zm185,107.8c-.3,0-.7-.1-1-.1-.4,1.2-1,2.4-1.3,3.6-.4,1.9-.3,3.9-.7,5.9-.6,2.7-.9,5.9-2.5,8a15.5,15.5,0,0,0-2.8,8.1c-.8,6.7-1.6,13.3-2.2,20-.3,3.1-1.4,6.4.9,9.4,2.9,3.8,2.7,13.3-.1,17.1-2.2,3-2.2,6.7.5,10.5.8-1.4,1.8-2.6,2.1-3.9,1.4-6.1,2.8-12.2,4-18.4,1.6-8.2,3.6-16.4,4.2-24.7.7-9.2.2-18.4.1-27.6A75.62,75.62,0,0,0,324.5,124.2Zm-268.7,0a3.4,3.4,0,0,0-1,.1c-.2,1.1-.6,2.1-.7,3.2-.2,9.7-.5,19.4-.6,29.1a60.58,60.58,0,0,0,1,11.2c1.5,8.3,3.2,16.6,5,24.8.8,3.9,1.8,7.8,2.8,11.7.2.8,1.1,1.4,1.6,2.1.5-.7,1.5-1.5,1.5-2.2,0-2.4.1-5-.8-7-3-6.5-3.7-12.7.2-19.1a4.61,4.61,0,0,0,.6-2.8c-.8-8.9-1.7-17.9-2.6-26.8-.1-1.4-.3-3.2-1.1-4.2-3.7-4.4-4.1-9.6-4.7-14.9A23.11,23.11,0,0,0,55.8,124.2Zm230.6,62.2a19.22,19.22,0,0,1,0,2.4c-.3,2.7.1,4.9,3.3,5.6s6.6,1.9,9.9,2.7c5.9,1.5,12.4-1.7,13.5-6.5,1.6-7.2-1.4-12.3-8.5-13.5-3.4-.6-7,.2-10.5.6-7.5.7-7.6.9-7.6,8.4A.37.37,0,0,0,286.4,186.4Zm-193.6.5v-4.2c0-2.2-.8-3.7-3.3-4.1-4.2-.5-8.3-1.5-12.5-1.7-6.6-.3-11,4.3-11,10.9,0,6.3,3.9,9.9,10.8,9.5a43.91,43.91,0,0,0,10-2.3C93.9,193,92.8,194.7,92.8,186.9ZM159.5,21.7c-4.4,0-7.9,3-8.9,7.6-1.3,6,1.3,11.7,1.9,17.5,0,.4,1.1,1,1.8,1.1,3.1.4,6.3.7,9.4,1.1a2.73,2.73,0,0,0,3.5-2.2c1.1-3.6,2.3-7.1,3.2-10.7C172.5,28,167.7,21.7,159.5,21.7ZM219,21c-2.4.8-5.4,1-7.1,2.6a12.18,12.18,0,0,0-3.5,11.2,110,110,0,0,0,3.7,12.4c.3.8,1.9,1.5,2.9,1.4,3.1,0,6.1-.6,9.1-.7a2.44,2.44,0,0,0,2.7-2.4c.6-3.9,1.5-7.7,2.2-11.6.8-4.5-1.5-7.9-4.2-10.9C223.7,21.9,221.3,21.8,219,21Zm78.4,101.4c-1.3.2-4.2-1.3-4.8,2.4-.5,2.9-1.5,5.7-1.8,8.6a4.36,4.36,0,0,0,1.8,3.5,130.32,130.32,0,0,0,12.1,5.3c4,1.6,11.2-1.3,12.3-4.8a37.61,37.61,0,0,0,1.5-6,5.15,5.15,0,0,0-.7-3.9c-2.7-3.4-6.1-6-10.8-5.7C304.1,121.9,301.1,122.2,297.4,122.4ZM72.5,142.7a5.6,5.6,0,0,0,1.8-.1c4.4-1.9,8.9-3.8,13.2-5.9.6-.3,1-1.8.9-2.7-.5-3.1-1.4-6.1-2-9.2-.4-1.9-1.3-2.5-3.2-2.5a30.51,30.51,0,0,1-8-.3c-5.7-1.1-9.8,1.2-13.5,5.1a4.13,4.13,0,0,0-1.1,2.3C59.8,137.4,64.5,142.6,72.5,142.7ZM265.7,40.9c5.6,4.9,10.7,9.2,15.6,13.6,1.4,1.3,2.4,1.5,3.6-.1,1.4-1.9,3-3.7,4.4-5.6,3.2-4.3,3.3-8,.3-12.5a35,35,0,0,0-2.4-3c-2.2-2.8-5.7-4-8.6-2.1C274.2,34.2,270.1,37.6,265.7,40.9ZM113.4,41c-4.2-3.1-8.3-6.4-12.6-9.3a6.74,6.74,0,0,0-5-.8c-5.2,1.3-9.7,10-7.5,14.8,1.3,3,3.7,5.5,5.7,8.2,1.3,1.8,2.5,2.1,4.3.4C103,50,107.9,45.7,113.4,41Zm118.1,3.2c5.1-1.7,10.2-3.5,15.3-5.2,3.5-1.2,5-3.8,5.1-7.2.1-2.3-.3-4.6-.4-7.2-5.9,2.2-11.5,4.2-17,6.4-.8.3-1.2,1.3-1.9,2,.2.3.4.5.6.8,2.5-.2,5.1-.5,7.6-.7.1.2.3.5.4.7C235.5,34.8,230.5,36.3,231.5,44.2ZM138,34l.3-.9a34.69,34.69,0,0,0,4.5.6,22.26,22.26,0,0,0,3.6-.5c-1-.8-1.9-2-3.1-2.4-3.7-1.4-7.4-2.5-11.1-3.8a50,50,0,0,1-4.8-2.3c0,3-.4,5.5.1,7.7.4,2,1.3,4.8,2.8,5.5,5.6,2.4,11.6,4,17.4,5.9.1,0,.3-.2.5-.3C148.7,36.1,143.2,35.2,138,34ZM80.8,118.6c-1.5-5.9-3.9-10.9-8-15.1a4.14,4.14,0,0,0-3-1.1c-3,.3-5.9.8-9,1.3,1.9,3.7,3.8,6.9,5.4,10.3,2.2,4.6,2.1,4.7,7.6,3.9l-.7-4.9C75.4,115.6,76.1,119.4,80.8,118.6Zm217.6-.5c4.8,1.4,5.6-2.4,7.6-4.9-.2,1.5-.4,2.9-.6,4.4,5.2,1.4,5.5,1.2,7.4-3.3,1.1-2.6,2.6-5,3.9-7.6.5-1,.9-2,1.4-3-1.6-.3-2.7-.7-3.9-.8-3.1-.2-6.5-1.8-9.1,1.4A40.27,40.27,0,0,0,298.4,118.1ZM171.6,47.4c3.4.2,6.7.5,9.9.5,7.1-.1,14.2-.5,21.3-.5,5.1,0,5.1.2,4.2-4.8,0-.2-.2-.3-.4-.5a30.1,30.1,0,0,0-5.2,0,73.15,73.15,0,0,1-24.7-.1C172.4,41.3,171.3,42.4,171.6,47.4ZM299,144.5c-.2,1.1-.6,2.3-.7,3.4-.7,7.5-1.1,15-2,22.4-.3,2.3.3,2.7,2.4,2.8,2.3.1,2.7-1.2,2.9-2.9.7-6.7,1.5-13.3,2-20C303.9,145.8,303.7,145.8,299,144.5ZM83.1,172.9c-.9-9.6-1.8-18.9-2.7-28.6-2.2,1.4-5.5.6-5.2,4,.6,6.8,1.3,13.5,2.1,20.3C77.9,173.2,77.9,173.2,83.1,172.9Zm226,27c-2,.2-3.2,1-3.1,3.5.3,5.4,1.2,10.7,4,15.5,2.2,3.8,4.5,4.2,6.9.5,2.6-4,4.4-8.5,6.5-12.8a11,11,0,0,0,.6-2.6,3,3,0,0,1-.8-.4,13.09,13.09,0,0,0-1.7,2.4c-.7,1.3-.9,2.9-1.7,4a45.67,45.67,0,0,1-4.4,4.4c-1.3-1.6-3.2-2.9-3.9-4.7C310.3,206.7,309.9,203.3,309.1,199.9ZM233.4,9.2c-.1.3-.2.5-.3.8a18.89,18.89,0,0,0,2.5,1.1c2.1.8,4.3,1.4,6.3,2.4,3.2,1.6,3.2,4.6.3,6.4a18.1,18.1,0,0,1-4,1.8c-2.5.9-5,1.6-8.3,2.6,1.5,1.3,2.8,3.1,3.6,2.9,6.1-1.2,12-3.1,17-6.9,1.6-1.2,2.2-3,.4-4.6C245.9,11.4,239.8,9.6,233.4,9.2Zm-87.4.9c-.1-.3-.2-.5-.3-.8-5.3.7-10.4,1.9-15,4.7-4.3,2.6-4.5,5.6,0,7.8,5.1,2.6,10.6,4.4,15.7,6.4,2.6-4,2.6-3.9-1-5a42,42,0,0,1-7.7-2.9,5,5,0,0,1-2.4-3.6c-.1-1.1,1.2-2.6,2.3-3.2a43.49,43.49,0,0,1,6.3-2.5A18.94,18.94,0,0,0,146,10.1ZM56.3,203.8a11.73,11.73,0,0,0-1.1.5c1.4,5.7,3.5,11.1,7.5,15.5,2.7,3,5.2,2.9,6.5-.8,1.8-4.7,2.8-9.7,4-14.7.6-2.6-.7-4-3.2-4.3a96,96,0,0,1-2.2,9.6c-.7,1.9-2.4,3.3-3.6,5-1.5-1.4-3.3-2.6-4.5-4.2A40.91,40.91,0,0,1,56.3,203.8ZM205.3,27H173.9c-.3,2.7.2,4.4,3.3,4.3,8.1-.1,16.2,0,24.2.1C204.5,31.5,205.4,29.9,205.3,27ZM47,125.1a6.89,6.89,0,0,1,.8.3,23.4,23.4,0,0,0,.9-2.4,61.41,61.41,0,0,1,1.8-7.4c.5-1.3,1.9-3.1,3.1-3.2s3,1.2,3.8,2.4c1.6,2.2,2.6,4.7,4.3,7.9,1-1.8,2.4-3.4,2.1-4.1a121.88,121.88,0,0,0-7-12.8c-1.4-2.1-3.6-1.7-4.9.2C48,111.8,47,118.4,47,125.1Zm284,.3a2.77,2.77,0,0,0,.9-.1c.1-.6.5-1.2.4-1.7-.5-5.7-1.3-11.4-4.2-16.4-2.1-3.6-4.8-3.7-7-.2-2,3.2-3.6,6.8-5.4,10.1-1.4,2.6,0,3.8,2,4.5a79.46,79.46,0,0,1,5-8.1c1.9-2.4,5-1.7,6,1.2a16.54,16.54,0,0,1,.7,3.2C329.8,120.3,330.4,122.9,331,125.4Zm-21.5,49.4c.4-4.4.8-8.7,1.3-13s1.3-8.8,1.7-13.2c.1-.9-.9-2-1.4-3-1.1.9-3,1.7-3.1,2.7-1,7.2-1.7,14.5-2.5,21.8C305,173.2,306.6,174.4,309.5,174.8Zm-242.9-29c1,9.8,2,19.4,3.1,29.1,4.1-1.1,4.7-2.1,4.2-6.2-.8-6.5-1.6-12.9-2.3-19.4C71.1,146.7,69.9,145.3,66.6,145.8Zm223.7,29a12.32,12.32,0,0,0,1.4-3.1c1.4-9,2.7-18,4-27.1.4-2.5-.8-3.4-3.1-3.2C290.3,147.8,288.1,171.3,290.3,174.8Zm-201.4.1c.3-.1.7-.1,1-.2a10.47,10.47,0,0,0,.5-3c-.6-6.2-1.3-12.3-2-18.5-.3-3.1-.6-6.3-1.1-9.4-.2-.9-1.3-1.6-2-2.5-.6.9-1.9,1.8-1.8,2.5,1.2,9.6,2.5,19.1,4,28.6A6.77,6.77,0,0,0,88.9,174.9ZM166.2,7.7h46.4C210.1,4.6,170.8,4.6,166.2,7.7Zm7.6,29.8c.4.4.7.7.9.7,9.8.1,19.6.1,29.4.1.4,0,1.1-.6,1-.8-.1-.6-.3-1.5-.8-1.8a4.34,4.34,0,0,0-2.3-.5c-7.5-.1-15.1-.3-22.6-.2C177.4,35.1,174.9,34.7,173.8,37.5ZM50.8,183.9c.3-.1.6-.3.9-.4-.1-1.1-.1-2.1-.2-3.2l-3.3-31.8a8.18,8.18,0,0,0-1-2.4c-.4.8-1.2,1.7-1.2,2.5.2,4.9.5,9.8,1,14.7.7,6.3,1.5,12.5,2.4,18.8C49.5,182.7,50.3,183.3,50.8,183.9ZM223.3,11.6c3.9.1,5.3-1.1,6-4.7.1-.7-.8-2.3-1.4-2.4-2.6-.4-5.3-.5-7.9-.7-1.8-.1-3.5-.1-3.8,2.2s.5,4.1,2.9,4.8A30.05,30.05,0,0,0,223.3,11.6Zm-67.3,0a38.05,38.05,0,0,0,4.4-.7c2.1-.5,2.8-2.2,2.6-4.1s-.9-3.4-3.3-3.1c-2.7.3-5.5.4-8.3.7a2.52,2.52,0,0,0-1.8,1.5C149.3,8.9,152.1,11.6,156,11.6ZM327.7,183.2c.3.1.5.3.8.4a9.46,9.46,0,0,0,1.4-2.3c1-7.4,2-14.8,2.8-22.2a89.1,89.1,0,0,0,.7-10.3c0-1.1-.8-2.2-1.3-3.4a2.51,2.51,0,0,0-.7.4C330.1,158.2,328.9,170.7,327.7,183.2ZM42.3,135.3h0a16.09,16.09,0,0,0,0,3.8c.3,1,1,2.6,1.7,2.7,1.5.2,3.7.1,4.6-.8,2.6-2.4,1.1-9.8-2-11.5-2.6-1.5-4.2-.7-4.3,2.3C42.2,132.9,42.3,134.1,42.3,135.3Zm9.2,51.9c-.9.9-3,2.1-3,3.3,0,2.9.9,5.8,1.6,8.7.4,1.9,1.8,2.6,3.2,1.5s3.7-2.9,3.5-4.2c-.4-2.9-1.9-5.7-3.1-8.6C53.6,187.6,52.8,187.6,51.5,187.2ZM328.7,201c.7-3.5,1.6-6.8,2-10.1a3.82,3.82,0,0,0-1.9-3,4.44,4.44,0,0,0-3.9.6C320,193.3,321.6,199.2,328.7,201Zm7.8-72.3c-1.8.3-3.3.3-4.4.9-3.2,1.7-4.1,9.3-1.3,11.5a5.76,5.76,0,0,0,4.1.7c.6-.1,1.5-1.6,1.5-2.4C336.6,136.1,336.5,132.7,336.5,128.7ZM260.1,37.2c.1.3.1.7.2,1,1.1.1,2.6.8,3.2.4,4.3-3.4,8.4-7.1,12.5-10.7,0,0-.1-.3-.3-.8C267.7,26.3,264.9,33.3,260.1,37.2ZM102.6,28.1c1.4,1.2,2.5,2.3,3.7,3.2,3,2.4,5.9,4.9,9,7.2.6.5,2-.1,3.1-.2-.3-.8-.3-1.9-.9-2.5-2.3-2.3-4.6-4.6-7-6.8S105.7,26.5,102.6,28.1Zm-2.5,253.7a3.73,3.73,0,0,0,2-.2c1.2-.6,3-1.4,3.1-2.3.3-1.9-1.2-3.2-3.3-3.3a11.25,11.25,0,0,0-4.1.1,4.07,4.07,0,0,0-2.5,2.1C94.5,281.1,95.6,281.9,100.1,281.8Zm190.2-83.4c-.3.2-.7.5-1,.7,1.4,6.7,1.1,13.9,6.4,20.1.1-.8.2-1.1.2-1.2-1.2-5.9-2.5-11.9-3.8-17.7C291.9,199.5,290.9,199,290.3,198.4Zm-201.6.3c-3.3,6.4-3.9,13.5-5.4,20.4C88.2,213.2,89.4,206.3,88.7,198.7Zm60.8,88.7a52.41,52.41,0,0,0,7.5.4,4.37,4.37,0,0,0,2.9-2.1c.3-.5-.3-1.9-.8-2.6-1.1-1.3-6.2-1.8-7.8-.4C150.2,283.6,150.1,285.5,149.5,287.4Zm-79-19.7c1.8-.5,5,.8,5.3-3,.2-2.2-1.7-3.1-5.8-3-2.2.1-3.9.8-4,3.3C66.1,267.8,68.1,267.7,70.5,267.7Zm208.7,13.7h1.5c1.6,0,3.4.3,3.3-2.2-.1-2.2-1-3.5-3.5-3.2a25.39,25.39,0,0,1-3.9,0c-2.3-.1-2.7,1.7-2.5,3.2.1.8,1.5,1.7,2.5,2.1A7.48,7.48,0,0,0,279.2,281.4Zm29.3-19.6c-1,0-2.1-.3-2.9.1a5.92,5.92,0,0,0-2.3,2.4c-.2.5.4,2.2.8,2.2a78.61,78.61,0,0,0,8.4.3c.2,0,.6-1,.6-1.5C313.4,262.6,312.3,261.7,308.5,261.8Zm-83.8,25.7h1.5c1.5-.1,3,0,3-2.3,0-2.1-.8-3.2-2.9-3.2-1.5,0-3.1-.4-4.4.1-1.1.5-1.9,2-2.8,3a27.73,27.73,0,0,0,2.9,2.2A10.2,10.2,0,0,0,224.7,287.5Zm80.5-66.1c.7-1.1.9-1.2.9-1.4-1.4-5.8-2.7-11.6-4.3-17.4-.2-.8-1.6-1.3-2.5-1.9a6,6,0,0,0-.8.8C300.6,207.9,302.8,214.3,305.2,221.4Zm-232.3-.7c.3.1.7.2,1,.3,2.9-6.3,4.6-13.1,6.7-19.9-3-.3-3.3,1.6-3.7,3.3-1,3.9-1.9,7.8-2.8,11.7C73.6,217.6,73.3,219.2,72.9,220.7Z"/><path class="cls-1" d="M204.2,404.7c0,5.3-3,8.2-8.2,8.2H182.7c-3.3,0-6.3-1.7-7.1-3.9-1.2-3.6-.3-8,2.2-9.9,5.1-4.1,5.9-4.2,12.7-5.4,3.7-.6,6.8-.6,8.7,3.3a5.86,5.86,0,0,0,2,1.8C203.7,400.1,204.3,402.4,204.2,404.7Zm-6.8,5.3c.6-4.8.1-5.4-4.4-5.3-2.3,0-4.5.1-6.8.1-4.6-.1-5.1.6-4.2,5.2Z"/><path class="cls-1" d="M309.3,338.3c-2.4-.3-4.9-.5-7.3-1s-3.5-2.4-3.8-5c-.4-4.3.5-7.6,4.4-10.1,1.9-1.2,2.8-3.5,5.7-3.4a12.06,12.06,0,0,1,11.8,14.3,5.63,5.63,0,0,1-5.6,4.8c-1.8.1-3.6,0-5.4,0C309.4,338,309.4,338.2,309.3,338.3Zm-.2-2.7c4.2,0,5.1-.5,5.2-2.5.1-2.3-1.5-3.4-4.8-3.4-2.2,0-4.6-.3-4.7,3.2C304.7,336.9,307.6,335.1,309.1,335.6Z"/><path class="cls-1" d="M70,338.2H67.1c-3.3-.1-6.7-.2-7.9-4.2-1.6-5.3-.9-7.7,3.3-10.9a12.88,12.88,0,0,0,1.7-1.6,7.31,7.31,0,0,1,10.6-.9c1.4,1.3,2.8,2.5,4.2,3.7,3.3,2.7,2.2,6.5,1.8,9.7-.3,2.7-3.2,3.6-5.7,3.9C73.2,338.1,71.3,338.1,70,338.2Zm-.3-2.6h0c.9,0,1.9.3,2.6-.1s2-1.3,2-2c0-1.1-.8-3.1-1.5-3.2-2.5-.4-5.5-2.2-7.4,1.1-1.4,2.5-.4,4.1,2.5,4.1A10.87,10.87,0,0,0,69.7,335.6Z"/><path class="cls-1" d="M54.1,326.2c-2.5,3.6-2.4,7.1.6,10.1,2.7,2.7,5.9,4.8,9,7.2.5.4,1.1.8,1.7,1.3-7.1.9-16.8-6.1-15.5-14.7C50.3,327.2,51.2,326.4,54.1,326.2Z"/><path class="cls-1" d="M314.4,344.4c12.8-9.8,14.8-13.1,11-18,2.7-.5,4.9,2.2,4.4,5.6A15.07,15.07,0,0,1,314.4,344.4Z"/><path class="cls-1" d="M318,393.8c0,2.2-1,3.1-3.1,3.2a2.92,2.92,0,0,1-3.4-3.2,3,3,0,0,1,3.1-3.2C316.4,390.6,318.1,391.5,318,393.8Z"/><path class="cls-1" d="M93,416.6c-.4,3-1.5,4-3.6,4.1-2.3.2-3-1.4-3-3.1a3,3,0,0,1,3.3-3.3C91,414.5,92.2,416,93,416.6Z"/><path class="cls-1" d="M23.5,316.3c1.2,1,2.8,1.7,3.6,2.9.4.5-.4,2.6-1.2,2.9-1.1.5-3.4.7-3.8.1-.8-1.1-.7-2.9-.6-4.4.1-.5,1.4-1,2-1.5Z"/><path class="cls-1" d="M340.6,376.1c-3.1-.2-4.6-1.4-4-3.4.4-1.3,1.9-2.9,3.1-3a2.89,2.89,0,0,1,3.2,3.3C342.6,374.3,341.1,375.4,340.6,376.1Z"/><path class="cls-1" d="M26.8,347.4c-.5,2.8-1.9,3.5-3.8,3.6-2.3.1-3.2-1.5-3.2-3.4a2.83,2.83,0,0,1,3.2-3C24.4,345,25.5,346.5,26.8,347.4Z"/><path class="cls-1" d="M35.2,372.9c2.1-1.4,3.3-2.8,4.5-2.9a2.75,2.75,0,0,1,2.9,3.5,4.66,4.66,0,0,1-3.3,2.8C38.3,376.3,37.2,374.6,35.2,372.9Z"/><path class="cls-1" d="M354.5,315.3c1.8,1.9,3.5,2.9,3.8,4.3a2.74,2.74,0,0,1-3.1,3.3,4.79,4.79,0,0,1-3.1-3.1C351.9,318.7,353.3,317.3,354.5,315.3Z"/><path class="cls-1" d="M293.1,418c-1.1.9-2.1,2.4-3.4,2.6-2.2.5-3.2-1.1-3.3-3.2s1.1-3.4,3-3.2c1.3.2,2.4,1.5,3.6,2.3C293,417,293.1,417.5,293.1,418Z"/><path class="cls-1" d="M64.9,390.9c2-.2,2.6,1.1,2.6,2.9s-1,3.4-3,3.4a3.2,3.2,0,0,1-3.4-3.4C61.1,391.6,62.7,390.8,64.9,390.9Z"/><path class="cls-1" d="M359.6,348.3c-1.2.9-2.3,2.4-3.6,2.5-1.9.2-2.8-1.3-2.9-3.3a2.62,2.62,0,0,1,2.9-3C357.8,344.6,359.2,345.5,359.6,348.3Z"/><path class="cls-1" d="M151.9,393.5c-4.6-2.3-9.3-4.5-13.9-6.8.2-.4.4-.8.6-1.3,4.7,2.2,9.3,4.4,14,6.6C152.4,392.5,152.1,393,151.9,393.5Z"/><path class="cls-1" d="M226.7,391.8c4.6-2.2,9.2-4.4,13.8-6.5l.6,1.2c-4.6,2.2-9.1,4.5-13.7,6.7A9.14,9.14,0,0,0,226.7,391.8Z"/><path class="cls-1" d="M107.9,397.4c2.3-2.9,4.6-5.7,6.9-8.6a7,7,0,0,0,1,.8c-2.3,2.9-4.5,5.8-6.8,8.6A7.63,7.63,0,0,1,107.9,397.4Z"/><path class="cls-1" d="M194.8,425.5c-1.4,1-2.4,2.2-3.2,2.1s-1.5-1.4-2.3-2.2c.8-.7,1.5-2,2.4-2.1S193.5,424.5,194.8,425.5Z"/><path class="cls-1" d="M270.7,398.5c-2.6-3.2-5-6.1-7.4-9C266,389.7,270.2,394.7,270.7,398.5Z"/><path class="cls-1" d="M232.8,396c3.7-2,6.7-3.6,10-5.3C241.4,393.8,237.1,396.1,232.8,396Z"/><path class="cls-1" d="M144.7,396.5c-2.9-1.5-5.8-3-8.7-4.4.2-.4.4-.7.6-1.1l8.7,4.5A8.79,8.79,0,0,1,144.7,396.5Z"/><path class="cls-1" d="M297.9,376.7c-2.1-.9-4.1-1.8-6.2-2.7a11.73,11.73,0,0,1,.5-1.1c2.1.9,4.1,1.8,6.2,2.7A11.73,11.73,0,0,0,297.9,376.7Z"/><path class="cls-1" d="M282,426.7c-3.4.6-3.4.5-3.9-4.2C279.7,424.2,280.7,425.4,282,426.7Z"/><path class="cls-1" d="M87.2,374.3c-2,.7-3.9,1.5-5.9,2.2-.1-.3-.3-.6-.4-.9,1.9-.9,3.9-1.9,5.8-2.8A5.27,5.27,0,0,0,87.2,374.3Z"/><path class="cls-1" d="M238,228a13,13,0,0,1-2-.6c-3.2-2-6.1-1-9.1.6-10.7,5.6-22.2,7.6-34.4,8.3-15.4.9-29.4-2.5-43-9.3a6.07,6.07,0,0,0-4.4,0c-3.4,1.3-6.2.9-8.6-1.7-5.5-5.7-11.1-11.4-16.4-17.2a6,6,0,0,1-.9-7.2c1.5-2.6,1.1-5-.2-7.5a72.18,72.18,0,0,1-7-33.2,67.12,67.12,0,0,1,6.5-28.5,47.57,47.57,0,0,0,2.9-6.5c.4-1.6.6-3.7-.1-5-1.6-3-.8-5.4,1.3-7.5,5.6-5.5,11.2-11,16.9-16.3,2.7-2.5,5.8-3.5,9.4-1.4a6.07,6.07,0,0,0,4.4,0c7.6-3.2,15.4-6.2,23.7-6.9,6.6-.5,13.3-.4,19.9-.4,10-.1,19.2,2.9,28.2,6.9,2.1.9,4,1.3,6.2,0a5.89,5.89,0,0,1,7.4.8c6.4,6.1,12.6,12.3,18.9,18.5,1.7,1.7,1.9,3.6.5,5.9s-.9,4.4.3,6.7a72.13,72.13,0,0,1,8.7,41,84.11,84.11,0,0,1-7,27c-.7,1.6-.4,3.8,0,5.5,1,3.5.8,6.6-1.8,9.3-5,5.1-9.8,10.4-14.9,15.4C241.7,226.2,239.5,227,238,228Zm-48.2-41.3c1.9,3.1,3.7,2.5,5.9.3,7.6-7.7,15.3-15.3,22.9-22.9,1.6-1.6,1.4-2.9-.2-4.5-7.4-7.3-14.7-14.7-22.1-22.1-3.3-3.3-3.3-3.3-6.8-.4-3.5-2.7-3.5-2.8-6.7.4-2.9,3-5.7,6-8.8,8.9-5.3,5-10.7,9.8-16.1,14.7,2.6,2.8,4.2,4.7,5.9,6.5,6.4,6.4,12.7,12.8,19.1,19.1C186.2,189.8,186.2,189.8,189.8,186.7Zm67.3-42.2c-.2-.5-.4-.9-.6-1.4-2.7-5.6-5.4-11.1-8.2-16.7-.7-1.3-1.8-2.6-3.6-1.6s-3.6,2-5.5,3.1c13.8,21.5,14.8,43.2,1.7,65.1,2,1.1,3.7,2,5.2,2.9,2,1.2,3.2,1,4.2-1.4,2.5-5.9,5.3-11.8,8.1-18-.5,8.1-5.1,14.5-6.8,22a6.44,6.44,0,0,0,3.1-2.7,63.73,63.73,0,0,0,8.3-25.7c1.7-16.7-1.6-32.3-10.7-46.6-1.3-2-2.4-2-4-.5C252.2,129.8,256.5,136.4,257.1,144.5ZM128.9,121.9a22.82,22.82,0,0,0-2.2,2.2,29.55,29.55,0,0,0-2.3,3.8,70.51,70.51,0,0,0,.1,68.4,18,18,0,0,0,2.6,3,4.05,4.05,0,0,1,.9-.5c-1.8-7.4-6.9-13.9-7.3-21.7,3,6.1,5.8,12.2,8.6,18.3.7,1.6,1.6,2.1,3.2,1.2,1.9-1.1,3.8-2,5.8-3.1-1-1.9-1.9-3.7-2.9-5.5-6.1-11.6-7.6-23.9-5.1-36.7a56.94,56.94,0,0,1,8.3-20.6c1-1.6,1.4-2.8-.9-3.7a14.17,14.17,0,0,1-2.3-1.4c-1.9-1.2-3.4-1.1-4.5,1.2-2.6,5.4-5.2,10.8-7.8,16.1-.3.6-.8,1.2-1.1,1.8.8-8,4.9-14.6,8.8-21.4A18.2,18.2,0,0,0,128.9,121.9Zm94.5,37.5c1.5-1.7,2.4-3,3.6-4.1,6-5.2,8.4-11.8,7.7-19.6a7,7,0,0,0-3.3-5.9,19.91,19.91,0,0,1-5.7-5.1c-3.8-5.7-9.3-5.4-14.8-4.4-6.2,1.2-10.3,5.7-14.3,10.1a2.35,2.35,0,0,0,.3,2.4C205.4,141.6,214.2,150.3,223.4,159.4Zm-78.9-20.3c0,8,4.4,13.7,9.9,18.8a3.31,3.31,0,0,0,3.2-.1c8.4-8.2,16.6-16.5,24.8-24.8a2.37,2.37,0,0,0,.3-2.4c-3.9-4.2-8-8.3-13.8-9.8s-11.1-1.3-15.2,4c-1.2,1.6-2.7,3.5-4.5,4.3C144.6,131.1,144.4,135,144.5,139.1Zm39.2,53.6c-.9-1-1.5-1.9-2.2-2.7-7.6-7.7-15.2-15.3-22.8-23-1.1-1.1-2.2-2.8-3.9-1.2-4.5,4.4-9.2,8.9-10,15.6-.5,4.6-.7,9,3.7,12.3,2.2,1.7,3.7,4.2,5.6,6.3,1,1.1,2.1,2.6,3.4,3,6.7,1.8,13.1,1.1,18.6-3.5C178.7,197.5,181,195.2,183.7,192.7Zm39.5-27.6c-8.8,8.7-17.6,17.3-26.3,25.9a2.37,2.37,0,0,0-.3,2.4c5.4,6.3,11.8,10.9,20.6,10.3,2.7-.2,5.6-.1,7.6-3.1,1.9-2.8,4.5-5.2,6.6-7.8,1.2-1.5,2.8-3.1,3.1-4.8C236.1,178.9,230,168.8,223.2,165.1ZM152.5,209c-5.1,7.8-5,7,2.5,11.3a14.72,14.72,0,0,0,2.2,1c12.3,5.7,25.4,6.4,38.8,6,11.4-.3,21.6-3.7,31.4-9.1,3.5-1.9,3.6-2.6,1.7-5.9-.8-1.3-1.6-2.6-2.4-4-1.4.8-2.6,1.6-3.9,2.4-6.4,3.8-12.9,7.2-20.5,7.7a206.26,206.26,0,0,1-20.8.4,37.31,37.31,0,0,1-12.4-2.3C163.4,214.5,158.1,211.6,152.5,209Zm6.3-92.5c7.1-.5,13.4,0,18.6,4.2a69.88,69.88,0,0,1,6.3,5.9c1.7,1.8,3.2,2.6,5.1.3.2-.3.7-.3.9-.5,3.5,2.5,3.7,2.4,6.6-.7.3-.3.5-.6.8-.9,5.1-5.6,11.2-8.8,19-8.4,1.3.1,2.6,0,4.4,0C205.9,105.2,172.2,106.1,158.8,116.5Zm30.9,81.4c-3-2.6-3.1-2.6-6.1.1-4.5,4.1-9,8.4-15.4,9.2-2.9.4-5.8.4-8.9.6,15.1,11.3,48.4,9.6,60,0-3.4-.4-6.8-.5-10.1-1.2-5.6-1.1-9.5-5-13.3-8.9C192.9,194.9,192.8,194.9,189.7,197.9ZM224.5,113c.8-1.7,1.9-3.8,3.1-6.1-1.6-.9-2.8-1.8-4.1-2.4-7-3.3-14.1-5.9-21.9-6.6-15.5-1.3-30.8-.7-45.1,6.3-5,2.5-5,2.3-2.6,7.4.9,2,1.8,2.2,3.5,1.2,10.2-6.3,21.4-8.4,33.2-8.1a64.42,64.42,0,0,1,15.2,1.7C212,107.9,217.9,110.6,224.5,113Zm13.8,75.8c10.9-14.5,10.4-40.8-.4-54.1,0,3.4.3,6.3-.1,9.1-.9,6.3-4.6,10.9-9.1,15.2-3.3,3.1-3.2,3.2.1,6.2,4.3,3.9,8,8.3,9,14.2C238.4,182.3,238.2,185.5,238.3,188.8Zm-97.1-54c-10.8,10.4-10.8,46.5-.1,53.9-2.1-11.6,4.3-19.5,12.5-26.7C145.3,154.6,138.9,146.9,141.2,134.8Zm95.1,89.4c1.7-.7,3.1-.9,3.8-1.7,5.3-5.3,10.4-10.7,15.5-16.3.8-.9.9-2.4,1.6-4.4-2.9,2.1-5,1.6-7.1.4-2.9-1.7-5.9-3.2-8.9-4.7-6.2-3.3-6.5-3.2-11.3,2.1-1.7,1.9-2.1,3.6-.8,5.8,2.2,3.5,4.2,7.1,6.3,10.6C236.9,218.3,237.8,220.7,236.3,224.2Zm-93.3-.1c-2.1-2.8-.6-5.1.6-7.4,1.5-2.8,3.1-5.5,4.7-8.2,3.5-6.3,4.5-4.5-1.1-10.8-2.1-2.3-4.3-2.6-6.8-1.3-3.1,1.5-6.1,3.2-9.1,4.9-2.7,1.6-5.4,3.4-8.8,1.3C123.3,207.9,137.3,222.7,143,224.1ZM124.7,117.3c2.2.4,4.1.3,5.7,1,3.1,1.5,6,3.5,9,5.1,7.4,4.1,6,4.3,12.1-1.5,1.6-1.6,2-3,1-5-2-3.9-4-7.9-6.1-11.8-1.2-2.2-2.4-4.5-.6-7.1C141,98.1,124.7,113.8,124.7,117.3ZM234.6,98a62.3,62.3,0,0,1-2.4,8c-1.6,3.8-3.7,7.3-5.5,11-1,2.1-.6,3.8,1.4,5.4,5.5,4.3,5.3,4.1,11.7,1,4.8-2.4,8.6-7.4,15-5.8C253.2,112.4,237.6,97.9,234.6,98Zm-4.6,5v-1a10.48,10.48,0,0,0-1.7-1.4,46.63,46.63,0,0,0-5-2.5,77.91,77.91,0,0,0-35.4-7,85.1,85.1,0,0,0-33.8,8,25.35,25.35,0,0,0-3.6,2c-.5.4-.9,1.5-.6,1.9s1.3.7,2,.8a3.51,3.51,0,0,0,1.6-.6A76.93,76.93,0,0,1,190,94a72.19,72.19,0,0,1,29.8,6c2.5,1.1,4.9,2.5,7.5,3.5C227.8,103.8,229,103.2,230,103ZM146.9,219.1c-.1.2-.3.5-.4.7a6.42,6.42,0,0,0,1,1.3,77.84,77.84,0,0,0,7.4,4.2c12.5,6.2,25.7,8,39.6,7.3a73.7,73.7,0,0,0,36.3-11.2c.6-.4,1.1-1.1,1.7-1.6-.2-.3-.3-.5-.5-.8-1.2.5-2.4,1-3.6,1.6-1.8,1-3.5,2.2-5.4,3.1-12.8,6.4-26.3,8.2-40.5,7.2-11.9-.9-22.8-4.2-32.7-10.8A14.19,14.19,0,0,0,146.9,219.1Z"/><path class="cls-1" d="M173.3,258.6a56.63,56.63,0,0,1,4-5.3c1.7-1.8,1.7-3.1-.1-4.8-1.4-1.3-3.1-2.6-3.7-4.2a8,8,0,0,1,.1-5.7c1-1.9,3.3-1.8,5.2-.7a18.94,18.94,0,0,1,3,1.9c2.3,1.9,4.6,3.1,7.5,1.4a.9.9,0,0,1,1,0c2.9,1.8,5,.3,7.1-1.6a3.59,3.59,0,0,1,1-.7c2.8-2,5.7-2.2,7.2-.4,1.7,1.8,1.2,4.8-1.2,7.4-4.6,4.8-4.6,4.8,0,10.3,1.3,1.6,2.5,3.4,1,5.3-.8,1.1-2.6,2.4-3.7,2.2a9.9,9.9,0,0,1-4.8-2.6c-2.1-1.8-3.8-4.5-6.9-1.6-.2.2-1.2,0-1.5-.3-2.1-1.8-3.4-.6-5,.9a18.16,18.16,0,0,1-4.8,3.4C176,264.7,173.2,262.7,173.3,258.6ZM197,248.4c2-2.4,4.7-3.6,5.5-6.4-.2-.2-.4-.5-.6-.7-2.2,1.4-4.5,2.8-6.8,4.3A22.62,22.62,0,0,1,197,248.4Zm-12.8-2.7c-2.6-1.6-4.9-3.1-7.3-4.5-.2.3-.5.6-.7.9,1.9,2,3.7,4,5.7,6.1A29.6,29.6,0,0,0,184.2,245.7Zm17,14.4a9.43,9.43,0,0,0,1-1c-1.7-2-3.3-3.9-5-5.8-.2-.2-1.2-.2-1.4.1a1.2,1.2,0,0,0,0,1.4C197.5,256.6,199.4,258.3,201.2,260.1Zm-18.8-7.4c-1.8,2.2-3.5,4.3-5.2,6.5l.8.8c2.1-1.7,4.1-3.5,6.5-5.4C183.6,253.7,183.1,253.3,182.4,252.7Z"/><path class="cls-1" d="M214,63.7c-15.9,2.5-31.9,3.1-47.8.8v-.8Z"/><path class="cls-1" d="M284.4,117.3c-1.3-3.1-2.7-6.2-4-9.3.4-.2.9-.4,1.3-.6,1.3,3.1,2.7,6.2,4,9.3C285.2,116.9,284.8,117.1,284.4,117.3Z"/><path class="cls-1" d="M94,117.2c.5-3.5,1.4-6.7,3.9-9.2.3.1.6.3.9.4-1.4,3-2.7,6-4.1,9.1C94.5,117.4,94.2,117.3,94,117.2Z"/><path class="cls-1" d="M147.8,80.4c3-1.1,5.9-2.9,10.2-1-3.8.7-6.9,1.2-10,1.8A3.09,3.09,0,0,1,147.8,80.4Z"/><path class="cls-1" d="M222.1,78.5c2.9.3,5.8.7,8.7,1-.1.5-.1.9-.2,1.4-2.9-.4-5.7-.8-8.6-1.3C222,79.2,222.1,78.8,222.1,78.5Z"/><path class="cls-1" d="M188.5,364c-10.9-.2-21.7-.9-31.5-5.9-5.2-2.6-9.9-6.5-14.2-10.5s-4-9.4-2.2-14.4,6.7-6.3,11.4-6.4c6.7-.1,13.4.7,20.2.8,11.1.1,22.2.1,33.3-.1,7.2-.1,14.4-.8,21.6-.8,5.2,0,9.9,1.8,11.6,7.3a14.48,14.48,0,0,1-3.9,15.2,45.85,45.85,0,0,1-26,13C202.2,363.3,195.3,363.4,188.5,364Zm-27-32.6v-.6c-4,0-8.1-.2-12.1.1-3.4.2-5.5,2.8-5.9,6.3-.6,4.8,1.6,8.2,5,11.1,9.5,8.2,21,11.4,33.3,11.7,5.5.2,11.1-.6,16.6-.5,10.1.2,19.2-2.8,27.7-7.9a35.2,35.2,0,0,0,8-6.9c2.6-3,2.6-6.8,1.1-10.4-1.4-3.4-4.7-3.8-7.9-4.1a14.72,14.72,0,0,0-2.1,0c-7.7.4-15.4,1-23.1,1.1C188.4,331.5,175,331.4,161.5,331.4Z"/><path class="cls-1" d="M115.8,356.6c6.2,5.8,12.5,11.4,20.4,15,8.9,4.1,18.2,6.9,28,7.4,9,.5,18,.5,27,.6,5.6.1,11.3.3,16.9,0,18.2-1,35.1-5.7,49.4-17.6a27.55,27.55,0,0,0,3-2.9c.9-.9,1.7-1.9,2.6-2.8a9,9,0,0,0,1,.9,93.24,93.24,0,0,1-7.7,7.7c-11.1,9.3-24.1,14.4-38.3,16.4a212.41,212.41,0,0,1-23.9,2.3c-14.4.4-28.8-.1-42.8-4.1-12.3-3.5-23.6-8.8-32.7-18.1a52,52,0,0,1-3.7-4.3A2.18,2.18,0,0,0,115.8,356.6Z"/><path class="cls-1" d="M260.5,321.8c-1.9-.2-3.7-.5-5.6-.6-11.2-1-22.5-1.5-33.8-.2-5.9.7-11.9.6-17.8.8-9,.3-18,.8-27,.6-10.2-.3-20.3-1.6-30.5-1.8-8.1-.1-16.2.7-24.3,1.2-.9,0-1.8.1-2.6.1-.1-.2-.1-.5-.2-.7,2.4-.5,4.7-1.4,7.1-1.6,6.9-.7,13.8-1.6,20.7-1.5,16.7,0,33.3.8,50,.8,13.4,0,26.8-1.1,40.1-.9,7.7.1,15.4,1.8,23.1,2.9.3,0,.6.4.9.6A1,1,0,0,0,260.5,321.8Z"/><path class="cls-1" d="M111.2,83.7c-.3-1.2-.7-2.5-1-3.7,2.5.6,3.9,1.6,2.3,3.4A3.45,3.45,0,0,1,111.2,83.7Z"/><path class="cls-1" d="M277,85c-1.3,1-2.1,1.6-2.9,2.1-.1.1-1.2-1.1-1.1-1.3a4.38,4.38,0,0,1,1.8-2C275,83.6,275.8,84.4,277,85Z"/><path class="cls-1" d="M148.1,334.5c1.2,1.7,2.4,2.8,2.4,3.8s-1.4,1.8-2.1,2.8c-1-.9-2.5-1.7-2.8-2.8C145.4,337.5,146.8,336.3,148.1,334.5Z"/><path class="cls-1" d="M234.6,338.5c-1.8,1.2-2.9,2.4-3.7,2.3a3.28,3.28,0,0,1-2.1-2.6c0-.9,1.5-2.3,2.4-2.4S233,337.1,234.6,338.5Z"/><path class="cls-1" d="M170,334.5c-3.9-.4-7.8-.7-11.7-1.1.1-.5.1-1,.2-1.4l11.7,1.2C170.1,333.6,170.1,334,170,334.5Z"/><path class="cls-1" d="M220.8,333.3c-3.9.3-7.8.7-11.6,1,0-.4-.1-.8-.1-1.2,3.9-.4,7.7-.9,11.6-1.3C220.7,332.3,220.8,332.8,220.8,333.3Z"/></g></g></svg>