<svg version="1.1" id="Layer_1" xmlns="http://www.w3.org/2000/svg" x="0" y="0" viewBox="0 0 792 612" style="enable-background:new 0 0 792 612" xml:space="preserve"><style>.st0{fill:#fff}.st1,.st3{fill:#3b6786}.st3{stroke:#3b6786;stroke-width:45.87;stroke-linecap:round;stroke-linejoin:round}.st4{fill:#2c4c64}.st5{fill:#dead68}</style><circle class="st0" cx="362.6" cy="305.5" r="192.4"/><circle class="st1" cx="362.6" cy="305.5" r="182.1"/><circle cx="362.6" cy="305.5" r="171.5" style="fill:#c98921"/><path class="st0" d="M242.7 246.4c-1 2.9-2.4 7.5-4.1 14 1.2-.4 2.3-.7 3.4-.9s1.6.1 1.8.6c.1.4-.4 1.5-.7 2-.3.7-.1 1.2-.8 1.4-.2.1-.4.1-.7.1-.6.2-1.5.5-2.6.9-.4.2-.9.4-1.4.5-1.3 5.5-3.5 14.9-3.6 15.5-.1.8-.3 1.3-1.1 1.6-.3.1-.6.2-.9.2-1.3.2-2 .2-2.2-.4-.1-.3-.1-.6-.1-.9 0-1.5 2-9.3 3.4-14.2-3.1 1.3-6.1 2.6-7 3-.3.2-.6.5-1 .6-.4.1-.8-.1-.9-.6v-.4c.1-.7.2-1.4.4-2 .1-.8.5-1.5 1.1-2 2.9-1.4 5.8-2.7 8.8-3.8 1-4.3 2.2-8.5 3.7-12.6-3.2 1.8-6.5 3.3-10 4.4-6.4 2.3-8.8 1.4-9.6-.7-.5-1.3.5-3.1 2.9-4 1.2-.4 1.6-.3 1.7-.2s-.1.3-.3.3c-.7.2-1.2.9-1.1 1.6.1.4 1.8.5 7.3-1.5 4-1.4 7.9-3.1 11.6-5.1 1.5-2.5 3-4.4 5.7-5.3.7-.3 1.6-.3 2.2.2.3.2.5.4.7.7.3 1.4-1.6 4.8-6.6 7zm2.7-5.4c.5-.4.8-.6.7-.7-.2.3-.4.5-.7.7zM250.7 275.9c-2 .7-4.2-.3-4.9-2.2 0-.1 0-.1-.1-.2-2.9-8.1 3.5-18.1 7.7-19.6 1.3-.5 2.3-.1 2.4.2v.1c.2-.1.5-.2.7-.3 1.2-.5 2.6.1 3.1 1.3 0 .1 0 .1.1.2 1.7 4.6-2.5 18.2-9 20.5zm4.8-18.2c-.4.2-.9 0-1.2-.9-2.3 2-4 4.6-4.8 7.5-1 3.2-1.1 5.8-.6 7.1.3.8.8 1.1 1.4.9 1-.4 3.2-2.6 4.7-7 1.4-4 1.6-6.5 1.3-7.4-.1-.3-.3-.4-.5-.3l-.3.1zM267.5 269.9c-2 .7-4.2-.3-4.9-2.2 0-.1 0-.1-.1-.2-2.9-8.1 3.5-18.1 7.7-19.6 1.3-.5 2.3 0 2.4.2v.1c.2-.1.5-.2.7-.3 1.2-.5 2.6.1 3.1 1.3 0 .1 0 .1.1.2 1.6 4.6-2.6 18.2-9 20.5zm4.7-18.2c-.5.2-.9.1-1.2-.9-2.3 2-4 4.6-4.8 7.5-1 3.2-1.1 5.8-.6 7.1.3.8.8 1.1 1.4.9 1-.4 3.2-2.6 4.7-7 1.4-4 1.6-6.5 1.3-7.4-.1-.3-.3-.4-.5-.3l-.3.1zM298.5 222.1c-1.3 6-2.6 12.1-3.8 18.1-.5 2.6-2.3 13.9-1.6 15.7l.1.2c.2.5.5.9 1 .7 1.9-.7 3.6-5.6 4-6.3.1-.2.2-.3.4-.4.5-.2.9.6 1.3 1.8.1.3.2.7.2 1-.2 1.4-2.3 6.3-5.3 7.3-2.5.9-3.8 0-4.4-1.6-.4-1.7-.6-3.4-.3-5.1-1.1 3.4-3.6 9.2-7.2 10.5-2 .7-3.4-.7-4-2.5-2.2-6.3 3.5-17.7 9.7-19.9.7-.1 1.4 0 2 .3.4-1.7.6-3.3.9-5 .6-3.3 1.3-6.6 2.1-9.9.3-1.3.6-2.6 1.1-3.9.5-1.1 1.4-1.9 2.5-2.3.5-.2 1 0 1.2.5v.1c.3.3.2.5.1.7zm-16 34.4c-.2 1.1-.2 2.2 0 3.3.1.2.2.5.5.4 1.5-.5 4.8-9.1 5.4-10.6.6-1.7 1.2-3.4 1.6-5.1-4 2.6-6.6 7.3-7.5 12zM321 220.2l.5-.1c1.1-.3 2.5 0 2.8 1 1 2.8-2.2 5.2-4 5.8l-.3.1-.3 2.1c.1 0 .2-.1.2-.1.2-.1.5-.1.8-.1.5 0 1.5 1.1 1.6 1.5s-.4 1-.6 1.4c-.6.8-1.3 1.4-2.2 1.8l-.4.3c-.3 1.9-.5 4-.8 6.3 2.9-2.4 5.8-6 6-7 .1-.4.1-.9.5-1 .9 0 1.7.6 1.9 1.4 1 2.9-3.3 9-8.8 11.6-.2 2.5-.4 5.6-.5 6.1-.2.5-.6 1-1.2 1.1-.1.1-.2.1-.3.2-.5.2-1.2.1-1.4-.1s-.4-.4-.4-.6v-.3c0-1.3.2-3.1.4-5.2-2.4.3-4.3-.7-5-2.7-1.3-3.6 1.3-6.7 2.5-8-1.3-.2-2.4-1.1-2.9-2.3-1.3-3.7 3.3-8.8 8.2-11.5.5-3.7.8-6.2.9-6.4.2-1.3 2.4-2.6 2.8-2.7.3-.1.7.1.8.4v.3c.1 0-.2 1.9-.8 6.7zm-8 11.7c.1.2.4.2 1 .1.2-.1 1-.5 2.4-1.1.2-1.5.4-2.9.5-4.3-2.2 2-4.1 4.7-3.9 5.3zm.7 9.4c.1.5.6.9 1.1.8h.1c.2-1.7.4-3.5.6-5.3-1.9 2.1-2.1 3.6-1.8 4.5zM350.1 239.7c-4.5 1.6-4.3.6-5.3.3-.4-.1-.7-.6-.9-1.1-.2-.5-.3-1-.3-1.5-.3-4.1 5.3-24.2 6.6-28.6.1-.2.6-.6 2.3-1.4 1.2-.4 1.7-.4 1.9.1.1.4 0 .8-.1 1.2-1.2 4.3-6.6 27-6.5 27.3s.4.2 1.4-.2c11.1-3.9 19.6-19.2 17.4-25.4-1.5-4.2-6.7-6.4-13.7-3.9-3.9 1.4-7.2 4-9.7 7.3-.4.7-.6 1.1-.5 1.3s.2.1.3.1c.3-.2.6-.3.9-.5.1-.1.2 0 .2 0s-.1.2-.3.5c-.5.6-.4.8-.7 1.2-.5.8-1.2 1.5-2.1 1.9-.2 0-.3.1-.5.1h-.1c-1 .3-2.1-.2-2.4-1.2-1.3-3.6 3.9-10.7 13.6-14.1s16.8-1.1 18.8 4.7c4.3 11.5-8 27.5-20.3 31.9zM386.8 215.5c-.2.9-1 1.4-1.9 1.2-.6-.1-1.1-.6-1.2-1.2-.3-1.4-.2-2.8.4-4.1h-.1c-1.1.5-4.9 9-5.6 10.6-1 2.4-1.9 4.9-2.6 7.4-.1.5-.5 1.3-1 1.4-.8.1-1.6.1-2.3 0-.2 0-.2-.2-.3-.3-.3-.8.2-2.2.4-3.2.7-4 1.5-8 2.3-12 .2-1.3.5-2.6.8-3.9.6-1.2 1.6-2.1 2.9-2.5.5-.2.7.3.9.7.4 1-.8 4.9-1 6.2 1.3-3.1 3.4-8 6.8-9.2 1.1-.5 2.3 0 2.8 1.1 0 .1 0 .1.1.2.3 1.3-1 6.1-1.4 7.6zM400.7 217c-.6 3.5-2.9 6.4-6.1 7.8-2.2.7-4.5-.3-5.4-2.4-.8-2.2 1.6-11.1 1.4-11.5-.2-.5-1.3-.6-1.4-1.1-.1-.4 2-5.4 3.9-6.1.9-.1 1.9.4 2.3 1.2.2.5-1.6 10.2-1.9 11.5-.2 1.1-.8 3.1-.4 4.2.2.6.9.6 1.4.4 2.7-1 4-6.5 4.7-6.8s1.1 1.4 1.3 1.8c.1.3.2.7.2 1zm-5.8-16.6c-.6.3-1.4.1-1.7-.5-.1-.1-.1-.2-.1-.3-.6-2 .4-4.2 2.3-5.1.6-.3 1.4-.1 1.7.6 0 .1.1.2.1.2.5 1.6-.6 4.5-2.3 5.1z"/><path class="st0" d="M418.4 211.8c-1.1 2.1-2.8 5.3-5.5 6.3-2 .7-4.2-.3-5-2.3-1-2.8.1-7.5 1-10.9.2-.8.4-1.7.4-2.5h-.1c-1.1.5-4.9 9-5.6 10.6-1 2.4-1.8 4.9-2.6 7.4-.2.5-.5 1.3-1.1 1.5-.8.1-1.6.1-2.3 0-.2 0-.2-.2-.3-.3-.3-.7.2-2.2.4-3.2.7-4 1.5-8 2.3-12 .2-1.3.5-2.6.8-3.9.6-1.2 1.6-2.1 2.9-2.5.5-.2.7.3.8.7.4 1-.8 4.9-1 6.2 1.3-3.1 3.4-8 6.9-9.2 1.1-.4 2.3.1 2.8 1.1v.1c.5 1.4-.9 5.9-1.3 7.6-.3 1.4-1.5 6-1 7.5.3.7 1 .7 1.7.5 2.1-.8 4.1-6.6 4.7-6.9s1.2 1.4 1.3 1.8c.6.9.4 1.8-.2 2.4z"/><path class="st0" d="M435.4 203.5c.1.3.2.7.2 1-.2 1.4-2.3 6.3-5.3 7.3-4.1 1.5-8.4-3-10.1-4.6-.4 3.4-.9 7.6-.9 7.9s-.2.5-.3.5c-.4.2-1.2.1-1.5.2-.8.1-1-.2-1.6-.6V214c-.2-2.7 5.1-33.7 5.4-34.4.2-.8.7-1.5 1.4-1.9 1.1-.9 1.1-1.2 1.4-1.3.4-.1.8.1.9.5l.1.2c0 .7-3.8 22.9-4.3 26 1.9-1.7 6.4-8.8 6-10-.3-1 .2-2 1.1-2.4h.1c.9-.3 1.8.1 2.2.9 0 .1 0 .1.1.2 1.2 3.7-4 11.2-6.1 13.1 1.3 1.5 3.8 4.1 5.9 3.4 1.8-.9 3.4-5.6 3.7-6.1.1-.2.2-.3.4-.4.2-.1.5 0 .6.3.2.4.4.9.6 1.4z"/><path class="st0" d="M447.3 185.8c.2.7.3 1.4.1 2.1-.6 1.4-1.6 2.4-3 3-.7.3-.8-.1-1.2-.1-.2 0-.3-.2-.4-.4-.1-.4.2-.6.1-1.3-4.1 1.7-7.1 6.8-6.9 7.5s4-.8 8.4-.4c1.3.1 2.5.9 3.1 2.1 1.4 4-4.6 9-8.3 10.3-3.2 1.2-4.8 0-5.2-1.1-.6-1.6-.2-3.4.7-3.8.5-.2 1.1-.4 1.3.1 0 .1.1.3.1.4.3.7 1 1.1 1.7.9 3.8-1.3 6.3-3.8 5.9-4.8-.3-.8-3.5-.1-6.7.1-1.6.1-3.5 0-4.3-2-1.9-5.4 7-12.4 10.4-13.6s3.8.4 3.9.8l.3.2z"/><path class="st3" d="M159.4 458.5c1.4-.5 2.5-1.6 3.1-2.9.6-2 .8-4.1.7-6.1V406c.1-2.1-.1-4.2-.7-6.3-.7-1.3-1.8-2.3-3.1-2.8V380c13.2 0 26.4-.8 39.6-2.4 2.7 12.1 5.4 24.3 8.1 36.4h.3c2.9-12.9 5.8-25.8 8.7-38.8 12.9-2.1 25.7-4.9 38.6-8.1V384c-1.4.9-2.5 2.2-3.1 3.7-.6 2.1-.8 4.2-.7 6.4v43.4c0 1.2.1 2.4.2 3.7.1.8.3 1.5.6 2.3.2.5.6 1 1.1 1.4.6.4 1.2.6 1.9.8v16.9c-12.1 3-24.1 5.6-36.1 7.7v-16.9c1.3-.8 2.4-2 3.1-3.5.5-2 .7-4.1.6-6.2V420h-.3c-.1 2.3-.4 4.5-.9 6.8-.5 2.6-1.2 6-2.3 10.2l-.6 2.2c-2.7 10.8-5.5 21.6-8.3 32.3-3.8.6-7.6 1.1-11.4 1.5-3-10.7-6-21.3-9-32-.2-.6-.4-1.3-.4-2-.2-1-.5-2-.7-2.9-.5-1.8-.9-3.7-1.3-5.8s-.7-3.9-.9-5.6h-.3v23.7c0 1.2 0 2.5.1 3.7.1.8.3 1.6.6 2.4.3.6.7 1.1 1.2 1.5.6.4 1.3.7 1.9 1v16.9c-10.2 1-20.4 1.5-30.6 1.5l.3-16.9z"/><path class="st3" d="M313.3 349.5c4.6 20.9 9.2 41.7 13.7 62.5.4 2.4 1.2 4.8 2.2 7.1.6 1.2 1.8 2 3.1 2.2V438c-12.4 4.5-24.9 8.8-37.3 12.8V434c2.2-2 3.3-4.1 3.3-6.2v-.9c0-.4-.1-.8-.3-1.2 0-.2-.1-.5-.1-.7-4.8 1.5-9.5 3-14.3 4.5-.2 1-.3 1.7-.4 2 0 .3-.1.6-.1 1 0 2.5 1.3 3.8 3.9 4v16.9c-11 3.4-21.9 6.5-32.9 9.2v-16.9c1.2-1.2 2.1-2.6 2.7-4.1.7-2.2 1.2-4.5 1.6-6.8 4.3-24 8.6-48 12.9-72.1 14-4 28-8.4 42-13.2zM295.1 409l-3-15.9c-.2-1.3-.3-2.2-.4-2.6s-.2-1.2-.4-2.2c-.2-1-.4-2.1-.5-3.1-.1-1.3-.3-2.3-.4-3l-.3-1.5-.3.1c-.2 2.2-.4 4.4-.6 6.7-.2 2.3-.5 4.6-.9 6.9l-2.3 17.5c3.1-.9 6.1-1.9 9.1-2.9z"/><path class="st3" d="M331.7 421.4c1.4-1 2.5-2.4 3.1-4 .6-2.1.8-4.2.7-6.4v-43.4c0-3-.2-5-.7-6-.5-1-1.5-1.5-3.1-1.7V343c13.3-4.8 26.6-9.9 39.9-15l3.1-1.2c6.3-2.3 11.2-3.7 14.7-4.1 3.2-.5 6.4.2 9.1 1.8 4.9 2.9 7.3 8.7 7.3 17.6v41.1c-.2 9.7-3.1 18-8.9 24.8-2.5 2.9-5.5 5.5-8.8 7.6-4.3 2.6-8.8 4.8-13.5 6.6l-3.1 1.2c-13.3 5.1-26.6 10.2-39.9 15l.1-17zm34.3-16.9 1.6-.6c1.6-.6 3.2-1.3 4.6-2.1 1.1-.6 2-1.5 2.7-2.6.7-1.1 1.1-2.4 1.3-3.7.3-1.8.4-3.7.4-5.5v-35.8c0-2.9-.6-4.6-1.8-5.3-1.2-.7-3.3-.4-6.4.8l-1.9.7-.4.2-1 .4v54l.9-.5zM409.6 391.5c1.4-1.1 2.5-2.6 3.1-4.3.6-2.5.8-5.1.7-7.6V339c0-1-.1-2-.1-3 0-2.4-.2-4-.7-4.7s-1.5-1.2-3-1.4V313c23.9-9.3 47.7-18.5 71.6-26.7v31.9c-9.2 3.2-18.4 6.5-27.6 9.9V326c0-3.3-.6-5.5-1.8-6.5-1.2-1-3.2-.9-6.1.1l-1.3.5-1.4.5v16.3c6.3-2.4 12.6-4.7 18.9-7v18.7c-6.3 2.3-12.6 4.6-18.9 7V375l.6-.2.6-.2c1.6-.6 3.2-1.3 4.7-2.2 1.2-.7 2.2-1.6 2.9-2.7.7-1.1 1.2-2.3 1.4-3.6.3-1.7.4-3.5.4-5.2v-4.3c9.2-3.4 18.4-6.7 27.6-9.9v34.9c-23.9 8.2-47.7 17.4-71.6 26.8v-16.9zM484 363.8c1.4-1 2.5-2.4 3.1-3.9.6-2.1.8-4.2.7-6.4V310c0-3-.2-5.1-.7-6s-1.5-1.6-3.1-1.8v-16.9c13.8-4.7 27.5-9 41.3-12.9l3.3-.9c4.1-1.1 8.3-1.9 12.5-2.2 2.8-.2 5.7.2 8.4 1.2 6.7 2.8 10 9.3 10 19.2 0 11.6-4.8 19.9-14.3 25.2 2 0 4 .3 5.9.9 1.4.4 2.7 1.2 3.8 2.2 1 1.1 1.7 2.4 2.1 3.9.5 2 .7 4 .6 6v5c0 3.3.2 5.6.7 6.9.5 1.3 1.7 2.1 3 2.2v16.9c-10.7 2.2-21.3 4.8-32 7.7-.7-2.7-1.1-5.4-1.4-8.1-.2-2.6-.4-5.8-.4-9.4v-6c0-.5 0-.9.1-1.4 0-.4.1-.7.1-1.1.1-2.2-.2-4.3-.9-6.4-.6-1.3-1.8-2.2-3.2-2.3-.7-.2-1.4-.2-2.1 0-.8.2-2.1.5-4 1.1v11.1c0 2.9.2 4.9.6 5.9.4 1 1.5 1.6 3.1 2v16.9c-12.4 3.5-24.8 7.5-37.1 11.7l-.1-16.8zm33.4-49.8 1.6-.5 2.1-.6c3-.9 5-2.3 6.1-4s1.7-4.4 1.7-8c0-3.8-.7-6.2-1.9-7s-3.9-.8-7.9.4l-1.6.5-.1 19.2zM564.6 295.9v-5.3c-.1-4.9.7-9.8 2.4-14.5 1.6-4 4.1-7.5 7.4-10.4 3.1-2.8 6.7-5 10.6-6.5 4.9-1.8 10.1-3 15.3-3.5 5.5-.7 11.1-.6 16.5.4 4.1.8 7.9 2.7 11.1 5.5 2.7 2.3 4.8 5.3 6 8.7 1.4 4.1 2 8.4 1.9 12.8v40.1c-.1 5.8-.9 10.5-2.4 14-1.6 3.7-4.1 6.9-7.2 9.3-3.2 2.4-6.8 4.2-10.6 5.3-5 1.4-10.1 2.3-15.2 2.8-5.5.7-11.1.8-16.6.3-4-.4-7.8-1.9-11.1-4.2-2.7-1.8-4.8-4.5-6-7.6-1.4-4-2-8.3-1.9-12.5l-.2-34.7h0zm41.1-8V286c0-2.1-.1-3.6-.2-4.6-.1-.9-.2-1.7-.4-2.5-.3-1-1-1.8-1.9-2.2-.9-.5-2-.7-3.1-.5-1.1.1-2.2.5-3.1 1.2-.9.7-1.6 1.6-1.9 2.7-.3.9-.5 1.8-.6 2.7-.1 1-.1 2.5-.1 4.5v37.1c0 2 0 3.5.1 4.4.1.9.3 1.7.6 2.5.3 1 1 1.8 1.9 2.3.9.5 2 .7 3.1.6 1.1-.1 2.2-.6 3.1-1.3.9-.7 1.6-1.6 1.9-2.7.2-.9.3-1.7.4-2.6.1-1 .2-2.4.2-4.4v-35.3zM162.1 366.3c.8-.4 1.4-1 1.8-1.7.3-1.1.5-2.3.4-3.5v-24.3c.1-1.2-.1-2.4-.4-3.5-.4-.7-1-1.2-1.8-1.5v-9.4l22.1-1.8 4.5 20.5h.2l4.9-21.3 21.5-1.8v9.4c-.8.4-1.4 1-1.8 1.8-.3 1.1-.5 2.3-.4 3.5V357c0 .7 0 1.4.1 2.1.1.5.2.9.4 1.3.1.3.4.6.6.9.3.2.6.4 1 .6v9.4l-20.1 1.6v-9.4c.8-.4 1.4-1 1.7-1.8.3-1.1.4-2.3.4-3.4V345h-.2c-.1 1.3-.2 2.5-.5 3.8-.3 1.4-.7 3.3-1.3 5.6l-.3 1.2-4.6 17.7-6.3.7-5-18c-.1-.4-.2-.7-.2-1.1l-.4-1.6c-.3-1-.5-2.1-.7-3.2s-.4-2.2-.5-3.1h-.2v13.3c0 .9 0 1.5.1 2.1 0 .5.1.9.3 1.3.1.3.4.6.7.9.3.2.7.4 1.1.6v9.4l-17 1.4-.1-9.7zM216.4 361.2c.8-.5 1.4-1.2 1.7-2.1.3-1.4.5-2.8.4-4.2v-22.7l-.1-1.7c.1-.9-.1-1.9-.4-2.7-.4-.6-1-1-1.6-1.1v-9.4l39.2-8v17.8l-15.1 3.1V329c0-1.9-.3-3.1-1-3.8s-1.8-.8-3.3-.5l-.7.1-.8.2v9.1L245 332v10.5l-10.3 2.1v10.9l.3-.1.3-.1c.9-.2 1.7-.4 2.6-.8.6-.3 1.2-.7 1.6-1.2.4-.6.7-1.2.8-1.9.1-1 .2-1.9.2-2.9v-2.4l15.1-3.1v19.5l-39.2 8v-9.3zM257.2 352.8c.7-.5 1.3-1.2 1.7-2.1.3-1.2.4-2.3.4-3.5v-24.3c.1-1.2-.1-2.3-.4-3.4-.3-.6-1-1-1.7-1.1V309l22.2-6.2 1.8-.5c2.2-.6 4.5-1 6.7-1.3 1.5-.2 3.1 0 4.5.5 3.6 1.4 5.4 4.9 5.4 10.5 0 6.5-2.6 11.3-7.7 14.5 1.1 0 2.1.1 3.2.4.8.2 1.4.6 2 1.1.6.6.9 1.3 1.1 2.1.3 1.1.4 2.2.4 3.3v2.8c-.1 1.3.1 2.6.4 3.8.3.7.9 1.1 1.6 1.1v9.4l-17.2 4.8c-.3-1.5-.6-3-.7-4.5-.1-1.5-.2-3.2-.2-5.3v-4.8c.1-1.2-.1-2.4-.5-3.6-.6-1-1.7-1.6-2.9-1.4-.4.1-1.1.3-2.1.6v6.2c-.1 1.1 0 2.2.3 3.3.3.6 1 1.1 1.7 1.2v9.4l-20 5.6v-9.2zm18-26.9.8-.2 1.2-.3c1.3-.3 2.5-1.1 3.3-2.2.7-1.4 1-2.9.9-4.5 0-2.1-.4-3.5-1-4s-2.1-.4-4.3.2l-.8.2-.1 10.8zM299.8 340.8c.8-.6 1.3-1.4 1.7-2.3.3-1.4.4-2.8.4-4.2v-22.7l-.1-1.6c.1-.9-.1-1.8-.4-2.7-.4-.5-1-.8-1.6-.9V297l37.9-12.9v17.8l-14.6 5v-1.2c0-1.9-.3-3.1-1-3.7s-1.7-.6-3.2-.1l-.7.2-.8.3v9.1l10-3.4v10.5l-10 3.4v10.9l.3-.1.3-.1c.9-.3 1.7-.6 2.5-1.1.6-.3 1.1-.8 1.5-1.4.4-.6.7-1.3.8-2 .1-1 .2-1.9.2-2.9v-2.4l14.6-5v19.5l-37.9 12.9.1-9.5zM339.2 327.3c.7-.6 1.3-1.4 1.6-2.2.3-1.2.4-2.4.4-3.6v-24.3c.1-1.1-.1-2.3-.4-3.4-.3-.6-1-1-1.6-1v-9.4l17.1-6.7 7.1 16.6.4.9.4 1 .5 1c.2.2.3.5.4.7 0 .1.1.3.2.4v-9.5c0-1.2-.1-2.4-.4-3.5-.3-.6-.9-.9-1.6-.8V274l16.4-6.4v9.4c-.7.6-1.3 1.4-1.6 2.3-.3 1.2-.4 2.4-.4 3.6v38.7l-15.1 5.9-7.3-15.7c-.1-.1-.1-.2-.1-.3 0-.1-.1-.2-.2-.3-.4-.9-.7-1.6-1-2.2s-.5-1.2-.7-1.6v9.3c-.1 1.2.1 2.3.4 3.4.3.6.9.9 1.5.8v9.4l-16 6.3v-9.3zM380.6 310.8c.7-.6 1.3-1.4 1.6-2.3.3-1.2.4-2.4.4-3.6v-24.3c.1-1.1 0-2.3-.4-3.4-.3-.6-1-.9-1.6-.9v-9.4l20.5-8.6 1.6-.7c2.4-1.1 5-1.8 7.6-2.3 1.6-.3 3.3.1 4.7 1 2.5 1.6 3.8 4.9 3.8 9.8v23c0 5-1.6 9.8-4.6 13.8-1.3 1.6-2.8 3-4.5 4.2-2.2 1.4-4.5 2.7-7 3.6l-1.6.7-20.5 8.6v-9.2zm17.6-9.7.8-.3c.8-.3 1.6-.7 2.4-1.2.6-.4 1.1-.8 1.4-1.4.3-.6.6-1.4.7-2.1.1-1 .2-2.1.2-3.1v-20c0-1.6-.3-2.6-.9-3s-1.7-.2-3.3.4l-1 .4-.2.1-.5.2v30.2l.4-.2zM420.7 294c.7-.6 1.3-1.4 1.6-2.4.3-1.4.4-2.8.4-4.3v-22.7l-.1-1.6c.1-.9-.1-1.8-.4-2.6-.4-.5-.9-.8-1.6-.8v-9.4l37.3-14.4v17.8l-14.4 5.6V258c0-1.9-.3-3.1-.9-3.6-.6-.6-1.7-.6-3.2 0l-.7.3-.7.3v9.1l9.8-3.8v10.5l-9.8 3.8v10.9l.3-.1.3-.1c.9-.3 1.7-.7 2.5-1.2.6-.4 1.1-.9 1.5-1.5.4-.6.6-1.3.8-2 .1-1 .2-1.9.2-2.9V275l14.4-5.5V289l-37.3 14.4V294zM459.5 279c.7-.6 1.3-1.3 1.7-2.2.3-1.2.4-2.4.4-3.6v-24.3c.1-1.1-.1-2.3-.4-3.4-.3-.6-1-1-1.7-1v-9.4l21.8-7.6 1.7-.6c2.2-.7 4.4-1.3 6.6-1.7 1.5-.3 3-.2 4.4.3 3.5 1.2 5.3 4.6 5.3 10.1 0 6.5-2.5 11.5-7.5 14.9 1-.1 2.1 0 3.1.2.7.1 1.4.5 2 1 .5.6.9 1.2 1.1 2 .3 1.1.4 2.2.3 3.3v2.8c-.1 1.3.1 2.6.4 3.8.3.6.9 1 1.6 1v9.4l-16.9 5.9c-.3-1.5-.6-3-.7-4.5-.1-1.5-.2-3.2-.2-5.3v-4.8c.1-1.2-.1-2.4-.5-3.5-.3-.7-1-1.1-1.7-1.2-.4-.1-.8-.1-1.1 0-.4.1-1.1.4-2.1.7v6.2c-.1 1.1 0 2.2.3 3.3.3.6.9 1 1.6 1.1v9.4l-19.6 6.8.1-9.1zm17.6-28 .8-.3 1.1-.4c1.3-.4 2.4-1.2 3.2-2.4.7-1.4 1-3 .9-4.5 0-2.1-.3-3.4-1-3.9s-2.1-.3-4.2.4l-.8.3V251zM502.1 238.7v-3c0-2.8.4-5.6 1.3-8.2.9-2.3 2.2-4.4 3.9-6.2 1.6-1.7 3.6-3.2 5.7-4.4 2.6-1.4 5.3-2.5 8.2-3.3 2.9-1 5.8-1.5 8.8-1.7 2.1-.1 4.1.4 5.9 1.5 1.5.9 2.6 2.4 3.2 4 .7 2.2 1.1 4.5 1 6.9v22.4c0 2.8-.4 5.6-1.3 8.2-.9 2.3-2.2 4.5-3.9 6.3-1.7 1.7-3.6 3.2-5.7 4.4-2.6 1.4-5.3 2.5-8.2 3.3-2.9 1-5.9 1.5-8.9 1.6-2.1.1-4.1-.5-5.9-1.6-1.5-.9-2.6-2.3-3.2-3.9-.7-2.2-1.1-4.6-1-6.9l.1-19.4h0zm22-7.7v-1c0-1.2 0-2-.1-2.5 0-.5-.1-.9-.2-1.4-.2-.5-.5-.9-1-1.1-.5-.2-1.1-.2-1.7 0-.6.2-1.2.5-1.6 1-.5.5-.8 1-1 1.7-.2.5-.3 1-.3 1.6 0 .6-.1 1.4-.1 2.5v20.8c0 1.1 0 1.9.1 2.4 0 .5.1.9.3 1.4.2.5.5.9 1 1.1.5.2 1.1.2 1.6 0 .6-.2 1.2-.5 1.7-1s.8-1.1 1-1.7c.1-.5.2-1 .2-1.5s.1-1.4.1-2.5V231h0z"/><path class="st4" d="M161 456.1c1.4-.5 2.5-1.6 3.1-2.9.6-2 .8-4.1.7-6.1v-43.4c.1-2.1-.1-4.2-.7-6.3-.7-1.3-1.8-2.3-3.1-2.8v-16.9c13.2 0 26.4-.8 39.6-2.4l8.1 36.4h.3c2.9-12.9 5.8-25.8 8.7-38.8 12.9-2.1 25.7-4.9 38.6-8.1v16.9c-1.4.9-2.5 2.2-3.1 3.7-.6 2.1-.8 4.2-.7 6.4v43.4c0 1.2.1 2.4.2 3.7.1.8.3 1.5.6 2.3.2.6.6 1 1.1 1.4.6.4 1.2.6 1.9.8V460c-12 3-24.1 5.6-36.1 7.7v-16.8c1.4-.8 2.4-2 3.1-3.5.5-2 .8-4.1.6-6.2v-23.7h-.3c-.1 2.3-.4 4.5-.9 6.8-.5 2.6-1.2 6-2.3 10.2l-.6 2.2c-2.7 10.8-5.5 21.6-8.3 32.3-3.8.6-7.6 1.1-11.4 1.5-3-10.7-6-21.3-9-32-.2-.6-.4-1.3-.4-2-.2-1-.5-2-.7-2.9-.5-1.8-.9-3.7-1.3-5.8s-.7-3.9-.9-5.6h-.3V446c0 1.2 0 2.5.1 3.7.1.8.3 1.6.6 2.4.3.6.7 1.1 1.2 1.5.6.4 1.2.7 1.9 1v16.9c-10.1 1-20.3 1.5-30.5 1.5v-16.9z"/><path class="st4" d="M314.9 347.1c4.6 20.9 9.1 41.7 13.7 62.5.4 2.4 1.2 4.8 2.2 7.1.6 1.2 1.7 2 3.1 2.2v16.9c-12.4 4.5-24.9 8.8-37.3 12.8v-16.9c2.2-2 3.3-4.1 3.3-6.2v-.9c0-.4-.1-.8-.3-1.2 0-.2-.1-.4-.1-.7-4.8 1.5-9.5 3-14.3 4.5-.2 1-.3 1.7-.4 2 0 .3-.1.6-.1 1 0 2.5 1.3 3.8 3.9 4V451c-10.9 3.4-21.9 6.4-32.9 9.2v-16.9c1.2-1.2 2.1-2.6 2.7-4.1.7-2.2 1.2-4.5 1.6-6.8 4.3-24 8.6-48 12.9-72.1 14-3.9 28-8.4 42-13.2zm-18.1 59.6-3-15.9c-.2-1.3-.3-2.2-.4-2.6s-.2-1.2-.4-2.2c-.2-1-.4-2.1-.5-3.1-.1-1.3-.3-2.3-.4-3l-.3-1.5-.3.1c-.2 2.2-.4 4.4-.6 6.7-.2 2.3-.5 4.6-.9 6.9-.8 5.9-1.5 11.7-2.3 17.6 3-1.1 6-2 9.1-3z"/><path class="st4" d="M333.3 419c1.4-1 2.5-2.4 3.1-4 .6-2.1.8-4.2.7-6.4v-43.4c0-3-.2-5-.7-6-.5-1-1.5-1.5-3.1-1.7v-16.9c13.3-4.8 26.6-9.9 39.9-15l3.1-1.2c6.3-2.4 11.2-3.7 14.7-4.1 3.2-.5 6.4.2 9.1 1.8 4.9 2.9 7.3 8.7 7.3 17.6v41.1c-.2 9.7-3.1 18-8.9 24.8-2.5 2.9-5.5 5.5-8.8 7.6-4.3 2.6-8.8 4.8-13.5 6.6l-3.1 1.2c-13.3 5.1-26.6 10.2-39.9 15l.1-17zm34.3-16.9 1.6-.6c1.6-.6 3.2-1.3 4.6-2.1 1.1-.6 2-1.5 2.7-2.6.7-1.1 1.1-2.4 1.3-3.7.3-1.8.4-3.7.4-5.5v-35.8c0-2.9-.6-4.6-1.8-5.3s-3.3-.4-6.4.8l-1.9.7-.4.2-1 .4v54l.9-.5zM411.2 389.1c1.4-1.1 2.5-2.6 3.1-4.3.6-2.5.8-5.1.7-7.6v-40.6l-.1-2.9c0-2.4-.2-4-.7-4.7s-1.5-1.2-3-1.4v-16.9c23.9-9.3 47.7-18.5 71.6-26.7v31.9c-9.2 3.2-18.4 6.5-27.6 9.9v-2.1c0-3.3-.6-5.5-1.8-6.5-1.2-1-3.2-.9-6.1.1l-1.3.5-1.4.5v16.3c6.3-2.4 12.6-4.7 18.9-7v18.7c-6.3 2.3-12.6 4.6-18.9 7v19.4l.6-.2.6-.2c1.6-.6 3.2-1.3 4.7-2.2 1.2-.7 2.2-1.6 2.9-2.7.7-1.1 1.2-2.3 1.4-3.6.3-1.7.4-3.5.4-5.2v-4.3c9.2-3.4 18.4-6.7 27.6-9.9v34.9c-23.9 8.2-47.7 17.4-71.6 26.7v-16.9zM485.6 361.4c1.4-1 2.5-2.4 3.1-3.9.6-2.1.8-4.2.7-6.4v-43.4c0-3-.2-5.1-.7-6s-1.5-1.6-3.1-1.8V283c13.8-4.7 27.5-9 41.3-12.9l3.3-.9c4.1-1.1 8.3-1.9 12.5-2.2 2.8-.2 5.7.2 8.4 1.2 6.7 2.8 10 9.3 10 19.2 0 11.6-4.8 19.9-14.3 25.2 2 0 4 .3 5.9.9 1.4.4 2.7 1.2 3.8 2.2 1 1.1 1.7 2.4 2.1 3.9.5 2 .7 4 .6 6v5c-.1 2.3.1 4.6.7 6.9.5 1.2 1.7 2.1 3 2.2v16.9c-10.7 2.2-21.3 4.8-32 7.7-.7-2.7-1.1-5.4-1.4-8.1-.2-2.7-.3-5.8-.3-9.4v-6c0-.5 0-.9.1-1.4 0-.4.1-.7.1-1.1.1-2.2-.2-4.3-.9-6.4-.6-1.3-1.8-2.2-3.2-2.3-.7-.2-1.4-.2-2.2 0-.8.2-2.1.5-4 1.1v11.1c0 3 .2 4.9.7 5.9.4 1 1.5 1.6 3.1 2v16.9c-12.4 3.5-24.8 7.5-37.1 11.7l-.2-16.9zm33.4-49.8 1.6-.5 2.1-.6c3-.9 5-2.3 6.1-4s1.6-4.4 1.6-8c0-3.8-.6-6.1-1.9-7-1.3-.9-3.9-.8-7.9.4l-1.6.5v19.2zM566.2 293.5v-5.3c-.1-4.9.7-9.8 2.4-14.5 1.6-4 4.1-7.5 7.3-10.4 3.1-2.8 6.7-5 10.6-6.5 4.9-1.8 10.1-3 15.3-3.5 5.5-.7 11.1-.6 16.5.4 4.1.8 7.9 2.7 11.1 5.5 2.7 2.3 4.8 5.3 6 8.7 1.4 4.1 2 8.4 1.9 12.8v40.1c-.1 5.8-.9 10.5-2.4 14-1.6 3.7-4.1 6.9-7.2 9.3-3.2 2.4-6.8 4.2-10.6 5.3-5 1.4-10.1 2.4-15.2 2.8-5.5.7-11.1.8-16.6.3-4-.4-7.8-1.9-11.1-4.2-2.7-1.8-4.8-4.5-6-7.6-1.4-4-2-8.2-1.8-12.5l-.2-34.7zm41.1-7.9v-1.9c0-2.1 0-3.6-.1-4.6-.1-.9-.2-1.7-.4-2.5-.3-1-1-1.8-1.9-2.2-.9-.5-2-.7-3.1-.5-1.1.1-2.2.5-3.1 1.2-.9.7-1.6 1.6-1.9 2.7-.3.9-.5 1.8-.6 2.7-.1 1-.1 2.5-.1 4.5v37.1c0 2 0 3.5.1 4.4.1.9.3 1.7.6 2.5.3 1 1 1.8 1.9 2.3.9.5 2 .7 3.1.6 1.1-.1 2.2-.5 3.1-1.3.9-.7 1.6-1.6 1.9-2.7.2-.9.3-1.7.4-2.6.1-1 .1-2.4.1-4.4v-35.3zM163.7 364c.8-.4 1.4-1 1.8-1.7.3-1.1.5-2.3.4-3.5v-24.3c.1-1.2-.1-2.4-.4-3.5-.4-.7-1-1.2-1.8-1.5v-9.4l22-1.8 4.5 20.5h.2l4.9-21.3 21.5-1.8v9.4c-.8.4-1.4 1-1.8 1.8-.3 1.1-.5 2.3-.4 3.5v24.3c0 .7 0 1.4.1 2.1.1.5.2.9.4 1.3.1.3.4.6.6.9.3.2.6.4 1 .6v9.4l-20.1 1.6v-9.4c.8-.4 1.4-1 1.7-1.8.3-1.1.4-2.3.4-3.4v-13.3h-.2c-.1 1.3-.2 2.5-.5 3.8-.3 1.4-.7 3.3-1.3 5.6l-.3 1.2-4.6 17.7-6.3.5-5-18c-.1-.4-.2-.7-.2-1.1l-.4-1.6c-.3-1-.5-2.1-.7-3.2s-.4-2.2-.5-3.1h-.2v13.3c0 .9 0 1.5.1 2.1 0 .5.1.9.3 1.3.1.3.4.6.7.9.3.2.7.4 1.1.6v9.4l-17 1.4V364zM218.1 358.8c.8-.5 1.4-1.2 1.7-2.1.3-1.4.5-2.8.4-4.2v-22.7l-.1-1.7c.1-.9-.1-1.8-.4-2.7-.4-.6-1-1-1.6-1.1V315l39.2-8v17.8l-15.1 3.1v-1.2c0-1.9-.3-3.1-1-3.8s-1.8-.8-3.3-.5l-.7.1-.8.2v9.1l10.3-2.1v10.5l-10.3 2.1v10.9l.3-.1.4-.1c.9-.2 1.8-.4 2.6-.8.6-.3 1.2-.7 1.6-1.2.4-.5.7-1.2.8-1.9.1-1 .2-1.9.2-2.9v-2.4l15.1-3.1v19.5l-39.2 8-.1-9.4zM258.8 350.4c.7-.5 1.3-1.2 1.7-2.1.3-1.2.4-2.4.4-3.5v-24.3c.1-1.2-.1-2.3-.4-3.4-.3-.6-1-1.1-1.7-1.1v-9.4l22.2-6.2 1.8-.5c2.2-.6 4.5-1 6.7-1.3 1.5-.2 3.1 0 4.5.5 3.6 1.4 5.4 4.9 5.4 10.5 0 6.5-2.6 11.3-7.7 14.5 1.1 0 2.2.1 3.2.4.8.2 1.4.6 2 1.1.6.6.9 1.3 1.1 2.1.3 1.1.4 2.2.4 3.3v2.8c-.1 1.3.1 2.6.4 3.8.3.7.9 1.1 1.6 1.1v9.4l-17.2 4.8c-.4-1.5-.6-3-.7-4.5-.1-1.5-.2-3.2-.2-5.3v-4.8c.1-1.2-.1-2.4-.5-3.6-.3-.7-1-1.2-1.7-1.3-.4-.1-.8-.1-1.1 0-.4.1-1.1.3-2.2.6v6.2c-.1 1.1.1 2.2.4 3.3.3.6.9 1.1 1.6 1.2v9.4l-20 5.6v-9.3zm18-26.9.9-.2 1.1-.3c1.3-.3 2.5-1.1 3.3-2.2.7-1.4 1-2.9.9-4.5 0-2.1-.4-3.5-1-4s-2.1-.4-4.3.2l-.9.2v10.8zM301.4 338.4c.8-.6 1.3-1.4 1.7-2.3.3-1.4.4-2.8.4-4.2v-22.7l-.1-1.6c.1-.9-.1-1.8-.4-2.7-.4-.5-.9-.9-1.6-.9v-9.4l37.9-12.9v17.8l-14.6 5v-1.2c0-1.9-.3-3.1-.9-3.7s-1.7-.6-3.2-.1l-.7.2-.8.3v9.1l10-3.4v10.5l-10 3.4v10.9l.3-.1.3-.1c.9-.3 1.7-.6 2.5-1.1.6-.3 1.1-.8 1.5-1.4.4-.6.7-1.3.8-2 .1-1 .2-1.9.2-2.9v-2.4l14.6-5V335l-37.9 12.9v-9.5zM340.8 325c.7-.6 1.3-1.4 1.6-2.2.3-1.2.4-2.4.4-3.6v-24.3c.1-1.1 0-2.3-.4-3.4-.3-.6-1-1-1.6-1v-9.4l17.1-6.7L365 291l.4.9.5 1 .4 1c.2.2.3.5.4.7 0 .1.1.3.2.4v-9.5c0-1.2-.1-2.4-.5-3.5-.3-.6-.9-.9-1.6-.8v-9.4l16.4-6.4v9.4c-.7.6-1.3 1.4-1.6 2.3-.3 1.2-.4 2.4-.4 3.6v38.7l-15.1 5.9-7.3-15.7c-.1-.1-.1-.2-.1-.3 0-.1-.1-.2-.2-.3-.4-.9-.8-1.6-1-2.2s-.5-1.2-.7-1.6v9.3c-.1 1.2.1 2.3.4 3.4.3.6.9.9 1.5.8v9.4l-16 6.3.1-9.4zM382.2 308.4c.7-.6 1.3-1.4 1.6-2.3.3-1.2.4-2.4.4-3.6v-24.3c.1-1.1 0-2.3-.4-3.4-.3-.6-1-.9-1.6-.9v-9.4l20.5-8.6 1.6-.7c2.4-1.1 5-1.8 7.6-2.3 1.6-.2 3.3.1 4.7 1 2.5 1.6 3.8 4.9 3.8 9.8v23c0 5-1.6 9.8-4.6 13.8-1.3 1.6-2.8 3-4.5 4.2-2.2 1.4-4.5 2.7-7 3.6l-1.6.7-20.5 8.6v-9.2zm17.7-9.6.8-.3c.8-.3 1.6-.7 2.4-1.2.6-.4 1.1-.8 1.4-1.4.3-.6.6-1.3.7-2.1.1-1 .2-2.1.2-3.1v-20c0-1.6-.3-2.6-.9-3s-1.7-.3-3.3.4l-1 .4-.2.1-.5.2V299l.4-.2zM422.3 291.6c.8-.6 1.3-1.4 1.6-2.4.3-1.4.4-2.8.4-4.3v-22.7l-.1-1.6c.1-.9-.1-1.8-.4-2.6-.4-.5-.9-.8-1.6-.8v-9.4l37.3-14.4v17.8l-14.4 5.6v-1.2c0-1.9-.3-3.1-.9-3.6s-1.7-.6-3.2 0l-.7.3-.7.3v9.1l9.8-3.8v10.5l-9.8 3.8v10.9l.3-.1.3-.1c.9-.3 1.7-.7 2.5-1.2.6-.4 1.1-.9 1.5-1.5.4-.6.6-1.3.7-2 .1-1 .2-1.9.2-2.9v-2.4l14.4-5.6v19.5L422.3 301v-9.4zM461.1 276.6c.7-.6 1.3-1.3 1.7-2.2.3-1.2.4-2.4.4-3.6v-24.3c.1-1.1-.1-2.3-.4-3.4-.3-.6-1-1-1.7-1v-9.4l21.8-7.6 1.7-.6c2.1-.7 4.4-1.3 6.6-1.7 1.5-.3 3-.2 4.4.3 3.5 1.2 5.3 4.6 5.3 10.1 0 6.5-2.5 11.5-7.5 14.9 1-.1 2.1 0 3.1.2.7.1 1.4.5 2 1 .5.6.9 1.3 1.1 2.1.3 1.1.4 2.2.3 3.3v2.8c-.1 1.3.1 2.5.4 3.8.2.7.9 1.1 1.6 1v9.4l-16.9 5.9c-.3-1.5-.6-3-.7-4.5-.1-1.5-.2-3.2-.2-5.3V263c.1-1.2-.1-2.4-.5-3.5-.3-.7-1-1.1-1.7-1.2-.4-.1-.8-.1-1.1 0-.4.1-1.1.4-2.1.7v6.2c-.1 1.1 0 2.2.3 3.3.3.6.9 1 1.6 1.1v9.4l-19.5 6.8v-9.2zm17.7-28 .8-.3 1.1-.4c1.3-.4 2.4-1.2 3.2-2.4.7-1.4 1-3 .9-4.5 0-2.1-.3-3.4-1-3.9s-2.1-.3-4.2.4l-.8.3v10.8zM503.7 236.3v-3c0-2.8.4-5.6 1.3-8.2.9-2.3 2.2-4.4 3.9-6.2 1.6-1.8 3.6-3.2 5.7-4.4 2.6-1.4 5.3-2.5 8.2-3.3 2.9-.9 5.8-1.5 8.8-1.6 2.1-.1 4.2.4 5.9 1.5 1.5.9 2.6 2.4 3.2 4 .8 2.2 1.1 4.5 1 6.9v22.4c0 2.8-.4 5.6-1.3 8.2-.9 2.3-2.2 4.5-3.9 6.3-1.7 1.7-3.6 3.2-5.7 4.4-2.6 1.4-5.3 2.5-8.2 3.3-2.9 1-5.9 1.5-8.9 1.6-2.1.1-4.2-.5-5.9-1.6-1.5-.9-2.6-2.3-3.2-3.9-.7-2.2-1.1-4.6-1-6.9v-19.5zm22-7.6v-1c0-1.2 0-2-.1-2.5 0-.5-.1-.9-.2-1.4-.2-.5-.5-.9-1-1.1-.5-.2-1.1-.2-1.6 0-.6.2-1.2.5-1.7 1s-.8 1-1 1.7c-.2.5-.3 1-.3 1.6-.1.6-.1 1.4-.1 2.5v20.8c0 .8 0 1.6.1 2.4 0 .4.1.9.2 1.3.2.5.5.9 1 1.1.5.2 1.1.2 1.7 0 .6-.2 1.2-.5 1.6-1 .5-.5.8-1.1 1-1.7.1-.5.2-1 .2-1.5 0-.6.1-1.4.1-2.5l.1-19.7z"/><path class="st0" d="M153.6 450.4c1.4-.5 2.5-1.6 3.1-2.9.6-2 .8-4.1.7-6.1V398c.1-2.1-.1-4.2-.7-6.3-.7-1.3-1.8-2.3-3.1-2.8V372c13.2 0 26.4-.8 39.6-2.4 2.7 12.2 5.4 24.3 8.1 36.4h.3c2.9-12.9 5.8-25.8 8.7-38.8 12.9-2.1 25.7-4.9 38.6-8.1v16.8c-1.4.9-2.5 2.2-3.1 3.7-.6 2.1-.8 4.2-.7 6.4v43.4c0 1.2.1 2.4.2 3.7.1.8.3 1.5.6 2.3.2.6.6 1 1.1 1.4.6.4 1.2.6 1.9.8v16.9c-12 3-24.1 5.6-36.1 7.7v-16.8c1.3-.8 2.4-2 3.1-3.5.5-2 .7-4.1.6-6.2V412h-.3c-.1 2.3-.4 4.5-.9 6.8-.5 2.6-1.2 6-2.3 10.2l-.6 2.2c-2.7 10.8-5.5 21.6-8.3 32.3-3.8.6-7.6 1.1-11.4 1.5-3-10.7-6-21.3-9-32-.2-.6-.4-1.3-.4-2-.2-1-.5-2-.7-2.9-.5-1.8-.9-3.7-1.3-5.8s-.7-3.9-.9-5.6h-.3v23.7c0 1.2 0 2.5.1 3.7.1.8.3 1.6.6 2.4.3.6.7 1.1 1.2 1.5.6.4 1.2.7 1.9 1v16.9c-10.2 1-20.4 1.5-30.6 1.5l.3-17z"/><path class="st0" d="M307.5 341.4c4.6 20.9 9.1 41.7 13.7 62.5.4 2.4 1.2 4.8 2.2 7.1.6 1.2 1.7 2 3.1 2.2V430c-12.4 4.5-24.9 8.8-37.3 12.8v-16.9c2.2-2 3.3-4.1 3.3-6.2v-.9c0-.4-.1-.8-.3-1.2 0-.2-.1-.5-.1-.7-4.8 1.5-9.5 3-14.3 4.5-.2 1-.3 1.7-.4 2 0 .3-.1.6-.1 1 0 2.5 1.3 3.8 3.9 4v16.9c-11 3.4-21.9 6.5-32.9 9.2v-16.9c1.2-1.2 2.1-2.6 2.7-4.1.7-2.2 1.2-4.5 1.6-6.8 4.3-24 8.6-48 12.8-72.1 14.1-3.9 28.1-8.4 42.1-13.2zM289.3 401l-3-15.9c-.2-1.3-.3-2.2-.4-2.6s-.2-1.2-.4-2.2c-.2-1-.4-2.1-.5-3.1-.1-1.3-.3-2.3-.4-3l-.3-1.5-.3.1c-.2 2.2-.4 4.4-.6 6.7s-.5 4.6-.9 6.9l-2.3 17.6c3-1.1 6.1-2 9.1-3z"/><path class="st0" d="M325.9 413.3c1.4-1 2.5-2.4 3.1-4 .6-2.1.8-4.2.7-6.4v-43.4c0-3-.2-5-.7-6s-1.5-1.5-3.1-1.7v-16.9c13.3-4.8 26.6-9.9 39.9-15l3.1-1.2c6.3-2.3 11.2-3.7 14.7-4.1 3.2-.5 6.4.2 9.1 1.8 4.9 2.9 7.3 8.7 7.3 17.6v41c-.2 9.7-3.1 18-8.9 24.8-2.5 2.9-5.5 5.5-8.8 7.6-4.3 2.6-8.8 4.8-13.5 6.6l-3.1 1.2c-13.3 5.1-26.6 10.2-39.9 15l.1-16.9zm34.3-16.8 1.6-.6c1.6-.6 3.2-1.3 4.6-2.1 1.1-.6 2-1.5 2.7-2.6.7-1.1 1.1-2.4 1.3-3.7.3-1.8.4-3.7.4-5.5v-35.8c0-2.9-.6-4.6-1.8-5.3-1.2-.7-3.3-.4-6.4.8l-1.9.7-.4.2-1 .4v54l.9-.5zM403.8 383.4c1.4-1.1 2.5-2.6 3.1-4.3.6-2.5.8-5.1.7-7.6v-40.6c0-1-.1-2-.1-3 0-2.4-.2-4-.7-4.7-.7-.9-1.8-1.4-3-1.4V305c23.9-9.3 47.7-18.5 71.6-26.7v31.9c-9.2 3.2-18.4 6.5-27.6 9.9V318c0-3.3-.6-5.5-1.8-6.5-1.2-1-3.2-.9-6.1.1l-1.3.5-1.4.5v16.3c6.3-2.4 12.6-4.7 18.9-7v18.7c-6.3 2.3-12.6 4.6-18.9 7V367l.6-.2.6-.2c1.6-.6 3.2-1.3 4.7-2.2 1.2-.7 2.2-1.6 2.9-2.7.7-1.1 1.2-2.3 1.4-3.6.3-1.7.4-3.5.4-5.2v-4.3c9.2-3.4 18.4-6.7 27.6-9.9v34.9c-23.9 8.2-47.7 17.4-71.6 26.7v-16.9zM478.2 355.7c1.4-1 2.5-2.4 3.1-3.9.6-2.1.8-4.2.7-6.4V302c0-3.1-.2-5.1-.7-6-.5-1-1.5-1.6-3.1-1.8v-16.9c13.8-4.7 27.5-9 41.3-12.9l3.3-.9c4.1-1.1 8.3-1.9 12.5-2.2 2.8-.2 5.7.2 8.4 1.2 6.7 2.8 10 9.3 10 19.2 0 11.6-4.8 19.9-14.3 25.2 2 0 4 .3 5.9.9 1.4.4 2.7 1.2 3.8 2.2 1 1.1 1.7 2.4 2.1 3.9.5 2 .7 4 .6 6v5c0 3.3.2 5.6.7 6.9.5 1.3 1.7 2.1 3 2.2v16.9c-10.7 2.2-21.3 4.8-32 7.7-.7-2.7-1.1-5.4-1.4-8.1-.2-2.7-.4-5.8-.4-9.4v-6c0-.5 0-.9.1-1.4 0-.4.1-.7.1-1.1.1-2.2-.2-4.3-.9-6.4-.6-1.3-1.8-2.2-3.2-2.3-.7-.2-1.4-.2-2.1 0-.8.2-2.1.5-4 1.1v11.1c0 3 .2 4.9.6 5.9.4 1 1.5 1.6 3.1 2v16.9c-12.4 3.5-24.8 7.5-37.1 11.7l-.1-16.9zm33.4-49.8 1.6-.5 2.1-.6c3-.9 5-2.3 6.1-4s1.6-4.4 1.6-8c0-3.8-.7-6.2-1.9-7s-3.9-.8-7.9.4l-1.6.5v19.2zM558.8 287.8v-5.3c-.1-4.9.7-9.8 2.4-14.5 1.6-4 4.1-7.5 7.4-10.4 3.1-2.8 6.7-5 10.6-6.5 4.9-1.8 10.1-3 15.3-3.5 5.5-.7 11.1-.6 16.5.4 4.1.8 7.9 2.7 11.1 5.4 2.7 2.3 4.8 5.3 6 8.7 1.4 4.1 2 8.5 1.9 12.8V315c-.1 5.8-.9 10.5-2.4 14-1.6 3.7-4.1 6.9-7.2 9.3-3.2 2.4-6.8 4.2-10.6 5.3-5 1.4-10.1 2.3-15.2 2.8-5.5.7-11.1.8-16.7.3-4-.4-7.8-1.9-11.1-4.2-2.7-1.8-4.8-4.5-6-7.6-1.4-4-2-8.3-1.9-12.5l-.1-34.6zm41.1-7.9V278c0-2.1 0-3.6-.1-4.5-.1-.9-.2-1.7-.4-2.5-.3-1-1-1.8-1.9-2.2-.9-.5-2-.7-3.1-.5-1.1.1-2.2.5-3.1 1.2-.9.7-1.6 1.6-1.9 2.7-.3.9-.5 1.8-.6 2.7-.1 1-.1 2.5-.1 4.5v37.1c0 2 0 3.5.1 4.4.1.9.3 1.7.6 2.5.3 1 1 1.8 1.9 2.3.9.5 2 .7 3.1.6 1.1-.1 2.2-.6 3.1-1.3.9-.7 1.6-1.6 1.9-2.7.2-.9.3-1.7.4-2.6.1-1 .1-2.4.1-4.4v-35.4zM156.3 358.3c.8-.4 1.4-1 1.8-1.8.3-1.1.5-2.3.4-3.5v-24.3c.1-1.2-.1-2.4-.4-3.5-.4-.7-1-1.2-1.8-1.5v-9.4l22-1.8 4.5 20.5h.2l4.9-21.3 21.5-1.8v9.4c-.8.4-1.4 1-1.8 1.8-.3 1.1-.5 2.3-.4 3.5v24.3c0 .7 0 1.4.1 2.1.1.5.2.9.4 1.3.1.3.4.6.6.9.3.2.6.4 1 .6v9.4l-20.1 1.6v-9.4c.8-.4 1.4-1 1.7-1.8.3-1.1.4-2.3.4-3.4v-13.3h-.1c-.1 1.3-.2 2.5-.5 3.8-.3 1.4-.7 3.3-1.3 5.6l-.3 1.2-4.6 17.7-6.4.5-5-18c-.1-.4-.2-.7-.2-1.1l-.4-1.6c-.3-1-.5-2.1-.7-3.2s-.4-2.2-.5-3.1h-.1V352c0 .7 0 1.4.1 2.1 0 .5.1.9.3 1.3.1.3.4.6.7.9.3.2.7.4 1.1.6v9.4l-17 1.4-.1-9.4zM210.6 353.1c.8-.5 1.4-1.2 1.7-2.1.3-1.4.5-2.8.4-4.2v-22.7l-.1-1.7c.1-.9-.1-1.8-.4-2.7-.4-.6-1-1-1.6-1.1v-9.4l39.2-8V319l-15.1 3.1V321c0-1.9-.3-3.1-1-3.8s-1.8-.8-3.3-.5l-.7.1-.8.2v9l10.3-2.1v10.5l-10.3 2.1v10.9l.3-.1.3-.1c.9-.2 1.7-.4 2.6-.8.6-.3 1.2-.7 1.6-1.2.4-.6.7-1.2.8-1.9.1-1 .2-1.9.2-2.9V338l15.1-3.1v19.5l-39.2 8v-9.3zM251.4 344.7c.7-.5 1.3-1.2 1.7-2.1.3-1.2.4-2.3.4-3.5v-24.3c.1-1.2-.1-2.3-.4-3.4-.3-.6-1-1-1.7-1.1v-9.4l22.2-6.2 1.8-.5c2.2-.6 4.5-1 6.7-1.3 1.5-.2 3.1 0 4.5.5 3.6 1.4 5.4 4.9 5.4 10.5 0 6.5-2.6 11.3-7.7 14.5 1.1 0 2.1.1 3.2.4.8.2 1.4.6 2 1.1.6.6.9 1.3 1.1 2.1.3 1.1.4 2.2.4 3.3v2.8c-.1 1.3.1 2.6.4 3.8.3.7.9 1.1 1.6 1.1v9.4l-17.2 4.8c-.3-1.5-.6-3-.7-4.5-.1-1.5-.2-3.2-.2-5.3v-4.8c.1-1.2-.1-2.4-.5-3.6-.6-1-1.7-1.6-2.9-1.4-.4.1-1.1.3-2.1.6v6.2c-.1 1.1 0 2.2.3 3.3.3.6 1 1.1 1.7 1.2v9.4l-20 5.6v-9.2zm18-26.9.8-.2 1.2-.3c1.3-.3 2.5-1.1 3.3-2.2.7-1.4 1-2.9.9-4.5 0-2.1-.4-3.5-1-4s-2.1-.4-4.3.2l-.8.2-.1 10.8zM294 332.7c.8-.6 1.3-1.4 1.7-2.3.3-1.4.4-2.8.4-4.2v-22.7l-.1-1.6c.1-.9-.1-1.8-.4-2.7-.4-.5-1-.9-1.6-.9v-9.4l37.9-12.8v17.8l-14.6 5v-1.2c0-1.9-.3-3.1-1-3.7s-1.7-.6-3.2-.1l-.7.2-.8.3v9.1l10-3.4v10.5l-10 3.4v10.9l.3-.1.3-.1c.9-.3 1.7-.6 2.5-1.1.6-.3 1.1-.8 1.5-1.4.4-.6.7-1.3.8-2 .1-1 .2-1.9.2-2.9v-2.4l14.6-5v19.5L294 342.1v-9.4zM333.4 319.3c.7-.6 1.3-1.4 1.6-2.3.3-1.2.4-2.4.4-3.6v-24.3c.1-1.1-.1-2.3-.4-3.4-.3-.6-1-1-1.6-1v-9.4l17.1-6.7 7.1 16.6.4.9.4 1 .5 1c.2.2.3.5.4.7 0 .1.1.3.2.4v-9.5c0-1.2-.1-2.4-.4-3.5-.3-.6-.9-.9-1.6-.8V266l16.4-6.4v9.4c-.7.6-1.3 1.4-1.6 2.3-.3 1.2-.4 2.4-.4 3.6v38.7l-15.1 5.9-7.3-15.7c-.1-.1-.1-.2-.1-.3 0-.1-.1-.2-.2-.3-.4-.9-.7-1.6-1-2.2s-.5-1.2-.7-1.6v9.3c-.1 1.2.1 2.3.4 3.4.3.6.9.9 1.5.8v9.4l-16 6.3v-9.3zM374.8 302.7c.7-.6 1.3-1.4 1.6-2.3.3-1.2.4-2.4.4-3.6v-24.3c.1-1.1-.1-2.3-.4-3.4-.3-.6-1-.9-1.6-.9v-9.4l20.5-8.6 1.6-.7c2.4-1.1 5-1.8 7.6-2.3 1.6-.3 3.3.1 4.7 1 2.5 1.6 3.8 4.9 3.8 9.8v23c0 5-1.6 9.9-4.6 13.8-1.3 1.6-2.8 3-4.5 4.2-2.2 1.4-4.5 2.7-7 3.6l-1.6.7-20.5 8.6v-9.2zm17.6-9.6.8-.3c.8-.3 1.6-.7 2.4-1.2.6-.4 1.1-.8 1.4-1.4.3-.6.6-1.4.7-2.1.1-1 .2-2 .2-3.1v-20c0-1.6-.3-2.6-.9-3s-1.7-.2-3.3.4l-1 .4-.2.1-.5.2v30.2l.4-.2zM414.9 285.9c.8-.6 1.3-1.4 1.6-2.4.3-1.4.4-2.8.4-4.3v-22.7l-.1-1.6c.1-.9-.1-1.8-.4-2.6-.4-.5-.9-.8-1.6-.8v-9.4l37.3-14.4v17.8l-14.4 5.5v-1.2c0-1.9-.3-3.1-.9-3.6s-1.7-.6-3.2 0l-.7.3-.8.3v9.1l9.8-3.8v10.5l-9.8 3.8v10.9l.3-.1.3-.1c.9-.3 1.7-.7 2.5-1.2.6-.4 1.1-.9 1.5-1.5.4-.6.6-1.3.8-2 .1-1 .2-1.9.2-2.9V267l14.4-5.6v19.5l-37.3 14.4.1-9.4zM453.7 270.9c.7-.6 1.3-1.3 1.7-2.2.3-1.2.4-2.4.4-3.6v-24.3c.1-1.1-.1-2.3-.4-3.4-.3-.6-1-1-1.7-1V227l21.8-7.6 1.7-.6c2.2-.7 4.4-1.3 6.6-1.7 1.5-.3 3-.2 4.4.3 3.5 1.2 5.3 4.6 5.3 10.1 0 6.5-2.5 11.5-7.5 14.9 1-.1 2.1 0 3.1.2.7.1 1.4.5 2 1 .5.6.9 1.2 1.1 2 .2 1.1.4 2.2.3 3.3v2.8c-.1 1.3.1 2.6.4 3.8.3.6.9 1 1.6 1v9.4l-16.9 6.1c-.3-1.5-.6-3-.7-4.5-.1-1.5-.2-3.2-.2-5.3v-4.8c.1-1.2-.1-2.4-.5-3.6-.3-.7-.9-1.1-1.7-1.2-.4-.1-.8-.1-1.1 0-.4.1-1.1.4-2.1.7v6.2c-.1 1.1.1 2.2.3 3.3.3.6.9 1 1.6 1.1v9.4l-19.6 6.8.1-9.2zm17.6-28 .8-.3 1.1-.4c1.3-.4 2.4-1.2 3.2-2.4.7-1.4 1-3 .9-4.5 0-2.1-.3-3.4-1-3.9s-2.1-.3-4.2.4l-.8.3v10.8zM496.3 230.6v-3c0-2.8.4-5.6 1.3-8.2.9-2.3 2.2-4.4 3.9-6.2 1.6-1.7 3.6-3.2 5.7-4.4 2.6-1.4 5.3-2.5 8.2-3.3 2.9-1 5.8-1.5 8.8-1.7 2.1-.1 4.1.4 5.9 1.5 1.5.9 2.6 2.4 3.2 4 .7 2.2 1.1 4.5 1 6.9v22.4c0 2.8-.4 5.6-1.3 8.2-.9 2.3-2.2 4.5-3.9 6.3-1.7 1.7-3.6 3.2-5.7 4.4-2.6 1.4-5.3 2.5-8.2 3.3-2.9 1-5.9 1.5-8.9 1.6-2.1.1-4.1-.5-5.9-1.6-1.5-.9-2.6-2.3-3.2-3.9-.7-2.2-1.1-4.6-1-6.9l.1-19.4zm22-7.6v-1c0-1.2 0-2-.1-2.5 0-.5-.1-1-.2-1.4-.2-.5-.5-.9-1-1.1-.5-.2-1.1-.2-1.7 0-.6.2-1.2.5-1.6 1-.5.5-.8 1-1 1.7-.2.5-.3 1-.3 1.6 0 .6-.1 1.4-.1 2.5v20.8c0 1.1 0 1.9.1 2.4 0 .5.1.9.3 1.4.2.5.5.9 1 1.1.5.2 1.1.2 1.6 0 .6-.2 1.2-.5 1.7-1s.8-1.1 1-1.7c.1-.5.2-1 .2-1.5s.1-1.4.1-2.5V223z"/><path class="st5" d="m304.6 162.9 7.8 7.7 10.8-2-5 9.8 5.3 9.6-10.8-1.7-7.5 8-1.8-10.8-9.9-4.7 9.7-5zM281.2 193.4l4.3 4.2 6-1.1-2.7 5.4 2.9 5.3-6-.9-4.2 4.4-.9-6-5.5-2.6 5.4-2.7zM341.2 167.7l4.3 4.3 5.9-1.1-2.7 5.4 2.9 5.3-6-.9-4.1 4.4-1-6-5.5-2.6 5.4-2.8z"/><g style="opacity:.5"><path class="st1" d="M218.5 442.5c.6-2.2.8-4.4.7-6.7v-23.7c0-.8-.7-1.5-1.5-1.5h-.2c.1.2.2.5.2.7V435c.1 2.3-.1 4.5-.7 6.7-.6 1.5-1.7 2.8-3 3.7v14.3l1.5-.3v-13.3c1.3-.8 2.4-2.1 3-3.6zM317.1 292.3c1 1.1 1.5 2.5 1.4 3.9l1.4-.5c-.1-1-.6-2-1.3-2.7-.5-.3-1-.6-1.5-.7z"/><path class="st1" d="M296.7 333.6c.7-.7 1.3-1.5 1.6-2.5.4-1.5.5-3.1.5-4.7v-22.7l-.1-1.7c.1-1.1-.1-2.3-.6-3.3-.3-.6-.8-1-1.4-1.3v-7.3l33.4-11.4v-1.3l-34.9 11.9v7.3c.6.3 1.1.7 1.4 1.3.5 1 .7 2.2.6 3.3l.1 1.7v22.7c.1 1.6-.1 3.2-.5 4.7-.3.9-.9 1.8-1.6 2.5v6.7l1.5-.5v-5.4zM295.2 420v-.9c0-.6-.1-1.1-.4-1.6l-.1-.5c-.1-.4-.3-.8-.7-1-.2-.1-.5-.2-.8-.2h-.2c.1.1.1.3.2.4l.1.5c.2.5.3 1.1.4 1.6v.9c0 2.4-1.1 4.6-3.3 6.8v14.2l1.5-.5v-12.9c2.2-2.2 3.3-4.5 3.3-6.8zM277.6 337.8V333c.1-1.4-.1-2.8-.6-4.2-.5-1.1-1.4-1.8-2.5-2.1.4.4.8.8 1 1.3.5 1.3.7 2.8.6 4.2v4.8c0 2 .1 3.7.2 5.1.1.9.2 1.9.4 2.8l1.3-.4c-.1-.6-.2-1.1-.2-1.7-.1-1.3-.2-3-.2-5zM186.5 432.5c-.2-.5-.3-1-.3-1.5v-.2l-.7-2.9c-.5-1.7-.9-3.6-1.3-5.7-.4-2-.7-3.9-.8-5.5-.1-.8-.7-1.3-1.5-1.3h-.2c.1.2.2.4.2.6.2 1.6.5 3.5.8 5.5s.8 3.9 1.3 5.7l.7 2.9v.2c0 .5.1 1 .3 1.5 0 .1.1.1.1.2 2.9 10.3 5.7 20.6 8.6 30.8l1.2-.2c-2.8-9.9-5.6-19.9-8.4-29.9v-.2zM159.4 448.4c.7-2.2 1-4.4.8-6.7v-43.4c0-3.3-.3-5.5-.8-6.9-.6-1.4-1.7-2.5-3-3.2v-14.5c11.9-.1 23.8-.8 35.6-2.1-.1-.3-.1-.6-.2-.9-12.3 1.4-24.6 2.2-36.9 2.3v14.5c1.3.7 2.4 1.8 3 3.2.6 1.3.8 3.6.8 6.9V441c.1 2.3-.2 4.6-.8 6.7-.6 1.4-1.7 2.5-3 3.2v14.5h1.5v-13.8c1.3-.7 2.4-1.8 3-3.2zM336.1 320.2c.7-.7 1.2-1.5 1.5-2.4.4-1.3.5-2.7.5-4v-24.3c.1-1.4-.1-2.7-.5-4-.3-.7-.8-1.2-1.5-1.5v-7.3l13.8-5.4-.5-1.1-14.8 5.8v7.3c.7.3 1.2.8 1.5 1.5.4 1.3.6 2.6.5 4V313c.1 1.4-.1 2.7-.5 4.1-.3.9-.9 1.7-1.6 2.4v6.5l1.5-.6v-5.2zM202.6 407.7h.5c.6-.1 1.1-.5 1.3-1.1 2.8-12.6 5.7-25.2 8.5-37.8 11-1.8 22.5-4.2 34.4-7.1v-1.1c-12.3 3.1-24.4 5.6-35.8 7.5-2.8 12.6-5.7 25.2-8.5 37.8-.1.6-.6 1.1-1.2 1.1h-.3c.1.4.5.7 1.1.7zM399.6 291.1c.4-.8.7-1.7.8-2.6.2-1.1.2-2.2.2-3.3v-20c0-.8 0-3.2-1.6-4.2-.3-.2-.7-.3-1-.4 1.2 1.1 1.2 3.2 1.2 3.9v20c0 1.1-.1 2.2-.2 3.3-.1.9-.4 1.8-.8 2.6-.5.8-1.1 1.5-1.9 2-.8.5-1.7.9-2.6 1.3l-1.3.5c-.1 0-.2.1-.4.1.1.2.3.4.5.5.2.2.5.3.8.3.2 0 .4 0 .6-.1l1.3-.5c.9-.4 1.8-.8 2.6-1.3.7-.6 1.3-1.3 1.8-2.1zM600.5 269.9l.1.2c.2.9.4 1.8.5 2.8.1 1 .2 2.6.2 4.7v37.1c0 2 0 3.6-.2 4.6-.1.9-.2 1.9-.5 2.8v.1c-1 2.7-3.4 4.6-6.3 4.9h-.8c-.7 0-1.4-.1-2-.3.1.1.3.2.4.3 1 .5 2 .8 3.1.8h.8c1.4-.1 2.7-.7 3.8-1.6 1.1-.9 1.9-2 2.4-3.3v-.1c.2-.9.4-1.9.5-2.8.1-1 .2-2.6.2-4.6v-37.2c0-2.1 0-3.7-.2-4.7-.1-.9-.2-1.8-.5-2.8v-.2c-.5-1.3-1.4-2.4-2.6-3-.3-.2-.7-.3-1-.4.9.7 1.7 1.6 2.1 2.7zM289 385.1c-.2-1.2-.3-2.1-.4-2.6s-.3-1.2-.4-2.2c-.2-1-.4-2-.5-3-.1-1.3-.3-2.3-.4-3v-.1l-.3-1.5c-.1-.7-.7-1.2-1.5-1.2h-.2c.1.1.1.3.2.4l.3 1.5v.1c.1.7.2 1.8.4 3 .1 1 .3 2 .5 3s.3 1.7.4 2.2.3 1.5.4 2.6l3 15.9c.1.7-.3 1.5-1 1.7-3.1 1-6.2 2-9.2 2.9h-.2c.1.2.2.3.3.4.3.2.6.4 1 .4.1 0 .3 0 .4-.1 3-.9 6.1-1.9 9.2-2.9.7-.2 1.1-1 1-1.7l-3-15.8z"/><path class="st1" d="M312 304.9c.3.2.6.3.9.3.2 0 .3 0 .5-.1l6.5-2.2v-1.3l-8 2.7h-.3c.1.2.3.4.4.6zM372 345.6v35.8c0 1.9-.1 3.8-.4 5.8-.2 1.5-.7 3-1.5 4.3-.8 1.3-1.9 2.3-3.2 3.1-1.6.9-3.2 1.6-4.9 2.3l-2.4.9c-.1 0-.2.1-.3.1.1.2.3.4.5.5.4.3.9.3 1.4.2l2.4-.9c1.7-.6 3.3-1.4 4.9-2.3 1.3-.7 2.4-1.8 3.2-3.1.8-1.3 1.3-2.8 1.5-4.3.3-1.9.4-3.8.4-5.8v-35.8c0-3.5-.8-5.6-2.5-6.6-.3-.2-.7-.3-1-.4 1.3 1.1 1.9 3.1 1.9 6.2zM312 326.2c.3.2.6.3.9.3.2 0 .3 0 .5-.1l.6-.2c1-.3 1.9-.7 2.8-1.2.8-.5 1.5-1.1 2-1.9.5-.8.9-1.7 1-2.6.2-1 .2-2.1.2-3.1v-1.3l10.1-3.4v-1.3l-11.6 4v1.3c0 1.1-.1 2.1-.2 3.1-.1.9-.5 1.8-1 2.6s-1.2 1.4-2 1.9c-.9.5-1.8.9-2.8 1.2l-.6.2h-.3c.1.2.3.3.4.5zM379 301.2c.3-1.3.5-2.7.4-4.1v-24.3c.1-1.4-.1-2.7-.5-4-.3-.7-.8-1.2-1.5-1.5V260l21.3-8.9c2.3-1 4.7-1.7 7.2-2.1.3 0 .5 0 .8-.1.5 0 1.1.1 1.6.2l-.2-.1c-.9-.6-1.9-.8-2.9-.8-.3 0-.6 0-.8.1-2.5.4-4.9 1.1-7.2 2.1l-21.2 8.9v7.3c.7.3 1.2.8 1.5 1.4.4 1.3.6 2.6.5 4v24.3c.1 1.4-.1 2.7-.4 4.1-.3.9-.9 1.7-1.5 2.4v6.6l1.5-.6v-5.2c.6-.7 1.1-1.5 1.4-2.4zM249.4 439.1c.1 0 .3.1.4.1.4 0 .8-.2 1.1-.5 1.2-1.3 2.2-2.8 2.8-4.4.7-2.3 1.3-4.7 1.6-7.1 4.2-23.7 8.5-47.4 12.7-71.1 12.1-3.4 24.7-7.4 38.4-12l-.3-1.2c-14.1 4.8-27.1 8.9-39.6 12.5-4.2 23.8-8.5 47.5-12.7 71.1-.4 2.4-.9 4.8-1.6 7.1-.6 1.6-1.6 3.1-2.8 4.4-.3.3-.7.5-1.1.5-.1 0-.3 0-.4-.1l-.5-.2s.1 0 .1.1c.6.3 1.2.6 1.9.8zM230.2 349.1h.3l.6-.1c1-.2 2-.5 2.9-.9.9-.4 1.6-.9 2.2-1.7.6-.7.9-1.6 1.1-2.5.2-1 .2-2.1.2-3.1v-1.2l10.6-2.2v-1.1l-12.1 2.5v1.2c0 1-.1 2.1-.2 3.1-.1.9-.5 1.8-1.1 2.5-.6.7-1.3 1.3-2.2 1.7-.9.4-1.9.7-2.9.9l-.6.1h-.1c.1.2.2.3.4.4.2.3.5.4.9.4zM193.6 354.6c.4-1.3.5-2.6.4-4v-13.3c0-.8-.7-1.5-1.5-1.5h-.2c.1.2.2.5.2.7v13.3c.1 1.3-.1 2.7-.5 4-.3.8-.9 1.5-1.6 2v7l1.5-.1v-6.1c.8-.5 1.4-1.2 1.7-2zM230.2 327.8h.3l7-1.4v-1.1L229 327h-.1c.1.2.2.3.4.4.2.3.5.4.9.4z"/><path class="st1" d="M213.4 354.1c.7-.6 1.3-1.4 1.6-2.3.4-1.5.5-3.1.5-4.7v-22.7l-.1-1.7c.1-1.1-.1-2.3-.6-3.4-.3-.6-.8-1.1-1.5-1.4v-7.2l34.7-7.1v-1.1l-36.2 7.4v7.2c.6.3 1.1.8 1.5 1.4.5 1.1.6 2.2.6 3.4l.1 1.7v22.7c.1 1.6-.1 3.1-.5 4.7-.3.9-.9 1.7-1.6 2.3v6.9l1.5-.3v-5.8z"/><path class="st1" d="M234.3 315.4c.1.1.2.1.3.2 1 1.2 1.5 2.7 1.4 4.2l1.4-.3c-.1-1.2-.5-2.3-1.3-3.2-.5-.4-1.1-.7-1.8-.9zM254.1 345.7c.7-.6 1.3-1.4 1.6-2.3.4-1.3.5-2.7.5-4v-24.3c.1-1.4-.1-2.7-.5-4-.3-.7-.9-1.2-1.6-1.6v-7.2l22.9-6.4c2.1-.6 4.3-1 6.5-1.2h1c.9 0 1.8.1 2.6.4-.4-.3-.8-.5-1.2-.7-.9-.3-1.9-.5-2.9-.5h-1c-2.2.2-4.3.6-6.4 1.2l-22.9 6.4v7.2c.7.3 1.2.9 1.6 1.6.4 1.3.6 2.6.5 4v24.3c.1 1.4-.1 2.7-.5 4-.3.9-.9 1.6-1.6 2.3v6.8l1.5-.4-.1-5.6zM175.8 347.6c-.1-.2-.1-.5-.1-.7v-.2l-.4-1.6c-.3-1-.5-2-.7-3.1s-.4-2.1-.5-3c-.1-.8-.7-1.3-1.5-1.3h-.2c.1.2.2.4.2.6.1.9.3 1.9.5 3.1s.4 2.2.7 3.1l.4 1.6v.2c0 .2.1.5.1.7l.1.2 4.6 16.9 1.3-.1-4.4-16c-.1-.3-.1-.4-.1-.4zM184.1 335h.3c.6-.1 1.2-.5 1.3-1.2l4.6-20.3 17.3-1.4v-.9l-18.8 1.5-4.6 20.2c-.1.6-.7 1.1-1.3 1.2h-.1c.3.6.8.9 1.3.9zM285.5 320.1c.9 0 1.8.1 2.6.3-.4-.3-.8-.6-1.3-.7-.8-.2-1.7-.3-2.6-.3.4.4.8.7 1.3.7zM367.6 321.5l3.1-1.2c6.1-2.3 11-3.6 14.3-4 .6-.1 1.2-.1 1.9-.1 1.6 0 3.3.3 4.8.9-1.9-1.1-4.1-1.7-6.3-1.6-.6 0-1.2 0-1.9.1-3.4.4-8.2 1.7-14.3 4l-3.1 1.2c-15.1 5.9-27.5 10.5-38.9 14.7V350c.5.1 1 .4 1.5.7v-14.5c11.3-4.1 23.7-8.8 38.9-14.7zM327.5 414.8c.4 0 .7-.1 1-.4 1.4-1.2 2.6-2.7 3.3-4.4.6-2.2.9-4.6.8-6.9v-43.4c0-4.4-.5-5.9-.9-6.7-.5-1.1-1.5-1.8-2.7-2.2.5.4.9.9 1.2 1.4.4.8.9 2.3.9 6.7v43.4c.1 2.3-.2 4.7-.8 6.9-.7 1.7-1.8 3.2-3.3 4.4-.3.2-.6.4-1 .4h-.3l-.6-.1c.6.4 1.3.8 2.1.9h.3zM279.5 429.2c-.1 0-.3-.1-.4-.1.1.1.3.2.4.3v-.2z"/><path class="st1" d="M276.6 305.7c-.4-.3-.8-.4-1.2-.5.9.9 1.4 2.5 1.4 4.9.1 1.8-.3 3.6-1.1 5.3-1 1.4-2.5 2.4-4.1 2.9l-2 .6h-.2c.1.2.2.3.4.5.3.2.6.3.9.3.1 0 .3 0 .4-.1l2-.6c1.7-.4 3.2-1.4 4.1-2.8.8-1.6 1.2-3.4 1.1-5.3 0-2.8-.5-4.4-1.7-5.2zM159 359.4c.7-.5 1.3-1.2 1.6-2 .4-1.3.6-2.6.5-4v-24.3c.1-1.4-.1-2.8-.5-4.1-.3-.8-.9-1.4-1.6-1.8v-7.1l18.1-1.5-.2-.9-19.4 1.6v7.1c.7.4 1.3 1 1.6 1.8.4 1.3.6 2.7.5 4.1v24.3c.1 1.4-.1 2.7-.5 4-.4.8-.9 1.5-1.6 2v7l1.5-.1v-6.1zM437.7 244.6c.9 1 1.4 2.4 1.4 3.8l1.3-.5c-.1-1-.6-1.8-1.2-2.5-.4-.4-1-.7-1.5-.8zM432.7 278.7c.3.2.5.3.9.3.2 0 .4 0 .5-.1l.6-.2c.9-.4 1.9-.8 2.7-1.3.8-.5 1.5-1.1 2-1.9.5-.8.8-1.7 1-2.6.1-1 .2-2.1.2-3.1v-1.4l9.9-3.8v-1.3l-11.4 4.4v1.4c0 1.1-.1 2.1-.2 3.1-.1.9-.5 1.8-1 2.6s-1.2 1.4-2 1.9c-.9.5-1.8 1-2.7 1.3l-.6.2c-.1 0-.2.1-.3.1l.4.4zM484 352.6c.6-2.2.9-4.6.8-6.9v-43.4c0-3.3-.3-5.5-.9-6.7-.6-1.1-1.6-1.9-2.8-2.3.6.4 1 .9 1.3 1.5.6 1.2.9 3.4.9 6.7v43.4c.1 2.3-.2 4.7-.8 6.9-.6 1.6-1.7 3-3 4.1V370l1.5-.5v-12.8c1.3-1.1 2.3-2.5 3-4.1zM448.2 310.5c-.5-.4-1-.7-1.6-.8l.1.1c1.6 1.3 2.3 3.8 2.3 7.6l1.5-.5c-.2-3.2-.9-5.3-2.3-6.4z"/><path class="st1" d="M417.6 286.8c.7-.7 1.3-1.6 1.6-2.5.4-1.5.5-3.1.4-4.7v-22.7l-.1-1.7c.1-1.1-.1-2.3-.6-3.3-.3-.5-.8-1-1.4-1.2v-7.3l32.8-12.7v-1.3L416 242.7v7.3c.6.3 1.1.7 1.4 1.2.5 1 .6 2.2.6 3.3l.1 1.7v22.7c.1 1.6-.1 3.2-.4 4.7-.3 1-.9 1.8-1.6 2.5v6.6l1.5-.6v-5.3zM563.3 334.9c-1.3-3.9-1.9-7.9-1.8-12v-40.1c-.1-4.7.7-9.5 2.3-13.9 1.5-3.8 3.9-7.1 7-9.8 3-2.7 6.4-4.8 10.1-6.2 4.8-1.8 9.8-2.9 14.9-3.4 2.5-.3 5-.4 7.5-.4 2.9 0 5.7.2 8.5.8 1.7.4 3.4.9 5 1.7-2-1.1-4.2-1.9-6.5-2.4-2.8-.6-5.7-.8-8.5-.8-2.5 0-5 .2-7.5.4-5.1.5-10.1 1.6-14.9 3.4-3.7 1.4-7.2 3.5-10.1 6.2-3.1 2.7-5.5 6-7 9.8-1.5 4.5-2.3 9.2-2.3 13.9v40.1c-.1 4.1.5 8.1 1.8 12 1.1 2.8 3 5.2 5.5 6.9 1.1.8 2.3 1.5 3.5 2-.7-.4-1.4-.8-2-1.3-2.5-1.7-4.5-4.1-5.5-6.9zM521.1 266.1l3.3-.9c4-1.1 8.1-1.8 12.2-2.1h1.3c2.2 0 4.3.3 6.3 1.1-.5-.3-1-.5-1.5-.7-2-.8-4.2-1.2-6.4-1.1H535c-4.1.3-8.2 1.1-12.2 2.1l-3.3.9c-12.7 3.5-25.8 7.6-40.2 12.5v14.6c.5.2 1 .4 1.5.7v-14.5c14.5-5 27.7-9.1 40.3-12.6zM458 269.5c.4-1.3.5-2.7.5-4v-24.3c.1-1.4-.1-2.7-.5-4-.3-.7-.9-1.2-1.5-1.5v-7.3l22.6-7.9c2.1-.7 4.2-1.3 6.3-1.6.5-.1 1-.1 1.6-.1.7 0 1.4.1 2.1.3-.4-.3-.9-.6-1.4-.7-.7-.2-1.4-.3-2.2-.3-.5 0-1 0-1.6.1-2.1.4-4.3.9-6.3 1.6l-22.5 7.8v7.3c.7.3 1.2.8 1.5 1.5.4 1.3.6 2.6.5 4v24.3c.1 1.4-.1 2.7-.5 4.1-.3.9-.9 1.7-1.6 2.3v6.7l1.5-.5v-5.4c.7-.7 1.2-1.5 1.5-2.4zM487.2 244.2h.9c.6 0 1.2 0 1.8.1l-.1-.1c-.4-.3-.8-.6-1.3-.6-.6-.1-1.2-.2-1.9-.2h-.6c.2.5.7.8 1.2.8zM540.5 308.7c1.9 0 3.7.3 5.5.8l.6.2c-.6-.4-1.3-.8-2-1-1.7-.5-3.5-.8-5.3-.8.3.5.7.8 1.2.8z"/><path class="st1" d="M432.7 257.4c.3.2.5.3.9.3.2 0 .4 0 .5-.1l6.3-2.4v-1.3l-7.8 3c-.1 0-.2.1-.3.1.1 0 .3.2.4.4zM520.7 217.9v-.2c-.3-.9-1-1.6-1.9-1.9-.2-.1-.3-.1-.5-.1.4.4.7.8.9 1.3 0 .1 0 .1.1.2.1.5.2 1.1.3 1.6 0 .6.1 1.5.1 2.7v20.8c0 1.1 0 2-.1 2.6-.1.6-.1 1.1-.3 1.7v.1c-.3.9-.8 1.7-1.4 2.3-.6.7-1.4 1.1-2.3 1.4-.4.1-.8.2-1.3.2-.3 0-.5 0-.8-.1l.9.6c.4.2.9.3 1.4.3.4 0 .9-.1 1.3-.2.9-.3 1.6-.7 2.3-1.4.6-.6 1.1-1.4 1.4-2.3v-.1c.1-.6.2-1.1.3-1.7.1-.6.1-1.5.1-2.6v-20.8c0-1.2 0-2.1-.1-2.7-.2-.6-.3-1.1-.4-1.7z"/><path class="st1" d="M501 259.2c.4.3.9.5 1.4.7-1.2-.7-2.1-1.8-2.6-3.1-.7-2-1-4.2-.9-6.4V228c0-2.6.4-5.2 1.2-7.7.8-2.1 2-4.1 3.6-5.7 1.5-1.6 3.3-3 5.3-4.1 2.5-1.3 5.2-2.4 7.9-3.2 2.7-.9 5.6-1.4 8.4-1.6h.2c1.2 0 2.4.2 3.5.6l-.1-.1c-1.5-.9-3.2-1.4-4.9-1.3h-.2c-2.9.1-5.7.7-8.4 1.6-2.7.8-5.4 1.8-7.9 3.2-2 1.1-3.8 2.5-5.3 4.1-1.6 1.6-2.8 3.6-3.6 5.7-.8 2.5-1.2 5.1-1.2 7.7v22.4c-.1 2.2.2 4.3.9 6.3.5 1.5 1.5 2.6 2.7 3.3zM524.5 341.3v-6c0-.4 0-.8.1-1.2.1-.4.1-.8.1-1.3 0-3.2-.3-5.5-1.1-7-.6-1.4-1.8-2.4-3.3-2.9.8.5 1.4 1.3 1.8 2.1.7 1.5 1.1 3.8 1.1 7 0 .3 0 .8-.1 1.3 0 .4-.1.8-.1 1.2v6c0 3.6.1 6.7.3 9.3.2 2.2.5 4.3 1 6.4l1.3-.3c-.3-1.8-.6-3.6-.8-5.3-.2-2.6-.3-5.7-.3-9.3zM479.6 267.6c-.1-1.4-.2-3.1-.2-5.1v-4.8c.1-1.4-.1-2.8-.6-4.2-.4-1-1.3-1.8-2.4-2 .4.3.7.8.9 1.2.5 1.3.7 2.7.7 4.2v4.8c0 2 .1 3.7.2 5.1.1.9.2 1.8.4 2.6l1.3-.5c-.2-.3-.2-.8-.3-1.3zM473.6 281.1v-1.3c-23.8 8.2-47.8 17.5-68.6 25.7v14.6c.5.1 1 .3 1.5.6v-14.5c20.4-7.9 43.9-17 67.1-25.1zM360.6 291h.4c.7-.2 1.1-.8 1.1-1.4V280c.1-1.4-.1-2.8-.6-4.1-.3-.6-.8-1.2-1.4-1.4v-7.2l12-4.7v-1.3l-13.5 5.3v7.2c.6.3 1.2.8 1.4 1.4.4 1.3.6 2.7.6 4.1v9.5c0 .7-.5 1.3-1.1 1.5h-.2c.3.4.8.7 1.3.7zM523.2 284.9c-.4-.3-.8-.5-1.3-.6 1.6 1.3 2.4 3.9 2.4 8.1 0 3.9-.6 6.8-1.9 8.8s-3.5 3.6-6.9 4.6l-2.1.6-1.6.5h-.2c.1.2.2.3.4.5.3.2.6.3.9.3.1 0 .3 0 .4-.1l1.6-.5 2.1-.6c3.4-1.1 5.6-2.6 6.9-4.6s1.9-4.9 1.9-8.8c0-4.4-.8-7-2.6-8.2zM409.6 379.9c.6-2.6.9-5.4.8-8.1v-40.6l-.1-3c0-2.6-.3-4.4-.9-5.4-.6-.8-1.4-1.5-2.4-1.7.4.3.7.6.9 1 .6 1 .9 2.8.9 5.4l.1 3V371c.1 2.7-.1 5.5-.8 8.1-.6 1.7-1.7 3.3-3.1 4.5v14l1.5-.6v-12.7c1.4-1.1 2.5-2.7 3.1-4.4zM437.6 330.3c.2.2.5.3.9.3.2 0 .4 0 .5-.1 5.4-2 10.5-3.9 15.3-5.7v-1.3c-5.4 2-10.9 4-16.8 6.3-.1 0-.2.1-.3.1.1.1.2.3.4.4zM480.1 235.5c0-2.8-.5-4.3-1.7-5.1-.3-.2-.7-.4-1.1-.4.9.9 1.3 2.4 1.3 4.8.1 1.8-.3 3.6-1.1 5.3-.9 1.5-2.4 2.5-4 3.1l-2 .7-.3.1c.1.2.3.4.4.5.3.2.6.3.9.3.2 0 .3 0 .5-.1l2-.7c1.6-.5 3.1-1.6 4-3.1.9-1.7 1.2-3.6 1.1-5.4zM351.7 302.8c-.4-.8-.7-1.5-1-2.1s-.5-1.1-.6-1.4c-.2-.6-.8-1-1.4-1h-.2c0 .1.1.1.1.2.1.4.3.9.6 1.4s.6 1.3 1 2.1c.1.2.3.4.3.7l6.7 14.5 1-.4-6.2-13.3c-.1-.3-.2-.5-.3-.7zM437.6 368.5c.3.2.5.3.9.3.2 0 .4 0 .5-.1l1.1-.4c1.7-.6 3.4-1.4 5-2.3 1.3-.8 2.5-1.8 3.4-3.1.9-1.3 1.4-2.7 1.7-4.2.3-1.8.4-3.6.4-5.5v-3.3c8.2-3 15.8-5.8 23.1-8.3v-1.3c-7.8 2.7-15.8 5.6-24.6 8.8v3.3c0 1.8-.1 3.7-.4 5.5-.3 1.5-.8 2.9-1.7 4.2-.9 1.3-2 2.3-3.4 3.1-1.6.9-3.3 1.7-5 2.3l-1.1.4c-.1 0-.2.1-.3.1.1.1.2.3.4.5z"/></g></svg>