<?xml version="1.0" encoding="utf-8"?>
<!-- Generator: Adobe Illustrator 24.1.2, SVG Export Plug-In . SVG Version: 6.00 Build 0)  -->
<svg version="1.1" id="Layer_1" xmlns="http://www.w3.org/2000/svg" xmlns:xlink="http://www.w3.org/1999/xlink" x="0px" y="0px"
	 viewBox="0 0 792 612" style="enable-background:new 0 0 792 612;" xml:space="preserve">
<style type="text/css">
	.st0{fill:#FFFFFF;}
	.st1{fill:#3B6786;}
	.st2{fill:#C98921;}
	.st3{fill:#3B6786;stroke:#3B6786;stroke-width:45.87;stroke-linecap:round;stroke-linejoin:round;}
	.st4{fill:#2C4C64;}
	.st5{fill:#DEAD68;}
	.st6{opacity:0.5;}
</style>
<circle class="st0" cx="362.6" cy="305.5" r="192.4"/>
<circle class="st1" cx="362.6" cy="305.5" r="182.1"/>
<circle class="st2" cx="362.6" cy="305.5" r="171.5"/>
<path class="st0" d="M242.7,246.4c-1,2.9-2.4,7.5-4.1,14c1.2-0.4,2.3-0.7,3.4-0.9s1.6,0.1,1.8,0.6c0.1,0.4-0.4,1.5-0.7,2
	c-0.3,0.7-0.1,1.2-0.8,1.4c-0.2,0.1-0.4,0.1-0.7,0.1c-0.6,0.2-1.5,0.5-2.6,0.9c-0.4,0.2-0.9,0.4-1.4,0.5c-1.3,5.5-3.5,14.9-3.6,15.5
	c-0.1,0.8-0.3,1.3-1.1,1.6c-0.3,0.1-0.6,0.2-0.9,0.2c-1.3,0.2-2,0.2-2.2-0.4c-0.1-0.3-0.1-0.6-0.1-0.9c0-1.5,2-9.3,3.4-14.2
	c-3.1,1.3-6.1,2.6-7,3c-0.3,0.2-0.6,0.5-1,0.6c-0.4,0.1-0.8-0.1-0.9-0.6c0-0.1,0-0.3,0-0.4c0.1-0.7,0.2-1.4,0.4-2
	c0.1-0.8,0.5-1.5,1.1-2c2.9-1.4,5.8-2.7,8.8-3.8c1-4.3,2.2-8.5,3.7-12.6c-3.2,1.8-6.5,3.3-10,4.4c-6.4,2.3-8.8,1.4-9.6-0.7
	c-0.5-1.3,0.5-3.1,2.9-4c1.2-0.4,1.6-0.3,1.7-0.2s-0.1,0.3-0.3,0.3c-0.7,0.2-1.2,0.9-1.1,1.6c0.1,0.4,1.8,0.5,7.3-1.5
	c4-1.4,7.9-3.1,11.6-5.1c1.5-2.5,3-4.4,5.7-5.3c0.7-0.3,1.6-0.3,2.2,0.2c0.3,0.2,0.5,0.4,0.7,0.7
	C249.6,240.8,247.7,244.2,242.7,246.4z M245.4,241c0.5-0.4,0.8-0.6,0.7-0.7C245.9,240.6,245.7,240.8,245.4,241L245.4,241z"/>
<path class="st0" d="M250.7,275.9c-2,0.7-4.2-0.3-4.9-2.2c0-0.1,0-0.1-0.1-0.2c-2.9-8.1,3.5-18.1,7.7-19.6c1.3-0.5,2.3-0.1,2.4,0.2
	v0.1c0.2-0.1,0.5-0.2,0.7-0.3c1.2-0.5,2.6,0.1,3.1,1.3c0,0.1,0,0.1,0.1,0.2C261.4,260,257.2,273.6,250.7,275.9z M255.5,257.7
	c-0.4,0.2-0.9,0-1.2-0.9c-2.3,2-4,4.6-4.8,7.5c-1,3.2-1.1,5.8-0.6,7.1c0.3,0.8,0.8,1.1,1.4,0.9c1-0.4,3.2-2.6,4.7-7
	c1.4-4,1.6-6.5,1.3-7.4c-0.1-0.3-0.3-0.4-0.5-0.3L255.5,257.7z"/>
<path class="st0" d="M267.5,269.9c-2,0.7-4.2-0.3-4.9-2.2c0-0.1,0-0.1-0.1-0.2c-2.9-8.1,3.5-18.1,7.7-19.6c1.3-0.5,2.3,0,2.4,0.2
	l0,0.1c0.2-0.1,0.5-0.2,0.7-0.3c1.2-0.5,2.6,0.1,3.1,1.3c0,0.1,0,0.1,0.1,0.2C278.1,254,273.9,267.6,267.5,269.9z M272.2,251.7
	c-0.5,0.2-0.9,0.1-1.2-0.9c-2.3,2-4,4.6-4.8,7.5c-1,3.2-1.1,5.8-0.6,7.1c0.3,0.8,0.8,1.1,1.4,0.9c1-0.4,3.2-2.6,4.7-7
	c1.4-4,1.6-6.5,1.3-7.4c-0.1-0.3-0.3-0.4-0.5-0.3L272.2,251.7z"/>
<path class="st0" d="M298.5,222.1c-1.3,6-2.6,12.1-3.8,18.1c-0.5,2.6-2.3,13.9-1.6,15.7l0.1,0.2c0.2,0.5,0.5,0.9,1,0.7
	c1.9-0.7,3.6-5.6,4-6.3c0.1-0.2,0.2-0.3,0.4-0.4c0.5-0.2,0.9,0.6,1.3,1.8c0.1,0.3,0.2,0.7,0.2,1c-0.2,1.4-2.3,6.3-5.3,7.3
	c-2.5,0.9-3.8,0-4.4-1.6c-0.4-1.7-0.6-3.4-0.3-5.1c-1.1,3.4-3.6,9.2-7.2,10.5c-2,0.7-3.4-0.7-4-2.5c-2.2-6.3,3.5-17.7,9.7-19.9
	c0.7-0.1,1.4,0,2,0.3c0.4-1.7,0.6-3.3,0.9-5c0.6-3.3,1.3-6.6,2.1-9.9c0.3-1.3,0.6-2.6,1.1-3.9c0.5-1.1,1.4-1.9,2.5-2.3
	c0.5-0.2,1,0,1.2,0.5c0,0,0,0.1,0,0.1C298.7,221.7,298.6,221.9,298.5,222.1z M282.5,256.5c-0.2,1.1-0.2,2.2,0,3.3
	c0.1,0.2,0.2,0.5,0.5,0.4c1.5-0.5,4.8-9.1,5.4-10.6c0.6-1.7,1.2-3.4,1.6-5.1C286,247.1,283.4,251.8,282.5,256.5L282.5,256.5z"/>
<path class="st0" d="M321,220.2l0.5-0.1c1.1-0.3,2.5,0,2.8,1c1,2.8-2.2,5.2-4,5.8L320,227l-0.3,2.1c0.1,0,0.2-0.1,0.2-0.1
	c0.2-0.1,0.5-0.1,0.8-0.1c0.5,0,1.5,1.1,1.6,1.5s-0.4,1-0.6,1.4c-0.6,0.8-1.3,1.4-2.2,1.8l-0.4,0.3c-0.3,1.9-0.5,4-0.8,6.3
	c2.9-2.4,5.8-6,6-7c0.1-0.4,0.1-0.9,0.5-1c0.9,0,1.7,0.6,1.9,1.4c1,2.9-3.3,9-8.8,11.6c-0.2,2.5-0.4,5.6-0.5,6.1
	c-0.2,0.5-0.6,1-1.2,1.1c-0.1,0.1-0.2,0.1-0.3,0.2c-0.5,0.2-1.2,0.1-1.4-0.1s-0.4-0.4-0.4-0.6c0-0.1,0-0.2,0-0.3
	c0-1.3,0.2-3.1,0.4-5.2c-2.4,0.3-4.3-0.7-5-2.7c-1.3-3.6,1.3-6.7,2.5-8c-1.3-0.2-2.4-1.1-2.9-2.3c-1.3-3.7,3.3-8.8,8.2-11.5
	c0.5-3.7,0.8-6.2,0.9-6.4c0.2-1.3,2.4-2.6,2.8-2.7c0.3-0.1,0.7,0.1,0.8,0.4c0,0.1,0,0.2,0,0.3C321.9,213.5,321.6,215.4,321,220.2z
	 M313,231.9c0.1,0.2,0.4,0.2,1,0.1c0.2-0.1,1-0.5,2.4-1.1c0.2-1.5,0.4-2.9,0.5-4.3C314.7,228.6,312.8,231.3,313,231.9z M313.7,241.3
	c0.1,0.5,0.6,0.9,1.1,0.8c0,0,0.1,0,0.1,0c0.2-1.7,0.4-3.5,0.6-5.3C313.6,238.9,313.4,240.4,313.7,241.3L313.7,241.3z"/>
<path class="st0" d="M350.1,239.7c-4.5,1.6-4.3,0.6-5.3,0.3c-0.4-0.1-0.7-0.6-0.9-1.1c-0.2-0.5-0.3-1-0.3-1.5
	c-0.3-4.1,5.3-24.2,6.6-28.6c0.1-0.2,0.6-0.6,2.3-1.4c1.2-0.4,1.7-0.4,1.9,0.1c0.1,0.4,0,0.8-0.1,1.2c-1.2,4.3-6.6,27-6.5,27.3
	s0.4,0.2,1.4-0.2c11.1-3.9,19.6-19.2,17.4-25.4c-1.5-4.2-6.7-6.4-13.7-3.9c-3.9,1.4-7.2,4-9.7,7.3c-0.4,0.7-0.6,1.1-0.5,1.3
	s0.2,0.1,0.3,0.1c0.3-0.2,0.6-0.3,0.9-0.5c0.1-0.1,0.2,0,0.2,0s-0.1,0.2-0.3,0.5c-0.5,0.6-0.4,0.8-0.7,1.2c-0.5,0.8-1.2,1.5-2.1,1.9
	c-0.2,0-0.3,0.1-0.5,0.1h-0.1c-1,0.3-2.1-0.2-2.4-1.2c0,0,0,0,0,0c-1.3-3.6,3.9-10.7,13.6-14.1s16.8-1.1,18.8,4.7
	C374.7,219.3,362.4,235.3,350.1,239.7z"/>
<path class="st0" d="M386.8,215.5c-0.2,0.9-1,1.4-1.9,1.2c-0.6-0.1-1.1-0.6-1.2-1.2c-0.3-1.4-0.2-2.8,0.4-4.1H384
	c-1.1,0.5-4.9,9-5.6,10.6c-1,2.4-1.9,4.9-2.6,7.4c-0.1,0.5-0.5,1.3-1,1.4c-0.8,0.1-1.6,0.1-2.3,0c-0.2,0-0.2-0.2-0.3-0.3
	c-0.3-0.8,0.2-2.2,0.4-3.2c0.7-4,1.5-8,2.3-12c0.2-1.3,0.5-2.6,0.8-3.9c0.6-1.2,1.6-2.1,2.9-2.5c0.5-0.2,0.7,0.3,0.9,0.7
	c0.4,1-0.8,4.9-1,6.2c1.3-3.1,3.4-8,6.8-9.2c1.1-0.5,2.3,0,2.8,1.1c0,0.1,0,0.1,0.1,0.2C388.5,209.2,387.2,214,386.8,215.5z"/>
<path class="st0" d="M400.7,217c-0.6,3.5-2.9,6.4-6.1,7.8c-2.2,0.7-4.5-0.3-5.4-2.4c-0.8-2.2,1.6-11.1,1.4-11.5
	c-0.2-0.5-1.3-0.6-1.4-1.1c-0.1-0.4,2-5.4,3.9-6.1c0.9-0.1,1.9,0.4,2.3,1.2c0.2,0.5-1.6,10.2-1.9,11.5c-0.2,1.1-0.8,3.1-0.4,4.2
	c0.2,0.6,0.9,0.6,1.4,0.4c2.7-1,4-6.5,4.7-6.8s1.1,1.4,1.3,1.8C400.6,216.3,400.7,216.7,400.7,217z M394.9,200.4
	c-0.6,0.3-1.4,0.1-1.7-0.5c-0.1-0.1-0.1-0.2-0.1-0.3c-0.6-2,0.4-4.2,2.3-5.1c0.6-0.3,1.4-0.1,1.7,0.6c0,0.1,0.1,0.2,0.1,0.2
	C397.7,196.9,396.6,199.8,394.9,200.4z"/>
<path class="st0" d="M418.4,211.8c-1.1,2.1-2.8,5.3-5.5,6.3c-2,0.7-4.2-0.3-5-2.3c-1-2.8,0.1-7.5,1-10.9c0.2-0.8,0.4-1.7,0.4-2.5
	h-0.1c-1.1,0.5-4.9,9-5.6,10.6c-1,2.4-1.8,4.9-2.6,7.4c-0.2,0.5-0.5,1.3-1.1,1.5c-0.8,0.1-1.6,0.1-2.3,0c-0.2,0-0.2-0.2-0.3-0.3
	c-0.3-0.7,0.2-2.2,0.4-3.2c0.7-4,1.5-8,2.3-12c0.2-1.3,0.5-2.6,0.8-3.9c0.6-1.2,1.6-2.1,2.9-2.5c0.5-0.2,0.7,0.3,0.8,0.7
	c0.4,1-0.8,4.9-1,6.2c1.3-3.1,3.4-8,6.9-9.2c1.1-0.4,2.3,0.1,2.8,1.1c0,0,0,0.1,0,0.1c0.5,1.4-0.9,5.9-1.3,7.6c-0.3,1.4-1.5,6-1,7.5
	c0.3,0.7,1,0.7,1.7,0.5c2.1-0.8,4.1-6.6,4.7-6.9s1.2,1.4,1.3,1.8C419.2,210.3,419,211.2,418.4,211.8z"/>
<path class="st0" d="M435.4,203.5c0.1,0.3,0.2,0.7,0.2,1c-0.2,1.4-2.3,6.3-5.3,7.3c-4.1,1.5-8.4-3-10.1-4.6
	c-0.4,3.4-0.9,7.6-0.9,7.9s-0.2,0.5-0.3,0.5c-0.4,0.2-1.2,0.1-1.5,0.2c-0.8,0.1-1-0.2-1.6-0.6c0,0,0,0,0-0.1c0-0.4,0-0.7,0-1.1
	c-0.2-2.7,5.1-33.7,5.4-34.4c0.2-0.8,0.7-1.5,1.4-1.9c1.1-0.9,1.1-1.2,1.4-1.3c0.4-0.1,0.8,0.1,0.9,0.5c0,0,0,0,0,0l0.1,0.2
	c0,0.7-3.8,22.9-4.3,26c1.9-1.7,6.4-8.8,6-10c-0.3-1,0.2-2,1.1-2.4c0,0,0.1,0,0.1,0c0.9-0.3,1.8,0.1,2.2,0.9c0,0.1,0,0.1,0.1,0.2
	c1.2,3.7-4,11.2-6.1,13.1c1.3,1.5,3.8,4.1,5.9,3.4c1.8-0.9,3.4-5.6,3.7-6.1c0.1-0.2,0.2-0.3,0.4-0.4c0.2-0.1,0.5,0,0.6,0.3
	C435,202.5,435.2,203,435.4,203.5z"/>
<path class="st0" d="M447.3,185.8c0.2,0.7,0.3,1.4,0.1,2.1c-0.6,1.4-1.6,2.4-3,3c-0.7,0.3-0.8-0.1-1.2-0.1c-0.2,0-0.3-0.2-0.4-0.4
	c-0.1-0.4,0.2-0.6,0.1-1.3c-4.1,1.7-7.1,6.8-6.9,7.5s4-0.8,8.4-0.4c1.3,0.1,2.5,0.9,3.1,2.1c1.4,4-4.6,9-8.3,10.3
	c-3.2,1.2-4.8,0-5.2-1.1c-0.6-1.6-0.2-3.4,0.7-3.8c0.5-0.2,1.1-0.4,1.3,0.1c0,0.1,0.1,0.3,0.1,0.4c0.3,0.7,1,1.1,1.7,0.9
	c3.8-1.3,6.3-3.8,5.9-4.8c-0.3-0.8-3.5-0.1-6.7,0.1c-1.6,0.1-3.5,0-4.3-2c-1.9-5.4,7-12.4,10.4-13.6s3.8,0.4,3.9,0.8L447.3,185.8z"
	/>
<path class="st3" d="M159.4,458.5c1.4-0.5,2.5-1.6,3.1-2.9c0.6-2,0.8-4.1,0.7-6.1V406c0.1-2.1-0.1-4.2-0.7-6.3
	c-0.7-1.3-1.8-2.3-3.1-2.8v-16.9c13.2,0,26.4-0.8,39.6-2.4c2.7,12.1,5.4,24.3,8.1,36.4h0.3c2.9-12.9,5.8-25.8,8.7-38.8
	c12.9-2.1,25.7-4.9,38.6-8.1V384c-1.4,0.9-2.5,2.2-3.1,3.7c-0.6,2.1-0.8,4.2-0.7,6.4v43.4c0,1.2,0.1,2.4,0.2,3.7
	c0.1,0.8,0.3,1.5,0.6,2.3c0.2,0.5,0.6,1,1.1,1.4c0.6,0.4,1.2,0.6,1.9,0.8v16.9c-12.1,3-24.1,5.6-36.1,7.7v-16.9
	c1.3-0.8,2.4-2,3.1-3.5c0.5-2,0.7-4.1,0.6-6.2v-23.7H222c-0.1,2.3-0.4,4.5-0.9,6.8c-0.5,2.6-1.2,6-2.3,10.2l-0.6,2.2
	c-2.7,10.8-5.5,21.6-8.3,32.3c-3.8,0.6-7.6,1.1-11.4,1.5c-3-10.7-6-21.3-9-32c-0.2-0.6-0.4-1.3-0.4-2c-0.2-1-0.5-2-0.7-2.9
	c-0.5-1.8-0.9-3.7-1.3-5.8s-0.7-3.9-0.9-5.6h-0.3v23.7c0,1.2,0,2.5,0.1,3.7c0.1,0.8,0.3,1.6,0.6,2.4c0.3,0.6,0.7,1.1,1.2,1.5
	c0.6,0.4,1.3,0.7,1.9,1v16.9c-10.2,1-20.4,1.5-30.6,1.5L159.4,458.5z"/>
<path class="st3" d="M313.3,349.5c4.6,20.9,9.2,41.7,13.7,62.5c0.4,2.4,1.2,4.8,2.2,7.1c0.6,1.2,1.8,2,3.1,2.2V438
	c-12.4,4.5-24.9,8.8-37.3,12.8V434c2.2-2,3.3-4.1,3.3-6.2v-0.9c0-0.4-0.1-0.8-0.3-1.2c0-0.2-0.1-0.5-0.1-0.7
	c-4.8,1.5-9.5,3-14.3,4.5c-0.2,1-0.3,1.7-0.4,2c0,0.3-0.1,0.6-0.1,1c0,2.5,1.3,3.8,3.9,4v16.9c-11,3.4-21.9,6.5-32.9,9.2v-16.9
	c1.2-1.2,2.1-2.6,2.7-4.1c0.7-2.2,1.2-4.5,1.6-6.8c4.3-24,8.6-48,12.9-72.1C285.3,358.7,299.3,354.3,313.3,349.5z M295.1,409
	l-3-15.9c-0.2-1.3-0.3-2.2-0.4-2.6s-0.2-1.2-0.4-2.2c-0.2-1-0.4-2.1-0.5-3.1c-0.1-1.3-0.3-2.3-0.4-3l-0.3-1.5l-0.3,0.1
	c-0.2,2.2-0.4,4.4-0.6,6.7c-0.2,2.3-0.5,4.6-0.9,6.9l-2.3,17.5C289.1,411,292.1,410,295.1,409z"/>
<path class="st3" d="M331.7,421.4c1.4-1,2.5-2.4,3.1-4c0.6-2.1,0.8-4.2,0.7-6.4v-43.4c0-3-0.2-5-0.7-6c-0.5-1-1.5-1.5-3.1-1.7V343
	c13.3-4.8,26.6-9.9,39.9-15l3.1-1.2c6.3-2.3,11.2-3.7,14.7-4.1c3.2-0.5,6.4,0.2,9.1,1.8c4.9,2.9,7.3,8.7,7.3,17.6v41.1
	c-0.2,9.7-3.1,18-8.9,24.8c-2.5,2.9-5.5,5.5-8.8,7.6c-4.3,2.6-8.8,4.8-13.5,6.6l-3.1,1.2c-13.3,5.1-26.6,10.2-39.9,15L331.7,421.4z
	 M366,404.5l1.6-0.6c1.6-0.6,3.2-1.3,4.6-2.1c1.1-0.6,2-1.5,2.7-2.6c0.7-1.1,1.1-2.4,1.3-3.7c0.3-1.8,0.4-3.7,0.4-5.5v-35.8
	c0-2.9-0.6-4.6-1.8-5.3c-1.2-0.7-3.3-0.4-6.4,0.8l-1.9,0.7l-0.4,0.2l-1,0.4v54L366,404.5z"/>
<path class="st3" d="M409.6,391.5c1.4-1.1,2.5-2.6,3.1-4.3c0.6-2.5,0.8-5.1,0.7-7.6V339c0-1-0.1-2-0.1-3c0-2.4-0.2-4-0.7-4.7
	s-1.5-1.2-3-1.4V313c23.9-9.3,47.7-18.5,71.6-26.7v31.9c-9.2,3.2-18.4,6.5-27.6,9.9v-2.1c0-3.3-0.6-5.5-1.8-6.5
	c-1.2-1-3.2-0.9-6.1,0.1l-1.3,0.5l-1.4,0.5v16.3c6.3-2.4,12.6-4.7,18.9-7v18.7c-6.3,2.3-12.6,4.6-18.9,7V375l0.6-0.2l0.6-0.2
	c1.6-0.6,3.2-1.3,4.7-2.2c1.2-0.7,2.2-1.6,2.9-2.7c0.7-1.1,1.2-2.3,1.4-3.6c0.3-1.7,0.4-3.5,0.4-5.2v-4.3c9.2-3.4,18.4-6.7,27.6-9.9
	v34.9c-23.9,8.2-47.7,17.4-71.6,26.8L409.6,391.5z"/>
<path class="st3" d="M484,363.8c1.4-1,2.5-2.4,3.1-3.9c0.6-2.1,0.8-4.2,0.7-6.4V310c0-3-0.2-5.1-0.7-6s-1.5-1.6-3.1-1.8v-16.9
	c13.8-4.7,27.5-9,41.3-12.9l3.3-0.9c4.1-1.1,8.3-1.9,12.5-2.2c2.8-0.2,5.7,0.2,8.4,1.2c6.7,2.8,10,9.3,10,19.2
	c0,11.6-4.8,19.9-14.3,25.2c2,0,4,0.3,5.9,0.9c1.4,0.4,2.7,1.2,3.8,2.2c1,1.1,1.7,2.4,2.1,3.9c0.5,2,0.7,4,0.6,6v5
	c0,3.3,0.2,5.6,0.7,6.9c0.5,1.3,1.7,2.1,3,2.2v16.9c-10.7,2.2-21.3,4.8-32,7.7c-0.7-2.7-1.1-5.4-1.4-8.1c-0.2-2.6-0.4-5.8-0.4-9.4
	v-6c0-0.5,0-0.9,0.1-1.4c0-0.4,0.1-0.7,0.1-1.1c0.1-2.2-0.2-4.3-0.9-6.4c-0.6-1.3-1.8-2.2-3.2-2.3c-0.7-0.2-1.4-0.2-2.1,0
	c-0.8,0.2-2.1,0.5-4,1.1v11.1c0,2.9,0.2,4.9,0.6,5.9c0.4,1,1.5,1.6,3.1,2v16.9c-12.4,3.5-24.8,7.5-37.1,11.7L484,363.8z M517.4,314
	l1.6-0.5l2.1-0.6c3-0.9,5-2.3,6.1-4s1.7-4.4,1.7-8c0-3.8-0.7-6.2-1.9-7s-3.9-0.8-7.9,0.4l-1.6,0.5L517.4,314z"/>
<path class="st3" d="M564.6,295.9v-5.3c-0.1-4.9,0.7-9.8,2.4-14.5c1.6-4,4.1-7.5,7.4-10.4c3.1-2.8,6.7-5,10.6-6.5
	c4.9-1.8,10.1-3,15.3-3.5c5.5-0.7,11.1-0.6,16.5,0.4c4.1,0.8,7.9,2.7,11.1,5.5c2.7,2.3,4.8,5.3,6,8.7c1.4,4.1,2,8.4,1.9,12.8v40.1
	c-0.1,5.8-0.9,10.5-2.4,14c-1.6,3.7-4.1,6.9-7.2,9.3c-3.2,2.4-6.8,4.2-10.6,5.3c-5,1.4-10.1,2.3-15.2,2.8
	c-5.5,0.7-11.1,0.8-16.6,0.3c-4-0.4-7.8-1.9-11.1-4.2c-2.7-1.8-4.8-4.5-6-7.6c-1.4-4-2-8.3-1.9-12.5L564.6,295.9L564.6,295.9z
	 M605.7,287.9v-1.9c0-2.1-0.1-3.6-0.2-4.6c-0.1-0.9-0.2-1.7-0.4-2.5c-0.3-1-1-1.8-1.9-2.2c-0.9-0.5-2-0.7-3.1-0.5
	c-1.1,0.1-2.2,0.5-3.1,1.2c-0.9,0.7-1.6,1.6-1.9,2.7c-0.3,0.9-0.5,1.8-0.6,2.7c-0.1,1-0.1,2.5-0.1,4.5v37.1c0,2,0,3.5,0.1,4.4
	c0.1,0.9,0.3,1.7,0.6,2.5c0.3,1,1,1.8,1.9,2.3c0.9,0.5,2,0.7,3.1,0.6c1.1-0.1,2.2-0.6,3.1-1.3c0.9-0.7,1.6-1.6,1.9-2.7
	c0.2-0.9,0.3-1.7,0.4-2.6c0.1-1,0.2-2.4,0.2-4.4V287.9z"/>
<path class="st3" d="M162.1,366.3c0.8-0.4,1.4-1,1.8-1.7c0.3-1.1,0.5-2.3,0.4-3.5v-24.3c0.1-1.2-0.1-2.4-0.4-3.5
	c-0.4-0.7-1-1.2-1.8-1.5v-9.4l22.1-1.8l4.5,20.5h0.2l4.9-21.3l21.5-1.8v9.4c-0.8,0.4-1.4,1-1.8,1.8c-0.3,1.1-0.5,2.3-0.4,3.5v24.3
	c0,0.7,0,1.4,0.1,2.1c0.1,0.5,0.2,0.9,0.4,1.3c0.1,0.3,0.4,0.6,0.6,0.9c0.3,0.2,0.6,0.4,1,0.6v9.4l-20.1,1.6v-9.4
	c0.8-0.4,1.4-1,1.7-1.8c0.3-1.1,0.4-2.3,0.4-3.4v-13.3h-0.2c-0.1,1.3-0.2,2.5-0.5,3.8c-0.3,1.4-0.7,3.3-1.3,5.6l-0.3,1.2l-4.6,17.7
	L184,374l-5-18c-0.1-0.4-0.2-0.7-0.2-1.1l-0.4-1.6c-0.3-1-0.5-2.1-0.7-3.2s-0.4-2.2-0.5-3.1H177v13.3c0,0.9,0,1.5,0.1,2.1
	c0,0.5,0.1,0.9,0.3,1.3c0.1,0.3,0.4,0.6,0.7,0.9c0.3,0.2,0.7,0.4,1.1,0.6v9.4l-17,1.4L162.1,366.3z"/>
<path class="st3" d="M216.4,361.2c0.8-0.5,1.4-1.2,1.7-2.1c0.3-1.4,0.5-2.8,0.4-4.2v-22.7l-0.1-1.7c0.1-0.9-0.1-1.9-0.4-2.7
	c-0.4-0.6-1-1-1.6-1.1v-9.4l39.2-8v17.8l-15.1,3.1V329c0-1.9-0.3-3.1-1-3.8s-1.8-0.8-3.3-0.5l-0.7,0.1l-0.8,0.2v9.1L245,332v10.5
	l-10.3,2.1v10.9l0.3-0.1l0.3-0.1c0.9-0.2,1.7-0.4,2.6-0.8c0.6-0.3,1.2-0.7,1.6-1.2c0.4-0.6,0.7-1.2,0.8-1.9c0.1-1,0.2-1.9,0.2-2.9
	v-2.4l15.1-3.1v19.5l-39.2,8L216.4,361.2z"/>
<path class="st3" d="M257.2,352.8c0.7-0.5,1.3-1.2,1.7-2.1c0.3-1.2,0.4-2.3,0.4-3.5v-24.3c0.1-1.2-0.1-2.3-0.4-3.4
	c-0.3-0.6-1-1-1.7-1.1v-9.4l22.2-6.2l1.8-0.5c2.2-0.6,4.5-1,6.7-1.3c1.5-0.2,3.1,0,4.5,0.5c3.6,1.4,5.4,4.9,5.4,10.5
	c0,6.5-2.6,11.3-7.7,14.5c1.1,0,2.1,0.1,3.2,0.4c0.8,0.2,1.4,0.6,2,1.1c0.6,0.6,0.9,1.3,1.1,2.1c0.3,1.1,0.4,2.2,0.4,3.3v2.8
	c-0.1,1.3,0.1,2.6,0.4,3.8c0.3,0.7,0.9,1.1,1.6,1.1v9.4l-17.2,4.8c-0.3-1.5-0.6-3-0.7-4.5c-0.1-1.5-0.2-3.2-0.2-5.3v-3.4
	c0-0.3,0-0.5,0-0.8c0-0.2,0-0.4,0-0.6c0.1-1.2-0.1-2.4-0.5-3.6c-0.6-1-1.7-1.6-2.9-1.4c-0.4,0.1-1.1,0.3-2.1,0.6v6.2
	c-0.1,1.1,0,2.2,0.3,3.3c0.3,0.6,1,1.1,1.7,1.2v9.4l-20,5.6L257.2,352.8z M275.2,325.9l0.8-0.2l1.2-0.3c1.3-0.3,2.5-1.1,3.3-2.2
	c0.7-1.4,1-2.9,0.9-4.5c0-2.1-0.4-3.5-1-4s-2.1-0.4-4.3,0.2l-0.8,0.2L275.2,325.9z"/>
<path class="st3" d="M299.8,340.8c0.8-0.6,1.3-1.4,1.7-2.3c0.3-1.4,0.4-2.8,0.4-4.2v-22.7l-0.1-1.6c0.1-0.9-0.1-1.8-0.4-2.7
	c-0.4-0.5-1-0.8-1.6-0.9v-9.4l37.9-12.9v17.8l-14.6,5v-1.2c0-1.9-0.3-3.1-1-3.7s-1.7-0.6-3.2-0.1l-0.7,0.2l-0.8,0.3v9.1l10-3.4v10.5
	l-10,3.4v10.9l0.3-0.1l0.3-0.1c0.9-0.3,1.7-0.6,2.5-1.1c0.6-0.3,1.1-0.8,1.5-1.4c0.4-0.6,0.7-1.3,0.8-2c0.1-1,0.2-1.9,0.2-2.9v-2.4
	l14.6-5v19.5l-37.9,12.9L299.8,340.8z"/>
<path class="st3" d="M339.2,327.3c0.7-0.6,1.3-1.4,1.6-2.2c0.3-1.2,0.4-2.4,0.4-3.6v-24.3c0.1-1.1-0.1-2.3-0.4-3.4
	c-0.3-0.6-1-1-1.6-1v-9.4l17.1-6.7l7.1,16.6l0.4,0.9l0.4,1l0.5,1c0.2,0.2,0.3,0.5,0.4,0.7c0,0.1,0.1,0.3,0.2,0.4v-9.5
	c0-1.2-0.1-2.4-0.4-3.5c-0.3-0.6-0.9-0.9-1.6-0.8V274l16.4-6.4v9.4c-0.7,0.6-1.3,1.4-1.6,2.3c-0.3,1.2-0.4,2.4-0.4,3.6v38.7
	l-15.1,5.9l-7.3-15.7c-0.1-0.1-0.1-0.2-0.1-0.3c0-0.1-0.1-0.2-0.2-0.3c-0.4-0.9-0.7-1.6-1-2.2s-0.5-1.2-0.7-1.6v9.3
	c-0.1,1.2,0.1,2.3,0.4,3.4c0.3,0.6,0.9,0.9,1.5,0.8v9.4l-16,6.3L339.2,327.3z"/>
<path class="st3" d="M380.6,310.8c0.7-0.6,1.3-1.4,1.6-2.3c0.3-1.2,0.4-2.4,0.4-3.6v-24.3c0.1-1.1,0-2.3-0.4-3.4
	c-0.3-0.6-1-0.9-1.6-0.9v-9.4l20.5-8.6l1.6-0.7c2.4-1.1,5-1.8,7.6-2.3c1.6-0.3,3.3,0.1,4.7,1c2.5,1.6,3.8,4.9,3.8,9.8v23
	c0,5-1.6,9.8-4.6,13.8c-1.3,1.6-2.8,3-4.5,4.2c-2.2,1.4-4.5,2.7-7,3.6l-1.6,0.7l-20.5,8.6L380.6,310.8z M398.2,301.1l0.8-0.3
	c0.8-0.3,1.6-0.7,2.4-1.2c0.6-0.4,1.1-0.8,1.4-1.4c0.3-0.6,0.6-1.4,0.7-2.1c0.1-1,0.2-2.1,0.2-3.1v-20c0-1.6-0.3-2.6-0.9-3
	s-1.7-0.2-3.3,0.4l-1,0.4l-0.2,0.1l-0.5,0.2v30.2L398.2,301.1z"/>
<path class="st3" d="M420.7,294c0.7-0.6,1.3-1.4,1.6-2.4c0.3-1.4,0.4-2.8,0.4-4.3v-22.7l-0.1-1.6c0.1-0.9-0.1-1.8-0.4-2.6
	c-0.4-0.5-0.9-0.8-1.6-0.8v-9.4l37.3-14.4v17.8l-14.4,5.6v-1.2c0-1.9-0.3-3.1-0.9-3.6c-0.6-0.6-1.7-0.6-3.2,0l-0.7,0.3l-0.7,0.3v9.1
	l9.8-3.8v10.5l-9.8,3.8v10.9l0.3-0.1l0.3-0.1c0.9-0.3,1.7-0.7,2.5-1.2c0.6-0.4,1.1-0.9,1.5-1.5c0.4-0.6,0.6-1.3,0.8-2
	c0.1-1,0.2-1.9,0.2-2.9V275l14.4-5.5V289l-37.3,14.4V294z"/>
<path class="st3" d="M459.5,279c0.7-0.6,1.3-1.3,1.7-2.2c0.3-1.2,0.4-2.4,0.4-3.6v-24.3c0.1-1.1-0.1-2.3-0.4-3.4c-0.3-0.6-1-1-1.7-1
	v-9.4l21.8-7.6l1.7-0.6c2.2-0.7,4.4-1.3,6.6-1.7c1.5-0.3,3-0.2,4.4,0.3c3.5,1.2,5.3,4.6,5.3,10.1c0,6.5-2.5,11.5-7.5,14.9
	c1-0.1,2.1,0,3.1,0.2c0.7,0.1,1.4,0.5,2,1c0.5,0.6,0.9,1.2,1.1,2c0.3,1.1,0.4,2.2,0.3,3.3v2.8c-0.1,1.3,0.1,2.6,0.4,3.8
	c0.3,0.6,0.9,1,1.6,1v9.4l-16.9,5.9c-0.3-1.5-0.6-3-0.7-4.5c-0.1-1.5-0.2-3.2-0.2-5.3v-3.4c0-0.3,0-0.5,0-0.8c0-0.2,0-0.4,0-0.6
	c0.1-1.2-0.1-2.4-0.5-3.5c-0.3-0.7-1-1.1-1.7-1.2c-0.4-0.1-0.8-0.1-1.1,0c-0.4,0.1-1.1,0.4-2.1,0.7v6.2c-0.1,1.1,0,2.2,0.3,3.3
	c0.3,0.6,0.9,1,1.6,1.1v9.4l-19.6,6.8L459.5,279z M477.1,251l0.8-0.3l1.1-0.4c1.3-0.4,2.4-1.2,3.2-2.4c0.7-1.4,1-3,0.9-4.5
	c0-2.1-0.3-3.4-1-3.9s-2.1-0.3-4.2,0.4l-0.8,0.3L477.1,251z"/>
<path class="st3" d="M502.1,238.7v-3c0-2.8,0.4-5.6,1.3-8.2c0.9-2.3,2.2-4.4,3.9-6.2c1.6-1.7,3.6-3.2,5.7-4.4
	c2.6-1.4,5.3-2.5,8.2-3.3c2.9-1,5.8-1.5,8.8-1.7c2.1-0.1,4.1,0.4,5.9,1.5c1.5,0.9,2.6,2.4,3.2,4c0.7,2.2,1.1,4.5,1,6.9v22.4
	c0,2.8-0.4,5.6-1.3,8.2c-0.9,2.3-2.2,4.5-3.9,6.3c-1.7,1.7-3.6,3.2-5.7,4.4c-2.6,1.4-5.3,2.5-8.2,3.3c-2.9,1-5.9,1.5-8.9,1.6
	c-2.1,0.1-4.1-0.5-5.9-1.6c-1.5-0.9-2.6-2.3-3.2-3.9c-0.7-2.2-1.1-4.6-1-6.9L502.1,238.7L502.1,238.7z M524.1,231v-1
	c0-1.2,0-2-0.1-2.5c0-0.5-0.1-0.9-0.2-1.4c-0.2-0.5-0.5-0.9-1-1.1c-0.5-0.2-1.1-0.2-1.7,0c-0.6,0.2-1.2,0.5-1.6,1
	c-0.5,0.5-0.8,1-1,1.7c-0.2,0.5-0.3,1-0.3,1.6c0,0.6-0.1,1.4-0.1,2.5v20.8c0,1.1,0,1.9,0.1,2.4c0,0.5,0.1,0.9,0.3,1.4
	c0.2,0.5,0.5,0.9,1,1.1c0.5,0.2,1.1,0.2,1.6,0c0.6-0.2,1.2-0.5,1.7-1c0.5-0.5,0.8-1.1,1-1.7c0.1-0.5,0.2-1,0.2-1.5
	c0-0.5,0.1-1.4,0.1-2.5V231L524.1,231z"/>
<path class="st4" d="M161,456.1c1.4-0.5,2.5-1.6,3.1-2.9c0.6-2,0.8-4.1,0.7-6.1v-43.4c0.1-2.1-0.1-4.2-0.7-6.3
	c-0.7-1.3-1.8-2.3-3.1-2.8v-16.9c13.2,0,26.4-0.8,39.6-2.4l8.1,36.4h0.3c2.9-12.9,5.8-25.8,8.7-38.8c12.9-2.1,25.7-4.9,38.6-8.1
	v16.9c-1.4,0.9-2.5,2.2-3.1,3.7c-0.6,2.1-0.8,4.2-0.7,6.4v43.4c0,1.2,0.1,2.4,0.2,3.7c0.1,0.8,0.3,1.5,0.6,2.3
	c0.2,0.6,0.6,1,1.1,1.4c0.6,0.4,1.2,0.6,1.9,0.8V460c-12,3-24.1,5.6-36.1,7.7v-16.8c1.4-0.8,2.4-2,3.1-3.5c0.5-2,0.8-4.1,0.6-6.2
	v-23.7l-0.3,0c-0.1,2.3-0.4,4.5-0.9,6.8c-0.5,2.6-1.2,6-2.3,10.2l-0.6,2.2c-2.7,10.8-5.5,21.6-8.3,32.3c-3.8,0.6-7.6,1.1-11.4,1.5
	c-3-10.7-6-21.3-9-32c-0.2-0.6-0.4-1.3-0.4-2c-0.2-1-0.5-2-0.7-2.9c-0.5-1.8-0.9-3.7-1.3-5.8s-0.7-3.9-0.9-5.6h-0.3V446
	c0,1.2,0,2.5,0.1,3.7c0.1,0.8,0.3,1.6,0.6,2.4c0.3,0.6,0.7,1.1,1.2,1.5c0.6,0.4,1.2,0.7,1.9,1v16.9c-10.1,1-20.3,1.5-30.5,1.5V456.1
	z"/>
<path class="st4" d="M314.9,347.1c4.6,20.9,9.1,41.7,13.7,62.5c0.4,2.4,1.2,4.8,2.2,7.1c0.6,1.2,1.7,2,3.1,2.2v16.9
	c-12.4,4.5-24.9,8.8-37.3,12.8v-16.9c2.2-2,3.3-4.1,3.3-6.2v-0.9c0-0.4-0.1-0.8-0.3-1.2c0-0.2-0.1-0.4-0.1-0.7
	c-4.8,1.5-9.5,3-14.3,4.5c-0.2,1-0.3,1.7-0.4,2c0,0.3-0.1,0.6-0.1,1c0,2.5,1.3,3.8,3.9,4V451c-10.9,3.4-21.9,6.4-32.9,9.2v-16.9
	c1.2-1.2,2.1-2.6,2.7-4.1c0.7-2.2,1.2-4.5,1.6-6.8c4.3-24,8.6-48,12.9-72.1C286.9,356.4,300.9,351.9,314.9,347.1z M296.8,406.7
	l-3-15.9c-0.2-1.3-0.3-2.2-0.4-2.6s-0.2-1.2-0.4-2.2c-0.2-1-0.4-2.1-0.5-3.1c-0.1-1.3-0.3-2.3-0.4-3l-0.3-1.5l-0.3,0.1
	c-0.2,2.2-0.4,4.4-0.6,6.7c-0.2,2.3-0.5,4.6-0.9,6.9c-0.8,5.9-1.5,11.7-2.3,17.6C290.7,408.6,293.7,407.7,296.8,406.7z"/>
<path class="st4" d="M333.3,419c1.4-1,2.5-2.4,3.1-4c0.6-2.1,0.8-4.2,0.7-6.4v-43.4c0-3-0.2-5-0.7-6c-0.5-1-1.5-1.5-3.1-1.7v-16.9
	c13.3-4.8,26.6-9.9,39.9-15l3.1-1.2c6.3-2.4,11.2-3.7,14.7-4.1c3.2-0.5,6.4,0.2,9.1,1.8c4.9,2.9,7.3,8.7,7.3,17.6v41.1
	c-0.2,9.7-3.1,18-8.9,24.8c-2.5,2.9-5.5,5.5-8.8,7.6c-4.3,2.6-8.8,4.8-13.5,6.6l-3.1,1.2c-13.3,5.1-26.6,10.2-39.9,15L333.3,419z
	 M367.6,402.1l1.6-0.6c1.6-0.6,3.2-1.3,4.6-2.1c1.1-0.6,2-1.5,2.7-2.6c0.7-1.1,1.1-2.4,1.3-3.7c0.3-1.8,0.4-3.7,0.4-5.5v-35.8
	c0-2.9-0.6-4.6-1.8-5.3s-3.3-0.4-6.4,0.8l-1.9,0.7l-0.4,0.2l-1,0.4v54L367.6,402.1z"/>
<path class="st4" d="M411.2,389.1c1.4-1.1,2.5-2.6,3.1-4.3c0.6-2.5,0.8-5.1,0.7-7.6v-40.6l-0.1-2.9c0-2.4-0.2-4-0.7-4.7
	s-1.5-1.2-3-1.4v-16.9c23.9-9.3,47.7-18.5,71.6-26.7v31.9c-9.2,3.2-18.4,6.5-27.6,9.9v-2.1c0-3.3-0.6-5.5-1.8-6.5
	c-1.2-1-3.2-0.9-6.1,0.1l-1.3,0.5l-1.4,0.5v16.3c6.3-2.4,12.6-4.7,18.9-7v18.7c-6.3,2.3-12.6,4.6-18.9,7v19.4l0.6-0.2l0.6-0.2
	c1.6-0.6,3.2-1.3,4.7-2.2c1.2-0.7,2.2-1.6,2.9-2.7c0.7-1.1,1.2-2.3,1.4-3.6c0.3-1.7,0.4-3.5,0.4-5.2v-4.3c9.2-3.4,18.4-6.7,27.6-9.9
	v34.9c-23.9,8.2-47.7,17.4-71.6,26.7L411.2,389.1z"/>
<path class="st4" d="M485.6,361.4c1.4-1,2.5-2.4,3.1-3.9c0.6-2.1,0.8-4.2,0.7-6.4v-43.4c0-3-0.2-5.1-0.7-6s-1.5-1.6-3.1-1.8V283
	c13.8-4.7,27.5-9,41.3-12.9c1.1-0.3,2.2-0.6,3.3-0.9c4.1-1.1,8.3-1.9,12.5-2.2c2.8-0.2,5.7,0.2,8.4,1.2c6.7,2.8,10,9.3,10,19.2
	c0,11.6-4.8,19.9-14.3,25.2c2,0,4,0.3,5.9,0.9c1.4,0.4,2.7,1.2,3.8,2.2c1,1.1,1.7,2.4,2.1,3.9c0.5,2,0.7,4,0.6,6v5
	c-0.1,2.3,0.1,4.6,0.7,6.9c0.5,1.2,1.7,2.1,3,2.2v16.9c-10.7,2.2-21.3,4.8-32,7.7c-0.7-2.7-1.1-5.4-1.4-8.1
	c-0.2-2.7-0.3-5.8-0.3-9.4v-6c0-0.5,0-0.9,0.1-1.4c0-0.4,0.1-0.7,0.1-1.1c0.1-2.2-0.2-4.3-0.9-6.4c-0.6-1.3-1.8-2.2-3.2-2.3
	c-0.7-0.2-1.4-0.2-2.2,0c-0.8,0.2-2.1,0.5-4,1.1v11.1c0,3,0.2,4.9,0.7,5.9c0.4,1,1.5,1.6,3.1,2v16.9c-12.4,3.5-24.8,7.5-37.1,11.7
	L485.6,361.4z M519,311.6l1.6-0.5l2.1-0.6c3-0.9,5-2.3,6.1-4s1.6-4.4,1.6-8c0-3.8-0.6-6.1-1.9-7c-1.3-0.9-3.9-0.8-7.9,0.4l-1.6,0.5
	L519,311.6z"/>
<path class="st4" d="M566.2,293.5v-5.3c-0.1-4.9,0.7-9.8,2.4-14.5c1.6-4,4.1-7.5,7.3-10.4c3.1-2.8,6.7-5,10.6-6.5
	c4.9-1.8,10.1-3,15.3-3.5c5.5-0.7,11.1-0.6,16.5,0.4c4.1,0.8,7.9,2.7,11.1,5.5c2.7,2.3,4.8,5.3,6,8.7c1.4,4.1,2,8.4,1.9,12.8v40.1
	c-0.1,5.8-0.9,10.5-2.4,14c-1.6,3.7-4.1,6.9-7.2,9.3c-3.2,2.4-6.8,4.2-10.6,5.3c-5,1.4-10.1,2.4-15.2,2.8
	c-5.5,0.7-11.1,0.8-16.6,0.3c-4-0.4-7.8-1.9-11.1-4.2c-2.7-1.8-4.8-4.5-6-7.6c-1.4-4-2-8.2-1.8-12.5L566.2,293.5L566.2,293.5z
	 M607.3,285.6v-1.9c0-2.1,0-3.6-0.1-4.6c-0.1-0.9-0.2-1.7-0.4-2.5c-0.3-1-1-1.8-1.9-2.2c-0.9-0.5-2-0.7-3.1-0.5
	c-1.1,0.1-2.2,0.5-3.1,1.2c-0.9,0.7-1.6,1.6-1.9,2.7c-0.3,0.9-0.5,1.8-0.6,2.7c-0.1,1-0.1,2.5-0.1,4.5v37.1c0,2,0,3.5,0.1,4.4
	c0.1,0.9,0.3,1.7,0.6,2.5c0.3,1,1,1.8,1.9,2.3c0.9,0.5,2,0.7,3.1,0.6c1.1-0.1,2.2-0.5,3.1-1.3c0.9-0.7,1.6-1.6,1.9-2.7
	c0.2-0.9,0.3-1.7,0.4-2.6c0.1-1,0.1-2.4,0.1-4.4V285.6z"/>
<path class="st4" d="M163.7,364c0.8-0.4,1.4-1,1.8-1.7c0.3-1.1,0.5-2.3,0.4-3.5v-24.3c0.1-1.2-0.1-2.4-0.4-3.5
	c-0.4-0.7-1-1.2-1.8-1.5v-9.4l22-1.8l4.5,20.5h0.2l4.9-21.3l21.5-1.8v9.4c-0.8,0.4-1.4,1-1.8,1.8c-0.3,1.1-0.5,2.3-0.4,3.5v24.3
	c0,0.7,0,1.4,0.1,2.1c0.1,0.5,0.2,0.9,0.4,1.3c0.1,0.3,0.4,0.6,0.6,0.9c0.3,0.2,0.6,0.4,1,0.6v9.4l-20.1,1.6v-9.4
	c0.8-0.4,1.4-1,1.7-1.8c0.3-1.1,0.4-2.3,0.4-3.4v-13.3h-0.2c-0.1,1.3-0.2,2.5-0.5,3.8c-0.3,1.4-0.7,3.3-1.3,5.6l-0.3,1.2l-4.6,17.7
	l-6.3,0.5l-5-18c-0.1-0.4-0.2-0.7-0.2-1.1l-0.4-1.6c-0.3-1-0.5-2.1-0.7-3.2s-0.4-2.2-0.5-3.1h-0.2v13.3c0,0.9,0,1.5,0.1,2.1
	c0,0.5,0.1,0.9,0.3,1.3c0.1,0.3,0.4,0.6,0.7,0.9c0.3,0.2,0.7,0.4,1.1,0.6v9.4l-17,1.4L163.7,364z"/>
<path class="st4" d="M218.1,358.8c0.8-0.5,1.4-1.2,1.7-2.1c0.3-1.4,0.5-2.8,0.4-4.2v-22.7l-0.1-1.7c0.1-0.9-0.1-1.8-0.4-2.7
	c-0.4-0.6-1-1-1.6-1.1V315l39.2-8v17.8l-15.1,3.1v-1.2c0-1.9-0.3-3.1-1-3.8s-1.8-0.8-3.3-0.5l-0.7,0.1l-0.8,0.2v9.1l10.3-2.1v10.5
	l-10.3,2.1v10.9l0.3-0.1l0.4-0.1c0.9-0.2,1.8-0.4,2.6-0.8c0.6-0.3,1.2-0.7,1.6-1.2c0.4-0.5,0.7-1.2,0.8-1.9c0.1-1,0.2-1.9,0.2-2.9
	v-2.4l15.1-3.1v19.5l-39.2,8L218.1,358.8z"/>
<path class="st4" d="M258.8,350.4c0.7-0.5,1.3-1.2,1.7-2.1c0.3-1.2,0.4-2.4,0.4-3.5v-24.3c0.1-1.2-0.1-2.3-0.4-3.4
	c-0.3-0.6-1-1.1-1.7-1.1v-9.4l22.2-6.2l1.8-0.5c2.2-0.6,4.5-1,6.7-1.3c1.5-0.2,3.1,0,4.5,0.5c3.6,1.4,5.4,4.9,5.4,10.5
	c0,6.5-2.6,11.3-7.7,14.5c1.1,0,2.2,0.1,3.2,0.4c0.8,0.2,1.4,0.6,2,1.1c0.6,0.6,0.9,1.3,1.1,2.1c0.3,1.1,0.4,2.2,0.4,3.3v2.8
	c-0.1,1.3,0.1,2.6,0.4,3.8c0.3,0.7,0.9,1.1,1.6,1.1v9.4l-17.2,4.8c-0.4-1.5-0.6-3-0.7-4.5c-0.1-1.5-0.2-3.2-0.2-5.3v-3.4
	c0-0.3,0-0.5,0-0.8c0-0.2,0-0.4,0-0.6c0.1-1.2-0.1-2.4-0.5-3.6c-0.3-0.7-1-1.2-1.7-1.3c-0.4-0.1-0.8-0.1-1.1,0
	c-0.4,0.1-1.1,0.3-2.2,0.6v6.2c-0.1,1.1,0.1,2.2,0.4,3.3c0.3,0.6,0.9,1.1,1.6,1.2v9.4l-20,5.6L258.8,350.4z M276.8,323.5l0.9-0.2
	l1.1-0.3c1.3-0.3,2.5-1.1,3.3-2.2c0.7-1.4,1-2.9,0.9-4.5c0-2.1-0.4-3.5-1-4s-2.1-0.4-4.3,0.2l-0.9,0.2L276.8,323.5z"/>
<path class="st4" d="M301.4,338.4c0.8-0.6,1.3-1.4,1.7-2.3c0.3-1.4,0.4-2.8,0.4-4.2v-22.7l-0.1-1.6c0.1-0.9-0.1-1.8-0.4-2.7
	c-0.4-0.5-0.9-0.9-1.6-0.9v-9.4l37.9-12.9v17.8l-14.6,5v-1.2c0-1.9-0.3-3.1-0.9-3.7s-1.7-0.6-3.2-0.1l-0.7,0.2l-0.8,0.3v9.1l10-3.4
	v10.5l-10,3.4v10.9l0.3-0.1l0.3-0.1c0.9-0.3,1.7-0.6,2.5-1.1c0.6-0.3,1.1-0.8,1.5-1.4c0.4-0.6,0.7-1.3,0.8-2c0.1-1,0.2-1.9,0.2-2.9
	v-2.4l14.6-5v19.5l-37.9,12.9V338.4z"/>
<path class="st4" d="M340.8,325c0.7-0.6,1.3-1.4,1.6-2.2c0.3-1.2,0.4-2.4,0.4-3.6v-24.3c0.1-1.1,0-2.3-0.4-3.4c-0.3-0.6-1-1-1.6-1
	v-9.4l17.1-6.7L365,291l0.4,0.9l0.5,1l0.4,1c0.2,0.2,0.3,0.5,0.4,0.7c0,0.1,0.1,0.3,0.2,0.4v-9.5c0-1.2-0.1-2.4-0.5-3.5
	c-0.3-0.6-0.9-0.9-1.6-0.8v-9.4l16.4-6.4v9.4c-0.7,0.6-1.3,1.4-1.6,2.3c-0.3,1.2-0.4,2.4-0.4,3.6v38.7l-15.1,5.9l-7.3-15.7
	c-0.1-0.1-0.1-0.2-0.1-0.3c0-0.1-0.1-0.2-0.2-0.3c-0.4-0.9-0.8-1.6-1-2.2s-0.5-1.2-0.7-1.6v9.3c-0.1,1.2,0.1,2.3,0.4,3.4
	c0.3,0.6,0.9,0.9,1.5,0.8v9.4l-16,6.3L340.8,325z"/>
<path class="st4" d="M382.2,308.4c0.7-0.6,1.3-1.4,1.6-2.3c0.3-1.2,0.4-2.4,0.4-3.6v-24.3c0.1-1.1,0-2.3-0.4-3.4
	c-0.3-0.6-1-0.9-1.6-0.9v-9.4l20.5-8.6l1.6-0.7c2.4-1.1,5-1.8,7.6-2.3c1.6-0.2,3.3,0.1,4.7,1c2.5,1.6,3.8,4.9,3.8,9.8v23
	c0,5-1.6,9.8-4.6,13.8c-1.3,1.6-2.8,3-4.5,4.2c-2.2,1.4-4.5,2.7-7,3.6l-1.6,0.7l-20.5,8.6L382.2,308.4z M399.9,298.8l0.8-0.3
	c0.8-0.3,1.6-0.7,2.4-1.2c0.6-0.4,1.1-0.8,1.4-1.4c0.3-0.6,0.6-1.3,0.7-2.1c0.1-1,0.2-2.1,0.2-3.1v-20c0-1.6-0.3-2.6-0.9-3
	s-1.7-0.3-3.3,0.4l-1,0.4l-0.2,0.1l-0.5,0.2V299L399.9,298.8z"/>
<path class="st4" d="M422.3,291.6c0.8-0.6,1.3-1.4,1.6-2.4c0.3-1.4,0.4-2.8,0.4-4.3v-22.7l-0.1-1.6c0.1-0.9-0.1-1.8-0.4-2.6
	c-0.4-0.5-0.9-0.8-1.6-0.8v-9.4l37.3-14.4v17.8l-14.4,5.6v-1.2c0-1.9-0.3-3.1-0.9-3.6s-1.7-0.6-3.2,0l-0.7,0.3l-0.7,0.3v9.1l9.8-3.8
	v10.5l-9.8,3.8v10.9l0.3-0.1l0.3-0.1c0.9-0.3,1.7-0.7,2.5-1.2c0.6-0.4,1.1-0.9,1.5-1.5c0.4-0.6,0.6-1.3,0.7-2c0.1-1,0.2-1.9,0.2-2.9
	v-2.4l14.4-5.6v19.5L422.3,301V291.6z"/>
<path class="st4" d="M461.1,276.6c0.7-0.6,1.3-1.3,1.7-2.2c0.3-1.2,0.4-2.4,0.4-3.6v-24.3c0.1-1.1-0.1-2.3-0.4-3.4
	c-0.3-0.6-1-1-1.7-1v-9.4l21.8-7.6l1.7-0.6c2.1-0.7,4.4-1.3,6.6-1.7c1.5-0.3,3-0.2,4.4,0.3c3.5,1.2,5.3,4.6,5.3,10.1
	c0,6.5-2.5,11.5-7.5,14.9c1-0.1,2.1,0,3.1,0.2c0.7,0.1,1.4,0.5,2,1c0.5,0.6,0.9,1.3,1.1,2.1c0.3,1.1,0.4,2.2,0.3,3.3v2.8
	c-0.1,1.3,0.1,2.5,0.4,3.8c0.2,0.7,0.9,1.1,1.6,1v9.4l-16.9,5.9c-0.3-1.5-0.6-3-0.7-4.5c-0.1-1.5-0.2-3.2-0.2-5.3v-3.4
	c0-0.3,0-0.5,0-0.8c0-0.2,0-0.4,0-0.6c0.1-1.2-0.1-2.4-0.5-3.5c-0.3-0.7-1-1.1-1.7-1.2c-0.4-0.1-0.8-0.1-1.1,0
	c-0.4,0.1-1.1,0.4-2.1,0.7v6.2c-0.1,1.1,0,2.2,0.3,3.3c0.3,0.6,0.9,1,1.6,1.1v9.4l-19.5,6.8V276.6z M478.8,248.6l0.8-0.3l1.1-0.4
	c1.3-0.4,2.4-1.2,3.2-2.4c0.7-1.4,1-3,0.9-4.5c0-2.1-0.3-3.4-1-3.9s-2.1-0.3-4.2,0.4l-0.8,0.3L478.8,248.6z"/>
<path class="st4" d="M503.7,236.3v-3c0-2.8,0.4-5.6,1.3-8.2c0.9-2.3,2.2-4.4,3.9-6.2c1.6-1.8,3.6-3.2,5.7-4.4
	c2.6-1.4,5.3-2.5,8.2-3.3c2.9-0.9,5.8-1.5,8.8-1.6c2.1-0.1,4.2,0.4,5.9,1.5c1.5,0.9,2.6,2.4,3.2,4c0.8,2.2,1.1,4.5,1,6.9v22.4
	c0,2.8-0.4,5.6-1.3,8.2c-0.9,2.3-2.2,4.5-3.9,6.3c-1.7,1.7-3.6,3.2-5.7,4.4c-2.6,1.4-5.3,2.5-8.2,3.3c-2.9,1-5.9,1.5-8.9,1.6
	c-2.1,0.1-4.2-0.5-5.9-1.6c-1.5-0.9-2.6-2.3-3.2-3.9c-0.7-2.2-1.1-4.6-1-6.9V236.3z M525.7,228.7v-1c0-1.2,0-2-0.1-2.5
	c0-0.5-0.1-0.9-0.2-1.4c-0.2-0.5-0.5-0.9-1-1.1c-0.5-0.2-1.1-0.2-1.6,0c-0.6,0.2-1.2,0.5-1.7,1c-0.5,0.5-0.8,1-1,1.7
	c-0.2,0.5-0.3,1-0.3,1.6c-0.1,0.6-0.1,1.4-0.1,2.5v20.8c0,0.8,0,1.6,0.1,2.4c0,0.4,0.1,0.9,0.2,1.3c0.2,0.5,0.5,0.9,1,1.1
	c0.5,0.2,1.1,0.2,1.7,0c0.6-0.2,1.2-0.5,1.6-1c0.5-0.5,0.8-1.1,1-1.7c0.1-0.5,0.2-1,0.2-1.5c0-0.6,0.1-1.4,0.1-2.5L525.7,228.7
	L525.7,228.7z"/>
<path class="st0" d="M153.6,450.4c1.4-0.5,2.5-1.6,3.1-2.9c0.6-2,0.8-4.1,0.7-6.1V398c0.1-2.1-0.1-4.2-0.7-6.3
	c-0.7-1.3-1.8-2.3-3.1-2.8V372c13.2,0,26.4-0.8,39.6-2.4c2.7,12.2,5.4,24.3,8.1,36.4h0.3c2.9-12.9,5.8-25.8,8.7-38.8
	c12.9-2.1,25.7-4.9,38.6-8.1v16.8c-1.4,0.9-2.5,2.2-3.1,3.7c-0.6,2.1-0.8,4.2-0.7,6.4v43.4c0,1.2,0.1,2.4,0.2,3.7
	c0.1,0.8,0.3,1.5,0.6,2.3c0.2,0.6,0.6,1,1.1,1.4c0.6,0.4,1.2,0.6,1.9,0.8v16.9c-12,3-24.1,5.6-36.1,7.7v-16.8c1.3-0.8,2.4-2,3.1-3.5
	c0.5-2,0.7-4.1,0.6-6.2v-23.7h-0.3c-0.1,2.3-0.4,4.5-0.9,6.8c-0.5,2.6-1.2,6-2.3,10.2l-0.6,2.2c-2.7,10.8-5.5,21.6-8.3,32.3
	c-3.8,0.6-7.6,1.1-11.4,1.5c-3-10.7-6-21.3-9-32c-0.2-0.6-0.4-1.3-0.4-2c-0.2-1-0.5-2-0.7-2.9c-0.5-1.8-0.9-3.7-1.3-5.8
	s-0.7-3.9-0.9-5.6h-0.3v23.7c0,1.2,0,2.5,0.1,3.7c0.1,0.8,0.3,1.6,0.6,2.4c0.3,0.6,0.7,1.1,1.2,1.5c0.6,0.4,1.2,0.7,1.9,1v16.9
	c-10.2,1-20.4,1.5-30.6,1.5L153.6,450.4z"/>
<path class="st0" d="M307.5,341.4c4.6,20.9,9.1,41.7,13.7,62.5c0.4,2.4,1.2,4.8,2.2,7.1c0.6,1.2,1.7,2,3.1,2.2V430
	c-12.4,4.5-24.9,8.8-37.3,12.8v-16.9c2.2-2,3.3-4.1,3.3-6.2v-0.9c0-0.4-0.1-0.8-0.3-1.2c0-0.2-0.1-0.5-0.1-0.7
	c-4.8,1.5-9.5,3-14.3,4.5c-0.2,1-0.3,1.7-0.4,2c0,0.3-0.1,0.6-0.1,1c0,2.5,1.3,3.8,3.9,4v16.9c-11,3.4-21.9,6.5-32.9,9.2v-16.9
	c1.2-1.2,2.1-2.6,2.7-4.1c0.7-2.2,1.2-4.5,1.6-6.8c4.3-24,8.6-48,12.8-72.1C279.5,350.7,293.5,346.2,307.5,341.4z M289.3,401
	l-3-15.9c-0.2-1.3-0.3-2.2-0.4-2.6s-0.2-1.2-0.4-2.2c-0.2-1-0.4-2.1-0.5-3.1c-0.1-1.3-0.3-2.3-0.4-3l-0.3-1.5l-0.3,0.1
	c-0.2,2.2-0.4,4.4-0.6,6.7s-0.5,4.6-0.9,6.9l-2.3,17.6C283.2,402.9,286.3,402,289.3,401z"/>
<path class="st0" d="M325.9,413.3c1.4-1,2.5-2.4,3.1-4c0.6-2.1,0.8-4.2,0.7-6.4v-43.4c0-3-0.2-5-0.7-6s-1.5-1.5-3.1-1.7v-16.9
	c13.3-4.8,26.6-9.9,39.9-15l3.1-1.2c6.3-2.3,11.2-3.7,14.7-4.1c3.2-0.5,6.4,0.2,9.1,1.8c4.9,2.9,7.3,8.7,7.3,17.6V375
	c-0.2,9.7-3.1,18-8.9,24.8c-2.5,2.9-5.5,5.5-8.8,7.6c-4.3,2.6-8.8,4.8-13.5,6.6l-3.1,1.2c-13.3,5.1-26.6,10.2-39.9,15L325.9,413.3z
	 M360.2,396.5l1.6-0.6c1.6-0.6,3.2-1.3,4.6-2.1c1.1-0.6,2-1.5,2.7-2.6c0.7-1.1,1.1-2.4,1.3-3.7c0.3-1.8,0.4-3.7,0.4-5.5v-35.8
	c0-2.9-0.6-4.6-1.8-5.3c-1.2-0.7-3.3-0.4-6.4,0.8l-1.9,0.7l-0.4,0.2l-1,0.4v54L360.2,396.5z"/>
<path class="st0" d="M403.8,383.4c1.4-1.1,2.5-2.6,3.1-4.3c0.6-2.5,0.8-5.1,0.7-7.6v-40.6c0-1-0.1-2-0.1-3c0-2.4-0.2-4-0.7-4.7
	c-0.7-0.9-1.8-1.4-3-1.4V305c23.9-9.3,47.7-18.5,71.6-26.7v31.9c-9.2,3.2-18.4,6.5-27.6,9.9v-2.1c0-3.3-0.6-5.5-1.8-6.5
	c-1.2-1-3.2-0.9-6.1,0.1l-1.3,0.5l-1.4,0.5v16.3c6.3-2.4,12.6-4.7,18.9-7v18.7c-6.3,2.3-12.6,4.6-18.9,7V367l0.6-0.2l0.6-0.2
	c1.6-0.6,3.2-1.3,4.7-2.2c1.2-0.7,2.2-1.6,2.9-2.7c0.7-1.1,1.2-2.3,1.4-3.6c0.3-1.7,0.4-3.5,0.4-5.2v-4.3c9.2-3.4,18.4-6.7,27.6-9.9
	v34.9c-23.9,8.2-47.7,17.4-71.6,26.7L403.8,383.4z"/>
<path class="st0" d="M478.2,355.7c1.4-1,2.5-2.4,3.1-3.9c0.6-2.1,0.8-4.2,0.7-6.4V302c0-3.1-0.2-5.1-0.7-6c-0.5-1-1.5-1.6-3.1-1.8
	v-16.9c13.8-4.7,27.5-9,41.3-12.9l3.3-0.9c4.1-1.1,8.3-1.9,12.5-2.2c2.8-0.2,5.7,0.2,8.4,1.2c6.7,2.8,10,9.3,10,19.2
	c0,11.6-4.8,19.9-14.3,25.2c2,0,4,0.3,5.9,0.9c1.4,0.4,2.7,1.2,3.8,2.2c1,1.1,1.7,2.4,2.1,3.9c0.5,2,0.7,4,0.6,6v5
	c0,3.3,0.2,5.6,0.7,6.9c0.5,1.3,1.7,2.1,3,2.2v16.9c-10.7,2.2-21.3,4.8-32,7.7c-0.7-2.7-1.1-5.4-1.4-8.1c-0.2-2.7-0.4-5.8-0.4-9.4
	v-6c0-0.5,0-0.9,0.1-1.4c0-0.4,0.1-0.7,0.1-1.1c0.1-2.2-0.2-4.3-0.9-6.4c-0.6-1.3-1.8-2.2-3.2-2.3c-0.7-0.2-1.4-0.2-2.1,0
	c-0.8,0.2-2.1,0.5-4,1.1v11.1c0,3,0.2,4.9,0.6,5.9c0.4,1,1.5,1.6,3.1,2v16.9c-12.4,3.5-24.8,7.5-37.1,11.7L478.2,355.7z
	 M511.6,305.9l1.6-0.5l2.1-0.6c3-0.9,5-2.3,6.1-4s1.6-4.4,1.6-8c0-3.8-0.7-6.2-1.9-7s-3.9-0.8-7.9,0.4l-1.6,0.5L511.6,305.9z"/>
<path class="st0" d="M558.8,287.8v-5.3c-0.1-4.9,0.7-9.8,2.4-14.5c1.6-4,4.1-7.5,7.4-10.4c3.1-2.8,6.7-5,10.6-6.5
	c4.9-1.8,10.1-3,15.3-3.5c5.5-0.7,11.1-0.6,16.5,0.4c4.1,0.8,7.9,2.7,11.1,5.4c2.7,2.3,4.8,5.3,6,8.7c1.4,4.1,2,8.5,1.9,12.8v40.1
	c-0.1,5.8-0.9,10.5-2.4,14c-1.6,3.7-4.1,6.9-7.2,9.3c-3.2,2.4-6.8,4.2-10.6,5.3c-5,1.4-10.1,2.3-15.2,2.8
	c-5.5,0.7-11.1,0.8-16.7,0.3c-4-0.4-7.8-1.9-11.1-4.2c-2.7-1.8-4.8-4.5-6-7.6c-1.4-4-2-8.3-1.9-12.5L558.8,287.8L558.8,287.8z
	 M599.9,279.9V278c0-2.1,0-3.6-0.1-4.5c-0.1-0.9-0.2-1.7-0.4-2.5c-0.3-1-1-1.8-1.9-2.2c-0.9-0.5-2-0.7-3.1-0.5
	c-1.1,0.1-2.2,0.5-3.1,1.2c-0.9,0.7-1.6,1.6-1.9,2.7c-0.3,0.9-0.5,1.8-0.6,2.7c-0.1,1-0.1,2.5-0.1,4.5v37.1c0,2,0,3.5,0.1,4.4
	c0.1,0.9,0.3,1.7,0.6,2.5c0.3,1,1,1.8,1.9,2.3c0.9,0.5,2,0.7,3.1,0.6c1.1-0.1,2.2-0.6,3.1-1.3c0.9-0.7,1.6-1.6,1.9-2.7
	c0.2-0.9,0.3-1.7,0.4-2.6c0.1-1,0.1-2.4,0.1-4.4V279.9z"/>
<path class="st0" d="M156.3,358.3c0.8-0.4,1.4-1,1.8-1.8c0.3-1.1,0.5-2.3,0.4-3.5v-24.3c0.1-1.2-0.1-2.4-0.4-3.5
	c-0.4-0.7-1-1.2-1.8-1.5v-9.4l22-1.8l4.5,20.5h0.2l4.9-21.3l21.5-1.8v9.4c-0.8,0.4-1.4,1-1.8,1.8c-0.3,1.1-0.5,2.3-0.4,3.5v24.3
	c0,0.7,0,1.4,0.1,2.1c0.1,0.5,0.2,0.9,0.4,1.3c0.1,0.3,0.4,0.6,0.6,0.9c0.3,0.2,0.6,0.4,1,0.6v9.4l-20.1,1.6v-9.4
	c0.8-0.4,1.4-1,1.7-1.8c0.3-1.1,0.4-2.3,0.4-3.4v-13.3h-0.1c-0.1,1.3-0.2,2.5-0.5,3.8c-0.3,1.4-0.7,3.3-1.3,5.6l-0.3,1.2l-4.6,17.7
	l-6.4,0.5l-5-18c-0.1-0.4-0.2-0.7-0.2-1.1l-0.4-1.6c-0.3-1-0.5-2.1-0.7-3.2s-0.4-2.2-0.5-3.1h-0.1V352c0,0.7,0,1.4,0.1,2.1
	c0,0.5,0.1,0.9,0.3,1.3c0.1,0.3,0.4,0.6,0.7,0.9c0.3,0.2,0.7,0.4,1.1,0.6v9.4l-17,1.4L156.3,358.3z"/>
<path class="st0" d="M210.6,353.1c0.8-0.5,1.4-1.2,1.7-2.1c0.3-1.4,0.5-2.8,0.4-4.2v-22.7l-0.1-1.7c0.1-0.9-0.1-1.8-0.4-2.7
	c-0.4-0.6-1-1-1.6-1.1v-9.4l39.2-8v17.8l-15.1,3.1V321c0-1.9-0.3-3.1-1-3.8s-1.8-0.8-3.3-0.5l-0.7,0.1l-0.8,0.2v9l10.3-2.1v10.5
	l-10.3,2.1v10.9l0.3-0.1l0.3-0.1c0.9-0.2,1.7-0.4,2.6-0.8c0.6-0.3,1.2-0.7,1.6-1.2c0.4-0.6,0.7-1.2,0.8-1.9c0.1-1,0.2-1.9,0.2-2.9
	v-2.4l15.1-3.1v19.5l-39.2,8V353.1z"/>
<path class="st0" d="M251.4,344.7c0.7-0.5,1.3-1.2,1.7-2.1c0.3-1.2,0.4-2.3,0.4-3.5v-24.3c0.1-1.2-0.1-2.3-0.4-3.4
	c-0.3-0.6-1-1-1.7-1.1v-9.4l22.2-6.2l1.8-0.5c2.2-0.6,4.5-1,6.7-1.3c1.5-0.2,3.1,0,4.5,0.5c3.6,1.4,5.4,4.9,5.4,10.5
	c0,6.5-2.6,11.3-7.7,14.5c1.1,0,2.1,0.1,3.2,0.4c0.8,0.2,1.4,0.6,2,1.1c0.6,0.6,0.9,1.3,1.1,2.1c0.3,1.1,0.4,2.2,0.4,3.3v2.8
	c-0.1,1.3,0.1,2.6,0.4,3.8c0.3,0.7,0.9,1.1,1.6,1.1v9.4l-17.2,4.8c-0.3-1.5-0.6-3-0.7-4.5c-0.1-1.5-0.2-3.2-0.2-5.3v-3.4
	c0-0.3,0-0.5,0-0.8c0-0.3,0-0.5,0-0.6c0.1-1.2-0.1-2.4-0.5-3.6c-0.6-1-1.7-1.6-2.9-1.4c-0.4,0.1-1.1,0.3-2.1,0.6v6.2
	c-0.1,1.1,0,2.2,0.3,3.3c0.3,0.6,1,1.1,1.7,1.2v9.4l-20,5.6L251.4,344.7z M269.4,317.8l0.8-0.2l1.2-0.3c1.3-0.3,2.5-1.1,3.3-2.2
	c0.7-1.4,1-2.9,0.9-4.5c0-2.1-0.4-3.5-1-4s-2.1-0.4-4.3,0.2l-0.8,0.2L269.4,317.8z"/>
<path class="st0" d="M294,332.7c0.8-0.6,1.3-1.4,1.7-2.3c0.3-1.4,0.4-2.8,0.4-4.2v-22.7l-0.1-1.6c0.1-0.9-0.1-1.8-0.4-2.7
	c-0.4-0.5-1-0.9-1.6-0.9v-9.4l37.9-12.8v17.8l-14.6,5v-1.2c0-1.9-0.3-3.1-1-3.7s-1.7-0.6-3.2-0.1l-0.7,0.2l-0.8,0.3v9.1l10-3.4v10.5
	l-10,3.4v10.9l0.3-0.1l0.3-0.1c0.9-0.3,1.7-0.6,2.5-1.1c0.6-0.3,1.1-0.8,1.5-1.4c0.4-0.6,0.7-1.3,0.8-2c0.1-1,0.2-1.9,0.2-2.9v-2.4
	l14.6-5v19.5L294,342.1V332.7z"/>
<path class="st0" d="M333.4,319.3c0.7-0.6,1.3-1.4,1.6-2.3c0.3-1.2,0.4-2.4,0.4-3.6v-24.3c0.1-1.1-0.1-2.3-0.4-3.4
	c-0.3-0.6-1-1-1.6-1v-9.4l17.1-6.7l7.1,16.6l0.4,0.9l0.4,1l0.5,1c0.2,0.2,0.3,0.5,0.4,0.7c0,0.1,0.1,0.3,0.2,0.4v-9.5
	c0-1.2-0.1-2.4-0.4-3.5c-0.3-0.6-0.9-0.9-1.6-0.8V266l16.4-6.4v9.4c-0.7,0.6-1.3,1.4-1.6,2.3c-0.3,1.2-0.4,2.4-0.4,3.6v38.7
	l-15.1,5.9l-7.3-15.7c-0.1-0.1-0.1-0.2-0.1-0.3c0-0.1-0.1-0.2-0.2-0.3c-0.4-0.9-0.7-1.6-1-2.2s-0.5-1.2-0.7-1.6v9.3
	c-0.1,1.2,0.1,2.3,0.4,3.4c0.3,0.6,0.9,0.9,1.5,0.8v9.4l-16,6.3L333.4,319.3z"/>
<path class="st0" d="M374.8,302.7c0.7-0.6,1.3-1.4,1.6-2.3c0.3-1.2,0.4-2.4,0.4-3.6v-24.3c0.1-1.1-0.1-2.3-0.4-3.4
	c-0.3-0.6-1-0.9-1.6-0.9v-9.4l20.5-8.6l1.6-0.7c2.4-1.1,5-1.8,7.6-2.3c1.6-0.3,3.3,0.1,4.7,1c2.5,1.6,3.8,4.9,3.8,9.8v23
	c0,5-1.6,9.9-4.6,13.8c-1.3,1.6-2.8,3-4.5,4.2c-2.2,1.4-4.5,2.7-7,3.6l-1.6,0.7l-20.5,8.6L374.8,302.7z M392.4,293.1l0.8-0.3
	c0.8-0.3,1.6-0.7,2.4-1.2c0.6-0.4,1.1-0.8,1.4-1.4c0.3-0.6,0.6-1.4,0.7-2.1c0.1-1,0.2-2,0.2-3.1v-20c0-1.6-0.3-2.6-0.9-3
	s-1.7-0.2-3.3,0.4l-1,0.4l-0.2,0.1l-0.5,0.2v30.2L392.4,293.1z"/>
<path class="st0" d="M414.9,285.9c0.8-0.6,1.3-1.4,1.6-2.4c0.3-1.4,0.4-2.8,0.4-4.3v-22.7l-0.1-1.6c0.1-0.9-0.1-1.8-0.4-2.6
	c-0.4-0.5-0.9-0.8-1.6-0.8v-9.4l37.3-14.4v17.8l-14.4,5.5v-1.2c0-1.9-0.3-3.1-0.9-3.6s-1.7-0.6-3.2,0l-0.7,0.3l-0.8,0.3v9.1l9.8-3.8
	v10.5l-9.8,3.8v10.9l0.3-0.1l0.3-0.1c0.9-0.3,1.7-0.7,2.5-1.2c0.6-0.4,1.1-0.9,1.5-1.5c0.4-0.6,0.6-1.3,0.8-2c0.1-1,0.2-1.9,0.2-2.9
	V267l14.4-5.6v19.5l-37.3,14.4L414.9,285.9z"/>
<path class="st0" d="M453.7,270.9c0.7-0.6,1.3-1.3,1.7-2.2c0.3-1.2,0.4-2.4,0.4-3.6v-24.3c0.1-1.1-0.1-2.3-0.4-3.4
	c-0.3-0.6-1-1-1.7-1V227l21.8-7.6l1.7-0.6c2.2-0.7,4.4-1.3,6.6-1.7c1.5-0.3,3-0.2,4.4,0.3c3.5,1.2,5.3,4.6,5.3,10.1
	c0,6.5-2.5,11.5-7.5,14.9c1-0.1,2.1,0,3.1,0.2c0.7,0.1,1.4,0.5,2,1c0.5,0.6,0.9,1.2,1.1,2c0.2,1.1,0.4,2.2,0.3,3.3v2.8
	c-0.1,1.3,0.1,2.6,0.4,3.8c0.3,0.6,0.9,1,1.6,1v9.4l-16.9,6.1c-0.3-1.5-0.6-3-0.7-4.5c-0.1-1.5-0.2-3.2-0.2-5.3v-3.4
	c0-0.3,0-0.5,0-0.8c0-0.3,0-0.5,0-0.6c0.1-1.2-0.1-2.4-0.5-3.6c-0.3-0.7-0.9-1.1-1.7-1.2c-0.4-0.1-0.8-0.1-1.1,0
	c-0.4,0.1-1.1,0.4-2.1,0.7v6.2c-0.1,1.1,0.1,2.2,0.3,3.3c0.3,0.6,0.9,1,1.6,1.1v9.4l-19.6,6.8L453.7,270.9z M471.3,242.9l0.8-0.3
	l1.1-0.4c1.3-0.4,2.4-1.2,3.2-2.4c0.7-1.4,1-3,0.9-4.5c0-2.1-0.3-3.4-1-3.9c-0.7-0.5-2.1-0.3-4.2,0.4l-0.8,0.3L471.3,242.9z"/>
<path class="st0" d="M496.3,230.6v-3c0-2.8,0.4-5.6,1.3-8.2c0.9-2.3,2.2-4.4,3.9-6.2c1.6-1.7,3.6-3.2,5.7-4.4
	c2.6-1.4,5.3-2.5,8.2-3.3c2.9-1,5.8-1.5,8.8-1.7c2.1-0.1,4.1,0.4,5.9,1.5c1.5,0.9,2.6,2.4,3.2,4c0.7,2.2,1.1,4.5,1,6.9v22.4
	c0,2.8-0.4,5.6-1.3,8.2c-0.9,2.3-2.2,4.5-3.9,6.3c-1.7,1.7-3.6,3.2-5.7,4.4c-2.6,1.4-5.3,2.5-8.2,3.3c-2.9,1-5.9,1.5-8.9,1.6
	c-2.1,0.1-4.1-0.5-5.9-1.6c-1.5-0.9-2.6-2.3-3.2-3.9c-0.7-2.2-1.1-4.6-1-6.9L496.3,230.6L496.3,230.6z M518.3,223v-1
	c0-1.2,0-2-0.1-2.5c0-0.5-0.1-1-0.2-1.4c-0.2-0.5-0.5-0.9-1-1.1c-0.5-0.2-1.1-0.2-1.7,0c-0.6,0.2-1.2,0.5-1.6,1
	c-0.5,0.5-0.8,1-1,1.7c-0.2,0.5-0.3,1-0.3,1.6c0,0.6-0.1,1.4-0.1,2.5v20.8c0,1.1,0,1.9,0.1,2.4c0,0.5,0.1,0.9,0.3,1.4
	c0.2,0.5,0.5,0.9,1,1.1c0.5,0.2,1.1,0.2,1.6,0c0.6-0.2,1.2-0.5,1.7-1c0.5-0.5,0.8-1.1,1-1.7c0.1-0.5,0.2-1,0.2-1.5
	c0-0.5,0.1-1.4,0.1-2.5L518.3,223L518.3,223z"/>
<polygon class="st5" points="304.6,162.9 312.4,170.6 323.2,168.6 318.2,178.4 323.5,188 312.7,186.3 305.2,194.3 303.4,183.5 
	293.5,178.8 303.2,173.8 "/>
<polygon class="st5" points="281.2,193.4 285.5,197.6 291.5,196.5 288.8,201.9 291.7,207.2 285.7,206.3 281.5,210.7 280.6,204.7 
	275.1,202.1 280.5,199.4 "/>
<polygon class="st5" points="341.2,167.7 345.5,172 351.4,170.9 348.7,176.3 351.6,181.6 345.6,180.7 341.5,185.1 340.5,179.1 
	335,176.5 340.4,173.7 "/>
<g class="st6">
	<path class="st1" d="M218.5,442.5c0.6-2.2,0.8-4.4,0.7-6.7v-23.7c0-0.8-0.7-1.5-1.5-1.5c0,0,0,0,0,0h-0.2c0.1,0.2,0.2,0.5,0.2,0.7
		V435c0.1,2.3-0.1,4.5-0.7,6.7c-0.6,1.5-1.7,2.8-3,3.7v14.3l1.5-0.3v-13.3C216.8,445.3,217.9,444,218.5,442.5z"/>
	<path class="st1" d="M317.1,292.3L317.1,292.3c1,1.1,1.5,2.5,1.4,3.9l1.4-0.5c-0.1-1-0.6-2-1.3-2.7
		C318.1,292.7,317.6,292.4,317.1,292.3z"/>
	<path class="st1" d="M296.7,333.6c0.7-0.7,1.3-1.5,1.6-2.5c0.4-1.5,0.5-3.1,0.5-4.7v-22.7l-0.1-1.7c0.1-1.1-0.1-2.3-0.6-3.3
		c-0.3-0.6-0.8-1-1.4-1.3v-7.3l33.4-11.4v-1.3l-34.9,11.9v7.3c0.6,0.3,1.1,0.7,1.4,1.3c0.5,1,0.7,2.2,0.6,3.3l0.1,1.7v22.7
		c0.1,1.6-0.1,3.2-0.5,4.7c-0.3,0.9-0.9,1.8-1.6,2.5v6.7l1.5-0.5L296.7,333.6z"/>
	<path class="st1" d="M295.2,420v-0.9c0-0.6-0.1-1.1-0.4-1.6l-0.1-0.5c-0.1-0.4-0.3-0.8-0.7-1c-0.2-0.1-0.5-0.2-0.8-0.2
		c-0.1,0-0.1,0-0.2,0c0.1,0.1,0.1,0.3,0.2,0.4l0.1,0.5c0.2,0.5,0.3,1.1,0.4,1.6v0.9c0,2.4-1.1,4.6-3.3,6.8v14.2l1.5-0.5v-12.9
		C294.1,424.6,295.2,422.3,295.2,420z"/>
	<path class="st1" d="M277.6,337.8v-3.4c0-0.2,0-0.4,0-0.6c0-0.3,0-0.6,0-0.8c0.1-1.4-0.1-2.8-0.6-4.2c-0.5-1.1-1.4-1.8-2.5-2.1
		c0.4,0.4,0.8,0.8,1,1.3c0.5,1.3,0.7,2.8,0.6,4.2c0,0.2,0,0.5,0,0.8c0,0.2,0,0.4,0,0.6v3.4c0,2,0.1,3.7,0.2,5.1
		c0.1,0.9,0.2,1.9,0.4,2.8l1.3-0.4c-0.1-0.6-0.2-1.1-0.2-1.7C277.7,341.5,277.6,339.8,277.6,337.8z"/>
	<path class="st1" d="M186.5,432.5c-0.2-0.5-0.3-1-0.3-1.5c0-0.1,0-0.1,0-0.2l-0.7-2.9c-0.5-1.7-0.9-3.6-1.3-5.7
		c-0.4-2-0.7-3.9-0.8-5.5c-0.1-0.8-0.7-1.3-1.5-1.3h-0.2c0.1,0.2,0.2,0.4,0.2,0.6c0.2,1.6,0.5,3.5,0.8,5.5s0.8,3.9,1.3,5.7l0.7,2.9
		c0,0.1,0,0.1,0,0.2c0,0.5,0.1,1,0.3,1.5c0,0.1,0.1,0.1,0.1,0.2c2.9,10.3,5.7,20.6,8.6,30.8l1.2-0.2c-2.8-9.9-5.6-19.9-8.4-29.9
		L186.5,432.5z"/>
	<path class="st1" d="M159.4,448.4c0.7-2.2,1-4.4,0.8-6.7v-43.4c0-3.3-0.3-5.5-0.8-6.9c-0.6-1.4-1.7-2.5-3-3.2v-14.5
		c11.9-0.1,23.8-0.8,35.6-2.1c-0.1-0.3-0.1-0.6-0.2-0.9c-12.3,1.4-24.6,2.2-36.9,2.3v14.5c1.3,0.7,2.4,1.8,3,3.2
		c0.6,1.3,0.8,3.6,0.8,6.9V441c0.1,2.3-0.2,4.6-0.8,6.7c-0.6,1.4-1.7,2.5-3,3.2v14.5h1.5v-13.8C157.7,450.9,158.8,449.8,159.4,448.4
		z"/>
	<path class="st1" d="M336.1,320.2c0.7-0.7,1.2-1.5,1.5-2.4c0.4-1.3,0.5-2.7,0.5-4v-24.3c0.1-1.4-0.1-2.7-0.5-4
		c-0.3-0.7-0.8-1.2-1.5-1.5v-7.3l13.8-5.4l-0.5-1.1l-14.8,5.8v7.3c0.7,0.3,1.2,0.8,1.5,1.5c0.4,1.3,0.6,2.6,0.5,4V313
		c0.1,1.4-0.1,2.7-0.5,4.1c-0.3,0.9-0.9,1.7-1.6,2.4v6.5l1.5-0.6V320.2z"/>
	<path class="st1" d="M202.6,407.7h0.2l0.3,0c0.6-0.1,1.1-0.5,1.3-1.1c2.8-12.6,5.7-25.2,8.5-37.8c11-1.8,22.5-4.2,34.4-7.1v-1.1
		c-12.3,3.1-24.4,5.6-35.8,7.5c-2.8,12.6-5.7,25.2-8.5,37.8c-0.1,0.6-0.6,1.1-1.2,1.1h-0.3l0,0C201.6,407.4,202,407.7,202.6,407.7z"
		/>
	<path class="st1" d="M399.6,291.1c0.4-0.8,0.7-1.7,0.8-2.6c0.2-1.1,0.2-2.2,0.2-3.3v-20c0-0.8,0-3.2-1.6-4.2
		c-0.3-0.2-0.7-0.3-1-0.4c1.2,1.1,1.2,3.2,1.2,3.9v20c0,1.1-0.1,2.2-0.2,3.3c-0.1,0.9-0.4,1.8-0.8,2.6c-0.5,0.8-1.1,1.5-1.9,2
		c-0.8,0.5-1.7,0.9-2.6,1.3l-1.3,0.5c-0.1,0-0.2,0.1-0.4,0.1c0.1,0.2,0.3,0.4,0.5,0.5c0.2,0.2,0.5,0.3,0.8,0.3c0.2,0,0.4,0,0.6-0.1
		l1.3-0.5c0.9-0.4,1.8-0.8,2.6-1.3C398.5,292.6,399.1,291.9,399.6,291.1z"/>
	<path class="st1" d="M600.5,269.9l0.1,0.2c0.2,0.9,0.4,1.8,0.5,2.8c0.1,1,0.2,2.6,0.2,4.7v37.1c0,2,0,3.6-0.2,4.6
		c-0.1,0.9-0.2,1.9-0.5,2.8c0,0,0,0.1,0,0.1c-1,2.7-3.4,4.6-6.3,4.9c-0.3,0-0.5,0-0.8,0c-0.7,0-1.4-0.1-2-0.3
		c0.1,0.1,0.3,0.2,0.4,0.3c1,0.5,2,0.8,3.1,0.8c0.3,0,0.5,0,0.8,0c1.4-0.1,2.7-0.7,3.8-1.6c1.1-0.9,1.9-2,2.4-3.3c0,0,0-0.1,0-0.1
		c0.2-0.9,0.4-1.9,0.5-2.8c0.1-1,0.2-2.6,0.2-4.6v-37.2c0-2.1,0-3.7-0.2-4.7c-0.1-0.9-0.2-1.8-0.5-2.8c0-0.1,0-0.1,0-0.2
		c-0.5-1.3-1.4-2.4-2.6-3c-0.3-0.2-0.7-0.3-1-0.4C599.3,267.9,600.1,268.8,600.5,269.9z"/>
	<path class="st1" d="M289,385.1c-0.2-1.2-0.3-2.1-0.4-2.6s-0.3-1.2-0.4-2.2c-0.2-1-0.4-2-0.5-3c-0.1-1.3-0.3-2.3-0.4-3
		c0,0,0-0.1,0-0.1l-0.3-1.5c-0.1-0.7-0.7-1.2-1.5-1.2c-0.1,0-0.1,0-0.2,0c0.1,0.1,0.1,0.3,0.2,0.4l0.3,1.5c0,0,0,0.1,0,0.1
		c0.1,0.7,0.2,1.8,0.4,3c0.1,1,0.3,2,0.5,3c0.2,1,0.3,1.7,0.4,2.2s0.3,1.5,0.4,2.6l3,15.9c0.1,0.7-0.3,1.5-1,1.7
		c-3.1,1-6.2,2-9.2,2.9h-0.2c0.1,0.2,0.2,0.3,0.3,0.4c0.3,0.2,0.6,0.4,1,0.4c0.1,0,0.3,0,0.4-0.1c3-0.9,6.1-1.9,9.2-2.9
		c0.7-0.2,1.1-1,1-1.7L289,385.1z"/>
	<path class="st1" d="M312,304.9c0.3,0.2,0.6,0.3,0.9,0.3c0.2,0,0.3,0,0.5-0.1l6.5-2.2v-1.3l-8,2.7c-0.1,0-0.2,0-0.3,0
		C311.7,304.5,311.9,304.7,312,304.9z"/>
	<path class="st1" d="M372,345.6v35.8c0,1.9-0.1,3.8-0.4,5.8c-0.2,1.5-0.7,3-1.5,4.3c-0.8,1.3-1.9,2.3-3.2,3.1
		c-1.6,0.9-3.2,1.6-4.9,2.3l-2.4,0.9c-0.1,0-0.2,0.1-0.3,0.1c0.1,0.2,0.3,0.4,0.5,0.5c0.4,0.3,0.9,0.3,1.4,0.2l2.4-0.9
		c1.7-0.6,3.3-1.4,4.9-2.3c1.3-0.7,2.4-1.8,3.2-3.1c0.8-1.3,1.3-2.8,1.5-4.3c0.3-1.9,0.4-3.8,0.4-5.8v-35.8c0-3.5-0.8-5.6-2.5-6.6
		c-0.3-0.2-0.7-0.3-1-0.4C371.4,340.5,372,342.5,372,345.6z"/>
	<path class="st1" d="M312,326.2c0.3,0.2,0.6,0.3,0.9,0.3c0.2,0,0.3,0,0.5-0.1l0.6-0.2c1-0.3,1.9-0.7,2.8-1.2c0.8-0.5,1.5-1.1,2-1.9
		c0.5-0.8,0.9-1.7,1-2.6c0.2-1,0.2-2.1,0.2-3.1v-1.3l10.1-3.4v-1.3l-11.6,4v1.3c0,1.1-0.1,2.1-0.2,3.1c-0.1,0.9-0.5,1.8-1,2.6
		c-0.5,0.8-1.2,1.4-2,1.9c-0.9,0.5-1.8,0.9-2.8,1.2l-0.6,0.2c-0.1,0-0.2,0-0.3,0C311.7,325.9,311.9,326,312,326.2z"/>
	<path class="st1" d="M379,301.2c0.3-1.3,0.5-2.7,0.4-4.1v-24.3c0.1-1.4-0.1-2.7-0.5-4c-0.3-0.7-0.8-1.2-1.5-1.5v-7.3l21.3-8.9
		c2.3-1,4.7-1.7,7.2-2.1c0.3,0,0.5,0,0.8-0.1c0.5,0,1.1,0.1,1.6,0.2l-0.2-0.1c-0.9-0.6-1.9-0.8-2.9-0.8c-0.3,0-0.6,0-0.8,0.1
		c-2.5,0.4-4.9,1.1-7.2,2.1l-21.2,8.9v7.3c0.7,0.3,1.2,0.8,1.5,1.4c0.4,1.3,0.6,2.6,0.5,4v24.3c0.1,1.4-0.1,2.7-0.4,4.1
		c-0.3,0.9-0.9,1.7-1.5,2.4v6.6l1.5-0.6v-5.2C378.2,302.9,378.7,302.1,379,301.2z"/>
	<path class="st1" d="M249.4,439.1c0.1,0,0.3,0.1,0.4,0.1c0.4,0,0.8-0.2,1.1-0.5c1.2-1.3,2.2-2.8,2.8-4.4c0.7-2.3,1.3-4.7,1.6-7.1
		c4.2-23.7,8.5-47.4,12.7-71.1c12.1-3.4,24.7-7.4,38.4-12c-0.1-0.4-0.2-0.8-0.3-1.2c-14.1,4.8-27.1,8.9-39.6,12.5
		c-4.2,23.8-8.5,47.5-12.7,71.1c-0.4,2.4-0.9,4.8-1.6,7.1c-0.6,1.6-1.6,3.1-2.8,4.4c-0.3,0.3-0.7,0.5-1.1,0.5c-0.1,0-0.3,0-0.4-0.1
		l-0.5-0.2c0,0,0.1,0,0.1,0.1C248.1,438.6,248.7,438.9,249.4,439.1z"/>
	<path class="st1" d="M230.2,349.1c0.1,0,0.2,0,0.3,0l0.6-0.1c1-0.2,2-0.5,2.9-0.9c0.9-0.4,1.6-0.9,2.2-1.7c0.6-0.7,0.9-1.6,1.1-2.5
		c0.2-1,0.2-2.1,0.2-3.1v-1.2l10.6-2.2v-1.1l-12.1,2.5v1.2c0,1-0.1,2.1-0.2,3.1c-0.1,0.9-0.5,1.8-1.1,2.5c-0.6,0.7-1.3,1.3-2.2,1.7
		c-0.9,0.4-1.9,0.7-2.9,0.9l-0.6,0.1h-0.1c0.1,0.2,0.2,0.3,0.4,0.4C229.5,349,229.8,349.1,230.2,349.1z"/>
	<path class="st1" d="M193.6,354.6c0.4-1.3,0.5-2.6,0.4-4v-13.3c0-0.8-0.7-1.5-1.5-1.5h-0.2c0.1,0.2,0.2,0.5,0.2,0.7v13.3
		c0.1,1.3-0.1,2.7-0.5,4c-0.3,0.8-0.9,1.5-1.6,2v7l1.5-0.1v-6.1C192.7,356.1,193.3,355.4,193.6,354.6z"/>
	<path class="st1" d="M230.2,327.8c0.1,0,0.2,0,0.3,0l7-1.4v-1.1L229,327h-0.1c0.1,0.2,0.2,0.3,0.4,0.4
		C229.5,327.7,229.8,327.8,230.2,327.8z"/>
	<path class="st1" d="M213.4,354.1c0.7-0.6,1.3-1.4,1.6-2.3c0.4-1.5,0.5-3.1,0.5-4.7v-22.7l-0.1-1.7c0.1-1.1-0.1-2.3-0.6-3.4
		c-0.3-0.6-0.8-1.1-1.5-1.4v-7.2l34.7-7.1v-1.1l-36.2,7.4v7.2c0.6,0.3,1.1,0.8,1.5,1.4c0.5,1.1,0.6,2.2,0.6,3.4l0.1,1.7v22.7
		c0.1,1.6-0.1,3.1-0.5,4.7c-0.3,0.9-0.9,1.7-1.6,2.3v6.9l1.5-0.3L213.4,354.1z"/>
	<path class="st1" d="M234.3,315.4c0.1,0.1,0.2,0.1,0.3,0.2c1,1.2,1.5,2.7,1.4,4.2l1.4-0.3c-0.1-1.2-0.5-2.3-1.3-3.2
		C235.6,315.9,235,315.6,234.3,315.4z"/>
	<path class="st1" d="M254.1,345.7c0.7-0.6,1.3-1.4,1.6-2.3c0.4-1.3,0.5-2.7,0.5-4v-24.3c0.1-1.4-0.1-2.7-0.5-4
		c-0.3-0.7-0.9-1.2-1.6-1.6v-7.2l22.9-6.4c2.1-0.6,4.3-1,6.5-1.2h1c0.9,0,1.8,0.1,2.6,0.4c-0.4-0.3-0.8-0.5-1.2-0.7
		c-0.9-0.3-1.9-0.5-2.9-0.5c-0.3,0-0.6,0-1,0c-2.2,0.2-4.3,0.6-6.4,1.2l-22.9,6.4v7.2c0.7,0.3,1.2,0.9,1.6,1.6
		c0.4,1.3,0.6,2.6,0.5,4v24.3c0.1,1.4-0.1,2.7-0.5,4c-0.3,0.9-0.9,1.6-1.6,2.3v6.8l1.5-0.4L254.1,345.7z"/>
	<path class="st1" d="M175.8,347.6c-0.1-0.2-0.1-0.5-0.1-0.7v-0.2l-0.4-1.6c-0.3-1-0.5-2-0.7-3.1s-0.4-2.1-0.5-3
		c-0.1-0.8-0.7-1.3-1.5-1.3h-0.2c0.1,0.2,0.2,0.4,0.2,0.6c0.1,0.9,0.3,1.9,0.5,3.1s0.4,2.2,0.7,3.1l0.4,1.6c0,0.1,0,0.1,0,0.2
		c0,0.2,0.1,0.5,0.1,0.7l0.1,0.2l4.6,16.9l1.3-0.1l-4.4-16C175.8,347.7,175.8,347.6,175.8,347.6z"/>
	<path class="st1" d="M184.1,335h0.3c0.6-0.1,1.2-0.5,1.3-1.2l4.6-20.3l17.3-1.4v-0.9l-18.8,1.5l-4.6,20.2c-0.1,0.6-0.7,1.1-1.3,1.2
		h-0.1C183.1,334.7,183.6,335,184.1,335z"/>
	<path class="st1" d="M285.5,320.1c0.9,0,1.8,0.1,2.6,0.3c-0.4-0.3-0.8-0.6-1.3-0.7c-0.8-0.2-1.7-0.3-2.6-0.3
		C284.6,319.8,285,320.1,285.5,320.1z"/>
	<path class="st1" d="M367.6,321.5l3.1-1.2c6.1-2.3,11-3.6,14.3-4c0.6-0.1,1.2-0.1,1.9-0.1c1.6,0,3.3,0.3,4.8,0.9
		c-1.9-1.1-4.1-1.7-6.3-1.6c-0.6,0-1.2,0-1.9,0.1c-3.4,0.4-8.2,1.7-14.3,4l-3.1,1.2c-15.1,5.9-27.5,10.5-38.9,14.7V350
		c0.5,0.1,1,0.4,1.5,0.7v-14.5C340,332.1,352.4,327.4,367.6,321.5z"/>
	<path class="st1" d="M327.5,414.8c0.4,0,0.7-0.1,1-0.4c1.4-1.2,2.6-2.7,3.3-4.4c0.6-2.2,0.9-4.6,0.8-6.9v-43.4
		c0-4.4-0.5-5.9-0.9-6.7c-0.5-1.1-1.5-1.8-2.7-2.2c0.5,0.4,0.9,0.9,1.2,1.4c0.4,0.8,0.9,2.3,0.9,6.7v43.4c0.1,2.3-0.2,4.7-0.8,6.9
		c-0.7,1.7-1.8,3.2-3.3,4.4c-0.3,0.2-0.6,0.4-1,0.4h-0.3l-0.6-0.1c0.6,0.4,1.3,0.8,2.1,0.9C327.3,414.8,327.4,414.8,327.5,414.8z"/>
	<path class="st1" d="M279.5,429.2c-0.1,0-0.3-0.1-0.4-0.1c0.1,0.1,0.3,0.2,0.4,0.3V429.2z"/>
	<path class="st1" d="M276.6,305.7c-0.4-0.3-0.8-0.4-1.2-0.5c0.9,0.9,1.4,2.5,1.4,4.9c0.1,1.8-0.3,3.6-1.1,5.3
		c-1,1.4-2.5,2.4-4.1,2.9l-2,0.6c-0.1,0-0.1,0-0.2,0c0.1,0.2,0.2,0.3,0.4,0.5c0.3,0.2,0.6,0.3,0.9,0.3c0.1,0,0.3,0,0.4-0.1l2-0.6
		c1.7-0.4,3.2-1.4,4.1-2.8c0.8-1.6,1.2-3.4,1.1-5.3C278.3,308.1,277.8,306.5,276.6,305.7z"/>
	<path class="st1" d="M159,359.4c0.7-0.5,1.3-1.2,1.6-2c0.4-1.3,0.6-2.6,0.5-4v-24.3c0.1-1.4-0.1-2.8-0.5-4.1
		c-0.3-0.8-0.9-1.4-1.6-1.8v-7.1l18.1-1.5l-0.2-0.9l-19.4,1.6v7.1c0.7,0.4,1.3,1,1.6,1.8c0.4,1.3,0.6,2.7,0.5,4.1v24.3
		c0.1,1.4-0.1,2.7-0.5,4c-0.4,0.8-0.9,1.5-1.6,2v7l1.5-0.1L159,359.4z"/>
	<path class="st1" d="M437.7,244.6c0.9,1,1.4,2.4,1.4,3.8l1.3-0.5c-0.1-1-0.6-1.8-1.2-2.5C438.8,245,438.2,244.7,437.7,244.6z"/>
	<path class="st1" d="M432.7,278.7c0.3,0.2,0.5,0.3,0.9,0.3c0.2,0,0.4,0,0.5-0.1l0.6-0.2c0.9-0.4,1.9-0.8,2.7-1.3
		c0.8-0.5,1.5-1.1,2-1.9c0.5-0.8,0.8-1.7,1-2.6c0.1-1,0.2-2.1,0.2-3.1v-1.4l9.9-3.8v-1.3l-11.4,4.4v1.4c0,1.1-0.1,2.1-0.2,3.1
		c-0.1,0.9-0.5,1.8-1,2.6c-0.5,0.8-1.2,1.4-2,1.9c-0.9,0.5-1.8,1-2.7,1.3l-0.6,0.2c-0.1,0-0.2,0.1-0.3,0.1
		C432.4,278.4,432.6,278.6,432.7,278.7z"/>
	<path class="st1" d="M484,352.6c0.6-2.2,0.9-4.6,0.8-6.9v-43.4c0-3.3-0.3-5.5-0.9-6.7c-0.6-1.1-1.6-1.9-2.8-2.3
		c0.6,0.4,1,0.9,1.3,1.5c0.6,1.2,0.9,3.4,0.9,6.7v43.4c0.1,2.3-0.2,4.7-0.8,6.9c-0.6,1.6-1.7,3-3,4.1V370l1.5-0.5v-12.8
		C482.3,355.6,483.3,354.2,484,352.6z"/>
	<path class="st1" d="M448.2,310.5c-0.5-0.4-1-0.7-1.6-0.8l0.1,0.1c1.6,1.3,2.3,3.8,2.3,7.6l1.5-0.5
		C450.3,313.7,449.6,311.6,448.2,310.5z"/>
	<path class="st1" d="M417.6,286.8c0.7-0.7,1.3-1.6,1.6-2.5c0.4-1.5,0.5-3.1,0.4-4.7v-22.7l-0.1-1.7c0.1-1.1-0.1-2.3-0.6-3.3
		c-0.3-0.5-0.8-1-1.4-1.2v-7.3l32.8-12.7v-1.3l-34.3,13.3v7.3c0.6,0.3,1.1,0.7,1.4,1.2c0.5,1,0.6,2.2,0.6,3.3l0.1,1.7v22.7
		c0.1,1.6-0.1,3.2-0.4,4.7c-0.3,1-0.9,1.8-1.6,2.5v6.6l1.5-0.6V286.8z"/>
	<path class="st1" d="M563.3,334.9c-1.3-3.9-1.9-7.9-1.8-12v-40.1c-0.1-4.7,0.7-9.5,2.3-13.9c1.5-3.8,3.9-7.1,7-9.8
		c3-2.7,6.4-4.8,10.1-6.2c4.8-1.8,9.8-2.9,14.9-3.4c2.5-0.3,5-0.4,7.5-0.4c2.9,0,5.7,0.2,8.5,0.8c1.7,0.4,3.4,0.9,5,1.7
		c-2-1.1-4.2-1.9-6.5-2.4c-2.8-0.6-5.7-0.8-8.5-0.8c-2.5,0-5,0.2-7.5,0.4c-5.1,0.5-10.1,1.6-14.9,3.4c-3.7,1.4-7.2,3.5-10.1,6.2
		c-3.1,2.7-5.5,6-7,9.8c-1.5,4.5-2.3,9.2-2.3,13.9v40.1c-0.1,4.1,0.5,8.1,1.8,12c1.1,2.8,3,5.2,5.5,6.9c1.1,0.8,2.3,1.5,3.5,2
		c-0.7-0.4-1.4-0.8-2-1.3C566.3,340.1,564.3,337.7,563.3,334.9z"/>
	<path class="st1" d="M521.1,266.1l3.3-0.9c4-1.1,8.1-1.8,12.2-2.1c0.5,0,0.9,0,1.3,0c2.2,0,4.3,0.3,6.3,1.1c-0.5-0.3-1-0.5-1.5-0.7
		c-2-0.8-4.2-1.2-6.4-1.1c-0.4,0-0.9,0-1.3,0c-4.1,0.3-8.2,1.1-12.2,2.1l-3.3,0.9c-12.7,3.5-25.8,7.6-40.2,12.5v14.6
		c0.5,0.2,1,0.4,1.5,0.7v-14.5C495.3,273.7,508.5,269.6,521.1,266.1z"/>
	<path class="st1" d="M458,269.5c0.4-1.3,0.5-2.7,0.5-4v-24.3c0.1-1.4-0.1-2.7-0.5-4c-0.3-0.7-0.9-1.2-1.5-1.5v-7.3l22.6-7.9
		c2.1-0.7,4.2-1.3,6.3-1.6c0.5-0.1,1-0.1,1.6-0.1c0.7,0,1.4,0.1,2.1,0.3c-0.4-0.3-0.9-0.6-1.4-0.7c-0.7-0.2-1.4-0.3-2.2-0.3
		c-0.5,0-1,0-1.6,0.1c-2.1,0.4-4.3,0.9-6.3,1.6l-22.5,7.8v7.3c0.7,0.3,1.2,0.8,1.5,1.5c0.4,1.3,0.6,2.6,0.5,4v24.3
		c0.1,1.4-0.1,2.7-0.5,4.1c-0.3,0.9-0.9,1.7-1.6,2.3v6.7l1.5-0.5v-5.4C457.2,271.2,457.7,270.4,458,269.5z"/>
	<path class="st1" d="M487.2,244.2L487.2,244.2c0.4,0,0.6,0,0.9,0c0.6,0,1.2,0,1.8,0.1l-0.1-0.1c-0.4-0.3-0.8-0.6-1.3-0.6
		c-0.6-0.1-1.2-0.2-1.9-0.2H486C486.2,243.9,486.7,244.2,487.2,244.2z"/>
	<path class="st1" d="M540.5,308.7c1.9,0,3.7,0.3,5.5,0.8l0.6,0.2c-0.6-0.4-1.3-0.8-2-1c-1.7-0.5-3.5-0.8-5.3-0.8
		C539.6,308.4,540,308.7,540.5,308.7z"/>
	<path class="st1" d="M432.7,257.4c0.3,0.2,0.5,0.3,0.9,0.3c0.2,0,0.4,0,0.5-0.1l6.3-2.4v-1.3l-7.8,3c-0.1,0-0.2,0.1-0.3,0.1
		C432.4,257,432.6,257.2,432.7,257.4z"/>
	<path class="st1" d="M520.7,217.9c0-0.1,0-0.1,0-0.2c-0.3-0.9-1-1.6-1.9-1.9c-0.2-0.1-0.3-0.1-0.5-0.1c0.4,0.4,0.7,0.8,0.9,1.3
		c0,0.1,0,0.1,0.1,0.2c0.1,0.5,0.2,1.1,0.3,1.6c0,0.6,0.1,1.5,0.1,2.7v20.8c0,1.1,0,2-0.1,2.6c-0.1,0.6-0.1,1.1-0.3,1.7v0.1
		c-0.3,0.9-0.8,1.7-1.4,2.3c-0.6,0.7-1.4,1.1-2.3,1.4c-0.4,0.1-0.8,0.2-1.3,0.2c-0.3,0-0.5,0-0.8-0.1c0.3,0.2,0.6,0.4,0.9,0.6
		c0.4,0.2,0.9,0.3,1.4,0.3c0.4,0,0.9-0.1,1.3-0.2c0.9-0.3,1.6-0.7,2.3-1.4c0.6-0.6,1.1-1.4,1.4-2.3v-0.1c0.1-0.6,0.2-1.1,0.3-1.7
		c0.1-0.6,0.1-1.5,0.1-2.6v-20.8c0-1.2,0-2.1-0.1-2.7C520.9,219,520.8,218.5,520.7,217.9z"/>
	<path class="st1" d="M501,259.2c0.4,0.3,0.9,0.5,1.4,0.7c-1.2-0.7-2.1-1.8-2.6-3.1c-0.7-2-1-4.2-0.9-6.4V228c0-2.6,0.4-5.2,1.2-7.7
		c0.8-2.1,2-4.1,3.6-5.7c1.5-1.6,3.3-3,5.3-4.1c2.5-1.3,5.2-2.4,7.9-3.2c2.7-0.9,5.6-1.4,8.4-1.6h0.2c1.2,0,2.4,0.2,3.5,0.6
		l-0.1-0.1c-1.5-0.9-3.2-1.4-4.9-1.3h-0.2c-2.9,0.1-5.7,0.7-8.4,1.6c-2.7,0.8-5.4,1.8-7.9,3.2c-2,1.1-3.8,2.5-5.3,4.1
		c-1.6,1.6-2.8,3.6-3.6,5.7c-0.8,2.5-1.2,5.1-1.2,7.7v22.4c-0.1,2.2,0.2,4.3,0.9,6.3C498.8,257.4,499.8,258.5,501,259.2z"/>
	<path class="st1" d="M524.5,341.3v-6c0-0.4,0-0.8,0.1-1.2c0.1-0.4,0.1-0.8,0.1-1.3c0-3.2-0.3-5.5-1.1-7c-0.6-1.4-1.8-2.4-3.3-2.9
		c0.8,0.5,1.4,1.3,1.8,2.1c0.7,1.5,1.1,3.8,1.1,7c0,0.3,0,0.8-0.1,1.3c0,0.4-0.1,0.8-0.1,1.2v6c0,3.6,0.1,6.7,0.3,9.3
		c0.2,2.2,0.5,4.3,1,6.4l1.3-0.3c-0.3-1.8-0.6-3.6-0.8-5.3C524.6,348,524.5,344.9,524.5,341.3z"/>
	<path class="st1" d="M479.6,267.6c-0.1-1.4-0.2-3.1-0.2-5.1v-3.4c0-0.2,0-0.4,0-0.6c0-0.3,0-0.5,0-0.8c0.1-1.4-0.1-2.8-0.6-4.2
		c-0.4-1-1.3-1.8-2.4-2c0.4,0.3,0.7,0.8,0.9,1.2c0.5,1.3,0.7,2.7,0.7,4.2c0,0.2,0,0.5,0,0.8s0,0.4,0,0.6v3.4c0,2,0.1,3.7,0.2,5.1
		c0.1,0.9,0.2,1.8,0.4,2.6l1.3-0.5C479.7,268.6,479.7,268.1,479.6,267.6z"/>
	<path class="st1" d="M473.6,281.1v-1.3c-23.8,8.2-47.8,17.5-68.6,25.7v14.6c0.5,0.1,1,0.3,1.5,0.6v-14.5
		C426.9,298.3,450.4,289.2,473.6,281.1z"/>
	<path class="st1" d="M360.6,291c0.1,0,0.3,0,0.4,0c0.7-0.2,1.1-0.8,1.1-1.4V280c0.1-1.4-0.1-2.8-0.6-4.1c-0.3-0.6-0.8-1.2-1.4-1.4
		v-7.2l12-4.7v-1.3l-13.5,5.3v7.2c0.6,0.3,1.2,0.8,1.4,1.4c0.4,1.3,0.6,2.7,0.6,4.1v9.5c0,0.7-0.5,1.3-1.1,1.5h-0.2l0,0
		C359.6,290.7,360.1,291,360.6,291z"/>
	<path class="st1" d="M523.2,284.9c-0.4-0.3-0.8-0.5-1.3-0.6c1.6,1.3,2.4,3.9,2.4,8.1c0,3.9-0.6,6.8-1.9,8.8s-3.5,3.6-6.9,4.6
		l-2.1,0.6l-1.6,0.5h-0.2c0.1,0.2,0.2,0.3,0.4,0.5c0.3,0.2,0.6,0.3,0.9,0.3c0.1,0,0.3,0,0.4-0.1l1.6-0.5l2.1-0.6
		c3.4-1.1,5.6-2.6,6.9-4.6s1.9-4.9,1.9-8.8C525.8,288.7,525,286.1,523.2,284.9z"/>
	<path class="st1" d="M409.6,379.9c0.6-2.6,0.9-5.4,0.8-8.1v-40.6l-0.1-3c0-2.6-0.3-4.4-0.9-5.4c-0.6-0.8-1.4-1.5-2.4-1.7
		c0.4,0.3,0.7,0.6,0.9,1c0.6,1,0.9,2.8,0.9,5.4l0.1,3V371c0.1,2.7-0.1,5.5-0.8,8.1c-0.6,1.7-1.7,3.3-3.1,4.5v14l1.5-0.6v-12.7
		C407.9,383.2,409,381.6,409.6,379.9z"/>
	<path class="st1" d="M437.6,330.3c0.2,0.2,0.5,0.3,0.9,0.3c0.2,0,0.4,0,0.5-0.1c5.4-2,10.5-3.9,15.3-5.7v-1.3
		c-5.4,2-10.9,4-16.8,6.3c-0.1,0-0.2,0.1-0.3,0.1C437.3,330,437.4,330.2,437.6,330.3z"/>
	<path class="st1" d="M480.1,235.5c0-2.8-0.5-4.3-1.7-5.1c-0.3-0.2-0.7-0.4-1.1-0.4c0.9,0.9,1.3,2.4,1.3,4.8
		c0.1,1.8-0.3,3.6-1.1,5.3c-0.9,1.5-2.4,2.5-4,3.1l-2,0.7l-0.3,0.1c0.1,0.2,0.3,0.4,0.4,0.5c0.3,0.2,0.6,0.3,0.9,0.3
		c0.2,0,0.3,0,0.5-0.1l2-0.7c1.6-0.5,3.1-1.6,4-3.1C479.9,239.2,480.2,237.3,480.1,235.5z"/>
	<path class="st1" d="M351.7,302.8c-0.4-0.8-0.7-1.5-1-2.1s-0.5-1.1-0.6-1.4c-0.2-0.6-0.8-1-1.4-1h-0.2c0,0.1,0.1,0.1,0.1,0.2
		c0.1,0.4,0.3,0.9,0.6,1.4s0.6,1.3,1,2.1c0.1,0.2,0.3,0.4,0.3,0.7l6.7,14.5l1-0.4l-6.2-13.3C351.9,303.2,351.8,303,351.7,302.8z"/>
	<path class="st1" d="M437.6,368.5c0.3,0.2,0.5,0.3,0.9,0.3c0.2,0,0.4,0,0.5-0.1l1.1-0.4c1.7-0.6,3.4-1.4,5-2.3
		c1.3-0.8,2.5-1.8,3.4-3.1c0.9-1.3,1.4-2.7,1.7-4.2c0.3-1.8,0.4-3.6,0.4-5.5v-3.3c8.2-3,15.8-5.8,23.1-8.3v-1.3
		c-7.8,2.7-15.8,5.6-24.6,8.8v3.3c0,1.8-0.1,3.7-0.4,5.5c-0.3,1.5-0.8,2.9-1.7,4.2c-0.9,1.3-2,2.3-3.4,3.1c-1.6,0.9-3.3,1.7-5,2.3
		l-1.1,0.4c-0.1,0-0.2,0.1-0.3,0.1C437.3,368.1,437.4,368.3,437.6,368.5z"/>
</g>
</svg>
