<?xml version="1.0" encoding="utf-8"?>
<!-- Generator: Adobe Illustrator 24.1.2, SVG Export Plug-In . SVG Version: 6.00 Build 0)  -->
<svg version="1.1" id="Capa_1" xmlns="http://www.w3.org/2000/svg" xmlns:xlink="http://www.w3.org/1999/xlink" x="0px" y="0px"
	 viewBox="0 0 792 612" style="enable-background:new 0 0 792 612;" xml:space="preserve">
<style type="text/css">
	.st0{clip-path:url(#SVGID_2_);}
	.st1{clip-path:url(#SVGID_4_);}
	.st2{fill-rule:evenodd;clip-rule:evenodd;fill:#21211F;}
	.st3{fill-rule:evenodd;clip-rule:evenodd;fill:#999898;}
	.st4{fill-rule:evenodd;clip-rule:evenodd;fill:#CF8881;}
	.st5{fill:#21211F;}
	.st6{fill:#999898;}
	.st7{fill-rule:evenodd;clip-rule:evenodd;fill:#5A878F;}
	.st8{fill:#5A878F;}
	.st9{fill-rule:evenodd;clip-rule:evenodd;fill:#FFFFFF;}
	.st10{fill:#FFFFFF;}
</style>
<g>
	<defs>
		<rect id="SVGID_1_" width="792" height="612"/>
	</defs>
	<clipPath id="SVGID_2_">
		<use xlink:href="#SVGID_1_"  style="overflow:visible;"/>
	</clipPath>
	<g class="st0">
		<g>
			<defs>
				<rect id="SVGID_3_" width="792" height="612"/>
			</defs>
			<clipPath id="SVGID_4_">
				<use xlink:href="#SVGID_3_"  style="overflow:visible;"/>
			</clipPath>
			<g class="st1">
				<path class="st2" d="M503.6,219c-0.2,0.1-0.4,0.3-0.6,0.4c-0.5,0.3-3.1,1.8-3.2,1.9c-0.3,0.3-2.7,2.5-2.8,2.5
					c-0.4,0.4-0.2,0.5-0.6,0.9c-1,1.2-2,2.4-3.2,3.4c-0.3,0.2-0.8,0.3-1.1,0.6c-0.7,0.5-0.7,1.2-1.5,1.8c-2.5,1.8-1.8,1.5-3.3,3.1
					l-1.7,1.7c-0.6,0.6-1,1.1-1.5,1.7s-0.9,1.1-1.5,1.7c-1,1-2.5,2-3.5,3.1c-0.5,0.6-1.1,1.1-1.6,1.6l-2.4,2.4
					c-1.1,1.1-4.3,3.8-5.1,4.8c-0.2,0.4-0.5,0.7-0.8,0.9l-5.2,4.7c-0.8,0.8-4.4,4.1-5.8,5.6l-2.6,2.3c-0.3,0.2-0.5,0.5-0.8,0.8
					c-0.4,0.5-0.5,0.4-1,0.7c-1.3,1-3.6,4-4.8,5l-3.5,3.1c-0.6,0.6-1,1-1.6,1.6c-0.6,0.5-1.1,1-1.6,1.6c-0.3,0.4-0.3,0.5-0.6,0.9
					c-0.6,0.5-1.2,1.1-1.7,1.7l-7.4,7.5c-0.2,0.2-0.2,0.1-0.4,0.4s-0.1,0.2-0.3,0.5c-0.4,0.5-1,0.8-1.4,1.3l-0.6,0.6
					c-0.5,0.3-0.9,0.7-1.4,1.1l-10.7,10.7c-0.6,0.6-0.9,1-1.5,1.7c-0.3,0.3-0.5,0.5-0.7,0.8c-0.5,0.7-0.3,0.4-0.9,0.8
					s-0.7,1.1-1.7,1.7c-0.6,0.5-1.2,1-1.7,1.6c-1.5,1.4-3.6,4-4.8,5.1l-3.2,3.2c-0.5,0.5-0.2,0.4-0.6,1l-3.4,3.2
					c-1.5,1.3-1.4,1.5-1.4,3.6c-0.1,2.2-0.1,4.4,0,6.5c0.8-1.1,2.1-1.7,2.9-2.8c0.5-0.6,0.2-0.2,0.7-0.5l1.2-1.3
					c0.5-0.4,1.1-0.9,1.5-1.4l0.9-0.9c0.5-0.5,0.9-0.6,1.5-1.1l0.5-0.5c0.4-0.3,1.1-0.4,1.5-0.8c0.5-0.5,0.2-0.5,0.4-0.8
					c0.3-0.5,0.2-0.1,0.6-0.6l0.5-0.6c0.5-0.6-0.3-0.7,1.6-1.8c1.4-0.9,0.1-0.1,1.8-1.7l1.8-1.9c0.7-0.8,0.8-1.4,1.8-2
					s1.7-1.6,2.5-2.2c0.2-0.2,0.4-0.3,0.6-0.5l1.3-1.2c0.3-0.4,0.1-0.4,0.5-0.7s0.3,0,0.7-0.4s0.3-0.5,0.7-0.9l0.1-0.1l0.6-0.8
					c0.4-0.5,1-0.6,1.4-1.1l5-5.1c0.2-0.2,0.3-0.5,0.5-0.7l1.1-1.2c0.2-0.2,0.5-0.3,0.7-0.5c0.5-0.4,0.1-0.3,0.5-0.7
					c0.7-0.5,1.3-1.1,1.9-1.8c0.5-0.5,0.6-0.9,1.5-0.9c0.1-1.7,0.8-1.2,1.7-2.1c0.6-0.6,0.4-0.9,1.3-1.4c0.2-0.1,0.2-0.1,0.3-0.2
					l0.8-0.8c1.2-1,0.1-0.5,1.5-1.4c0.5-0.3,0.4-0.8,1-1.3c0.4-0.4,0.4-0.3,1-0.2c0.1-0.9,0.6-0.9,1.3-1.5c0.3-0.2,0.5-0.5,0.7-0.7
					l1.1-1l0.1-0.1c0,0,0.1,0,0.1-0.1c0.4-0.5,0.2-0.7,0.9-1c0.5-0.3,0.5-0.1,0.9-0.5c0.2-0.2,0.2-0.3,0.3-0.5s0.2-0.2,0.4-0.4
					c0.3-0.2,0.5-0.4,0.6-0.7c0.6-0.8,1.7-1.2,2.2-2.1l1.3-1.6c0.3-0.2,0.5-0.3,0.8-0.6c0.5-0.4,0.3-0.4,1.1-0.4
					c0-1.1,1.5-2,2.3-2.8c1.7-1.6,0.1-1,1.6-1.7l0.9-0.8c0.3-0.3,0.5-0.6,0.8-0.9c0.6-0.7,0.3-0.2,0.6-1.2c0.4-0.1,0.8-0.3,1.2-0.5
					l0.9-0.9c0.6-0.5,0.9-1.5,1.5-2.1l1.4-1.3c0.5-0.4,1.2-0.8,1.5-1.3l2.7-2.7c0.6-0.6,1.2-1.3,1.7-2c0.5-0.5,0.3-0.1,0.9-0.8
					c0.3-0.4,0.6-0.4,1.1-0.8c0.6-0.4,0.2,0,0.5-0.5c0.5-0.9,0.5-0.7,1.3-1.4l3.3-2.9c0.4-0.3,0.7-0.7,1-1.2l1.3-1
					c0.6-0.6,1.4-1,2-1.7c0.3-0.3,0.6-0.6,0.8-0.9c0.2-0.2,0.2-0.4,0.4-0.6c0.4-0.4,0.2-0.2,0.5-0.4c1.1-0.6,1.6-1.6,2.4-2
					c1-0.5,0.5-0.6,1.1-1.2l1.3-1c0.7-0.6,0-0.3,0.4-1.1c0.4-0.1,0.9-0.2,1.3-0.4c0.5-0.3,0.1,0,0.4-0.4c0.1-0.2,0.3-0.3,0.4-0.5
					l1.8-1.8c0.8-0.9,1.7-1.8,2.6-2.6c0.2-0.2,0.3-0.3,0.5-0.5s0.3-0.4,0.4-0.5l0.9-0.8c0.4-0.4,0.7-0.9,1-1.4l0.4-0.5
					c0.4-0.2,0.7-0.5,1-0.9c0.5-0.8-0.5-0.3,1.4-1.9c0.3-0.3,0.6-0.5,0.9-0.8c1.5-1.6,5.5-6.1,5.7-7.8c-1.5,0.1-6.3,0.3-6.8,0.7"/>
				<path class="st3" d="M399.1,114.5c1.2,0.5,0.5,0.4,2.2,0.5c1.4,1.6,2.9,3,4.5,4.3c0.4,0.3,0.8,0.6,1.2,0.9l3.8,3.2
					c0.9,0.6,1.8,1.2,2.6,1.8c1.5,1.3,6.9,5.2,7.7,6c0.4,0.4,0.6,0.6,1.1,1s0.6,0.8,1.1,1.2c0.8,0.7,1.6,1.3,2.5,2
					c2.3,1.9,1.1,1.1,2.2,2.3l4.7,4.4c1.6,1.4,3,3,4.6,4.5c0.4,0.4,0.8,0.7,1.2,1.1s0.3,0.9,1.4,0.9c0.2,1.2,0.9,1.4,1.7,2.1
					c0.4,0.3,0.5,0.7,0.9,1.1l3,3c1.2,1.4,2.5,2.8,3.9,4.1c0.4,0.4,0.6,0.7,0.9,1.1c0.5,0.5,0.6,0.3,1.1,0.9
					c0.4,0.6,0.9,1.1,1.4,1.5c0.4,0.6,0.9,1.1,1.5,1.6c1.1,0.6,0.4,0,1,1l1.4,1.5c0.3,0.4,0.2,0.4,0.5,0.6s0.7,0.5,1.1,0.9
					c0.6,0.8,1.2,1.4,1.9,2.1c1.8,1.6,3.4,3.3,4.9,5.1c0.1,0.2,0.3,0.3,0.5,0.5c1.3,1.1,2.5,2.2,3.5,3.6c1.6,1.7,3.2,3.4,4.9,4.9
					c0.3,0.3,0.7,0.8,1,1c0.6,0.7,1.3,1.4,2,2l3,3.1c0.5,0.5,0.5,0.8,0.9,1.1c0.4,0.3,0.7,0.6,1,1l3.8,4.2c0.3,0.4,0.6,0.7,1,1
					l3.7,4.3c1.1,1.2,2.3,3.5,3.5,4.5c0.8,0.6,1.3,1.4,2,2c0.5,0.4,0.4,0.6,0.9,1.1l3,3l3.8,3.3c1.3,0,7.6,0.3,8.3-0.2
					c0.1-0.4,0.1-0.1-0.1-0.4l-0.5-0.6c-0.6-0.9-1.4-1.2-2.1-2l-5.2-5.3c-1.1-1-2.1-2.1-2.9-3.3c-0.4-0.5-0.7-0.7-1-1.2
					c-0.6-0.8-2.9-3.6-3.2-4.2c-0.5-1-0.9-0.7-1.5-1.6c-0.3-0.7-0.8-1.2-1.3-1.7c-0.5-0.4-0.2,0.1-0.6-0.5l-0.4-0.6l-0.1-0.1
					c-0.7-0.7-1.3-1.8-1.9-2.2c-0.6-0.5-1.1-1.1-1.6-1.7c-0.8-0.6-1.5-1.3-2.2-2c-0.6-0.7-1.5-1.4-2-2.1l-2-2.2
					c-1-1.1-2.3-2-3.3-3.1c-0.4-0.4-0.7-0.6-1-1l-2-2.2c-0.4-0.4-0.8-0.6-1.2-1l-3.1-3.2c-0.6-0.8-1.3-1.5-2-2.2l-1.4-1.7
					c-1-1.4-1.4-1.2-2.6-2.6c-1.1-1.2-2.1-2.1-3.1-3.3c-1.3-1.6-1.9-1.6-2.1-2c-0.4-0.6-0.1-0.7-0.7-1.3l-2-1.9l-0.2-0.1
					c-0.5-0.4-0.7-1-1-1.3c-0.9-0.6,0.7,0.4-0.2-0.1l-0.6-0.4c0,0,0-0.1-0.1-0.1l-1.9-2.1c-0.1-0.1-0.2-0.2-0.3-0.3l-2.2-2
					c-0.5-0.3-1-0.7-1.4-1.2c-1-2-0.1-0.7-2.2-2.5l-0.5-0.3c-0.5-0.4-0.8-1-0.9-1.6l-0.9,0.1c0-0.7-0.2-0.7-0.4-0.9l-0.3-0.2
					l-0.1-0.1l-1.6-1.8c-0.2-0.1-0.3-0.3-0.4-0.5c-0.4-0.4-0.5-0.4-0.9-0.7c0,0-0.1,0-0.1-0.1l-0.7-0.7c-0.5-0.3-0.1,0-0.4-0.4
					c-0.7-1-0.6-0.6-1.3-1.2l-1.5-1.6c-0.9-0.8-1.4-1.7-2-2s-0.6-0.8-1.3-1.2c-1.1-0.7-0.3-0.7-1.6-1.8l-0.1-0.1
					c-0.9-0.6-1.6-1.2-2.3-2c-0.8-1-1.5-1.2-2.5-2.4l-6.7-6.1c-0.5-0.5-1.1-1-1.7-1.5c-0.3-0.2-0.6-0.5-0.8-0.8
					c-0.5-0.5-0.5-0.3-1.2-1.1c-0.4-0.4-0.9-0.8-1.4-1.1c-0.6-0.3-0.4-0.4-0.8-0.8l-2.7-2.1c-1.2-0.9-2.3-1.9-3.4-2.9l-4.1-3.5
					c0,0-0.1-0.1-0.1-0.1l-5.1-4.8c-0.3-0.3-1.9-3.3-1.8,0.1c0,1.1,0,2.2,0,3.2C399.1,110.1,399.1,112.3,399.1,114.5"/>
				<path class="st2" d="M394.5,105.1c-0.5,0.3-0.8,0.2-1.2,0.6s0.2-0.3,0,0.3c-0.1,0.4-0.1,0.2-0.2,0.4l-0.1,0.1l-0.4,0.8l-1.3-0.2
					c-0.3,0.7-0.7,0.8-1.2,1.3l-1.2,1.4c-0.5,0.6-1,0.4-1.5,1.1l-4,3.8c-1,0.6-1,1-1.8,1.5l-0.1,0.1l-0.2,0.1
					c-0.3,0.2-0.7,0.3-1.1,0.1c-0.2,0.4-0.3,0.8-0.4,1.3c-0.8-0.1-0.3-0.1-0.7-0.3c-0.2,1.8-0.2,0.4-1.8,2.1
					c-0.8,0.9-0.5,0.5-1.1,0.7s-0.4,0.9-0.8,1.2s-0.7,0.1-1.2,0.5l-0.1,0.1l-0.1,0.1l-0.6,0.6l-0.1,0.1c-0.3,0.3-0.8,0.5-1,0.8
					c-0.7,1-0.1,0.6-1.5,1.8l-1.1,1c-0.6,0.4-0.4,0.3-0.7,1c-0.5,1.1-0.1,0.4-1.1,0.8c0.2,0.3,0.4,0.2,0.5,0.6l-0.7,0.3
					c-0.9,0.5-1.6,1.2-2.1,2.1c-0.4,0.6-0.7,0.4-1.3,1.1c-1,1.3-1.2,0.7-2.8,2.9c-0.3,0.4-0.6,0.7-0.9,1.1s-0.3,0.6-0.7,1.1
					c-1.3,1.2-2.5,2.5-3.7,3.9l-0.9,1.1l-0.2,0.3l-0.2,0.3c-0.6,0.6-1,0.6-1.4,1.5c-0.2,0.5-0.5,0.6-1,0.9l-1.2,1.1
					c-0.8,1-1.6,1.9-2.5,2.7c-0.5,0.4-0.2,0.6-0.9,1.1l-6,5.4c-0.7,0.6-1.3,1.3-1.9,2c-2.6,2.3-6,6.6-8.7,8.7
					c-1.6,1.3-1,0.7-1.9,2.2l-1.6,1.5c-1,1-0.4-0.5-1.8,1.6c-0.5,0.6-1,1.1-1.7,1.5l-0.7,0.7c-0.7,1.1-2.2,1.4-2.9,2.5
					c-0.5,0.9-0.4,1.1-1.7,1.1c-0.1,1.1-0.8,1.1-1.4,1.8l-1.7,1.7c-0.4,0.4-0.7,0.4-1,0.7s-0.5,0.9-0.8,1.2
					c-0.1,0.1-0.1,0.1-0.3,0.2l-2.2,2.4c-0.1,0.1-0.1,0.2-0.2,0.3c-0.7,0.8-1,0.5-2.2,2.1c-0.5,0.7-1.1,1-1.7,1.7
					c-1.2,1.5-0.5,0.6-1.7,1.7c-0.9,0.9-0.3,1-1.6,1.6c-0.7,0.4-1.3,0.9-1.8,1.6c-0.4,0.5-0.3,0.6-0.7,1c-0.3,0.3-0.6,0.5-0.9,0.8
					c-0.3,0.4-0.4,0.6-0.7,1c-0.5,0.5-0.8,0.6-1,1c-0.6,0.9-1.4,1.8-2.2,2.5c-2.1,2-1.2,1.5-2.2,2.9c-0.3,0.3-0.6,0.5-0.9,0.8
					c-0.8,0.7-0.3,0.2-0.6,1.1c-0.4,0.1-0.7,0.4-1,0.7l-0.9,1.7c0,0,0,0.1,0,0.1c-0.4,0.7-0.9,0.7-0.9,1.7c-0.5,0.1-1,0.3-1.4,0.7
					l-1,1.2c-0.4,0.4-1,0.6-1.3,1.1c-0.6,1.2-0.9,0.1-0.9,1.6c-0.9,0.4-0.3-0.1-0.8,0.8c-0.8,1.3-0.5,0.7-1.2,1.6
					c-0.2,0.2-0.1,0.3-0.4,0.6s-0.7,0.4-0.8,0.9c2.2,0.1,4.3,0.1,6.5,0c2.3,0,2.4-0.4,4.2-2.5l2.2-2.7c0.4-0.3,0.7-0.4,1-0.8
					c0.4-0.6,0-0.4,0.6-1.1l8.5-10.2c1-1.3,2.1-2.4,3.3-3.5l0.3-0.3c0.1-0.2,0.3-0.3,0.5-0.5c2.5-2,1.7-1.8,3.3-3.4
					c0.3-0.3,0.1-0.1,0.3-0.5s0.1-0.2,0.4-0.5l4.9-5.2c0.6-0.6,0.4-0.7,1.6-1.8l3.8-3c0.6-0.5,1.2-1.1,1.7-1.7
					c0.9-0.7,1.8-1.5,2.6-2.3c0.5-0.7,0.2-0.3,0.9-0.8c1.3-1,2.6-2.2,3.8-3.4c0.2-0.2,0.1-0.1,0.2-0.2l0.8-0.9
					c0.3-0.2,1.2-1.5,2.1-2.2l0.9-0.8c0.4-0.3,0.6-0.4,0.9-0.8c0.6-0.5,1.2-1.1,1.7-1.7c0.5-0.6,1.1-1.1,1.7-1.6
					c1.1-0.9,2.1-1.9,3-2.9c0.4-0.6,1.5-1.3,2.2-2.1c0.5-0.6,1.1-1.1,1.7-1.5c0.9-0.6,0.9-1.1,1.7-1.7c1-0.8,1.7-1.7,2.5-2.5
					l0.9-0.8c1.1-1.2,2.1-2.1,3.2-3.4l4.9-5.3c0.3-0.3,0.6-0.6,0.7-0.9c0.5-0.8,0.3-0.3,1-0.7l3.3-3.5c0.5-1,1.3-2,2.2-2.8l0.9-1
					c0.4-0.3,0.3-0.4,0.7-0.9l0.8-0.9c0.3-0.3,0.6-0.6,0.9-0.8c0.4-0.4,0.5-0.6,0.8-0.9c1.1-1,3.5-1.7,4.1-2.6s1.7-1.5,2.7-2.4
					c0.7-0.4,1.3-0.9,1.9-1.4c0.4-0.7,0.9-1.3,1.6-1.8c0.9-0.6,1.7-1.3,2.5-2.1l2.1-1.8c0.5-0.5,1.2-1.2,1.7-1.7
					c1-1.2,2.2-2.4,3.4-3.3c0.2-0.1,0.4-0.2,0.5-0.3c0.6-0.4,1-0.8,1.8-0.5l0.1-8.8c0.1-0.8,0.1-1.6,0-2.4c-0.1-0.4,0-0.1-0.2-0.4
					c0,0-0.1,0.1-0.1,0.1c0,0,0,0.1,0,0.1L394.5,105.1z"/>
				<path class="st3" d="M288.8,221.1c-1.5-0.1-8.2,0.1-8.6,0.2c0.3,0.5,0.1,0.6,1.2,0.7c0,0.8-0.2,0.6,0.4,1.2
					c1.4,1.5,0.6,1.3,2.7,2.5c0.5,0.3,0.6,0.7,1,0.9c0.5,0.3,0.7-0.1,1.1,0.6c0.2,0.4,0,0.2,0.3,0.6l1.8,1.6l0.3,0.2
					c1.1,0.8,1.3,1.8,3.2,3l0.7,0.6c0.1,0.2,0.2,0.4,0.4,0.6c1.2,1.4,2.5,2.7,3.9,3.8c0.4,0.3,0.9,0.3,1.1,0.7
					c0.5,0.9-0.3,0.2,0.7,1l2.9,2.7c1.4,1.6,0.1,0.7,1.7,1.5c1.3,1,2.5,2.1,3.6,3.4c0.4,0.4,1.1,0.8,1.4,1.3l8.5,8
					c0.7,0.5,1.3,1.1,1.8,1.7c0.3,0.3,0.2,0.1,0.5,0.4c0.8,0.7,1.5,1.9,2.3,2.4l1.6,1.4c0.5,0.6,0.2,0.4,0.9,0.9
					c0.3,0.2,0.2,0.1,0.5,0.5l3.2,3c0.1,0.1,0.4,0.4,0.5,0.5l2.2,2.2c0.8,1,1.9,1.4,2.7,2.5c0.5,0.6,1.1,1.2,1.7,1.7
					c0.4,0.3,0.7,0.5,1,0.8s0.5,0.7,0.8,0.9l1,0.7c0.4,0.2,0.6,0.7,0.6,1.1l1-0.1c-0.1,0.5-0.1,0.5,0.2,1s0.5,0.4,0.9,0.7
					s0.5,0.6,0.7,0.8l1.5,1.4c0.5,0.5,0.2,0.4,0.6,0.9l2.4,2c0.3,0.2,0.5,0.5,0.8,0.8l3.1,2.9c0.6,0.5,0.9,0.9,1.5,1.4l6,6
					c0.7,0.9,1.6,1.5,2.3,2.3c1.3,1.6,2.8,3.1,4.4,4.4c0.4,0.3,0.8,0.7,1.2,1.1l0.2,0.1c0.9,0.7,1.6,1.7,2.5,2.5
					c0.9,0.6,1.7,1.2,2.5,2l1.9,2.5c1.2,1.2,1,0.7,1.8,1.1c0.8,1,1.6,1.9,2.4,2.8c0.9,0.6,1.7,1.2,2.4,2c0.4,0.5,0.8,0.5,1.2,1.1
					c0.4,0.4,0.9,0.8,1.3,1.1l0.9,0.9h0.1l0.5,0.4c0.4,0.5,0.8,0.5,1.1,1l0.1,0.2c0.3,0.5,1.2,0.6,2.3,2c0.6,0.7,0.3,1.3,1.6,1.3
					c0,0.9,0.2,0.8,0.7,1.3c0.5,0.6,1.1,1.1,1.8,1.6l1.5,1.3c0.4,0.5,1,0.8,1.7,0.8c0-2.2,0-4.4,0.1-6.5s0-1.4-1-2.2
					c-0.5-0.4-0.2-0.4-0.9-0.8c-0.3-0.1-0.5-0.4-0.6-0.7c0-0.1,0-0.2,0-0.3c-1.3,0-0.9-0.5-1.9-1.4l-0.3-0.2l-3.1-2.9
					c-0.2-0.1-0.3-0.3-0.5-0.5c-0.9-1-1.8-1.8-2.8-2.6c-0.5-0.4-0.4-0.5-0.7-1s-0.4-0.2-0.9-0.7s-0.3-0.6-0.8-0.9c-1-0.9-2-2-3-2.7
					l-2.9-2.7c-0.3-0.2-0.6-0.5-0.9-0.8l-2.5-2.3c-0.5-0.6-0.2-0.4-0.9-0.8s-0.6-0.9-1.6-1.7s-1.7-2.1-2.8-3.1l-0.5-0.5
					c-0.3-0.3-0.6-0.4-0.9-0.7c-0.7-1,0.4,0.3-0.2-0.3c-0.2-0.2-0.2-0.1-0.5-0.3c-0.6-0.5-1.8-2.2-2.9-2.9c-0.5-0.3-0.6-0.3-0.9-0.8
					l-0.1-0.2c-1.2-1.3-2.6-2.6-4-3.8l-2.8-2.8c-1.7-1.9-2.1-2-3.3-3.2c-0.4-0.4-0.4-0.6-0.8-0.9s-0.6-0.5-0.8-0.7
					c-0.5-0.4-0.5-0.2-1-0.7l-1.6-1.7c-0.2-0.1-0.2-0.2-0.4-0.4c-0.1-0.1-0.3-0.3-0.4-0.4l-0.9-0.7c-0.3-0.3-0.5-0.5-0.7-0.8
					c-0.8-0.9-3.3-2.9-4.2-3.9l-1.6-1.6c-0.9-0.7-1.7-1.6-2.4-2.5c-0.5-0.6-0.8-0.6-1.3-1.2l-1.3-1.2c-0.8-0.5-5.2-5-5.8-5.4
					c-1-0.6-1.9-1.4-2.5-2.4c-0.3-0.2-0.5-0.5-0.8-0.7l-6.4-6.5c-0.4-0.2-0.7-0.4-0.9-0.8l-6.4-5.8c-0.2-0.2-0.2-0.2-0.4-0.4
					l-2.6-2.6c-0.1-0.1-0.1-0.2-0.2-0.2l-1.2-1.1c-0.5-0.6-1.2-0.8-1.8-1.5c-0.7-0.9-1.5-1.8-2.4-2.5c-0.9-0.7-1.8-1.4-2.6-2.2
					c-1.2-1.3-1.1-0.7-1.8-1.4c-0.3-0.3-0.5-0.7-0.8-0.9c-0.6-0.4-0.3,0-0.8-0.7s-0.1-0.3-0.9-0.8s-0.7-1.2-1.6-1.7
					c-0.4-0.2-0.7-0.7-1-1l-0.7-1l-0.1-0.1l-0.1-0.1C289.3,221.3,289.5,221.2,288.8,221.1"/>
				<path class="st3" d="M399,131v4.3c0.9,0.5,1.8,1.1,2.5,1.9l1,0.9c0.6,0.6,1.6,1.1,2.4,1.9c0.2,0.2,0.1,0.2,0.3,0.3
					c0.8,0.4,1.6,0.9,2.3,1.4c0.6,0.5,0.6,0.8,1.3,1.1s1,0.5,1.7,0.9c0.5,0.2,1.1,0.6,1.5,1c0.9,0.8,1.8,1.5,2.8,2.1
					c0.6,0.4,1,0.7,1.5,1.1c0.5,0.3,0.9,0.7,1.3,1.1l6.6,5.9c0.8,0.8,1.7,1.6,2.6,2.3c0.3,0.5,0.7,0.9,1.2,1.2l1.5,1.6l0.1,0.1
					l5.7,6c0.4,0.5,0.8,0.9,1.2,1.4c1.2,1,0.5,0.7,1.9,1.8c0.5,0.4,0.2,0.2,0.5,0.7c0.7,0.9,1.6,1.8,2.4,2.6
					c0.2,0.3,0.3,0.4,0.5,0.7l1.1,1.4c0.7,1,2.3,2.1,3.2,3c0.4,0.4,0.6,0.9,1.1,1.4l2.6,2.3c0.3,0.4,0.1,0.4,0.5,0.8
					c0.5,0.5,0.1-0.2,1.4,1.3l7.9,8.2c0.2,0.2,0.4,0.4,0.6,0.6l1.9,2c1.3,1.6,2.7,3.1,4.3,4.5c0.6,0.7,1.1,1.3,1.6,2.1
					c0.6,0.6,1.2,1.2,1.8,1.9c0.8,1.2,0.7,0.8,1.2,1.4c0.8,1.2,1.8,2.3,2.8,3.3l3,3.3c0.4,0.4,0.2,0.3,0.5,0.8l1,1.4
					c0.6,0.6,0.7,1,1.6,1c0,0.5,0.1,1,0.1,1.3c-0.1,0.7-0.2,0.2-0.5,0.9c1,0,9.2,0.1,9.8-0.1c1.5-0.6,1.9-0.6,1-1.2
					c-0.7-0.5-1-1.2-2.5-2.7c-0.3-0.3-0.6-0.6-0.9-0.8c-1.4-1.5-2.9-3.1-4.2-4.7c-0.3-0.4-0.3-0.6-0.6-1c-0.5-0.7-1-1.3-1.6-1.9
					c-0.8-0.6-0.3-0.4-0.8-1.1l-1.8-1.9c-0.5-0.4-0.6-1-1.1-1.4s-0.1-0.1-0.5-0.4c-0.8-0.5-0.7-1.3-1.6-1.9
					c-0.7-0.5-1.2-1.1-1.7-1.8c-0.2-0.3-0.6-0.6-0.9-0.8c-0.6-0.5-0.3-0.5-0.8-1.1l-5.4-5.2c-0.5-0.4-0.4-0.5-0.8-0.9l-1-0.9
					c-0.2-0.2-0.2-0.1-0.4-0.3c-0.2-0.1-0.3-0.3-0.4-0.5l-6-6.4c-0.3-0.3-0.2-0.1-0.4-0.4l-1.4-1.4c-0.3-0.2-0.6-0.5-0.9-0.8
					c-0.5-0.6-0.5-0.4-1-0.8c-1-0.8-1.6-1.9-2.6-2.7c-0.2-0.1-0.3-0.3-0.5-0.4l-3.7-4.3c-0.3-0.3-0.6-0.6-0.8-0.9
					c-0.2-0.4-0.5-0.7-0.9-1c-1-0.9-3.7-4.5-5.2-5.4c-0.2-0.1-0.3-0.2-0.4-0.4l-1-1.4c-0.1-0.1-0.1-0.2-0.2-0.3l-1-0.7
					c-0.5-0.4-0.5-0.4-0.6-1.3c-0.5,0-1.1,0-1.4-0.5s0.1-0.1-0.3-0.6c-0.2-0.2-0.3-0.3-0.5-0.4c-0.4-0.4-0.4-0.8-0.8-1.1
					c-1.1-0.8-0.3,0-0.8-1c-0.2-0.3-1.6-1.3-2-1.7l-1.4-1.4c-1.6-1.3-3-2.7-4.4-4.2c-0.9-0.9-2.1-1.6-2.9-2.6
					c-0.5-0.6-0.3-0.5-1.2-0.8V142c-1.1-0.2-1.9-1.3-3-1.9s-1.6-1.6-2.8-2.1s-1.7-1.4-2.8-2.1c-0.5-0.3-1-0.7-1.5-0.9
					c-1.2-0.6-0.6-0.2-1.4-1.1c-1.1-1.2-3.3-2.4-3.8-3c-0.1-0.1-0.2-0.2-0.3-0.4c-0.5-0.5-1.5-1.1-2-1.7l-3.5-3.6
					c-0.3-0.3-0.3-0.6-0.8-0.6c-0.4,0.8,0.1,0.3,0.1,1.1c0,0.5-0.2,1.1-0.3,1.6C398.9,128.4,399,129.9,399,131"/>
				<path class="st2" d="M304,217.8c1.5,0,5.4-0.3,6.6,0c1.9,0.4,3.5-1.7,4.6-2.8c0.3-0.5,0.7-0.9,1.1-1.4l2.6-2.3
					c1.4-1.4,5.2-5.3,5.8-6.7c0.4-0.9,0-0.3,1.2-1.3c0.4-0.4,0.8-0.9,1.1-1.4c0.4-0.6,0.8-0.7,1.2-1.3c1.1-1.4,2.3-2.7,3.7-3.8
					l6.3-6c0.9-0.9,1.6-1.7,2.6-2.5s1.6-1.7,2.5-2.4c0.6-0.4,0.8-0.8,1.3-1.2c0.5-0.4,1-0.8,1.4-1.2c0.5-0.4,0.9-0.7,1.4-1.1
					l2.5-2.4c2.1-2.1,4.3-3.9,6.5-6c0.4-0.4,0.8-0.8,1.2-1.2c0.2-0.2,0.5-0.4,0.7-0.6c0.9-1,2.3-1.9,3.2-3.1
					c0.5-0.6,0.8-0.4,1.4-1.1c0.8-0.9,1.6-1.7,2.4-2.5l4-3.6c0.9-0.7,1.8-1.6,2.6-2.5c0.4-0.4,0.5-1,1-1.5l1.9-1.8
					c0.2-0.2,0.4-0.5,0.6-0.6c0.4-0.4,0.4-0.2,0.7-0.5l3.2-2.9c0.5-0.5,0.6-0.9,1.3-1.2c1.1-0.5,1-0.9,2-1.8
					c0.3-0.3,0.4-0.3,0.6-0.6c0.5-0.4,0.6-1,1.1-1.4c0.4-0.4,0.9-0.8,1.2-1.2c0.5-0.6,0.8-0.8,1.3-1.3s0.9-0.6,1.3-1.1
					c0.3-0.5,0.8-0.9,1.3-1.1c0.8-0.5,0.4-0.6,1.5-1c0.6-0.2,0.3-0.1,0.7-0.5s-0.1-0.3,1-0.4c0.1-0.9,0-0.4,0.3-0.9
					c0.2-0.3,0.3-0.5,0.5-0.7c0.4,0,0.8,0.2,1.1,0.4c-0.1-0.6-0.2-0.4,0-0.8c0.3-0.6,0.2,0.4,0.4-0.7c0.1-0.7,0.1-1.4,0.1-2.2v-7.6
					c-0.6,0.2-1.3,0.5-1.8,0.9c-0.7,0.5-0.8,0.9-1.5,1.3l-6.4,6.2c-0.3,0.3-0.4,0.3-0.7,0.6c-0.5,0.5-1,1-1.6,1.4
					c-0.9,0.7-1.9,1.8-2.9,2.6l-4.4,4c-0.2,0.2-0.5,0.4-0.7,0.7c-0.6,0.8-1.3,1.6-2.1,2.3c-1,0.9-1.6,2.1-2.6,3
					c-2.6,2.2-4.3,5.1-7,7.2c-0.8,0.6-0.6,0.9-1.3,1.5l-4.3,4.2c-0.6,0.5-0.9,0.9-1.4,1.3c-1.6,1.3-3,2.7-4.3,4.3
					c-0.5,0.6-1,0.7-1.5,1.3c-0.2,0.3-0.4,0.5-0.7,0.7l-4,3.7c-0.4,0.4-0.2,0.4-0.6,0.8c-2.5,1.8-0.9,1.4-2.6,2.5l-4.6,3.9
					c-0.3,0.2-0.6,0.5-0.8,0.7l-1.4,1.4c-0.6,0.5-0.9,1-1.4,1.4c-0.3,0.3-0.4,0.3-0.8,0.6l-3.8,3.9c-0.7,0.5-1.4,1.1-2,1.7
					c-1.4,1.5-2.8,2.8-4.2,4.3c-0.3,0.4-0.3,0.4-0.6,0.8l-5.4,6c-0.8,1.1-1.6,2.1-2.6,3.1c-0.9,0.8-1.8,2.4-2.7,2.9
					c-1,0.6-3,3.2-4.2,4.3c-0.6,0.5-0.8,1.1-1.3,1.6s-1.1,0.8-1.6,1.2c-0.6,0.6-0.1,0.3-0.5,0.9S304.2,216.9,304,217.8"/>
				<path class="st2" d="M480.2,218.5c0,1,0,0,0.4,0.9c-0.4,0.4-0.9,0.5-1.3,0.8c-0.6,0.5-0.2,0.6-1.1,1.1c-0.7,0.4-0.6,0.5-1,1.1
					l-0.4,0.6c-0.2,0.2,0.1,0-0.3,0.2l-1.6,1.2c-0.4,0.3-0.6,0.8-1,1.1c-0.2,0.1-0.4,0.3-0.5,0.6l-1.7,1.7c-0.4,0.4-0.7,0.7-1.1,1
					l-3.1,3.4c-0.3,0.4-0.7,0.8-1.2,1c-0.7,0.5-0.4,0.6-1,1.2c-0.8,0.8-1.4,1.5-2.2,2.3l-4.3,4.4c-0.4,0.4-0.6,0.6-1.1,1.1
					c-0.4,0.3-0.7,0.7-1,1.1l-3.5,3.1c-0.9,0.6-1.1,1.7-2,2.3c-0.4,0.3-0.8,0.6-1.2,1c-1,1-2.1,1.9-3,3c0,0,0,0.1-0.1,0.1l-3,2.9
					c-0.2,0.2-0.4,0.4-0.5,0.6l-3.4,3c-0.8,0.6-0.4,0.5-1,1.2c-0.4,0.5-0.8,0.6-1.2,1s-0.1,0.2-0.5,0.6c-0.2,0.2-0.3,0.5-0.6,0.6
					c-1.5,1.3-3,2.8-4.3,4.3c-1.3,1.7-3.3,2.9-4.5,4.7c-0.5,0.8-1.5,1.3-2,1.9l-3.1,3.3c-0.3,0.4-0.7,0.8-1.2,1
					c-0.4,0.3-0.7,0.7-1,1.1c-0.3,0.3-0.3,0.2-0.6,0.5c-0.4,0.4-0.2,0.3-0.5,0.7c-1,1.1-2.1,2.2-3.3,3.2c-0.4,0.4-0.7,0.8-1,1.2
					c-0.7,0.7-1.6,1.2-2.2,2.1c-0.2,0.4-0.1,0.3-0.5,0.6l-1.2,0.9c-0.3,0.2-0.5,0.2-0.8,0.4c-0.4,0.4,0,0.1-0.2,0.4
					s-2.5,2.3-3.5,3.6c-0.5,0.7-0.8,0.5-1.3,1.3c-0.3,0.6-3.1,3-3.9,3.9c-0.3,0.3-0.3,0.4-0.6,0.7c-0.5,0.4-0.8,0.3-1,0.8
					c0,0.1-0.1,0.2-0.1,0.4c-0.3,0.7-1.2,0.7-2,0.8v9.2c1.5-0.8,4.5-3.9,5.9-5.5c0.9-1,1.8-2,2.8-2.9c0.5-0.5,0.9-0.9,1.4-1.3
					c0.3-0.3,0.4-0.5,0.6-0.7l6.7-6.3c0.5-0.6,0.9-0.8,1.4-1.4l3.6-3.7c0.3-0.3,0.5-0.5,0.8-0.7c0.4-0.4,0.8-1,1.3-1.5
					c0.3-0.3,0.4-0.4,0.7-0.7s0.4-0.5,0.7-0.8l10.1-9.9c0.5-0.5,1-1,1.4-1.5l2.9-2.8c1.5-1.4,2.9-2.9,4.2-4.4l1.5-1.5
					c0.4-0.5,0.9-1,1.4-1.4l8.1-7.6c0.4-0.4,0.2-0.4,0.6-0.8s0.5-0.3,0.8-0.6l3.7-3.6c1-0.9,2.1-1.8,3-2.7c0.7-0.9,3.6-3,4.5-4.1
					c1.9-2.1,3.8-3.7,5.7-5.7c0.3-0.3,0.5-0.4,0.7-0.7s0.4-0.4,0.8-0.8l1.3-1.5c1.2-1.2,2.5-2.3,3.6-3.6c0.7-0.8,2.8-2.5,3.7-3.5
					c0.2-0.2,0.5-0.4,0.8-0.6l2.8-2.9c0.2-0.2,0.4-0.5,0.6-0.8c0.7-0.8,1.2-1.1,2.2-2.1c0.4-0.4,2.3-1.8,2.2-2.3
					c-0.2-0.3-0.5-0.5-0.8-0.5c-0.3,0-0.7,0.3-1.1,0.4c-0.9,0.1-0.5-0.1-1-0.4c-0.6-0.3-4.8-0.1-5.9-0.1c-0.2,0-0.6,0-0.8,0
					L480.2,218.5z"/>
				<path class="st3" d="M361.4,277.5c0,0.6-0.1,0.4,0.2,0.8c0.4,0.6,1,0.9,1.5,1.4l1,0.8c0.5,0.3,0.6,0.8,1,1.2l2,2
					c0.1,0.2,3.4,3.3,4.2,4.3c0.2,0.2,0,0,0.2,0.3l1.6,1.5c0.4,0.4,0.7,0.5,1.1,0.9c0.7,0.7,1.4,1.1,2.1,1.9l0.4,0.6
					c0.5,1,1.2,1,2.5,2.4c0.3,0.3,0.6,0.7,0.9,1.1c0.6,0.8,0.5,0.4,1,1s0.5,0.6,0.9,1.1s0.6,0.2,1,1c0.1,0.2,0.2,0.4,0.3,0.6
					l0.9,1.1c0.4,0.3,1.2,0.7,1.8,1.3l0.9,1.1c0.4,0.5,0.7,0.3,1.4,1.5l0.5,0.6c0.9,1,0.1,0.2,1.6,0.9c0.9,0.4,2.5,2.6,2.7,2.7
					c0-1.6,0-3.2,0-4.8c0-0.8,0-1.7,0-2.5c0-1.5-0.5-0.3-0.2-1.9l-1-0.7c-0.5-0.3-1-0.7-1.4-1.1c-0.6-0.8,0-0.9-1.4-1.2
					c-0.1-0.6-0.2-0.6-0.6-1l-0.9-1c-0.1-0.1-0.2-0.3-0.4-0.4c-1.1-1.1-0.3-0.8-1.5-0.9c-0.1-1.3,0-0.8-0.8-1.4l-2.7-2.7
					c-0.2-0.2-0.3-0.4-0.5-0.6L380,287c-0.5-0.5-0.7-0.5-1.1-1c-1.1-1.1-2.2-2.1-3.4-3l-2.1-2.2c-1.2-1-2.3-2-3.3-3.1
					c-0.3-0.5-0.9-0.8-1.5-0.8c0-0.9,0.3-0.5-0.4-1c-0.3-0.3-0.6-0.5-0.9-0.8c-0.6-0.6-1.1-1.2-1.6-1.8l-11.4-10.8
					c-0.5-0.6-0.1-0.4-0.8-0.9c-1-0.7-1.6-1.8-2.6-2.5c-0.3-0.3-0.6-0.5-0.9-0.8l-2.6-2.6c-1.2-1-2.2-2.3-3.4-3.4
					c-0.3-0.3-0.6-0.6-0.9-0.8c-0.8-0.6-1.5-1.3-2.2-2.1c-0.2-0.2-0.3-0.2-0.5-0.4l-5-5.1c-0.1-0.2-0.2-0.2-0.4-0.4
					s-0.1-0.1-0.2-0.2l-2.9-2.7c-0.3-0.3-0.5-0.6-0.8-0.9c-1.1-1.2-2.3-2.3-3.6-3.3c-0.7-0.5-1.3-1-1.9-1.6c-1.3-1-2.4-2.1-3.5-3.2
					c-0.6-0.9-1.1-1.1-1.7-1.9c-0.5-0.6-0.9-0.5-1.4-1c-1-1.1-2-2-3.2-2.9c-0.9-0.5-0.4-0.2-0.8-0.9s-0.4-0.4-0.9-0.8
					s-0.1-0.5-1.1-0.7c0-1-0.7-1.4-1.2-2l-0.3-0.3c-1.3-0.1-2.5,0-3.8,0.2c-1.3,0.4,0.1-0.1-1.3-0.1c-0.6,0-1.1,0-1.7,0
					c-0.5,0-1,0.2-1.5,0.4c-0.3,0.2-0.6,0.3-0.1,1c1,1.4,2.1,2.1,3.6,3.7c0.7,0.8,2,1.2,3.4,3.4c0.5,0.8,0.3,0.5,1,1l0.4,0.5
					c0.2,0.2,0.4,0.3,0.6,0.5c1,0.9,1.9,1.9,3,2.9c0.8,0.7,1,1.2,1.9,1.9s2,1.9,3,2.9c0.4,0.4,0.6,0.4,1.1,0.9
					c0.6,0.7,1.3,1.3,2,1.9l0.1,0.1l0.7,0.7c0,0,0.1,0,0.1,0.1l4.6,4.4c0.1,0.1,0.4,0.4,0.5,0.6c0.4,0.4,0.6,0.4,1,0.8l1,1
					c0.5,0.5,0.3,0.4,0.9,0.9l1.5,1.4c0.3,0.4,0.1,0.3,0.4,0.6s0,0,0.3,0.2l0.1,0.1c0.6,0.3,0.8,0.6,1.2,1.1s1.3,0.8,1.7,1.4
					c1,1.2,2.3,2.1,3.3,3.2l4.5,4.5c0.2,0.2,0.2,0.3,0.5,0.5s0.3,0.1,0.6,0.3s0.4,0.8,0.9,1.1c0.2,0.2,0.4,0.2,0.6,0.4
					c0.6,0.5,0.5,0.8,1.5,1.4c0.7,0.6,1.4,1.2,1.9,1.9l0.2,0.2c0.5,0.4,0.8,0.4,1,0.9c0.2,0.3,0,0.1,0.2,0.3s0.5,0.2,0.8,0.3
					c1.1,0.5-0.1,0.3,0.8,1.1c0.7,0.6,0.5,0,1.1,0.9s2.4,1.9,3,2.7c0.3,0.4,0.6,0.7,1,1c1.2,0.9,1,1.6,2.3,1.6"/>
				<path class="st3" d="M400.1,148c0,0.1-0.1,0.9-0.1,0.9c-0.2,0.6,0.3,0.3-0.6,0.4l0.6,0.5c-0.2,0.5-0.1,0.1-0.2,0.5
					c-0.1,0.2-0.1,0.5-0.1,0.6c-0.2,0.8-0.5,0.7-0.4,0.7c0.1,2.1-0.5,2.5-0.3,3.8c0,0.5,0.3,1,0.7,1.4l1.1,0.8l0.1,0.1l0.1,0.1
					c0,0,0.1,0,0.1,0.1c-0.4,1.1-0.1,1.3,0.9,2c0.4,0.3,0.6,0.4,1,0.7l2.9,2.5c0.9,0.9,1.8,1.7,2.7,2.5c2.4,1.8,6,5.1,7.9,6.2
					c1.1,0.7,1.8,1.9,2.9,2.5c0.8,0.3,1.5,0.8,2.1,1.5l6.4,6.3l0.1,0.1c1,1.1,0.2-0.3,1.6,1.5c0.4,0.4,0.6,0.5,1,0.9s0.5,0.7,0.7,1
					l1.7,1.8c1,0.8,1.9,1.7,2.7,2.7l1.7,1.8c0.5,0.4,0.1,0,0.5,0.3c0.5,0.9,1.2,1.7,2,2.4c1,0.9,1.8,1.8,2.5,2.9
					c0.6,1,1.7,1.9,2.4,2.8c0.4,0.5,0.6,0.5,0.9,0.9s0.4,0.7,0.7,1c2.3,2.9,5,5.7,7.6,8.4c0.4,0.4,0.5,0.7,0.8,0.9
					c0.5,0.4,0.9,0.9,1.2,1.6c0.2,0.4,0.1,0.1,0.2,0.6c0,0.7,0.3,0.2,0.3,1.1c0.6-0.4,0.9,0.2,1.3,0.6c-0.1,0.8-0.2,0.1-0.4,0.9
					c2.5,0,5.2,0.2,7.7,0c0.8-0.1,0.6-0.2,1.4-0.3c0.6-0.1,1.3,0,1.9,0c-0.1-0.6-0.3-1.1-0.6-1.6c-1.1-1.6-0.3-1-2.6-2.8
					c-0.5-0.4-0.3-0.4-0.6-0.6c-0.8-0.6-1.5-1.4-2.1-2.2c-0.4-0.6-0.6-0.3-1.1-1s0-0.9-1.2-1.1c-0.1-1.1-0.6-0.6-1.6-2.1l-0.7-1
					c0,0,0-0.1-0.1-0.1l-1.3-1.5c-0.4-0.6-0.2-0.1-0.5-0.4s-0.3-0.9-0.7-1.2c-1.3-1-0.8-0.8-2-2.1l-0.1-0.1
					c-0.5-0.6-0.9-1.2-1.5-1.8l-6.3-6.8c-0.3-0.3-0.5-0.8-0.8-1.1c-0.6-0.7-1.2-1.2-1.8-1.9c-0.3-0.4-0.6-0.7-1-0.9
					c-0.4-0.3-0.5-0.6-0.9-0.9l-4.3-4.6c-1.1-0.9-2.1-1.9-3-3c-0.6-0.9-1.3-1.1-1.9-2c-0.8-1.2-1.5-1.4-2.3-2.4l-0.7-0.7
					c-0.3-0.3-0.2-0.5-0.6-0.8s-0.6-0.2-1-0.9c-0.4-0.8-1-1.5-1.6-2.1c-0.4-0.3-0.8-0.6-1.2-0.8l-1.8-1.9c-0.6-0.6-1.6-0.8-2.3-1.4
					c-0.7-0.6-1.4-1.1-2.1-1.6c-0.6-0.3-0.6-0.5-1-0.8c-1-0.7-1.3-1.3-2.1-1.8c-0.6-0.4-0.7-0.1-1.1-0.8c-0.4-0.5-0.9-1-1.4-1.4
					c-1.4-1.1-1.8-2-2.3-2.3l-4.9-3.5c-0.4-0.3-0.5-0.7-1.4-1.4c-0.7-0.5-1.2-1.2-1.8-1.8c-0.3-0.3-0.7-0.6-1.1-0.8
					c-0.4-0.4-0.9-0.6-1.5-0.6L400.1,148z"/>
				<path class="st2" d="M392.5,150.6c-0.6,1.9-0.1,0-1.3,1.5l-10.5,10c-1,0.9-3.9,4-5.9,5.7c-1.2,1-2.3,2-3.3,3.1l-1.9,1.9
					c-0.6,0.5-0.4,0.1-0.3,0.9c-1,0.1-2.4,1.7-3,2.4c-0.4,0.5-0.8,0.9-1.3,1.3c-0.7,0.5-0.7,0.8-1.4,1.4l-2.9,2.5
					c-0.2,0.2-0.4,0.6-0.6,0.8s-0.4,0.2-0.8,0.6l-4.1,4c-0.4,0.5-0.9,0.9-1.4,1.4c-3,2.4-5,5.1-6,6l-1.6,1.4c-0.4,0.5-0.9,1-1.3,1.4
					c-0.9,0.7-0.2,0.8-1.2,1.4s-1.7,1.8-2.7,2.7l-1.3,1.5c-0.2,0.3-0.3,0.6-0.6,0.8l-0.6,0.7c-0.5,0.4-0.3-0.1-0.7,0.7
					c-0.7,1.4-1.5,1.1-2,2c-0.2,0.3-0.3,0.6-0.6,0.9l-2.6,2.9c-1.1,1.2-3.3,3.3-3.9,4.2c-0.9,1.4-2.3,1.2-2.6,3c1.1,0,9,0.1,9.5-0.3
					s0-0.1,0.4-0.5s0.3-0.1,0.7-0.4c0.9-0.6-0.4-0.5,0.6-1.1c0.7-0.3,1.3-0.8,1.7-1.4c0.6-1.1,0.5-0.7,1.4-1.5
					c0.4-0.3,0.7-0.7,0.9-1.1c0.3-0.5,0-0.1,0.4-0.5l1.9-2.1c0.4-0.6,0.4-0.7,0.9-1.1l3.3-3.6c0.4-0.4,0.5-0.7,0.9-1.1
					c0.7-0.7,1.3-1.3,1.9-2.1l5.8-6.1c0.7-0.6,1.4-1.3,2-2c0.3-0.4,0.6-0.7,1-1l2.1-1.9c0.4-0.4,0.5-0.7,0.8-1s0.6-0.4,1.1-0.9
					s0.7-0.5,1.1-0.9s0.5-0.7,0.9-1.1s1-0.6,1.1-0.9l0.1-0.2c0,0,0-0.1,0-0.1s-0.1,0,0.1-0.3l0.5-0.4c0.4-0.4,0.9-0.5,1.3-0.9
					c0.2-0.2,0.3-0.3,0.5-0.5c0.2-0.2,0.4-0.3,0.6-0.5c0.5-0.4,0.5-0.5,0.9-1l2.1-1.9c0.7-0.6,1.4-1.3,2-2c0.3-0.3,0.7-0.6,1.1-0.9
					c0.8-0.6,1.4-1.3,2.1-1.9l2.1-1.8c0.4-0.4,0.7-0.4,1.2-0.8s0.5-0.7,1-1c0.9-0.7,1.3-1.2,2.1-1.9c0.7-0.6,1.4-1.2,2.1-1.9
					c0.9-1,1.9-1.9,3-2.8l3.5-3.4l1.9-1.2l0.2-10.4c-0.3,0.6,0,0.5-0.8,0.9C393.4,150.4,393,150.5,392.5,150.6"/>
				<path class="st2" d="M455.5,222.2c0,0.1,0,0.1,0,0.3c-0.3,0.9-0.6,0.4-1.3,0.8c-0.8,0.5-0.4,0.3-0.9,1l-0.3,0.3
					c-0.5,0.5-0.5,0.9-1.6,2.1l-0.1,0.1c-0.2,0.4-0.5,0.7-0.8,1l-1.7,1.6c-0.4,0.4-0.1,0.3-0.6,0.7c-1,0.8-1.7,1.9-2.7,2.7
					c-1.4,1.1-1.9,2.2-2.7,2.9c-2.9,2.2-1,1.5-2.6,2.8c-0.7,0.6-1.1,1.3-1.8,1.8l-1.8,1.7c-0.3,0.4-0.1,0.2-0.5,0.5
					c-1.2,0.9-1.7,2.2-4,4.2c-1.5,1.4-0.6,0.9-1.9,1.8c-0.7,0.5,0,0.4-0.9,1s-0.5,0-1,0.8l-3.5,3.7c-1.4,1-2.6,2.2-3.7,3.5
					c-0.6,0.8-1.8,1.6-2.8,2.6c-0.3,0.4-0.6,0.5-0.9,1c-0.3,0.4-0.5,0.7-0.8,1c-0.6,0.5-0.8,0.5-1.3,1.2l-0.4,0.6c0,0,0,0.1,0,0.1
					l-0.1,0.1l-0.4,0.2c-0.4,0.2-0.4,0.5-0.6,0.7l-2.1,1.6c-2.4,2.2-1.3,1.9-2.6,2.8c-0.9,0.5-2.2,2.3-3.2,3.1s-2.2,2.2-3.2,3.1
					c-0.4,0.4-0.4,0.6-0.9,0.9c-0.9,0.6-1.1,1.3-1.9,1.8c-1.9,1.4-1.8,1.2-1.8,3.5l-0.1,7.5c1-1.2,2.3-2,3.4-3.1l3.3-3.2
					c0.7-0.8,1.2-1.4,2.1-2.2c0.4-0.4,0.6-0.8,1-1.1c2.6-2.4,5.1-5.1,7.7-7.5l4.3-4.5c0.8-0.7,1.5-1.3,2.3-2c0.6-0.5,0.2-0.5,1-1.1
					c0.6-0.5,1.2-1.1,1.7-1.7c0.5-0.6,1.1-1,1.7-1.6c0.4-0.4,0.7-0.8,1-1.1l7.7-7.6c0.4-0.3,0.8-0.6,1.1-1c1-1.3,2.1-2.1,3.1-3.4
					c0.5-0.6,1.7-1.4,2.3-2.1s0.2-0.7,1-1.1l1.1-1c0.7-0.7,1.4-1.4,2-2.3s1.8-1.6,2.2-2.1c1-1.2,2.1-2.3,3.3-3.3l3.2-3.3
					c1.6-1.3,3.1-2.8,4.4-4.4c1.2-1.6,3-2.7,4.4-4.3c0.2-0.2,0.2-0.4,0.5-0.6c2.9-3.1,1.9-3.4,4.3-4.8c-0.5-0.9-1.1-0.5-2.4-0.5
					C460.8,218.6,458.7,218.1,455.5,222.2"/>
				<path class="st3" d="M324.9,221.2c0.1,0.3,0.2,0.5,0.3,0.7l4.5,4.4c0.4,0.3,0.6,0.6,1,1c1.6,1.6,2.7,2.4,4.5,4.4l1.4,1.6
					c0.7,0.7,1.6,1.2,2.3,1.9l7.2,6.7c0.4,0.4,0.8,0.5,1.1,0.9c0.9,0.8,2.3,2.5,3,3.1c0.2,0.1,0.4,0.3,0.5,0.4l3.6,3.4l0.2,0.2
					l0.2,0.2l3.4,3.1c0.3,0.3,0.2,0.4,0.6,0.8l4.1,3.9c0.7,0.6,1.4,1.3,2,2c1.8,1.4,4.7,4.7,6.7,6.4c1.4,1.2,2.6,2.7,4.1,3.9
					l4.5,4.4c0.1,0.1,0.2,0.2,0.2,0.2c0.9,0.8,1.6,1.8,2.3,2.3l6,6c0.6,0.7,0.2,0.5,1.2,0.8c0.1,0.3,0.1,0.6,0.2,0.9
					c0.3,0.7,1.1,0.4,1.4,1c0.1,0.4,0.2,0.8,0.1,1.1c1.3-0.1,0.7,0.4,1.8,0.9c0.1-0.8,0.3-7.5,0-8.6l-0.1-0.3
					c-0.2-0.6-0.1-0.7-0.5-1.1c-0.3-0.3-0.7-0.5-1.1-0.6c0-0.1,0-0.6,0-0.6c-0.1-0.5-1-0.8-1.4-1.3s-0.6-0.6-0.9-0.9
					c-0.3-0.3-0.7-0.5-1-0.8c-0.3-0.4-0.4-0.6-0.8-0.9l-0.8-0.6c-0.7-0.8-1.4-1.3-2.1-2l-2.7-2.7c-0.4-0.4-0.1-0.1-0.4-0.5
					c-0.5-0.7-6.7-6.3-7-6.7c-1.2-1.3-2.4-2.5-3.7-3.7c-0.5-0.5-0.6-0.4-1-0.8s-0.3-0.5-0.8-0.9l-3.7-3.7c-1-1-1.7-1.8-2.8-2.8
					c-1.3-1.1-2.4-2.4-3.7-3.6c-0.2-0.1-0.3-0.3-0.4-0.5c-1-1.1-2.1-2.2-3.2-3.2c-0.6-0.6-1.2-1.2-1.8-1.8l-3.7-3.7
					c-0.8-0.8-1.3-0.9-2-1.7c-0.3-0.3-0.5-0.5-0.8-0.8c-0.6-0.7-1.4-1-2-1.7s-0.9-1.3-1.8-1.9c-0.5-0.3-0.1,0-0.5-0.4l-2.5-2.2
					c-0.7-0.5-0.4-0.1-0.9-0.8c-0.3-0.3-0.6-0.6-0.9-0.9c-0.4-0.3-0.8-0.4-1.1-0.8s-0.4-0.7-0.9-1c-0.8-0.6-0.8-1.2-1.8-1.9
					c-0.7-0.5-0.5-0.2-1.3-0.1s-0.8-0.2-1.1-0.7l-1.7,0.1C328.4,221.4,327.7,219.9,324.9,221.2"/>
				<path class="st3" d="M398.8,170.6c1,0.3,0.8-0.6,1.1,0.7c-0.4,0.3-0.6,0.1-1.1,0.1v1.7l1.2,1.4l-0.5,0.4c0,0,0.1,0,0.1,0.1
					l0.3,0.6c-0.7,0-1,0.2-1,0.9c0.1,0.1,0.3,0.2,0.4,0.2h0.1l0.5,0.2c-0.2,0.2,0,0.1-0.3,0.2l-0.4,0.1l0.4,0.4l-0.6,0.4
					c0.4,0.2,0.8,0.4,1.2,0.4c-0.3,2.6,0.3,1.6,1.7,2.6c0.6,0.4,0.5,0.6,1.3,1c1,0.5,0.4,0.5,1.2,1.3c0.9,1,2.1,1.8,3.1,2.8
					c0.2,0.2,0.4,0.4,0.6,0.6c0.6,0.6,1.2,1.2,1.9,1.7c0.9,0.6,1.5,1.5,2.5,2.1l7,6.3c0.9,0.7,1.7,1.4,2.4,2.2
					c0.1,0.2,0.3,0.4,0.4,0.6c0.3,0.3,0.4,0.3,0.6,0.6c0.4,0.5,0.8,0.9,1.3,1.3l0.2,0.1l0.8,1.1c0.2,0.3,0.3,0.3,0.6,0.6l1,1.1
					c0.8,0.7,1.3,1.5,1.9,1.9c0.9,0.7,1.2,1.8,2.2,2.4c0.8,0.8,1.5,1.7,2.1,2.6l1.6,1.9c0.4,0.7,0.9,0.9,1.4,1.5s1.4,0.6,1.8,1.4
					h8.5l0.9-1c-0.1-0.1-5.2-5.4-5.7-5.7c-1.1-0.9-2-2-2.8-3.1c-0.4-0.4-0.5-0.2-0.8-0.6c-0.2-0.2-0.3-0.5-0.5-0.8L431,198
					c-0.4-0.4-0.6-0.2-1-0.4l-0.7-0.5c-0.4-0.5-0.1-0.9-0.8-1.5c-0.1-0.1-0.2-0.1-0.2-0.2l-4.1-3.9c-0.4-0.3-0.3-0.4-0.6-0.8
					c-1.4-1.5-7.1-6-8.8-7.4c-0.9-0.4-1.7-1-2.4-1.6c-0.3-0.3-0.5-0.4-0.8-0.6l-12.8-11.4L398.8,170.6z"/>
				<path class="st3" d="M350.4,224.8c0,0,0.1,0.1,0.1,0.1l0.2,0.4c0.5,1,2.3,2.1,3.2,3.1c0.6,0.6,1.3,1,1.8,1.7
					c0.8,1.1,1.5,0.9,1.4,2.3c1,0.1,0.8,0.1,1.4,0.6l2.1,2c0.5,0.4,0.7,0.6,1.1,1l0.9,1.1c0.7,0.6,1.3,1.2,1.9,1.8l2.4,2.3
					c1.9,1.6,3.4,3.9,5.3,5.3c0.8,0.7,1.5,1.4,2.1,2.2c0.7,0.8,1.5,1.1,2.2,2l1.1,1c1,0.9,4.9,4.9,6.4,6.2c0.4,0.4,0.7,0.6,1.1,1
					c1.1,1,2,2.2,3.1,3.2l1.1,1c0.6,0.5,2.1,1.5,1.3,2.5c0.7,0.2,0.3,0.2,0.7,0.5s0.3,0.2,1,0.3c-0.2,0.9-0.2,0.3-0.4,1
					c0.5,0.2,1.1,0.3,1.6,0.3l0.1-10.3c-0.7-0.5-1.4-1.1-1.9-1.8c-0.4-0.6-0.4-0.4-0.9-0.7c-0.8-0.5-0.9-1.3-1.6-1.9
					c-0.4-0.3-0.7-0.5-1-0.8l-2-1.7c-0.2-0.3-0.5-0.7-0.7-1c-0.3-0.3-0.7-0.6-1-0.9c-1.5-1.7-5.9-5.2-6.6-6l-4.5-4.5
					c-0.9-0.8-1.7-1.9-2.7-2.7c-0.3-0.3-0.7-0.6-0.9-0.9l-2-2c-0.1-0.1,0,0-0.2-0.3l-1.4-1.4c-0.3-0.4-0.5-0.7-0.8-1
					c-0.5-0.6-0.6-0.4-1.3-0.2c0.1-0.8,0.1,0,0.3-0.9c-1.5-0.6-1.2-0.7-2.6-2.2l-1-0.8c-0.3-0.3,0,0-0.3-0.3l-0.6-0.6
					c-0.4-0.3-0.4-0.2-0.8-0.4l-1.7-2.6c-0.5-0.8-0.2-0.1-0.8-0.7s-0.8-0.7-2.2-0.7h-3.1h-2.9c-2.6,0-0.4,1.2,0.1,2l0.5,0.7
					C349.8,224.9,349.5,224.2,350.4,224.8"/>
				<path class="st2" d="M434.8,223c-0.5,0.5-0.9,0.8-1.4,1.3l-5.1,5.1c-0.7,0.6-1.3,1.2-1.9,1.8c-2,1.9-2.7,2.8-4.5,4.5l-6.4,6.4
					c-0.4,0.8-0.5,0.7-1.2,1.2l-4,3.7c-0.5,0.7-1.1,1.3-1.8,1.9l-1.9,2c-0.5,0.6-0.9,0.7-1.3,1.3c-0.7,1-1.5,1.9-2.5,2.6l-3.8,3.8
					c-0.2,0.3-0.3,0.6-0.4,0.9c-0.2,0.6-0.5,0.6-0.5,0.9l0,7.1c0.1,0,0.1,0,0.1,0l0.6,0.1c0.4,0.2,0,0.2,0.4,0.3
					c0.5-0.4,0.3-0.3,0.6-0.7l0.7-0.7c0.7-0.7,1.4-1.4,2.1-2.1c0.5-0.7,1-1,2.1-2.2l1.4-1.4c0.4-0.5,0.9-0.7,1.5-1.3l5.5-5.7
					c0.6-0.6,2.1-2.3,3.5-3.5l2.1-2.1c0.4-0.5,0.2-0.4,0.7-0.7s0.3-0.1,0.7-0.7c0.1-0.2,2-1.7,2.9-2.8l8.2-8.5
					c1.2-1,5.3-5.9,6.9-7.2l2.1-2.1c0.5-0.4,0.5-0.3,0.8-0.6c0.6-0.5,0.4-0.8,1.3-1.4c0.4-0.3,1-1.3,1.9-2.1c1.2-1,1.5-0.8,2.2-2.5
					c-3.3-0.2-3.2-0.7-7.1-0.7C438.9,220,436.9,220.7,434.8,223"/>
				<path class="st2" d="M393,172.7c-0.7,0.1-1.3,0.5-1.8,1c-1.5,1.3-3,2.7-4.4,4.2c-0.3,0.2-0.4,0.4-0.7,0.7
					c-0.8,0.6-1.6,1.3-2.3,2c-0.5,0.5-1,0.9-1.5,1.3c-0.5,0.5-1,1-1.6,1.4c-1.6,1-4.2,4-6,5.4c-1.1,0.8-2,1.8-2.8,2.9l-2.9,2.8
					c-1.5,1.1-2.9,2.2-4.2,3.5l-1.7,2c-0.6,0.6-0.7,1.1-1.2,1.6l-1.7,1.8c-0.1,0.1-0.3,0.3-0.4,0.4l-1.4,1.4
					c-0.2,0.3-0.5,0.6-0.7,0.8c-1,1.1-1.4,1.8-2.7,3l-5.6,5.8c-0.5,0.4-1,0.8-1.4,1.3c-0.5,0.8-1,0.8-1.4,1.5l8.7-0.1
					c1.1,0,2-0.6,2.5-1.5c0.3-0.4,0.7-0.7,1-1c0.9-1.1-0.3-0.3,1.5-1.6c1.3-1,2.6-2.6,4-3.6c-0.4-0.8-0.3,0.2-0.6-0.6
					c0.6-0.4,0.9-0.1,1.5-0.5s2.4-3.3,2.8-3.6l0.5-0.4c1.4-1.6,1.6-1.5,2.5-2.9c0.6-0.8,1.3-1.4,2.1-2l3.2-3.3
					c0.4-0.6-0.2-0.1,0.4-0.6c1.8-1.4,0.9-1.1,1.6-1.7l1.2-1c0.4-0.4,0.9-0.4,1.3-0.9s-0.1-0.1,0.4-0.5c0.3-0.2,0.4-0.1,0.7-0.4
					l2.3-2c0.6-0.6,0.3-0.5,1.1-1c1.1-1,2.2-2,3.2-3.1c1.1-1,2.2-2,3.2-3.2c0.4-0.4,0.8-0.7,1.2-0.9c0.5-0.2,0.9-0.6,1-1.1
					c0.4-0.9,0.2-7.1,0.2-8.6C393.8,171.6,393.3,172.1,393,172.7"/>
				<path class="st3" d="M390.1,243.8c0.9,0.3,1.7,0.8,2.3,1.5c0.1,0.2,0.2,0.3,0.3,0.4c0.3,0.3,0.6,0.6,1,0.7
					c0.1-2.2,0.1-4.6,0.1-6.8c0-3.1,0.5-2.6-1-4.2c-0.1-0.1-0.1-0.2-0.2-0.2c-0.7-0.6-0.6-0.1-0.9-0.5c-0.4,0.1,0.4,0-0.5-0.9
					c-0.4-0.3-0.7-0.7-1-1.1l-0.8,0.3l-0.1-0.9c0,0,0-0.1,0-0.1c0-0.6-0.4-0.4-1.2-1s-0.5-0.7-1.4-1.3s-0.4-0.5-1.3-1.6
					c-0.8-0.9-0.5,0-1.4-1.4l-1.3-1.5c-0.7-0.6-0.5,0-1.1-0.2c-0.1-0.3,0.1-0.1,0.1-0.5c0,0,0.3-0.1-0.2-0.4
					c-0.3-0.2-0.3-0.1-0.6-0.3c-0.5-0.2,0-0.2-0.9-0.3c0.1-0.6,0-0.8-0.7-1.2c-1.3-0.8-0.1-0.7-1.4-1c-0.5-0.2-0.9-0.3-1.4-0.3
					l-0.1-0.5c0,0,0-0.1,0-0.1c-2.5,0-5.7,0.3-7.8,0c0.3,2.2-0.8,1.5,0.6,2.6c0.3,0.2,0.2,0.1,0.4,0.4c0.7,1.1,0.1,0.6,0.9,1.1
					c0.6,0.4,0.2,0.4,1.1,1.1c0.6,0.4,1.1,0.8,1.6,1.3c0.5,0.5,1,0.9,1.5,1.3l7.2,6.8c1.7,1.3,0.9,1.6,2.1,2.1
					c1.6,0.7,1.2,1.9,2.4,2.6c1.3,0.8,2.5,1.8,3.4,3C390.1,243.3,390,242.9,390.1,243.8"/>
				<path class="st2" d="M369.1,217.1h8.3c0.4-0.6-0.6-0.3,0.7-0.9c1-0.5,0.1-0.4,1-1c1.9-1.3,1.4-1.6,2-2.2l6.6-5.6
					c0.6-0.7,0.3-0.4,1.1-0.9c0.4-0.3,0.8-0.6,1.1-1c0.6-0.8,1.4-1.4,2.2-2c1-0.6,1.2-1.4,2.1-2l0.1-10.4c-0.4,0.1-0.7,0.4-0.9,0.8
					c-0.5,0.8-0.1,0.6-0.6,0.9c-0.7,0.3-1.4,0.7-1.9,1.4c-1,1.1-2.2,2.2-3.4,3.1c-0.6,0.5-1,1-1.6,1.5c-1.2,1-0.4,0.6-1.6,1.6
					c-0.6,0.5-0.8,1.2-1.5,1.8c-0.4,0.4-0.5,0.2-0.8,0.7s-0.2,0.6-0.6,1.1c-0.3,0.3-0.6,0.4-0.8,0.7c-0.6,0.6,0.1,0.2-1.5,1.6
					l-2.6,2.3c-0.8,0.7-0.6,1.2-1.4,1.8s-1.6,1.6-2.5,2.3c-0.6,0.6-0.4-0.1-1,0.8l-2,2.7c-0.3,0.3-0.5,0.3-0.5,0.6
					S369,216.9,369.1,217.1"/>
				<path class="st2" d="M417.6,219.4l-9.1,9c-0.4,0.4-0.8,0.5-1.2,1c-0.7,0.8-4,4.2-4.6,4.5s-0.2-0.1-0.5,0.5s-0.1,0.3-0.7,0.6
					c-1.3,0.6-1,1.2-2.2,1.8l-0.4,0.2c-0.7,0.8-0.5,7.7-0.5,9.7c1.5-0.3,2.3-1.8,3-2.4l1.9-1.6c0.6-0.5,0.4-0.6,0.8-1.1
					c0.3-0.3,0.7-0.5,1-0.8l4.5-4.6c0.6-0.5,1.2-1.1,1.8-1.8c1.9-2,1.2-1,1.3-2.1c2.6-0.6,1-0.7,3.4-2.5c0.8-0.6,1.6-1.4,2.2-2.2
					c0.8-1.1,1.8-2.1,2.9-3c0.3-0.3,0.4-0.5,0.7-0.8c0.5-0.5,1-0.8,1.5-1.4s1-1,1.5-1.6C421.8,218.8,426.3,220.2,417.6,219.4"/>
				<path class="st3" d="M398.7,192.5c0.5,0.4,0.6-0.1,1,0.5c-0.2,0.3-0.1,0.3-0.6,0.5c-0.2,0.1-0.2,0-0.3,0.1
					c0.3,0.8,0.2,0.1,0.4,0.8c0.3,1.2-0.4,1.4-0.3,2.1c0.1,0.9,0.1,0.2-0.1,0.9c-0.1,0.8-0.1,1.6,0.1,2.4c0.2,0.6,0.7,1.1,1.3,1.4
					l2.2,1.4c0.5,0.4,1.1,0.8,1.5,1.3c1.1,1.2,3,2.2,4.8,4.5c0.7,0.9,0.5,0.6,1.4,1.3c0.6,0.5,0.6,0.9,1.3,1.4s0.2-0.1,0.6,0.6
					c0.2,0.4,1,1,2,2.1c0.8,1,1.7,1.9,2.6,2.7c1.6-0.6,1.4,0.1,4.3,0.1c1.4,0,2.9,0,4.3-0.2l-0.5-0.5c-0.8-0.7-1.4-1.4-2-2.3
					c-0.6-0.7-1.2-1.4-1.9-2.1c-0.7-0.9-1.2-1.1-1.5-1.7s-0.2-0.6-0.6-0.9c-0.6-0.6-0.2-0.1-0.7-0.8l-1.6-1.7
					c-1.2-1.3-0.8-1.4-2.4-2.4c-0.9-0.6-0.2-0.4-0.8-0.9c-0.4-0.4-0.2,0.1-1.8-1.3l-4.2-3.8c-0.3-0.2-0.1,0-0.5-0.3l-0.4-0.5
					c-0.3-0.2-0.6-0.5-0.9-0.7c-1.8-1.2-0.5-0.4-1.7-1.4c-0.8-0.8-1.7-1.6-2.6-2.3c-1-0.6-1.4-0.2-1.8-1.4
					C398.8,191.7,398.8,191.8,398.7,192.5"/>
				<path class="st4" d="M469.1,222.6c0.6,0.1,0.7-0.1,0.8-0.6C469.3,222,469.4,222.2,469.1,222.6"/>
				<path class="st5" d="M187.4,395.2v26.6H183v-76.7h20.1c5.7,0.7,10.9,3.3,14.9,7.3c9.8,9.8,9.8,25.7,0,35.5
					c-4.7,4.7-11,7.3-17.7,7.3H187.4z M187.4,349.5v41.3h13c11.4,0.3,20.9-8.8,21.1-20.2c0.3-11.4-8.8-20.9-20.2-21.1
					c-0.3,0-0.6,0-0.9,0H187.4z M273.4,345.1v4.4h-34v31.8h34v4.4h-34v31.9h34v4.3H235v-76.7H273.4z M289.9,349.5v41.3h13
					c11.4,0.3,20.9-8.8,21.1-20.2s-8.8-20.9-20.2-21.1c-0.3,0-0.6,0-0.9,0H289.9z M304.2,395.2h-14.3v26.6h-4.4v-76.7h20.1
					c5.7,0.7,10.9,3.3,14.9,7.3c9.8,9.9,9.7,25.8-0.1,35.6c-3.2,3.2-7.2,5.4-11.5,6.5l17.7,27.3h-5.3L304.2,395.2z M383.3,345.1h4.3
					v55.1c-0.7,5.7-3.3,10.9-7.3,14.9c-9.7,9.8-25.6,9.9-35.4,0.1c-4.8-4.7-7.4-11.1-7.4-17.8v-52.4h4.4v52.4
					c0.3,11.4,9.7,20.5,21.1,20.2c11.1-0.2,20-9.2,20.2-20.2V345.1z M435.7,383.8L424,351.6l-11.7,32.2L435.7,383.8z M426.2,345.1
					l27.8,76.7h-4.5l-12.3-33.7h-26.5l-12.5,33.7h-4.6l28.2-76.7H426.2z M465.6,345.1l51,71.4v-71.4h4.4v76.7h-6.7L464.5,352v69.8
					h-4.4v-76.7H465.6z M569.6,344c21.7,0,39.3,17.6,39.3,39.3c0,21.7-17.6,39.3-39.3,39.3s-39.3-17.6-39.3-39.3
					c0-10.4,4.1-20.4,11.5-27.8C549.1,348,559.2,343.9,569.6,344 M569.6,348.4c-19.3,0-35,15.7-35,35c0,19.3,15.7,35,35,35
					c19.3,0,35-15.7,35-35c0-9.3-3.7-18.2-10.2-24.8C587.9,352,578.9,348.2,569.6,348.4"/>
				<path class="st5" d="M569.6,423c-21.9,0-39.6-17.7-39.6-39.6c0-21.9,17.7-39.6,39.6-39.6c21.9,0,39.6,17.7,39.6,39.6
					c0,10.5-4.2,20.6-11.6,28C590.3,419,580.1,423.2,569.6,423 M569.6,344.3c-21.6,0-39.1,17.6-39.1,39.2
					c0,21.6,17.6,39.1,39.2,39.1c21.6,0,39.1-17.6,39.1-39.2c0-10.4-4.2-20.3-11.5-27.6C590,348.2,580,344.1,569.6,344.3
					 M362.6,422.7c-13.9,0-25.3-11.2-25.3-25.2c0,0,0,0,0-0.1v-52.6h4.8v52.6c0,11.3,9.2,20.5,20.5,20.4c11.3,0,20.4-9.2,20.4-20.4
					v-52.6h4.8v55.4c-0.7,5.7-3.3,11-7.4,15.1C375.8,420.1,369.3,422.8,362.6,422.7 M337.8,345.3v52.1c0,13.7,11.1,24.8,24.8,24.8
					c6.6,0,12.9-2.6,17.6-7.3c4-4,6.5-9.2,7.3-14.8v-54.9h-3.9v52.1c0,11.6-9.4,20.9-20.9,20.9c-11.6,0-20.9-9.4-20.9-20.9l0,0
					v-52.1L337.8,345.3z M521.2,422h-7l-0.1-0.1l-49.4-69.2V422H460v-77.1h5.8l0.1,0.1l50.6,70.9v-71h4.8L521.2,422z M514.4,421.5
					h6.3v-76.2h-3.9v71.9l-0.4-0.6l-50.9-71.4h-5.1v76.3h3.9v-70.3l0.4,0.6L514.4,421.5z M454.4,422h-5l-0.1-0.1l-12.2-33.6h-26.3
					L398.4,422h-5.1l28.3-77.2h4.8l0,0.1L454.4,422z M449.7,421.5h4.1l-27.7-76.3H422l-28,76.3h4.1l12.5-33.7h26.9l0.1,0.2
					L449.7,421.5z M327,422h-5.9l-0.1-0.1l-17-26.5h-14V422h-4.8v-77.1h20.4c5.7,0.7,11,3.3,15.1,7.4c9.9,10,9.8,26-0.2,35.9
					c-3.1,3.1-7,5.3-11.3,6.5L327,422z M321.4,421.5h4.8l-17.6-27.2l0.3-0.1c13.3-3.4,21.4-16.9,18-30.2c-1.1-4.3-3.3-8.3-6.5-11.5
					c-4-4-9.2-6.6-14.8-7.3h-19.8v76.3h3.9V395h14.7l0.1,0.1L321.4,421.5z M273.6,422h-38.8v-77.1h38.8v4.8h-34V381h34v4.8h-34v31.4
					h34L273.6,422z M235.2,421.5h37.9v-3.9h-34v-32.3h34v-3.9h-34v-32.3h34v-3.9h-37.8L235.2,421.5z M187.5,422h-4.8v-77.1h20.4
					c5.7,0.7,11,3.3,15.1,7.4c9.8,9.9,9.8,25.9,0,35.8c-4.7,4.8-11.1,7.5-17.9,7.4h-12.8L187.5,422z M183.2,421.5h3.9V395h13.3
					c13.7-0.1,24.8-11.2,24.8-25c0-6.5-2.6-12.8-7.2-17.4c-4-4-9.2-6.6-14.8-7.3h-19.8L183.2,421.5z M569.6,418.5
					c-19.4,0-35.2-15.8-35.2-35.2c0-19.4,15.8-35.2,35.2-35.2c19.4,0,35.2,15.8,35.2,35.2c0,9.3-3.7,18.3-10.3,24.8
					C588,415,578.9,418.7,569.6,418.5 M569.6,348.6c-19.2,0-34.8,15.6-34.8,34.8c0,19.2,15.6,34.8,34.8,34.8
					c19.2,0,34.8-15.6,34.8-34.8c0-9.2-3.7-18.1-10.2-24.6C587.7,352.2,578.8,348.5,569.6,348.6 M302.9,391.1h-13.3v-41.8h13.3
					c11.5,0,20.9,9.4,20.9,20.9C323.8,381.7,314.5,391.1,302.9,391.1 M290.1,390.6h12.8c11.3-0.2,20.2-9.6,20-20.9
					c-0.2-10.9-9-19.7-20-20h-12.8V390.6z M200.4,391.1h-13.3v-41.8h13.3c11.5,0,20.9,9.4,20.9,20.9
					C221.2,381.7,211.9,391.1,200.4,391.1 M187.6,390.6h12.8c11.3-0.2,20.2-9.6,20-20.9c-0.2-10.9-9-19.7-20-20h-12.8V390.6z
					 M436,384h-24l12.1-33.1l0.2,0.6L436,384z M412.7,383.5h22.7L424,352.3L412.7,383.5z"/>
			</g>
		</g>
		<path class="st6" d="M325.2,465.7l2.1,1.9c-2.7,2.6-6.3,4.1-10.1,4.1c-7.8,0-14.2-6.4-14.2-14.2c0-7.8,6.4-14.2,14.2-14.2
			c3.8,0,7.4,1.5,10.1,4.2l-2.1,1.8c-2.2-2-5-3.2-8-3.2c-6.3,0.2-11.3,5.5-11.1,11.8c0.2,6,5,10.9,11.1,11.1
			C320.1,468.9,323,467.7,325.2,465.7z"/>
		<path class="st6" d="M333.2,461.9c0,1.9,0.7,3.7,2,5.1c1.3,1.3,3,2,4.9,2c1.8,0,3.6-0.7,4.9-2c0.2-0.2,0.5-0.6,0.9-1.1l2.7,1
			c-0.5,0.8-1,1.5-1.7,2.1c-3.8,3.8-9.9,3.8-13.7,0c-3.8-3.8-3.8-9.9,0-13.7s9.9-3.8,13.7,0c0,0,0,0,0,0c1.7,1.8,2.6,4.2,2.5,6.7
			L333.2,461.9z M333.8,459.1h12.6c-0.3-0.7-0.8-1.4-1.4-1.9c-1.3-1.3-3.1-2-4.9-2c-1.8,0-3.6,0.7-4.9,2
			C334.7,457.8,334.2,458.4,333.8,459.1L333.8,459.1z"/>
		<path class="st6" d="M368.4,453.9l-7.2,17.5h-2.8l-7.1-17.5h3.1l5.4,13l5.5-13H368.4z"/>
		<path class="st6" d="M374.5,448.7c0.4,0.4,0.6,0.9,0.6,1.5c0,1.2-0.9,2.1-2.1,2.1c-0.6,0-1.1-0.2-1.5-0.6
			c-0.4-0.4-0.6-0.9-0.6-1.5c0-0.6,0.2-1.1,0.6-1.5C372.4,447.9,373.7,447.9,374.5,448.7L374.5,448.7z M374.4,453.9v17.5h-2.7v-17.5
			H374.4z"/>
		<path class="st6" d="M394,466.1l2.8,1c-0.5,0.7-1,1.3-1.5,1.9c-3.8,3.8-10,3.8-13.8,0c-3.8-3.8-3.8-10,0-13.8s10-3.8,13.8,0
			c0,0,0,0,0,0c0.6,0.6,1.1,1.2,1.5,1.9l-2.8,1c-0.3-0.4-0.6-0.7-0.8-0.9c-2.7-2.7-7.1-2.7-9.8,0c-2.7,2.7-2.7,7.1,0,9.8
			s7.1,2.7,9.8,0c0,0,0,0,0,0C393.4,466.8,393.7,466.5,394,466.1z"/>
		<path class="st6" d="M400.6,443.6h2.8v10.2c0.7-0.6,2-1,3.9-1c3.8-0.1,7,2.9,7.2,6.7c0,0.1,0,0.2,0,0.3v11.5h-2.8V460
			c0-1.2-0.5-2.3-1.3-3.1c-0.8-0.8-1.9-1.3-3.1-1.3c-1.2,0-2.3,0.4-3.1,1.3c-0.3,0.3-0.6,0.7-0.8,1v13.4h-2.8L400.6,443.6z"/>
		<path class="st6" d="M421.1,461.9c0,1.9,0.7,3.7,2,5.1c2.7,2.7,7,2.7,9.7,0c0,0,0,0,0,0c0.2-0.2,0.5-0.6,0.9-1.1l2.7,1
			c-0.5,0.8-1,1.5-1.7,2.1c-3.8,3.8-9.9,3.8-13.7,0c-3.8-3.8-3.8-9.9,0-13.7s9.9-3.8,13.7,0c0,0,0,0,0,0c1.7,1.8,2.6,4.2,2.5,6.7
			L421.1,461.9z M421.7,459.1h12.6c-0.3-0.7-0.8-1.4-1.4-1.9c-2.7-2.7-7-2.7-9.7,0c0,0,0,0,0,0C422.5,457.8,422,458.4,421.7,459.1z"
			/>
		<path class="st6" d="M448.4,456.2c-1.1,0.2-2.2,0.7-3,1.5c-1.3,1.2-2,2.9-2,4.6v9h-2.8v-17.5h2.8v1.9c1-1,2.2-1.7,3.5-2.1
			L448.4,456.2z"/>
		<path class="st6" d="M459.8,446.9l-5.7,4.4h-3l3.8-4.4H459.8z M455.6,453.9v17.5h-2.7v-17.5H455.6z"/>
		<path class="st6" d="M481.3,471.4h-2.8v-2c-1.8,1.7-4.3,2.6-6.8,2.5c-5.4,0-9.7-4.4-9.7-9.7c0-5.4,4.4-9.7,9.7-9.7
			c2.5-0.1,4.9,0.8,6.8,2.5v-1h2.8V471.4z M478.5,463.5v-2.8c-0.8-3.7-4.4-6.1-8.1-5.4s-6.1,4.4-5.4,8.1c0.7,3.2,3.5,5.5,6.8,5.5
			c1.8,0,3.6-0.7,4.9-2C477.6,466.1,478.2,464.8,478.5,463.5z"/>
	</g>
</g>
</svg>
