<svg version="1.1" id="Capa_1" xmlns="http://www.w3.org/2000/svg" xmlns:xlink="http://www.w3.org/1999/xlink" x="0" y="0" viewBox="0 0 792 612" style="enable-background:new 0 0 792 612" xml:space="preserve"><style>.st2,.st3{fill-rule:evenodd;clip-rule:evenodd;fill:#21211f}.st3{fill:#999898}.st5{fill:#21211f}.st6{fill:#999898}</style><defs><path id="SVGID_1_" d="M0 0h792v612H0z"/></defs><clipPath id="SVGID_2_"><use xlink:href="#SVGID_1_" style="overflow:visible"/></clipPath><g style="clip-path:url(#SVGID_2_)"><defs><path id="SVGID_3_" d="M0 0h792v612H0z"/></defs><clipPath id="SVGID_4_"><use xlink:href="#SVGID_3_" style="overflow:visible"/></clipPath><g style="clip-path:url(#SVGID_4_)"><path class="st2" d="M503.6 219c-.2.1-.4.3-.6.4-.5.3-3.1 1.8-3.2 1.9-.3.3-2.7 2.5-2.8 2.5-.4.4-.2.5-.6.9-1 1.2-2 2.4-3.2 3.4-.3.2-.8.3-1.1.6-.7.5-.7 1.2-1.5 1.8-2.5 1.8-1.8 1.5-3.3 3.1l-1.7 1.7c-.6.6-1 1.1-1.5 1.7s-.9 1.1-1.5 1.7c-1 1-2.5 2-3.5 3.1-.5.6-1.1 1.1-1.6 1.6l-2.4 2.4c-1.1 1.1-4.3 3.8-5.1 4.8-.2.4-.5.7-.8.9l-5.2 4.7c-.8.8-4.4 4.1-5.8 5.6l-2.6 2.3c-.3.2-.5.5-.8.8-.4.5-.5.4-1 .7-1.3 1-3.6 4-4.8 5l-3.5 3.1-1.6 1.6c-.6.5-1.1 1-1.6 1.6-.3.4-.3.5-.6.9-.6.5-1.2 1.1-1.7 1.7l-7.4 7.5c-.2.2-.2.1-.4.4s-.1.2-.3.5c-.4.5-1 .8-1.4 1.3l-.6.6c-.5.3-.9.7-1.4 1.1l-10.7 10.7c-.6.6-.9 1-1.5 1.7-.3.3-.5.5-.7.8-.5.7-.3.4-.9.8s-.7 1.1-1.7 1.7c-.6.5-1.2 1-1.7 1.6-1.5 1.4-3.6 4-4.8 5.1l-3.2 3.2c-.5.5-.2.4-.6 1l-3.4 3.2c-1.5 1.3-1.4 1.5-1.4 3.6-.1 2.2-.1 4.4 0 6.5.8-1.1 2.1-1.7 2.9-2.8.5-.6.2-.2.7-.5l1.2-1.3c.5-.4 1.1-.9 1.5-1.4l.9-.9c.5-.5.9-.6 1.5-1.1l.5-.5c.4-.3 1.1-.4 1.5-.8.5-.5.2-.5.4-.8.3-.5.2-.1.6-.6l.5-.6c.5-.6-.3-.7 1.6-1.8 1.4-.9.1-.1 1.8-1.7l1.8-1.9c.7-.8.8-1.4 1.8-2s1.7-1.6 2.5-2.2c.2-.2.4-.3.6-.5l1.3-1.2c.3-.4.1-.4.5-.7s.3 0 .7-.4.3-.5.7-.9l.1-.1.6-.8c.4-.5 1-.6 1.4-1.1l5-5.1c.2-.2.3-.5.5-.7l1.1-1.2c.2-.2.5-.3.7-.5.5-.4.1-.3.5-.7.7-.5 1.3-1.1 1.9-1.8.5-.5.6-.9 1.5-.9.1-1.7.8-1.2 1.7-2.1.6-.6.4-.9 1.3-1.4.2-.1.2-.1.3-.2l.8-.8c1.2-1 .1-.5 1.5-1.4.5-.3.4-.8 1-1.3.4-.4.4-.3 1-.2.1-.9.6-.9 1.3-1.5.3-.2.5-.5.7-.7l1.1-1 .1-.1s.1 0 .1-.1c.4-.5.2-.7.9-1 .5-.3.5-.1.9-.5.2-.2.2-.3.3-.5s.2-.2.4-.4c.3-.2.5-.4.6-.7.6-.8 1.7-1.2 2.2-2.1l1.3-1.6c.3-.2.5-.3.8-.6.5-.4.3-.4 1.1-.4 0-1.1 1.5-2 2.3-2.8 1.7-1.6.1-1 1.6-1.7l.9-.8c.3-.3.5-.6.8-.9.6-.7.3-.2.6-1.2.4-.1.8-.3 1.2-.5l.9-.9c.6-.5.9-1.5 1.5-2.1l1.4-1.3c.5-.4 1.2-.8 1.5-1.3l2.7-2.7c.6-.6 1.2-1.3 1.7-2 .5-.5.3-.1.9-.8.3-.4.6-.4 1.1-.8.6-.4.2 0 .5-.5.5-.9.5-.7 1.3-1.4l3.3-2.9c.4-.3.7-.7 1-1.2l1.3-1c.6-.6 1.4-1 2-1.7.3-.3.6-.6.8-.9.2-.2.2-.4.4-.6.4-.4.2-.2.5-.4 1.1-.6 1.6-1.6 2.4-2 1-.5.5-.6 1.1-1.2l1.3-1c.7-.6 0-.3.4-1.1.4-.1.9-.2 1.3-.4.5-.3.1 0 .4-.4.1-.2.3-.3.4-.5l1.8-1.8c.8-.9 1.7-1.8 2.6-2.6l.5-.5c.2-.2.3-.4.4-.5l.9-.8c.4-.4.7-.9 1-1.4l.4-.5c.4-.2.7-.5 1-.9.5-.8-.5-.3 1.4-1.9.3-.3.6-.5.9-.8 1.5-1.6 5.5-6.1 5.7-7.8-1.5.1-6.3.3-6.8.7"/><path class="st3" d="M399.1 114.5c1.2.5.5.4 2.2.5 1.4 1.6 2.9 3 4.5 4.3l1.2.9 3.8 3.2c.9.6 1.8 1.2 2.6 1.8 1.5 1.3 6.9 5.2 7.7 6 .4.4.6.6 1.1 1s.6.8 1.1 1.2c.8.7 1.6 1.3 2.5 2 2.3 1.9 1.1 1.1 2.2 2.3l4.7 4.4c1.6 1.4 3 3 4.6 4.5.4.4.8.7 1.2 1.1s.3.9 1.4.9c.2 1.2.9 1.4 1.7 2.1.4.3.5.7.9 1.1l3 3c1.2 1.4 2.5 2.8 3.9 4.1.4.4.6.7.9 1.1.5.5.6.3 1.1.9.4.6.9 1.1 1.4 1.5.4.6.9 1.1 1.5 1.6 1.1.6.4 0 1 1l1.4 1.5c.3.4.2.4.5.6s.7.5 1.1.9c.6.8 1.2 1.4 1.9 2.1 1.8 1.6 3.4 3.3 4.9 5.1.1.2.3.3.5.5 1.3 1.1 2.5 2.2 3.5 3.6 1.6 1.7 3.2 3.4 4.9 4.9.3.3.7.8 1 1 .6.7 1.3 1.4 2 2l3 3.1c.5.5.5.8.9 1.1.4.3.7.6 1 1l3.8 4.2c.3.4.6.7 1 1l3.7 4.3c1.1 1.2 2.3 3.5 3.5 4.5.8.6 1.3 1.4 2 2 .5.4.4.6.9 1.1l3 3 3.8 3.3c1.3 0 7.6.3 8.3-.2.1-.4.1-.1-.1-.4l-.5-.6c-.6-.9-1.4-1.2-2.1-2l-5.2-5.3c-1.1-1-2.1-2.1-2.9-3.3-.4-.5-.7-.7-1-1.2-.6-.8-2.9-3.6-3.2-4.2-.5-1-.9-.7-1.5-1.6-.3-.7-.8-1.2-1.3-1.7-.5-.4-.2.1-.6-.5l-.4-.6-.1-.1c-.7-.7-1.3-1.8-1.9-2.2-.6-.5-1.1-1.1-1.6-1.7-.8-.6-1.5-1.3-2.2-2-.6-.7-1.5-1.4-2-2.1l-2-2.2c-1-1.1-2.3-2-3.3-3.1-.4-.4-.7-.6-1-1l-2-2.2c-.4-.4-.8-.6-1.2-1l-3.1-3.2c-.6-.8-1.3-1.5-2-2.2l-1.4-1.7c-1-1.4-1.4-1.2-2.6-2.6-1.1-1.2-2.1-2.1-3.1-3.3-1.3-1.6-1.9-1.6-2.1-2-.4-.6-.1-.7-.7-1.3l-2-1.9-.2-.1c-.5-.4-.7-1-1-1.3-.9-.6.7.4-.2-.1l-.6-.4s0-.1-.1-.1l-1.9-2.1-.3-.3-2.2-2c-.5-.3-1-.7-1.4-1.2-1-2-.1-.7-2.2-2.5l-.5-.3c-.5-.4-.8-1-.9-1.6l-.9.1c0-.7-.2-.7-.4-.9l-.3-.2-.1-.1-1.6-1.8c-.2-.1-.3-.3-.4-.5-.4-.4-.5-.4-.9-.7 0 0-.1 0-.1-.1l-.7-.7c-.5-.3-.1 0-.4-.4-.7-1-.6-.6-1.3-1.2l-1.5-1.6c-.9-.8-1.4-1.7-2-2s-.6-.8-1.3-1.2c-1.1-.7-.3-.7-1.6-1.8l-.1-.1c-.9-.6-1.6-1.2-2.3-2-.8-1-1.5-1.2-2.5-2.4l-6.7-6.1c-.5-.5-1.1-1-1.7-1.5-.3-.2-.6-.5-.8-.8-.5-.5-.5-.3-1.2-1.1-.4-.4-.9-.8-1.4-1.1-.6-.3-.4-.4-.8-.8l-2.7-2.1c-1.2-.9-2.3-1.9-3.4-2.9l-4.1-3.5-.1-.1-5.1-4.8c-.3-.3-1.9-3.3-1.8.1v10.4"/><path class="st2" d="M394.5 105.1c-.5.3-.8.2-1.2.6s.2-.3 0 .3c-.1.4-.1.2-.2.4l-.1.1-.4.8-1.3-.2c-.3.7-.7.8-1.2 1.3l-1.2 1.4c-.5.6-1 .4-1.5 1.1l-4 3.8c-1 .6-1 1-1.8 1.5l-.1.1-.2.1c-.3.2-.7.3-1.1.1-.2.4-.3.8-.4 1.3-.8-.1-.3-.1-.7-.3-.2 1.8-.2.4-1.8 2.1-.8.9-.5.5-1.1.7s-.4.9-.8 1.2-.7.1-1.2.5l-.1.1-.1.1-.6.6-.1.1c-.3.3-.8.5-1 .8-.7 1-.1.6-1.5 1.8l-1.1 1c-.6.4-.4.3-.7 1-.5 1.1-.1.4-1.1.8.2.3.4.2.5.6l-.7.3c-.9.5-1.6 1.2-2.1 2.1-.4.6-.7.4-1.3 1.1-1 1.3-1.2.7-2.8 2.9-.3.4-.6.7-.9 1.1s-.3.6-.7 1.1c-1.3 1.2-2.5 2.5-3.7 3.9l-.9 1.1-.2.3-.2.3c-.6.6-1 .6-1.4 1.5-.2.5-.5.6-1 .9l-1.2 1.1c-.8 1-1.6 1.9-2.5 2.7-.5.4-.2.6-.9 1.1l-6 5.4c-.7.6-1.3 1.3-1.9 2-2.6 2.3-6 6.6-8.7 8.7-1.6 1.3-1 .7-1.9 2.2l-1.6 1.5c-1 1-.4-.5-1.8 1.6-.5.6-1 1.1-1.7 1.5l-.7.7c-.7 1.1-2.2 1.4-2.9 2.5-.5.9-.4 1.1-1.7 1.1-.1 1.1-.8 1.1-1.4 1.8l-1.7 1.7c-.4.4-.7.4-1 .7s-.5.9-.8 1.2c-.1.1-.1.1-.3.2l-2.2 2.4c-.1.1-.1.2-.2.3-.7.8-1 .5-2.2 2.1-.5.7-1.1 1-1.7 1.7-1.2 1.5-.5.6-1.7 1.7-.9.9-.3 1-1.6 1.6-.7.4-1.3.9-1.8 1.6-.4.5-.3.6-.7 1-.3.3-.6.5-.9.8-.3.4-.4.6-.7 1-.5.5-.8.6-1 1-.6.9-1.4 1.8-2.2 2.5-2.1 2-1.2 1.5-2.2 2.9-.3.3-.6.5-.9.8-.8.7-.3.2-.6 1.1-.4.1-.7.4-1 .7l-.9 1.7v.1c-.4.7-.9.7-.9 1.7-.5.1-1 .3-1.4.7l-1 1.2c-.4.4-1 .6-1.3 1.1-.6 1.2-.9.1-.9 1.6-.9.4-.3-.1-.8.8-.8 1.3-.5.7-1.2 1.6-.2.2-.1.3-.4.6s-.7.4-.8.9c2.2.1 4.3.1 6.5 0 2.3 0 2.4-.4 4.2-2.5l2.2-2.7c.4-.3.7-.4 1-.8.4-.6 0-.4.6-1.1l8.5-10.2c1-1.3 2.1-2.4 3.3-3.5l.3-.3c.1-.2.3-.3.5-.5 2.5-2 1.7-1.8 3.3-3.4.3-.3.1-.1.3-.5s.1-.2.4-.5l4.9-5.2c.6-.6.4-.7 1.6-1.8l3.8-3c.6-.5 1.2-1.1 1.7-1.7.9-.7 1.8-1.5 2.6-2.3.5-.7.2-.3.9-.8 1.3-1 2.6-2.2 3.8-3.4l.2-.2.8-.9c.3-.2 1.2-1.5 2.1-2.2l.9-.8c.4-.3.6-.4.9-.8.6-.5 1.2-1.1 1.7-1.7.5-.6 1.1-1.1 1.7-1.6 1.1-.9 2.1-1.9 3-2.9.4-.6 1.5-1.3 2.2-2.1.5-.6 1.1-1.1 1.7-1.5.9-.6.9-1.1 1.7-1.7 1-.8 1.7-1.7 2.5-2.5l.9-.8c1.1-1.2 2.1-2.1 3.2-3.4l4.9-5.3c.3-.3.6-.6.7-.9.5-.8.3-.3 1-.7l3.3-3.5c.5-1 1.3-2 2.2-2.8l.9-1c.4-.3.3-.4.7-.9l.8-.9c.3-.3.6-.6.9-.8.4-.4.5-.6.8-.9 1.1-1 3.5-1.7 4.1-2.6s1.7-1.5 2.7-2.4c.7-.4 1.3-.9 1.9-1.4.4-.7.9-1.3 1.6-1.8.9-.6 1.7-1.3 2.5-2.1l2.1-1.8 1.7-1.7c1-1.2 2.2-2.4 3.4-3.3.2-.1.4-.2.5-.3.6-.4 1-.8 1.8-.5l.1-8.8c.1-.8.1-1.6 0-2.4-.1-.4 0-.1-.2-.4l-.1.1v.1l-.3 1z"/><path class="st3" d="M288.8 221.1c-1.5-.1-8.2.1-8.6.2.3.5.1.6 1.2.7 0 .8-.2.6.4 1.2 1.4 1.5.6 1.3 2.7 2.5.5.3.6.7 1 .9.5.3.7-.1 1.1.6.2.4 0 .2.3.6l1.8 1.6.3.2c1.1.8 1.3 1.8 3.2 3l.7.6c.1.2.2.4.4.6 1.2 1.4 2.5 2.7 3.9 3.8.4.3.9.3 1.1.7.5.9-.3.2.7 1l2.9 2.7c1.4 1.6.1.7 1.7 1.5 1.3 1 2.5 2.1 3.6 3.4.4.4 1.1.8 1.4 1.3l8.5 8c.7.5 1.3 1.1 1.8 1.7.3.3.2.1.5.4.8.7 1.5 1.9 2.3 2.4l1.6 1.4c.5.6.2.4.9.9.3.2.2.1.5.5l3.2 3 .5.5 2.2 2.2c.8 1 1.9 1.4 2.7 2.5.5.6 1.1 1.2 1.7 1.7.4.3.7.5 1 .8s.5.7.8.9l1 .7c.4.2.6.7.6 1.1l1-.1c-.1.5-.1.5.2 1s.5.4.9.7.5.6.7.8l1.5 1.4c.5.5.2.4.6.9l2.4 2c.3.2.5.5.8.8l3.1 2.9c.6.5.9.9 1.5 1.4l6 6c.7.9 1.6 1.5 2.3 2.3 1.3 1.6 2.8 3.1 4.4 4.4.4.3.8.7 1.2 1.1l.2.1c.9.7 1.6 1.7 2.5 2.5.9.6 1.7 1.2 2.5 2l1.9 2.5c1.2 1.2 1 .7 1.8 1.1.8 1 1.6 1.9 2.4 2.8.9.6 1.7 1.2 2.4 2 .4.5.8.5 1.2 1.1.4.4.9.8 1.3 1.1l.9.9h.1l.5.4c.4.5.8.5 1.1 1l.1.2c.3.5 1.2.6 2.3 2 .6.7.3 1.3 1.6 1.3 0 .9.2.8.7 1.3.5.6 1.1 1.1 1.8 1.6l1.5 1.3c.4.5 1 .8 1.7.8 0-2.2 0-4.4.1-6.5s0-1.4-1-2.2c-.5-.4-.2-.4-.9-.8-.3-.1-.5-.4-.6-.7v-.3c-1.3 0-.9-.5-1.9-1.4l-.3-.2-3.1-2.9c-.2-.1-.3-.3-.5-.5-.9-1-1.8-1.8-2.8-2.6-.5-.4-.4-.5-.7-1s-.4-.2-.9-.7-.3-.6-.8-.9c-1-.9-2-2-3-2.7l-2.9-2.7c-.3-.2-.6-.5-.9-.8l-2.5-2.3c-.5-.6-.2-.4-.9-.8s-.6-.9-1.6-1.7-1.7-2.1-2.8-3.1l-.5-.5c-.3-.3-.6-.4-.9-.7-.7-1 .4.3-.2-.3-.2-.2-.2-.1-.5-.3-.6-.5-1.8-2.2-2.9-2.9-.5-.3-.6-.3-.9-.8l-.1-.2c-1.2-1.3-2.6-2.6-4-3.8l-2.8-2.8c-1.7-1.9-2.1-2-3.3-3.2-.4-.4-.4-.6-.8-.9s-.6-.5-.8-.7c-.5-.4-.5-.2-1-.7l-1.6-1.7c-.2-.1-.2-.2-.4-.4l-.4-.4-.9-.7c-.3-.3-.5-.5-.7-.8-.8-.9-3.3-2.9-4.2-3.9l-1.6-1.6c-.9-.7-1.7-1.6-2.4-2.5-.5-.6-.8-.6-1.3-1.2l-1.3-1.2c-.8-.5-5.2-5-5.8-5.4-1-.6-1.9-1.4-2.5-2.4-.3-.2-.5-.5-.8-.7l-6.4-6.5c-.4-.2-.7-.4-.9-.8l-6.4-5.8-.4-.4-2.6-2.6c-.1-.1-.1-.2-.2-.2l-1.2-1.1c-.5-.6-1.2-.8-1.8-1.5-.7-.9-1.5-1.8-2.4-2.5-.9-.7-1.8-1.4-2.6-2.2-1.2-1.3-1.1-.7-1.8-1.4-.3-.3-.5-.7-.8-.9-.6-.4-.3 0-.8-.7s-.1-.3-.9-.8-.7-1.2-1.6-1.7c-.4-.2-.7-.7-1-1l-.7-1-.1-.1-.1-.1c-.9-.4-.7-.5-1.4-.6M399 131v4.3c.9.5 1.8 1.1 2.5 1.9l1 .9c.6.6 1.6 1.1 2.4 1.9.2.2.1.2.3.3.8.4 1.6.9 2.3 1.4.6.5.6.8 1.3 1.1s1 .5 1.7.9c.5.2 1.1.6 1.5 1 .9.8 1.8 1.5 2.8 2.1.6.4 1 .7 1.5 1.1.5.3.9.7 1.3 1.1l6.6 5.9c.8.8 1.7 1.6 2.6 2.3.3.5.7.9 1.2 1.2l1.5 1.6.1.1 5.7 6c.4.5.8.9 1.2 1.4 1.2 1 .5.7 1.9 1.8.5.4.2.2.5.7.7.9 1.6 1.8 2.4 2.6.2.3.3.4.5.7l1.1 1.4c.7 1 2.3 2.1 3.2 3 .4.4.6.9 1.1 1.4l2.6 2.3c.3.4.1.4.5.8.5.5.1-.2 1.4 1.3l7.9 8.2.6.6 1.9 2c1.3 1.6 2.7 3.1 4.3 4.5.6.7 1.1 1.3 1.6 2.1.6.6 1.2 1.2 1.8 1.9.8 1.2.7.8 1.2 1.4.8 1.2 1.8 2.3 2.8 3.3l3 3.3c.4.4.2.3.5.8l1 1.4c.6.6.7 1 1.6 1 0 .5.1 1 .1 1.3-.1.7-.2.2-.5.9 1 0 9.2.1 9.8-.1 1.5-.6 1.9-.6 1-1.2-.7-.5-1-1.2-2.5-2.7-.3-.3-.6-.6-.9-.8-1.4-1.5-2.9-3.1-4.2-4.7-.3-.4-.3-.6-.6-1-.5-.7-1-1.3-1.6-1.9-.8-.6-.3-.4-.8-1.1l-1.8-1.9c-.5-.4-.6-1-1.1-1.4s-.1-.1-.5-.4c-.8-.5-.7-1.3-1.6-1.9-.7-.5-1.2-1.1-1.7-1.8-.2-.3-.6-.6-.9-.8-.6-.5-.3-.5-.8-1.1l-5.4-5.2c-.5-.4-.4-.5-.8-.9l-1-.9c-.2-.2-.2-.1-.4-.3-.2-.1-.3-.3-.4-.5l-6-6.4c-.3-.3-.2-.1-.4-.4l-1.4-1.4c-.3-.2-.6-.5-.9-.8-.5-.6-.5-.4-1-.8-1-.8-1.6-1.9-2.6-2.7-.2-.1-.3-.3-.5-.4l-3.7-4.3c-.3-.3-.6-.6-.8-.9-.2-.4-.5-.7-.9-1-1-.9-3.7-4.5-5.2-5.4-.2-.1-.3-.2-.4-.4l-1-1.4c-.1-.1-.1-.2-.2-.3l-1-.7c-.5-.4-.5-.4-.6-1.3-.5 0-1.1 0-1.4-.5s.1-.1-.3-.6c-.2-.2-.3-.3-.5-.4-.4-.4-.4-.8-.8-1.1-1.1-.8-.3 0-.8-1-.2-.3-1.6-1.3-2-1.7l-1.4-1.4c-1.6-1.3-3-2.7-4.4-4.2-.9-.9-2.1-1.6-2.9-2.6-.5-.6-.3-.5-1.2-.8v-.7c-1.1-.2-1.9-1.3-3-1.9s-1.6-1.6-2.8-2.1-1.7-1.4-2.8-2.1c-.5-.3-1-.7-1.5-.9-1.2-.6-.6-.2-1.4-1.1-1.1-1.2-3.3-2.4-3.8-3-.1-.1-.2-.2-.3-.4-.5-.5-1.5-1.1-2-1.7l-3.5-3.6c-.3-.3-.3-.6-.8-.6-.4.8.1.3.1 1.1 0 .5-.2 1.1-.3 1.6 0 1.1.1 2.6.1 3.7"/><path class="st2" d="M304 217.8c1.5 0 5.4-.3 6.6 0 1.9.4 3.5-1.7 4.6-2.8.3-.5.7-.9 1.1-1.4l2.6-2.3c1.4-1.4 5.2-5.3 5.8-6.7.4-.9 0-.3 1.2-1.3.4-.4.8-.9 1.1-1.4.4-.6.8-.7 1.2-1.3 1.1-1.4 2.3-2.7 3.7-3.8l6.3-6c.9-.9 1.6-1.7 2.6-2.5s1.6-1.7 2.5-2.4c.6-.4.8-.8 1.3-1.2.5-.4 1-.8 1.4-1.2.5-.4.9-.7 1.4-1.1l2.5-2.4c2.1-2.1 4.3-3.9 6.5-6l1.2-1.2c.2-.2.5-.4.7-.6.9-1 2.3-1.9 3.2-3.1.5-.6.8-.4 1.4-1.1.8-.9 1.6-1.7 2.4-2.5l4-3.6c.9-.7 1.8-1.6 2.6-2.5.4-.4.5-1 1-1.5l1.9-1.8c.2-.2.4-.5.6-.6.4-.4.4-.2.7-.5l3.2-2.9c.5-.5.6-.9 1.3-1.2 1.1-.5 1-.9 2-1.8.3-.3.4-.3.6-.6.5-.4.6-1 1.1-1.4.4-.4.9-.8 1.2-1.2.5-.6.8-.8 1.3-1.3s.9-.6 1.3-1.1c.3-.5.8-.9 1.3-1.1.8-.5.4-.6 1.5-1 .6-.2.3-.1.7-.5s-.1-.3 1-.4c.1-.9 0-.4.3-.9.2-.3.3-.5.5-.7.4 0 .8.2 1.1.4-.1-.6-.2-.4 0-.8.3-.6.2.4.4-.7.1-.7.1-1.4.1-2.2V128c-.6.2-1.3.5-1.8.9-.7.5-.8.9-1.5 1.3l-6.4 6.2c-.3.3-.4.3-.7.6-.5.5-1 1-1.6 1.4-.9.7-1.9 1.8-2.9 2.6l-4.4 4c-.2.2-.5.4-.7.7-.6.8-1.3 1.6-2.1 2.3-1 .9-1.6 2.1-2.6 3-2.6 2.2-4.3 5.1-7 7.2-.8.6-.6.9-1.3 1.5l-4.3 4.2c-.6.5-.9.9-1.4 1.3-1.6 1.3-3 2.7-4.3 4.3-.5.6-1 .7-1.5 1.3-.2.3-.4.5-.7.7l-4 3.7c-.4.4-.2.4-.6.8-2.5 1.8-.9 1.4-2.6 2.5l-4.6 3.9c-.3.2-.6.5-.8.7l-1.4 1.4c-.6.5-.9 1-1.4 1.4-.3.3-.4.3-.8.6l-3.8 3.9c-.7.5-1.4 1.1-2 1.7-1.4 1.5-2.8 2.8-4.2 4.3l-.6.8-5.4 6c-.8 1.1-1.6 2.1-2.6 3.1-.9.8-1.8 2.4-2.7 2.9-1 .6-3 3.2-4.2 4.3-.6.5-.8 1.1-1.3 1.6s-1.1.8-1.6 1.2c-.6.6-.1.3-.5.9s-.5-.3-.7.6M480.2 218.5c0 1 0 0 .4.9-.4.4-.9.5-1.3.8-.6.5-.2.6-1.1 1.1-.7.4-.6.5-1 1.1l-.4.6c-.2.2.1 0-.3.2l-1.6 1.2c-.4.3-.6.8-1 1.1-.2.1-.4.3-.5.6l-1.7 1.7c-.4.4-.7.7-1.1 1l-3.1 3.4c-.3.4-.7.8-1.2 1-.7.5-.4.6-1 1.2-.8.8-1.4 1.5-2.2 2.3l-4.3 4.4-1.1 1.1c-.4.3-.7.7-1 1.1l-3.5 3.1c-.9.6-1.1 1.7-2 2.3-.4.3-.8.6-1.2 1-1 1-2.1 1.9-3 3 0 0 0 .1-.1.1l-3 2.9c-.2.2-.4.4-.5.6l-3.4 3c-.8.6-.4.5-1 1.2-.4.5-.8.6-1.2 1s-.1.2-.5.6c-.2.2-.3.5-.6.6-1.5 1.3-3 2.8-4.3 4.3-1.3 1.7-3.3 2.9-4.5 4.7-.5.8-1.5 1.3-2 1.9l-3.1 3.3c-.3.4-.7.8-1.2 1-.4.3-.7.7-1 1.1-.3.3-.3.2-.6.5-.4.4-.2.3-.5.7-1 1.1-2.1 2.2-3.3 3.2-.4.4-.7.8-1 1.2-.7.7-1.6 1.2-2.2 2.1-.2.4-.1.3-.5.6l-1.2.9c-.3.2-.5.2-.8.4-.4.4 0 .1-.2.4s-2.5 2.3-3.5 3.6c-.5.7-.8.5-1.3 1.3-.3.6-3.1 3-3.9 3.9-.3.3-.3.4-.6.7-.5.4-.8.3-1 .8 0 .1-.1.2-.1.4-.3.7-1.2.7-2 .8v9.2c1.5-.8 4.5-3.9 5.9-5.5.9-1 1.8-2 2.8-2.9.5-.5.9-.9 1.4-1.3.3-.3.4-.5.6-.7l6.7-6.3c.5-.6.9-.8 1.4-1.4l3.6-3.7c.3-.3.5-.5.8-.7.4-.4.8-1 1.3-1.5l.7-.7c.3-.3.4-.5.7-.8l10.1-9.9c.5-.5 1-1 1.4-1.5l2.9-2.8c1.5-1.4 2.9-2.9 4.2-4.4l1.5-1.5c.4-.5.9-1 1.4-1.4l8.1-7.6c.4-.4.2-.4.6-.8s.5-.3.8-.6l3.7-3.6c1-.9 2.1-1.8 3-2.7.7-.9 3.6-3 4.5-4.1 1.9-2.1 3.8-3.7 5.7-5.7.3-.3.5-.4.7-.7s.4-.4.8-.8l1.3-1.5c1.2-1.2 2.5-2.3 3.6-3.6.7-.8 2.8-2.5 3.7-3.5.2-.2.5-.4.8-.6l2.8-2.9c.2-.2.4-.5.6-.8.7-.8 1.2-1.1 2.2-2.1.4-.4 2.3-1.8 2.2-2.3-.2-.3-.5-.5-.8-.5-.3 0-.7.3-1.1.4-.9.1-.5-.1-1-.4-.6-.3-4.8-.1-5.9-.1h-.8l-.6.3z"/><path class="st3" d="M361.4 277.5c0 .6-.1.4.2.8.4.6 1 .9 1.5 1.4l1 .8c.5.3.6.8 1 1.2l2 2c.1.2 3.4 3.3 4.2 4.3.2.2 0 0 .2.3l1.6 1.5c.4.4.7.5 1.1.9.7.7 1.4 1.1 2.1 1.9l.4.6c.5 1 1.2 1 2.5 2.4.3.3.6.7.9 1.1.6.8.5.4 1 1s.5.6.9 1.1.6.2 1 1l.3.6.9 1.1c.4.3 1.2.7 1.8 1.3l.9 1.1c.4.5.7.3 1.4 1.5l.5.6c.9 1 .1.2 1.6.9.9.4 2.5 2.6 2.7 2.7v-7.3c0-1.5-.5-.3-.2-1.9l-1-.7c-.5-.3-1-.7-1.4-1.1-.6-.8 0-.9-1.4-1.2-.1-.6-.2-.6-.6-1l-.9-1c-.1-.1-.2-.3-.4-.4-1.1-1.1-.3-.8-1.5-.9-.1-1.3 0-.8-.8-1.4l-2.7-2.7c-.2-.2-.3-.4-.5-.6L380 287c-.5-.5-.7-.5-1.1-1-1.1-1.1-2.2-2.1-3.4-3l-2.1-2.2c-1.2-1-2.3-2-3.3-3.1-.3-.5-.9-.8-1.5-.8 0-.9.3-.5-.4-1-.3-.3-.6-.5-.9-.8-.6-.6-1.1-1.2-1.6-1.8l-11.4-10.8c-.5-.6-.1-.4-.8-.9-1-.7-1.6-1.8-2.6-2.5-.3-.3-.6-.5-.9-.8l-2.6-2.6c-1.2-1-2.2-2.3-3.4-3.4-.3-.3-.6-.6-.9-.8-.8-.6-1.5-1.3-2.2-2.1-.2-.2-.3-.2-.5-.4l-5-5.1c-.1-.2-.2-.2-.4-.4l-.2-.2-2.9-2.7c-.3-.3-.5-.6-.8-.9-1.1-1.2-2.3-2.3-3.6-3.3-.7-.5-1.3-1-1.9-1.6-1.3-1-2.4-2.1-3.5-3.2-.6-.9-1.1-1.1-1.7-1.9-.5-.6-.9-.5-1.4-1-1-1.1-2-2-3.2-2.9-.9-.5-.4-.2-.8-.9s-.4-.4-.9-.8-.1-.5-1.1-.7c0-1-.7-1.4-1.2-2l-.3-.3c-1.3-.1-2.5 0-3.8.2-1.3.4.1-.1-1.3-.1h-1.7c-.5 0-1 .2-1.5.4-.3.2-.6.3-.1 1 1 1.4 2.1 2.1 3.6 3.7.7.8 2 1.2 3.4 3.4.5.8.3.5 1 1l.4.5c.2.2.4.3.6.5 1 .9 1.9 1.9 3 2.9.8.7 1 1.2 1.9 1.9s2 1.9 3 2.9c.4.4.6.4 1.1.9.6.7 1.3 1.3 2 1.9l.1.1.7.7s.1 0 .1.1l4.6 4.4c.1.1.4.4.5.6.4.4.6.4 1 .8l1 1c.5.5.3.4.9.9l1.5 1.4c.3.4.1.3.4.6s0 0 .3.2l.1.1c.6.3.8.6 1.2 1.1s1.3.8 1.7 1.4c1 1.2 2.3 2.1 3.3 3.2l4.5 4.5c.2.2.2.3.5.5s.3.1.6.3.4.8.9 1.1c.2.2.4.2.6.4.6.5.5.8 1.5 1.4.7.6 1.4 1.2 1.9 1.9l.2.2c.5.4.8.4 1 .9.2.3 0 .1.2.3s.5.2.8.3c1.1.5-.1.3.8 1.1.7.6.5 0 1.1.9s2.4 1.9 3 2.7c.3.4.6.7 1 1 1.2.9 1 1.6 2.3 1.6M400.1 148c0 .1-.1.9-.1.9-.2.6.3.3-.6.4l.6.5c-.2.5-.1.1-.2.5-.1.2-.1.5-.1.6-.2.8-.5.7-.4.7.1 2.1-.5 2.5-.3 3.8 0 .5.3 1 .7 1.4l1.1.8.1.1.1.1s.1 0 .1.1c-.4 1.1-.1 1.3.9 2 .4.3.6.4 1 .7l2.9 2.5c.9.9 1.8 1.7 2.7 2.5 2.4 1.8 6 5.1 7.9 6.2 1.1.7 1.8 1.9 2.9 2.5.8.3 1.5.8 2.1 1.5l6.4 6.3.1.1c1 1.1.2-.3 1.6 1.5.4.4.6.5 1 .9s.5.7.7 1l1.7 1.8c1 .8 1.9 1.7 2.7 2.7l1.7 1.8c.5.4.1 0 .5.3.5.9 1.2 1.7 2 2.4 1 .9 1.8 1.8 2.5 2.9.6 1 1.7 1.9 2.4 2.8.4.5.6.5.9.9s.4.7.7 1c2.3 2.9 5 5.7 7.6 8.4.4.4.5.7.8.9.5.4.9.9 1.2 1.6.2.4.1.1.2.6 0 .7.3.2.3 1.1.6-.4.9.2 1.3.6-.1.8-.2.1-.4.9 2.5 0 5.2.2 7.7 0 .8-.1.6-.2 1.4-.3.6-.1 1.3 0 1.9 0-.1-.6-.3-1.1-.6-1.6-1.1-1.6-.3-1-2.6-2.8-.5-.4-.3-.4-.6-.6-.8-.6-1.5-1.4-2.1-2.2-.4-.6-.6-.3-1.1-1s0-.9-1.2-1.1c-.1-1.1-.6-.6-1.6-2.1l-.7-1s0-.1-.1-.1l-1.3-1.5c-.4-.6-.2-.1-.5-.4s-.3-.9-.7-1.2c-1.3-1-.8-.8-2-2.1l-.1-.1c-.5-.6-.9-1.2-1.5-1.8l-6.3-6.8c-.3-.3-.5-.8-.8-1.1-.6-.7-1.2-1.2-1.8-1.9-.3-.4-.6-.7-1-.9-.4-.3-.5-.6-.9-.9l-4.3-4.6c-1.1-.9-2.1-1.9-3-3-.6-.9-1.3-1.1-1.9-2-.8-1.2-1.5-1.4-2.3-2.4l-.7-.7c-.3-.3-.2-.5-.6-.8s-.6-.2-1-.9c-.4-.8-1-1.5-1.6-2.1-.4-.3-.8-.6-1.2-.8l-1.8-1.9c-.6-.6-1.6-.8-2.3-1.4-.7-.6-1.4-1.1-2.1-1.6-.6-.3-.6-.5-1-.8-1-.7-1.3-1.3-2.1-1.8-.6-.4-.7-.1-1.1-.8-.4-.5-.9-1-1.4-1.4-1.4-1.1-1.8-2-2.3-2.3l-4.9-3.5c-.4-.3-.5-.7-1.4-1.4-.7-.5-1.2-1.2-1.8-1.8-.3-.3-.7-.6-1.1-.8-.4-.4-.9-.6-1.5-.6l.6.6z"/><path class="st2" d="M392.5 150.6c-.6 1.9-.1 0-1.3 1.5l-10.5 10c-1 .9-3.9 4-5.9 5.7-1.2 1-2.3 2-3.3 3.1l-1.9 1.9c-.6.5-.4.1-.3.9-1 .1-2.4 1.7-3 2.4-.4.5-.8.9-1.3 1.3-.7.5-.7.8-1.4 1.4l-2.9 2.5c-.2.2-.4.6-.6.8s-.4.2-.8.6l-4.1 4c-.4.5-.9.9-1.4 1.4-3 2.4-5 5.1-6 6l-1.6 1.4c-.4.5-.9 1-1.3 1.4-.9.7-.2.8-1.2 1.4s-1.7 1.8-2.7 2.7l-1.3 1.5c-.2.3-.3.6-.6.8l-.6.7c-.5.4-.3-.1-.7.7-.7 1.4-1.5 1.1-2 2-.2.3-.3.6-.6.9l-2.6 2.9c-1.1 1.2-3.3 3.3-3.9 4.2-.9 1.4-2.3 1.2-2.6 3 1.1 0 9 .1 9.5-.3s0-.1.4-.5.3-.1.7-.4c.9-.6-.4-.5.6-1.1.7-.3 1.3-.8 1.7-1.4.6-1.1.5-.7 1.4-1.5.4-.3.7-.7.9-1.1.3-.5 0-.1.4-.5l1.9-2.1c.4-.6.4-.7.9-1.1l3.3-3.6c.4-.4.5-.7.9-1.1.7-.7 1.3-1.3 1.9-2.1l5.8-6.1c.7-.6 1.4-1.3 2-2 .3-.4.6-.7 1-1l2.1-1.9c.4-.4.5-.7.8-1s.6-.4 1.1-.9.7-.5 1.1-.9.5-.7.9-1.1 1-.6 1.1-.9l.1-.2v-.1s-.1 0 .1-.3l.5-.4c.4-.4.9-.5 1.3-.9l.5-.5c.2-.2.4-.3.6-.5.5-.4.5-.5.9-1l2.1-1.9c.7-.6 1.4-1.3 2-2 .3-.3.7-.6 1.1-.9.8-.6 1.4-1.3 2.1-1.9l2.1-1.8c.4-.4.7-.4 1.2-.8s.5-.7 1-1c.9-.7 1.3-1.2 2.1-1.9.7-.6 1.4-1.2 2.1-1.9.9-1 1.9-1.9 3-2.8l3.5-3.4 1.9-1.2.2-10.4c-.3.6 0 .5-.8.9-.7.2-1.1.3-1.6.4M455.5 222.2v.3c-.3.9-.6.4-1.3.8-.8.5-.4.3-.9 1l-.3.3c-.5.5-.5.9-1.6 2.1l-.1.1c-.2.4-.5.7-.8 1l-1.7 1.6c-.4.4-.1.3-.6.7-1 .8-1.7 1.9-2.7 2.7-1.4 1.1-1.9 2.2-2.7 2.9-2.9 2.2-1 1.5-2.6 2.8-.7.6-1.1 1.3-1.8 1.8l-1.8 1.7c-.3.4-.1.2-.5.5-1.2.9-1.7 2.2-4 4.2-1.5 1.4-.6.9-1.9 1.8-.7.5 0 .4-.9 1s-.5 0-1 .8l-3.5 3.7c-1.4 1-2.6 2.2-3.7 3.5-.6.8-1.8 1.6-2.8 2.6-.3.4-.6.5-.9 1-.3.4-.5.7-.8 1-.6.5-.8.5-1.3 1.2l-.4.6v.1l-.1.1-.4.2c-.4.2-.4.5-.6.7l-2.1 1.6c-2.4 2.2-1.3 1.9-2.6 2.8-.9.5-2.2 2.3-3.2 3.1s-2.2 2.2-3.2 3.1c-.4.4-.4.6-.9.9-.9.6-1.1 1.3-1.9 1.8-1.9 1.4-1.8 1.2-1.8 3.5l-.1 7.5c1-1.2 2.3-2 3.4-3.1l3.3-3.2c.7-.8 1.2-1.4 2.1-2.2.4-.4.6-.8 1-1.1 2.6-2.4 5.1-5.1 7.7-7.5l4.3-4.5c.8-.7 1.5-1.3 2.3-2 .6-.5.2-.5 1-1.1.6-.5 1.2-1.1 1.7-1.7.5-.6 1.1-1 1.7-1.6.4-.4.7-.8 1-1.1l7.7-7.6c.4-.3.8-.6 1.1-1 1-1.3 2.1-2.1 3.1-3.4.5-.6 1.7-1.4 2.3-2.1s.2-.7 1-1.1l1.1-1c.7-.7 1.4-1.4 2-2.3s1.8-1.6 2.2-2.1c1-1.2 2.1-2.3 3.3-3.3l3.2-3.3c1.6-1.3 3.1-2.8 4.4-4.4 1.2-1.6 3-2.7 4.4-4.3.2-.2.2-.4.5-.6 2.9-3.1 1.9-3.4 4.3-4.8-.5-.9-1.1-.5-2.4-.5-4.9.2-7-.3-10.2 3.8"/><path class="st3" d="M324.9 221.2c.1.3.2.5.3.7l4.5 4.4c.4.3.6.6 1 1 1.6 1.6 2.7 2.4 4.5 4.4l1.4 1.6c.7.7 1.6 1.2 2.3 1.9l7.2 6.7c.4.4.8.5 1.1.9.9.8 2.3 2.5 3 3.1.2.1.4.3.5.4l3.6 3.4.2.2.2.2 3.4 3.1c.3.3.2.4.6.8l4.1 3.9c.7.6 1.4 1.3 2 2 1.8 1.4 4.7 4.7 6.7 6.4 1.4 1.2 2.6 2.7 4.1 3.9l4.5 4.4.2.2c.9.8 1.6 1.8 2.3 2.3l6 6c.6.7.2.5 1.2.8.1.3.1.6.2.9.3.7 1.1.4 1.4 1 .1.4.2.8.1 1.1 1.3-.1.7.4 1.8.9.1-.8.3-7.5 0-8.6l-.1-.3c-.2-.6-.1-.7-.5-1.1-.3-.3-.7-.5-1.1-.6v-.6c-.1-.5-1-.8-1.4-1.3s-.6-.6-.9-.9c-.3-.3-.7-.5-1-.8-.3-.4-.4-.6-.8-.9l-.8-.6c-.7-.8-1.4-1.3-2.1-2l-2.7-2.7c-.4-.4-.1-.1-.4-.5-.5-.7-6.7-6.3-7-6.7-1.2-1.3-2.4-2.5-3.7-3.7-.5-.5-.6-.4-1-.8s-.3-.5-.8-.9l-3.7-3.7c-1-1-1.7-1.8-2.8-2.8-1.3-1.1-2.4-2.4-3.7-3.6-.2-.1-.3-.3-.4-.5-1-1.1-2.1-2.2-3.2-3.2l-1.8-1.8-3.7-3.7c-.8-.8-1.3-.9-2-1.7l-.8-.8c-.6-.7-1.4-1-2-1.7s-.9-1.3-1.8-1.9c-.5-.3-.1 0-.5-.4l-2.5-2.2c-.7-.5-.4-.1-.9-.8l-.9-.9c-.4-.3-.8-.4-1.1-.8s-.4-.7-.9-1c-.8-.6-.8-1.2-1.8-1.9-.7-.5-.5-.2-1.3-.1s-.8-.2-1.1-.7l-1.7.1c-2 .7-2.7-.8-5.5.5M398.8 170.6c1 .3.8-.6 1.1.7-.4.3-.6.1-1.1.1v1.7l1.2 1.4-.5.4s.1 0 .1.1l.3.6c-.7 0-1 .2-1 .9.1.1.3.2.4.2h.1l.5.2c-.2.2 0 .1-.3.2l-.4.1.4.4-.6.4c.4.2.8.4 1.2.4-.3 2.6.3 1.6 1.7 2.6.6.4.5.6 1.3 1 1 .5.4.5 1.2 1.3.9 1 2.1 1.8 3.1 2.8l.6.6c.6.6 1.2 1.2 1.9 1.7.9.6 1.5 1.5 2.5 2.1l7 6.3c.9.7 1.7 1.4 2.4 2.2.1.2.3.4.4.6.3.3.4.3.6.6.4.5.8.9 1.3 1.3l.2.1.8 1.1c.2.3.3.3.6.6l1 1.1c.8.7 1.3 1.5 1.9 1.9.9.7 1.2 1.8 2.2 2.4.8.8 1.5 1.7 2.1 2.6l1.6 1.9c.4.7.9.9 1.4 1.5s1.4.6 1.8 1.4h8.5l.9-1c-.1-.1-5.2-5.4-5.7-5.7-1.1-.9-2-2-2.8-3.1-.4-.4-.5-.2-.8-.6-.2-.2-.3-.5-.5-.8L431 198c-.4-.4-.6-.2-1-.4l-.7-.5c-.4-.5-.1-.9-.8-1.5-.1-.1-.2-.1-.2-.2l-4.1-3.9c-.4-.3-.3-.4-.6-.8-1.4-1.5-7.1-6-8.8-7.4-.9-.4-1.7-1-2.4-1.6-.3-.3-.5-.4-.8-.6l-12.8-11.4v.9zM350.4 224.8l.1.1.2.4c.5 1 2.3 2.1 3.2 3.1.6.6 1.3 1 1.8 1.7.8 1.1 1.5.9 1.4 2.3 1 .1.8.1 1.4.6l2.1 2c.5.4.7.6 1.1 1l.9 1.1c.7.6 1.3 1.2 1.9 1.8l2.4 2.3c1.9 1.6 3.4 3.9 5.3 5.3.8.7 1.5 1.4 2.1 2.2.7.8 1.5 1.1 2.2 2l1.1 1c1 .9 4.9 4.9 6.4 6.2.4.4.7.6 1.1 1 1.1 1 2 2.2 3.1 3.2l1.1 1c.6.5 2.1 1.5 1.3 2.5.7.2.3.2.7.5s.3.2 1 .3c-.2.9-.2.3-.4 1 .5.2 1.1.3 1.6.3l.1-10.3c-.7-.5-1.4-1.1-1.9-1.8-.4-.6-.4-.4-.9-.7-.8-.5-.9-1.3-1.6-1.9-.4-.3-.7-.5-1-.8l-2-1.7c-.2-.3-.5-.7-.7-1-.3-.3-.7-.6-1-.9-1.5-1.7-5.9-5.2-6.6-6l-4.5-4.5c-.9-.8-1.7-1.9-2.7-2.7-.3-.3-.7-.6-.9-.9l-2-2c-.1-.1 0 0-.2-.3l-1.4-1.4c-.3-.4-.5-.7-.8-1-.5-.6-.6-.4-1.3-.2.1-.8.1 0 .3-.9-1.5-.6-1.2-.7-2.6-2.2l-1-.8-.3-.3-.6-.6c-.4-.3-.4-.2-.8-.4l-1.7-2.6c-.5-.8-.2-.1-.8-.7s-.8-.7-2.2-.7h-6c-2.6 0-.4 1.2.1 2l.5.7c.8 1.8.5 1.1 1.4 1.7"/><path class="st2" d="M434.8 223c-.5.5-.9.8-1.4 1.3l-5.1 5.1c-.7.6-1.3 1.2-1.9 1.8-2 1.9-2.7 2.8-4.5 4.5l-6.4 6.4c-.4.8-.5.7-1.2 1.2l-4 3.7c-.5.7-1.1 1.3-1.8 1.9l-1.9 2c-.5.6-.9.7-1.3 1.3-.7 1-1.5 1.9-2.5 2.6l-3.8 3.8c-.2.3-.3.6-.4.9-.2.6-.5.6-.5.9v7.1h.1l.6.1c.4.2 0 .2.4.3.5-.4.3-.3.6-.7l.7-.7 2.1-2.1c.5-.7 1-1 2.1-2.2l1.4-1.4c.4-.5.9-.7 1.5-1.3l5.5-5.7c.6-.6 2.1-2.3 3.5-3.5l2.1-2.1c.4-.5.2-.4.7-.7s.3-.1.7-.7c.1-.2 2-1.7 2.9-2.8l8.2-8.5c1.2-1 5.3-5.9 6.9-7.2l2.1-2.1c.5-.4.5-.3.8-.6.6-.5.4-.8 1.3-1.4.4-.3 1-1.3 1.9-2.1 1.2-1 1.5-.8 2.2-2.5-3.3-.2-3.2-.7-7.1-.7-.4 1.1-2.4 1.8-4.5 4.1M393 172.7c-.7.1-1.3.5-1.8 1-1.5 1.3-3 2.7-4.4 4.2-.3.2-.4.4-.7.7-.8.6-1.6 1.3-2.3 2-.5.5-1 .9-1.5 1.3-.5.5-1 1-1.6 1.4-1.6 1-4.2 4-6 5.4-1.1.8-2 1.8-2.8 2.9l-2.9 2.8c-1.5 1.1-2.9 2.2-4.2 3.5l-1.7 2c-.6.6-.7 1.1-1.2 1.6l-1.7 1.8-.4.4-1.4 1.4c-.2.3-.5.6-.7.8-1 1.1-1.4 1.8-2.7 3l-5.6 5.8c-.5.4-1 .8-1.4 1.3-.5.8-1 .8-1.4 1.5l8.7-.1c1.1 0 2-.6 2.5-1.5.3-.4.7-.7 1-1 .9-1.1-.3-.3 1.5-1.6 1.3-1 2.6-2.6 4-3.6-.4-.8-.3.2-.6-.6.6-.4.9-.1 1.5-.5s2.4-3.3 2.8-3.6l.5-.4c1.4-1.6 1.6-1.5 2.5-2.9.6-.8 1.3-1.4 2.1-2l3.2-3.3c.4-.6-.2-.1.4-.6 1.8-1.4.9-1.1 1.6-1.7l1.2-1c.4-.4.9-.4 1.3-.9s-.1-.1.4-.5c.3-.2.4-.1.7-.4l2.3-2c.6-.6.3-.5 1.1-1 1.1-1 2.2-2 3.2-3.1 1.1-1 2.2-2 3.2-3.2.4-.4.8-.7 1.2-.9.5-.2.9-.6 1-1.1.4-.9.2-7.1.2-8.6-.3.2-.8.7-1.1 1.3"/><path class="st3" d="M390.1 243.8c.9.3 1.7.8 2.3 1.5.1.2.2.3.3.4.3.3.6.6 1 .7.1-2.2.1-4.6.1-6.8 0-3.1.5-2.6-1-4.2-.1-.1-.1-.2-.2-.2-.7-.6-.6-.1-.9-.5-.4.1.4 0-.5-.9-.4-.3-.7-.7-1-1.1l-.8.3-.1-.9v-.1c0-.6-.4-.4-1.2-1s-.5-.7-1.4-1.3-.4-.5-1.3-1.6c-.8-.9-.5 0-1.4-1.4l-1.3-1.5c-.7-.6-.5 0-1.1-.2-.1-.3.1-.1.1-.5 0 0 .3-.1-.2-.4-.3-.2-.3-.1-.6-.3-.5-.2 0-.2-.9-.3.1-.6 0-.8-.7-1.2-1.3-.8-.1-.7-1.4-1-.5-.2-.9-.3-1.4-.3l-.1-.5v-.1c-2.5 0-5.7.3-7.8 0 .3 2.2-.8 1.5.6 2.6.3.2.2.1.4.4.7 1.1.1.6.9 1.1.6.4.2.4 1.1 1.1.6.4 1.1.8 1.6 1.3s1 .9 1.5 1.3l7.2 6.8c1.7 1.3.9 1.6 2.1 2.1 1.6.7 1.2 1.9 2.4 2.6 1.3.8 2.5 1.8 3.4 3 .3.6.2.2.3 1.1"/><path class="st2" d="M369.1 217.1h8.3c.4-.6-.6-.3.7-.9 1-.5.1-.4 1-1 1.9-1.3 1.4-1.6 2-2.2l6.6-5.6c.6-.7.3-.4 1.1-.9.4-.3.8-.6 1.1-1 .6-.8 1.4-1.4 2.2-2 1-.6 1.2-1.4 2.1-2l.1-10.4c-.4.1-.7.4-.9.8-.5.8-.1.6-.6.9-.7.3-1.4.7-1.9 1.4-1 1.1-2.2 2.2-3.4 3.1-.6.5-1 1-1.6 1.5-1.2 1-.4.6-1.6 1.6-.6.5-.8 1.2-1.5 1.8-.4.4-.5.2-.8.7s-.2.6-.6 1.1c-.3.3-.6.4-.8.7-.6.6.1.2-1.5 1.6l-2.6 2.3c-.8.7-.6 1.2-1.4 1.8s-1.6 1.6-2.5 2.3c-.6.6-.4-.1-1 .8l-2 2.7c-.3.3-.5.3-.5.6s-.1.1 0 .3M417.6 219.4l-9.1 9c-.4.4-.8.5-1.2 1-.7.8-4 4.2-4.6 4.5s-.2-.1-.5.5-.1.3-.7.6c-1.3.6-1 1.2-2.2 1.8l-.4.2c-.7.8-.5 7.7-.5 9.7 1.5-.3 2.3-1.8 3-2.4l1.9-1.6c.6-.5.4-.6.8-1.1.3-.3.7-.5 1-.8l4.5-4.6c.6-.5 1.2-1.1 1.8-1.8 1.9-2 1.2-1 1.3-2.1 2.6-.6 1-.7 3.4-2.5.8-.6 1.6-1.4 2.2-2.2.8-1.1 1.8-2.1 2.9-3 .3-.3.4-.5.7-.8.5-.5 1-.8 1.5-1.4s1-1 1.5-1.6c-3.1-2 1.4-.6-7.3-1.4"/><path class="st3" d="M398.7 192.5c.5.4.6-.1 1 .5-.2.3-.1.3-.6.5-.2.1-.2 0-.3.1.3.8.2.1.4.8.3 1.2-.4 1.4-.3 2.1.1.9.1.2-.1.9-.1.8-.1 1.6.1 2.4.2.6.7 1.1 1.3 1.4l2.2 1.4c.5.4 1.1.8 1.5 1.3 1.1 1.2 3 2.2 4.8 4.5.7.9.5.6 1.4 1.3.6.5.6.9 1.3 1.4s.2-.1.6.6c.2.4 1 1 2 2.1.8 1 1.7 1.9 2.6 2.7 1.6-.6 1.4.1 4.3.1 1.4 0 2.9 0 4.3-.2l-.5-.5c-.8-.7-1.4-1.4-2-2.3-.6-.7-1.2-1.4-1.9-2.1-.7-.9-1.2-1.1-1.5-1.7s-.2-.6-.6-.9c-.6-.6-.2-.1-.7-.8l-1.6-1.7c-1.2-1.3-.8-1.4-2.4-2.4-.9-.6-.2-.4-.8-.9-.4-.4-.2.1-1.8-1.3l-4.2-3.8c-.3-.2-.1 0-.5-.3l-.4-.5c-.3-.2-.6-.5-.9-.7-1.8-1.2-.5-.4-1.7-1.4-.8-.8-1.7-1.6-2.6-2.3-1-.6-1.4-.2-1.8-1.4-.5.3-.5.4-.6 1.1"/><path d="M469.1 222.6c.6.1.7-.1.8-.6-.6 0-.5.2-.8.6" style="fill-rule:evenodd;clip-rule:evenodd;fill:#cf8881"/><path class="st5" d="M187.4 395.2v26.6H183v-76.7h20.1c5.7.7 10.9 3.3 14.9 7.3 9.8 9.8 9.8 25.7 0 35.5-4.7 4.7-11 7.3-17.7 7.3h-12.9zm0-45.7v41.3h13c11.4.3 20.9-8.8 21.1-20.2.3-11.4-8.8-20.9-20.2-21.1h-13.9zm86-4.4v4.4h-34v31.8h34v4.4h-34v31.9h34v4.3H235v-76.7h38.4zm16.5 4.4v41.3h13c11.4.3 20.9-8.8 21.1-20.2s-8.8-20.9-20.2-21.1h-13.9zm14.3 45.7h-14.3v26.6h-4.4v-76.7h20.1c5.7.7 10.9 3.3 14.9 7.3 9.8 9.9 9.7 25.8-.1 35.6-3.2 3.2-7.2 5.4-11.5 6.5l17.7 27.3h-5.3l-17.1-26.6zm79.1-50.1h4.3v55.1c-.7 5.7-3.3 10.9-7.3 14.9-9.7 9.8-25.6 9.9-35.4.1-4.8-4.7-7.4-11.1-7.4-17.8V345h4.4v52.4c.3 11.4 9.7 20.5 21.1 20.2 11.1-.2 20-9.2 20.2-20.2v-52.3zm52.4 38.7L424 351.6l-11.7 32.2h23.4zm-9.5-38.7 27.8 76.7h-4.5l-12.3-33.7h-26.5l-12.5 33.7h-4.6l28.2-76.7h4.4zm39.4 0 51 71.4v-71.4h4.4v76.7h-6.7L464.5 352v69.8h-4.4v-76.7h5.5zm104-1.1c21.7 0 39.3 17.6 39.3 39.3 0 21.7-17.6 39.3-39.3 39.3s-39.3-17.6-39.3-39.3c0-10.4 4.1-20.4 11.5-27.8 7.3-7.5 17.4-11.6 27.8-11.5m0 4.4c-19.3 0-35 15.7-35 35s15.7 35 35 35 35-15.7 35-35c0-9.3-3.7-18.2-10.2-24.8-6.5-6.6-15.5-10.4-24.8-10.2"/><path class="st5" d="M569.6 423c-21.9 0-39.6-17.7-39.6-39.6 0-21.9 17.7-39.6 39.6-39.6 21.9 0 39.6 17.7 39.6 39.6 0 10.5-4.2 20.6-11.6 28-7.3 7.6-17.5 11.8-28 11.6m0-78.7c-21.6 0-39.1 17.6-39.1 39.2s17.6 39.1 39.2 39.1 39.1-17.6 39.1-39.2c0-10.4-4.2-20.3-11.5-27.6-7.3-7.6-17.3-11.7-27.7-11.5m-207 78.4c-13.9 0-25.3-11.2-25.3-25.2v-52.7h4.8v52.6c0 11.3 9.2 20.5 20.5 20.4 11.3 0 20.4-9.2 20.4-20.4v-52.6h4.8v55.4c-.7 5.7-3.3 11-7.4 15.1-4.6 4.8-11.1 7.5-17.8 7.4m-24.8-77.4v52.1c0 13.7 11.1 24.8 24.8 24.8 6.6 0 12.9-2.6 17.6-7.3 4-4 6.5-9.2 7.3-14.8v-54.9h-3.9v52.1c0 11.6-9.4 20.9-20.9 20.9-11.6 0-20.9-9.4-20.9-20.9v-52.1l-4 .1zM521.2 422h-7l-.1-.1-49.4-69.2V422H460v-77.1h5.8l.1.1 50.6 70.9v-71h4.8l-.1 77.1zm-6.8-.5h6.3v-76.2h-3.9v71.9l-.4-.6-50.9-71.4h-5.1v76.3h3.9v-70.3l.4.6 49.7 69.7zm-60 .5h-5l-.1-.1-12.2-33.6h-26.3L398.4 422h-5.1l28.3-77.2h4.8v.1l28 77.1zm-4.7-.5h4.1l-27.7-76.3H422l-28 76.3h4.1l12.5-33.7h26.9l.1.2 12.1 33.5zM327 422h-5.9l-.1-.1-17-26.5h-14V422h-4.8v-77.1h20.4c5.7.7 11 3.3 15.1 7.4 9.9 10 9.8 26-.2 35.9-3.1 3.1-7 5.3-11.3 6.5L327 422zm-5.6-.5h4.8l-17.6-27.2.3-.1c13.3-3.4 21.4-16.9 18-30.2-1.1-4.3-3.3-8.3-6.5-11.5-4-4-9.2-6.6-14.8-7.3h-19.8v76.3h3.9V395h14.7l.1.1 16.9 26.4zm-47.8.5h-38.8v-77.1h38.8v4.8h-34V381h34v4.8h-34v31.4h34v4.8zm-38.4-.5h37.9v-3.9h-34v-32.3h34v-3.9h-34v-32.3h34v-3.9h-37.8l-.1 76.3zm-47.7.5h-4.8v-77.1h20.4c5.7.7 11 3.3 15.1 7.4 9.8 9.9 9.8 25.9 0 35.8-4.7 4.8-11.1 7.5-17.9 7.4h-12.8V422zm-4.3-.5h3.9V395h13.3c13.7-.1 24.8-11.2 24.8-25 0-6.5-2.6-12.8-7.2-17.4-4-4-9.2-6.6-14.8-7.3h-19.8l-.2 76.2zm386.4-3c-19.4 0-35.2-15.8-35.2-35.2 0-19.4 15.8-35.2 35.2-35.2 19.4 0 35.2 15.8 35.2 35.2 0 9.3-3.7 18.3-10.3 24.8-6.5 6.9-15.6 10.6-24.9 10.4m0-69.9c-19.2 0-34.8 15.6-34.8 34.8 0 19.2 15.6 34.8 34.8 34.8 19.2 0 34.8-15.6 34.8-34.8 0-9.2-3.7-18.1-10.2-24.6-6.5-6.6-15.4-10.3-24.6-10.2m-266.7 42.5h-13.3v-41.8h13.3c11.5 0 20.9 9.4 20.9 20.9 0 11.5-9.3 20.9-20.9 20.9m-12.8-.5h12.8c11.3-.2 20.2-9.6 20-20.9-.2-10.9-9-19.7-20-20h-12.8v40.9zm-89.7.5h-13.3v-41.8h13.3c11.5 0 20.9 9.4 20.9 20.9-.1 11.5-9.4 20.9-20.9 20.9m-12.8-.5h12.8c11.3-.2 20.2-9.6 20-20.9-.2-10.9-9-19.7-20-20h-12.8v40.9zM436 384h-24l12.1-33.1.2.6L436 384zm-23.3-.5h22.7L424 352.3l-11.3 31.2z"/></g><path class="st6" d="m325.2 465.7 2.1 1.9c-2.7 2.6-6.3 4.1-10.1 4.1-7.8 0-14.2-6.4-14.2-14.2 0-7.8 6.4-14.2 14.2-14.2 3.8 0 7.4 1.5 10.1 4.2l-2.1 1.8c-2.2-2-5-3.2-8-3.2-6.3.2-11.3 5.5-11.1 11.8.2 6 5 10.9 11.1 11.1 2.9-.1 5.8-1.3 8-3.3zM333.2 461.9c0 1.9.7 3.7 2 5.1 1.3 1.3 3 2 4.9 2 1.8 0 3.6-.7 4.9-2 .2-.2.5-.6.9-1.1l2.7 1c-.5.8-1 1.5-1.7 2.1-3.8 3.8-9.9 3.8-13.7 0-3.8-3.8-3.8-9.9 0-13.7s9.9-3.8 13.7 0c1.7 1.8 2.6 4.2 2.5 6.7l-16.2-.1zm.6-2.8h12.6c-.3-.7-.8-1.4-1.4-1.9-1.3-1.3-3.1-2-4.9-2-1.8 0-3.6.7-4.9 2-.5.6-1 1.2-1.4 1.9zM368.4 453.9l-7.2 17.5h-2.8l-7.1-17.5h3.1l5.4 13 5.5-13h3.1zM374.5 448.7c.4.4.6.9.6 1.5 0 1.2-.9 2.1-2.1 2.1-.6 0-1.1-.2-1.5-.6-.4-.4-.6-.9-.6-1.5s.2-1.1.6-1.5c.9-.8 2.2-.8 3 0zm-.1 5.2v17.5h-2.7v-17.5h2.7zM394 466.1l2.8 1c-.5.7-1 1.3-1.5 1.9-3.8 3.8-10 3.8-13.8 0-3.8-3.8-3.8-10 0-13.8s10-3.8 13.8 0c.6.6 1.1 1.2 1.5 1.9l-2.8 1c-.3-.4-.6-.7-.8-.9-2.7-2.7-7.1-2.7-9.8 0-2.7 2.7-2.7 7.1 0 9.8s7.1 2.7 9.8 0c.2-.2.5-.5.8-.9zM400.6 443.6h2.8v10.2c.7-.6 2-1 3.9-1 3.8-.1 7 2.9 7.2 6.7v11.8h-2.8V460c0-1.2-.5-2.3-1.3-3.1-.8-.8-1.9-1.3-3.1-1.3-1.2 0-2.3.4-3.1 1.3-.3.3-.6.7-.8 1v13.4h-2.8v-27.7zM421.1 461.9c0 1.9.7 3.7 2 5.1 2.7 2.7 7 2.7 9.7 0 .2-.2.5-.6.9-1.1l2.7 1c-.5.8-1 1.5-1.7 2.1-3.8 3.8-9.9 3.8-13.7 0-3.8-3.8-3.8-9.9 0-13.7s9.9-3.8 13.7 0c1.7 1.8 2.6 4.2 2.5 6.7l-16.1-.1zm.6-2.8h12.6c-.3-.7-.8-1.4-1.4-1.9-2.7-2.7-7-2.7-9.7 0-.7.6-1.2 1.2-1.5 1.9zM448.4 456.2c-1.1.2-2.2.7-3 1.5-1.3 1.2-2 2.9-2 4.6v9h-2.8v-17.5h2.8v1.9c1-1 2.2-1.7 3.5-2.1l1.5 2.6zM459.8 446.9l-5.7 4.4h-3l3.8-4.4h4.9zm-4.2 7v17.5h-2.7v-17.5h2.7zM481.3 471.4h-2.8v-2c-1.8 1.7-4.3 2.6-6.8 2.5-5.4 0-9.7-4.4-9.7-9.7 0-5.4 4.4-9.7 9.7-9.7 2.5-.1 4.9.8 6.8 2.5v-1h2.8v17.4zm-2.8-7.9v-2.8c-.8-3.7-4.4-6.1-8.1-5.4s-6.1 4.4-5.4 8.1c.7 3.2 3.5 5.5 6.8 5.5 1.8 0 3.6-.7 4.9-2 .9-.8 1.5-2.1 1.8-3.4z"/></g></svg>