<svg version="1.1" id="Capa_1" xmlns="http://www.w3.org/2000/svg" xmlns:xlink="http://www.w3.org/1999/xlink" x="0" y="0" viewBox="0 0 792 443.1" style="enable-background:new 0 0 792 443.1" xml:space="preserve"><style>.st2{fill:#fff}</style><defs><path id="SVGID_1_" d="M0 0h792v443.1H0z"/></defs><clipPath id="SVGID_2_"><use xlink:href="#SVGID_1_" style="overflow:visible"/></clipPath><g style="clip-path:url(#SVGID_2_)"><defs><path id="SVGID_3_" d="M0 0h792v443.1H0z"/></defs><clipPath id="SVGID_4_"><use xlink:href="#SVGID_3_" style="overflow:visible"/></clipPath><g style="clip-path:url(#SVGID_4_)"><path d="M261 211.60000000000002c-1.4 1.1-2.8 2.4-4.1 3.8-.8.7-1.7 1.4-2.7 2.2-1 .7-1.9 1.6-2.8 2.4-2.7 2.9-5 5.3-6.7 7.3-1.7 1.9-2.9 3-3.8 3.1-.8.1-1.6 0-2.2-.5-.7-.3-1.3-.9-1.5-1.7-.1-.5 0-1 .2-1.5.2-.6.4-1.3.7-1.8.5-2.3 1.2-4.5 2-6.7-.6.5-1.2 1-1.9 1.4-.5.3-.8.4-1 .3-1.3.6-2.5 1.3-3.5 2.2-1 .9-2.1 1.7-3.2 2.4s-2.3 1.3-3.5 1.7c-1.4.4-3 .4-4.4 0-.2 0-.4-.1-.6-.2-.2-.1-.4-.2-.7-.3-.6-.2-1.1-.6-1.5-1.1-.3-.5-.6-1-.8-1.5-.2-.8-.3-1.6-.3-2.4 0-1 0-1.9.2-2.9-.2-.1-.3-.1-.3.1 0 .1-.1.2-.2.2-.2.1-.3.2-.5.3-.2.1-.4.3-.6.4-.4.5-.8.9-1.1 1.3-.4.4-.9.8-1.4 1-.1.3-.4.6-.7.7-.2.1-.5.3-.7.5-.1 0-.1.1-.1.2s0 .2-.1.2c-.2.1-.4.2-.7.3-.3.1-.6.3-.7.6-1.9 1.3-3.9 2.4-5.9 3.3-.6.4-1.1.7-1.8 1-.5.3-1.2.4-1.8.3h-1c-.3 0-.7-.1-1-.2-.7-.1-1.3-.1-1.9-.2-.6 0-1.2-.3-1.6-.8-.9-.6-1.1-1.6-.7-3.2 0-.1 0-.1.1-.1s.1-.1.1-.2c.1-.9.3-1.7.8-2.5.4-.7.9-1.4 1.4-2.1.6-1.1 1.4-2.2 2.2-3.2.7-.8 1.3-1.7 1.9-2.6-1.8.4-3.1.6-3.9.8-1.1.2-1.9.3-2.2.4-.2 0-.5.1-.7.2-.5.3-1 .5-1.6.6-.2.1-.3.2-.5.3-.2.1-.4.2-.6.2-.9.4-1.9.7-2.9.9-1 .1-2 .4-2.9.9l-.7.5c-.4.3-.9.4-1.5.5-.5 0-1 .3-1.2.8-.4 1.1-.9 2.3-1.5 3.3-.6 1.1-1.2 2.2-1.8 3.2-.5.6-.9 1.3-1.3 1.8-.5.6-1 1.3-1.6 1.8-.9 1.1-1.8 2.1-2.8 3.1-2.6 2.6-5.3 5-8.3 7.2-.3.2-.6.4-.8.7-.2.3-.5.5-.9.6-.2.1-.2.2-.1.2.1.1 0 .2-.3.4-.7.4-1.4.8-2 1.3-.7.5-1.4.9-2.2 1.2-.7.8-1.5 1.5-2.4 2.1-1 .7-2 1.4-3.1 2-4.1 2.3-7.1 3.9-8.9 4.8l-3.5 1.8-.5.3h-.3c-.9.3-1.7.7-2.6 1.1-1.4.6-3.8 1.8-7.3 3.5.1-.2-.6-.1-2.1.5l-5.3 2c-2.1.8-4.1 1.5-6.3 2.2-1.6.6-3.3.9-5 1-.5.2-1.1.1-1.6-.1s-1-.4-1.5-.5h-1.5c-.5 0-1-.1-1.5-.2-.4-.1-.8-.4-1.1-.7-.3-.5-.5-1.1-.4-1.6-.1-1.3.3-2.7 1.2-3.7.8-1.1 1.7-2.2 2.5-3.2 4.6-5.3 9.6-10.1 15-14.6 5-4.1 10.3-7.8 15.9-10.9 5.6-3.2 11.5-5.9 17.5-8.3 6.1-2.4 12.7-4.6 19.8-6.7.2-1.5-.1-3-.7-4.3-.6-1.3-1.3-2.4-2.3-3.5-2-1.5-4.2-2.6-6.6-3.5-2.6-1-5.4-1.6-8.3-1.6-3.5-.1-7 0-10.4.4-3.5.3-7 .7-10.7 1.1-1.2.2-2.3.3-3.5.3-1.2.1-2.3-.1-3.4-.6-.3-.1-.7-.2-1-.4-.3-.2-.7-.3-1.1-.5-.6-.2-1.2-.4-1.9-.5-.6-.1-1.2-.4-1.8-.7-.6-.5-1.1-1.1-1.6-1.8-.6-.9-.9-1.9-.8-2.9 0-1.3.3-2.6.7-3.8.4-1.2.9-2.4 1.6-3.4.6-1.2 1.2-2.3 2-3.3.7-.9 1.4-1.7 2-2.6 6.1-7.3 13.5-13.4 21.7-18.2 2.2-1.4 4.5-2.6 6.9-3.6 2.5-1 5.1-1.7 7.8-2.1.8-.2 1.5-.3 2.3-.3.9 0 1.7-.1 2.4-.2 1.6-.2 3.1-.2 4.5-.2 1.3 0 2.6.5 3.5 1.3.3.2.6.4.9.7.3.4.8.6 1.3.7.2.5.2 1.1.1 1.6s-.3 1-.4 1.5c.3.2.5.1.4-.1s0-.2.2-.1c-.1.8-.3 1.6-.6 2.3-.2.6-.5 1.4-.7 2.3-.6 1.4-1.1 2.6-1.4 3.5-.2.4-.5.8-.7 1.3-.2.4-.4.9-.5 1.4-.6-.2-.8-.1-.8.2 0 .3-.1.6-.3.8-.4-.1-.8-.1-1.1.1-.4.1-.8.2-1.1.2-.2 0-.3-.1-.5-.2-.2 0-.3 0-.5.1-.3.1-.6.3-.9.5-.3.3-.6.3-1 .1-.1-1-.1-2 .1-2.9.2-.9.4-1.8.7-2.6l.8-2.6c.3-.9.5-1.7.7-2.6-1.6 0-3.2.2-4.7.5s-3 .7-4.5 1.3c-1.1.4-2.1.9-3.1 1.4-1 .6-2 1.1-3.1 1.6-3.9 1.9-7.7 4-11.3 6.4-.9.5-1.7 1.2-2.4 1.9-.7.8-1.4 1.6-2 2.4-2.2 2.2-4.2 4.6-6 7.2-1.9 2.6-3.3 5.6-4.2 8.7.7.4 1.4.5 2.2.4 3.7.1 7.4-.1 11.1-.4 3.6-.4 7.2-.5 10.9-.3 3.1.2 6.3.5 9.4 1.1 2.8.5 5.6 1.4 8.2 2.6 2.4 1.1 4.6 2.6 6.4 4.5 1.8 2 3.3 4.3 4.1 6.9 2.9-.7 5.5-1.3 7.8-1.7s4.6-.8 6.8-1 4.6-.5 7.1-.7l1.1-.1c1-.9 2-1.9 3.1-2.8 1.5-1.3 3-2.5 4.2-3.5.8-.7 1.7-1.3 2.7-1.6.8-.3 1.5-.9 2.1-1.5.7-.7 1.5-1.2 2.5-1.4.1 0 .1 0 .1-.1s0-.1.1-.1c.2 0 .4 0 .5.1.2.1.4 0 .6-.2.5.3 1.1.4 1.7.4.3.4.7.8 1.1 1.1.4.3.6.8.6 1.3.3.3.3.7.1 1-.1.4-.4.7-.7.9-.2.2-.5.3-.9.3-.3 0-.7 0-1 .2-.8.3-1.6.8-2.3 1.4l-1.4 1-.2.3c-.3 0-.5.1-.8.2-.3.2-.6.5-.7.9-.7.2-1.4.5-1.9.9-.6.4-1.3.9-1.9 1.3l-.2.2h.2c.4 0 .9 0 1.3-.1-.6.2-1.3.5-1.9.8-.2.1-.4.2-.6.2-.1.1-.3.3-.5.4.2 0 .4-.1.6-.1-.4.4-.8.6-1.3.7l-1.9 1.6c-.7.6-1.4 1.3-2.1 1.9-.4.3-.8.7-1.2 1.1-.4.4-.9.8-1.4 1 0 .3-.2.7-.5.9v.2c-.5.2-.9.6-1.1 1-.3.4-.6.9-.9 1.3-.2.7-.5 1.4-1 1.9s-.8 1.1-.9 1.8c.7-.2 1.4-.6 1.9-1.1 2.8-1.6 5.4-3.3 7.9-5.2 2.5-1.8 5.1-3.7 7.8-5.8.7-.6 1.4-1.1 2.1-1.6.8-.5 1.5-1.2 2-1.9h.4v-.1c.1-.2.2-.4.4-.6.2-.2.3-.5.4-.7.1-.2.1-.4.1-.6 0-.2.1-.5.3-.6.3-.1.6-.1.9-.1h2.4c.3.2.8.4 1.3.6s.8.8.8 1.7c-.2.7-.6 1.4-1 2.1-.4.6-.9 1.3-1.4 2.1-.1.7-.4 1.4-.9 1.9v.6c-.4.2-.7.6-.7 1.1-.1.4-.1.7-.2 1-.1.4-.2.7-.4 1.1l-.7 2.7c0 1.1.2 1.7.6 1.8.5.2 1 .1 1.5-.1.7-.3 1.4-.6 2-1 .6-.4 1.3-.7 1.9-1 1.5-.6 2.9-1.3 4.3-2.2 1.5-1 2.8-1.8 3.9-2.4.9-.4 1.8-.6 2.7-.8 1.1-2.3 2.1-4.6 3-7.1.2-.5.4-.9.7-1.3.3-.4.5-.9.7-1.3.2-.5.3-1.1.4-1.6.1-.5.2-1 .2-1.4.2-.2.4-.4.5-.7.2-.3.4-.5.7-.7.9-.6 2-.8 3-.5.9.1 1.6.8 1.9 1.7.4.8.4 1.7 0 2.5l-1.2 2.1c-.2.5-.2 1-.2 1.4 0 .5-.1.9-.2 1.3-.5 1.1-1 2.3-1.5 3.4s-1 2.4-1.5 3.8c.6-.1 1.1-.4 1.5-.8.4-.5.9-.9 1.4-1.2 2.1-1.9 4.1-3.7 6.1-5.6 2.1-2 4.3-3.7 6.8-5.1.9-.6 1.9-1.2 3-1.8 1-.6 2.2-1 3.4-1.1.9 0 1.8.4 2.6.9.8.4 1.3 1.1 1.5 2 .1.9 0 1.9-.3 2.8-.3 1-.5 1.9-.8 2.8-.1.6-.3 1.7-.5 3.1s-.6 3-.9 4.6-.5 3.2-.7 4.6c-.2 1-.2 2.1-.1 3.1l1.9-.9c.6-.2 1.3-.6 2.1-1s1.4-.6 1.6-.7l.4-.2c.1-.1.3-.2.4-.2.5-.3 1-.6 1.6-.9.6-.5 1.1-.9 1.7-1.4.5-.4 1.1-.7 1.7-1 .4-.2.9-.3 1.3-.2.6-.4 1.3-.8 1.9-1.1.6-.3 1.1-.7 1.5-1.1.7.3 1.1.6 1.1.9 0 .3-.1.7-.3 1-.7.8-1.5 1.5-2.4 1.9-.5.6-.9 1-1.2 1.3-.4.4-.8.7-1.3.9-.9.7-1.5 1.2-1.7 1.4l-.5.5c-.2.2-.4.3-.6.4-.3.2-.9.6-1.9 1.2-1 .6-2 1.2-3 1.9-.9.7-2 1.2-3.1 1.6-.8.2-1.6.3-2.3.4-.6.1-1.3.1-1.9.1-.9.2-1.7-.3-2.4-1.4-.6-.9-1-1.9-1-3 .1-.8.2-1.7.4-2.5.2-1.3.5-2.6.8-4s.6-2.8.9-4.1.5-2.2.5-2.7c.1-1 .2-2 .5-3l.6-2.7c-.6.1-1.2.4-1.7.9l-1.5 1.2c-1.4 1.3-2.8 2.4-4.2 3.6m-85.7 8.7c-3 1.2-5.6 2.3-7.8 3.1-2.2.9-4.2 1.6-5.9 2.4s-3.5 1.5-5.1 2.3-3.3 1.7-5.1 2.7-3.8 2.1-6 3.5-4.8 3-7.8 4.9c-2.9 2.1-5.1 3.7-6.7 4.9-1.5 1.2-2.8 2.2-3.9 3.2l-3.1 2.7c-1 .9-2.4 2.1-4.1 3.6-.4.3-.7.7-.9 1.1-.2.4-.5.8-.8 1.2-.5.7.4.7 2.8.1 3.2-.8 6.3-1.8 9.3-3 3.9-1.5 8.2-3.3 13-5.5 4.7-2.2 9.3-4.7 13.7-7.5 4.1-2.6 8-5.6 11.5-9 3-2.7 5.2-6.1 6.4-9.9-.1 0-.3 0-.4.1-.1 0-.2.1-.2.1.5-.3.9-.6 1.1-1m27.1-7.3c-.3 0-.7 0-1 .1.2-.1.4-.1.6 0 .2.1.3.1.4-.1m100.3-32.6c.5.1 1-.1 1.3-.5.4-.4.9-.7 1.5-.9 1.5-.6 3.1-1.1 4.7-1.5s3.1-.9 4.5-1.3c4.9-1.9 9.9-3.5 14.9-5s10.2-2.5 15.4-3.1l4.6-.5 4.9-.5c2.1-.3 4.3-.5 6.4-.9s4.3-.6 6.4-.7c.2.1.3 0 .4-.2s.2-.3.2-.3c1.1 0 2.1 0 3-.1 1 0 1.9 0 2.9.1v-.2c0-.1.1-.2.2-.2h.1l1.3-.2c.4-.1.9-.2 1.6-.3-.2 0-.2 0-.2-.1s0-.2-.1-.2c.4-.2.8-.4 1.1-.7.3-.3.8-.4 1.1-.1.2-.5.3-.8.5-.9.2-.1.3-.4.4-.6-.3-.2-.5-.6-.5-1s-.1-.7-.4-1c-.3-.2-.6-.3-.9-.4-.4-.1-.8-.3-1.1-.4-3.4-.2-6.9-.1-10.3.4-4.8.2-9.6.8-14.3 1.6-4.7.8-9.4 1.7-14.3 2.6-5.7 1.3-11.2 2.8-16.6 4.4-5.4 1.6-10.8 3.5-16 5.7-.7.3-1.5.7-2.2 1-.7.4-1.4.7-2.2.9-.2.2-.5.3-.8.3-.3 0-.5.3-.8.8-.3 1.6-.1 2.8.5 3.4.8.4 1.8.7 2.8.6m183.7 39.3c-.5.6-.9 1-1.2 1.3-.4.4-.8.7-1.3.9-.9.7-1.5 1.2-1.7 1.4-.2.2-.4.3-.5.5-.2.2-.4.3-.6.4-.3.2-.9.6-1.9 1.2-1 .6-2 1.2-3 1.9-.9.7-2 1.2-3.1 1.6-.8.2-1.6.3-2.3.4-.6.1-1.3.1-1.9.1-.9.2-1.7-.3-2.4-1.4-.6-.9-1-1.9-1-3 .1-.8.2-1.7.4-2.5.2-1.3.5-2.6.8-4s.6-2.8.9-4.1.5-2.2.5-2.7c.1-1 .2-2 .5-3l.6-2.7c-.6.1-1.2.4-1.7.9l-1.5 1.2c-1.5 1.1-2.9 2.3-4.3 3.4s-2.8 2.4-4.1 3.8c-.8.7-1.7 1.4-2.7 2.2-1 .7-1.9 1.6-2.8 2.4-2.7 2.9-5 5.3-6.7 7.3s-3 3-3.8 3.1c-.8.1-1.6 0-2.2-.5-.7-.3-1.3-.9-1.5-1.7-.1-.5 0-1 .2-1.5.2-.6.4-1.3.7-1.8.5-2.3 1.2-4.5 2-6.7-.6.5-1.2 1-1.9 1.4-.5.3-.8.4-1 .3-1.3.6-2.5 1.3-3.5 2.2-1 .9-2.1 1.7-3.2 2.4s-2.3 1.3-3.5 1.7c-1.4.4-3 .4-4.4 0-.2 0-.4-.1-.5-.2-.2-.1-.4-.2-.7-.3-.6-.2-1.1-.6-1.5-1.1-.3-.5-.6-1-.8-1.5-.2-.8-.3-1.6-.3-2.4 0-1 0-1.9.2-2.9-.2-.1-.3-.1-.3.1s-.1.2-.2.2c-.2.1-.3.2-.5.3l-.6.4c-.4.5-.8.9-1.1 1.3-.4.4-.9.8-1.4 1-.1.3-.4.6-.7.7-.2.1-.5.3-.7.5-.1 0-.1.1-.1.2s0 .2-.1.2c-.2.1-.4.2-.7.3-.3.1-.6.3-.7.6-1.9 1.3-3.9 2.4-6 3.3-.6.4-1.1.7-1.8 1-.5.3-1.2.4-1.8.3h-1c-.3 0-.7-.1-1-.2-.6-.1-1.3-.1-1.9-.2-.6 0-1.2-.3-1.6-.8-.9-.6-1.1-1.6-.7-3.2 0-.1 0-.1.1-.1s.1-.1.1-.2c0-.4.1-.9.3-1.3-1.7 1-3.2 1.9-4.6 2.8-.8.6-1.7 1-2.7 1.3-.6.2-1.1.4-1.4.5s-.8.2-1.4.4c-.6.2-1.3.2-1.9.1-.5-.1-1.1-.2-1.6-.4-.8-.3-1.5-.9-1.8-1.7-.3-.9-.5-1.8-.5-2.7 0-1 0-2 .2-3s.3-1.9.4-2.6c-.1-.4-.1-.8 0-1.2.1-.4.2-.7.4-1.1-.3.2-.6.5-.9.9-.3.3-.6.6-1 .7-.2.3-.4.5-.7.6l-.5.3c-.2.1-.4.2-.5.4-.2.2-.4.5-.5.7-.2 0-.4 0-.4.1-.1.1-.1.2-.2.2s-.1.2-.1.5c-.7.7-1.5 1.3-2.4 1.8-.9.5-1.7 1.1-2.3 1.9-.7.4-1.3.9-1.7 1.5-.4.6-.9 1.1-1.6 1.5-.4.5-1 .9-1.6 1.1-.1.2-.2.4-.4.5-.1.1-.3.2-.5.2-.1.5-.5 1-1 1.1-.5.2-1 .6-1.3 1-3.1.5-5.2.2-6.3-.7-1.1-1-1.8-2.4-1.7-3.9.1-1.9.4-3.8 1.1-5.6.7-2 1.6-3.9 2.5-5.8.2-.6.4-1 .5-1.2.1-.2.2-.5.3-.7.1-.3.2-.5.3-.8s.3-.8.5-1.4.6-1.3 1-1.9c.2-.4.4-.7.7-1.1h-.1c-.3 0-.6.1-.8.3l-1.8.5-1.8.5-.3.3-.3.3c-2.7.7-4.7 1.3-6.1 1.8s-2.6.9-3.6 1.3-2.2 1-3.5 1.7-3.1 1.6-5.6 2.9c-1.2.6-2.4 1.3-3.6 1.8s-2.4 1.2-3.5 1.8c-.4.3-.9.5-1.3.7-.4.1-.8.4-1 .8-.4.5-.7 1.1-.9 1.8-.2.7-.5 1.4-.9 2-2.9 6.4-5.9 12.6-9 18.7-5.5 10.5-12.6 20.1-21 28.5-.5.4-1 .9-1.5 1.3s-1 .9-1.5 1.3l-2.7 1.7c-1.2 1-2.5 1.9-3.9 2.8-1.4.9-2.8 1.7-4.3 2.3-1 .5-2.1 1-3 1.5-1 .5-2.1 1-3.2 1.3l-3.5.9c-1 .3-2 .6-2.9.9-1.1.3-2.2.4-3.4.5-1.4 0-2.8-.2-4.1-.5-1.2-.4-2.3-.9-3.4-1.5-.7-.5-1.3-1.2-1.5-2.1-.3-.9-.5-1.9-.5-2.9-.1-1 0-2.1.1-3.1.2-1 .4-2.1.6-3 .8-3 2-5.9 3.5-8.6 1.4-2.5 3-4.9 4.7-7.1 4.8-5.9 10.3-11.2 16.3-15.8 6.1-4.7 12.5-8.9 19.1-12.8 3.4-2.1 6.8-4.1 10.3-5.9s7-3.6 10.6-5.3c1-2.2 2-4.8 3-7.8s2.1-6.1 3.2-9.3c1.1-3.2 2.1-6.4 3-9.5.9-3.2 1.8-6 2.4-8.5.4-1.3.7-2.6 1-3.9.2-1.3.5-2.6.7-4 .2-.5.3-1 .3-1.4 0-.5.1-1 .3-1.5.4-.6 1-1.1 1.8-1.4.8-.3 1.6-.5 2.5-.5 1 .1 1.9.5 2.7 1.1.8.5 1.3 1.3 1.6 2.3.2.6.1 1.2-.1 1.7-.3.5-.5 1-.7 1.6-.5.9-.9 1.9-1.1 2.9-.3 1-.6 2-1 3-.7 2-1.4 4.4-2.3 7.1-.9 2.7-1.7 5.5-2.6 8.3s-1.8 5.6-2.7 8.3-1.7 4.9-2.4 6.8c1-.3 2-.7 3-1.2s2-1 3-1.3c3-1.3 5.4-2.3 7.2-3 1.8-.7 3.4-1.4 5-1.9s3.2-1.1 5.1-1.6 4.5-1.2 7.8-2c.5-.2 1-.3 1.6-.4h.1c-.1-.1-.1-.2-.1-.3 0-.1.1-.2.1-.4.7-.5 1.5-.9 2.2-1.3.7-.4 1.5-.5 2.3-.4.7.4 1.3 1 1.7 1.7 0 .1.1.2.1.4.1 0 .1.1.2.1.2.2.5.4.9.5l-1 .3c0 .3-.1.6-.3.9-.3.6-.6 1.2-1.1 1.6-.4 1-.8 1.8-1 2.4s-.5 1.2-.8 1.8l-.8 1.8c-.3.6-.7 1.5-1.1 2.5-.3.7-.7 1.4-1.1 2-.5.7-1 1.4-1.3 2.2-.2.7-.4 1.3-.8 1.9-.4.7-.7 1.5-1 2.3-.2.7-.2 1.1 0 1.4s1-.1 2.2-1c2.8-1.9 5.4-4.1 7.8-6.6 2.4-2.5 4.9-5 7.5-7.6.3-.4.7-.9 1.2-1.6s1-1.3 1.5-2l1.2-1.8c.2-.4.6-.7.9-1 .3-.3.7-.5 1.1-.7.4-.2.9-.2 1.4 0 .5.3.9.8 1.1 1.3.3 1 .4 2.1.2 3.2-.4 1-.8 1.8-1 2.5-.3.8-.5 1.6-.7 2.4-.2.6-.3 1.4-.5 2.5s-.4 2.2-.5 3.3c-.1 1-.1 2.1-.1 3.1.1.9.3 1.5.7 1.6.9.4 1.8.5 2.7.3.9-.2 1.8-.6 2.6-1.1 2.5-1.2 4.3-2.1 5.3-2.6l2.5-1.3c.3-.1.5-.3.8-.4.7-.9 1.5-1.8 2.1-2.8.6-.6 1.7-1.5 3-2.8s2.8-2.6 4.4-4 3-2.5 4.3-3.5c.8-.7 1.7-1.3 2.7-1.6.8-.3 1.5-.9 2.1-1.5.7-.7 1.5-1.2 2.5-1.4.1 0 .1 0 .1-.1s0-.1.1-.1c.2 0 .4 0 .5.1.2 0 .4 0 .5-.2.5.3 1.1.4 1.7.4.3.4.7.8 1.1 1.1.4.3.6.8.6 1.3.3.3.3.7.1 1-.1.4-.4.7-.7.9-.2.2-.5.3-.9.3-.3 0-.7 0-1 .2-.8.3-1.6.8-2.3 1.4l-1.5 1-.3.3c-.3 0-.5.1-.8.2-.3.2-.6.5-.7.9-.7.2-1.4.5-1.9.9-.6.4-1.3.9-2 1.3-.4.4-.8.8-1.1 1s-.7.6-1.1.9c-.6.6-1.3 1.2-2.1 1.8s-1.4 1.3-2.1 1.9c-.4.3-.8.7-1.1 1.1-.4.4-.9.8-1.4 1 0 .3-.2.7-.5.9v.2c-.5.2-.9.6-1.1 1-.3.4-.6.9-.9 1.3-.2.7-.5 1.4-1 1.9s-.8 1.1-.9 1.8c.7-.2 1.4-.6 1.9-1.1 2.8-1.6 5.4-3.3 7.9-5.2 2.5-1.8 5.1-3.7 7.8-5.8.7-.6 1.4-1.1 2.1-1.6.8-.5 1.5-1.2 2-1.9h.4v-.3c.1-.2.2-.4.4-.6.2-.2.3-.5.4-.7.1-.2.1-.4.1-.6 0-.2.1-.4.2-.6.3-.1.6-.1.9-.1h2.3c.3.2.8.4 1.3.6s.9.8.9 1.7c-.2.7-.6 1.4-1 2.1-.4.6-.9 1.3-1.4 2.1-.2.7-.4 1.4-.9 1.9v.6c-.4.2-.7.6-.7 1.1-.1.4-.1.7-.2 1-.1.4-.2.7-.4 1.1l-.7 2.7c0 1.1.2 1.7.6 1.8.5.2 1 .1 1.5-.1.7-.3 1.4-.6 2-1 .6-.4 1.3-.7 1.9-1 1.5-.6 2.9-1.3 4.3-2.2 1.5-1 2.8-1.8 3.9-2.4.9-.4 1.8-.6 2.7-.8 1.1-2.3 2.1-4.6 3-7.1.2-.5.4-.9.7-1.3.3-.4.5-.9.7-1.3.2-.5.3-1.1.4-1.6.1-.5.2-1 .3-1.4.2-.2.4-.4.5-.7.2-.3.4-.5.7-.7.9-.6 2-.8 3-.5.9.1 1.6.8 1.9 1.7.4.8.4 1.7 0 2.5l-1.2 2.1c-.2.5-.2 1-.2 1.4 0 .5-.1.9-.3 1.3-.5 1.1-1 2.3-1.5 3.4s-1 2.4-1.5 3.8c.6-.1 1.1-.4 1.5-.8.4-.4.8-.8 1.3-1.2 2.1-1.9 4.1-3.7 6.1-5.6 2.1-2 4.3-3.7 6.8-5.1.9-.6 1.9-1.2 3-1.8 1-.6 2.2-1 3.4-1.1.9 0 1.8.4 2.6.9.8.4 1.3 1.1 1.5 2 .1.9 0 1.9-.3 2.8-.3 1-.5 1.9-.8 2.8-.1.6-.3 1.7-.5 3.1s-.6 3-.9 4.6-.5 3.2-.7 4.6c-.2 1-.2 2.1-.1 3.1l1.9-.9c.6-.2 1.3-.6 2.1-1s1.4-.6 1.6-.7l.4-.2c.1-.1.2-.2.4-.2.2-.1.7-.4 1.6-.9.6-.5 1.1-.9 1.7-1.4.5-.4 1.1-.7 1.7-1 .4-.2.9-.3 1.3-.2.6-.4 1.3-.8 1.9-1.1.6-.3 1.1-.7 1.5-1.1.7.3 1.1.6 1.1.9 0 .3-.1.7-.2 1-.7.9-1.6 1.5-2.4 2m-165.6 5.7c-1.5.7-2.9 1.5-4.4 2.4-1.5.8-3 1.7-4.5 2.6s-2.9 1.6-4.3 2.4-2.8 1.6-4.2 2.5-2.7 1.8-4 2.7-2.6 1.9-4 2.9-2.7 1.8-3.9 2.7-2.5 1.9-3.8 3c-3.7 3.1-7.3 6.3-10.7 9.6-3.5 3.4-6.4 7.3-8.7 11.5-.9 1.5-1.7 3.1-2.2 4.8-.6 1.8-1 3.6-1.2 5.5 0 .6 0 1.3.1 1.9 0 .4.2.8.5 1.1.2.4.6.6 1 .6.4.1.9.1 1.3.1 1.1.1 2.3 0 3.4-.1 1.1-.2 2.2-.4 3.3-.7 1.8-.6 3.5-1.3 5.2-2.1 1.5-.8 3-1.7 4.6-2.7.4-.4.9-.7 1.5-1 .5-.3 1-.6 1.5-1l2.8-2c.5-.4.9-.8 1.3-1.1s.8-.8 1.2-1.1l1.6-1.6c.5-.6 1-1.2 1.4-1.9 1.4-1.3 2.8-2.8 4-4.3 1.2-1.5 2.5-3 3.8-4.5.9-1.2 1.7-2.4 2.5-3.7s1.5-2.5 2.1-3.8l.9-1.2c.3-.4.5-.8.7-1.2 1.1-1.8 2.1-3.5 3.2-5.2 1.1-1.7 2.1-3.4 3-5.3.9-1.9 1.8-3.9 2.7-5.8.9-1.9 1.7-3.8 2.5-5.6.8-1.9.8-1.9 0-.1m42.8-19.3.1-.1-.3.1h.2m302.6-2.6c-1.6.5-3.3 1.1-5.1 1.8s-3.5 1.5-5.2 2.4c-1.6.8-3.1 1.7-4.5 2.6-1.2.7-2.2 1.6-3.2 2.7l-2.1 2.1c-.7.7-1.4 1.5-1.9 2.4-.3.6-.5 1.5-.8 2.4s-.5 1.9-.8 2.9c-.2.8-.5 1.7-.8 2.5-.1.5-.4 1-.8 1.3-.3.5-.6.9-1 1.3-.5.6-.9.8-1.2.7-1 .6-2.2.5-3.1-.2-.8-.7-1.2-1.9-.9-3 .3-1.2.7-2.5 1.1-3.6.5-1.2.8-2.5 1.1-3.8v-.1c.1-.2.1-.5.1-.7 0 0 0-.1.1-.2-.9.5-1.8 1-2.6 1.4-1.3.7-2.5 1.3-3.6 1.9s-2 1-2.5 1.2l-8.7 4.1c-.7.4-1.4.7-2.1.9-.8.2-1.5.4-2.2.7-1 .2-2.1.5-3.3.7-1.2.2-2.4.3-3.6.3-1.2 0-2.4-.3-3.5-.7-1.1-.5-2.1-1.2-2.7-2.3-.6-.8-.9-1.7-1-2.7v-.8l-1.5 1.2-.5.5c-.2.2-.4.3-.6.4-.3.2-.9.6-1.9 1.2-1 .6-2 1.2-3 1.9-.9.7-2 1.2-3.1 1.6-.8.2-1.6.3-2.3.4-.6.1-1.3.1-1.9.1-.9.2-1.7-.3-2.4-1.4-.6-.9-1-1.9-1-3 .1-.8.2-1.7.4-2.5.2-1.3.5-2.6.8-4s.6-2.8.8-4.1.5-2.2.5-2.7c.1-1 .2-2 .5-3l.6-2.7c-.6.1-1.2.4-1.7.9l-1.5 1.2c-1.5 1.1-2.9 2.3-4.3 3.4s-2.8 2.4-4.1 3.8c-.8.7-1.7 1.4-2.7 2.2-1 .7-1.9 1.6-2.8 2.4-2.7 2.9-5 5.3-6.7 7.3s-3 3-3.8 3.1c-.8.1-1.6 0-2.2-.5-.7-.3-1.3-.9-1.5-1.7-.1-.5 0-1 .2-1.5.2-.6.4-1.3.7-1.8.6-2.8 1.5-5.5 2.6-8.1-1.1.6-2.3 1.3-3.4 1.9-1.3.7-2.5 1.3-3.6 1.9s-2 1-2.5 1.2l-8.7 4.1c-.7.4-1.4.7-2.1.9-.8.2-1.5.4-2.2.7-1 .2-2.1.5-3.3.7-1.2.2-2.4.3-3.6.3-1.2 0-2.4-.3-3.5-.7-1.1-.5-2.1-1.2-2.7-2.3-.6-.8-.9-1.7-1-2.7-.1-1.1 0-2.2.3-3.2.2-1.1.6-2.2 1-3.3.4-1 .9-2 1.4-3 .4-.3.8-.7 1-1.2.2-.4.4-.8.5-1.2 1.7-2 3.5-3.9 5.3-5.8 1.7-1.7 3.6-3.2 5.6-4.4.9-.6 1.8-1.1 2.8-1.5 1-.4 1.9-.8 2.7-1.2.3-.1.5-.3.8-.5.3-.2.6-.3.9-.2 2.9 0 4.8.5 5.7 1.5.8.8 1.3 1.9 1.3 3-.2.4-.5.8-.8 1.1-.4.3-.8.7-1.1 1.2-.4.4-.8.8-1.1 1.2-.3.3-.5.6-.7 1-3.1 2.7-6.3 5.2-9.7 7.5-.9.7-2 1.1-3.2 1.3-1.3.2-2.7.3-4.1.1-.6.6-1 1.2-1.5 1.9-.5.8-.9 1.6-1.2 2.4-.3.8-.4 1.7-.4 2.5s.4 1.6 1 2.1c1.4.2 2.9 0 4.2-.5 1.2-.5 2.4-.9 3.5-1.2.9-.2 1.8-.5 2.8-.9s1.8-.6 2.5-1c1.7-.8 3.1-1.5 4.2-1.9s2.1-.9 3.1-1.3 2-.9 3-1.3 2.4-1.2 4-2.1c1.3-.6 2.6-1.3 3.9-2l1.3-.7c.6-1.4 1.2-2.7 1.7-4.1.2-.5.4-.9.7-1.3.3-.4.5-.9.7-1.3.2-.5.3-1.1.4-1.6.1-.5.2-1 .3-1.4.2-.2.4-.4.5-.7.2-.3.4-.5.7-.7.9-.6 2-.8 3-.5.9.1 1.6.8 1.9 1.7.4.8.4 1.7 0 2.5l-1.2 2.1c-.2.5-.2 1-.2 1.4 0 .5-.1.9-.3 1.3-.5 1.1-1 2.3-1.5 3.4s-1 2.4-1.5 3.8c.6-.1 1.1-.4 1.5-.8.4-.4.8-.8 1.3-1.2 2.1-1.9 4.1-3.7 6.1-5.6 2.1-2 4.3-3.7 6.8-5.1.9-.6 1.9-1.2 3-1.8 1-.6 2.2-1 3.4-1.1.9 0 1.8.4 2.6.9.8.4 1.3 1.1 1.5 2 .1.9 0 1.9-.3 2.8-.3 1-.5 1.9-.8 2.8-.1.6-.3 1.7-.5 3.1s-.6 3-.8 4.6-.5 3.2-.7 4.6c-.2 1-.2 2.1-.1 3.1l1.9-.9c.6-.2 1.3-.6 2.1-1s1.4-.6 1.6-.7l.4-.2c.1-.1.3-.2.4-.2.5-.3 1-.6 1.6-.9.6-.5 1.1-.9 1.7-1.4.5-.4 1.1-.7 1.7-1 .3-.1.7-.2 1-.2.2-.6.4-1.1.6-1.7.4-1 .9-2 1.4-3 .4-.3.8-.7 1-1.2.2-.4.4-.8.5-1.2 1.7-2 3.5-3.9 5.3-5.8 1.7-1.7 3.6-3.2 5.6-4.4.9-.6 1.8-1.1 2.8-1.5 1-.4 1.9-.8 2.7-1.2.3-.1.5-.3.8-.5.3-.2.6-.3.9-.2 2.9 0 4.8.5 5.7 1.5.8.8 1.3 1.9 1.3 3-.2.4-.5.8-.8 1.1-.4.3-.8.7-1.1 1.2-.4.4-.8.8-1.1 1.2-.3.3-.5.6-.7 1-3.1 2.7-6.3 5.2-9.7 7.5-.9.7-2 1.2-3.1 1.4-1.3.2-2.7.3-4.1.1-.6.6-1 1.2-1.5 1.9-.5.8-.9 1.6-1.2 2.4-.3.8-.4 1.7-.4 2.5s.4 1.6 1 2.1c1.4.2 2.9 0 4.2-.5 1.2-.5 2.4-.9 3.5-1.2.9-.2 1.8-.5 2.8-.9s1.8-.6 2.5-1c1.7-.8 3.1-1.5 4.2-1.9s2.1-.9 3.1-1.3 2-.9 3-1.3 2.4-1.2 4-2.1c1.3-.6 2.6-1.3 3.9-2l.3-.1c.2-.6.5-1.1.7-1.6 0-.1.1-.1.2-.2.1 0 .2-.1.2-.2.4-1.6.9-3.2 1.5-4.8.6-1.6 1.2-3.1 1.6-4.6.1-.3.2-.5.4-.7.2-.2.3-.4.5-.6.3-.1.7-.3 1-.5.3-.2.6-.3.9-.3.2-.2.4-.2.6-.2.2 0 .4 0 .5.1.2 0 .4.1.5.1.6 0 1.2.3 1.6.9.9 1 .9 2.6-.1 3.5l-.1.1c-.1.7-.2 1.3-.4 1.9-.2.6-.3 1.1-.4 1.7 2.5-1.9 5.3-3.4 8.4-4.4 2.5-.8 5-1.2 7.6-1.4l2.3-.3c.8-.1 1.6.1 2.2.5-.1.2-.2.4-.2.6 0 .2-.1.3-.4.5 0 .2-.1.3-.4.3-.1.4-.5.7-.9.7-.5.1-.9.4-1.2.7M611 213.3c.7 0 1.5-.2 2.1-.6.7-.4 1.4-.8 2-1.2 1.6-1.3 3.3-2.7 5-4.3 1.6-1.5 3.2-3.1 4.6-4.8.2 0 .3-.1.3-.4-2.9 1-5.5 2.6-7.7 4.6-2.2 2.1-4.3 4.4-6.3 6.7m-78.9 0c.7 0 1.5-.2 2.1-.6.7-.4 1.4-.8 2-1.2 1.6-1.3 3.3-2.7 5-4.3 1.6-1.5 3.2-3.1 4.6-4.8.2 0 .3-.1.3-.4-2.9 1-5.5 2.6-7.7 4.6-2.3 2.1-4.4 4.4-6.3 6.7m182-9c-.2.3-.5.6-.8.8-.6 0-1.1.1-1.6.4-.2.2-.4.3-.6.4-.3.2-.7.2-1 .3-.5 0-1.4.1-2.8.1-1.2 0-2.4.1-3.6.2-1.3.2-2.6.4-3.8.7l-3.7.9c-1.2.3-2.2.5-3 .8-.1.3-.1.5-.1.8v.5c.1.6 0 1.3-.1 1.9-.1.6-.4 1.2-.7 1.6-.2.4-.4.9-.6 1.6-.2.6-.5 1.2-.8 1.7-.7.7-1.3 1.5-1.7 2.5-.4.9-1 1.7-1.8 2.3-1.3 1.4-2.7 2.7-4.1 3.9-1.1.9-2.3 1.8-3.6 2.5-.9.7-2.1 1-3.2.9-1.2.5-2.5.7-3.8.6-1.1-.1-2.3-.5-3.3-1s-1.8-1.3-2.4-2.2c-.7-1-1.1-2.1-1.2-3.2-.1-.3-.1-.6-.1-.9 0-.3.1-.7.4-.9-.2-.6-.2-1.3.1-1.8.3-.5.4-1.1.4-1.7l2.2-6.2c.2 0 .4-.2.4-.4s.1-.3.3-.3c.5-1.2 1.2-2.3 2-3.4.9-1.1 1.7-2.2 2.6-3.1.5-.6 1-1.3 1.6-2.1.6-.7 1.2-1.4 1.9-2 .6-.5 1.3-.9 2.1-1.1.7-.2 1.5.1 2.1.6.7.1 1.4.4 2.1.7.1.2.2.2.3 0 .1-.2.3-.2.4-.1.3-.1.6-.1.9 0 .5.1.9.2 1.4.4.5.2.9.3 1.3.5.3.1.6.3.8.5l1.2 1.7 4.5-.9c2-.4 4.2-.6 6.5-.8 2.1-.2 4.2-.3 6.3-.2 1.5-.1 2.9.2 4.3.9.1.1.2.1.3.1.1 0 .2 0 .3.1.1.1.1.1.2.1.5-.1.7 0 .8.1s.2.3.5.3c.4.3.5.7.2 1m-27.5 1.8c0-1.3-.8-1.9-2.2-1.9-.4-.2-.8-.2-1.2-.3-.4 0-.8-.2-1.1-.5l-.4.4c-.5.4-.9.9-1.2 1.5-.3.6-.6 1.2-1 1.8-.4.5-.9 1.2-1.6 2.2s-1.3 2-2 3.1-1.2 2.1-1.8 3.1c-.4.7-.7 1.5-.9 2.4-.2 1-.6 2.2-1 3.4-.4 1.2-.3 2.4.3 3.5 1.7-.6 3.2-1.4 4.7-2.4 1.3-1 2.6-2.1 3.7-3.3l.7-.9 1.8-3.1c.9-1.5 1.6-3.1 2.2-4.7.7-1.4 1-2.8 1-4.3m-113.9 34c-1.5-.4-3.1-.7-4.7-.9-2-.2-4.1-.4-6.4-.5-2.3-.1-4.4-.2-6.5-.2-1.7 0-3.3.1-5 .3-2.9.1-6.5.3-10.9.7s-8.8.9-13.5 1.6c-4.7.7-9.3 1.4-13.9 2.3-4.6.8-8.6 1.7-12 2.7.3-.5.5-1.1.7-1.7.4-1.1.9-2.4 1.4-3.9s1.1-3.2 1.7-5 1.2-3.6 1.8-5.2 1-3.1 1.5-4.5.7-2.3.9-2.9c.2 0 .2 0 .1.1-.1 0-.1.1.1.2 0-.1.1-.3.2-.4.1-.1.2-.2.2-.4s.1-.5.1-.7c.1-.3.1-.4 0-.2l-.1.1c.2-.6.3-1.1.5-1.6s.4-1.1.7-1.5l1-2.4c.2-.8.6-1.6 1-2.3 1.2-2.2 2.1-4.6 2.9-7 .8-2.5 1.7-5 2.7-7.6 1.1-3.3 2.3-6.6 3.5-9.8 1.2-3.2 2.4-6.3 3.7-9.4-.2-.5-.1-1 .2-1.4.3-.4.5-.8.7-1.3.7-1.5 1.3-2.9 1.8-4.4s1.2-2.8 1.8-4.1l2.7-5.3c.9-1.8 1.7-3.6 2.4-5.5-.2-.9-.6-1.7-1.1-2.4-.7-.6-1.6-1-2.5-1-.4.1-.7.4-.9.7-.3.4-.6.8-.9 1.1-.2.2-.4.4-.6.5-.2.1-.3.2-.5.4-.4.4-.7.8-.9 1.2-.3.5-.5 1-.8 1.5-.9 1.5-1.7 3-2.4 4.6-.7 1.6-1.4 3.1-2.1 4.6-.5 1.1-1 2.2-1.4 3.3-.4 1.1-.9 2.2-1.4 3.3-.7 1.7-1.3 3.3-1.9 4.9-.6 1.5-1.2 3.1-1.9 4.7-1.7 4-3.3 7.9-4.8 11.7-1.5 3.8-3 7.7-4.6 11.5-1.8 4.6-3.6 9-5.5 13.2-2 4.4-3.6 8.9-4.9 13.5l-3.3 11.5c.2.3.2.7.2 1.1-.1.3 0 .6.2.9-.5.2-.8.4-1 .5-.2.1-.4.1-.5.1-.2 0-.4-.1-.6-.1-.4 0-.8.1-1.2.2-.1.1-.1.2-.1.4s0 .4-.2.5c-.5.2-.9.5-1.3.9l-1.3 1.3c-.2.2-.2.4-.1.6.1.3.1.6 0 .9.6.8 1.6 1.4 2.6 1.5 1.1.1 2.1 0 3.2-.3s2.3-.7 3.3-1.2 2.1-.9 3.1-1.1c.6-.2 1.2-.3 1.8-.3.7 0 1.3-.2 1.9-.3 1.9-.5 3.8-1.1 5.7-1.8s3.9-1.3 5.8-1.8c4.5-1.2 9-2.2 13.6-2.9 4.2-.7 8.1-1.1 11.8-1.4 3.6-.3 7-.6 10.3-.7s6.2-.4 9-.7c.3.1.6.1.8 0s.6-.1.8 0c2-.2 4-.2 6.1 0 .8-.2 1.6-.2 2.4-.2.7 0 1.5 0 2.2-.2 2.3-.4 3.7-.8 3.9-1.2s-.3-1.1-1.3-1.4m-12.2-46c.2 0 .4.2.5.4.7-.4 1.4-.7 2.2-.8.3 0 .5-.1.8-.2.9-.2 1.7-.4 2.6-.5.8-.1 1.7-.2 2.5-.5 3.3-.4 6.6-.7 9.8-.9 3.2-.2 6.4-.4 9.5-.6.8-.1 1.5-.2 2.2-.3.8-.1 1.6 0 2.3.2 1.2 0 2.5-.1 3.7-.2 1.3-.1 2.6-.3 3.8-.4.4-.1.8-.2 1.2-.1.4 0 .8 0 1.1-.1l.9.1c.3 0 .6 0 .9-.2.4-.1.6-.2.7-.3.1-.2.2-.5.2-.7.2-.2.4-.5.5-.8.1-.3.1-.6 0-.9-.2-.5-.5-.9-.9-1.3-.5-.5-.8-.7-1.1-.6-.7.2-1.4.4-2 .5-.9.1-1.9.3-2.9.4l-3 .3-3.9.4c-1.3.1-2.5.2-3.8.2h-.1l-2.5.1-3.2.2c-1.1.1-2.2.1-3.2.3s-1.9.2-2.5.3c-.2 0-.4 0-.6.1-.2.1-.4 0-.6-.1l-.1.1h-.1c.1 0 .1.1.1.1-1.7.2-3.5.5-5.3.7-1.9.3-3.7.7-5.6 1.3-.7.1-1.3.2-1.9.4-.7.2-1.3.4-1.9.7-.2.1-.3.3-.4.6 0 .2-.1.4-.3.6.2.2.2.5 0 .7-.2.3-.2.6 0 .9.1-.2.3-.1.4-.1M418.3 300.5l.9 2H416l-.4-.9-8-18.4-8 18.4-.4.9h-3.1l.9-2 9.3-21.5.4-.9h1.9l.4.9 9.3 21.5zm44-10.2c-.6-.3-2.3-1-5.1-2.1-2.3-.9-3.6-1.7-4-2.5-.1-.2-.2-.5-.2-.8 0-1.4.9-2.7 2.2-3.2.9-.5 1.9-.7 2.9-.7 1.6-.1 3.1.5 4.2 1.7.6.6.9 1.4.9 2.3h2.9c0-2-1-3.8-2.6-5-1.5-1.2-3.4-1.8-5.4-1.8-2.4-.1-4.6.8-6.2 2.6-1.1 1.1-1.8 2.7-1.8 4.3 0 2.1 1.4 3.9 4.3 5.3.6.3 2.2.9 5 2 2.3.9 3.7 1.8 4.1 2.6.1.2.2.5.2.8 0 1.3-.8 2.4-2.3 3.1-1.1.5-2.2.8-3.4.8-1.7.1-3.4-.5-4.6-1.6-.6-.6-1-1.4-1.1-2.3h-2.9c0 1.9 1 3.7 2.5 4.8 1.7 1.3 3.9 2 6 2 2.5.1 4.9-.8 6.7-2.6 1.2-1.1 1.9-2.6 1.9-4.2 0-2.1-1.5-4-4.3-5.4m47.4-11.4-.4-.9h-1.9l-.3.9-9.3 21.5-.9 2h3.1l.4-.9 8-18.4 8 18.4.4.9h3.1l-.9-2-9.3-21.5zm61.2 11.3c.3 3-.5 6-2.4 8.4a9.29 9.29 0 0 1-6.8 3.8h-9.4v-24.3h9.4c2.6.3 5 1.6 6.7 3.7 1.9 2.3 2.8 5.4 2.5 8.4m-2.9 0v-.1c.2-2.1-.3-4.2-1.4-5.9-1.1-1.9-3-3.1-5.1-3.3H555v18.6h6.4c1.8-.2 3.5-1.1 4.5-2.5 1.6-1.9 2.3-4.4 2-6.8m53.9-8.8c4.4 5 4.4 12.5 0 17.6-1.9 2.1-4.6 3.4-7.4 3.4-2.9 0-5.6-1.2-7.5-3.4-4.4-5-4.4-12.5 0-17.6 1.9-2.2 4.6-3.4 7.4-3.4 3 .1 5.7 1.3 7.5 3.4m.5 8.8c0-2.3-.7-4.5-2.1-6.3-1.3-1.9-3.5-3-5.8-3-2 0-3.9.9-5.3 2.4-1.7 1.9-2.7 4.4-2.6 6.9 0 2.3.7 4.5 2.1 6.3 1.3 1.9 3.5 3 5.8 3 2 0 3.9-.9 5.3-2.4 1.7-1.8 2.6-4.3 2.6-6.9m55.4 12.2h-3l-.3-1c-.6-2-1.3-4-2.2-6-.6-1.5-1.6-2.7-2.9-3.7h-7.2v10.7h-2.9V278.2h10.5c1.8 0 3.5.6 4.9 1.7 2.3 1.7 3.1 4.7 2.1 7.4-.7 1.8-2.1 3.2-3.8 3.9 1.4 1.6 2.8 4.8 4.2 9.5l.6 1.8zm-5.3-14.3c1.2-.6 2-1.9 2-3.3 0-.8-.3-1.6-.8-2.3-.9-1.1-2.3-1.8-3.7-1.7h-7.7v7.9h7.8c.8.1 1.7-.1 2.4-.6"/></g></g></svg>