<?xml version="1.0" encoding="utf-8"?>
<!-- Generator: Adobe Illustrator 24.1.2, SVG Export Plug-In . SVG Version: 6.00 Build 0)  -->
<svg version="1.1" id="Capa_1" xmlns="http://www.w3.org/2000/svg" xmlns:xlink="http://www.w3.org/1999/xlink" x="0px" y="0px"
	 viewBox="0 0 792 443.1" style="enable-background:new 0 0 792 443.1;" xml:space="preserve">
<style type="text/css">
	.st0{clip-path:url(#SVGID_2_);}
	.st1{clip-path:url(#SVGID_4_);}
	.st2{fill:#FFFFFF;}
</style>
<g>
	<defs>
		<rect id="SVGID_1_" width="792" height="443.1"/>
	</defs>
	<clipPath id="SVGID_2_">
		<use xlink:href="#SVGID_1_"  style="overflow:visible;"/>
	</clipPath>
	<g class="st0">
		<g>
			<defs>
				<rect id="SVGID_3_" width="792" height="443.1"/>
			</defs>
			<clipPath id="SVGID_4_">
				<use xlink:href="#SVGID_3_"  style="overflow:visible;"/>
			</clipPath>
			<g class="st1">
				<path d="M142.2,254.8L142.2,254.8L142.2,254.8 M261,211.6c-1.4,1.1-2.8,2.4-4.1,3.8c-0.8,0.7-1.7,1.4-2.7,2.2
					c-1,0.7-1.9,1.6-2.8,2.4c-2.7,2.9-5,5.3-6.7,7.3c-1.7,1.9-2.9,3-3.8,3.1c-0.8,0.1-1.6,0-2.2-0.5c-0.7-0.3-1.3-0.9-1.5-1.7
					c-0.1-0.5,0-1,0.2-1.5c0.2-0.6,0.4-1.3,0.7-1.8c0.5-2.3,1.2-4.5,2-6.7c-0.6,0.5-1.2,1-1.9,1.4c-0.5,0.3-0.8,0.4-1,0.3
					c-1.3,0.6-2.5,1.3-3.5,2.2c-1,0.9-2.1,1.7-3.2,2.4c-1.1,0.7-2.3,1.3-3.5,1.7c-1.4,0.4-3,0.4-4.4,0c-0.2,0-0.4-0.1-0.6-0.2
					c-0.2-0.1-0.4-0.2-0.7-0.3c-0.6-0.2-1.1-0.6-1.5-1.1c-0.3-0.5-0.6-1-0.8-1.5c-0.2-0.8-0.3-1.6-0.3-2.4c0-1,0-1.9,0.2-2.9
					c-0.2-0.1-0.3-0.1-0.3,0.1c0,0.1-0.1,0.2-0.2,0.2c-0.2,0.1-0.3,0.2-0.5,0.3c-0.2,0.1-0.4,0.3-0.6,0.4c-0.4,0.5-0.8,0.9-1.1,1.3
					c-0.4,0.4-0.9,0.8-1.4,1c-0.1,0.3-0.4,0.6-0.7,0.7c-0.2,0.1-0.5,0.3-0.7,0.5c-0.1,0-0.1,0.1-0.1,0.2s0,0.2-0.1,0.2
					c-0.2,0.1-0.4,0.2-0.7,0.3c-0.3,0.1-0.6,0.3-0.7,0.6c-1.9,1.3-3.9,2.4-5.9,3.3c-0.6,0.4-1.1,0.7-1.8,1c-0.5,0.3-1.2,0.4-1.8,0.3
					h-1c-0.3,0-0.7-0.1-1-0.2c-0.7-0.1-1.3-0.1-1.9-0.2c-0.6,0-1.2-0.3-1.6-0.8c-0.9-0.6-1.1-1.6-0.7-3.2c0-0.1,0-0.1,0.1-0.1
					c0,0,0,0,0,0c0.1,0,0.1-0.1,0.1-0.2c0.1-0.9,0.3-1.7,0.8-2.5c0.4-0.7,0.9-1.4,1.4-2.1c0.6-1.1,1.4-2.2,2.2-3.2
					c0.7-0.8,1.3-1.7,1.9-2.6c-1.8,0.4-3.1,0.6-3.9,0.8c-1.1,0.2-1.9,0.3-2.2,0.4c-0.2,0-0.5,0.1-0.7,0.2c-0.5,0.3-1,0.5-1.6,0.6
					c-0.2,0.1-0.3,0.2-0.5,0.3c-0.2,0.1-0.4,0.2-0.6,0.2c-0.9,0.4-1.9,0.7-2.9,0.9c-1,0.1-2,0.4-2.9,0.9l-0.7,0.5
					c-0.4,0.3-0.9,0.4-1.5,0.5c-0.5,0-1,0.3-1.2,0.8c-0.4,1.1-0.9,2.3-1.5,3.3c-0.6,1.1-1.2,2.2-1.8,3.2c-0.5,0.6-0.9,1.3-1.3,1.8
					c-0.5,0.6-1,1.3-1.6,1.8c-0.9,1.1-1.8,2.1-2.8,3.1c-2.6,2.6-5.3,5-8.3,7.2c-0.3,0.2-0.6,0.4-0.8,0.7c-0.2,0.3-0.5,0.5-0.9,0.6
					c-0.2,0.1-0.2,0.2-0.1,0.2c0.1,0.1,0,0.2-0.3,0.4c-0.7,0.4-1.4,0.8-2,1.3c-0.7,0.5-1.4,0.9-2.2,1.2c-0.7,0.8-1.5,1.5-2.4,2.1
					c-1,0.7-2,1.4-3.1,2c-4.1,2.3-7.1,3.9-8.9,4.8l-3.5,1.8l-0.5,0.3c0,0-0.1,0-0.3,0c-0.9,0.3-1.7,0.7-2.6,1.1
					c-1.4,0.6-3.8,1.8-7.3,3.5c0.1-0.2-0.6-0.1-2.1,0.5l-5.3,2c-2.1,0.8-4.1,1.5-6.3,2.2c-1.6,0.6-3.3,0.9-5,1
					c-0.5,0.2-1.1,0.1-1.6-0.1c-0.5-0.2-1-0.4-1.5-0.5h-1.5c-0.5,0-1-0.1-1.5-0.2c-0.4-0.1-0.8-0.4-1.1-0.7
					c-0.3-0.5-0.5-1.1-0.4-1.6c-0.1-1.3,0.3-2.7,1.2-3.7c0.8-1.1,1.7-2.2,2.5-3.2c4.6-5.3,9.6-10.1,15-14.6
					c5-4.1,10.3-7.8,15.9-10.9c5.6-3.2,11.5-5.9,17.5-8.3c6.1-2.4,12.7-4.6,19.8-6.7c0.2-1.5-0.1-3-0.7-4.3
					c-0.6-1.3-1.3-2.4-2.3-3.5c-2-1.5-4.2-2.6-6.6-3.5c-2.6-1-5.4-1.6-8.3-1.6c-3.5-0.1-7,0-10.4,0.4c-3.5,0.3-7,0.7-10.7,1.1
					c-1.2,0.2-2.3,0.3-3.5,0.3c-1.2,0.1-2.3-0.1-3.4-0.6c-0.3-0.1-0.7-0.2-1-0.4c-0.3-0.2-0.7-0.3-1.1-0.5c-0.6-0.2-1.2-0.4-1.9-0.5
					c-0.6-0.1-1.2-0.4-1.8-0.7c-0.6-0.5-1.1-1.1-1.6-1.8c-0.6-0.9-0.9-1.9-0.8-2.9c0-1.3,0.3-2.6,0.7-3.8c0.4-1.2,0.9-2.4,1.6-3.4
					c0.6-1.2,1.2-2.3,2-3.3c0.7-0.9,1.4-1.7,2-2.6c6.1-7.3,13.5-13.4,21.7-18.2c2.2-1.4,4.5-2.6,6.9-3.6c2.5-1,5.1-1.7,7.8-2.1
					c0.8-0.2,1.5-0.3,2.3-0.3c0.9,0,1.7-0.1,2.4-0.2c1.6-0.2,3.1-0.2,4.5-0.2c1.3,0,2.6,0.5,3.5,1.3c0.3,0.2,0.6,0.4,0.9,0.7
					c0.3,0.4,0.8,0.6,1.3,0.7c0.2,0.5,0.2,1.1,0.1,1.6c-0.1,0.5-0.3,1-0.4,1.5c0.3,0.2,0.5,0.1,0.4-0.1s0-0.2,0.2-0.1
					c-0.1,0.8-0.3,1.6-0.6,2.3c-0.2,0.6-0.5,1.4-0.7,2.3c-0.6,1.4-1.1,2.6-1.4,3.5c-0.2,0.4-0.5,0.8-0.7,1.3
					c-0.2,0.4-0.4,0.9-0.5,1.4c-0.6-0.2-0.8-0.1-0.8,0.2c0,0.3-0.1,0.6-0.3,0.8c-0.4-0.1-0.8-0.1-1.1,0.1c-0.4,0.1-0.8,0.2-1.1,0.2
					c-0.2,0-0.3-0.1-0.5-0.2c-0.2,0-0.3,0-0.5,0.1c-0.3,0.1-0.6,0.3-0.9,0.5c-0.3,0.3-0.6,0.3-1,0.1c-0.1-1-0.1-2,0.1-2.9
					c0.2-0.9,0.4-1.8,0.7-2.6l0.8-2.6c0.3-0.9,0.5-1.7,0.7-2.6c-1.6,0-3.2,0.2-4.7,0.5c-1.5,0.3-3,0.7-4.5,1.3
					c-1.1,0.4-2.1,0.9-3.1,1.4c-1,0.6-2,1.1-3.1,1.6c-3.9,1.9-7.7,4-11.3,6.4c-0.9,0.5-1.7,1.2-2.4,1.9c-0.7,0.8-1.4,1.6-2,2.4
					c-2.2,2.2-4.2,4.6-6,7.2c-1.9,2.6-3.3,5.6-4.2,8.7c0.7,0.4,1.4,0.5,2.2,0.4c3.7,0.1,7.4-0.1,11.1-0.4c3.6-0.4,7.2-0.5,10.9-0.3
					c3.1,0.2,6.3,0.5,9.4,1.1c2.8,0.5,5.6,1.4,8.2,2.6c2.4,1.1,4.6,2.6,6.4,4.5c1.8,2,3.3,4.3,4.1,6.9c2.9-0.7,5.5-1.3,7.8-1.7
					s4.6-0.8,6.8-1s4.6-0.5,7.1-0.7l1.1-0.1c1-0.9,2-1.9,3.1-2.8c1.5-1.3,3-2.5,4.2-3.5c0.8-0.7,1.7-1.3,2.7-1.6
					c0.8-0.3,1.5-0.9,2.1-1.5c0.7-0.7,1.5-1.2,2.5-1.4c0.1,0,0.1,0,0.1-0.1s0-0.1,0.1-0.1c0.2,0,0.4,0,0.5,0.1
					c0.2,0.1,0.4,0,0.6-0.2c0.5,0.3,1.1,0.4,1.7,0.4c0.3,0.4,0.7,0.8,1.1,1.1c0.4,0.3,0.6,0.8,0.6,1.3c0.3,0.3,0.3,0.7,0.1,1
					c-0.1,0.4-0.4,0.7-0.7,0.9c-0.2,0.2-0.5,0.3-0.9,0.3c-0.3,0-0.7,0-1,0.2c-0.8,0.3-1.6,0.8-2.3,1.4l-1.4,1l-0.2,0.3
					c-0.3,0-0.5,0.1-0.8,0.2c-0.3,0.2-0.6,0.5-0.7,0.9c-0.7,0.2-1.4,0.5-1.9,0.9c-0.6,0.4-1.3,0.9-1.9,1.3l-0.2,0.2
					c0.1,0,0.1,0,0.2,0c0.4,0,0.9,0,1.3-0.1c-0.6,0.2-1.3,0.5-1.9,0.8c-0.2,0.1-0.4,0.2-0.6,0.2c-0.1,0.1-0.3,0.3-0.5,0.4
					c0.2,0,0.4-0.1,0.6-0.1c-0.4,0.4-0.8,0.6-1.3,0.7l-1.9,1.6c-0.7,0.6-1.4,1.3-2.1,1.9c-0.4,0.3-0.8,0.7-1.2,1.1
					c-0.4,0.4-0.9,0.8-1.4,1c0,0.3-0.2,0.7-0.5,0.9v0.2c-0.5,0.2-0.9,0.6-1.1,1c-0.3,0.4-0.6,0.9-0.9,1.3c-0.2,0.7-0.5,1.4-1,1.9
					c-0.5,0.5-0.8,1.1-0.9,1.8c0.7-0.2,1.4-0.6,1.9-1.1c2.8-1.6,5.4-3.3,7.9-5.2c2.5-1.8,5.1-3.7,7.8-5.8c0.7-0.6,1.4-1.1,2.1-1.6
					c0.8-0.5,1.5-1.2,2-1.9h0.4V208c0.1-0.2,0.2-0.4,0.4-0.6c0.2-0.2,0.3-0.5,0.4-0.7c0.1-0.2,0.1-0.4,0.1-0.6
					c0-0.2,0.1-0.5,0.3-0.6c0.3-0.1,0.6-0.1,0.9-0.1h2.4c0.3,0.2,0.8,0.4,1.3,0.6s0.8,0.8,0.8,1.7c-0.2,0.7-0.6,1.4-1,2.1
					c-0.4,0.6-0.9,1.3-1.4,2.1c-0.1,0.7-0.4,1.4-0.9,1.9v0.6c-0.4,0.2-0.7,0.6-0.7,1.1c-0.1,0.4-0.1,0.7-0.2,1
					c-0.1,0.4-0.2,0.7-0.4,1.1l-0.7,2.7c0,1.1,0.2,1.7,0.6,1.8c0.5,0.2,1,0.1,1.5-0.1c0.7-0.3,1.4-0.6,2-1c0.6-0.4,1.3-0.7,1.9-1
					c1.5-0.6,2.9-1.3,4.3-2.2c1.5-1,2.8-1.8,3.9-2.4c0.9-0.4,1.8-0.6,2.7-0.8c1.1-2.3,2.1-4.6,3-7.1c0.2-0.5,0.4-0.9,0.7-1.3
					c0.3-0.4,0.5-0.9,0.7-1.3c0.2-0.5,0.3-1.1,0.4-1.6c0.1-0.5,0.2-1,0.2-1.4c0.2-0.2,0.4-0.4,0.5-0.7c0.2-0.3,0.4-0.5,0.7-0.7
					c0.9-0.6,2-0.8,3-0.5c0.9,0.1,1.6,0.8,1.9,1.7c0.4,0.8,0.4,1.7,0,2.5c-0.4,0.7-0.8,1.4-1.2,2.1c-0.2,0.5-0.2,1-0.2,1.4
					c0,0.5-0.1,0.9-0.2,1.3c-0.5,1.1-1,2.3-1.5,3.4s-1,2.4-1.5,3.8c0.6-0.1,1.1-0.4,1.5-0.8c0.4-0.5,0.9-0.9,1.4-1.2
					c2.1-1.9,4.1-3.7,6.1-5.6c2.1-2,4.3-3.7,6.8-5.1c0.9-0.6,1.9-1.2,3-1.8c1-0.6,2.2-1,3.4-1.1c0.9,0,1.8,0.4,2.6,0.9
					c0.8,0.4,1.3,1.1,1.5,2c0.1,0.9,0,1.9-0.3,2.8c-0.3,1-0.5,1.9-0.8,2.8c-0.1,0.6-0.3,1.7-0.5,3.1s-0.6,3-0.9,4.6
					s-0.5,3.2-0.7,4.6c-0.2,1-0.2,2.1-0.1,3.1l1.9-0.9c0.6-0.2,1.3-0.6,2.1-1s1.4-0.6,1.6-0.7l0.4-0.2c0.1-0.1,0.3-0.2,0.4-0.2
					c0.5-0.3,1-0.6,1.6-0.9c0.6-0.5,1.1-0.9,1.7-1.4c0.5-0.4,1.1-0.7,1.7-1c0.4-0.2,0.9-0.3,1.3-0.2c0.6-0.4,1.3-0.8,1.9-1.1
					c0.6-0.3,1.1-0.7,1.5-1.1c0.7,0.3,1.1,0.6,1.1,0.9c0,0.3-0.1,0.7-0.3,1c-0.7,0.8-1.5,1.5-2.4,1.9c-0.5,0.6-0.9,1-1.2,1.3
					c-0.4,0.4-0.8,0.7-1.3,0.9c-0.9,0.7-1.5,1.2-1.7,1.4s-0.4,0.4-0.5,0.5c-0.2,0.2-0.4,0.3-0.6,0.4c-0.3,0.2-0.9,0.6-1.9,1.2
					c-1,0.6-2,1.2-3,1.9c-0.9,0.7-2,1.2-3.1,1.6c-0.8,0.2-1.6,0.3-2.3,0.4c-0.6,0.1-1.3,0.1-1.9,0.1c-0.9,0.2-1.7-0.3-2.4-1.4
					c-0.6-0.9-1-1.9-1-3c0.1-0.8,0.2-1.7,0.4-2.5c0.2-1.3,0.5-2.6,0.8-4s0.6-2.8,0.9-4.1s0.5-2.2,0.5-2.7c0.1-1,0.2-2,0.5-3
					c0.2-0.9,0.4-1.8,0.6-2.7c-0.6,0.1-1.2,0.4-1.7,0.9l-1.5,1.2C263.8,209.3,262.4,210.4,261,211.6 M175.3,220.3
					c-3,1.2-5.6,2.3-7.8,3.1c-2.2,0.9-4.2,1.6-5.9,2.4s-3.5,1.5-5.1,2.3s-3.3,1.7-5.1,2.7s-3.8,2.1-6,3.5s-4.8,3-7.8,4.9
					c-2.9,2.1-5.1,3.7-6.7,4.9c-1.5,1.2-2.8,2.2-3.9,3.2l-3.1,2.7c-1,0.9-2.4,2.1-4.1,3.6c-0.4,0.3-0.7,0.7-0.9,1.1
					c-0.2,0.4-0.5,0.8-0.8,1.2c-0.5,0.7,0.4,0.7,2.8,0.1c3.2-0.8,6.3-1.8,9.3-3c3.9-1.5,8.2-3.3,13-5.5c4.7-2.2,9.3-4.7,13.7-7.5
					c4.1-2.6,8-5.6,11.5-9c3-2.7,5.2-6.1,6.4-9.9c-0.1,0-0.3,0-0.4,0.1c-0.1,0-0.2,0.1-0.2,0.1C174.7,221,175.1,220.7,175.3,220.3
					 M202.4,213c-0.3,0-0.7,0-1,0.1c0.2-0.1,0.4-0.1,0.6,0C202.2,213.2,202.3,213.2,202.4,213 M302.7,180.4c0.5,0.1,1-0.1,1.3-0.5
					c0.4-0.4,0.9-0.7,1.5-0.9c1.5-0.6,3.1-1.1,4.7-1.5s3.1-0.9,4.5-1.3c4.9-1.9,9.9-3.5,14.9-5c5-1.5,10.2-2.5,15.4-3.1l4.6-0.5
					l4.9-0.5c2.1-0.3,4.3-0.5,6.4-0.9s4.3-0.6,6.4-0.7c0.2,0.1,0.3,0,0.4-0.2s0.2-0.3,0.2-0.3c1.1,0,2.1,0,3-0.1c1,0,1.9,0,2.9,0.1
					v-0.2c0-0.1,0.1-0.2,0.2-0.2c0,0,0,0,0.1,0l1.3-0.2c0.4-0.1,0.9-0.2,1.6-0.3c-0.2,0-0.2,0-0.2-0.1c0-0.1,0-0.2-0.1-0.2
					c0.4-0.2,0.8-0.4,1.1-0.7c0.3-0.3,0.8-0.4,1.1-0.1c0.2-0.5,0.3-0.8,0.5-0.9c0.2-0.1,0.3-0.4,0.4-0.6c-0.3-0.2-0.5-0.6-0.5-1
					c0-0.4-0.1-0.7-0.4-1c-0.3-0.2-0.6-0.3-0.9-0.4c-0.4-0.1-0.8-0.3-1.1-0.4c-3.4-0.2-6.9-0.1-10.3,0.4c-4.8,0.2-9.6,0.8-14.3,1.6
					c-4.7,0.8-9.4,1.7-14.3,2.6c-5.7,1.3-11.2,2.8-16.6,4.4c-5.4,1.6-10.8,3.5-16,5.7c-0.7,0.3-1.5,0.7-2.2,1
					c-0.7,0.4-1.4,0.7-2.2,0.9c-0.2,0.2-0.5,0.3-0.8,0.3c-0.3,0-0.5,0.3-0.8,0.8c-0.3,1.6-0.1,2.8,0.5,3.4
					C300.7,180.2,301.7,180.5,302.7,180.4 M486.4,219.7c-0.5,0.6-0.9,1-1.2,1.3c-0.4,0.4-0.8,0.7-1.3,0.9c-0.9,0.7-1.5,1.2-1.7,1.4
					c-0.2,0.2-0.4,0.3-0.5,0.5c-0.2,0.2-0.4,0.3-0.6,0.4c-0.3,0.2-0.9,0.6-1.9,1.2c-1,0.6-2,1.2-3,1.9c-0.9,0.7-2,1.2-3.1,1.6
					c-0.8,0.2-1.6,0.3-2.3,0.4c-0.6,0.1-1.3,0.1-1.9,0.1c-0.9,0.2-1.7-0.3-2.4-1.4c-0.6-0.9-1-1.9-1-3c0.1-0.8,0.2-1.7,0.4-2.5
					c0.2-1.3,0.5-2.6,0.8-4s0.6-2.8,0.9-4.1s0.5-2.2,0.5-2.7c0.1-1,0.2-2,0.5-3c0.2-0.9,0.4-1.8,0.6-2.7c-0.6,0.1-1.2,0.4-1.7,0.9
					l-1.5,1.2c-1.5,1.1-2.9,2.3-4.3,3.4s-2.8,2.4-4.1,3.8c-0.8,0.7-1.7,1.4-2.7,2.2c-1,0.7-1.9,1.6-2.8,2.4c-2.7,2.9-5,5.3-6.7,7.3
					s-3,3-3.8,3.1c-0.8,0.1-1.6,0-2.2-0.5c-0.7-0.3-1.3-0.9-1.5-1.7c-0.1-0.5,0-1,0.2-1.5c0.2-0.6,0.4-1.3,0.7-1.8
					c0.5-2.3,1.2-4.5,2-6.7c-0.6,0.5-1.2,1-1.9,1.4c-0.5,0.3-0.8,0.4-1,0.3c-1.3,0.6-2.5,1.3-3.5,2.2c-1,0.9-2.1,1.7-3.2,2.4
					c-1.1,0.7-2.3,1.3-3.5,1.7c-1.4,0.4-3,0.4-4.4,0c-0.2,0-0.4-0.1-0.5-0.2c-0.2-0.1-0.4-0.2-0.7-0.3c-0.6-0.2-1.1-0.6-1.5-1.1
					c-0.3-0.5-0.6-1-0.8-1.5c-0.2-0.8-0.3-1.6-0.3-2.4c0-1,0-1.9,0.2-2.9c-0.2-0.1-0.3-0.1-0.3,0.1s-0.1,0.2-0.2,0.2
					c-0.2,0.1-0.3,0.2-0.5,0.3l-0.6,0.4c-0.4,0.5-0.8,0.9-1.1,1.3c-0.4,0.4-0.9,0.8-1.4,1c-0.1,0.3-0.4,0.6-0.7,0.7
					c-0.2,0.1-0.5,0.3-0.7,0.5c-0.1,0-0.1,0.1-0.1,0.2c0,0.1,0,0.2-0.1,0.2c-0.2,0.1-0.4,0.2-0.7,0.3c-0.3,0.1-0.6,0.3-0.7,0.6
					c-1.9,1.3-3.9,2.4-6,3.3c-0.6,0.4-1.1,0.7-1.8,1c-0.5,0.3-1.2,0.4-1.8,0.3h-1c-0.3,0-0.7-0.1-1-0.2c-0.6-0.1-1.3-0.1-1.9-0.2
					c-0.6,0-1.2-0.3-1.6-0.8c-0.9-0.6-1.1-1.6-0.7-3.2c0-0.1,0-0.1,0.1-0.1c0,0,0,0,0,0c0.1,0,0.1-0.1,0.1-0.2
					c0-0.4,0.1-0.9,0.3-1.3c-1.7,1-3.2,1.9-4.6,2.8c-0.8,0.6-1.7,1-2.7,1.3c-0.6,0.2-1.1,0.4-1.4,0.5s-0.8,0.2-1.4,0.4
					c-0.6,0.2-1.3,0.2-1.9,0.1c-0.5-0.1-1.1-0.2-1.6-0.4c-0.8-0.3-1.5-0.9-1.8-1.7c-0.3-0.9-0.5-1.8-0.5-2.7c0-1,0-2,0.2-3
					c0.2-1,0.3-1.9,0.4-2.6c-0.1-0.4-0.1-0.8,0-1.2c0.1-0.4,0.2-0.7,0.4-1.1c-0.3,0.2-0.6,0.5-0.9,0.9c-0.3,0.3-0.6,0.6-1,0.7
					c-0.2,0.3-0.4,0.5-0.7,0.6l-0.5,0.3c-0.2,0.1-0.4,0.2-0.5,0.4c-0.2,0.2-0.4,0.5-0.5,0.7c-0.2,0-0.4,0-0.4,0.1
					c-0.1,0.1-0.1,0.2-0.2,0.2c-0.1,0-0.1,0.2-0.1,0.5c-0.7,0.7-1.5,1.3-2.4,1.8c-0.9,0.5-1.7,1.1-2.3,1.9c-0.7,0.4-1.3,0.9-1.7,1.5
					c-0.4,0.6-0.9,1.1-1.6,1.5c-0.4,0.5-1,0.9-1.6,1.1c-0.1,0.2-0.2,0.4-0.4,0.5c-0.1,0.1-0.3,0.2-0.5,0.2c-0.1,0.5-0.5,1-1,1.1
					c-0.5,0.2-1,0.6-1.3,1c-3.1,0.5-5.2,0.2-6.3-0.7c-1.1-1-1.8-2.4-1.7-3.9c0.1-1.9,0.4-3.8,1.1-5.6c0.7-2,1.6-3.9,2.5-5.8
					c0.2-0.6,0.4-1,0.5-1.2c0.1-0.2,0.2-0.5,0.3-0.7c0.1-0.3,0.2-0.5,0.3-0.8s0.3-0.8,0.5-1.4s0.6-1.3,1-1.9
					c0.2-0.4,0.4-0.7,0.7-1.1h-0.1c-0.3,0-0.6,0.1-0.8,0.3l-1.8,0.5l-1.8,0.5c-0.1,0.1-0.2,0.2-0.3,0.3s-0.2,0.2-0.3,0.3
					c-2.7,0.7-4.7,1.3-6.1,1.8s-2.6,0.9-3.6,1.3s-2.2,1-3.5,1.7s-3.1,1.6-5.6,2.9c-1.2,0.6-2.4,1.3-3.6,1.8s-2.4,1.2-3.5,1.8
					c-0.4,0.3-0.9,0.5-1.3,0.7c-0.4,0.1-0.8,0.4-1,0.8c-0.4,0.5-0.7,1.1-0.9,1.8c-0.2,0.7-0.5,1.4-0.9,2c-2.9,6.4-5.9,12.6-9,18.7
					c-5.5,10.5-12.6,20.1-21,28.5c-0.5,0.4-1,0.9-1.5,1.3s-1,0.9-1.5,1.3l-2.7,1.7c-1.2,1-2.5,1.9-3.9,2.8c-1.4,0.9-2.8,1.7-4.3,2.3
					c-1,0.5-2.1,1-3,1.5c-1,0.5-2.1,1-3.2,1.3l-3.5,0.9c-1,0.3-2,0.6-2.9,0.9c-1.1,0.3-2.2,0.4-3.4,0.5c-1.4,0-2.8-0.2-4.1-0.5
					c-1.2-0.4-2.3-0.9-3.4-1.5c-0.7-0.5-1.3-1.2-1.5-2.1c-0.3-0.9-0.5-1.9-0.5-2.9c-0.1-1,0-2.1,0.1-3.1c0.2-1,0.4-2.1,0.6-3
					c0.8-3,2-5.9,3.5-8.6c1.4-2.5,3-4.9,4.7-7.1c4.8-5.9,10.3-11.2,16.3-15.8c6.1-4.7,12.5-8.9,19.1-12.8c3.4-2.1,6.8-4.1,10.3-5.9
					s7-3.6,10.6-5.3c1-2.2,2-4.8,3-7.8s2.1-6.1,3.2-9.3c1.1-3.2,2.1-6.4,3-9.5c0.9-3.2,1.8-6,2.4-8.5c0.4-1.3,0.7-2.6,1-3.9
					c0.2-1.3,0.5-2.6,0.7-4c0.2-0.5,0.3-1,0.3-1.4c0-0.5,0.1-1,0.3-1.5c0.4-0.6,1-1.1,1.8-1.4c0.8-0.3,1.6-0.5,2.5-0.5
					c1,0.1,1.9,0.5,2.7,1.1c0.8,0.5,1.3,1.3,1.6,2.3c0.2,0.6,0.1,1.2-0.1,1.7c-0.3,0.5-0.5,1-0.7,1.6c-0.5,0.9-0.9,1.9-1.1,2.9
					c-0.3,1-0.6,2-1,3c-0.7,2-1.4,4.4-2.3,7.1c-0.9,2.7-1.7,5.5-2.6,8.3s-1.8,5.6-2.7,8.3s-1.7,4.9-2.4,6.8c1-0.3,2-0.7,3-1.2
					c1-0.5,2-1,3-1.3c3-1.3,5.4-2.3,7.2-3c1.8-0.7,3.4-1.4,5-1.9s3.2-1.1,5.1-1.6s4.5-1.2,7.8-2c0.5-0.2,1-0.3,1.6-0.4h0.1
					c-0.1-0.1-0.1-0.2-0.1-0.3c0-0.1,0.1-0.2,0.1-0.4c0.7-0.5,1.5-0.9,2.2-1.3c0.7-0.4,1.5-0.5,2.3-0.4c0.7,0.4,1.3,1,1.7,1.7
					c0,0.1,0.1,0.2,0.1,0.4c0.1,0,0.1,0.1,0.2,0.1c0.2,0.2,0.5,0.4,0.9,0.5l-1,0.3c0,0.3-0.1,0.6-0.3,0.9c-0.3,0.6-0.6,1.2-1.1,1.6
					c-0.4,1-0.8,1.8-1,2.4s-0.5,1.2-0.8,1.8l-0.8,1.8c-0.3,0.6-0.7,1.5-1.1,2.5c-0.3,0.7-0.7,1.4-1.1,2c-0.5,0.7-1,1.4-1.3,2.2
					c-0.2,0.7-0.4,1.3-0.8,1.9c-0.4,0.7-0.7,1.5-1,2.3c-0.2,0.7-0.2,1.1,0,1.4s1-0.1,2.2-1c2.8-1.9,5.4-4.1,7.8-6.6
					c2.4-2.5,4.9-5,7.5-7.6c0.3-0.4,0.7-0.9,1.2-1.6s1-1.3,1.5-2l1.2-1.8c0.2-0.4,0.6-0.7,0.9-1c0.3-0.3,0.7-0.5,1.1-0.7
					c0.4-0.2,0.9-0.2,1.4,0c0.5,0.3,0.9,0.8,1.1,1.3c0.3,1,0.4,2.1,0.2,3.2c-0.4,1-0.8,1.8-1,2.5c-0.3,0.8-0.5,1.6-0.7,2.4
					c-0.2,0.6-0.3,1.4-0.5,2.5s-0.4,2.2-0.5,3.3c-0.1,1-0.1,2.1-0.1,3.1c0.1,0.9,0.3,1.5,0.7,1.6c0.9,0.4,1.8,0.5,2.7,0.3
					c0.9-0.2,1.8-0.6,2.6-1.1c2.5-1.2,4.3-2.1,5.3-2.6l2.5-1.3c0.3-0.1,0.5-0.3,0.8-0.4c0.7-0.9,1.5-1.8,2.1-2.8
					c0.6-0.6,1.7-1.5,3-2.8s2.8-2.6,4.4-4s3-2.5,4.3-3.5c0.8-0.7,1.7-1.3,2.7-1.6c0.8-0.3,1.5-0.9,2.1-1.5c0.7-0.7,1.5-1.2,2.5-1.4
					c0.1,0,0.1,0,0.1-0.1s0-0.1,0.1-0.1c0.2,0,0.4,0,0.5,0.1c0.2,0,0.4,0,0.5-0.2c0.5,0.3,1.1,0.4,1.7,0.4c0.3,0.4,0.7,0.8,1.1,1.1
					c0.4,0.3,0.6,0.8,0.6,1.3c0.3,0.3,0.3,0.7,0.1,1c-0.1,0.4-0.4,0.7-0.7,0.9c-0.2,0.2-0.5,0.3-0.9,0.3c-0.3,0-0.7,0-1,0.2
					c-0.8,0.3-1.6,0.8-2.3,1.4l-1.5,1l-0.3,0.3c-0.3,0-0.5,0.1-0.8,0.2c-0.3,0.2-0.6,0.5-0.7,0.9c-0.7,0.2-1.4,0.5-1.9,0.9
					c-0.6,0.4-1.3,0.9-2,1.3c-0.4,0.4-0.8,0.8-1.1,1s-0.7,0.6-1.1,0.9c-0.6,0.6-1.3,1.2-2.1,1.8s-1.4,1.3-2.1,1.9
					c-0.4,0.3-0.8,0.7-1.1,1.1c-0.4,0.4-0.9,0.8-1.4,1c0,0.3-0.2,0.7-0.5,0.9v0.2c-0.5,0.2-0.9,0.6-1.1,1c-0.3,0.4-0.6,0.9-0.9,1.3
					c-0.2,0.7-0.5,1.4-1,1.9c-0.5,0.5-0.8,1.1-0.9,1.8c0.7-0.2,1.4-0.6,1.9-1.1c2.8-1.6,5.4-3.3,7.9-5.2c2.5-1.8,5.1-3.7,7.8-5.8
					c0.7-0.6,1.4-1.1,2.1-1.6c0.8-0.5,1.5-1.2,2-1.9h0.4V208c0.1-0.2,0.2-0.4,0.4-0.6c0.2-0.2,0.3-0.5,0.4-0.7
					c0.1-0.2,0.1-0.4,0.1-0.6c0-0.2,0.1-0.4,0.2-0.6c0.3-0.1,0.6-0.1,0.9-0.1h2.3c0.3,0.2,0.8,0.4,1.3,0.6s0.9,0.8,0.9,1.7
					c-0.2,0.7-0.6,1.4-1,2.1c-0.4,0.6-0.9,1.3-1.4,2.1c-0.2,0.7-0.4,1.4-0.9,1.9v0.6c-0.4,0.2-0.7,0.6-0.7,1.1
					c-0.1,0.4-0.1,0.7-0.2,1c-0.1,0.4-0.2,0.7-0.4,1.1l-0.7,2.7c0,1.1,0.2,1.7,0.6,1.8c0.5,0.2,1,0.1,1.5-0.1c0.7-0.3,1.4-0.6,2-1
					c0.6-0.4,1.3-0.7,1.9-1c1.5-0.6,2.9-1.3,4.3-2.2c1.5-1,2.8-1.8,3.9-2.4c0.9-0.4,1.8-0.6,2.7-0.8c1.1-2.3,2.1-4.6,3-7.1
					c0.2-0.5,0.4-0.9,0.7-1.3c0.3-0.4,0.5-0.9,0.7-1.3c0.2-0.5,0.3-1.1,0.4-1.6c0.1-0.5,0.2-1,0.3-1.4c0.2-0.2,0.4-0.4,0.5-0.7
					c0.2-0.3,0.4-0.5,0.7-0.7c0.9-0.6,2-0.8,3-0.5c0.9,0.1,1.6,0.8,1.9,1.7c0.4,0.8,0.4,1.7,0,2.5c-0.4,0.7-0.8,1.4-1.2,2.1
					c-0.2,0.5-0.2,1-0.2,1.4c0,0.5-0.1,0.9-0.3,1.3c-0.5,1.1-1,2.3-1.5,3.4s-1,2.4-1.5,3.8c0.6-0.1,1.1-0.4,1.5-0.8
					c0.4-0.4,0.8-0.8,1.3-1.2c2.1-1.9,4.1-3.7,6.1-5.6c2.1-2,4.3-3.7,6.8-5.1c0.9-0.6,1.9-1.2,3-1.8c1-0.6,2.2-1,3.4-1.1
					c0.9,0,1.8,0.4,2.6,0.9c0.8,0.4,1.3,1.1,1.5,2c0.1,0.9,0,1.9-0.3,2.8c-0.3,1-0.5,1.9-0.8,2.8c-0.1,0.6-0.3,1.7-0.5,3.1
					s-0.6,3-0.9,4.6s-0.5,3.2-0.7,4.6c-0.2,1-0.2,2.1-0.1,3.1l1.9-0.9c0.6-0.2,1.3-0.6,2.1-1s1.4-0.6,1.6-0.7l0.4-0.2
					c0.1-0.1,0.2-0.2,0.4-0.2c0.2-0.1,0.7-0.4,1.6-0.9c0.6-0.5,1.1-0.9,1.7-1.4c0.5-0.4,1.1-0.7,1.7-1c0.4-0.2,0.9-0.3,1.3-0.2
					c0.6-0.4,1.3-0.8,1.9-1.1c0.6-0.3,1.1-0.7,1.5-1.1c0.7,0.3,1.1,0.6,1.1,0.9c0,0.3-0.1,0.7-0.2,1
					C488.1,218.6,487.2,219.2,486.4,219.7 M320.8,225.4c-1.5,0.7-2.9,1.5-4.4,2.4c-1.5,0.8-3,1.7-4.5,2.6s-2.9,1.6-4.3,2.4
					s-2.8,1.6-4.2,2.5s-2.7,1.8-4,2.7s-2.6,1.9-4,2.9s-2.7,1.8-3.9,2.7s-2.5,1.9-3.8,3c-3.7,3.1-7.3,6.3-10.7,9.6
					c-3.5,3.4-6.4,7.3-8.7,11.5c-0.9,1.5-1.7,3.1-2.2,4.8c-0.6,1.8-1,3.6-1.2,5.5c0,0.6,0,1.3,0.1,1.9c0,0.4,0.2,0.8,0.5,1.1
					c0.2,0.4,0.6,0.6,1,0.6c0.4,0.1,0.9,0.1,1.3,0.1c1.1,0.1,2.3,0,3.4-0.1c1.1-0.2,2.2-0.4,3.3-0.7c1.8-0.6,3.5-1.3,5.2-2.1
					c1.5-0.8,3-1.7,4.6-2.7c0.4-0.4,0.9-0.7,1.5-1c0.5-0.3,1-0.6,1.5-1l2.8-2c0.5-0.4,0.9-0.8,1.3-1.1s0.8-0.8,1.2-1.1
					c0.6-0.6,1.1-1.1,1.6-1.6c0.5-0.6,1-1.2,1.4-1.9c1.4-1.3,2.8-2.8,4-4.3c1.2-1.5,2.5-3,3.8-4.5c0.9-1.2,1.7-2.4,2.5-3.7
					s1.5-2.5,2.1-3.8c0.3-0.4,0.6-0.8,0.9-1.2c0.3-0.4,0.5-0.8,0.7-1.2c1.1-1.8,2.1-3.5,3.2-5.2c1.1-1.7,2.1-3.4,3-5.3
					c0.9-1.9,1.8-3.9,2.7-5.8c0.9-1.9,1.7-3.8,2.5-5.6c0.8-1.9,0.8-1.9,0-0.1 M363.8,206.4l0.1-0.1l-0.3,0.1L363.8,206.4
					L363.8,206.4 M666.4,203.8c-1.6,0.5-3.3,1.1-5.1,1.8s-3.5,1.5-5.2,2.4c-1.6,0.8-3.1,1.7-4.5,2.6c-1.2,0.7-2.2,1.6-3.2,2.7
					l-2.1,2.1c-0.7,0.7-1.4,1.5-1.9,2.4c-0.3,0.6-0.5,1.5-0.8,2.4s-0.5,1.9-0.8,2.9c-0.2,0.8-0.5,1.7-0.8,2.5
					c-0.1,0.5-0.4,1-0.8,1.3c-0.3,0.5-0.6,0.9-1,1.3c-0.5,0.6-0.9,0.8-1.2,0.7c-1,0.6-2.2,0.5-3.1-0.2c-0.8-0.7-1.2-1.9-0.9-3
					c0.3-1.2,0.7-2.5,1.1-3.6c0.5-1.2,0.8-2.5,1.1-3.8v-0.1c0.1-0.2,0.1-0.5,0.1-0.7c0,0,0-0.1,0.1-0.2c-0.9,0.5-1.8,1-2.6,1.4
					c-1.3,0.7-2.5,1.3-3.6,1.9s-2,1-2.5,1.2l-8.7,4.1c-0.7,0.4-1.4,0.7-2.1,0.9c-0.8,0.2-1.5,0.4-2.2,0.7c-1,0.2-2.1,0.5-3.3,0.7
					c-1.2,0.2-2.4,0.3-3.6,0.3c-1.2,0-2.4-0.3-3.5-0.7c-1.1-0.5-2.1-1.2-2.7-2.3c-0.6-0.8-0.9-1.7-1-2.7c0-0.3,0-0.5,0-0.8l-1.5,1.2
					c-0.2,0.2-0.4,0.4-0.5,0.5c-0.2,0.2-0.4,0.3-0.6,0.4c-0.3,0.2-0.9,0.6-1.9,1.2c-1,0.6-2,1.2-3,1.9c-0.9,0.7-2,1.2-3.1,1.6
					c-0.8,0.2-1.6,0.3-2.3,0.4c-0.6,0.1-1.3,0.1-1.9,0.1c-0.9,0.2-1.7-0.3-2.4-1.4c-0.6-0.9-1-1.9-1-3c0.1-0.8,0.2-1.7,0.4-2.5
					c0.2-1.3,0.5-2.6,0.8-4s0.6-2.8,0.8-4.1s0.5-2.2,0.5-2.7c0.1-1,0.2-2,0.5-3c0.2-0.9,0.4-1.8,0.6-2.7c-0.6,0.1-1.2,0.4-1.7,0.9
					l-1.5,1.2c-1.5,1.1-2.9,2.3-4.3,3.4s-2.8,2.4-4.1,3.8c-0.8,0.7-1.7,1.4-2.7,2.2c-1,0.7-1.9,1.6-2.8,2.4c-2.7,2.9-5,5.3-6.7,7.3
					s-3,3-3.8,3.1c-0.8,0.1-1.6,0-2.2-0.5c-0.7-0.3-1.3-0.9-1.5-1.7c-0.1-0.5,0-1,0.2-1.5c0.2-0.6,0.4-1.3,0.7-1.8
					c0.6-2.8,1.5-5.5,2.6-8.1c-1.1,0.6-2.3,1.3-3.4,1.9c-1.3,0.7-2.5,1.3-3.6,1.9s-2,1-2.5,1.2l-8.7,4.1c-0.7,0.4-1.4,0.7-2.1,0.9
					c-0.8,0.2-1.5,0.4-2.2,0.7c-1,0.2-2.1,0.5-3.3,0.7c-1.2,0.2-2.4,0.3-3.6,0.3c-1.2,0-2.4-0.3-3.5-0.7c-1.1-0.5-2.1-1.2-2.7-2.3
					c-0.6-0.8-0.9-1.7-1-2.7c-0.1-1.1,0-2.2,0.3-3.2c0.2-1.1,0.6-2.2,1-3.3c0.4-1,0.9-2,1.4-3c0.4-0.3,0.8-0.7,1-1.2
					c0.2-0.4,0.4-0.8,0.5-1.2c1.7-2,3.5-3.9,5.3-5.8c1.7-1.7,3.6-3.2,5.6-4.4c0.9-0.6,1.8-1.1,2.8-1.5c1-0.4,1.9-0.8,2.7-1.2
					c0.3-0.1,0.5-0.3,0.8-0.5c0.3-0.2,0.6-0.3,0.9-0.2c2.9,0,4.8,0.5,5.7,1.5c0.8,0.8,1.3,1.9,1.3,3c-0.2,0.4-0.5,0.8-0.8,1.1
					c-0.4,0.3-0.8,0.7-1.1,1.2c-0.4,0.4-0.8,0.8-1.1,1.2c-0.3,0.3-0.5,0.6-0.7,1c-3.1,2.7-6.3,5.2-9.7,7.5c-0.9,0.7-2,1.1-3.2,1.3
					c-1.3,0.2-2.7,0.3-4.1,0.1c-0.6,0.6-1,1.2-1.5,1.9c-0.5,0.8-0.9,1.6-1.2,2.4c-0.3,0.8-0.4,1.7-0.4,2.5c0,0.8,0.4,1.6,1,2.1
					c1.4,0.2,2.9,0,4.2-0.5c1.2-0.5,2.4-0.9,3.5-1.2c0.9-0.2,1.8-0.5,2.8-0.9s1.8-0.6,2.5-1c1.7-0.8,3.1-1.5,4.2-1.9
					s2.1-0.9,3.1-1.3s2-0.9,3-1.3s2.4-1.2,4-2.1c1.3-0.6,2.6-1.3,3.9-2l1.3-0.7c0.6-1.4,1.2-2.7,1.7-4.1c0.2-0.5,0.4-0.9,0.7-1.3
					c0.3-0.4,0.5-0.9,0.7-1.3c0.2-0.5,0.3-1.1,0.4-1.6c0.1-0.5,0.2-1,0.3-1.4c0.2-0.2,0.4-0.4,0.5-0.7c0.2-0.3,0.4-0.5,0.7-0.7
					c0.9-0.6,2-0.8,3-0.5c0.9,0.1,1.6,0.8,1.9,1.7c0.4,0.8,0.4,1.7,0,2.5c-0.4,0.7-0.8,1.4-1.2,2.1c-0.2,0.5-0.2,1-0.2,1.4
					c0,0.5-0.1,0.9-0.3,1.3c-0.5,1.1-1,2.3-1.5,3.4s-1,2.4-1.5,3.8c0.6-0.1,1.1-0.4,1.5-0.8c0.4-0.4,0.8-0.8,1.3-1.2
					c2.1-1.9,4.1-3.7,6.1-5.6c2.1-2,4.3-3.7,6.8-5.1c0.9-0.6,1.9-1.2,3-1.8c1-0.6,2.2-1,3.4-1.1c0.9,0,1.8,0.4,2.6,0.9
					c0.8,0.4,1.3,1.1,1.5,2c0.1,0.9,0,1.9-0.3,2.8c-0.3,1-0.5,1.9-0.8,2.8c-0.1,0.6-0.3,1.7-0.5,3.1s-0.6,3-0.8,4.6
					s-0.5,3.2-0.7,4.6c-0.2,1-0.2,2.1-0.1,3.1l1.9-0.9c0.6-0.2,1.3-0.6,2.1-1s1.4-0.6,1.6-0.7l0.4-0.2c0.1-0.1,0.3-0.2,0.4-0.2
					c0.5-0.3,1-0.6,1.6-0.9c0.6-0.5,1.1-0.9,1.7-1.4c0.5-0.4,1.1-0.7,1.7-1c0.3-0.1,0.7-0.2,1-0.2c0.2-0.6,0.4-1.1,0.6-1.7
					c0.4-1,0.9-2,1.4-3c0.4-0.3,0.8-0.7,1-1.2c0.2-0.4,0.4-0.8,0.5-1.2c1.7-2,3.5-3.9,5.3-5.8c1.7-1.7,3.6-3.2,5.6-4.4
					c0.9-0.6,1.8-1.1,2.8-1.5c1-0.4,1.9-0.8,2.7-1.2c0.3-0.1,0.5-0.3,0.8-0.5c0.3-0.2,0.6-0.3,0.9-0.2c2.9,0,4.8,0.5,5.7,1.5
					c0.8,0.8,1.3,1.9,1.3,3c-0.2,0.4-0.5,0.8-0.8,1.1c-0.4,0.3-0.8,0.7-1.1,1.2c-0.4,0.4-0.8,0.8-1.1,1.2c-0.3,0.3-0.5,0.6-0.7,1
					c-3.1,2.7-6.3,5.2-9.7,7.5c-0.9,0.7-2,1.2-3.1,1.4c-1.3,0.2-2.7,0.3-4.1,0.1c-0.6,0.6-1,1.2-1.5,1.9c-0.5,0.8-0.9,1.6-1.2,2.4
					c-0.3,0.8-0.4,1.7-0.4,2.5c0,0.8,0.4,1.6,1,2.1c1.4,0.2,2.9,0,4.2-0.5c1.2-0.5,2.4-0.9,3.5-1.2c0.9-0.2,1.8-0.5,2.8-0.9
					s1.8-0.6,2.5-1c1.7-0.8,3.1-1.5,4.2-1.9s2.1-0.9,3.1-1.3s2-0.9,3-1.3s2.4-1.2,4-2.1c1.3-0.6,2.6-1.3,3.9-2l0.3-0.1
					c0.2-0.6,0.5-1.1,0.7-1.6c0-0.1,0.1-0.1,0.2-0.2c0.1,0,0.2-0.1,0.2-0.2c0.4-1.6,0.9-3.2,1.5-4.8c0.6-1.6,1.2-3.1,1.6-4.6
					c0.1-0.3,0.2-0.5,0.4-0.7c0.2-0.2,0.3-0.4,0.5-0.6c0.3-0.1,0.7-0.3,1-0.5c0.3-0.2,0.6-0.3,0.9-0.3c0.2-0.2,0.4-0.2,0.6-0.2
					c0.2,0,0.4,0,0.5,0.1c0.2,0,0.4,0.1,0.5,0.1c0.6,0,1.2,0.3,1.6,0.9c0.9,1,0.9,2.6-0.1,3.5c0,0-0.1,0.1-0.1,0.1
					c-0.1,0.7-0.2,1.3-0.4,1.9c-0.2,0.6-0.3,1.1-0.4,1.7c2.5-1.9,5.3-3.4,8.4-4.4c2.5-0.8,5-1.2,7.6-1.4l2.3-0.3
					c0.8-0.1,1.6,0.1,2.2,0.5c-0.1,0.2-0.2,0.4-0.2,0.6c0,0.2-0.1,0.3-0.4,0.5c0,0.2-0.1,0.3-0.4,0.3c-0.1,0.4-0.5,0.7-0.9,0.7
					c-0.5,0.1-0.9,0.4-1.2,0.7 M611,213.3c0.7,0,1.5-0.2,2.1-0.6c0.7-0.4,1.4-0.8,2-1.2c1.6-1.3,3.3-2.7,5-4.3
					c1.6-1.5,3.2-3.1,4.6-4.8c0.2,0,0.3-0.1,0.3-0.4c-2.9,1-5.5,2.6-7.7,4.6C615.1,208.7,613,211,611,213.3 M532.1,213.3
					c0.7,0,1.5-0.2,2.1-0.6c0.7-0.4,1.4-0.8,2-1.2c1.6-1.3,3.3-2.7,5-4.3c1.6-1.5,3.2-3.1,4.6-4.8c0.2,0,0.3-0.1,0.3-0.4
					c-2.9,1-5.5,2.6-7.7,4.6C536.1,208.7,534,211,532.1,213.3 M714.1,204.3c-0.2,0.3-0.5,0.6-0.8,0.8c-0.6,0-1.1,0.1-1.6,0.4
					c-0.2,0.2-0.4,0.3-0.6,0.4c-0.3,0.2-0.7,0.2-1,0.3c-0.5,0-1.4,0.1-2.8,0.1c-1.2,0-2.4,0.1-3.6,0.2c-1.3,0.2-2.6,0.4-3.8,0.7
					l-3.7,0.9c-1.2,0.3-2.2,0.5-3,0.8c-0.1,0.3-0.1,0.5-0.1,0.8v0.5c0.1,0.6,0,1.3-0.1,1.9c-0.1,0.6-0.4,1.2-0.7,1.6
					c-0.2,0.4-0.4,0.9-0.6,1.6c-0.2,0.6-0.5,1.2-0.8,1.7c-0.7,0.7-1.3,1.5-1.7,2.5c-0.4,0.9-1,1.7-1.8,2.3c-1.3,1.4-2.7,2.7-4.1,3.9
					c-1.1,0.9-2.3,1.8-3.6,2.5c-0.9,0.7-2.1,1-3.2,0.9c-1.2,0.5-2.5,0.7-3.8,0.6c-1.1-0.1-2.3-0.5-3.3-1c-1-0.5-1.8-1.3-2.4-2.2
					c-0.7-1-1.1-2.1-1.2-3.2c-0.1-0.3-0.1-0.6-0.1-0.9c0-0.3,0.1-0.7,0.4-0.9c-0.2-0.6-0.2-1.3,0.1-1.8c0.3-0.5,0.4-1.1,0.4-1.7
					l2.2-6.2c0.2,0,0.4-0.2,0.4-0.4c0-0.2,0.1-0.3,0.3-0.3c0.5-1.2,1.2-2.3,2-3.4c0.9-1.1,1.7-2.2,2.6-3.1c0.5-0.6,1-1.3,1.6-2.1
					c0.6-0.7,1.2-1.4,1.9-2c0.6-0.5,1.3-0.9,2.1-1.1c0.7-0.2,1.5,0.1,2.1,0.6c0.7,0.1,1.4,0.4,2.1,0.7c0.1,0.2,0.2,0.2,0.3,0
					c0.1-0.2,0.3-0.2,0.4-0.1c0.3-0.1,0.6-0.1,0.9,0c0.5,0.1,0.9,0.2,1.4,0.4c0.5,0.2,0.9,0.3,1.3,0.5c0.3,0.1,0.6,0.3,0.8,0.5
					l1.2,1.7c1-0.2,2.5-0.5,4.5-0.9s4.2-0.6,6.5-0.8c2.1-0.2,4.2-0.3,6.3-0.2c1.5-0.1,2.9,0.2,4.3,0.9c0.1,0.1,0.2,0.1,0.3,0.1
					c0.1,0,0.2,0,0.3,0.1c0.1,0.1,0.1,0.1,0.2,0.1c0.5-0.1,0.7,0,0.8,0.1s0.2,0.3,0.5,0.3c0.4,0.3,0.5,0.7,0.2,1 M686.6,206.2
					c0-1.3-0.8-1.9-2.2-1.9c-0.4-0.2-0.8-0.2-1.2-0.3c-0.4,0-0.8-0.2-1.1-0.5l-0.4,0.4c-0.5,0.4-0.9,0.9-1.2,1.5
					c-0.3,0.6-0.6,1.2-1,1.8c-0.4,0.5-0.9,1.2-1.6,2.2s-1.3,2-2,3.1s-1.2,2.1-1.8,3.1c-0.4,0.7-0.7,1.5-0.9,2.4
					c-0.2,1-0.6,2.2-1,3.4c-0.4,1.2-0.3,2.4,0.3,3.5c1.7-0.6,3.2-1.4,4.7-2.4c1.3-1,2.6-2.1,3.7-3.3l0.7-0.9l1.8-3.1
					c0.9-1.5,1.6-3.1,2.2-4.7C686.3,209.1,686.6,207.7,686.6,206.2 M572.7,240.2c-1.5-0.4-3.1-0.7-4.7-0.9c-2-0.2-4.1-0.4-6.4-0.5
					c-2.3-0.1-4.4-0.2-6.5-0.2c-1.7,0-3.3,0.1-5,0.3c-2.9,0.1-6.5,0.3-10.9,0.7s-8.8,0.9-13.5,1.6c-4.7,0.7-9.3,1.4-13.9,2.3
					c-4.6,0.8-8.6,1.7-12,2.7c0.3-0.5,0.5-1.1,0.7-1.7c0.4-1.1,0.9-2.4,1.4-3.9s1.1-3.2,1.7-5s1.2-3.6,1.8-5.2s1-3.1,1.5-4.5
					s0.7-2.3,0.9-2.9c0.2,0,0.2,0,0.1,0.1c-0.1,0-0.1,0.1,0.1,0.2c0-0.1,0.1-0.3,0.2-0.4c0.1-0.1,0.2-0.2,0.2-0.4
					c0-0.2,0.1-0.5,0.1-0.7c0.1-0.3,0.1-0.4,0-0.2l-0.1,0.1c0.2-0.6,0.3-1.1,0.5-1.6c0.2-0.5,0.4-1.1,0.7-1.5l1-2.4
					c0.2-0.8,0.6-1.6,1-2.3c1.2-2.2,2.1-4.6,2.9-7c0.8-2.5,1.7-5,2.7-7.6c1.1-3.3,2.3-6.6,3.5-9.8c1.2-3.2,2.4-6.3,3.7-9.4
					c-0.2-0.5-0.1-1,0.2-1.4c0.3-0.4,0.5-0.8,0.7-1.3c0.7-1.5,1.3-2.9,1.8-4.4s1.2-2.8,1.8-4.1l2.7-5.3c0.9-1.8,1.7-3.6,2.4-5.5
					c-0.2-0.9-0.6-1.7-1.1-2.4c-0.7-0.6-1.6-1-2.5-1c-0.4,0.1-0.7,0.4-0.9,0.7c-0.3,0.4-0.6,0.8-0.9,1.1c-0.2,0.2-0.4,0.4-0.6,0.5
					c-0.2,0.1-0.3,0.2-0.5,0.4c-0.4,0.4-0.7,0.8-0.9,1.2c-0.3,0.5-0.5,1-0.8,1.5c-0.9,1.5-1.7,3-2.4,4.6c-0.7,1.6-1.4,3.1-2.1,4.6
					c-0.5,1.1-1,2.2-1.4,3.3c-0.4,1.1-0.9,2.2-1.4,3.3c-0.7,1.7-1.3,3.3-1.9,4.9c-0.6,1.5-1.2,3.1-1.9,4.7c-1.7,4-3.3,7.9-4.8,11.7
					c-1.5,3.8-3,7.7-4.6,11.5c-1.8,4.6-3.6,9-5.5,13.2c-2,4.4-3.6,8.9-4.9,13.5l-3.3,11.5c0.2,0.3,0.2,0.7,0.2,1.1
					c-0.1,0.3,0,0.6,0.2,0.9c-0.5,0.2-0.8,0.4-1,0.5c-0.2,0.1-0.4,0.1-0.5,0.1c-0.2,0-0.4-0.1-0.6-0.1c-0.4,0-0.8,0.1-1.2,0.2
					c-0.1,0.1-0.1,0.2-0.1,0.4c0,0.2,0,0.4-0.2,0.5c-0.5,0.2-0.9,0.5-1.3,0.9l-1.3,1.3c-0.2,0.2-0.2,0.4-0.1,0.6
					c0.1,0.3,0.1,0.6,0,0.9c0.6,0.8,1.6,1.4,2.6,1.5c1.1,0.1,2.1,0,3.2-0.3c1.1-0.3,2.3-0.7,3.3-1.2c1-0.5,2.1-0.9,3.1-1.1
					c0.6-0.2,1.2-0.3,1.8-0.3c0.7,0,1.3-0.2,1.9-0.3c1.9-0.5,3.8-1.1,5.7-1.8s3.9-1.3,5.8-1.8c4.5-1.2,9-2.2,13.6-2.9
					c4.2-0.7,8.1-1.1,11.8-1.4c3.6-0.3,7-0.6,10.3-0.7s6.2-0.4,9-0.7c0.3,0.1,0.6,0.1,0.8,0s0.6-0.1,0.8,0c2-0.2,4-0.2,6.1,0
					c0.8-0.2,1.6-0.2,2.4-0.2c0.7,0,1.5,0,2.2-0.2c2.3-0.4,3.7-0.8,3.9-1.2S573.7,240.5,572.7,240.2 M560.5,194.2
					c0.2,0,0.4,0.2,0.5,0.4c0.7-0.4,1.4-0.7,2.2-0.8c0.3,0,0.5-0.1,0.8-0.2c0.9-0.2,1.7-0.4,2.6-0.5c0.8-0.1,1.7-0.2,2.5-0.5
					c3.3-0.4,6.6-0.7,9.8-0.9c3.2-0.2,6.4-0.4,9.5-0.6c0.8-0.1,1.5-0.2,2.2-0.3c0.8-0.1,1.6,0,2.3,0.2c1.2,0,2.5-0.1,3.7-0.2
					c1.3-0.1,2.6-0.3,3.8-0.4c0.4-0.1,0.8-0.2,1.2-0.1c0.4,0,0.8,0,1.1-0.1l0.9,0.1c0.3,0,0.6,0,0.9-0.2c0.4-0.1,0.6-0.2,0.7-0.3
					c0.1-0.2,0.2-0.5,0.2-0.7c0.2-0.2,0.4-0.5,0.5-0.8c0.1-0.3,0.1-0.6,0-0.9c-0.2-0.5-0.5-0.9-0.9-1.3c-0.5-0.5-0.8-0.7-1.1-0.6
					c-0.7,0.2-1.4,0.4-2,0.5c-0.9,0.1-1.9,0.3-2.9,0.4s-2,0.2-3,0.3l-3.9,0.4c-1.3,0.1-2.5,0.2-3.8,0.2h-0.1l-2.5,0.1l-3.2,0.2
					c-1.1,0.1-2.2,0.1-3.2,0.3s-1.9,0.2-2.5,0.3c-0.2,0-0.4,0-0.6,0.1c-0.2,0.1-0.4,0-0.6-0.1l-0.1,0.1h-0.1c0.1,0,0.1,0.1,0.1,0.1
					c-1.7,0.2-3.5,0.5-5.3,0.7c-1.9,0.3-3.7,0.7-5.6,1.3c-0.7,0.1-1.3,0.2-1.9,0.4c-0.7,0.2-1.3,0.4-1.9,0.7
					c-0.2,0.1-0.3,0.3-0.4,0.6c0,0.2-0.1,0.4-0.3,0.6c0.2,0.2,0.2,0.5,0,0.7c-0.2,0.3-0.2,0.6,0,0.9
					C560.2,194.1,560.4,194.2,560.5,194.2"/>
				<path d="M418.3,300.5l0.9,2H416l-0.4-0.9l-8-18.4l-8,18.4l-0.4,0.9h-3.1l0.9-2l9.3-21.5l0.4-0.9h1.9l0.4,0.9L418.3,300.5z
					 M462.3,290.3c-0.6-0.3-2.3-1-5.1-2.1c-2.3-0.9-3.6-1.7-4-2.5c-0.1-0.2-0.2-0.5-0.2-0.8c0-1.4,0.9-2.7,2.2-3.2
					c0.9-0.5,1.9-0.7,2.9-0.7c1.6-0.1,3.1,0.5,4.2,1.7c0.6,0.6,0.9,1.4,0.9,2.3h2.9c0-2-1-3.8-2.6-5c-1.5-1.2-3.4-1.8-5.4-1.8
					c-2.4-0.1-4.6,0.8-6.2,2.6c-1.1,1.1-1.8,2.7-1.8,4.3c0,2.1,1.4,3.9,4.3,5.3c0.6,0.3,2.2,0.9,5,2c2.3,0.9,3.7,1.8,4.1,2.6
					c0.1,0.2,0.2,0.5,0.2,0.8c0,1.3-0.8,2.4-2.3,3.1c-1.1,0.5-2.2,0.8-3.4,0.8c-1.7,0.1-3.4-0.5-4.6-1.6c-0.6-0.6-1-1.4-1.1-2.3
					h-2.9c0,1.9,1,3.7,2.5,4.8c1.7,1.3,3.9,2,6,2c2.5,0.1,4.9-0.8,6.7-2.6c1.2-1.1,1.9-2.6,1.9-4.2c0-2.1-1.5-4-4.3-5.4 M509.6,279
					l-0.4-0.9h-1.9L507,279l-9.3,21.5l-0.9,2h3.1l0.4-0.9l8-18.4l8,18.4l0.4,0.9h3.1l-0.9-2L509.6,279z M570.8,290.3
					c0.3,3-0.5,6-2.4,8.4c-1.6,2.2-4.1,3.6-6.8,3.8h-9.4v-24.3h9.4c2.6,0.3,5,1.6,6.7,3.7C570.2,284.2,571.1,287.3,570.8,290.3
					 M567.9,290.3v-0.1c0.2-2.1-0.3-4.2-1.4-5.9c-1.1-1.9-3-3.1-5.1-3.3H555v18.6h6.4c1.8-0.2,3.5-1.1,4.5-2.5
					C567.5,295.2,568.2,292.7,567.9,290.3 M621.8,281.5c4.4,5,4.4,12.5,0,17.6c-1.9,2.1-4.6,3.4-7.4,3.4c-2.9,0-5.6-1.2-7.5-3.4
					c-4.4-5-4.4-12.5,0-17.6c1.9-2.2,4.6-3.4,7.4-3.4C617.3,278.2,620,279.4,621.8,281.5 M622.3,290.3c0-2.3-0.7-4.5-2.1-6.3
					c-1.3-1.9-3.5-3-5.8-3c-2,0-3.9,0.9-5.3,2.4c-1.7,1.9-2.7,4.4-2.6,6.9c0,2.3,0.7,4.5,2.1,6.3c1.3,1.9,3.5,3,5.8,3
					c2,0,3.9-0.9,5.3-2.4C621.4,295.4,622.3,292.9,622.3,290.3 M677.7,302.5h-3l-0.3-1c-0.6-2-1.3-4-2.2-6c-0.6-1.5-1.6-2.7-2.9-3.7
					h-7.2v10.7h-2.9v-12.2v-10.7v-1.4h1.4h9.1c1.8,0,3.5,0.6,4.9,1.7c2.3,1.7,3.1,4.7,2.1,7.4c-0.7,1.8-2.1,3.2-3.8,3.9
					c1.4,1.6,2.8,4.8,4.2,9.5L677.7,302.5z M672.4,288.2c1.2-0.6,2-1.9,2-3.3c0-0.8-0.3-1.6-0.8-2.3c-0.9-1.1-2.3-1.8-3.7-1.7h-7.7
					v7.9h3.2l0,0h4.6C670.8,288.9,671.7,288.7,672.4,288.2"/>
			</g>
		</g>
	</g>
</g>
</svg>
